<svg xmlns="http://www.w3.org/2000/svg" viewBox="0 0 2000 2000" width="300" height="300" fill="none">
  <g>
    <defs>
      <style>
        .cls-teq31{fill:#a8b6c1}.cls-teq32{fill:#e5981c}.cls-teq33{fill:#f7d78f}.cls-teq34{fill:#fcc977}.cls-teq35{fill:#e4eaef}.cls-teq36{fill:#d13920}.cls-teq37{fill:#e87f38}.cls-teq38{fill:#f7be59}.cls-teq39{fill:#f7af31}.cls-teq310{fill:#f0f4f7}.cls-teq311{fill:#cad3db}.cls-teq313{fill:#ea5436}
      </style>
    </defs>
    <g transform="translate(640, 790)scale(3)" fill="none">
      <svg width="300" height="300">
        <style>
          .background-color{ fill: #fff; }.dot-color{ fill: #0e372d; }.corners-square-color-0-0{ fill: #0e372d; }.corners-dot-color-0-0{ fill: #0e372d; }.corners-square-color-1-0{ fill: #0e372d; }.corners-dot-color-1-0{ fill: #0e372d; }.corners-square-color-0-1{ fill: #0e372d; }.corners-dot-color-0-1{ fill: #0e372d; }
        </style>
        <defs/>
        <g class="dot-color">
          <path d="M 5 105v 10h 5a 5 5, 0, 0, 0, 0 -10" transform="rotate(-90,10,110)"/>
          <rect x="5" y="115" width="10" height="10" transform="rotate(0,10,120)"/>
          <rect x="5" y="125" width="10" height="10" transform="rotate(0,10,130)"/>
          <rect x="5" y="135" width="10" height="10" transform="rotate(0,10,140)"/>
          <rect x="5" y="145" width="10" height="10" transform="rotate(0,10,150)"/>
          <path d="M 5 155v 10h 5a 5 5, 0, 0, 0, 0 -10" transform="rotate(90,10,160)"/>
          <path d="M 5 185v 10h 10a 10 10, 0, 0, 0, -10 -10" transform="rotate(-90,10,190)"/>
          <path d="M 5 195v 10h 5a 5 5, 0, 0, 0, 0 -10" transform="rotate(90,10,200)"/>
          <path d="M 15 95v 10h 5a 5 5, 0, 0, 0, 0 -10" transform="rotate(180,20,100)"/>
          <rect x="15" y="125" width="10" height="10" transform="rotate(0,20,130)"/>
          <rect x="15" y="145" width="10" height="10" transform="rotate(0,20,150)"/>
          <path d="M 15 175v 10h 10a 10 10, 0, 0, 0, -10 -10" transform="rotate(-90,20,180)"/>
          <rect x="15" y="185" width="10" height="10" transform="rotate(0,20,190)"/>
          <circle cx="20" cy="210" r="5" transform="rotate(0,20,210)"/>
          <rect x="25" y="95" width="10" height="10" transform="rotate(0,30,100)"/>
          <path d="M 25 105v 10h 10a 10 10, 0, 0, 0, -10 -10" transform="rotate(180,30,110)"/>
          <path d="M 25 125v 10h 5a 5 5, 0, 0, 0, 0 -10" transform="rotate(0,30,130)"/>
          <rect x="25" y="145" width="10" height="10" transform="rotate(0,30,150)"/>
          <rect x="25" y="155" width="10" height="10" transform="rotate(0,30,160)"/>
          <rect x="25" y="165" width="10" height="10" transform="rotate(0,30,170)"/>
          <rect x="25" y="175" width="10" height="10" transform="rotate(0,30,180)"/>
          <rect x="25" y="185" width="10" height="10" transform="rotate(0,30,190)"/>
          <path d="M 35 85v 10h 5a 5 5, 0, 0, 0, 0 -10" transform="rotate(-90,40,90)"/>
          <rect x="35" y="95" width="10" height="10" transform="rotate(0,40,100)"/>
          <path d="M 35 105v 10h 10a 10 10, 0, 0, 0, -10 -10" transform="rotate(90,40,110)"/>
          <rect x="35" y="145" width="10" height="10" transform="rotate(0,40,150)"/>
          <path d="M 35 175v 10h 10a 10 10, 0, 0, 0, -10 -10" transform="rotate(0,40,180)"/>
          <rect x="35" y="185" width="10" height="10" transform="rotate(0,40,190)"/>
          <path d="M 45 95v 10h 5a 5 5, 0, 0, 0, 0 -10" transform="rotate(0,50,100)"/>
          <path d="M 45 125v 10h 10a 10 10, 0, 0, 0, -10 -10" transform="rotate(-90,50,130)"/>
          <rect x="45" y="135" width="10" height="10" transform="rotate(0,50,140)"/>
          <path d="M 45 145v 10h 10a 10 10, 0, 0, 0, -10 -10" transform="rotate(90,50,150)"/>
          <path d="M 45 185v 10h 5a 5 5, 0, 0, 0, 0 -10" transform="rotate(0,50,190)"/>
          <circle cx="50" cy="210" r="5" transform="rotate(0,50,210)"/>
          <path d="M 55 85v 10h 5a 5 5, 0, 0, 0, 0 -10" transform="rotate(180,60,90)"/>
          <rect x="55" y="125" width="10" height="10" transform="rotate(0,60,130)"/>
          <path d="M 55 135v 10h 10a 10 10, 0, 0, 0, -10 -10" transform="rotate(90,60,140)"/>
          <circle cx="60" cy="180" r="5" transform="rotate(0,60,180)"/>
          <rect x="65" y="85" width="10" height="10" transform="rotate(0,70,90)"/>
          <circle cx="70" cy="110" r="5" transform="rotate(0,70,110)"/>
          <path d="M 65 125v 10h 5a 5 5, 0, 0, 0, 0 -10" transform="rotate(0,70,130)"/>
          <path d="M 65 145v 10h 5a 5 5, 0, 0, 0, 0 -10" transform="rotate(180,70,150)"/>
          <path d="M 65 165v 10h 5a 5 5, 0, 0, 0, 0 -10" transform="rotate(180,70,170)"/>
          <circle cx="70" cy="190" r="5" transform="rotate(0,70,190)"/>
          <circle cx="70" cy="210" r="5" transform="rotate(0,70,210)"/>
          <path d="M 75 85v 10h 5a 5 5, 0, 0, 0, 0 -10" transform="rotate(0,80,90)"/>
          <circle cx="80" cy="120" r="5" transform="rotate(0,80,120)"/>
          <path d="M 75 135v 10h 10a 10 10, 0, 0, 0, -10 -10" transform="rotate(-90,80,140)"/>
          <path d="M 75 145v 10h 10a 10 10, 0, 0, 0, -10 -10" transform="rotate(90,80,150)"/>
          <path d="M 75 165v 10h 5a 5 5, 0, 0, 0, 0 -10" transform="rotate(0,80,170)"/>
          <path d="M 75 195v 10h 5a 5 5, 0, 0, 0, 0 -10" transform="rotate(180,80,200)"/>
          <path d="M 85 15v 10h 10a 10 10, 0, 0, 0, -10 -10" transform="rotate(-90,90,20)"/>
          <path d="M 85 25v 10h 10a 10 10, 0, 0, 0, -10 -10" transform="rotate(180,90,30)"/>
          <circle cx="90" cy="70" r="5" transform="rotate(0,90,70)"/>
          <path d="M 85 135v 10h 5a 5 5, 0, 0, 0, 0 -10" transform="rotate(0,90,140)"/>
          <rect x="85" y="195" width="10" height="10" transform="rotate(0,90,200)"/>
          <path d="M 85 205v 10h 10a 10 10, 0, 0, 0, -10 -10" transform="rotate(180,90,210)"/>
          <path d="M 85 225v 10h 5a 5 5, 0, 0, 0, 0 -10" transform="rotate(-90,90,230)"/>
          <path d="M 85 235v 10h 10a 10 10, 0, 0, 0, -10 -10" transform="rotate(180,90,240)"/>
          <circle cx="90" cy="260" r="5" transform="rotate(0,90,260)"/>
          <path d="M 95 5v 10h 5a 5 5, 0, 0, 0, 0 -10" transform="rotate(-90,100,10)"/>
          <rect x="95" y="15" width="10" height="10" transform="rotate(0,100,20)"/>
          <path d="M 95 25v 10h 10a 10 10, 0, 0, 0, -10 -10" transform="rotate(90,100,30)"/>
          <circle cx="100" cy="50" r="5" transform="rotate(0,100,50)"/>
          <path d="M 95 75v 10h 10a 10 10, 0, 0, 0, -10 -10" transform="rotate(-90,100,80)"/>
          <path d="M 95 85v 10h 5a 5 5, 0, 0, 0, 0 -10" transform="rotate(90,100,90)"/>
          <path d="M 95 105v 10h 5a 5 5, 0, 0, 0, 0 -10" transform="rotate(180,100,110)"/>
          <path d="M 95 125v 10h 5a 5 5, 0, 0, 0, 0 -10" transform="rotate(180,100,130)"/>
          <path d="M 95 145v 10h 10a 10 10, 0, 0, 0, -10 -10" transform="rotate(-90,100,150)"/>
          <rect x="95" y="155" width="10" height="10" transform="rotate(0,100,160)"/>
          <rect x="95" y="165" width="10" height="10" transform="rotate(0,100,170)"/>
          <rect x="95" y="175" width="10" height="10" transform="rotate(0,100,180)"/>
          <rect x="95" y="185" width="10" height="10" transform="rotate(0,100,190)"/>
          <rect x="95" y="195" width="10" height="10" transform="rotate(0,100,200)"/>
          <rect x="95" y="205" width="10" height="10" transform="rotate(0,100,210)"/>
          <path d="M 95 215v 10h 10a 10 10, 0, 0, 0, -10 -10" transform="rotate(180,100,220)"/>
          <rect x="95" y="235" width="10" height="10" transform="rotate(0,100,240)"/>
          <path d="M 95 275v 10h 5a 5 5, 0, 0, 0, 0 -10" transform="rotate(-90,100,280)"/>
          <path d="M 95 285v 10h 10a 10 10, 0, 0, 0, -10 -10" transform="rotate(180,100,290)"/>
          <path d="M 105 15v 10h 5a 5 5, 0, 0, 0, 0 -10" transform="rotate(0,110,20)"/>
          <path d="M 105 65v 10h 5a 5 5, 0, 0, 0, 0 -10" transform="rotate(-90,110,70)"/>
          <path d="M 105 75v 10h 10a 10 10, 0, 0, 0, -10 -10" transform="rotate(90,110,80)"/>
          <rect x="105" y="105" width="10" height="10" transform="rotate(0,110,110)"/>
          <path d="M 105 125v 10h 5a 5 5, 0, 0, 0, 0 -10" transform="rotate(0,110,130)"/>
          <rect x="105" y="145" width="10" height="10" transform="rotate(0,110,150)"/>
          <path d="M 105 155v 10h 10a 10 10, 0, 0, 0, -10 -10" transform="rotate(90,110,160)"/>
          <path d="M 105 175v 10h 5a 5 5, 0, 0, 0, 0 -10" transform="rotate(0,110,180)"/>
          <path d="M 105 195v 10h 5a 5 5, 0, 0, 0, 0 -10" transform="rotate(0,110,200)"/>
          <path d="M 105 215v 10h 5a 5 5, 0, 0, 0, 0 -10" transform="rotate(0,110,220)"/>
          <rect x="105" y="235" width="10" height="10" transform="rotate(0,110,240)"/>
          <path d="M 105 285v 10h 5a 5 5, 0, 0, 0, 0 -10" transform="rotate(0,110,290)"/>
          <path d="M 115 5v 10h 5a 5 5, 0, 0, 0, 0 -10" transform="rotate(180,120,10)"/>
          <path d="M 115 25v 10h 5a 5 5, 0, 0, 0, 0 -10" transform="rotate(-90,120,30)"/>
          <path d="M 115 35v 10h 10a 10 10, 0, 0, 0, -10 -10" transform="rotate(180,120,40)"/>
          <circle cx="120" cy="60" r="5" transform="rotate(0,120,60)"/>
          <path d="M 115 105v 10h 10a 10 10, 0, 0, 0, -10 -10" transform="rotate(0,120,110)"/>
          <path d="M 115 115v 10h 10a 10 10, 0, 0, 0, -10 -10" transform="rotate(180,120,120)"/>
          <rect x="115" y="145" width="10" height="10" transform="rotate(0,120,150)"/>
          <circle cx="120" cy="190" r="5" transform="rotate(0,120,190)"/>
          <path d="M 115 225v 10h 10a 10 10, 0, 0, 0, -10 -10" transform="rotate(-90,120,230)"/>
          <rect x="115" y="235" width="10" height="10" transform="rotate(0,120,240)"/>
          <rect x="115" y="245" width="10" height="10" transform="rotate(0,120,250)"/>
          <path d="M 115 255v 10h 10a 10 10, 0, 0, 0, -10 -10" transform="rotate(180,120,260)"/>
          <rect x="125" y="5" width="10" height="10" transform="rotate(0,130,10)"/>
          <path d="M 125 35v 10h 10a 10 10, 0, 0, 0, -10 -10" transform="rotate(0,130,40)"/>
          <path d="M 125 45v 10h 5a 5 5, 0, 0, 0, 0 -10" transform="rotate(90,130,50)"/>
          <path d="M 125 65v 10h 5a 5 5, 0, 0, 0, 0 -10" transform="rotate(-90,130,70)"/>
          <path d="M 125 75v 10h 10a 10 10, 0, 0, 0, -10 -10" transform="rotate(180,130,80)"/>
          <circle cx="130" cy="100" r="5" transform="rotate(0,130,100)"/>
          <rect x="125" y="115" width="10" height="10" transform="rotate(0,130,120)"/>
          <rect x="125" y="145" width="10" height="10" transform="rotate(0,130,150)"/>
          <rect x="125" y="155" width="10" height="10" transform="rotate(0,130,160)"/>
          <path d="M 125 165v 10h 10a 10 10, 0, 0, 0, -10 -10" transform="rotate(180,130,170)"/>
          <path d="M 125 195v 10h 5a 5 5, 0, 0, 0, 0 -10" transform="rotate(180,130,200)"/>
          <path d="M 125 215v 10h 5a 5 5, 0, 0, 0, 0 -10" transform="rotate(-90,130,220)"/>
          <rect x="125" y="225" width="10" height="10" transform="rotate(0,130,230)"/>
          <rect x="125" y="255" width="10" height="10" transform="rotate(0,130,260)"/>
          <circle cx="130" cy="280" r="5" transform="rotate(0,130,280)"/>
          <rect x="135" y="5" width="10" height="10" transform="rotate(0,140,10)"/>
          <circle cx="140" cy="30" r="5" transform="rotate(0,140,30)"/>
          <path d="M 135 75v 10h 5a 5 5, 0, 0, 0, 0 -10" transform="rotate(0,140,80)"/>
          <rect x="135" y="115" width="10" height="10" transform="rotate(0,140,120)"/>
          <rect x="135" y="145" width="10" height="10" transform="rotate(0,140,150)"/>
          <rect x="135" y="165" width="10" height="10" transform="rotate(0,140,170)"/>
          <rect x="135" y="195" width="10" height="10" transform="rotate(0,140,200)"/>
          <path d="M 135 205v 10h 5a 5 5, 0, 0, 0, 0 -10" transform="rotate(90,140,210)"/>
          <rect x="135" y="225" width="10" height="10" transform="rotate(0,140,230)"/>
          <rect x="135" y="255" width="10" height="10" transform="rotate(0,140,260)"/>
          <path d="M 135 285v 10h 5a 5 5, 0, 0, 0, 0 -10" transform="rotate(180,140,290)"/>
          <rect x="145" y="5" width="10" height="10" transform="rotate(0,150,10)"/>
          <circle cx="150" cy="70" r="5" transform="rotate(0,150,70)"/>
          <rect x="145" y="115" width="10" height="10" transform="rotate(0,150,120)"/>
          <rect x="145" y="125" width="10" height="10" transform="rotate(0,150,130)"/>
          <rect x="145" y="135" width="10" height="10" transform="rotate(0,150,140)"/>
          <rect x="145" y="145" width="10" height="10" transform="rotate(0,150,150)"/>
          <rect x="145" y="155" width="10" height="10" transform="rotate(0,150,160)"/>
          <path d="M 145 165v 10h 10a 10 10, 0, 0, 0, -10 -10" transform="rotate(90,150,170)"/>
          <path d="M 145 195v 10h 5a 5 5, 0, 0, 0, 0 -10" transform="rotate(0,150,200)"/>
          <rect x="145" y="225" width="10" height="10" transform="rotate(0,150,230)"/>
          <rect x="145" y="255" width="10" height="10" transform="rotate(0,150,260)"/>
          <path d="M 145 265v 10h 5a 5 5, 0, 0, 0, 0 -10" transform="rotate(90,150,270)"/>
          <rect x="145" y="285" width="10" height="10" transform="rotate(0,150,290)"/>
          <rect x="155" y="5" width="10" height="10" transform="rotate(0,160,10)"/>
          <circle cx="160" cy="40" r="5" transform="rotate(0,160,40)"/>
          <path d="M 155 75v 10h 5a 5 5, 0, 0, 0, 0 -10" transform="rotate(-90,160,80)"/>
          <rect x="155" y="85" width="10" height="10" transform="rotate(0,160,90)"/>
          <path d="M 155 95v 10h 10a 10 10, 0, 0, 0, -10 -10" transform="rotate(180,160,100)"/>
          <rect x="155" y="115" width="10" height="10" transform="rotate(0,160,120)"/>
          <rect x="155" y="135" width="10" height="10" transform="rotate(0,160,140)"/>
          <rect x="155" y="145" width="10" height="10" transform="rotate(0,160,150)"/>
          <path d="M 155 155v 10h 10a 10 10, 0, 0, 0, -10 -10" transform="rotate(90,160,160)"/>
          <path d="M 155 215v 10h 5a 5 5, 0, 0, 0, 0 -10" transform="rotate(-90,160,220)"/>
          <rect x="155" y="225" width="10" height="10" transform="rotate(0,160,230)"/>
          <path d="M 155 255v 10h 5a 5 5, 0, 0, 0, 0 -10" transform="rotate(0,160,260)"/>
          <path d="M 155 285v 10h 5a 5 5, 0, 0, 0, 0 -10" transform="rotate(0,160,290)"/>
          <path d="M 165 5v 10h 10a 10 10, 0, 0, 0, -10 -10" transform="rotate(0,170,10)"/>
          <path d="M 165 15v 10h 10a 10 10, 0, 0, 0, -10 -10" transform="rotate(180,170,20)"/>
          <circle cx="170" cy="70" r="5" transform="rotate(0,170,70)"/>
          <path d="M 165 85v 10h 10a 10 10, 0, 0, 0, -10 -10" transform="rotate(0,170,90)"/>
          <rect x="165" y="95" width="10" height="10" transform="rotate(0,170,100)"/>
          <rect x="165" y="115" width="10" height="10" transform="rotate(0,170,120)"/>
          <rect x="165" y="125" width="10" height="10" transform="rotate(0,170,130)"/>
          <path d="M 165 135v 10h 10a 10 10, 0, 0, 0, -10 -10" transform="rotate(90,170,140)"/>
          <path d="M 165 165v 10h 10a 10 10, 0, 0, 0, -10 -10" transform="rotate(-90,170,170)"/>
          <rect x="165" y="175" width="10" height="10" transform="rotate(0,170,180)"/>
          <rect x="165" y="185" width="10" height="10" transform="rotate(0,170,190)"/>
          <rect x="165" y="195" width="10" height="10" transform="rotate(0,170,200)"/>
          <path d="M 165 205v 10h 10a 10 10, 0, 0, 0, -10 -10" transform="rotate(180,170,210)"/>
          <path d="M 165 225v 10h 10a 10 10, 0, 0, 0, -10 -10" transform="rotate(0,170,230)"/>
          <rect x="165" y="235" width="10" height="10" transform="rotate(0,170,240)"/>
          <path d="M 165 245v 10h 5a 5 5, 0, 0, 0, 0 -10" transform="rotate(90,170,250)"/>
          <rect x="175" y="15" width="10" height="10" transform="rotate(0,180,20)"/>
          <path d="M 175 35v 10h 5a 5 5, 0, 0, 0, 0 -10" transform="rotate(180,180,40)"/>
          <circle cx="180" cy="80" r="5" transform="rotate(0,180,80)"/>
          <path d="M 175 95v 10h 5a 5 5, 0, 0, 0, 0 -10" transform="rotate(0,180,100)"/>
          <rect x="175" y="115" width="10" height="10" transform="rotate(0,180,120)"/>
          <rect x="175" y="125" width="10" height="10" transform="rotate(0,180,130)"/>
          <rect x="175" y="165" width="10" height="10" transform="rotate(0,180,170)"/>
          <rect x="175" y="195" width="10" height="10" transform="rotate(0,180,200)"/>
          <rect x="175" y="205" width="10" height="10" transform="rotate(0,180,210)"/>
          <path d="M 175 235v 10h 5a 5 5, 0, 0, 0, 0 -10" transform="rotate(0,180,240)"/>
          <path d="M 175 255v 10h 5a 5 5, 0, 0, 0, 0 -10" transform="rotate(-90,180,260)"/>
          <path d="M 175 265v 10h 5a 5 5, 0, 0, 0, 0 -10" transform="rotate(90,180,270)"/>
          <path d="M 175 285v 10h 5a 5 5, 0, 0, 0, 0 -10" transform="rotate(180,180,290)"/>
          <path d="M 185 5v 10h 5a 5 5, 0, 0, 0, 0 -10" transform="rotate(-90,190,10)"/>
          <path d="M 185 15v 10h 10a 10 10, 0, 0, 0, -10 -10" transform="rotate(90,190,20)"/>
          <path d="M 185 35v 10h 5a 5 5, 0, 0, 0, 0 -10" transform="rotate(0,190,40)"/>
          <path d="M 185 55v 10h 10a 10 10, 0, 0, 0, -10 -10" transform="rotate(-90,190,60)"/>
          <path d="M 185 65v 10h 5a 5 5, 0, 0, 0, 0 -10" transform="rotate(90,190,70)"/>
          <path d="M 185 115v 10h 10a 10 10, 0, 0, 0, -10 -10" transform="rotate(0,190,120)"/>
          <path d="M 185 125v 10h 10a 10 10, 0, 0, 0, -10 -10" transform="rotate(90,190,130)"/>
          <path d="M 185 145v 10h 5a 5 5, 0, 0, 0, 0 -10" transform="rotate(180,190,150)"/>
          <rect x="185" y="165" width="10" height="10" transform="rotate(0,190,170)"/>
          <path d="M 185 175v 10h 5a 5 5, 0, 0, 0, 0 -10" transform="rotate(90,190,180)"/>
          <rect x="185" y="195" width="10" height="10" transform="rotate(0,190,200)"/>
          <rect x="185" y="205" width="10" height="10" transform="rotate(0,190,210)"/>
          <path d="M 185 285v 10h 5a 5 5, 0, 0, 0, 0 -10" transform="rotate(0,190,290)"/>
          <circle cx="200" cy="30" r="5" transform="rotate(0,200,30)"/>
          <path d="M 195 45v 10h 10a 10 10, 0, 0, 0, -10 -10" transform="rotate(-90,200,50)"/>
          <path d="M 195 55v 10h 10a 10 10, 0, 0, 0, -10 -10" transform="rotate(90,200,60)"/>
          <path d="M 195 85v 10h 5a 5 5, 0, 0, 0, 0 -10" transform="rotate(180,200,90)"/>
          <circle cx="200" cy="110" r="5" transform="rotate(0,200,110)"/>
          <path d="M 195 135v 10h 10a 10 10, 0, 0, 0, -10 -10" transform="rotate(-90,200,140)"/>
          <rect x="195" y="145" width="10" height="10" transform="rotate(0,200,150)"/>
          <rect x="195" y="155" width="10" height="10" transform="rotate(0,200,160)"/>
          <path d="M 195 165v 10h 10a 10 10, 0, 0, 0, -10 -10" transform="rotate(90,200,170)"/>
          <path d="M 195 185v 10h 10a 10 10, 0, 0, 0, -10 -10" transform="rotate(-90,200,190)"/>
          <rect x="195" y="195" width="10" height="10" transform="rotate(0,200,200)"/>
          <rect x="195" y="205" width="10" height="10" transform="rotate(0,200,210)"/>
          <rect x="195" y="215" width="10" height="10" transform="rotate(0,200,220)"/>
          <rect x="195" y="225" width="10" height="10" transform="rotate(0,200,230)"/>
          <rect x="195" y="235" width="10" height="10" transform="rotate(0,200,240)"/>
          <rect x="195" y="245" width="10" height="10" transform="rotate(0,200,250)"/>
          <path d="M 195 255v 10h 10a 10 10, 0, 0, 0, -10 -10" transform="rotate(180,200,260)"/>
          <circle cx="200" cy="280" r="5" transform="rotate(0,200,280)"/>
          <path d="M 205 5v 10h 5a 5 5, 0, 0, 0, 0 -10" transform="rotate(-90,210,10)"/>
          <path d="M 205 15v 10h 5a 5 5, 0, 0, 0, 0 -10" transform="rotate(90,210,20)"/>
          <path d="M 205 45v 10h 5a 5 5, 0, 0, 0, 0 -10" transform="rotate(0,210,50)"/>
          <circle cx="210" cy="70" r="5" transform="rotate(0,210,70)"/>
          <rect x="205" y="85" width="10" height="10" transform="rotate(0,210,90)"/>
          <path d="M 205 125v 10h 10a 10 10, 0, 0, 0, -10 -10" transform="rotate(-90,210,130)"/>
          <rect x="205" y="135" width="10" height="10" transform="rotate(0,210,140)"/>
          <rect x="205" y="145" width="10" height="10" transform="rotate(0,210,150)"/>
          <path d="M 205 185v 10h 10a 10 10, 0, 0, 0, -10 -10" transform="rotate(0,210,190)"/>
          <rect x="205" y="195" width="10" height="10" transform="rotate(0,210,200)"/>
          <rect x="205" y="205" width="10" height="10" transform="rotate(0,210,210)"/>
          <rect x="205" y="215" width="10" height="10" transform="rotate(0,210,220)"/>
          <rect x="205" y="225" width="10" height="10" transform="rotate(0,210,230)"/>
          <rect x="205" y="235" width="10" height="10" transform="rotate(0,210,240)"/>
          <rect x="205" y="245" width="10" height="10" transform="rotate(0,210,250)"/>
          <rect x="205" y="255" width="10" height="10" transform="rotate(0,210,260)"/>
          <path d="M 215 85v 10h 5a 5 5, 0, 0, 0, 0 -10" transform="rotate(0,220,90)"/>
          <circle cx="220" cy="110" r="5" transform="rotate(0,220,110)"/>
          <rect x="215" y="125" width="10" height="10" transform="rotate(0,220,130)"/>
          <rect x="215" y="135" width="10" height="10" transform="rotate(0,220,140)"/>
          <rect x="215" y="145" width="10" height="10" transform="rotate(0,220,150)"/>
          <rect x="215" y="155" width="10" height="10" transform="rotate(0,220,160)"/>
          <rect x="215" y="165" width="10" height="10" transform="rotate(0,220,170)"/>
          <path d="M 215 175v 10h 5a 5 5, 0, 0, 0, 0 -10" transform="rotate(90,220,180)"/>
          <path d="M 215 195v 10h 10a 10 10, 0, 0, 0, -10 -10" transform="rotate(0,220,200)"/>
          <rect x="215" y="205" width="10" height="10" transform="rotate(0,220,210)"/>
          <rect x="215" y="245" width="10" height="10" transform="rotate(0,220,250)"/>
          <rect x="215" y="255" width="10" height="10" transform="rotate(0,220,260)"/>
          <path d="M 215 285v 10h 5a 5 5, 0, 0, 0, 0 -10" transform="rotate(180,220,290)"/>
          <path d="M 225 95v 10h 5a 5 5, 0, 0, 0, 0 -10" transform="rotate(180,230,100)"/>
          <rect x="225" y="125" width="10" height="10" transform="rotate(0,230,130)"/>
          <rect x="225" y="135" width="10" height="10" transform="rotate(0,230,140)"/>
          <rect x="225" y="145" width="10" height="10" transform="rotate(0,230,150)"/>
          <path d="M 225 155v 10h 10a 10 10, 0, 0, 0, -10 -10" transform="rotate(90,230,160)"/>
          <rect x="225" y="205" width="10" height="10" transform="rotate(0,230,210)"/>
          <circle cx="230" cy="230" r="5" transform="rotate(0,230,230)"/>
          <rect x="225" y="245" width="10" height="10" transform="rotate(0,230,250)"/>
          <rect x="225" y="255" width="10" height="10" transform="rotate(0,230,260)"/>
          <rect x="225" y="265" width="10" height="10" transform="rotate(0,230,270)"/>
          <rect x="225" y="275" width="10" height="10" transform="rotate(0,230,280)"/>
          <rect x="225" y="285" width="10" height="10" transform="rotate(0,230,290)"/>
          <rect x="235" y="95" width="10" height="10" transform="rotate(0,240,100)"/>
          <rect x="235" y="105" width="10" height="10" transform="rotate(0,240,110)"/>
          <rect x="235" y="115" width="10" height="10" transform="rotate(0,240,120)"/>
          <path d="M 235 125v 10h 10a 10 10, 0, 0, 0, -10 -10" transform="rotate(90,240,130)"/>
          <path d="M 235 175v 10h 5a 5 5, 0, 0, 0, 0 -10" transform="rotate(180,240,180)"/>
          <path d="M 235 195v 10h 10a 10 10, 0, 0, 0, -10 -10" transform="rotate(-90,240,200)"/>
          <rect x="235" y="205" width="10" height="10" transform="rotate(0,240,210)"/>
          <rect x="235" y="245" width="10" height="10" transform="rotate(0,240,250)"/>
          <path d="M 235 255v 10h 10a 10 10, 0, 0, 0, -10 -10" transform="rotate(90,240,260)"/>
          <rect x="235" y="285" width="10" height="10" transform="rotate(0,240,290)"/>
          <rect x="245" y="95" width="10" height="10" transform="rotate(0,250,100)"/>
          <path d="M 245 135v 10h 5a 5 5, 0, 0, 0, 0 -10" transform="rotate(180,250,140)"/>
          <circle cx="250" cy="160" r="5" transform="rotate(0,250,160)"/>
          <rect x="245" y="175" width="10" height="10" transform="rotate(0,250,180)"/>
          <rect x="245" y="195" width="10" height="10" transform="rotate(0,250,200)"/>
          <rect x="245" y="205" width="10" height="10" transform="rotate(0,250,210)"/>
          <rect x="245" y="215" width="10" height="10" transform="rotate(0,250,220)"/>
          <rect x="245" y="225" width="10" height="10" transform="rotate(0,250,230)"/>
          <rect x="245" y="235" width="10" height="10" transform="rotate(0,250,240)"/>
          <rect x="245" y="245" width="10" height="10" transform="rotate(0,250,250)"/>
          <path d="M 245 275v 10h 10a 10 10, 0, 0, 0, -10 -10" transform="rotate(-90,250,280)"/>
          <path d="M 245 285v 10h 10a 10 10, 0, 0, 0, -10 -10" transform="rotate(90,250,290)"/>
          <rect x="255" y="95" width="10" height="10" transform="rotate(0,260,100)"/>
          <path d="M 255 135v 10h 5a 5 5, 0, 0, 0, 0 -10" transform="rotate(0,260,140)"/>
          <rect x="255" y="175" width="10" height="10" transform="rotate(0,260,180)"/>
          <path d="M 255 195v 10h 10a 10 10, 0, 0, 0, -10 -10" transform="rotate(0,260,200)"/>
          <path d="M 255 205v 10h 10a 10 10, 0, 0, 0, -10 -10" transform="rotate(90,260,210)"/>
          <path d="M 255 235v 10h 10a 10 10, 0, 0, 0, -10 -10" transform="rotate(0,260,240)"/>
          <rect x="255" y="245" width="10" height="10" transform="rotate(0,260,250)"/>
          <rect x="255" y="255" width="10" height="10" transform="rotate(0,260,260)"/>
          <rect x="255" y="265" width="10" height="10" transform="rotate(0,260,270)"/>
          <rect x="255" y="275" width="10" height="10" transform="rotate(0,260,280)"/>
          <path d="M 265 85v 10h 10a 10 10, 0, 0, 0, -10 -10" transform="rotate(-90,270,90)"/>
          <rect x="265" y="95" width="10" height="10" transform="rotate(0,270,100)"/>
          <path d="M 265 145v 10h 10a 10 10, 0, 0, 0, -10 -10" transform="rotate(-90,270,150)"/>
          <path d="M 265 155v 10h 5a 5 5, 0, 0, 0, 0 -10" transform="rotate(90,270,160)"/>
          <path d="M 265 175v 10h 5a 5 5, 0, 0, 0, 0 -10" transform="rotate(0,270,180)"/>
          <path d="M 265 215v 10h 5a 5 5, 0, 0, 0, 0 -10" transform="rotate(180,270,220)"/>
          <path d="M 265 245v 10h 5a 5 5, 0, 0, 0, 0 -10" transform="rotate(0,270,250)"/>
          <path d="M 265 265v 10h 10a 10 10, 0, 0, 0, -10 -10" transform="rotate(0,270,270)"/>
          <rect x="265" y="275" width="10" height="10" transform="rotate(0,270,280)"/>
          <path d="M 265 285v 10h 5a 5 5, 0, 0, 0, 0 -10" transform="rotate(90,270,290)"/>
          <path d="M 275 85v 10h 10a 10 10, 0, 0, 0, -10 -10" transform="rotate(0,280,90)"/>
          <rect x="275" y="95" width="10" height="10" transform="rotate(0,280,100)"/>
          <rect x="275" y="105" width="10" height="10" transform="rotate(0,280,110)"/>
          <path d="M 275 115v 10h 5a 5 5, 0, 0, 0, 0 -10" transform="rotate(90,280,120)"/>
          <rect x="275" y="145" width="10" height="10" transform="rotate(0,280,150)"/>
          <path d="M 275 185v 10h 5a 5 5, 0, 0, 0, 0 -10" transform="rotate(-90,280,190)"/>
          <rect x="275" y="195" width="10" height="10" transform="rotate(0,280,200)"/>
          <rect x="275" y="205" width="10" height="10" transform="rotate(0,280,210)"/>
          <rect x="275" y="215" width="10" height="10" transform="rotate(0,280,220)"/>
          <path d="M 275 225v 10h 5a 5 5, 0, 0, 0, 0 -10" transform="rotate(90,280,230)"/>
          <path d="M 285 95v 10h 5a 5 5, 0, 0, 0, 0 -10" transform="rotate(0,290,100)"/>
          <path d="M 285 135v 10h 5a 5 5, 0, 0, 0, 0 -10" transform="rotate(-90,290,140)"/>
          <rect x="285" y="145" width="10" height="10" transform="rotate(0,290,150)"/>
          <path d="M 285 155v 10h 5a 5 5, 0, 0, 0, 0 -10" transform="rotate(90,290,160)"/>
          <path d="M 285 205v 10h 5a 5 5, 0, 0, 0, 0 -10" transform="rotate(0,290,210)"/>
          <path d="M 285 235v 10h 5a 5 5, 0, 0, 0, 0 -10" transform="rotate(-90,290,240)"/>
          <rect x="285" y="245" width="10" height="10" transform="rotate(0,290,250)"/>
          <path d="M 285 255v 10h 5a 5 5, 0, 0, 0, 0 -10" transform="rotate(90,290,260)"/>
          <circle cx="290" cy="290" r="5" transform="rotate(0,290,290)"/>
        </g>
        <g class="corners-square-color-0-0">
          <path clip-rule="evenodd" d="M 5 30v 20a 25 25, 0, 0, 0, 25 25h 20a 25 25, 0, 0, 0, 25 -25v -20a 25 25, 0, 0, 0, -25 -25h -20a 25 25, 0, 0, 0, -25 25M 30 15h 20a 15 15, 0, 0, 1, 15 15v 20a 15 15, 0, 0, 1, -15 15h -20a 15 15, 0, 0, 1, -15 -15v -20a 15 15, 0, 0, 1, 15 -15" transform="rotate(0,40,40)"/>
        </g>
        <g class="corners-dot-color-0-0">
          <circle cx="40" cy="40" r="15" transform="rotate(0,40,40)"/>
        </g>
        <g class="corners-square-color-1-0">
          <path clip-rule="evenodd" d="M 225 30v 20a 25 25, 0, 0, 0, 25 25h 20a 25 25, 0, 0, 0, 25 -25v -20a 25 25, 0, 0, 0, -25 -25h -20a 25 25, 0, 0, 0, -25 25M 250 15h 20a 15 15, 0, 0, 1, 15 15v 20a 15 15, 0, 0, 1, -15 15h -20a 15 15, 0, 0, 1, -15 -15v -20a 15 15, 0, 0, 1, 15 -15" transform="rotate(90,260,40)"/>
        </g>
        <g class="corners-dot-color-1-0">
          <circle cx="260" cy="40" r="15" transform="rotate(90,260,40)"/>
        </g>
        <g class="corners-square-color-0-1">
          <path clip-rule="evenodd" d="M 5 250v 20a 25 25, 0, 0, 0, 25 25h 20a 25 25, 0, 0, 0, 25 -25v -20a 25 25, 0, 0, 0, -25 -25h -20a 25 25, 0, 0, 0, -25 25M 30 235h 20a 15 15, 0, 0, 1, 15 15v 20a 15 15, 0, 0, 1, -15 15h -20a 15 15, 0, 0, 1, -15 -15v -20a 15 15, 0, 0, 1, 15 -15" transform="rotate(-90,40,260)"/>
        </g>
        <g class="corners-dot-color-0-1">
          <circle cx="40" cy="260" r="15" transform="rotate(-90,40,260)"/>
        </g>
      </svg>
    </g>
    <path d="M1571.32 1892.02H555.98c-83.85 0-152.07-68.22-152.07-152.07V724.61c0-83.85 68.22-152.07 152.07-152.07h1015.34c83.85 0 152.07 68.22 152.07 152.07v1015.34c0 83.85-68.22 152.07-152.07 152.07ZM555.97 612.54c-61.79 0-112.07 50.27-112.07 112.07v1015.34c0 61.79 50.27 112.07 112.07 112.07h1015.34c61.79 0 112.07-50.27 112.07-112.07V724.61c0-61.79-50.27-112.07-112.07-112.07H555.97Z" class="cls-teq37"/>
    <path d="M1463.98 578.77c-29.59 27.69-57.55 53.37-102.3 70.21-32.98 12.4-57.87 13.54-153.51 14.06-117.68.63-153.38-.03-153.38-.03-222.48-4.12-255.02-6.27-296.87-32.09-33.9-20.94-84.51-63.95-76.48-93.37.08-.3.17-.6.26-.9 1.11-3.5 3.01-6.6 5.64-9.32 26.08-27.06 124.02-18.44 235.5-18.42 11.76 0 23.66-.09 35.65-.34 259.09-5.24 444.37-77.17 541.91-100.99h.01l.05-.01c.01 0 .04-.01.07-.01 41.53-10.13 67.14-11.51 75.75 4.74 21.71 41.01-90.31 145.87-112.32 166.48Z" class="cls-teq32"/>
    <path d="M1280.1 600.16H894.46L940.25 449l7.24-23.92 2.93-9.68 5.91-19.47 11.64-38.44 12.22-40.33 7.31-24.12 12.27-40.51 1.89-6.19 5.76-19.04 1.86-6.14 5.96-19.68 1.89-6.19 23.42-77.33c14.01-46.25 79.49-46.25 93.5 0l22.31 73.64 2 6.64 6.53 21.58 2.12 6.99 6.52 21.51 2 6.65 14.63 48.26 9.17 30.23 1.95 6.44 15.59 51.47 12.03 39.73 9.85 32.54 41.36 136.53Z" class="cls-teq38"/>
    <path d="M1281.11 600.16h-73.55l-146.08-482.21c-2.19-7.24-5.64-13.34-9.98-18.32 23.28-26.79 71.7-20.69 83.52 18.32l146.08 482.21Z" class="cls-teq39"/>
    <path d="M1199.32 333.46c-17.44-1.44-20.49-18.4-41.62-18.4-23.48 0-23.48 18.33-46.94 18.33-23.46 0-23.46-18.33-46.93-18.33-23.48 0-23.48 18.33-46.94 18.33-19.86 0-22.3-11.21-36.7-16.24l7.31-24.12c8.45 5.47 14.32 14.08 29.38 14.08 23.46 0 23.46-18.33 46.94-18.33 23.46 0 23.46 18.33 46.93 18.33 23.48 0 23.48-18.33 46.94-18.33 17.75 0 21.58 8.96 32.47 14.44l9.17 30.23Z" class="cls-teq313"/>
    <path d="M1167 226.8c-5.66-1.23-11-2.63-21.75-2.63-20.27 0-20.27 4.37-40.52 4.37-20.26 0-20.26-4.37-40.51-4.37-20.27 0-20.27 4.37-40.54 4.37-7.69 0-12.35-.54-16.28-1.24l1.86-6.14c3.72.64 8.14 1.11 14.42 1.11 20.26 0 20.26-4.36 40.52-4.36s20.26 4.36 40.51 4.36c20.27 0 20.27-4.36 40.52-4.36 9.98 0 14.85.9 19.64 1.9l2.12 6.99ZM1175.53 254.96c-10.44-1.06-14.59-4.05-30.27-4.05-20.27 0-20.27 4.37-40.52 4.37-20.26 0-20.26-4.37-40.51-4.37-20.27 0-20.27 4.37-40.54 4.37-12.87 0-17.27-1.51-23.92-2.76l1.89-6.19c5.76 1.23 11.09 2.68 22.04 2.68 20.26 0 20.26-4.37 40.52-4.37s20.26 4.37 40.51 4.37c20.27 0 20.27-4.37 40.52-4.37 15.33 0 18.63 2.13 28.03 3.44l.25.22 2 6.65ZM1158.35 198.23c-3.31-.47-7.23-.8-12.41-.8-20.27 0-20.27 4.37-40.52 4.37-20.26 0-20.26-4.37-40.51-4.37-20.27 0-20.27 4.37-40.52 4.37-3.65 0-6.63-.12-9.15-.33l1.89-6.19c2.13.16 4.52.25 7.25.25 20.26 0 20.26-4.37 40.52-4.37s20.26 4.37 40.51 4.37c20.27 0 20.27-4.37 40.54-4.37 4.27 0 7.61.17 10.41.43l2 6.64Z" class="cls-teq33"/>
    <path d="M1238.74 463.63c-16.92-5.58-23.56-20.05-49.58-20.05-33.95 0-33.95 22.05-67.92 22.05-33.95 0-33.95-22.05-67.9-22.05-33.96 0-33.96 22.05-67.93 22.05-24.41 0-30.89-10.02-45.16-16.64l7.24-23.92c10.03 6.38 18.67 14.28 37.91 14.28 33.96 0 33.96-22.06 67.92-22.06s33.96 22.06 67.92 22.06 33.96-22.06 67.93-22.06c21.11 0 28.81 7.49 39.74 13.8l9.85 32.54Z" class="cls-teq313"/>
    <path d="M1216.86 391.37c-5.59-3.29-12.22-5.56-21-5.56-33.3 0-33.3 28.33-66.59 28.33-33.3 0-33.3-28.33-66.59-28.33-33.3 0-33.3 28.33-66.59 28.33-21.63 0-28.53-9.98-39.75-18.21l11.64-38.44c7.12 5.7 15.33 10.51 28.1 10.51 33.3 0 33.3-28.33 66.59-28.33 33.3 0 33.3 28.33 66.58 28.33 33.31 0 33.31-28.33 66.61-28.33 1.92 0 3.72.08 5.42.24l15.59 51.47Z" class="cls-teq37"/>
    <path d="M1463.98 578.77c-29.59 27.69-57.55 53.37-102.3 70.21-32.98 12.4-57.87 13.54-153.51 14.06-117.68.63-153.38-.03-153.38-.03-222.48-4.12-255.02-6.27-296.87-32.09-33.9-20.94-84.51-63.95-76.48-93.37 1.74-3.57 3.72-6.98 5.91-10.23 26.08-27.06 124.02-18.44 235.5-18.42l-21.51 72.87c195.5 4.93 339.31-32.05 433.26-66.19 69.89-25.4 204.36-82.72 198.76-101.62-1.84-6.21-18.36-6.9-32.81-6.41 41.53-10.13 67.14-11.51 75.75 4.74 21.71 41.01-90.31 145.87-112.32 166.48Z" class="cls-teq39"/>
    <path d="M901.34 581.77c-56.14-5.08-99.78-16.72-130.38-27.08-18.04-6.11-49.42-16.9-48.25-24.86 1.05-7.09 27.38-8.37 58.28-10.24 33.68-2.04 81.68-5.33 141.11-10.7-6.92 24.29-13.84 48.59-20.77 72.88Z" class="cls-teq32"/>
    <path d="M1500.43 407.56h.05l-.07.01h.01Z" style="fill: rgb(237, 171, 53);"/>
    <circle cx="680.59" cy="569.82" r="30.34" class="cls-teq313"/>
    <path d="M710.93 569.82c0 16.76-13.58 30.34-30.34 30.34-2.62 0-5.15-.33-7.57-.96 13.08-3.37 22.76-15.24 22.76-29.38 0-14.14-9.68-26.02-22.76-29.38 2.42-.63 4.95-.96 7.57-.96 16.76 0 30.34 13.58 30.34 30.34Z" class="cls-teq36"/>
    <circle cx="822.39" cy="655.32" r="30.34" class="cls-teq313"/>
    <path d="M852.73 655.32c0 16.76-13.58 30.34-30.34 30.34-2.62 0-5.15-.33-7.57-.96 13.08-3.37 22.76-15.24 22.76-29.38 0-14.14-9.68-26.02-22.76-29.38 2.42-.63 4.95-.96 7.57-.96 16.76 0 30.34 13.58 30.34 30.34Z" class="cls-teq36"/>
    <circle cx="1047.12" cy="674.54" r="30.34" class="cls-teq313"/>
    <path d="M1077.46 674.54c0 16.76-13.58 30.34-30.34 30.34-2.62 0-5.15-.33-7.57-.96 13.08-3.37 22.76-15.24 22.76-29.38 0-14.14-9.68-26.02-22.76-29.38 2.42-.63 4.95-.96 7.57-.96 16.76 0 30.34 13.58 30.34 30.34Z" class="cls-teq36"/>
    <circle cx="1255.64" cy="668.61" r="30.34" class="cls-teq313"/>
    <path d="M1285.98 668.61c0 16.76-13.58 30.34-30.34 30.34-2.62 0-5.15-.33-7.57-.96 13.08-3.37 22.76-15.24 22.76-29.38 0-14.14-9.68-26.02-22.76-29.38 2.42-.63 4.95-.96 7.57-.96 16.76 0 30.34 13.58 30.34 30.34Z" class="cls-teq36"/>
    <circle cx="1447.41" cy="600.16" r="30.34" class="cls-teq313"/>
    <path d="M1477.75 600.16c0 16.76-13.58 30.34-30.34 30.34-2.62 0-5.15-.33-7.57-.96 13.08-3.37 22.76-15.24 22.76-29.38 0-14.14-9.68-26.02-22.76-29.38 2.42-.63 4.95-.96 7.57-.96 16.76 0 30.34 13.58 30.34 30.34Z" class="cls-teq36"/>
    <circle cx="1566.62" cy="458.41" r="30.34" class="cls-teq313"/>
    <path d="M1596.96 458.42c0 16.76-13.58 30.34-30.34 30.34-2.62 0-5.15-.33-7.57-.96 13.08-3.37 22.76-15.24 22.76-29.38 0-14.14-9.68-26.02-22.76-29.38 2.42-.63 4.95-.96 7.57-.96 16.76 0 30.34 13.58 30.34 30.34Z" class="cls-teq36"/>
    <path d="m448.08 1773.43 128.68 40.18c10.2 3.18 21.06-2.35 24.5-12.46a2105.3 2105.3 0 0 1 27.19-75.26c22.05-57.6 45.42-111.05 69.13-160.31l-211.84-66.15c-7.35 54.6-17.59 112.91-31.7 174.21-6.01 26.12-12.4 51.39-19.07 75.8-2.8 10.23 3 20.83 13.11 23.99Z" class="cls-teq311"/>
    <path d="M591.87 1795.44c7.51-3.64 12.59-8.75 15.61-12.33-2.1 6.01-4.17 11.99-6.19 17.93-3.44 10.11-14.31 15.65-24.5 12.46l-128.68-40.18c-10.12-3.16-15.91-13.76-13.11-23.99 2.08-7.61 4.13-15.31 6.16-23.09-1.11 5.78-1.8 14.32 1.92 22.77 6.79 15.44 22.63 17.65 67.29 31.73 48.89 15.42 63.58 23.39 81.51 14.69Z" class="cls-teq31"/>
    <path d="m460.25 1750.16 119.44 37.3c9.46 2.96 19.49-1.99 22.61-11.15 7.57-22.23 15.78-44.96 24.69-68.11a1857.763 1857.763 0 0 1 62.98-145l-196.63-61.4a1696.48 1696.48 0 0 1-28.22 157.86c-5.4 23.66-11.15 46.55-17.17 68.65-2.52 9.26 2.91 18.92 12.3 21.85Z" class="cls-teq35"/>
    <path d="M470.74 1634.11c-.52 2.46-1.05 4.92-1.58 7.39a1703.132 1703.132 0 0 1-21.21 86.81c-2.52 9.26 2.91 18.92 12.3 21.85l119.44 37.3c9.46 2.96 19.49-1.99 22.61-11.14a1848.743 1848.743 0 0 1 30.19-82.23c1.32-3.35 2.64-6.68 3.98-10-11.62-10.46-29.88-23.68-54.66-28.86-15.97-3.34-24.77-1.26-43.04-2.72-16.41-1.31-39.86-5.41-68.04-18.39Z" class="cls-teq39"/>
    <ellipse cx="592.03" cy="1532.62" class="cls-teq311" rx="18.95" ry="110.74" transform="rotate(-72.66 592.001 1532.603)"/>
    <ellipse cx="592.25" cy="1530.6" class="cls-teq35" rx="14.51" ry="105.3" transform="rotate(-72.66 592.225 1530.588)"/>
    <path d="M471.19 1633.03c-.81 1.48-.28 3.3.21 4.56 5.2 13.43 31.69 32.53 75.57 42.74 19.81 4.61 50.51 9.11 89.24 4.23l9.27-22.47c-1.92-1.3-5.09-3.37-9.19-5.57-34.4-18.51-55.87-5.03-101.91-12.26-33.32-5.23-59.41-18.16-63.19-11.23Z" class="cls-teq38"/>
    <ellipse cx="662.65" cy="1599.88" class="cls-teq310" rx="21.16" ry="3.79" transform="rotate(-65.73 662.618 1599.855)"/>
    <path d="M585.17 1555.05c37.64 11.79 51.7 14.4 51.36 16.11-.45 2.27-26.11 2.08-52.94-6.3-26.83-8.39-48.03-22.84-47.12-24.94.67-1.54 12.93 3.93 48.7 15.14Z" class="cls-teq310"/>
    <ellipse cx="535.13" cy="1761.82" class="cls-teq32" rx="7.62" ry="44.29" transform="rotate(-72.66 535.107 1761.802)"/>
    <ellipse cx="616.02" cy="1660.35" class="cls-teq34" rx="6.46" ry="17.34" transform="rotate(-72.66 615.993 1660.329)"/>
    <ellipse cx="510.28" cy="1655.98" class="cls-teq34" rx="5.95" ry="25.05" transform="rotate(-65.73 510.251 1655.954)"/>
    <path d="m536.38 1878.44-140.37 37.57c-11.12 2.98-22.58-3.46-25.84-14.51-7.9-26.82-16.53-54.27-25.94-82.26a2274.533 2274.533 0 0 0-67.33-175.71l231.08-61.84c5.5 59.12 13.94 122.38 26.41 189.02 5.31 28.4 11.08 55.9 17.18 82.48 2.56 11.14-4.15 22.3-15.19 25.25Z" class="cls-teq311"/>
    <path d="M380.55 1895.77c-7.93-4.26-13.17-9.99-16.27-13.98 2 6.56 3.95 13.09 5.87 19.59 3.25 11.04 14.71 17.48 25.84 14.51l140.37-37.57c11.04-2.95 17.74-14.12 15.19-25.25-1.9-8.29-3.77-16.67-5.61-25.14.94 6.27 1.31 15.51-3.07 24.44-8 16.33-25.15 18-73.87 31.19-53.33 14.44-69.51 22.37-88.43 12.21Z" class="cls-teq31"/>
    <path d="m524.31 1852.84-130.29 34.87c-10.32 2.76-20.91-3.01-23.86-13.01a2006.426 2006.426 0 0 0-84.96-233.39l214.48-57.4c4.76 53.58 12.22 110.89 23.39 171.26 4.76 25.72 9.94 50.63 15.45 74.69 2.31 10.08-3.97 20.25-14.22 22.99Z" class="cls-teq35"/>
    <path d="M518.16 1727.4c.45 2.67.91 5.35 1.38 8.03a1814.295 1814.295 0 0 0 18.99 94.42c2.31 10.09-3.97 20.25-14.22 22.99l-130.29 34.87c-10.32 2.76-20.91-3.01-23.86-13-7.17-24.28-15-49.12-23.57-74.44-1.75-5.19-3.52-10.34-5.3-15.45-1.27-3.67-2.55-7.32-3.84-10.95 12.98-10.75 33.23-24.18 60.14-28.66 17.35-2.89 26.73-.26 46.47-1.02 17.73-.68 43.17-4.06 74.09-16.78Z" class="cls-teq39"/>
    <ellipse cx="392.04" cy="1612.72" class="cls-teq311" rx="119.36" ry="20.43" transform="rotate(-14.98 392.148 1613.021)"/>
    <ellipse cx="391.89" cy="1610.53" class="cls-teq35" rx="113.5" ry="15.64" transform="rotate(-14.98 392.01 1610.837)"/>
    <path d="M517.72 1726.21c.8 1.63.15 3.56-.43 4.9-6.19 14.23-35.57 33.63-83.28 42.68-21.54 4.08-54.8 7.57-96.29.59-2.99-8.2-5.99-16.41-8.98-24.61 2.12-1.32 5.63-3.4 10.14-5.59 37.86-18.41 60.39-2.93 110.3-8.68 36.11-4.16 64.79-16.93 68.55-9.29Z" class="cls-teq38"/>
    <ellipse cx="313" cy="1682.02" class="cls-teq310" rx="4.09" ry="22.8" transform="rotate(-21.91 313.098 1682.26)"/>
    <path d="M398.43 1637.17c-41.06 11.03-56.32 13.21-56.03 15.07.39 2.47 28.02 3.4 57.29-4.44s52.74-22.46 51.85-24.77c-.65-1.69-14.1 3.66-53.12 14.14Z" class="cls-teq310"/>
    <ellipse cx="443.15" cy="1862.08" class="cls-teq32" rx="47.74" ry="8.21" transform="rotate(-14.98 443.27 1862.429)"/>
    <ellipse cx="360.54" cy="1749.21" class="cls-teq34" rx="18.69" ry="6.96" transform="rotate(-14.98 360.658 1749.549)"/>
    <ellipse cx="474.6" cy="1749.2" class="cls-teq34" rx="27" ry="6.42" transform="rotate(-21.91 474.713 1749.453)"/>
  </g>
</svg>
