<svg xmlns="http://www.w3.org/2000/svg" viewBox="0 0 2000 2000" width="300" height="300" fill="none"><g><defs><style>.clse1-1{fill:#f7eed1}.clse1-2{fill:#f2b39f}.clse1-3{fill:#6d3f35}.clse1-5{fill:#eadcb7}</style></defs><path class="clse1-1" d="M869.46 194.15c64.53 18.32 159.63 421.5 92.87 437.57-66.42 16-219.93-368.86-176.47-415.51a87.72 87.72 0 0 1 39-23.92 96.19 96.19 0 0 1 44.6 1.86Z"></path><path class="clse1-2" d="M852.29 237c38.37 19 119.87 348.57 82.49 357-37.18 8.42-151.1-310.37-129.17-344.89 8.76-13.79 20.9-16.59 20.9-16.59s11.49-2.61 25.78 4.48Z"></path><path class="clse1-1" d="M1134.34 194.15c-64.52 18.32-159.63 421.5-92.87 437.57 66.42 16 219.93-368.86 176.47-415.51a87.67 87.67 0 0 0-39-23.92 96.18 96.18 0 0 0-44.6 1.86Z"></path><path class="clse1-2" d="M1149.93 237c-38.37 19-119.87 348.57-82.5 357 37.19 8.42 151.1-310.37 129.17-344.89-8.76-13.79-20.89-16.59-20.89-16.59s-11.46-2.61-25.78 4.48Z"></path><path class="clse1-1" d="M1232.66 822.67c5.8-10.26 26-46.07 24.33-89.85-2.72-71-55.42-116.54-70.92-129.93-71.22-61.55-161.06-59.4-195-58.58-36.18.87-102.38 2.45-162.28 48.22-14.74 11.25-77.49 59.19-81.83 140.29-.61 11.08-2.96 67.18 37.2 115.93a155.5 155.5 0 0 0 18.71 19l390.94 3.38a196.84 196.84 0 0 0 38.85-48.46Z"></path><ellipse class="clse1-3" cx="901.65" cy="723.05" rx="17.69" ry="23.38"></ellipse><ellipse class="clse1-3" cx="1102.15" cy="723.05" rx="17.69" ry="23.38"></ellipse><path class="clse1-2" d="M1034.18 766.58c0 9.68-14.45 24.41-32.28 24.41s-32.27-14.73-32.27-24.41 14.45-8.52 32.27-8.52 32.28-1.17 32.28 8.52Z"></path><g transform="translate(700, 900)scale(2)" fill="none"><svg width="300" height="300"><style>.background-color{ fill: #fff; }.dot-color{ fill: #0e372d; }.corners-square-color-0-0{ fill: #0e372d; }.corners-dot-color-0-0{ fill: #0e372d; }.corners-square-color-1-0{ fill: #0e372d; }.corners-dot-color-1-0{ fill: #0e372d; }.corners-square-color-0-1{ fill: #0e372d; }.corners-dot-color-0-1{ fill: #0e372d; }</style><defs></defs><g class="dot-color"><path d="M 5 105v 10h 5a 5 5, 0, 0, 0, 0 -10" transform="rotate(-90,10,110)"></path><rect x="5" y="115" width="10" height="10" transform="rotate(0,10,120)"></rect><rect x="5" y="125" width="10" height="10" transform="rotate(0,10,130)"></rect><rect x="5" y="135" width="10" height="10" transform="rotate(0,10,140)"></rect><rect x="5" y="145" width="10" height="10" transform="rotate(0,10,150)"></rect><path d="M 5 155v 10h 5a 5 5, 0, 0, 0, 0 -10" transform="rotate(90,10,160)"></path><path d="M 5 185v 10h 10a 10 10, 0, 0, 0, -10 -10" transform="rotate(-90,10,190)"></path><path d="M 5 195v 10h 5a 5 5, 0, 0, 0, 0 -10" transform="rotate(90,10,200)"></path><path d="M 15 95v 10h 5a 5 5, 0, 0, 0, 0 -10" transform="rotate(180,20,100)"></path><rect x="15" y="125" width="10" height="10" transform="rotate(0,20,130)"></rect><rect x="15" y="145" width="10" height="10" transform="rotate(0,20,150)"></rect><path d="M 15 175v 10h 10a 10 10, 0, 0, 0, -10 -10" transform="rotate(-90,20,180)"></path><rect x="15" y="185" width="10" height="10" transform="rotate(0,20,190)"></rect><circle cx="20" cy="210" r="5" transform="rotate(0,20,210)"></circle><rect x="25" y="95" width="10" height="10" transform="rotate(0,30,100)"></rect><path d="M 25 105v 10h 10a 10 10, 0, 0, 0, -10 -10" transform="rotate(180,30,110)"></path><path d="M 25 125v 10h 5a 5 5, 0, 0, 0, 0 -10" transform="rotate(0,30,130)"></path><rect x="25" y="145" width="10" height="10" transform="rotate(0,30,150)"></rect><rect x="25" y="155" width="10" height="10" transform="rotate(0,30,160)"></rect><rect x="25" y="165" width="10" height="10" transform="rotate(0,30,170)"></rect><rect x="25" y="175" width="10" height="10" transform="rotate(0,30,180)"></rect><rect x="25" y="185" width="10" height="10" transform="rotate(0,30,190)"></rect><path d="M 35 85v 10h 5a 5 5, 0, 0, 0, 0 -10" transform="rotate(-90,40,90)"></path><rect x="35" y="95" width="10" height="10" transform="rotate(0,40,100)"></rect><path d="M 35 105v 10h 10a 10 10, 0, 0, 0, -10 -10" transform="rotate(90,40,110)"></path><rect x="35" y="145" width="10" height="10" transform="rotate(0,40,150)"></rect><path d="M 35 175v 10h 10a 10 10, 0, 0, 0, -10 -10" transform="rotate(0,40,180)"></path><rect x="35" y="185" width="10" height="10" transform="rotate(0,40,190)"></rect><path d="M 45 95v 10h 5a 5 5, 0, 0, 0, 0 -10" transform="rotate(0,50,100)"></path><path d="M 45 125v 10h 10a 10 10, 0, 0, 0, -10 -10" transform="rotate(-90,50,130)"></path><rect x="45" y="135" width="10" height="10" transform="rotate(0,50,140)"></rect><path d="M 45 145v 10h 10a 10 10, 0, 0, 0, -10 -10" transform="rotate(90,50,150)"></path><path d="M 45 185v 10h 5a 5 5, 0, 0, 0, 0 -10" transform="rotate(0,50,190)"></path><circle cx="50" cy="210" r="5" transform="rotate(0,50,210)"></circle><path d="M 55 85v 10h 5a 5 5, 0, 0, 0, 0 -10" transform="rotate(180,60,90)"></path><rect x="55" y="125" width="10" height="10" transform="rotate(0,60,130)"></rect><path d="M 55 135v 10h 10a 10 10, 0, 0, 0, -10 -10" transform="rotate(90,60,140)"></path><circle cx="60" cy="180" r="5" transform="rotate(0,60,180)"></circle><rect x="65" y="85" width="10" height="10" transform="rotate(0,70,90)"></rect><circle cx="70" cy="110" r="5" transform="rotate(0,70,110)"></circle><path d="M 65 125v 10h 5a 5 5, 0, 0, 0, 0 -10" transform="rotate(0,70,130)"></path><path d="M 65 145v 10h 5a 5 5, 0, 0, 0, 0 -10" transform="rotate(180,70,150)"></path><path d="M 65 165v 10h 5a 5 5, 0, 0, 0, 0 -10" transform="rotate(180,70,170)"></path><circle cx="70" cy="190" r="5" transform="rotate(0,70,190)"></circle><circle cx="70" cy="210" r="5" transform="rotate(0,70,210)"></circle><path d="M 75 85v 10h 5a 5 5, 0, 0, 0, 0 -10" transform="rotate(0,80,90)"></path><circle cx="80" cy="120" r="5" transform="rotate(0,80,120)"></circle><path d="M 75 135v 10h 10a 10 10, 0, 0, 0, -10 -10" transform="rotate(-90,80,140)"></path><path d="M 75 145v 10h 10a 10 10, 0, 0, 0, -10 -10" transform="rotate(90,80,150)"></path><path d="M 75 165v 10h 5a 5 5, 0, 0, 0, 0 -10" transform="rotate(0,80,170)"></path><path d="M 75 195v 10h 5a 5 5, 0, 0, 0, 0 -10" transform="rotate(180,80,200)"></path><path d="M 85 15v 10h 10a 10 10, 0, 0, 0, -10 -10" transform="rotate(-90,90,20)"></path><path d="M 85 25v 10h 10a 10 10, 0, 0, 0, -10 -10" transform="rotate(180,90,30)"></path><circle cx="90" cy="70" r="5" transform="rotate(0,90,70)"></circle><path d="M 85 135v 10h 5a 5 5, 0, 0, 0, 0 -10" transform="rotate(0,90,140)"></path><rect x="85" y="195" width="10" height="10" transform="rotate(0,90,200)"></rect><path d="M 85 205v 10h 10a 10 10, 0, 0, 0, -10 -10" transform="rotate(180,90,210)"></path><path d="M 85 225v 10h 5a 5 5, 0, 0, 0, 0 -10" transform="rotate(-90,90,230)"></path><path d="M 85 235v 10h 10a 10 10, 0, 0, 0, -10 -10" transform="rotate(180,90,240)"></path><circle cx="90" cy="260" r="5" transform="rotate(0,90,260)"></circle><path d="M 95 5v 10h 5a 5 5, 0, 0, 0, 0 -10" transform="rotate(-90,100,10)"></path><rect x="95" y="15" width="10" height="10" transform="rotate(0,100,20)"></rect><path d="M 95 25v 10h 10a 10 10, 0, 0, 0, -10 -10" transform="rotate(90,100,30)"></path><circle cx="100" cy="50" r="5" transform="rotate(0,100,50)"></circle><path d="M 95 75v 10h 10a 10 10, 0, 0, 0, -10 -10" transform="rotate(-90,100,80)"></path><path d="M 95 85v 10h 5a 5 5, 0, 0, 0, 0 -10" transform="rotate(90,100,90)"></path><path d="M 95 105v 10h 5a 5 5, 0, 0, 0, 0 -10" transform="rotate(180,100,110)"></path><path d="M 95 125v 10h 5a 5 5, 0, 0, 0, 0 -10" transform="rotate(180,100,130)"></path><path d="M 95 145v 10h 10a 10 10, 0, 0, 0, -10 -10" transform="rotate(-90,100,150)"></path><rect x="95" y="155" width="10" height="10" transform="rotate(0,100,160)"></rect><rect x="95" y="165" width="10" height="10" transform="rotate(0,100,170)"></rect><rect x="95" y="175" width="10" height="10" transform="rotate(0,100,180)"></rect><rect x="95" y="185" width="10" height="10" transform="rotate(0,100,190)"></rect><rect x="95" y="195" width="10" height="10" transform="rotate(0,100,200)"></rect><rect x="95" y="205" width="10" height="10" transform="rotate(0,100,210)"></rect><path d="M 95 215v 10h 10a 10 10, 0, 0, 0, -10 -10" transform="rotate(180,100,220)"></path><rect x="95" y="235" width="10" height="10" transform="rotate(0,100,240)"></rect><path d="M 95 275v 10h 5a 5 5, 0, 0, 0, 0 -10" transform="rotate(-90,100,280)"></path><path d="M 95 285v 10h 10a 10 10, 0, 0, 0, -10 -10" transform="rotate(180,100,290)"></path><path d="M 105 15v 10h 5a 5 5, 0, 0, 0, 0 -10" transform="rotate(0,110,20)"></path><path d="M 105 65v 10h 5a 5 5, 0, 0, 0, 0 -10" transform="rotate(-90,110,70)"></path><path d="M 105 75v 10h 10a 10 10, 0, 0, 0, -10 -10" transform="rotate(90,110,80)"></path><rect x="105" y="105" width="10" height="10" transform="rotate(0,110,110)"></rect><path d="M 105 125v 10h 5a 5 5, 0, 0, 0, 0 -10" transform="rotate(0,110,130)"></path><rect x="105" y="145" width="10" height="10" transform="rotate(0,110,150)"></rect><path d="M 105 155v 10h 10a 10 10, 0, 0, 0, -10 -10" transform="rotate(90,110,160)"></path><path d="M 105 175v 10h 5a 5 5, 0, 0, 0, 0 -10" transform="rotate(0,110,180)"></path><path d="M 105 195v 10h 5a 5 5, 0, 0, 0, 0 -10" transform="rotate(0,110,200)"></path><path d="M 105 215v 10h 5a 5 5, 0, 0, 0, 0 -10" transform="rotate(0,110,220)"></path><rect x="105" y="235" width="10" height="10" transform="rotate(0,110,240)"></rect><path d="M 105 285v 10h 5a 5 5, 0, 0, 0, 0 -10" transform="rotate(0,110,290)"></path><path d="M 115 5v 10h 5a 5 5, 0, 0, 0, 0 -10" transform="rotate(180,120,10)"></path><path d="M 115 25v 10h 5a 5 5, 0, 0, 0, 0 -10" transform="rotate(-90,120,30)"></path><path d="M 115 35v 10h 10a 10 10, 0, 0, 0, -10 -10" transform="rotate(180,120,40)"></path><circle cx="120" cy="60" r="5" transform="rotate(0,120,60)"></circle><path d="M 115 105v 10h 10a 10 10, 0, 0, 0, -10 -10" transform="rotate(0,120,110)"></path><path d="M 115 115v 10h 10a 10 10, 0, 0, 0, -10 -10" transform="rotate(180,120,120)"></path><rect x="115" y="145" width="10" height="10" transform="rotate(0,120,150)"></rect><circle cx="120" cy="190" r="5" transform="rotate(0,120,190)"></circle><path d="M 115 225v 10h 10a 10 10, 0, 0, 0, -10 -10" transform="rotate(-90,120,230)"></path><rect x="115" y="235" width="10" height="10" transform="rotate(0,120,240)"></rect><rect x="115" y="245" width="10" height="10" transform="rotate(0,120,250)"></rect><path d="M 115 255v 10h 10a 10 10, 0, 0, 0, -10 -10" transform="rotate(180,120,260)"></path><rect x="125" y="5" width="10" height="10" transform="rotate(0,130,10)"></rect><path d="M 125 35v 10h 10a 10 10, 0, 0, 0, -10 -10" transform="rotate(0,130,40)"></path><path d="M 125 45v 10h 5a 5 5, 0, 0, 0, 0 -10" transform="rotate(90,130,50)"></path><path d="M 125 65v 10h 5a 5 5, 0, 0, 0, 0 -10" transform="rotate(-90,130,70)"></path><path d="M 125 75v 10h 10a 10 10, 0, 0, 0, -10 -10" transform="rotate(180,130,80)"></path><circle cx="130" cy="100" r="5" transform="rotate(0,130,100)"></circle><rect x="125" y="115" width="10" height="10" transform="rotate(0,130,120)"></rect><rect x="125" y="145" width="10" height="10" transform="rotate(0,130,150)"></rect><rect x="125" y="155" width="10" height="10" transform="rotate(0,130,160)"></rect><path d="M 125 165v 10h 10a 10 10, 0, 0, 0, -10 -10" transform="rotate(180,130,170)"></path><path d="M 125 195v 10h 5a 5 5, 0, 0, 0, 0 -10" transform="rotate(180,130,200)"></path><path d="M 125 215v 10h 5a 5 5, 0, 0, 0, 0 -10" transform="rotate(-90,130,220)"></path><rect x="125" y="225" width="10" height="10" transform="rotate(0,130,230)"></rect><rect x="125" y="255" width="10" height="10" transform="rotate(0,130,260)"></rect><circle cx="130" cy="280" r="5" transform="rotate(0,130,280)"></circle><rect x="135" y="5" width="10" height="10" transform="rotate(0,140,10)"></rect><circle cx="140" cy="30" r="5" transform="rotate(0,140,30)"></circle><path d="M 135 75v 10h 5a 5 5, 0, 0, 0, 0 -10" transform="rotate(0,140,80)"></path><rect x="135" y="115" width="10" height="10" transform="rotate(0,140,120)"></rect><rect x="135" y="145" width="10" height="10" transform="rotate(0,140,150)"></rect><rect x="135" y="165" width="10" height="10" transform="rotate(0,140,170)"></rect><rect x="135" y="195" width="10" height="10" transform="rotate(0,140,200)"></rect><path d="M 135 205v 10h 5a 5 5, 0, 0, 0, 0 -10" transform="rotate(90,140,210)"></path><rect x="135" y="225" width="10" height="10" transform="rotate(0,140,230)"></rect><rect x="135" y="255" width="10" height="10" transform="rotate(0,140,260)"></rect><path d="M 135 285v 10h 5a 5 5, 0, 0, 0, 0 -10" transform="rotate(180,140,290)"></path><rect x="145" y="5" width="10" height="10" transform="rotate(0,150,10)"></rect><circle cx="150" cy="70" r="5" transform="rotate(0,150,70)"></circle><rect x="145" y="115" width="10" height="10" transform="rotate(0,150,120)"></rect><rect x="145" y="125" width="10" height="10" transform="rotate(0,150,130)"></rect><rect x="145" y="135" width="10" height="10" transform="rotate(0,150,140)"></rect><rect x="145" y="145" width="10" height="10" transform="rotate(0,150,150)"></rect><rect x="145" y="155" width="10" height="10" transform="rotate(0,150,160)"></rect><path d="M 145 165v 10h 10a 10 10, 0, 0, 0, -10 -10" transform="rotate(90,150,170)"></path><path d="M 145 195v 10h 5a 5 5, 0, 0, 0, 0 -10" transform="rotate(0,150,200)"></path><rect x="145" y="225" width="10" height="10" transform="rotate(0,150,230)"></rect><rect x="145" y="255" width="10" height="10" transform="rotate(0,150,260)"></rect><path d="M 145 265v 10h 5a 5 5, 0, 0, 0, 0 -10" transform="rotate(90,150,270)"></path><rect x="145" y="285" width="10" height="10" transform="rotate(0,150,290)"></rect><rect x="155" y="5" width="10" height="10" transform="rotate(0,160,10)"></rect><circle cx="160" cy="40" r="5" transform="rotate(0,160,40)"></circle><path d="M 155 75v 10h 5a 5 5, 0, 0, 0, 0 -10" transform="rotate(-90,160,80)"></path><rect x="155" y="85" width="10" height="10" transform="rotate(0,160,90)"></rect><path d="M 155 95v 10h 10a 10 10, 0, 0, 0, -10 -10" transform="rotate(180,160,100)"></path><rect x="155" y="115" width="10" height="10" transform="rotate(0,160,120)"></rect><rect x="155" y="135" width="10" height="10" transform="rotate(0,160,140)"></rect><rect x="155" y="145" width="10" height="10" transform="rotate(0,160,150)"></rect><path d="M 155 155v 10h 10a 10 10, 0, 0, 0, -10 -10" transform="rotate(90,160,160)"></path><path d="M 155 215v 10h 5a 5 5, 0, 0, 0, 0 -10" transform="rotate(-90,160,220)"></path><rect x="155" y="225" width="10" height="10" transform="rotate(0,160,230)"></rect><path d="M 155 255v 10h 5a 5 5, 0, 0, 0, 0 -10" transform="rotate(0,160,260)"></path><path d="M 155 285v 10h 5a 5 5, 0, 0, 0, 0 -10" transform="rotate(0,160,290)"></path><path d="M 165 5v 10h 10a 10 10, 0, 0, 0, -10 -10" transform="rotate(0,170,10)"></path><path d="M 165 15v 10h 10a 10 10, 0, 0, 0, -10 -10" transform="rotate(180,170,20)"></path><circle cx="170" cy="70" r="5" transform="rotate(0,170,70)"></circle><path d="M 165 85v 10h 10a 10 10, 0, 0, 0, -10 -10" transform="rotate(0,170,90)"></path><rect x="165" y="95" width="10" height="10" transform="rotate(0,170,100)"></rect><rect x="165" y="115" width="10" height="10" transform="rotate(0,170,120)"></rect><rect x="165" y="125" width="10" height="10" transform="rotate(0,170,130)"></rect><path d="M 165 135v 10h 10a 10 10, 0, 0, 0, -10 -10" transform="rotate(90,170,140)"></path><path d="M 165 165v 10h 10a 10 10, 0, 0, 0, -10 -10" transform="rotate(-90,170,170)"></path><rect x="165" y="175" width="10" height="10" transform="rotate(0,170,180)"></rect><rect x="165" y="185" width="10" height="10" transform="rotate(0,170,190)"></rect><rect x="165" y="195" width="10" height="10" transform="rotate(0,170,200)"></rect><path d="M 165 205v 10h 10a 10 10, 0, 0, 0, -10 -10" transform="rotate(180,170,210)"></path><path d="M 165 225v 10h 10a 10 10, 0, 0, 0, -10 -10" transform="rotate(0,170,230)"></path><rect x="165" y="235" width="10" height="10" transform="rotate(0,170,240)"></rect><path d="M 165 245v 10h 5a 5 5, 0, 0, 0, 0 -10" transform="rotate(90,170,250)"></path><rect x="175" y="15" width="10" height="10" transform="rotate(0,180,20)"></rect><path d="M 175 35v 10h 5a 5 5, 0, 0, 0, 0 -10" transform="rotate(180,180,40)"></path><circle cx="180" cy="80" r="5" transform="rotate(0,180,80)"></circle><path d="M 175 95v 10h 5a 5 5, 0, 0, 0, 0 -10" transform="rotate(0,180,100)"></path><rect x="175" y="115" width="10" height="10" transform="rotate(0,180,120)"></rect><rect x="175" y="125" width="10" height="10" transform="rotate(0,180,130)"></rect><rect x="175" y="165" width="10" height="10" transform="rotate(0,180,170)"></rect><rect x="175" y="195" width="10" height="10" transform="rotate(0,180,200)"></rect><rect x="175" y="205" width="10" height="10" transform="rotate(0,180,210)"></rect><path d="M 175 235v 10h 5a 5 5, 0, 0, 0, 0 -10" transform="rotate(0,180,240)"></path><path d="M 175 255v 10h 5a 5 5, 0, 0, 0, 0 -10" transform="rotate(-90,180,260)"></path><path d="M 175 265v 10h 5a 5 5, 0, 0, 0, 0 -10" transform="rotate(90,180,270)"></path><path d="M 175 285v 10h 5a 5 5, 0, 0, 0, 0 -10" transform="rotate(180,180,290)"></path><path d="M 185 5v 10h 5a 5 5, 0, 0, 0, 0 -10" transform="rotate(-90,190,10)"></path><path d="M 185 15v 10h 10a 10 10, 0, 0, 0, -10 -10" transform="rotate(90,190,20)"></path><path d="M 185 35v 10h 5a 5 5, 0, 0, 0, 0 -10" transform="rotate(0,190,40)"></path><path d="M 185 55v 10h 10a 10 10, 0, 0, 0, -10 -10" transform="rotate(-90,190,60)"></path><path d="M 185 65v 10h 5a 5 5, 0, 0, 0, 0 -10" transform="rotate(90,190,70)"></path><path d="M 185 115v 10h 10a 10 10, 0, 0, 0, -10 -10" transform="rotate(0,190,120)"></path><path d="M 185 125v 10h 10a 10 10, 0, 0, 0, -10 -10" transform="rotate(90,190,130)"></path><path d="M 185 145v 10h 5a 5 5, 0, 0, 0, 0 -10" transform="rotate(180,190,150)"></path><rect x="185" y="165" width="10" height="10" transform="rotate(0,190,170)"></rect><path d="M 185 175v 10h 5a 5 5, 0, 0, 0, 0 -10" transform="rotate(90,190,180)"></path><rect x="185" y="195" width="10" height="10" transform="rotate(0,190,200)"></rect><rect x="185" y="205" width="10" height="10" transform="rotate(0,190,210)"></rect><path d="M 185 285v 10h 5a 5 5, 0, 0, 0, 0 -10" transform="rotate(0,190,290)"></path><circle cx="200" cy="30" r="5" transform="rotate(0,200,30)"></circle><path d="M 195 45v 10h 10a 10 10, 0, 0, 0, -10 -10" transform="rotate(-90,200,50)"></path><path d="M 195 55v 10h 10a 10 10, 0, 0, 0, -10 -10" transform="rotate(90,200,60)"></path><path d="M 195 85v 10h 5a 5 5, 0, 0, 0, 0 -10" transform="rotate(180,200,90)"></path><circle cx="200" cy="110" r="5" transform="rotate(0,200,110)"></circle><path d="M 195 135v 10h 10a 10 10, 0, 0, 0, -10 -10" transform="rotate(-90,200,140)"></path><rect x="195" y="145" width="10" height="10" transform="rotate(0,200,150)"></rect><rect x="195" y="155" width="10" height="10" transform="rotate(0,200,160)"></rect><path d="M 195 165v 10h 10a 10 10, 0, 0, 0, -10 -10" transform="rotate(90,200,170)"></path><path d="M 195 185v 10h 10a 10 10, 0, 0, 0, -10 -10" transform="rotate(-90,200,190)"></path><rect x="195" y="195" width="10" height="10" transform="rotate(0,200,200)"></rect><rect x="195" y="205" width="10" height="10" transform="rotate(0,200,210)"></rect><rect x="195" y="215" width="10" height="10" transform="rotate(0,200,220)"></rect><rect x="195" y="225" width="10" height="10" transform="rotate(0,200,230)"></rect><rect x="195" y="235" width="10" height="10" transform="rotate(0,200,240)"></rect><rect x="195" y="245" width="10" height="10" transform="rotate(0,200,250)"></rect><path d="M 195 255v 10h 10a 10 10, 0, 0, 0, -10 -10" transform="rotate(180,200,260)"></path><circle cx="200" cy="280" r="5" transform="rotate(0,200,280)"></circle><path d="M 205 5v 10h 5a 5 5, 0, 0, 0, 0 -10" transform="rotate(-90,210,10)"></path><path d="M 205 15v 10h 5a 5 5, 0, 0, 0, 0 -10" transform="rotate(90,210,20)"></path><path d="M 205 45v 10h 5a 5 5, 0, 0, 0, 0 -10" transform="rotate(0,210,50)"></path><circle cx="210" cy="70" r="5" transform="rotate(0,210,70)"></circle><rect x="205" y="85" width="10" height="10" transform="rotate(0,210,90)"></rect><path d="M 205 125v 10h 10a 10 10, 0, 0, 0, -10 -10" transform="rotate(-90,210,130)"></path><rect x="205" y="135" width="10" height="10" transform="rotate(0,210,140)"></rect><rect x="205" y="145" width="10" height="10" transform="rotate(0,210,150)"></rect><path d="M 205 185v 10h 10a 10 10, 0, 0, 0, -10 -10" transform="rotate(0,210,190)"></path><rect x="205" y="195" width="10" height="10" transform="rotate(0,210,200)"></rect><rect x="205" y="205" width="10" height="10" transform="rotate(0,210,210)"></rect><rect x="205" y="215" width="10" height="10" transform="rotate(0,210,220)"></rect><rect x="205" y="225" width="10" height="10" transform="rotate(0,210,230)"></rect><rect x="205" y="235" width="10" height="10" transform="rotate(0,210,240)"></rect><rect x="205" y="245" width="10" height="10" transform="rotate(0,210,250)"></rect><rect x="205" y="255" width="10" height="10" transform="rotate(0,210,260)"></rect><path d="M 215 85v 10h 5a 5 5, 0, 0, 0, 0 -10" transform="rotate(0,220,90)"></path><circle cx="220" cy="110" r="5" transform="rotate(0,220,110)"></circle><rect x="215" y="125" width="10" height="10" transform="rotate(0,220,130)"></rect><rect x="215" y="135" width="10" height="10" transform="rotate(0,220,140)"></rect><rect x="215" y="145" width="10" height="10" transform="rotate(0,220,150)"></rect><rect x="215" y="155" width="10" height="10" transform="rotate(0,220,160)"></rect><rect x="215" y="165" width="10" height="10" transform="rotate(0,220,170)"></rect><path d="M 215 175v 10h 5a 5 5, 0, 0, 0, 0 -10" transform="rotate(90,220,180)"></path><path d="M 215 195v 10h 10a 10 10, 0, 0, 0, -10 -10" transform="rotate(0,220,200)"></path><rect x="215" y="205" width="10" height="10" transform="rotate(0,220,210)"></rect><rect x="215" y="245" width="10" height="10" transform="rotate(0,220,250)"></rect><rect x="215" y="255" width="10" height="10" transform="rotate(0,220,260)"></rect><path d="M 215 285v 10h 5a 5 5, 0, 0, 0, 0 -10" transform="rotate(180,220,290)"></path><path d="M 225 95v 10h 5a 5 5, 0, 0, 0, 0 -10" transform="rotate(180,230,100)"></path><rect x="225" y="125" width="10" height="10" transform="rotate(0,230,130)"></rect><rect x="225" y="135" width="10" height="10" transform="rotate(0,230,140)"></rect><rect x="225" y="145" width="10" height="10" transform="rotate(0,230,150)"></rect><path d="M 225 155v 10h 10a 10 10, 0, 0, 0, -10 -10" transform="rotate(90,230,160)"></path><rect x="225" y="205" width="10" height="10" transform="rotate(0,230,210)"></rect><circle cx="230" cy="230" r="5" transform="rotate(0,230,230)"></circle><rect x="225" y="245" width="10" height="10" transform="rotate(0,230,250)"></rect><rect x="225" y="255" width="10" height="10" transform="rotate(0,230,260)"></rect><rect x="225" y="265" width="10" height="10" transform="rotate(0,230,270)"></rect><rect x="225" y="275" width="10" height="10" transform="rotate(0,230,280)"></rect><rect x="225" y="285" width="10" height="10" transform="rotate(0,230,290)"></rect><rect x="235" y="95" width="10" height="10" transform="rotate(0,240,100)"></rect><rect x="235" y="105" width="10" height="10" transform="rotate(0,240,110)"></rect><rect x="235" y="115" width="10" height="10" transform="rotate(0,240,120)"></rect><path d="M 235 125v 10h 10a 10 10, 0, 0, 0, -10 -10" transform="rotate(90,240,130)"></path><path d="M 235 175v 10h 5a 5 5, 0, 0, 0, 0 -10" transform="rotate(180,240,180)"></path><path d="M 235 195v 10h 10a 10 10, 0, 0, 0, -10 -10" transform="rotate(-90,240,200)"></path><rect x="235" y="205" width="10" height="10" transform="rotate(0,240,210)"></rect><rect x="235" y="245" width="10" height="10" transform="rotate(0,240,250)"></rect><path d="M 235 255v 10h 10a 10 10, 0, 0, 0, -10 -10" transform="rotate(90,240,260)"></path><rect x="235" y="285" width="10" height="10" transform="rotate(0,240,290)"></rect><rect x="245" y="95" width="10" height="10" transform="rotate(0,250,100)"></rect><path d="M 245 135v 10h 5a 5 5, 0, 0, 0, 0 -10" transform="rotate(180,250,140)"></path><circle cx="250" cy="160" r="5" transform="rotate(0,250,160)"></circle><rect x="245" y="175" width="10" height="10" transform="rotate(0,250,180)"></rect><rect x="245" y="195" width="10" height="10" transform="rotate(0,250,200)"></rect><rect x="245" y="205" width="10" height="10" transform="rotate(0,250,210)"></rect><rect x="245" y="215" width="10" height="10" transform="rotate(0,250,220)"></rect><rect x="245" y="225" width="10" height="10" transform="rotate(0,250,230)"></rect><rect x="245" y="235" width="10" height="10" transform="rotate(0,250,240)"></rect><rect x="245" y="245" width="10" height="10" transform="rotate(0,250,250)"></rect><path d="M 245 275v 10h 10a 10 10, 0, 0, 0, -10 -10" transform="rotate(-90,250,280)"></path><path d="M 245 285v 10h 10a 10 10, 0, 0, 0, -10 -10" transform="rotate(90,250,290)"></path><rect x="255" y="95" width="10" height="10" transform="rotate(0,260,100)"></rect><path d="M 255 135v 10h 5a 5 5, 0, 0, 0, 0 -10" transform="rotate(0,260,140)"></path><rect x="255" y="175" width="10" height="10" transform="rotate(0,260,180)"></rect><path d="M 255 195v 10h 10a 10 10, 0, 0, 0, -10 -10" transform="rotate(0,260,200)"></path><path d="M 255 205v 10h 10a 10 10, 0, 0, 0, -10 -10" transform="rotate(90,260,210)"></path><path d="M 255 235v 10h 10a 10 10, 0, 0, 0, -10 -10" transform="rotate(0,260,240)"></path><rect x="255" y="245" width="10" height="10" transform="rotate(0,260,250)"></rect><rect x="255" y="255" width="10" height="10" transform="rotate(0,260,260)"></rect><rect x="255" y="265" width="10" height="10" transform="rotate(0,260,270)"></rect><rect x="255" y="275" width="10" height="10" transform="rotate(0,260,280)"></rect><path d="M 265 85v 10h 10a 10 10, 0, 0, 0, -10 -10" transform="rotate(-90,270,90)"></path><rect x="265" y="95" width="10" height="10" transform="rotate(0,270,100)"></rect><path d="M 265 145v 10h 10a 10 10, 0, 0, 0, -10 -10" transform="rotate(-90,270,150)"></path><path d="M 265 155v 10h 5a 5 5, 0, 0, 0, 0 -10" transform="rotate(90,270,160)"></path><path d="M 265 175v 10h 5a 5 5, 0, 0, 0, 0 -10" transform="rotate(0,270,180)"></path><path d="M 265 215v 10h 5a 5 5, 0, 0, 0, 0 -10" transform="rotate(180,270,220)"></path><path d="M 265 245v 10h 5a 5 5, 0, 0, 0, 0 -10" transform="rotate(0,270,250)"></path><path d="M 265 265v 10h 10a 10 10, 0, 0, 0, -10 -10" transform="rotate(0,270,270)"></path><rect x="265" y="275" width="10" height="10" transform="rotate(0,270,280)"></rect><path d="M 265 285v 10h 5a 5 5, 0, 0, 0, 0 -10" transform="rotate(90,270,290)"></path><path d="M 275 85v 10h 10a 10 10, 0, 0, 0, -10 -10" transform="rotate(0,280,90)"></path><rect x="275" y="95" width="10" height="10" transform="rotate(0,280,100)"></rect><rect x="275" y="105" width="10" height="10" transform="rotate(0,280,110)"></rect><path d="M 275 115v 10h 5a 5 5, 0, 0, 0, 0 -10" transform="rotate(90,280,120)"></path><rect x="275" y="145" width="10" height="10" transform="rotate(0,280,150)"></rect><path d="M 275 185v 10h 5a 5 5, 0, 0, 0, 0 -10" transform="rotate(-90,280,190)"></path><rect x="275" y="195" width="10" height="10" transform="rotate(0,280,200)"></rect><rect x="275" y="205" width="10" height="10" transform="rotate(0,280,210)"></rect><rect x="275" y="215" width="10" height="10" transform="rotate(0,280,220)"></rect><path d="M 275 225v 10h 5a 5 5, 0, 0, 0, 0 -10" transform="rotate(90,280,230)"></path><path d="M 285 95v 10h 5a 5 5, 0, 0, 0, 0 -10" transform="rotate(0,290,100)"></path><path d="M 285 135v 10h 5a 5 5, 0, 0, 0, 0 -10" transform="rotate(-90,290,140)"></path><rect x="285" y="145" width="10" height="10" transform="rotate(0,290,150)"></rect><path d="M 285 155v 10h 5a 5 5, 0, 0, 0, 0 -10" transform="rotate(90,290,160)"></path><path d="M 285 205v 10h 5a 5 5, 0, 0, 0, 0 -10" transform="rotate(0,290,210)"></path><path d="M 285 235v 10h 5a 5 5, 0, 0, 0, 0 -10" transform="rotate(-90,290,240)"></path><rect x="285" y="245" width="10" height="10" transform="rotate(0,290,250)"></rect><path d="M 285 255v 10h 5a 5 5, 0, 0, 0, 0 -10" transform="rotate(90,290,260)"></path><circle cx="290" cy="290" r="5" transform="rotate(0,290,290)"></circle></g><g class="corners-square-color-0-0"><path clip-rule="evenodd" d="M 5 30v 20a 25 25, 0, 0, 0, 25 25h 20a 25 25, 0, 0, 0, 25 -25v -20a 25 25, 0, 0, 0, -25 -25h -20a 25 25, 0, 0, 0, -25 25M 30 15h 20a 15 15, 0, 0, 1, 15 15v 20a 15 15, 0, 0, 1, -15 15h -20a 15 15, 0, 0, 1, -15 -15v -20a 15 15, 0, 0, 1, 15 -15" transform="rotate(0,40,40)"></path></g><g class="corners-dot-color-0-0"><circle cx="40" cy="40" r="15" transform="rotate(0,40,40)"></circle></g><g class="corners-square-color-1-0"><path clip-rule="evenodd" d="M 225 30v 20a 25 25, 0, 0, 0, 25 25h 20a 25 25, 0, 0, 0, 25 -25v -20a 25 25, 0, 0, 0, -25 -25h -20a 25 25, 0, 0, 0, -25 25M 250 15h 20a 15 15, 0, 0, 1, 15 15v 20a 15 15, 0, 0, 1, -15 15h -20a 15 15, 0, 0, 1, -15 -15v -20a 15 15, 0, 0, 1, 15 -15" transform="rotate(90,260,40)"></path></g><g class="corners-dot-color-1-0"><circle cx="260" cy="40" r="15" transform="rotate(90,260,40)"></circle></g><g class="corners-square-color-0-1"><path clip-rule="evenodd" d="M 5 250v 20a 25 25, 0, 0, 0, 25 25h 20a 25 25, 0, 0, 0, 25 -25v -20a 25 25, 0, 0, 0, -25 -25h -20a 25 25, 0, 0, 0, -25 25M 30 235h 20a 15 15, 0, 0, 1, 15 15v 20a 15 15, 0, 0, 1, -15 15h -20a 15 15, 0, 0, 1, -15 -15v -20a 15 15, 0, 0, 1, 15 -15" transform="rotate(-90,40,260)"></path></g><g class="corners-dot-color-0-1"><circle cx="40" cy="260" r="15" transform="rotate(-90,40,260)"></circle></g></svg></g><path d="M1360.37 1704.17H639.63a69.18 69.18 0 0 1-69.1-69.1V914.34a69.18 69.18 0 0 1 69.1-69.1h720.74a69.18 69.18 0 0 1 69.1 69.1v720.73a69.18 69.18 0 0 1-69.1 69.1ZM639.63 889.24a25.13 25.13 0 0 0-25.1 25.1v720.73a25.13 25.13 0 0 0 25.1 25.1h720.74a25.13 25.13 0 0 0 25.1-25.1V914.34a25.13 25.13 0 0 0-25.1-25.1Z" style="fill: rgb(255, 171, 158);"></path><ellipse class="clse1-2" cx="1182.04" cy="779.37" rx="52.21" ry="29.16"></ellipse><ellipse class="clse1-2" cx="820.02" cy="779.37" rx="52.21" ry="29.16"></ellipse><path class="clse1-3" d="M824.3 781.31a2.93 2.93 0 0 1-1.11-.22L695.33 730a3 3 0 0 1 2.22-5.57l127.87 51.12a3 3 0 0 1-1.12 5.79ZM751.57 853.83a3 3 0 0 1-1.89-5.33l72.74-58.81a3 3 0 0 1 3.77 4.67l-72.74 58.8a3 3 0 0 1-1.88.67ZM1179.5 782.13a3 3 0 0 1-1.12-5.79l127.87-51.12a3 3 0 1 1 2.22 5.57l-127.86 51.13a3.08 3.08 0 0 1-1.11.21ZM1252.24 854.66a3 3 0 0 1-1.89-.67l-72.74-58.81a3 3 0 1 1 3.77-4.66l72.74 58.8a3 3 0 0 1-1.88 5.34Z"></path><ellipse class="clse1-5" cx="774.25" cy="862.87" rx="69.54" ry="41.45"></ellipse><ellipse class="clse1-5" cx="1230.2" cy="862.87" rx="69.54" ry="41.45"></ellipse><path class="clse1-1" d="M1194.75 1659.76c-4.36 28-20.53 129.48-80.44 147.09-29 8.51-61.24-4.6-80.77-27.72-44.86-53.1-13.93-149-6.15-173.07 23.46-72.68 83.79-159.53 126.64-145.78 44.5 14.27 51.81 128.3 40.72 199.48Z"></path><path class="clse1-2" d="M1163.08 1649.33c-3.62 21.21-17 98.14-55.27 114-18.5 7.65-38.43-.8-50-17.31-26.59-37.94-4.1-111.27 1.56-129.72 17.05-55.6 57.77-123.44 84.33-115 27.57 8.78 28.6 94.09 19.38 148.03Z"></path><path class="clse1-1" d="M808.94 1659.76c4.36 28 20.52 129.48 80.44 147.09 29 8.51 61.24-4.6 80.77-27.72 44.86-53.1 13.92-149 6.14-173.07-23.45-72.68-83.78-159.53-126.64-145.78-44.49 14.27-51.8 128.3-40.71 199.48Z"></path><path class="clse1-2" d="M840.6 1649.33c3.63 21.21 17 98.14 55.28 114 18.5 7.65 38.42-.8 50-17.31 26.58-37.94 4.09-111.27-1.56-129.72-17.06-55.6-57.78-123.44-84.34-115-27.57 8.78-28.59 94.09-19.38 148.03Z"></path></g></svg>