<svg xmlns="http://www.w3.org/2000/svg" viewBox="0 0 2000 2000" width="300" height="300" fill="none"><g><defs><style>.clse2-2{fill:#7cc3b4}.clse2-3{fill:#2e6062}.clse2-4{fill:#dc582e}.clse2-5{fill:#febe5d}.clse2-6{fill:#191c38}.clse2-7{fill:#75a8a7}</style></defs><g transform="translate(400, 500)scale(3.7)" fill="none"><svg width="300" height="300"><style>.background-color{ fill: #fff; }.dot-color{ fill: #0e372d; }.corners-square-color-0-0{ fill: #0e372d; }.corners-dot-color-0-0{ fill: #0e372d; }.corners-square-color-1-0{ fill: #0e372d; }.corners-dot-color-1-0{ fill: #0e372d; }.corners-square-color-0-1{ fill: #0e372d; }.corners-dot-color-0-1{ fill: #0e372d; }</style><defs></defs><g class="dot-color"><path d="M 5 105v 10h 5a 5 5, 0, 0, 0, 0 -10" transform="rotate(-90,10,110)"></path><rect x="5" y="115" width="10" height="10" transform="rotate(0,10,120)"></rect><rect x="5" y="125" width="10" height="10" transform="rotate(0,10,130)"></rect><rect x="5" y="135" width="10" height="10" transform="rotate(0,10,140)"></rect><rect x="5" y="145" width="10" height="10" transform="rotate(0,10,150)"></rect><path d="M 5 155v 10h 5a 5 5, 0, 0, 0, 0 -10" transform="rotate(90,10,160)"></path><path d="M 5 185v 10h 10a 10 10, 0, 0, 0, -10 -10" transform="rotate(-90,10,190)"></path><path d="M 5 195v 10h 5a 5 5, 0, 0, 0, 0 -10" transform="rotate(90,10,200)"></path><path d="M 15 95v 10h 5a 5 5, 0, 0, 0, 0 -10" transform="rotate(180,20,100)"></path><rect x="15" y="125" width="10" height="10" transform="rotate(0,20,130)"></rect><rect x="15" y="145" width="10" height="10" transform="rotate(0,20,150)"></rect><path d="M 15 175v 10h 10a 10 10, 0, 0, 0, -10 -10" transform="rotate(-90,20,180)"></path><rect x="15" y="185" width="10" height="10" transform="rotate(0,20,190)"></rect><circle cx="20" cy="210" r="5" transform="rotate(0,20,210)"></circle><rect x="25" y="95" width="10" height="10" transform="rotate(0,30,100)"></rect><path d="M 25 105v 10h 10a 10 10, 0, 0, 0, -10 -10" transform="rotate(180,30,110)"></path><path d="M 25 125v 10h 5a 5 5, 0, 0, 0, 0 -10" transform="rotate(0,30,130)"></path><rect x="25" y="145" width="10" height="10" transform="rotate(0,30,150)"></rect><rect x="25" y="155" width="10" height="10" transform="rotate(0,30,160)"></rect><rect x="25" y="165" width="10" height="10" transform="rotate(0,30,170)"></rect><rect x="25" y="175" width="10" height="10" transform="rotate(0,30,180)"></rect><rect x="25" y="185" width="10" height="10" transform="rotate(0,30,190)"></rect><path d="M 35 85v 10h 5a 5 5, 0, 0, 0, 0 -10" transform="rotate(-90,40,90)"></path><rect x="35" y="95" width="10" height="10" transform="rotate(0,40,100)"></rect><path d="M 35 105v 10h 10a 10 10, 0, 0, 0, -10 -10" transform="rotate(90,40,110)"></path><rect x="35" y="145" width="10" height="10" transform="rotate(0,40,150)"></rect><path d="M 35 175v 10h 10a 10 10, 0, 0, 0, -10 -10" transform="rotate(0,40,180)"></path><rect x="35" y="185" width="10" height="10" transform="rotate(0,40,190)"></rect><path d="M 45 95v 10h 5a 5 5, 0, 0, 0, 0 -10" transform="rotate(0,50,100)"></path><path d="M 45 125v 10h 10a 10 10, 0, 0, 0, -10 -10" transform="rotate(-90,50,130)"></path><rect x="45" y="135" width="10" height="10" transform="rotate(0,50,140)"></rect><path d="M 45 145v 10h 10a 10 10, 0, 0, 0, -10 -10" transform="rotate(90,50,150)"></path><path d="M 45 185v 10h 5a 5 5, 0, 0, 0, 0 -10" transform="rotate(0,50,190)"></path><circle cx="50" cy="210" r="5" transform="rotate(0,50,210)"></circle><path d="M 55 85v 10h 5a 5 5, 0, 0, 0, 0 -10" transform="rotate(180,60,90)"></path><rect x="55" y="125" width="10" height="10" transform="rotate(0,60,130)"></rect><path d="M 55 135v 10h 10a 10 10, 0, 0, 0, -10 -10" transform="rotate(90,60,140)"></path><circle cx="60" cy="180" r="5" transform="rotate(0,60,180)"></circle><rect x="65" y="85" width="10" height="10" transform="rotate(0,70,90)"></rect><circle cx="70" cy="110" r="5" transform="rotate(0,70,110)"></circle><path d="M 65 125v 10h 5a 5 5, 0, 0, 0, 0 -10" transform="rotate(0,70,130)"></path><path d="M 65 145v 10h 5a 5 5, 0, 0, 0, 0 -10" transform="rotate(180,70,150)"></path><path d="M 65 165v 10h 5a 5 5, 0, 0, 0, 0 -10" transform="rotate(180,70,170)"></path><circle cx="70" cy="190" r="5" transform="rotate(0,70,190)"></circle><circle cx="70" cy="210" r="5" transform="rotate(0,70,210)"></circle><path d="M 75 85v 10h 5a 5 5, 0, 0, 0, 0 -10" transform="rotate(0,80,90)"></path><circle cx="80" cy="120" r="5" transform="rotate(0,80,120)"></circle><path d="M 75 135v 10h 10a 10 10, 0, 0, 0, -10 -10" transform="rotate(-90,80,140)"></path><path d="M 75 145v 10h 10a 10 10, 0, 0, 0, -10 -10" transform="rotate(90,80,150)"></path><path d="M 75 165v 10h 5a 5 5, 0, 0, 0, 0 -10" transform="rotate(0,80,170)"></path><path d="M 75 195v 10h 5a 5 5, 0, 0, 0, 0 -10" transform="rotate(180,80,200)"></path><path d="M 85 15v 10h 10a 10 10, 0, 0, 0, -10 -10" transform="rotate(-90,90,20)"></path><path d="M 85 25v 10h 10a 10 10, 0, 0, 0, -10 -10" transform="rotate(180,90,30)"></path><circle cx="90" cy="70" r="5" transform="rotate(0,90,70)"></circle><path d="M 85 135v 10h 5a 5 5, 0, 0, 0, 0 -10" transform="rotate(0,90,140)"></path><rect x="85" y="195" width="10" height="10" transform="rotate(0,90,200)"></rect><path d="M 85 205v 10h 10a 10 10, 0, 0, 0, -10 -10" transform="rotate(180,90,210)"></path><path d="M 85 225v 10h 5a 5 5, 0, 0, 0, 0 -10" transform="rotate(-90,90,230)"></path><path d="M 85 235v 10h 10a 10 10, 0, 0, 0, -10 -10" transform="rotate(180,90,240)"></path><circle cx="90" cy="260" r="5" transform="rotate(0,90,260)"></circle><path d="M 95 5v 10h 5a 5 5, 0, 0, 0, 0 -10" transform="rotate(-90,100,10)"></path><rect x="95" y="15" width="10" height="10" transform="rotate(0,100,20)"></rect><path d="M 95 25v 10h 10a 10 10, 0, 0, 0, -10 -10" transform="rotate(90,100,30)"></path><circle cx="100" cy="50" r="5" transform="rotate(0,100,50)"></circle><path d="M 95 75v 10h 10a 10 10, 0, 0, 0, -10 -10" transform="rotate(-90,100,80)"></path><path d="M 95 85v 10h 5a 5 5, 0, 0, 0, 0 -10" transform="rotate(90,100,90)"></path><path d="M 95 105v 10h 5a 5 5, 0, 0, 0, 0 -10" transform="rotate(180,100,110)"></path><path d="M 95 125v 10h 5a 5 5, 0, 0, 0, 0 -10" transform="rotate(180,100,130)"></path><path d="M 95 145v 10h 10a 10 10, 0, 0, 0, -10 -10" transform="rotate(-90,100,150)"></path><rect x="95" y="155" width="10" height="10" transform="rotate(0,100,160)"></rect><rect x="95" y="165" width="10" height="10" transform="rotate(0,100,170)"></rect><rect x="95" y="175" width="10" height="10" transform="rotate(0,100,180)"></rect><rect x="95" y="185" width="10" height="10" transform="rotate(0,100,190)"></rect><rect x="95" y="195" width="10" height="10" transform="rotate(0,100,200)"></rect><rect x="95" y="205" width="10" height="10" transform="rotate(0,100,210)"></rect><path d="M 95 215v 10h 10a 10 10, 0, 0, 0, -10 -10" transform="rotate(180,100,220)"></path><rect x="95" y="235" width="10" height="10" transform="rotate(0,100,240)"></rect><path d="M 95 275v 10h 5a 5 5, 0, 0, 0, 0 -10" transform="rotate(-90,100,280)"></path><path d="M 95 285v 10h 10a 10 10, 0, 0, 0, -10 -10" transform="rotate(180,100,290)"></path><path d="M 105 15v 10h 5a 5 5, 0, 0, 0, 0 -10" transform="rotate(0,110,20)"></path><path d="M 105 65v 10h 5a 5 5, 0, 0, 0, 0 -10" transform="rotate(-90,110,70)"></path><path d="M 105 75v 10h 10a 10 10, 0, 0, 0, -10 -10" transform="rotate(90,110,80)"></path><rect x="105" y="105" width="10" height="10" transform="rotate(0,110,110)"></rect><path d="M 105 125v 10h 5a 5 5, 0, 0, 0, 0 -10" transform="rotate(0,110,130)"></path><rect x="105" y="145" width="10" height="10" transform="rotate(0,110,150)"></rect><path d="M 105 155v 10h 10a 10 10, 0, 0, 0, -10 -10" transform="rotate(90,110,160)"></path><path d="M 105 175v 10h 5a 5 5, 0, 0, 0, 0 -10" transform="rotate(0,110,180)"></path><path d="M 105 195v 10h 5a 5 5, 0, 0, 0, 0 -10" transform="rotate(0,110,200)"></path><path d="M 105 215v 10h 5a 5 5, 0, 0, 0, 0 -10" transform="rotate(0,110,220)"></path><rect x="105" y="235" width="10" height="10" transform="rotate(0,110,240)"></rect><path d="M 105 285v 10h 5a 5 5, 0, 0, 0, 0 -10" transform="rotate(0,110,290)"></path><path d="M 115 5v 10h 5a 5 5, 0, 0, 0, 0 -10" transform="rotate(180,120,10)"></path><path d="M 115 25v 10h 5a 5 5, 0, 0, 0, 0 -10" transform="rotate(-90,120,30)"></path><path d="M 115 35v 10h 10a 10 10, 0, 0, 0, -10 -10" transform="rotate(180,120,40)"></path><circle cx="120" cy="60" r="5" transform="rotate(0,120,60)"></circle><path d="M 115 105v 10h 10a 10 10, 0, 0, 0, -10 -10" transform="rotate(0,120,110)"></path><path d="M 115 115v 10h 10a 10 10, 0, 0, 0, -10 -10" transform="rotate(180,120,120)"></path><rect x="115" y="145" width="10" height="10" transform="rotate(0,120,150)"></rect><circle cx="120" cy="190" r="5" transform="rotate(0,120,190)"></circle><path d="M 115 225v 10h 10a 10 10, 0, 0, 0, -10 -10" transform="rotate(-90,120,230)"></path><rect x="115" y="235" width="10" height="10" transform="rotate(0,120,240)"></rect><rect x="115" y="245" width="10" height="10" transform="rotate(0,120,250)"></rect><path d="M 115 255v 10h 10a 10 10, 0, 0, 0, -10 -10" transform="rotate(180,120,260)"></path><rect x="125" y="5" width="10" height="10" transform="rotate(0,130,10)"></rect><path d="M 125 35v 10h 10a 10 10, 0, 0, 0, -10 -10" transform="rotate(0,130,40)"></path><path d="M 125 45v 10h 5a 5 5, 0, 0, 0, 0 -10" transform="rotate(90,130,50)"></path><path d="M 125 65v 10h 5a 5 5, 0, 0, 0, 0 -10" transform="rotate(-90,130,70)"></path><path d="M 125 75v 10h 10a 10 10, 0, 0, 0, -10 -10" transform="rotate(180,130,80)"></path><circle cx="130" cy="100" r="5" transform="rotate(0,130,100)"></circle><rect x="125" y="115" width="10" height="10" transform="rotate(0,130,120)"></rect><rect x="125" y="145" width="10" height="10" transform="rotate(0,130,150)"></rect><rect x="125" y="155" width="10" height="10" transform="rotate(0,130,160)"></rect><path d="M 125 165v 10h 10a 10 10, 0, 0, 0, -10 -10" transform="rotate(180,130,170)"></path><path d="M 125 195v 10h 5a 5 5, 0, 0, 0, 0 -10" transform="rotate(180,130,200)"></path><path d="M 125 215v 10h 5a 5 5, 0, 0, 0, 0 -10" transform="rotate(-90,130,220)"></path><rect x="125" y="225" width="10" height="10" transform="rotate(0,130,230)"></rect><rect x="125" y="255" width="10" height="10" transform="rotate(0,130,260)"></rect><circle cx="130" cy="280" r="5" transform="rotate(0,130,280)"></circle><rect x="135" y="5" width="10" height="10" transform="rotate(0,140,10)"></rect><circle cx="140" cy="30" r="5" transform="rotate(0,140,30)"></circle><path d="M 135 75v 10h 5a 5 5, 0, 0, 0, 0 -10" transform="rotate(0,140,80)"></path><rect x="135" y="115" width="10" height="10" transform="rotate(0,140,120)"></rect><rect x="135" y="145" width="10" height="10" transform="rotate(0,140,150)"></rect><rect x="135" y="165" width="10" height="10" transform="rotate(0,140,170)"></rect><rect x="135" y="195" width="10" height="10" transform="rotate(0,140,200)"></rect><path d="M 135 205v 10h 5a 5 5, 0, 0, 0, 0 -10" transform="rotate(90,140,210)"></path><rect x="135" y="225" width="10" height="10" transform="rotate(0,140,230)"></rect><rect x="135" y="255" width="10" height="10" transform="rotate(0,140,260)"></rect><path d="M 135 285v 10h 5a 5 5, 0, 0, 0, 0 -10" transform="rotate(180,140,290)"></path><rect x="145" y="5" width="10" height="10" transform="rotate(0,150,10)"></rect><circle cx="150" cy="70" r="5" transform="rotate(0,150,70)"></circle><rect x="145" y="115" width="10" height="10" transform="rotate(0,150,120)"></rect><rect x="145" y="125" width="10" height="10" transform="rotate(0,150,130)"></rect><rect x="145" y="135" width="10" height="10" transform="rotate(0,150,140)"></rect><rect x="145" y="145" width="10" height="10" transform="rotate(0,150,150)"></rect><rect x="145" y="155" width="10" height="10" transform="rotate(0,150,160)"></rect><path d="M 145 165v 10h 10a 10 10, 0, 0, 0, -10 -10" transform="rotate(90,150,170)"></path><path d="M 145 195v 10h 5a 5 5, 0, 0, 0, 0 -10" transform="rotate(0,150,200)"></path><rect x="145" y="225" width="10" height="10" transform="rotate(0,150,230)"></rect><rect x="145" y="255" width="10" height="10" transform="rotate(0,150,260)"></rect><path d="M 145 265v 10h 5a 5 5, 0, 0, 0, 0 -10" transform="rotate(90,150,270)"></path><rect x="145" y="285" width="10" height="10" transform="rotate(0,150,290)"></rect><rect x="155" y="5" width="10" height="10" transform="rotate(0,160,10)"></rect><circle cx="160" cy="40" r="5" transform="rotate(0,160,40)"></circle><path d="M 155 75v 10h 5a 5 5, 0, 0, 0, 0 -10" transform="rotate(-90,160,80)"></path><rect x="155" y="85" width="10" height="10" transform="rotate(0,160,90)"></rect><path d="M 155 95v 10h 10a 10 10, 0, 0, 0, -10 -10" transform="rotate(180,160,100)"></path><rect x="155" y="115" width="10" height="10" transform="rotate(0,160,120)"></rect><rect x="155" y="135" width="10" height="10" transform="rotate(0,160,140)"></rect><rect x="155" y="145" width="10" height="10" transform="rotate(0,160,150)"></rect><path d="M 155 155v 10h 10a 10 10, 0, 0, 0, -10 -10" transform="rotate(90,160,160)"></path><path d="M 155 215v 10h 5a 5 5, 0, 0, 0, 0 -10" transform="rotate(-90,160,220)"></path><rect x="155" y="225" width="10" height="10" transform="rotate(0,160,230)"></rect><path d="M 155 255v 10h 5a 5 5, 0, 0, 0, 0 -10" transform="rotate(0,160,260)"></path><path d="M 155 285v 10h 5a 5 5, 0, 0, 0, 0 -10" transform="rotate(0,160,290)"></path><path d="M 165 5v 10h 10a 10 10, 0, 0, 0, -10 -10" transform="rotate(0,170,10)"></path><path d="M 165 15v 10h 10a 10 10, 0, 0, 0, -10 -10" transform="rotate(180,170,20)"></path><circle cx="170" cy="70" r="5" transform="rotate(0,170,70)"></circle><path d="M 165 85v 10h 10a 10 10, 0, 0, 0, -10 -10" transform="rotate(0,170,90)"></path><rect x="165" y="95" width="10" height="10" transform="rotate(0,170,100)"></rect><rect x="165" y="115" width="10" height="10" transform="rotate(0,170,120)"></rect><rect x="165" y="125" width="10" height="10" transform="rotate(0,170,130)"></rect><path d="M 165 135v 10h 10a 10 10, 0, 0, 0, -10 -10" transform="rotate(90,170,140)"></path><path d="M 165 165v 10h 10a 10 10, 0, 0, 0, -10 -10" transform="rotate(-90,170,170)"></path><rect x="165" y="175" width="10" height="10" transform="rotate(0,170,180)"></rect><rect x="165" y="185" width="10" height="10" transform="rotate(0,170,190)"></rect><rect x="165" y="195" width="10" height="10" transform="rotate(0,170,200)"></rect><path d="M 165 205v 10h 10a 10 10, 0, 0, 0, -10 -10" transform="rotate(180,170,210)"></path><path d="M 165 225v 10h 10a 10 10, 0, 0, 0, -10 -10" transform="rotate(0,170,230)"></path><rect x="165" y="235" width="10" height="10" transform="rotate(0,170,240)"></rect><path d="M 165 245v 10h 5a 5 5, 0, 0, 0, 0 -10" transform="rotate(90,170,250)"></path><rect x="175" y="15" width="10" height="10" transform="rotate(0,180,20)"></rect><path d="M 175 35v 10h 5a 5 5, 0, 0, 0, 0 -10" transform="rotate(180,180,40)"></path><circle cx="180" cy="80" r="5" transform="rotate(0,180,80)"></circle><path d="M 175 95v 10h 5a 5 5, 0, 0, 0, 0 -10" transform="rotate(0,180,100)"></path><rect x="175" y="115" width="10" height="10" transform="rotate(0,180,120)"></rect><rect x="175" y="125" width="10" height="10" transform="rotate(0,180,130)"></rect><rect x="175" y="165" width="10" height="10" transform="rotate(0,180,170)"></rect><rect x="175" y="195" width="10" height="10" transform="rotate(0,180,200)"></rect><rect x="175" y="205" width="10" height="10" transform="rotate(0,180,210)"></rect><path d="M 175 235v 10h 5a 5 5, 0, 0, 0, 0 -10" transform="rotate(0,180,240)"></path><path d="M 175 255v 10h 5a 5 5, 0, 0, 0, 0 -10" transform="rotate(-90,180,260)"></path><path d="M 175 265v 10h 5a 5 5, 0, 0, 0, 0 -10" transform="rotate(90,180,270)"></path><path d="M 175 285v 10h 5a 5 5, 0, 0, 0, 0 -10" transform="rotate(180,180,290)"></path><path d="M 185 5v 10h 5a 5 5, 0, 0, 0, 0 -10" transform="rotate(-90,190,10)"></path><path d="M 185 15v 10h 10a 10 10, 0, 0, 0, -10 -10" transform="rotate(90,190,20)"></path><path d="M 185 35v 10h 5a 5 5, 0, 0, 0, 0 -10" transform="rotate(0,190,40)"></path><path d="M 185 55v 10h 10a 10 10, 0, 0, 0, -10 -10" transform="rotate(-90,190,60)"></path><path d="M 185 65v 10h 5a 5 5, 0, 0, 0, 0 -10" transform="rotate(90,190,70)"></path><path d="M 185 115v 10h 10a 10 10, 0, 0, 0, -10 -10" transform="rotate(0,190,120)"></path><path d="M 185 125v 10h 10a 10 10, 0, 0, 0, -10 -10" transform="rotate(90,190,130)"></path><path d="M 185 145v 10h 5a 5 5, 0, 0, 0, 0 -10" transform="rotate(180,190,150)"></path><rect x="185" y="165" width="10" height="10" transform="rotate(0,190,170)"></rect><path d="M 185 175v 10h 5a 5 5, 0, 0, 0, 0 -10" transform="rotate(90,190,180)"></path><rect x="185" y="195" width="10" height="10" transform="rotate(0,190,200)"></rect><rect x="185" y="205" width="10" height="10" transform="rotate(0,190,210)"></rect><path d="M 185 285v 10h 5a 5 5, 0, 0, 0, 0 -10" transform="rotate(0,190,290)"></path><circle cx="200" cy="30" r="5" transform="rotate(0,200,30)"></circle><path d="M 195 45v 10h 10a 10 10, 0, 0, 0, -10 -10" transform="rotate(-90,200,50)"></path><path d="M 195 55v 10h 10a 10 10, 0, 0, 0, -10 -10" transform="rotate(90,200,60)"></path><path d="M 195 85v 10h 5a 5 5, 0, 0, 0, 0 -10" transform="rotate(180,200,90)"></path><circle cx="200" cy="110" r="5" transform="rotate(0,200,110)"></circle><path d="M 195 135v 10h 10a 10 10, 0, 0, 0, -10 -10" transform="rotate(-90,200,140)"></path><rect x="195" y="145" width="10" height="10" transform="rotate(0,200,150)"></rect><rect x="195" y="155" width="10" height="10" transform="rotate(0,200,160)"></rect><path d="M 195 165v 10h 10a 10 10, 0, 0, 0, -10 -10" transform="rotate(90,200,170)"></path><path d="M 195 185v 10h 10a 10 10, 0, 0, 0, -10 -10" transform="rotate(-90,200,190)"></path><rect x="195" y="195" width="10" height="10" transform="rotate(0,200,200)"></rect><rect x="195" y="205" width="10" height="10" transform="rotate(0,200,210)"></rect><rect x="195" y="215" width="10" height="10" transform="rotate(0,200,220)"></rect><rect x="195" y="225" width="10" height="10" transform="rotate(0,200,230)"></rect><rect x="195" y="235" width="10" height="10" transform="rotate(0,200,240)"></rect><rect x="195" y="245" width="10" height="10" transform="rotate(0,200,250)"></rect><path d="M 195 255v 10h 10a 10 10, 0, 0, 0, -10 -10" transform="rotate(180,200,260)"></path><circle cx="200" cy="280" r="5" transform="rotate(0,200,280)"></circle><path d="M 205 5v 10h 5a 5 5, 0, 0, 0, 0 -10" transform="rotate(-90,210,10)"></path><path d="M 205 15v 10h 5a 5 5, 0, 0, 0, 0 -10" transform="rotate(90,210,20)"></path><path d="M 205 45v 10h 5a 5 5, 0, 0, 0, 0 -10" transform="rotate(0,210,50)"></path><circle cx="210" cy="70" r="5" transform="rotate(0,210,70)"></circle><rect x="205" y="85" width="10" height="10" transform="rotate(0,210,90)"></rect><path d="M 205 125v 10h 10a 10 10, 0, 0, 0, -10 -10" transform="rotate(-90,210,130)"></path><rect x="205" y="135" width="10" height="10" transform="rotate(0,210,140)"></rect><rect x="205" y="145" width="10" height="10" transform="rotate(0,210,150)"></rect><path d="M 205 185v 10h 10a 10 10, 0, 0, 0, -10 -10" transform="rotate(0,210,190)"></path><rect x="205" y="195" width="10" height="10" transform="rotate(0,210,200)"></rect><rect x="205" y="205" width="10" height="10" transform="rotate(0,210,210)"></rect><rect x="205" y="215" width="10" height="10" transform="rotate(0,210,220)"></rect><rect x="205" y="225" width="10" height="10" transform="rotate(0,210,230)"></rect><rect x="205" y="235" width="10" height="10" transform="rotate(0,210,240)"></rect><rect x="205" y="245" width="10" height="10" transform="rotate(0,210,250)"></rect><rect x="205" y="255" width="10" height="10" transform="rotate(0,210,260)"></rect><path d="M 215 85v 10h 5a 5 5, 0, 0, 0, 0 -10" transform="rotate(0,220,90)"></path><circle cx="220" cy="110" r="5" transform="rotate(0,220,110)"></circle><rect x="215" y="125" width="10" height="10" transform="rotate(0,220,130)"></rect><rect x="215" y="135" width="10" height="10" transform="rotate(0,220,140)"></rect><rect x="215" y="145" width="10" height="10" transform="rotate(0,220,150)"></rect><rect x="215" y="155" width="10" height="10" transform="rotate(0,220,160)"></rect><rect x="215" y="165" width="10" height="10" transform="rotate(0,220,170)"></rect><path d="M 215 175v 10h 5a 5 5, 0, 0, 0, 0 -10" transform="rotate(90,220,180)"></path><path d="M 215 195v 10h 10a 10 10, 0, 0, 0, -10 -10" transform="rotate(0,220,200)"></path><rect x="215" y="205" width="10" height="10" transform="rotate(0,220,210)"></rect><rect x="215" y="245" width="10" height="10" transform="rotate(0,220,250)"></rect><rect x="215" y="255" width="10" height="10" transform="rotate(0,220,260)"></rect><path d="M 215 285v 10h 5a 5 5, 0, 0, 0, 0 -10" transform="rotate(180,220,290)"></path><path d="M 225 95v 10h 5a 5 5, 0, 0, 0, 0 -10" transform="rotate(180,230,100)"></path><rect x="225" y="125" width="10" height="10" transform="rotate(0,230,130)"></rect><rect x="225" y="135" width="10" height="10" transform="rotate(0,230,140)"></rect><rect x="225" y="145" width="10" height="10" transform="rotate(0,230,150)"></rect><path d="M 225 155v 10h 10a 10 10, 0, 0, 0, -10 -10" transform="rotate(90,230,160)"></path><rect x="225" y="205" width="10" height="10" transform="rotate(0,230,210)"></rect><circle cx="230" cy="230" r="5" transform="rotate(0,230,230)"></circle><rect x="225" y="245" width="10" height="10" transform="rotate(0,230,250)"></rect><rect x="225" y="255" width="10" height="10" transform="rotate(0,230,260)"></rect><rect x="225" y="265" width="10" height="10" transform="rotate(0,230,270)"></rect><rect x="225" y="275" width="10" height="10" transform="rotate(0,230,280)"></rect><rect x="225" y="285" width="10" height="10" transform="rotate(0,230,290)"></rect><rect x="235" y="95" width="10" height="10" transform="rotate(0,240,100)"></rect><rect x="235" y="105" width="10" height="10" transform="rotate(0,240,110)"></rect><rect x="235" y="115" width="10" height="10" transform="rotate(0,240,120)"></rect><path d="M 235 125v 10h 10a 10 10, 0, 0, 0, -10 -10" transform="rotate(90,240,130)"></path><path d="M 235 175v 10h 5a 5 5, 0, 0, 0, 0 -10" transform="rotate(180,240,180)"></path><path d="M 235 195v 10h 10a 10 10, 0, 0, 0, -10 -10" transform="rotate(-90,240,200)"></path><rect x="235" y="205" width="10" height="10" transform="rotate(0,240,210)"></rect><rect x="235" y="245" width="10" height="10" transform="rotate(0,240,250)"></rect><path d="M 235 255v 10h 10a 10 10, 0, 0, 0, -10 -10" transform="rotate(90,240,260)"></path><rect x="235" y="285" width="10" height="10" transform="rotate(0,240,290)"></rect><rect x="245" y="95" width="10" height="10" transform="rotate(0,250,100)"></rect><path d="M 245 135v 10h 5a 5 5, 0, 0, 0, 0 -10" transform="rotate(180,250,140)"></path><circle cx="250" cy="160" r="5" transform="rotate(0,250,160)"></circle><rect x="245" y="175" width="10" height="10" transform="rotate(0,250,180)"></rect><rect x="245" y="195" width="10" height="10" transform="rotate(0,250,200)"></rect><rect x="245" y="205" width="10" height="10" transform="rotate(0,250,210)"></rect><rect x="245" y="215" width="10" height="10" transform="rotate(0,250,220)"></rect><rect x="245" y="225" width="10" height="10" transform="rotate(0,250,230)"></rect><rect x="245" y="235" width="10" height="10" transform="rotate(0,250,240)"></rect><rect x="245" y="245" width="10" height="10" transform="rotate(0,250,250)"></rect><path d="M 245 275v 10h 10a 10 10, 0, 0, 0, -10 -10" transform="rotate(-90,250,280)"></path><path d="M 245 285v 10h 10a 10 10, 0, 0, 0, -10 -10" transform="rotate(90,250,290)"></path><rect x="255" y="95" width="10" height="10" transform="rotate(0,260,100)"></rect><path d="M 255 135v 10h 5a 5 5, 0, 0, 0, 0 -10" transform="rotate(0,260,140)"></path><rect x="255" y="175" width="10" height="10" transform="rotate(0,260,180)"></rect><path d="M 255 195v 10h 10a 10 10, 0, 0, 0, -10 -10" transform="rotate(0,260,200)"></path><path d="M 255 205v 10h 10a 10 10, 0, 0, 0, -10 -10" transform="rotate(90,260,210)"></path><path d="M 255 235v 10h 10a 10 10, 0, 0, 0, -10 -10" transform="rotate(0,260,240)"></path><rect x="255" y="245" width="10" height="10" transform="rotate(0,260,250)"></rect><rect x="255" y="255" width="10" height="10" transform="rotate(0,260,260)"></rect><rect x="255" y="265" width="10" height="10" transform="rotate(0,260,270)"></rect><rect x="255" y="275" width="10" height="10" transform="rotate(0,260,280)"></rect><path d="M 265 85v 10h 10a 10 10, 0, 0, 0, -10 -10" transform="rotate(-90,270,90)"></path><rect x="265" y="95" width="10" height="10" transform="rotate(0,270,100)"></rect><path d="M 265 145v 10h 10a 10 10, 0, 0, 0, -10 -10" transform="rotate(-90,270,150)"></path><path d="M 265 155v 10h 5a 5 5, 0, 0, 0, 0 -10" transform="rotate(90,270,160)"></path><path d="M 265 175v 10h 5a 5 5, 0, 0, 0, 0 -10" transform="rotate(0,270,180)"></path><path d="M 265 215v 10h 5a 5 5, 0, 0, 0, 0 -10" transform="rotate(180,270,220)"></path><path d="M 265 245v 10h 5a 5 5, 0, 0, 0, 0 -10" transform="rotate(0,270,250)"></path><path d="M 265 265v 10h 10a 10 10, 0, 0, 0, -10 -10" transform="rotate(0,270,270)"></path><rect x="265" y="275" width="10" height="10" transform="rotate(0,270,280)"></rect><path d="M 265 285v 10h 5a 5 5, 0, 0, 0, 0 -10" transform="rotate(90,270,290)"></path><path d="M 275 85v 10h 10a 10 10, 0, 0, 0, -10 -10" transform="rotate(0,280,90)"></path><rect x="275" y="95" width="10" height="10" transform="rotate(0,280,100)"></rect><rect x="275" y="105" width="10" height="10" transform="rotate(0,280,110)"></rect><path d="M 275 115v 10h 5a 5 5, 0, 0, 0, 0 -10" transform="rotate(90,280,120)"></path><rect x="275" y="145" width="10" height="10" transform="rotate(0,280,150)"></rect><path d="M 275 185v 10h 5a 5 5, 0, 0, 0, 0 -10" transform="rotate(-90,280,190)"></path><rect x="275" y="195" width="10" height="10" transform="rotate(0,280,200)"></rect><rect x="275" y="205" width="10" height="10" transform="rotate(0,280,210)"></rect><rect x="275" y="215" width="10" height="10" transform="rotate(0,280,220)"></rect><path d="M 275 225v 10h 5a 5 5, 0, 0, 0, 0 -10" transform="rotate(90,280,230)"></path><path d="M 285 95v 10h 5a 5 5, 0, 0, 0, 0 -10" transform="rotate(0,290,100)"></path><path d="M 285 135v 10h 5a 5 5, 0, 0, 0, 0 -10" transform="rotate(-90,290,140)"></path><rect x="285" y="145" width="10" height="10" transform="rotate(0,290,150)"></rect><path d="M 285 155v 10h 5a 5 5, 0, 0, 0, 0 -10" transform="rotate(90,290,160)"></path><path d="M 285 205v 10h 5a 5 5, 0, 0, 0, 0 -10" transform="rotate(0,290,210)"></path><path d="M 285 235v 10h 5a 5 5, 0, 0, 0, 0 -10" transform="rotate(-90,290,240)"></path><rect x="285" y="245" width="10" height="10" transform="rotate(0,290,250)"></rect><path d="M 285 255v 10h 5a 5 5, 0, 0, 0, 0 -10" transform="rotate(90,290,260)"></path><circle cx="290" cy="290" r="5" transform="rotate(0,290,290)"></circle></g><g class="corners-square-color-0-0"><path clip-rule="evenodd" d="M 5 30v 20a 25 25, 0, 0, 0, 25 25h 20a 25 25, 0, 0, 0, 25 -25v -20a 25 25, 0, 0, 0, -25 -25h -20a 25 25, 0, 0, 0, -25 25M 30 15h 20a 15 15, 0, 0, 1, 15 15v 20a 15 15, 0, 0, 1, -15 15h -20a 15 15, 0, 0, 1, -15 -15v -20a 15 15, 0, 0, 1, 15 -15" transform="rotate(0,40,40)"></path></g><g class="corners-dot-color-0-0"><circle cx="40" cy="40" r="15" transform="rotate(0,40,40)"></circle></g><g class="corners-square-color-1-0"><path clip-rule="evenodd" d="M 225 30v 20a 25 25, 0, 0, 0, 25 25h 20a 25 25, 0, 0, 0, 25 -25v -20a 25 25, 0, 0, 0, -25 -25h -20a 25 25, 0, 0, 0, -25 25M 250 15h 20a 15 15, 0, 0, 1, 15 15v 20a 15 15, 0, 0, 1, -15 15h -20a 15 15, 0, 0, 1, -15 -15v -20a 15 15, 0, 0, 1, 15 -15" transform="rotate(90,260,40)"></path></g><g class="corners-dot-color-1-0"><circle cx="260" cy="40" r="15" transform="rotate(90,260,40)"></circle></g><g class="corners-square-color-0-1"><path clip-rule="evenodd" d="M 5 250v 20a 25 25, 0, 0, 0, 25 25h 20a 25 25, 0, 0, 0, 25 -25v -20a 25 25, 0, 0, 0, -25 -25h -20a 25 25, 0, 0, 0, -25 25M 30 235h 20a 15 15, 0, 0, 1, 15 15v 20a 15 15, 0, 0, 1, -15 15h -20a 15 15, 0, 0, 1, -15 -15v -20a 15 15, 0, 0, 1, 15 -15" transform="rotate(-90,40,260)"></path></g><g class="corners-dot-color-0-1"><circle cx="40" cy="260" r="15" transform="rotate(-90,40,260)"></circle></g></svg></g><path d="M1608.23 1869H314.55a111.48 111.48 0 0 1-111.36-111.36V463.94a111.49 111.49 0 0 1 111.36-111.36h1293.68a111.48 111.48 0 0 1 111.36 111.36v1293.68A111.48 111.48 0 0 1 1608.23 1869ZM314.55 406.22a57.78 57.78 0 0 0-57.72 57.72v1293.68a57.79 57.79 0 0 0 57.72 57.73h1293.68a57.8 57.8 0 0 0 57.73-57.73V463.94a57.79 57.79 0 0 0-57.73-57.72Z" style="fill: rgb(163, 227, 221);"></path><path class="clse2-2" d="M1441.36 1617c38.74 10 64.66 36.11 78.62 53.13-17.75 11.28-53 29.74-94.23 23.68-44.52-6.54-88.67-40.55-84.25-59.94s58.31-27.64 99.86-16.87ZM1396.79 1518.42c29 7.52 48.38 27 58.82 39.74-13.28 8.45-39.62 22.25-70.49 17.72-33.31-4.89-66.33-30.33-63-44.84s43.59-20.69 74.67-12.62ZM1359.57 1415.11c22 5.69 36.64 20.45 44.54 30.1-10 6.39-30 16.85-53.38 13.41-25.22-3.7-50.23-23-47.73-33.95s33-15.67 56.57-9.56ZM1474.48 1372.41c-11.08 27.27-32.58 43.66-46.33 52.19-6.51-14-16.57-41.49-8.16-71 9.07-31.82 38.13-60.72 51.84-55.63s14.53 45.2 2.65 74.44ZM1550.83 1469.33c-21 29.17-51.23 42.41-70 48.56-3.68-18.52-7.69-54 10.79-86.57 19.94-35.15 62.74-61.06 77.54-51.06s4.19 57.8-18.33 89.07ZM1627.57 1563.24c-27.43 38.09-66.91 55.38-91.43 63.41-4.81-24.19-10.05-70.52 14.08-113.05 26-45.89 81.94-79.73 101.26-66.67s5.52 75.47-23.91 116.31ZM1380.39 1298.09c10.61 26.29 6.71 52 2.9 67.15-13.91-5.35-39.26-17.61-53.2-43.66-15-28.1-14.29-67.56-1.39-73.22s40.3 21.53 51.69 49.73Z"></path><path class="clse2-3" d="m1548.35 1709.97-154.24-314.88 170.45 306.41-16.21 8.47z"></path><path class="clse2-4" d="M1850.09 1748a194.1 194.1 0 0 1-11.43 30.12 186.38 186.38 0 0 1-35.14 50.31 180.64 180.64 0 0 1-21.47 18.71c-40.16 29.7-91.24 41.29-140.61 27.1s-86.49-51.14-104.74-97.63a179.52 179.52 0 0 1-8.27-27.25 186.44 186.44 0 0 1-3-61.3 193.89 193.89 0 0 1 6.3-31.59c.25-.86.51-1.74.78-2.62 12.07-40 40.38-90.29 75.61-133.36q7.37-9 15.1-17.54c16-17.6 33-33.38 50.35-45.94 14.38-10.43 29-18.63 43.35-23.79 18.08-6.5 35.82-8.18 52.33-3.43s30.66 15.59 42.53 30.7c9.44 12 17.45 26.7 24.1 43.18 8 19.84 14.07 42.26 18.27 65.66q2 11.32 3.48 22.88c7 55.2 4.24 112.87-6.76 153.16-.28.84-.53 1.72-.78 2.63Z"></path><path class="clse2-5" d="M1850.09 1748a194.1 194.1 0 0 1-11.43 30.12L1525.38 1688a193.89 193.89 0 0 1 6.3-31.59c.25-.86.51-1.74.78-2.62l318.36 91.52c-.23.9-.48 1.78-.73 2.69ZM1803.52 1828.39a180.64 180.64 0 0 1-21.47 18.71l-245.35-70.53a179.52 179.52 0 0 1-8.27-27.25ZM1835.83 1503.63 1673.52 1457c14.38-10.43 29-18.63 43.35-23.79l94.86 27.27c9.44 11.97 17.45 26.67 24.1 43.15ZM1857.58 1592.17c-.95.73-1.91 1.45-2.88 2.17l-245.35-70.53c-.44-1.12-.87-2.24-1.28-3.36q7.37-9 15.1-17.54l230.93 66.38q2.03 11.32 3.48 22.88Z"></path><path class="clse2-6" d="M1647.85 1714a130.86 130.86 0 0 1 7.15 20.58 126.34 126.34 0 0 1 3.62 41.35 122.74 122.74 0 0 1-3 19c-7.93 32.84-29.39 61-61.15 75.11s-67.06 11-96.71-5.16a121.55 121.55 0 0 1-16.12-10.54 126.46 126.46 0 0 1-28.2-30.46 130.09 130.09 0 0 1-10.44-19.12c-.25-.56-.49-1.12-.74-1.69-11.09-26-18.26-64.36-18.69-102q-.09-7.87.21-15.65a226.39 226.39 0 0 1 6.17-45.69c2.93-11.65 6.94-22.24 12.15-31.16 6.56-11.22 15-19.79 25.65-24.5s22.66-5.23 35.38-2.54c10.11 2.12 20.65 6.27 31.25 11.92a226.48 226.48 0 0 1 38 26.12q6 5 11.74 10.36c27.59 25.6 51.21 56.69 63 82.35Z"></path><path class="clse2-7" d="M1647.85 1714a130.86 130.86 0 0 1 7.15 20.58l-201.57 89.32a130.09 130.09 0 0 1-10.44-19.12c-.25-.56-.49-1.12-.74-1.69l204.84-90.78ZM1658.62 1775.89a122.74 122.74 0 0 1-3 19l-157.86 69.95a121.55 121.55 0 0 1-16.12-10.54ZM1534.37 1593.44l-104.43 46.28c2.93-11.65 6.94-22.24 12.15-31.16l61-27c10.14 2.08 20.68 6.23 31.28 11.88ZM1584.09 1629.92c-.17.79-.36 1.58-.55 2.37l-157.85 70c-.72-.39-1.43-.78-2.13-1.18q-.09-7.87.21-15.65l148.58-65.85q5.97 4.95 11.74 10.31Z"></path><path class="clse2-2" d="M428.17 374.44c-26.71 6.94-44.58 24.9-54.2 36.63 12.23 7.78 36.51 20.51 65 16.33 30.69-4.51 61.13-28 58.08-41.33s-40.24-19.07-68.88-11.63ZM458.89 306.47c-20 5.19-33.35 18.62-40.54 27.4 9.15 5.82 27.31 15.34 48.59 12.21 23-3.37 45.73-20.91 43.45-30.91s-30.07-14.26-51.5-8.7ZM484.55 235.25c-15.13 3.93-25.25 14.1-30.7 20.75 6.93 4.41 20.68 11.62 36.8 9.25 17.39-2.56 34.63-15.84 32.9-23.41s-22.77-10.84-39-6.59ZM405.34 205.82c7.63 18.8 22.45 30.09 31.94 36 4.49-9.67 11.42-28.6 5.62-48.94-6.25-21.94-26.29-41.86-35.74-38.34s-10.01 31.11-1.82 51.28ZM352.7 272.63c14.48 20.11 35.3 29.23 48.3 33.48 2.54-12.77 5.3-37.23-7.43-59.69-13.75-24.22-43.26-42.09-53.46-35.19s-2.93 39.84 12.59 61.4ZM299.8 337.37c18.91 26.26 46.12 38.18 63 43.72 3.31-16.68 6.93-48.62-9.71-77.94-17.95-31.64-56.49-55-69.81-46s-3.76 52.07 16.52 80.22ZM470.2 154.58c-7.31 18.12-4.62 35.87-2 46.29 9.59-3.69 27.07-12.14 36.68-30.1 10.37-19.37 9.85-46.58 1-50.48S478 135.14 470.2 154.58Z"></path><path class="clse2-3" d="m340.72 431.37 120.02-209.92-103.81 218.39-16.21-8.47z"></path><path class="clse2-4" d="M146.39 464.71a134.34 134.34 0 0 0 7.88 20.77 128.66 128.66 0 0 0 24.23 34.68 124.33 124.33 0 0 0 14.8 12.9c27.68 20.47 62.9 28.47 96.93 18.68s59.63-35.25 72.21-67.3a123.25 123.25 0 0 0 5.7-18.79 128.6 128.6 0 0 0 2.11-42.26 132.76 132.76 0 0 0-4.35-21.77c-.17-.6-.35-1.21-.53-1.81-8.33-27.56-27.84-62.25-52.13-91.94q-5.07-6.21-10.41-12.09a230.11 230.11 0 0 0-34.71-31.67c-9.91-7.19-20-12.85-29.88-16.4-12.47-4.48-24.7-5.64-36.08-2.37s-21.16 10.75-29.32 21.17c-6.51 8.27-12 18.41-16.61 29.76a231.13 231.13 0 0 0-12.6 45.27c-.93 5.2-1.73 10.47-2.4 15.77-4.81 38.06-2.92 77.82 4.66 105.59.16.61.33 1.22.5 1.81Z"></path><path class="clse2-5" d="M146.39 464.71a134.34 134.34 0 0 0 7.88 20.77l216-62.09a132.76 132.76 0 0 0-4.35-21.77c-.17-.6-.35-1.21-.53-1.81l-219.5 63.09c.16.61.33 1.22.5 1.81ZM178.5 520.16a124.33 124.33 0 0 0 14.8 12.9l169.14-48.62a123.25 123.25 0 0 0 5.7-18.79ZM156.23 296.27l111.89-32.16c-9.91-7.19-20-12.85-29.88-16.4l-65.4 18.8c-6.51 8.27-12.03 18.41-16.61 29.76ZM141.23 357.31c.66.51 1.32 1 2 1.5l169.14-48.62c.3-.77.6-1.54.88-2.32q-5.07-6.21-10.41-12.09l-159.2 45.76c-.94 5.2-1.74 10.46-2.41 15.77Z"></path><path class="clse2-6" d="M285.82 441.27a90.15 90.15 0 0 0-4.93 14.19 87 87 0 0 0-2.5 28.51 84.06 84.06 0 0 0 2.08 13.11c5.46 22.64 20.26 42.08 42.15 51.78s46.23 7.61 66.67-3.55a84.9 84.9 0 0 0 11.12-7.31 87.2 87.2 0 0 0 19.44-21 90.72 90.72 0 0 0 7.2-13.18c.17-.39.34-.78.5-1.17 7.65-17.91 12.59-44.37 12.89-70.31 0-3.62 0-7.22-.15-10.79a156.17 156.17 0 0 0-4.24-31.49 82.93 82.93 0 0 0-8.38-21.48c-4.52-7.74-10.36-13.65-17.69-16.9s-15.62-3.6-24.39-1.75a82.73 82.73 0 0 0-21.54 8.22 156.51 156.51 0 0 0-26.19 18c-2.74 2.29-5.44 4.68-8.09 7.14-19 17.64-35.3 39.08-43.43 56.77-.18.44-.34.83-.52 1.21Z"></path><path class="clse2-7" d="M285.82 441.27a90.15 90.15 0 0 0-4.93 14.19l139 61.58a90.72 90.72 0 0 0 7.2-13.18c.17-.39.34-.78.5-1.17l-141.25-62.58c-.18.39-.34.78-.52 1.16ZM278.39 484a84.06 84.06 0 0 0 2.08 13.11l108.82 48.23a84.9 84.9 0 0 0 11.12-7.34ZM364.05 358.19l72 31.91a82.93 82.93 0 0 0-8.38-21.48L385.59 350a82.73 82.73 0 0 0-21.54 8.19ZM329.77 383.34c.12.54.25 1.09.38 1.63L439 433.2c.49-.27 1-.54 1.46-.82 0-3.62 0-7.22-.15-10.79L337.86 376.2c-2.74 2.29-5.44 4.68-8.09 7.14Z"></path></g></svg>