<svg xmlns="http://www.w3.org/2000/svg" viewBox="0 0 2000 2000" width="300" height="300" fill="none">
  <g>
    <defs>
      <style>
        .clse6-1{fill:#1b1b36}.clse6-2{fill:#6588c7}.clse6-3{fill:#fcbe5f}
      </style>
    </defs>
    <g transform="translate(440, 400)scale(3.7)" fill="none">
      <svg width="300" height="300">
        <style>
          .background-color{ fill: #fff; }.dot-color{ fill: #0e372d; }.corners-square-color-0-0{ fill: #0e372d; }.corners-dot-color-0-0{ fill: #0e372d; }.corners-square-color-1-0{ fill: #0e372d; }.corners-dot-color-1-0{ fill: #0e372d; }.corners-square-color-0-1{ fill: #0e372d; }.corners-dot-color-0-1{ fill: #0e372d; }
        </style>
        <defs/>
        <g class="dot-color">
          <path d="M 5 105v 10h 5a 5 5, 0, 0, 0, 0 -10" transform="rotate(-90,10,110)"/>
          <rect x="5" y="115" width="10" height="10" transform="rotate(0,10,120)"/>
          <rect x="5" y="125" width="10" height="10" transform="rotate(0,10,130)"/>
          <rect x="5" y="135" width="10" height="10" transform="rotate(0,10,140)"/>
          <rect x="5" y="145" width="10" height="10" transform="rotate(0,10,150)"/>
          <path d="M 5 155v 10h 5a 5 5, 0, 0, 0, 0 -10" transform="rotate(90,10,160)"/>
          <path d="M 5 185v 10h 10a 10 10, 0, 0, 0, -10 -10" transform="rotate(-90,10,190)"/>
          <path d="M 5 195v 10h 5a 5 5, 0, 0, 0, 0 -10" transform="rotate(90,10,200)"/>
          <path d="M 15 95v 10h 5a 5 5, 0, 0, 0, 0 -10" transform="rotate(180,20,100)"/>
          <rect x="15" y="125" width="10" height="10" transform="rotate(0,20,130)"/>
          <rect x="15" y="145" width="10" height="10" transform="rotate(0,20,150)"/>
          <path d="M 15 175v 10h 10a 10 10, 0, 0, 0, -10 -10" transform="rotate(-90,20,180)"/>
          <rect x="15" y="185" width="10" height="10" transform="rotate(0,20,190)"/>
          <circle cx="20" cy="210" r="5" transform="rotate(0,20,210)"/>
          <rect x="25" y="95" width="10" height="10" transform="rotate(0,30,100)"/>
          <path d="M 25 105v 10h 10a 10 10, 0, 0, 0, -10 -10" transform="rotate(180,30,110)"/>
          <path d="M 25 125v 10h 5a 5 5, 0, 0, 0, 0 -10" transform="rotate(0,30,130)"/>
          <rect x="25" y="145" width="10" height="10" transform="rotate(0,30,150)"/>
          <rect x="25" y="155" width="10" height="10" transform="rotate(0,30,160)"/>
          <rect x="25" y="165" width="10" height="10" transform="rotate(0,30,170)"/>
          <rect x="25" y="175" width="10" height="10" transform="rotate(0,30,180)"/>
          <rect x="25" y="185" width="10" height="10" transform="rotate(0,30,190)"/>
          <path d="M 35 85v 10h 5a 5 5, 0, 0, 0, 0 -10" transform="rotate(-90,40,90)"/>
          <rect x="35" y="95" width="10" height="10" transform="rotate(0,40,100)"/>
          <path d="M 35 105v 10h 10a 10 10, 0, 0, 0, -10 -10" transform="rotate(90,40,110)"/>
          <rect x="35" y="145" width="10" height="10" transform="rotate(0,40,150)"/>
          <path d="M 35 175v 10h 10a 10 10, 0, 0, 0, -10 -10" transform="rotate(0,40,180)"/>
          <rect x="35" y="185" width="10" height="10" transform="rotate(0,40,190)"/>
          <path d="M 45 95v 10h 5a 5 5, 0, 0, 0, 0 -10" transform="rotate(0,50,100)"/>
          <path d="M 45 125v 10h 10a 10 10, 0, 0, 0, -10 -10" transform="rotate(-90,50,130)"/>
          <rect x="45" y="135" width="10" height="10" transform="rotate(0,50,140)"/>
          <path d="M 45 145v 10h 10a 10 10, 0, 0, 0, -10 -10" transform="rotate(90,50,150)"/>
          <path d="M 45 185v 10h 5a 5 5, 0, 0, 0, 0 -10" transform="rotate(0,50,190)"/>
          <circle cx="50" cy="210" r="5" transform="rotate(0,50,210)"/>
          <path d="M 55 85v 10h 5a 5 5, 0, 0, 0, 0 -10" transform="rotate(180,60,90)"/>
          <rect x="55" y="125" width="10" height="10" transform="rotate(0,60,130)"/>
          <path d="M 55 135v 10h 10a 10 10, 0, 0, 0, -10 -10" transform="rotate(90,60,140)"/>
          <circle cx="60" cy="180" r="5" transform="rotate(0,60,180)"/>
          <rect x="65" y="85" width="10" height="10" transform="rotate(0,70,90)"/>
          <circle cx="70" cy="110" r="5" transform="rotate(0,70,110)"/>
          <path d="M 65 125v 10h 5a 5 5, 0, 0, 0, 0 -10" transform="rotate(0,70,130)"/>
          <path d="M 65 145v 10h 5a 5 5, 0, 0, 0, 0 -10" transform="rotate(180,70,150)"/>
          <path d="M 65 165v 10h 5a 5 5, 0, 0, 0, 0 -10" transform="rotate(180,70,170)"/>
          <circle cx="70" cy="190" r="5" transform="rotate(0,70,190)"/>
          <circle cx="70" cy="210" r="5" transform="rotate(0,70,210)"/>
          <path d="M 75 85v 10h 5a 5 5, 0, 0, 0, 0 -10" transform="rotate(0,80,90)"/>
          <circle cx="80" cy="120" r="5" transform="rotate(0,80,120)"/>
          <path d="M 75 135v 10h 10a 10 10, 0, 0, 0, -10 -10" transform="rotate(-90,80,140)"/>
          <path d="M 75 145v 10h 10a 10 10, 0, 0, 0, -10 -10" transform="rotate(90,80,150)"/>
          <path d="M 75 165v 10h 5a 5 5, 0, 0, 0, 0 -10" transform="rotate(0,80,170)"/>
          <path d="M 75 195v 10h 5a 5 5, 0, 0, 0, 0 -10" transform="rotate(180,80,200)"/>
          <path d="M 85 15v 10h 10a 10 10, 0, 0, 0, -10 -10" transform="rotate(-90,90,20)"/>
          <path d="M 85 25v 10h 10a 10 10, 0, 0, 0, -10 -10" transform="rotate(180,90,30)"/>
          <circle cx="90" cy="70" r="5" transform="rotate(0,90,70)"/>
          <path d="M 85 135v 10h 5a 5 5, 0, 0, 0, 0 -10" transform="rotate(0,90,140)"/>
          <rect x="85" y="195" width="10" height="10" transform="rotate(0,90,200)"/>
          <path d="M 85 205v 10h 10a 10 10, 0, 0, 0, -10 -10" transform="rotate(180,90,210)"/>
          <path d="M 85 225v 10h 5a 5 5, 0, 0, 0, 0 -10" transform="rotate(-90,90,230)"/>
          <path d="M 85 235v 10h 10a 10 10, 0, 0, 0, -10 -10" transform="rotate(180,90,240)"/>
          <circle cx="90" cy="260" r="5" transform="rotate(0,90,260)"/>
          <path d="M 95 5v 10h 5a 5 5, 0, 0, 0, 0 -10" transform="rotate(-90,100,10)"/>
          <rect x="95" y="15" width="10" height="10" transform="rotate(0,100,20)"/>
          <path d="M 95 25v 10h 10a 10 10, 0, 0, 0, -10 -10" transform="rotate(90,100,30)"/>
          <circle cx="100" cy="50" r="5" transform="rotate(0,100,50)"/>
          <path d="M 95 75v 10h 10a 10 10, 0, 0, 0, -10 -10" transform="rotate(-90,100,80)"/>
          <path d="M 95 85v 10h 5a 5 5, 0, 0, 0, 0 -10" transform="rotate(90,100,90)"/>
          <path d="M 95 105v 10h 5a 5 5, 0, 0, 0, 0 -10" transform="rotate(180,100,110)"/>
          <path d="M 95 125v 10h 5a 5 5, 0, 0, 0, 0 -10" transform="rotate(180,100,130)"/>
          <path d="M 95 145v 10h 10a 10 10, 0, 0, 0, -10 -10" transform="rotate(-90,100,150)"/>
          <rect x="95" y="155" width="10" height="10" transform="rotate(0,100,160)"/>
          <rect x="95" y="165" width="10" height="10" transform="rotate(0,100,170)"/>
          <rect x="95" y="175" width="10" height="10" transform="rotate(0,100,180)"/>
          <rect x="95" y="185" width="10" height="10" transform="rotate(0,100,190)"/>
          <rect x="95" y="195" width="10" height="10" transform="rotate(0,100,200)"/>
          <rect x="95" y="205" width="10" height="10" transform="rotate(0,100,210)"/>
          <path d="M 95 215v 10h 10a 10 10, 0, 0, 0, -10 -10" transform="rotate(180,100,220)"/>
          <rect x="95" y="235" width="10" height="10" transform="rotate(0,100,240)"/>
          <path d="M 95 275v 10h 5a 5 5, 0, 0, 0, 0 -10" transform="rotate(-90,100,280)"/>
          <path d="M 95 285v 10h 10a 10 10, 0, 0, 0, -10 -10" transform="rotate(180,100,290)"/>
          <path d="M 105 15v 10h 5a 5 5, 0, 0, 0, 0 -10" transform="rotate(0,110,20)"/>
          <path d="M 105 65v 10h 5a 5 5, 0, 0, 0, 0 -10" transform="rotate(-90,110,70)"/>
          <path d="M 105 75v 10h 10a 10 10, 0, 0, 0, -10 -10" transform="rotate(90,110,80)"/>
          <rect x="105" y="105" width="10" height="10" transform="rotate(0,110,110)"/>
          <path d="M 105 125v 10h 5a 5 5, 0, 0, 0, 0 -10" transform="rotate(0,110,130)"/>
          <rect x="105" y="145" width="10" height="10" transform="rotate(0,110,150)"/>
          <path d="M 105 155v 10h 10a 10 10, 0, 0, 0, -10 -10" transform="rotate(90,110,160)"/>
          <path d="M 105 175v 10h 5a 5 5, 0, 0, 0, 0 -10" transform="rotate(0,110,180)"/>
          <path d="M 105 195v 10h 5a 5 5, 0, 0, 0, 0 -10" transform="rotate(0,110,200)"/>
          <path d="M 105 215v 10h 5a 5 5, 0, 0, 0, 0 -10" transform="rotate(0,110,220)"/>
          <rect x="105" y="235" width="10" height="10" transform="rotate(0,110,240)"/>
          <path d="M 105 285v 10h 5a 5 5, 0, 0, 0, 0 -10" transform="rotate(0,110,290)"/>
          <path d="M 115 5v 10h 5a 5 5, 0, 0, 0, 0 -10" transform="rotate(180,120,10)"/>
          <path d="M 115 25v 10h 5a 5 5, 0, 0, 0, 0 -10" transform="rotate(-90,120,30)"/>
          <path d="M 115 35v 10h 10a 10 10, 0, 0, 0, -10 -10" transform="rotate(180,120,40)"/>
          <circle cx="120" cy="60" r="5" transform="rotate(0,120,60)"/>
          <path d="M 115 105v 10h 10a 10 10, 0, 0, 0, -10 -10" transform="rotate(0,120,110)"/>
          <path d="M 115 115v 10h 10a 10 10, 0, 0, 0, -10 -10" transform="rotate(180,120,120)"/>
          <rect x="115" y="145" width="10" height="10" transform="rotate(0,120,150)"/>
          <circle cx="120" cy="190" r="5" transform="rotate(0,120,190)"/>
          <path d="M 115 225v 10h 10a 10 10, 0, 0, 0, -10 -10" transform="rotate(-90,120,230)"/>
          <rect x="115" y="235" width="10" height="10" transform="rotate(0,120,240)"/>
          <rect x="115" y="245" width="10" height="10" transform="rotate(0,120,250)"/>
          <path d="M 115 255v 10h 10a 10 10, 0, 0, 0, -10 -10" transform="rotate(180,120,260)"/>
          <rect x="125" y="5" width="10" height="10" transform="rotate(0,130,10)"/>
          <path d="M 125 35v 10h 10a 10 10, 0, 0, 0, -10 -10" transform="rotate(0,130,40)"/>
          <path d="M 125 45v 10h 5a 5 5, 0, 0, 0, 0 -10" transform="rotate(90,130,50)"/>
          <path d="M 125 65v 10h 5a 5 5, 0, 0, 0, 0 -10" transform="rotate(-90,130,70)"/>
          <path d="M 125 75v 10h 10a 10 10, 0, 0, 0, -10 -10" transform="rotate(180,130,80)"/>
          <circle cx="130" cy="100" r="5" transform="rotate(0,130,100)"/>
          <rect x="125" y="115" width="10" height="10" transform="rotate(0,130,120)"/>
          <rect x="125" y="145" width="10" height="10" transform="rotate(0,130,150)"/>
          <rect x="125" y="155" width="10" height="10" transform="rotate(0,130,160)"/>
          <path d="M 125 165v 10h 10a 10 10, 0, 0, 0, -10 -10" transform="rotate(180,130,170)"/>
          <path d="M 125 195v 10h 5a 5 5, 0, 0, 0, 0 -10" transform="rotate(180,130,200)"/>
          <path d="M 125 215v 10h 5a 5 5, 0, 0, 0, 0 -10" transform="rotate(-90,130,220)"/>
          <rect x="125" y="225" width="10" height="10" transform="rotate(0,130,230)"/>
          <rect x="125" y="255" width="10" height="10" transform="rotate(0,130,260)"/>
          <circle cx="130" cy="280" r="5" transform="rotate(0,130,280)"/>
          <rect x="135" y="5" width="10" height="10" transform="rotate(0,140,10)"/>
          <circle cx="140" cy="30" r="5" transform="rotate(0,140,30)"/>
          <path d="M 135 75v 10h 5a 5 5, 0, 0, 0, 0 -10" transform="rotate(0,140,80)"/>
          <rect x="135" y="115" width="10" height="10" transform="rotate(0,140,120)"/>
          <rect x="135" y="145" width="10" height="10" transform="rotate(0,140,150)"/>
          <rect x="135" y="165" width="10" height="10" transform="rotate(0,140,170)"/>
          <rect x="135" y="195" width="10" height="10" transform="rotate(0,140,200)"/>
          <path d="M 135 205v 10h 5a 5 5, 0, 0, 0, 0 -10" transform="rotate(90,140,210)"/>
          <rect x="135" y="225" width="10" height="10" transform="rotate(0,140,230)"/>
          <rect x="135" y="255" width="10" height="10" transform="rotate(0,140,260)"/>
          <path d="M 135 285v 10h 5a 5 5, 0, 0, 0, 0 -10" transform="rotate(180,140,290)"/>
          <rect x="145" y="5" width="10" height="10" transform="rotate(0,150,10)"/>
          <circle cx="150" cy="70" r="5" transform="rotate(0,150,70)"/>
          <rect x="145" y="115" width="10" height="10" transform="rotate(0,150,120)"/>
          <rect x="145" y="125" width="10" height="10" transform="rotate(0,150,130)"/>
          <rect x="145" y="135" width="10" height="10" transform="rotate(0,150,140)"/>
          <rect x="145" y="145" width="10" height="10" transform="rotate(0,150,150)"/>
          <rect x="145" y="155" width="10" height="10" transform="rotate(0,150,160)"/>
          <path d="M 145 165v 10h 10a 10 10, 0, 0, 0, -10 -10" transform="rotate(90,150,170)"/>
          <path d="M 145 195v 10h 5a 5 5, 0, 0, 0, 0 -10" transform="rotate(0,150,200)"/>
          <rect x="145" y="225" width="10" height="10" transform="rotate(0,150,230)"/>
          <rect x="145" y="255" width="10" height="10" transform="rotate(0,150,260)"/>
          <path d="M 145 265v 10h 5a 5 5, 0, 0, 0, 0 -10" transform="rotate(90,150,270)"/>
          <rect x="145" y="285" width="10" height="10" transform="rotate(0,150,290)"/>
          <rect x="155" y="5" width="10" height="10" transform="rotate(0,160,10)"/>
          <circle cx="160" cy="40" r="5" transform="rotate(0,160,40)"/>
          <path d="M 155 75v 10h 5a 5 5, 0, 0, 0, 0 -10" transform="rotate(-90,160,80)"/>
          <rect x="155" y="85" width="10" height="10" transform="rotate(0,160,90)"/>
          <path d="M 155 95v 10h 10a 10 10, 0, 0, 0, -10 -10" transform="rotate(180,160,100)"/>
          <rect x="155" y="115" width="10" height="10" transform="rotate(0,160,120)"/>
          <rect x="155" y="135" width="10" height="10" transform="rotate(0,160,140)"/>
          <rect x="155" y="145" width="10" height="10" transform="rotate(0,160,150)"/>
          <path d="M 155 155v 10h 10a 10 10, 0, 0, 0, -10 -10" transform="rotate(90,160,160)"/>
          <path d="M 155 215v 10h 5a 5 5, 0, 0, 0, 0 -10" transform="rotate(-90,160,220)"/>
          <rect x="155" y="225" width="10" height="10" transform="rotate(0,160,230)"/>
          <path d="M 155 255v 10h 5a 5 5, 0, 0, 0, 0 -10" transform="rotate(0,160,260)"/>
          <path d="M 155 285v 10h 5a 5 5, 0, 0, 0, 0 -10" transform="rotate(0,160,290)"/>
          <path d="M 165 5v 10h 10a 10 10, 0, 0, 0, -10 -10" transform="rotate(0,170,10)"/>
          <path d="M 165 15v 10h 10a 10 10, 0, 0, 0, -10 -10" transform="rotate(180,170,20)"/>
          <circle cx="170" cy="70" r="5" transform="rotate(0,170,70)"/>
          <path d="M 165 85v 10h 10a 10 10, 0, 0, 0, -10 -10" transform="rotate(0,170,90)"/>
          <rect x="165" y="95" width="10" height="10" transform="rotate(0,170,100)"/>
          <rect x="165" y="115" width="10" height="10" transform="rotate(0,170,120)"/>
          <rect x="165" y="125" width="10" height="10" transform="rotate(0,170,130)"/>
          <path d="M 165 135v 10h 10a 10 10, 0, 0, 0, -10 -10" transform="rotate(90,170,140)"/>
          <path d="M 165 165v 10h 10a 10 10, 0, 0, 0, -10 -10" transform="rotate(-90,170,170)"/>
          <rect x="165" y="175" width="10" height="10" transform="rotate(0,170,180)"/>
          <rect x="165" y="185" width="10" height="10" transform="rotate(0,170,190)"/>
          <rect x="165" y="195" width="10" height="10" transform="rotate(0,170,200)"/>
          <path d="M 165 205v 10h 10a 10 10, 0, 0, 0, -10 -10" transform="rotate(180,170,210)"/>
          <path d="M 165 225v 10h 10a 10 10, 0, 0, 0, -10 -10" transform="rotate(0,170,230)"/>
          <rect x="165" y="235" width="10" height="10" transform="rotate(0,170,240)"/>
          <path d="M 165 245v 10h 5a 5 5, 0, 0, 0, 0 -10" transform="rotate(90,170,250)"/>
          <rect x="175" y="15" width="10" height="10" transform="rotate(0,180,20)"/>
          <path d="M 175 35v 10h 5a 5 5, 0, 0, 0, 0 -10" transform="rotate(180,180,40)"/>
          <circle cx="180" cy="80" r="5" transform="rotate(0,180,80)"/>
          <path d="M 175 95v 10h 5a 5 5, 0, 0, 0, 0 -10" transform="rotate(0,180,100)"/>
          <rect x="175" y="115" width="10" height="10" transform="rotate(0,180,120)"/>
          <rect x="175" y="125" width="10" height="10" transform="rotate(0,180,130)"/>
          <rect x="175" y="165" width="10" height="10" transform="rotate(0,180,170)"/>
          <rect x="175" y="195" width="10" height="10" transform="rotate(0,180,200)"/>
          <rect x="175" y="205" width="10" height="10" transform="rotate(0,180,210)"/>
          <path d="M 175 235v 10h 5a 5 5, 0, 0, 0, 0 -10" transform="rotate(0,180,240)"/>
          <path d="M 175 255v 10h 5a 5 5, 0, 0, 0, 0 -10" transform="rotate(-90,180,260)"/>
          <path d="M 175 265v 10h 5a 5 5, 0, 0, 0, 0 -10" transform="rotate(90,180,270)"/>
          <path d="M 175 285v 10h 5a 5 5, 0, 0, 0, 0 -10" transform="rotate(180,180,290)"/>
          <path d="M 185 5v 10h 5a 5 5, 0, 0, 0, 0 -10" transform="rotate(-90,190,10)"/>
          <path d="M 185 15v 10h 10a 10 10, 0, 0, 0, -10 -10" transform="rotate(90,190,20)"/>
          <path d="M 185 35v 10h 5a 5 5, 0, 0, 0, 0 -10" transform="rotate(0,190,40)"/>
          <path d="M 185 55v 10h 10a 10 10, 0, 0, 0, -10 -10" transform="rotate(-90,190,60)"/>
          <path d="M 185 65v 10h 5a 5 5, 0, 0, 0, 0 -10" transform="rotate(90,190,70)"/>
          <path d="M 185 115v 10h 10a 10 10, 0, 0, 0, -10 -10" transform="rotate(0,190,120)"/>
          <path d="M 185 125v 10h 10a 10 10, 0, 0, 0, -10 -10" transform="rotate(90,190,130)"/>
          <path d="M 185 145v 10h 5a 5 5, 0, 0, 0, 0 -10" transform="rotate(180,190,150)"/>
          <rect x="185" y="165" width="10" height="10" transform="rotate(0,190,170)"/>
          <path d="M 185 175v 10h 5a 5 5, 0, 0, 0, 0 -10" transform="rotate(90,190,180)"/>
          <rect x="185" y="195" width="10" height="10" transform="rotate(0,190,200)"/>
          <rect x="185" y="205" width="10" height="10" transform="rotate(0,190,210)"/>
          <path d="M 185 285v 10h 5a 5 5, 0, 0, 0, 0 -10" transform="rotate(0,190,290)"/>
          <circle cx="200" cy="30" r="5" transform="rotate(0,200,30)"/>
          <path d="M 195 45v 10h 10a 10 10, 0, 0, 0, -10 -10" transform="rotate(-90,200,50)"/>
          <path d="M 195 55v 10h 10a 10 10, 0, 0, 0, -10 -10" transform="rotate(90,200,60)"/>
          <path d="M 195 85v 10h 5a 5 5, 0, 0, 0, 0 -10" transform="rotate(180,200,90)"/>
          <circle cx="200" cy="110" r="5" transform="rotate(0,200,110)"/>
          <path d="M 195 135v 10h 10a 10 10, 0, 0, 0, -10 -10" transform="rotate(-90,200,140)"/>
          <rect x="195" y="145" width="10" height="10" transform="rotate(0,200,150)"/>
          <rect x="195" y="155" width="10" height="10" transform="rotate(0,200,160)"/>
          <path d="M 195 165v 10h 10a 10 10, 0, 0, 0, -10 -10" transform="rotate(90,200,170)"/>
          <path d="M 195 185v 10h 10a 10 10, 0, 0, 0, -10 -10" transform="rotate(-90,200,190)"/>
          <rect x="195" y="195" width="10" height="10" transform="rotate(0,200,200)"/>
          <rect x="195" y="205" width="10" height="10" transform="rotate(0,200,210)"/>
          <rect x="195" y="215" width="10" height="10" transform="rotate(0,200,220)"/>
          <rect x="195" y="225" width="10" height="10" transform="rotate(0,200,230)"/>
          <rect x="195" y="235" width="10" height="10" transform="rotate(0,200,240)"/>
          <rect x="195" y="245" width="10" height="10" transform="rotate(0,200,250)"/>
          <path d="M 195 255v 10h 10a 10 10, 0, 0, 0, -10 -10" transform="rotate(180,200,260)"/>
          <circle cx="200" cy="280" r="5" transform="rotate(0,200,280)"/>
          <path d="M 205 5v 10h 5a 5 5, 0, 0, 0, 0 -10" transform="rotate(-90,210,10)"/>
          <path d="M 205 15v 10h 5a 5 5, 0, 0, 0, 0 -10" transform="rotate(90,210,20)"/>
          <path d="M 205 45v 10h 5a 5 5, 0, 0, 0, 0 -10" transform="rotate(0,210,50)"/>
          <circle cx="210" cy="70" r="5" transform="rotate(0,210,70)"/>
          <rect x="205" y="85" width="10" height="10" transform="rotate(0,210,90)"/>
          <path d="M 205 125v 10h 10a 10 10, 0, 0, 0, -10 -10" transform="rotate(-90,210,130)"/>
          <rect x="205" y="135" width="10" height="10" transform="rotate(0,210,140)"/>
          <rect x="205" y="145" width="10" height="10" transform="rotate(0,210,150)"/>
          <path d="M 205 185v 10h 10a 10 10, 0, 0, 0, -10 -10" transform="rotate(0,210,190)"/>
          <rect x="205" y="195" width="10" height="10" transform="rotate(0,210,200)"/>
          <rect x="205" y="205" width="10" height="10" transform="rotate(0,210,210)"/>
          <rect x="205" y="215" width="10" height="10" transform="rotate(0,210,220)"/>
          <rect x="205" y="225" width="10" height="10" transform="rotate(0,210,230)"/>
          <rect x="205" y="235" width="10" height="10" transform="rotate(0,210,240)"/>
          <rect x="205" y="245" width="10" height="10" transform="rotate(0,210,250)"/>
          <rect x="205" y="255" width="10" height="10" transform="rotate(0,210,260)"/>
          <path d="M 215 85v 10h 5a 5 5, 0, 0, 0, 0 -10" transform="rotate(0,220,90)"/>
          <circle cx="220" cy="110" r="5" transform="rotate(0,220,110)"/>
          <rect x="215" y="125" width="10" height="10" transform="rotate(0,220,130)"/>
          <rect x="215" y="135" width="10" height="10" transform="rotate(0,220,140)"/>
          <rect x="215" y="145" width="10" height="10" transform="rotate(0,220,150)"/>
          <rect x="215" y="155" width="10" height="10" transform="rotate(0,220,160)"/>
          <rect x="215" y="165" width="10" height="10" transform="rotate(0,220,170)"/>
          <path d="M 215 175v 10h 5a 5 5, 0, 0, 0, 0 -10" transform="rotate(90,220,180)"/>
          <path d="M 215 195v 10h 10a 10 10, 0, 0, 0, -10 -10" transform="rotate(0,220,200)"/>
          <rect x="215" y="205" width="10" height="10" transform="rotate(0,220,210)"/>
          <rect x="215" y="245" width="10" height="10" transform="rotate(0,220,250)"/>
          <rect x="215" y="255" width="10" height="10" transform="rotate(0,220,260)"/>
          <path d="M 215 285v 10h 5a 5 5, 0, 0, 0, 0 -10" transform="rotate(180,220,290)"/>
          <path d="M 225 95v 10h 5a 5 5, 0, 0, 0, 0 -10" transform="rotate(180,230,100)"/>
          <rect x="225" y="125" width="10" height="10" transform="rotate(0,230,130)"/>
          <rect x="225" y="135" width="10" height="10" transform="rotate(0,230,140)"/>
          <rect x="225" y="145" width="10" height="10" transform="rotate(0,230,150)"/>
          <path d="M 225 155v 10h 10a 10 10, 0, 0, 0, -10 -10" transform="rotate(90,230,160)"/>
          <rect x="225" y="205" width="10" height="10" transform="rotate(0,230,210)"/>
          <circle cx="230" cy="230" r="5" transform="rotate(0,230,230)"/>
          <rect x="225" y="245" width="10" height="10" transform="rotate(0,230,250)"/>
          <rect x="225" y="255" width="10" height="10" transform="rotate(0,230,260)"/>
          <rect x="225" y="265" width="10" height="10" transform="rotate(0,230,270)"/>
          <rect x="225" y="275" width="10" height="10" transform="rotate(0,230,280)"/>
          <rect x="225" y="285" width="10" height="10" transform="rotate(0,230,290)"/>
          <rect x="235" y="95" width="10" height="10" transform="rotate(0,240,100)"/>
          <rect x="235" y="105" width="10" height="10" transform="rotate(0,240,110)"/>
          <rect x="235" y="115" width="10" height="10" transform="rotate(0,240,120)"/>
          <path d="M 235 125v 10h 10a 10 10, 0, 0, 0, -10 -10" transform="rotate(90,240,130)"/>
          <path d="M 235 175v 10h 5a 5 5, 0, 0, 0, 0 -10" transform="rotate(180,240,180)"/>
          <path d="M 235 195v 10h 10a 10 10, 0, 0, 0, -10 -10" transform="rotate(-90,240,200)"/>
          <rect x="235" y="205" width="10" height="10" transform="rotate(0,240,210)"/>
          <rect x="235" y="245" width="10" height="10" transform="rotate(0,240,250)"/>
          <path d="M 235 255v 10h 10a 10 10, 0, 0, 0, -10 -10" transform="rotate(90,240,260)"/>
          <rect x="235" y="285" width="10" height="10" transform="rotate(0,240,290)"/>
          <rect x="245" y="95" width="10" height="10" transform="rotate(0,250,100)"/>
          <path d="M 245 135v 10h 5a 5 5, 0, 0, 0, 0 -10" transform="rotate(180,250,140)"/>
          <circle cx="250" cy="160" r="5" transform="rotate(0,250,160)"/>
          <rect x="245" y="175" width="10" height="10" transform="rotate(0,250,180)"/>
          <rect x="245" y="195" width="10" height="10" transform="rotate(0,250,200)"/>
          <rect x="245" y="205" width="10" height="10" transform="rotate(0,250,210)"/>
          <rect x="245" y="215" width="10" height="10" transform="rotate(0,250,220)"/>
          <rect x="245" y="225" width="10" height="10" transform="rotate(0,250,230)"/>
          <rect x="245" y="235" width="10" height="10" transform="rotate(0,250,240)"/>
          <rect x="245" y="245" width="10" height="10" transform="rotate(0,250,250)"/>
          <path d="M 245 275v 10h 10a 10 10, 0, 0, 0, -10 -10" transform="rotate(-90,250,280)"/>
          <path d="M 245 285v 10h 10a 10 10, 0, 0, 0, -10 -10" transform="rotate(90,250,290)"/>
          <rect x="255" y="95" width="10" height="10" transform="rotate(0,260,100)"/>
          <path d="M 255 135v 10h 5a 5 5, 0, 0, 0, 0 -10" transform="rotate(0,260,140)"/>
          <rect x="255" y="175" width="10" height="10" transform="rotate(0,260,180)"/>
          <path d="M 255 195v 10h 10a 10 10, 0, 0, 0, -10 -10" transform="rotate(0,260,200)"/>
          <path d="M 255 205v 10h 10a 10 10, 0, 0, 0, -10 -10" transform="rotate(90,260,210)"/>
          <path d="M 255 235v 10h 10a 10 10, 0, 0, 0, -10 -10" transform="rotate(0,260,240)"/>
          <rect x="255" y="245" width="10" height="10" transform="rotate(0,260,250)"/>
          <rect x="255" y="255" width="10" height="10" transform="rotate(0,260,260)"/>
          <rect x="255" y="265" width="10" height="10" transform="rotate(0,260,270)"/>
          <rect x="255" y="275" width="10" height="10" transform="rotate(0,260,280)"/>
          <path d="M 265 85v 10h 10a 10 10, 0, 0, 0, -10 -10" transform="rotate(-90,270,90)"/>
          <rect x="265" y="95" width="10" height="10" transform="rotate(0,270,100)"/>
          <path d="M 265 145v 10h 10a 10 10, 0, 0, 0, -10 -10" transform="rotate(-90,270,150)"/>
          <path d="M 265 155v 10h 5a 5 5, 0, 0, 0, 0 -10" transform="rotate(90,270,160)"/>
          <path d="M 265 175v 10h 5a 5 5, 0, 0, 0, 0 -10" transform="rotate(0,270,180)"/>
          <path d="M 265 215v 10h 5a 5 5, 0, 0, 0, 0 -10" transform="rotate(180,270,220)"/>
          <path d="M 265 245v 10h 5a 5 5, 0, 0, 0, 0 -10" transform="rotate(0,270,250)"/>
          <path d="M 265 265v 10h 10a 10 10, 0, 0, 0, -10 -10" transform="rotate(0,270,270)"/>
          <rect x="265" y="275" width="10" height="10" transform="rotate(0,270,280)"/>
          <path d="M 265 285v 10h 5a 5 5, 0, 0, 0, 0 -10" transform="rotate(90,270,290)"/>
          <path d="M 275 85v 10h 10a 10 10, 0, 0, 0, -10 -10" transform="rotate(0,280,90)"/>
          <rect x="275" y="95" width="10" height="10" transform="rotate(0,280,100)"/>
          <rect x="275" y="105" width="10" height="10" transform="rotate(0,280,110)"/>
          <path d="M 275 115v 10h 5a 5 5, 0, 0, 0, 0 -10" transform="rotate(90,280,120)"/>
          <rect x="275" y="145" width="10" height="10" transform="rotate(0,280,150)"/>
          <path d="M 275 185v 10h 5a 5 5, 0, 0, 0, 0 -10" transform="rotate(-90,280,190)"/>
          <rect x="275" y="195" width="10" height="10" transform="rotate(0,280,200)"/>
          <rect x="275" y="205" width="10" height="10" transform="rotate(0,280,210)"/>
          <rect x="275" y="215" width="10" height="10" transform="rotate(0,280,220)"/>
          <path d="M 275 225v 10h 5a 5 5, 0, 0, 0, 0 -10" transform="rotate(90,280,230)"/>
          <path d="M 285 95v 10h 5a 5 5, 0, 0, 0, 0 -10" transform="rotate(0,290,100)"/>
          <path d="M 285 135v 10h 5a 5 5, 0, 0, 0, 0 -10" transform="rotate(-90,290,140)"/>
          <rect x="285" y="145" width="10" height="10" transform="rotate(0,290,150)"/>
          <path d="M 285 155v 10h 5a 5 5, 0, 0, 0, 0 -10" transform="rotate(90,290,160)"/>
          <path d="M 285 205v 10h 5a 5 5, 0, 0, 0, 0 -10" transform="rotate(0,290,210)"/>
          <path d="M 285 235v 10h 5a 5 5, 0, 0, 0, 0 -10" transform="rotate(-90,290,240)"/>
          <rect x="285" y="245" width="10" height="10" transform="rotate(0,290,250)"/>
          <path d="M 285 255v 10h 5a 5 5, 0, 0, 0, 0 -10" transform="rotate(90,290,260)"/>
          <circle cx="290" cy="290" r="5" transform="rotate(0,290,290)"/>
        </g>
        <g class="corners-square-color-0-0">
          <path clip-rule="evenodd" d="M 5 30v 20a 25 25, 0, 0, 0, 25 25h 20a 25 25, 0, 0, 0, 25 -25v -20a 25 25, 0, 0, 0, -25 -25h -20a 25 25, 0, 0, 0, -25 25M 30 15h 20a 15 15, 0, 0, 1, 15 15v 20a 15 15, 0, 0, 1, -15 15h -20a 15 15, 0, 0, 1, -15 -15v -20a 15 15, 0, 0, 1, 15 -15" transform="rotate(0,40,40)"/>
        </g>
        <g class="corners-dot-color-0-0">
          <circle cx="40" cy="40" r="15" transform="rotate(0,40,40)"/>
        </g>
        <g class="corners-square-color-1-0">
          <path clip-rule="evenodd" d="M 225 30v 20a 25 25, 0, 0, 0, 25 25h 20a 25 25, 0, 0, 0, 25 -25v -20a 25 25, 0, 0, 0, -25 -25h -20a 25 25, 0, 0, 0, -25 25M 250 15h 20a 15 15, 0, 0, 1, 15 15v 20a 15 15, 0, 0, 1, -15 15h -20a 15 15, 0, 0, 1, -15 -15v -20a 15 15, 0, 0, 1, 15 -15" transform="rotate(90,260,40)"/>
        </g>
        <g class="corners-dot-color-1-0">
          <circle cx="260" cy="40" r="15" transform="rotate(90,260,40)"/>
        </g>
        <g class="corners-square-color-0-1">
          <path clip-rule="evenodd" d="M 5 250v 20a 25 25, 0, 0, 0, 25 25h 20a 25 25, 0, 0, 0, 25 -25v -20a 25 25, 0, 0, 0, -25 -25h -20a 25 25, 0, 0, 0, -25 25M 30 235h 20a 15 15, 0, 0, 1, 15 15v 20a 15 15, 0, 0, 1, -15 15h -20a 15 15, 0, 0, 1, -15 -15v -20a 15 15, 0, 0, 1, 15 -15" transform="rotate(-90,40,260)"/>
        </g>
        <g class="corners-dot-color-0-1">
          <circle cx="40" cy="260" r="15" transform="rotate(-90,40,260)"/>
        </g>
      </svg>
    </g>
    <path class="clse6-1" d="M1668.47 1770.45H369.63a122.34 122.34 0 0 1-122.2-122.2V349.41a122.34 122.34 0 0 1 122.2-122.2h1298.84a122.33 122.33 0 0 1 122.19 122.2v1298.84a122.33 122.33 0 0 1-122.19 122.2ZM369.63 271.21a78.29 78.29 0 0 0-78.2 78.2v1298.84a78.29 78.29 0 0 0 78.2 78.2h1298.84a78.28 78.28 0 0 0 78.19-78.2V349.41a78.28 78.28 0 0 0-78.19-78.2Z"/>
    <path class="clse6-2" d="M1862 1414.35c-25 21.45-33.15 48.17-35.92 62a6.38 6.38 0 0 0 6.55 7.61c14.12-.65 41.77-4.75 66.72-26.2s33.15-48.17 35.92-62a6.38 6.38 0 0 0-6.55-7.61c-14.12.65-41.72 4.75-66.72 26.2Z"/>
    <path class="clse6-3" d="M1827.4 1408.88c-12.55 30.41-7.79 57.95-4 71.57a6.38 6.38 0 0 0 9.28 3.83c12.3-7 35.1-23.13 47.66-53.54s7.79-58 4-71.57a6.37 6.37 0 0 0-9.28-3.83c-12.3 6.96-35.06 23.13-47.66 53.54Z"/>
    <path class="clse6-3" d="M1807.94 1411.89c21.39 25 25.42 52.66 26 66.78a6.38 6.38 0 0 1-7.63 6.53c-13.86-2.8-40.56-11.07-61.95-36.07s-25.42-52.66-26-66.78a6.38 6.38 0 0 1 7.63-6.53c13.86 2.8 40.56 11.07 61.95 36.07Z"/>
    <path class="clse6-2" d="M1762.93 1565.79a68.61 68.61 0 0 0 25.55 36.45 4 4 0 0 0 6-1.7 67.52 67.52 0 0 0-22.86-80.88 4 4 0 0 0-6 1.7 68.62 68.62 0 0 0-2.69 44.43Z"/>
    <path class="clse6-2" d="M1818.52 1577.8a55.78 55.78 0 0 0-28.87 21.82 3.22 3.22 0 0 0 1.55 4.83 54.93 54.93 0 0 0 65.06-20.94 3.22 3.22 0 0 0-1.55-4.83 55.86 55.86 0 0 0-36.19-.88Z"/>
    <path class="clse6-2" d="M1719.09 1753.45a5 5 0 0 1-5-4.7c-1.86-31 3.2-59.45 15-84.56 11.93-25.31 27.33-40 42.22-54.3 14-13.41 27.25-26.08 37.51-47.1 13.05-26.74 16.8-58.89 11.13-95.55a5 5 0 0 1 9.89-1.52c6 38.71 1.93 72.85-12 101.46-11 22.62-25.54 36.5-39.57 49.93-14.89 14.25-29 27.71-40.1 51.35s-15.85 50.38-14.1 79.69a5 5 0 0 1-4.69 5.29Z"/>
    <path class="clse6-1" d="M1789.67 1420.55c5.18 32.49 23.62 53.49 34 63.11a6.38 6.38 0 0 0 9.92-1.58c6.85-12.37 17.85-38.06 12.67-70.55s-23.62-53.49-34-63.12a6.39 6.39 0 0 0-9.92 1.58c-6.85 12.37-17.85 38.06-12.67 70.56ZM1549.78 1209.54c34.79 36.29 43.33 78.12 45.49 99.61a9.75 9.75 0 0 1-11.08 10.62c-21.38-3.07-62.81-13.38-97.59-49.67s-43.33-78.12-45.49-99.61a9.75 9.75 0 0 1 11.08-10.62c21.37 3.07 62.81 13.38 97.59 49.67Z"/>
    <path class="clse6-3" d="M1603.2 1206.3c14.62 48.1 3.32 89.28-4.47 109.42a9.75 9.75 0 0 1-14.68 4.46c-17.68-12.4-50-40.33-64.59-88.43s-3.32-89.27 4.47-109.41a9.74 9.74 0 0 1 14.68-4.46c17.68 12.4 49.97 40.33 64.59 88.42Z"/>
    <path class="clse6-1" d="M1632.35 1213.74c-36.2 34.88-46.4 76.34-49.42 97.72a9.75 9.75 0 0 0 10.65 11c21.48-2.21 63.29-10.86 99.5-45.73s46.4-76.34 49.42-97.72a9.75 9.75 0 0 0-10.65-11c-21.48 2.21-63.3 10.86-99.5 45.73Z"/>
    <path class="clse6-2" d="M1658.86 1229.6c-12.65 48.64-43.79 77.86-61 91a9.76 9.76 0 0 1-14.85-3.87c-8.59-19.81-21.55-60.5-8.89-109.14s43.8-77.86 61-91a9.75 9.75 0 0 1 14.85 3.86c8.6 19.81 21.55 60.55 8.89 109.15ZM1678.14 1454.38c-11.34 29.08-32.67 44.84-44.2 51.67a6.06 6.06 0 0 1-8.88-3.46c-3.86-12.84-8.89-38.88 2.45-68s32.67-44.83 44.21-51.67a6 6 0 0 1 8.87 3.47c3.87 12.88 8.9 38.91-2.45 67.99Z"/>
    <path class="clse6-2" d="M1591.85 1464.46a85.22 85.22 0 0 1 40.69 37.44 4.92 4.92 0 0 1-3.07 7.11 83.91 83.91 0 0 1-95.85-41.41 4.93 4.93 0 0 1 3.08-7.11 85.22 85.22 0 0 1 55.15 3.97Z"/>
    <path class="clse6-2" d="M1717.94 1743.09a4.14 4.14 0 0 1-.7-.06 4.49 4.49 0 0 1-3.75-5.14c7.06-44.84 3.75-86.83-9.86-124.8-13.67-38.13-34.16-61.94-54-85-19.18-22.27-39-45.31-52.27-80.8-16.8-45-17.9-96.82-3.27-154.18a4.5 4.5 0 1 1 8.72 2.22c-14.17 55.55-13.16 105.62 3 148.81 12.69 34 31.14 55.41 50.66 78.08 20.36 23.65 41.41 48.1 55.64 87.8 14.12 39.41 17.58 82.9 10.28 129.24a4.5 4.5 0 0 1-4.45 3.83Z"/>
    <path class="clse6-1" d="M1640.3 1555.73c13.33 12.46 17.72 28 19.19 36a3.61 3.61 0 0 1-3.5 4.42 56.28 56.28 0 0 1-35.65-15.23c-13.34-12.46-17.72-28-19.2-36a3.62 3.62 0 0 1 3.5-4.42 56.28 56.28 0 0 1 35.66 15.23Z"/>
    <path class="clse6-2" d="M1658.79 1552.55a69.53 69.53 0 0 1 2.13 41.59 3.33 3.33 0 0 1-5 2.22 62.39 62.39 0 0 1-25.47-31.11 69.45 69.45 0 0 1-2.13-41.59 3.34 3.34 0 0 1 5-2.23 62.47 62.47 0 0 1 25.47 31.12Z"/>
    <path class="clse6-3" d="M1669.19 1554.3c-11.43 14.53-13.58 30.6-13.91 38.81a3.51 3.51 0 0 0 4.07 3.79 58 58 0 0 0 33.11-21c11.43-14.53 13.59-30.6 13.92-38.81a3.51 3.51 0 0 0-4.08-3.79 58 58 0 0 0-33.11 21Z"/>
    <path class="clse6-2" d="M1693.24 1643.73a39.84 39.84 0 0 1-13.65 21.18 2 2 0 0 1-3.21-1 43.19 43.19 0 0 1-1.43-25.82 39.84 39.84 0 0 1 13.65-21.19 2 2 0 0 1 3.21 1 43.1 43.1 0 0 1 1.43 25.83Z"/>
    <path class="clse6-2" d="M1663.53 1650.71a30.29 30.29 0 0 1 15.44 12.68 2 2 0 0 1-.83 2.8 27.52 27.52 0 0 1-19.34.52 30.4 30.4 0 0 1-15.43-12.68 1.94 1.94 0 0 1 .83-2.81 27.56 27.56 0 0 1 19.33-.51Z"/>
    <path class="clse6-2" d="M1716.66 1753.15h-.17a3 3 0 0 1-2.83-3.16c.94-17.06-1.6-32.66-7.54-46.37s-13.46-21.54-21.41-29.81c-7.5-7.81-15.27-15.89-21.17-29-7.46-16.61-9.62-36.42-6.43-58.9a3 3 0 0 1 6 .85c-3 21.33-1 40 6 55.59 5.48 12.2 12.55 19.56 20 27.34 8 8.29 16.2 16.87 22.58 31.58s9 31.09 8 49.09a3 3 0 0 1-3.03 2.79Z"/>
    <path class="clse6-1" d="M1679 1559.33a65.74 65.74 0 0 1-18.17 36.67 3.26 3.26 0 0 1-5.3-.92 68.89 68.89 0 0 1-6.77-41 65.81 65.81 0 0 1 18.16-36.68 3.26 3.26 0 0 1 5.3.92 68.93 68.93 0 0 1 6.78 41.01ZM165.33 1334.53c27.43 25.65 36.46 57.6 39.49 74.18.89 4.86-2.65 9.34-7.2 9.11a115.86 115.86 0 0 1-73.37-31.34c-27.44-25.65-36.46-57.6-39.5-74.18-.89-4.86 2.65-9.34 7.2-9.11a115.9 115.9 0 0 1 73.38 31.34Z"/>
    <path class="clse6-2" d="M203.38 1328c13.8 36.37 8.56 69.31 4.38 85.59-1.23 4.77-6.25 7-10.21 4.58a128.5 128.5 0 0 1-52.42-64c-13.8-36.37-8.56-69.31-4.38-85.59 1.23-4.77 6.25-7 10.21-4.58a128.5 128.5 0 0 1 52.42 64Z"/>
    <path class="clse6-3" d="M224.78 1331.58c-23.52 29.9-28 63-28.64 79.87-.19 4.94 3.94 8.78 8.4 7.8a119.27 119.27 0 0 0 68.12-43.13c23.53-29.9 28-63 28.64-79.87.2-4.94-3.93-8.78-8.39-7.8a119.29 119.29 0 0 0-68.13 43.13Z"/>
    <path class="clse6-2" d="M274.28 1515.62a81.94 81.94 0 0 1-28.1 43.59 4.2 4.2 0 0 1-6.6-2 88.63 88.63 0 0 1-3-53.13 82 82 0 0 1 28.09-43.59 4.21 4.21 0 0 1 6.6 2 88.7 88.7 0 0 1 3.01 53.13Z"/>
    <path class="clse6-2" d="M213.14 1530c17.39 6.09 27.35 19 31.76 26.1a4 4 0 0 1-1.71 5.77 56.73 56.73 0 0 1-39.8 1.06c-17.39-6.08-27.35-19-31.75-26.1a4 4 0 0 1 1.71-5.77 56.7 56.7 0 0 1 39.79-1.06Z"/>
    <path class="clse6-2" d="M322.46 1737.63h-.16a3 3 0 0 1-2.83-3.16c1.95-35.59-3.35-68.18-15.79-96.85s-28.84-45.81-44.67-62.28c-15.26-15.88-31-32.31-43-58.87-15.1-33.62-19.46-73.81-13-119.45a3 3 0 1 1 5.94.85c-6.32 44.5-2.11 83.57 12.51 116.15 11.5 25.61 26.22 40.93 41.81 57.16 16.2 16.86 32.95 34.29 45.86 64.06 12.8 29.53 18.28 63 16.27 99.56a3 3 0 0 1-2.94 2.83Z"/>
    <path class="clse6-1" d="M244.88 1341.94a135.42 135.42 0 0 1-37.38 75.47 6.7 6.7 0 0 1-10.9-1.89 141.83 141.83 0 0 1-13.95-84.37 135.42 135.42 0 0 1 37.35-75.47 6.71 6.71 0 0 1 10.91 1.89 141.92 141.92 0 0 1 13.97 84.37ZM464.32 1752h-.24a2 2 0 0 1-1.75-2.22l7.3-62.19a2 2 0 0 1 4 .47l-7.3 62.19a2 2 0 0 1-2.01 1.75ZM496.73 1752.78a2 2 0 0 1-2-1.74l-8.29-63.69a2 2 0 1 1 4-.51l8.29 63.69a2 2 0 0 1-1.73 2.24ZM584.11 1526.1l30.41 10.31-20.34 17.38a40.47 40.47 0 0 1-7-10.19 32.91 32.91 0 0 1-3.07-17.5Z"/>
    <path class="clse6-3" d="M599.23 1574.66a145.37 145.37 0 0 1-286.81 33.56c12.33 1.29 21.7-.61 28.68-3.19 56.62-20.85 41.31-119.42 109.33-151.84 32.09-15.31 62.75-7.08 62.75-7.08a100 100 0 0 1 18.91 7.15c43.27 21.62 57.65 68.52 60.72 78.53a159 159 0 0 1 6.42 42.87Z"/>
    <path class="clse6-1" d="M596.79 1601.33a145.46 145.46 0 0 1-125.14 117.61 86 86 0 1 1 125.14-117.61Z"/>
    <circle class="clse6-1" cx="539.23" cy="1521.99" r="18.08"/>
    <path class="clse6-1" d="M364.35 1644a63.38 63.38 0 0 1-8.12-.5 2 2 0 0 1 .51-4c7.36 1 26.36 1.76 43.76-11.24a60.34 60.34 0 0 0 21.24-30.42 2 2 0 0 1 3.83 1.17 63 63 0 0 1-61.22 45Z"/>
  </g>
</svg>
