<svg fill="none" xmlns="http://www.w3.org/2000/svg" width="300" height="300" viewBox="0 0 2000 2000">
  <g>
    <defs>
      <style>
        .cls1-2{fill:#e98ead}
      </style>
    </defs>
    <g transform="translate(680, 580)scale(2.2)" fill="none">
      <svg width="300" height="300" viewBox="0 0 300 300">
        <style>
          .background-color{ fill: #fff; }.dot-color{ fill: #0e372d; }.corners-square-color-0-0{ fill: #0e372d; }.corners-dot-color-0-0{ fill: #0e372d; }.corners-square-color-1-0{ fill: #0e372d; }.corners-dot-color-1-0{ fill: #0e372d; }.corners-square-color-0-1{ fill: #0e372d; }.corners-dot-color-0-1{ fill: #0e372d; }
        </style>
        <defs/>
        <g transform="translate(7.758620689655146,7.758620689655146)">
          <rect x="0" y="0" width="284.4827586206897" height="284.4827586206897" fill="#ffffff"/>
          <rect x="0.0" y="0.0" width="8.620689655172415" height="8.620689655172415" fill="#0e372d"/>
          <rect x="8.620689655172415" y="0.0" width="8.620689655172415" height="8.620689655172415" fill="#0e372d"/>
          <rect x="17.24137931034483" y="0.0" width="8.620689655172415" height="8.620689655172415" fill="#0e372d"/>
          <rect x="25.862068965517246" y="0.0" width="8.620689655172415" height="8.620689655172415" fill="#0e372d"/>
          <rect x="34.48275862068966" y="0.0" width="8.620689655172415" height="8.620689655172415" fill="#0e372d"/>
          <rect x="43.10344827586207" y="0.0" width="8.620689655172415" height="8.620689655172415" fill="#0e372d"/>
          <rect x="51.72413793103449" y="0.0" width="8.620689655172415" height="8.620689655172415" fill="#0e372d"/>
          <rect x="94.82758620689656" y="0.0" width="8.620689655172415" height="8.620689655172415" fill="#0e372d"/>
          <rect x="120.68965517241381" y="0.0" width="8.620689655172415" height="8.620689655172415" fill="#0e372d"/>
          <rect x="155.17241379310346" y="0.0" width="8.620689655172415" height="8.620689655172415" fill="#0e372d"/>
          <rect x="163.79310344827587" y="0.0" width="8.620689655172415" height="8.620689655172415" fill="#0e372d"/>
          <rect x="181.0344827586207" y="0.0" width="8.620689655172415" height="8.620689655172415" fill="#0e372d"/>
          <rect x="189.6551724137931" y="0.0" width="8.620689655172415" height="8.620689655172415" fill="#0e372d"/>
          <rect x="198.27586206896552" y="0.0" width="8.620689655172415" height="8.620689655172415" fill="#0e372d"/>
          <rect x="224.1379310344828" y="0.0" width="8.620689655172415" height="8.620689655172415" fill="#0e372d"/>
          <rect x="232.7586206896552" y="0.0" width="8.620689655172415" height="8.620689655172415" fill="#0e372d"/>
          <rect x="241.37931034482762" y="0.0" width="8.620689655172415" height="8.620689655172415" fill="#0e372d"/>
          <rect x="250.00000000000003" y="0.0" width="8.620689655172415" height="8.620689655172415" fill="#0e372d"/>
          <rect x="258.62068965517244" y="0.0" width="8.620689655172415" height="8.620689655172415" fill="#0e372d"/>
          <rect x="267.2413793103448" y="0.0" width="8.620689655172415" height="8.620689655172415" fill="#0e372d"/>
          <rect x="275.86206896551727" y="0.0" width="8.620689655172415" height="8.620689655172415" fill="#0e372d"/>
          <rect x="0.0" y="8.620689655172415" width="8.620689655172415" height="8.620689655172415" fill="#0e372d"/>
          <rect x="51.72413793103449" y="8.620689655172415" width="8.620689655172415" height="8.620689655172415" fill="#0e372d"/>
          <rect x="77.58620689655173" y="8.620689655172415" width="8.620689655172415" height="8.620689655172415" fill="#0e372d"/>
          <rect x="103.44827586206898" y="8.620689655172415" width="8.620689655172415" height="8.620689655172415" fill="#0e372d"/>
          <rect x="129.31034482758622" y="8.620689655172415" width="8.620689655172415" height="8.620689655172415" fill="#0e372d"/>
          <rect x="137.93103448275863" y="8.620689655172415" width="8.620689655172415" height="8.620689655172415" fill="#0e372d"/>
          <rect x="155.17241379310346" y="8.620689655172415" width="8.620689655172415" height="8.620689655172415" fill="#0e372d"/>
          <rect x="172.41379310344828" y="8.620689655172415" width="8.620689655172415" height="8.620689655172415" fill="#0e372d"/>
          <rect x="189.6551724137931" y="8.620689655172415" width="8.620689655172415" height="8.620689655172415" fill="#0e372d"/>
          <rect x="224.1379310344828" y="8.620689655172415" width="8.620689655172415" height="8.620689655172415" fill="#0e372d"/>
          <rect x="275.86206896551727" y="8.620689655172415" width="8.620689655172415" height="8.620689655172415" fill="#0e372d"/>
          <rect x="0.0" y="17.24137931034483" width="8.620689655172415" height="8.620689655172415" fill="#0e372d"/>
          <rect x="17.24137931034483" y="17.24137931034483" width="8.620689655172415" height="8.620689655172415" fill="#0e372d"/>
          <rect x="25.862068965517246" y="17.24137931034483" width="8.620689655172415" height="8.620689655172415" fill="#0e372d"/>
          <rect x="34.48275862068966" y="17.24137931034483" width="8.620689655172415" height="8.620689655172415" fill="#0e372d"/>
          <rect x="51.72413793103449" y="17.24137931034483" width="8.620689655172415" height="8.620689655172415" fill="#0e372d"/>
          <rect x="68.96551724137932" y="17.24137931034483" width="8.620689655172415" height="8.620689655172415" fill="#0e372d"/>
          <rect x="94.82758620689656" y="17.24137931034483" width="8.620689655172415" height="8.620689655172415" fill="#0e372d"/>
          <rect x="103.44827586206898" y="17.24137931034483" width="8.620689655172415" height="8.620689655172415" fill="#0e372d"/>
          <rect x="120.68965517241381" y="17.24137931034483" width="8.620689655172415" height="8.620689655172415" fill="#0e372d"/>
          <rect x="129.31034482758622" y="17.24137931034483" width="8.620689655172415" height="8.620689655172415" fill="#0e372d"/>
          <rect x="163.79310344827587" y="17.24137931034483" width="8.620689655172415" height="8.620689655172415" fill="#0e372d"/>
          <rect x="181.0344827586207" y="17.24137931034483" width="8.620689655172415" height="8.620689655172415" fill="#0e372d"/>
          <rect x="198.27586206896552" y="17.24137931034483" width="8.620689655172415" height="8.620689655172415" fill="#0e372d"/>
          <rect x="224.1379310344828" y="17.24137931034483" width="8.620689655172415" height="8.620689655172415" fill="#0e372d"/>
          <rect x="241.37931034482762" y="17.24137931034483" width="8.620689655172415" height="8.620689655172415" fill="#0e372d"/>
          <rect x="250.00000000000003" y="17.24137931034483" width="8.620689655172415" height="8.620689655172415" fill="#0e372d"/>
          <rect x="258.62068965517244" y="17.24137931034483" width="8.620689655172415" height="8.620689655172415" fill="#0e372d"/>
          <rect x="275.86206896551727" y="17.24137931034483" width="8.620689655172415" height="8.620689655172415" fill="#0e372d"/>
          <rect x="0.0" y="25.862068965517246" width="8.620689655172415" height="8.620689655172415" fill="#0e372d"/>
          <rect x="17.24137931034483" y="25.862068965517246" width="8.620689655172415" height="8.620689655172415" fill="#0e372d"/>
          <rect x="25.862068965517246" y="25.862068965517246" width="8.620689655172415" height="8.620689655172415" fill="#0e372d"/>
          <rect x="34.48275862068966" y="25.862068965517246" width="8.620689655172415" height="8.620689655172415" fill="#0e372d"/>
          <rect x="51.72413793103449" y="25.862068965517246" width="8.620689655172415" height="8.620689655172415" fill="#0e372d"/>
          <rect x="68.96551724137932" y="25.862068965517246" width="8.620689655172415" height="8.620689655172415" fill="#0e372d"/>
          <rect x="77.58620689655173" y="25.862068965517246" width="8.620689655172415" height="8.620689655172415" fill="#0e372d"/>
          <rect x="86.20689655172414" y="25.862068965517246" width="8.620689655172415" height="8.620689655172415" fill="#0e372d"/>
          <rect x="103.44827586206898" y="25.862068965517246" width="8.620689655172415" height="8.620689655172415" fill="#0e372d"/>
          <rect x="129.31034482758622" y="25.862068965517246" width="8.620689655172415" height="8.620689655172415" fill="#0e372d"/>
          <rect x="146.55172413793105" y="25.862068965517246" width="8.620689655172415" height="8.620689655172415" fill="#0e372d"/>
          <rect x="155.17241379310346" y="25.862068965517246" width="8.620689655172415" height="8.620689655172415" fill="#0e372d"/>
          <rect x="172.41379310344828" y="25.862068965517246" width="8.620689655172415" height="8.620689655172415" fill="#0e372d"/>
          <rect x="224.1379310344828" y="25.862068965517246" width="8.620689655172415" height="8.620689655172415" fill="#0e372d"/>
          <rect x="241.37931034482762" y="25.862068965517246" width="8.620689655172415" height="8.620689655172415" fill="#0e372d"/>
          <rect x="250.00000000000003" y="25.862068965517246" width="8.620689655172415" height="8.620689655172415" fill="#0e372d"/>
          <rect x="258.62068965517244" y="25.862068965517246" width="8.620689655172415" height="8.620689655172415" fill="#0e372d"/>
          <rect x="275.86206896551727" y="25.862068965517246" width="8.620689655172415" height="8.620689655172415" fill="#0e372d"/>
          <rect x="0.0" y="34.48275862068966" width="8.620689655172415" height="8.620689655172415" fill="#0e372d"/>
          <rect x="17.24137931034483" y="34.48275862068966" width="8.620689655172415" height="8.620689655172415" fill="#0e372d"/>
          <rect x="25.862068965517246" y="34.48275862068966" width="8.620689655172415" height="8.620689655172415" fill="#0e372d"/>
          <rect x="34.48275862068966" y="34.48275862068966" width="8.620689655172415" height="8.620689655172415" fill="#0e372d"/>
          <rect x="51.72413793103449" y="34.48275862068966" width="8.620689655172415" height="8.620689655172415" fill="#0e372d"/>
          <rect x="68.96551724137932" y="34.48275862068966" width="8.620689655172415" height="8.620689655172415" fill="#0e372d"/>
          <rect x="77.58620689655173" y="34.48275862068966" width="8.620689655172415" height="8.620689655172415" fill="#0e372d"/>
          <rect x="86.20689655172414" y="34.48275862068966" width="8.620689655172415" height="8.620689655172415" fill="#0e372d"/>
          <rect x="120.68965517241381" y="34.48275862068966" width="8.620689655172415" height="8.620689655172415" fill="#0e372d"/>
          <rect x="129.31034482758622" y="34.48275862068966" width="8.620689655172415" height="8.620689655172415" fill="#0e372d"/>
          <rect x="137.93103448275863" y="34.48275862068966" width="8.620689655172415" height="8.620689655172415" fill="#0e372d"/>
          <rect x="146.55172413793105" y="34.48275862068966" width="8.620689655172415" height="8.620689655172415" fill="#0e372d"/>
          <rect x="163.79310344827587" y="34.48275862068966" width="8.620689655172415" height="8.620689655172415" fill="#0e372d"/>
          <rect x="181.0344827586207" y="34.48275862068966" width="8.620689655172415" height="8.620689655172415" fill="#0e372d"/>
          <rect x="198.27586206896552" y="34.48275862068966" width="8.620689655172415" height="8.620689655172415" fill="#0e372d"/>
          <rect x="206.89655172413796" y="34.48275862068966" width="8.620689655172415" height="8.620689655172415" fill="#0e372d"/>
          <rect x="224.1379310344828" y="34.48275862068966" width="8.620689655172415" height="8.620689655172415" fill="#0e372d"/>
          <rect x="241.37931034482762" y="34.48275862068966" width="8.620689655172415" height="8.620689655172415" fill="#0e372d"/>
          <rect x="250.00000000000003" y="34.48275862068966" width="8.620689655172415" height="8.620689655172415" fill="#0e372d"/>
          <rect x="258.62068965517244" y="34.48275862068966" width="8.620689655172415" height="8.620689655172415" fill="#0e372d"/>
          <rect x="275.86206896551727" y="34.48275862068966" width="8.620689655172415" height="8.620689655172415" fill="#0e372d"/>
          <rect x="0.0" y="43.10344827586207" width="8.620689655172415" height="8.620689655172415" fill="#0e372d"/>
          <rect x="51.72413793103449" y="43.10344827586207" width="8.620689655172415" height="8.620689655172415" fill="#0e372d"/>
          <rect x="68.96551724137932" y="43.10344827586207" width="8.620689655172415" height="8.620689655172415" fill="#0e372d"/>
          <rect x="94.82758620689656" y="43.10344827586207" width="8.620689655172415" height="8.620689655172415" fill="#0e372d"/>
          <rect x="146.55172413793105" y="43.10344827586207" width="8.620689655172415" height="8.620689655172415" fill="#0e372d"/>
          <rect x="172.41379310344828" y="43.10344827586207" width="8.620689655172415" height="8.620689655172415" fill="#0e372d"/>
          <rect x="181.0344827586207" y="43.10344827586207" width="8.620689655172415" height="8.620689655172415" fill="#0e372d"/>
          <rect x="224.1379310344828" y="43.10344827586207" width="8.620689655172415" height="8.620689655172415" fill="#0e372d"/>
          <rect x="275.86206896551727" y="43.10344827586207" width="8.620689655172415" height="8.620689655172415" fill="#0e372d"/>
          <rect x="0.0" y="51.72413793103449" width="8.620689655172415" height="8.620689655172415" fill="#0e372d"/>
          <rect x="8.620689655172415" y="51.72413793103449" width="8.620689655172415" height="8.620689655172415" fill="#0e372d"/>
          <rect x="17.24137931034483" y="51.72413793103449" width="8.620689655172415" height="8.620689655172415" fill="#0e372d"/>
          <rect x="25.862068965517246" y="51.72413793103449" width="8.620689655172415" height="8.620689655172415" fill="#0e372d"/>
          <rect x="34.48275862068966" y="51.72413793103449" width="8.620689655172415" height="8.620689655172415" fill="#0e372d"/>
          <rect x="43.10344827586207" y="51.72413793103449" width="8.620689655172415" height="8.620689655172415" fill="#0e372d"/>
          <rect x="51.72413793103449" y="51.72413793103449" width="8.620689655172415" height="8.620689655172415" fill="#0e372d"/>
          <rect x="68.96551724137932" y="51.72413793103449" width="8.620689655172415" height="8.620689655172415" fill="#0e372d"/>
          <rect x="86.20689655172414" y="51.72413793103449" width="8.620689655172415" height="8.620689655172415" fill="#0e372d"/>
          <rect x="103.44827586206898" y="51.72413793103449" width="8.620689655172415" height="8.620689655172415" fill="#0e372d"/>
          <rect x="120.68965517241381" y="51.72413793103449" width="8.620689655172415" height="8.620689655172415" fill="#0e372d"/>
          <rect x="137.93103448275863" y="51.72413793103449" width="8.620689655172415" height="8.620689655172415" fill="#0e372d"/>
          <rect x="155.17241379310346" y="51.72413793103449" width="8.620689655172415" height="8.620689655172415" fill="#0e372d"/>
          <rect x="172.41379310344828" y="51.72413793103449" width="8.620689655172415" height="8.620689655172415" fill="#0e372d"/>
          <rect x="189.6551724137931" y="51.72413793103449" width="8.620689655172415" height="8.620689655172415" fill="#0e372d"/>
          <rect x="206.89655172413796" y="51.72413793103449" width="8.620689655172415" height="8.620689655172415" fill="#0e372d"/>
          <rect x="224.1379310344828" y="51.72413793103449" width="8.620689655172415" height="8.620689655172415" fill="#0e372d"/>
          <rect x="232.7586206896552" y="51.72413793103449" width="8.620689655172415" height="8.620689655172415" fill="#0e372d"/>
          <rect x="241.37931034482762" y="51.72413793103449" width="8.620689655172415" height="8.620689655172415" fill="#0e372d"/>
          <rect x="250.00000000000003" y="51.72413793103449" width="8.620689655172415" height="8.620689655172415" fill="#0e372d"/>
          <rect x="258.62068965517244" y="51.72413793103449" width="8.620689655172415" height="8.620689655172415" fill="#0e372d"/>
          <rect x="267.2413793103448" y="51.72413793103449" width="8.620689655172415" height="8.620689655172415" fill="#0e372d"/>
          <rect x="275.86206896551727" y="51.72413793103449" width="8.620689655172415" height="8.620689655172415" fill="#0e372d"/>
          <rect x="68.96551724137932" y="60.344827586206904" width="8.620689655172415" height="8.620689655172415" fill="#0e372d"/>
          <rect x="77.58620689655173" y="60.344827586206904" width="8.620689655172415" height="8.620689655172415" fill="#0e372d"/>
          <rect x="103.44827586206898" y="60.344827586206904" width="8.620689655172415" height="8.620689655172415" fill="#0e372d"/>
          <rect x="120.68965517241381" y="60.344827586206904" width="8.620689655172415" height="8.620689655172415" fill="#0e372d"/>
          <rect x="137.93103448275863" y="60.344827586206904" width="8.620689655172415" height="8.620689655172415" fill="#0e372d"/>
          <rect x="163.79310344827587" y="60.344827586206904" width="8.620689655172415" height="8.620689655172415" fill="#0e372d"/>
          <rect x="181.0344827586207" y="60.344827586206904" width="8.620689655172415" height="8.620689655172415" fill="#0e372d"/>
          <rect x="198.27586206896552" y="60.344827586206904" width="8.620689655172415" height="8.620689655172415" fill="#0e372d"/>
          <rect x="0.0" y="68.96551724137932" width="8.620689655172415" height="8.620689655172415" fill="#0e372d"/>
          <rect x="17.24137931034483" y="68.96551724137932" width="8.620689655172415" height="8.620689655172415" fill="#0e372d"/>
          <rect x="25.862068965517246" y="68.96551724137932" width="8.620689655172415" height="8.620689655172415" fill="#0e372d"/>
          <rect x="34.48275862068966" y="68.96551724137932" width="8.620689655172415" height="8.620689655172415" fill="#0e372d"/>
          <rect x="43.10344827586207" y="68.96551724137932" width="8.620689655172415" height="8.620689655172415" fill="#0e372d"/>
          <rect x="51.72413793103449" y="68.96551724137932" width="8.620689655172415" height="8.620689655172415" fill="#0e372d"/>
          <rect x="77.58620689655173" y="68.96551724137932" width="8.620689655172415" height="8.620689655172415" fill="#0e372d"/>
          <rect x="86.20689655172414" y="68.96551724137932" width="8.620689655172415" height="8.620689655172415" fill="#0e372d"/>
          <rect x="94.82758620689656" y="68.96551724137932" width="8.620689655172415" height="8.620689655172415" fill="#0e372d"/>
          <rect x="103.44827586206898" y="68.96551724137932" width="8.620689655172415" height="8.620689655172415" fill="#0e372d"/>
          <rect x="112.0689655172414" y="68.96551724137932" width="8.620689655172415" height="8.620689655172415" fill="#0e372d"/>
          <rect x="137.93103448275863" y="68.96551724137932" width="8.620689655172415" height="8.620689655172415" fill="#0e372d"/>
          <rect x="146.55172413793105" y="68.96551724137932" width="8.620689655172415" height="8.620689655172415" fill="#0e372d"/>
          <rect x="155.17241379310346" y="68.96551724137932" width="8.620689655172415" height="8.620689655172415" fill="#0e372d"/>
          <rect x="189.6551724137931" y="68.96551724137932" width="8.620689655172415" height="8.620689655172415" fill="#0e372d"/>
          <rect x="206.89655172413796" y="68.96551724137932" width="8.620689655172415" height="8.620689655172415" fill="#0e372d"/>
          <rect x="224.1379310344828" y="68.96551724137932" width="8.620689655172415" height="8.620689655172415" fill="#0e372d"/>
          <rect x="232.7586206896552" y="68.96551724137932" width="8.620689655172415" height="8.620689655172415" fill="#0e372d"/>
          <rect x="241.37931034482762" y="68.96551724137932" width="8.620689655172415" height="8.620689655172415" fill="#0e372d"/>
          <rect x="250.00000000000003" y="68.96551724137932" width="8.620689655172415" height="8.620689655172415" fill="#0e372d"/>
          <rect x="258.62068965517244" y="68.96551724137932" width="8.620689655172415" height="8.620689655172415" fill="#0e372d"/>
          <rect x="8.620689655172415" y="77.58620689655173" width="8.620689655172415" height="8.620689655172415" fill="#0e372d"/>
          <rect x="17.24137931034483" y="77.58620689655173" width="8.620689655172415" height="8.620689655172415" fill="#0e372d"/>
          <rect x="34.48275862068966" y="77.58620689655173" width="8.620689655172415" height="8.620689655172415" fill="#0e372d"/>
          <rect x="60.344827586206904" y="77.58620689655173" width="8.620689655172415" height="8.620689655172415" fill="#0e372d"/>
          <rect x="68.96551724137932" y="77.58620689655173" width="8.620689655172415" height="8.620689655172415" fill="#0e372d"/>
          <rect x="77.58620689655173" y="77.58620689655173" width="8.620689655172415" height="8.620689655172415" fill="#0e372d"/>
          <rect x="86.20689655172414" y="77.58620689655173" width="8.620689655172415" height="8.620689655172415" fill="#0e372d"/>
          <rect x="103.44827586206898" y="77.58620689655173" width="8.620689655172415" height="8.620689655172415" fill="#0e372d"/>
          <rect x="112.0689655172414" y="77.58620689655173" width="8.620689655172415" height="8.620689655172415" fill="#0e372d"/>
          <rect x="146.55172413793105" y="77.58620689655173" width="8.620689655172415" height="8.620689655172415" fill="#0e372d"/>
          <rect x="163.79310344827587" y="77.58620689655173" width="8.620689655172415" height="8.620689655172415" fill="#0e372d"/>
          <rect x="172.41379310344828" y="77.58620689655173" width="8.620689655172415" height="8.620689655172415" fill="#0e372d"/>
          <rect x="189.6551724137931" y="77.58620689655173" width="8.620689655172415" height="8.620689655172415" fill="#0e372d"/>
          <rect x="198.27586206896552" y="77.58620689655173" width="8.620689655172415" height="8.620689655172415" fill="#0e372d"/>
          <rect x="224.1379310344828" y="77.58620689655173" width="8.620689655172415" height="8.620689655172415" fill="#0e372d"/>
          <rect x="232.7586206896552" y="77.58620689655173" width="8.620689655172415" height="8.620689655172415" fill="#0e372d"/>
          <rect x="250.00000000000003" y="77.58620689655173" width="8.620689655172415" height="8.620689655172415" fill="#0e372d"/>
          <rect x="258.62068965517244" y="77.58620689655173" width="8.620689655172415" height="8.620689655172415" fill="#0e372d"/>
          <rect x="267.2413793103448" y="77.58620689655173" width="8.620689655172415" height="8.620689655172415" fill="#0e372d"/>
          <rect x="275.86206896551727" y="77.58620689655173" width="8.620689655172415" height="8.620689655172415" fill="#0e372d"/>
          <rect x="51.72413793103449" y="86.20689655172414" width="8.620689655172415" height="8.620689655172415" fill="#0e372d"/>
          <rect x="68.96551724137932" y="86.20689655172414" width="8.620689655172415" height="8.620689655172415" fill="#0e372d"/>
          <rect x="86.20689655172414" y="86.20689655172414" width="8.620689655172415" height="8.620689655172415" fill="#0e372d"/>
          <rect x="103.44827586206898" y="86.20689655172414" width="8.620689655172415" height="8.620689655172415" fill="#0e372d"/>
          <rect x="112.0689655172414" y="86.20689655172414" width="8.620689655172415" height="8.620689655172415" fill="#0e372d"/>
          <rect x="120.68965517241381" y="86.20689655172414" width="8.620689655172415" height="8.620689655172415" fill="#0e372d"/>
          <rect x="129.31034482758622" y="86.20689655172414" width="8.620689655172415" height="8.620689655172415" fill="#0e372d"/>
          <rect x="137.93103448275863" y="86.20689655172414" width="8.620689655172415" height="8.620689655172415" fill="#0e372d"/>
          <rect x="155.17241379310346" y="86.20689655172414" width="8.620689655172415" height="8.620689655172415" fill="#0e372d"/>
          <rect x="172.41379310344828" y="86.20689655172414" width="8.620689655172415" height="8.620689655172415" fill="#0e372d"/>
          <rect x="181.0344827586207" y="86.20689655172414" width="8.620689655172415" height="8.620689655172415" fill="#0e372d"/>
          <rect x="189.6551724137931" y="86.20689655172414" width="8.620689655172415" height="8.620689655172415" fill="#0e372d"/>
          <rect x="206.89655172413796" y="86.20689655172414" width="8.620689655172415" height="8.620689655172415" fill="#0e372d"/>
          <rect x="241.37931034482762" y="86.20689655172414" width="8.620689655172415" height="8.620689655172415" fill="#0e372d"/>
          <rect x="258.62068965517244" y="86.20689655172414" width="8.620689655172415" height="8.620689655172415" fill="#0e372d"/>
          <rect x="17.24137931034483" y="94.82758620689656" width="8.620689655172415" height="8.620689655172415" fill="#0e372d"/>
          <rect x="25.862068965517246" y="94.82758620689656" width="8.620689655172415" height="8.620689655172415" fill="#0e372d"/>
          <rect x="34.48275862068966" y="94.82758620689656" width="8.620689655172415" height="8.620689655172415" fill="#0e372d"/>
          <rect x="60.344827586206904" y="94.82758620689656" width="8.620689655172415" height="8.620689655172415" fill="#0e372d"/>
          <rect x="103.44827586206898" y="94.82758620689656" width="8.620689655172415" height="8.620689655172415" fill="#0e372d"/>
          <rect x="112.0689655172414" y="94.82758620689656" width="8.620689655172415" height="8.620689655172415" fill="#0e372d"/>
          <rect x="129.31034482758622" y="94.82758620689656" width="8.620689655172415" height="8.620689655172415" fill="#0e372d"/>
          <rect x="163.79310344827587" y="94.82758620689656" width="8.620689655172415" height="8.620689655172415" fill="#0e372d"/>
          <rect x="172.41379310344828" y="94.82758620689656" width="8.620689655172415" height="8.620689655172415" fill="#0e372d"/>
          <rect x="181.0344827586207" y="94.82758620689656" width="8.620689655172415" height="8.620689655172415" fill="#0e372d"/>
          <rect x="189.6551724137931" y="94.82758620689656" width="8.620689655172415" height="8.620689655172415" fill="#0e372d"/>
          <rect x="215.51724137931038" y="94.82758620689656" width="8.620689655172415" height="8.620689655172415" fill="#0e372d"/>
          <rect x="224.1379310344828" y="94.82758620689656" width="8.620689655172415" height="8.620689655172415" fill="#0e372d"/>
          <rect x="241.37931034482762" y="94.82758620689656" width="8.620689655172415" height="8.620689655172415" fill="#0e372d"/>
          <rect x="250.00000000000003" y="94.82758620689656" width="8.620689655172415" height="8.620689655172415" fill="#0e372d"/>
          <rect x="258.62068965517244" y="94.82758620689656" width="8.620689655172415" height="8.620689655172415" fill="#0e372d"/>
          <rect x="0.0" y="103.44827586206898" width="8.620689655172415" height="8.620689655172415" fill="#0e372d"/>
          <rect x="8.620689655172415" y="103.44827586206898" width="8.620689655172415" height="8.620689655172415" fill="#0e372d"/>
          <rect x="17.24137931034483" y="103.44827586206898" width="8.620689655172415" height="8.620689655172415" fill="#0e372d"/>
          <rect x="43.10344827586207" y="103.44827586206898" width="8.620689655172415" height="8.620689655172415" fill="#0e372d"/>
          <rect x="51.72413793103449" y="103.44827586206898" width="8.620689655172415" height="8.620689655172415" fill="#0e372d"/>
          <rect x="60.344827586206904" y="103.44827586206898" width="8.620689655172415" height="8.620689655172415" fill="#0e372d"/>
          <rect x="120.68965517241381" y="103.44827586206898" width="8.620689655172415" height="8.620689655172415" fill="#0e372d"/>
          <rect x="129.31034482758622" y="103.44827586206898" width="8.620689655172415" height="8.620689655172415" fill="#0e372d"/>
          <rect x="146.55172413793105" y="103.44827586206898" width="8.620689655172415" height="8.620689655172415" fill="#0e372d"/>
          <rect x="155.17241379310346" y="103.44827586206898" width="8.620689655172415" height="8.620689655172415" fill="#0e372d"/>
          <rect x="163.79310344827587" y="103.44827586206898" width="8.620689655172415" height="8.620689655172415" fill="#0e372d"/>
          <rect x="172.41379310344828" y="103.44827586206898" width="8.620689655172415" height="8.620689655172415" fill="#0e372d"/>
          <rect x="241.37931034482762" y="103.44827586206898" width="8.620689655172415" height="8.620689655172415" fill="#0e372d"/>
          <rect x="250.00000000000003" y="103.44827586206898" width="8.620689655172415" height="8.620689655172415" fill="#0e372d"/>
          <rect x="275.86206896551727" y="103.44827586206898" width="8.620689655172415" height="8.620689655172415" fill="#0e372d"/>
          <rect x="0.0" y="112.0689655172414" width="8.620689655172415" height="8.620689655172415" fill="#0e372d"/>
          <rect x="8.620689655172415" y="112.0689655172414" width="8.620689655172415" height="8.620689655172415" fill="#0e372d"/>
          <rect x="43.10344827586207" y="112.0689655172414" width="8.620689655172415" height="8.620689655172415" fill="#0e372d"/>
          <rect x="60.344827586206904" y="112.0689655172414" width="8.620689655172415" height="8.620689655172415" fill="#0e372d"/>
          <rect x="68.96551724137932" y="112.0689655172414" width="8.620689655172415" height="8.620689655172415" fill="#0e372d"/>
          <rect x="94.82758620689656" y="112.0689655172414" width="8.620689655172415" height="8.620689655172415" fill="#0e372d"/>
          <rect x="129.31034482758622" y="112.0689655172414" width="8.620689655172415" height="8.620689655172415" fill="#0e372d"/>
          <rect x="163.79310344827587" y="112.0689655172414" width="8.620689655172415" height="8.620689655172415" fill="#0e372d"/>
          <rect x="181.0344827586207" y="112.0689655172414" width="8.620689655172415" height="8.620689655172415" fill="#0e372d"/>
          <rect x="189.6551724137931" y="112.0689655172414" width="8.620689655172415" height="8.620689655172415" fill="#0e372d"/>
          <rect x="198.27586206896552" y="112.0689655172414" width="8.620689655172415" height="8.620689655172415" fill="#0e372d"/>
          <rect x="206.89655172413796" y="112.0689655172414" width="8.620689655172415" height="8.620689655172415" fill="#0e372d"/>
          <rect x="215.51724137931038" y="112.0689655172414" width="8.620689655172415" height="8.620689655172415" fill="#0e372d"/>
          <rect x="224.1379310344828" y="112.0689655172414" width="8.620689655172415" height="8.620689655172415" fill="#0e372d"/>
          <rect x="232.7586206896552" y="112.0689655172414" width="8.620689655172415" height="8.620689655172415" fill="#0e372d"/>
          <rect x="258.62068965517244" y="112.0689655172414" width="8.620689655172415" height="8.620689655172415" fill="#0e372d"/>
          <rect x="267.2413793103448" y="112.0689655172414" width="8.620689655172415" height="8.620689655172415" fill="#0e372d"/>
          <rect x="275.86206896551727" y="112.0689655172414" width="8.620689655172415" height="8.620689655172415" fill="#0e372d"/>
          <rect x="8.620689655172415" y="120.68965517241381" width="8.620689655172415" height="8.620689655172415" fill="#0e372d"/>
          <rect x="17.24137931034483" y="120.68965517241381" width="8.620689655172415" height="8.620689655172415" fill="#0e372d"/>
          <rect x="25.862068965517246" y="120.68965517241381" width="8.620689655172415" height="8.620689655172415" fill="#0e372d"/>
          <rect x="51.72413793103449" y="120.68965517241381" width="8.620689655172415" height="8.620689655172415" fill="#0e372d"/>
          <rect x="68.96551724137932" y="120.68965517241381" width="8.620689655172415" height="8.620689655172415" fill="#0e372d"/>
          <rect x="129.31034482758622" y="120.68965517241381" width="8.620689655172415" height="8.620689655172415" fill="#0e372d"/>
          <rect x="146.55172413793105" y="120.68965517241381" width="8.620689655172415" height="8.620689655172415" fill="#0e372d"/>
          <rect x="181.0344827586207" y="120.68965517241381" width="8.620689655172415" height="8.620689655172415" fill="#0e372d"/>
          <rect x="189.6551724137931" y="120.68965517241381" width="8.620689655172415" height="8.620689655172415" fill="#0e372d"/>
          <rect x="206.89655172413796" y="120.68965517241381" width="8.620689655172415" height="8.620689655172415" fill="#0e372d"/>
          <rect x="215.51724137931038" y="120.68965517241381" width="8.620689655172415" height="8.620689655172415" fill="#0e372d"/>
          <rect x="224.1379310344828" y="120.68965517241381" width="8.620689655172415" height="8.620689655172415" fill="#0e372d"/>
          <rect x="241.37931034482762" y="120.68965517241381" width="8.620689655172415" height="8.620689655172415" fill="#0e372d"/>
          <rect x="258.62068965517244" y="120.68965517241381" width="8.620689655172415" height="8.620689655172415" fill="#0e372d"/>
          <rect x="267.2413793103448" y="120.68965517241381" width="8.620689655172415" height="8.620689655172415" fill="#0e372d"/>
          <rect x="8.620689655172415" y="129.31034482758622" width="8.620689655172415" height="8.620689655172415" fill="#0e372d"/>
          <rect x="25.862068965517246" y="129.31034482758622" width="8.620689655172415" height="8.620689655172415" fill="#0e372d"/>
          <rect x="43.10344827586207" y="129.31034482758622" width="8.620689655172415" height="8.620689655172415" fill="#0e372d"/>
          <rect x="86.20689655172414" y="129.31034482758622" width="8.620689655172415" height="8.620689655172415" fill="#0e372d"/>
          <rect x="94.82758620689656" y="129.31034482758622" width="8.620689655172415" height="8.620689655172415" fill="#0e372d"/>
          <rect x="103.44827586206898" y="129.31034482758622" width="8.620689655172415" height="8.620689655172415" fill="#0e372d"/>
          <rect x="129.31034482758622" y="129.31034482758622" width="8.620689655172415" height="8.620689655172415" fill="#0e372d"/>
          <rect x="155.17241379310346" y="129.31034482758622" width="8.620689655172415" height="8.620689655172415" fill="#0e372d"/>
          <rect x="181.0344827586207" y="129.31034482758622" width="8.620689655172415" height="8.620689655172415" fill="#0e372d"/>
          <rect x="215.51724137931038" y="129.31034482758622" width="8.620689655172415" height="8.620689655172415" fill="#0e372d"/>
          <rect x="224.1379310344828" y="129.31034482758622" width="8.620689655172415" height="8.620689655172415" fill="#0e372d"/>
          <rect x="232.7586206896552" y="129.31034482758622" width="8.620689655172415" height="8.620689655172415" fill="#0e372d"/>
          <rect x="258.62068965517244" y="129.31034482758622" width="8.620689655172415" height="8.620689655172415" fill="#0e372d"/>
          <rect x="0.0" y="137.93103448275863" width="8.620689655172415" height="8.620689655172415" fill="#0e372d"/>
          <rect x="8.620689655172415" y="137.93103448275863" width="8.620689655172415" height="8.620689655172415" fill="#0e372d"/>
          <rect x="34.48275862068966" y="137.93103448275863" width="8.620689655172415" height="8.620689655172415" fill="#0e372d"/>
          <rect x="51.72413793103449" y="137.93103448275863" width="8.620689655172415" height="8.620689655172415" fill="#0e372d"/>
          <rect x="60.344827586206904" y="137.93103448275863" width="8.620689655172415" height="8.620689655172415" fill="#0e372d"/>
          <rect x="68.96551724137932" y="137.93103448275863" width="8.620689655172415" height="8.620689655172415" fill="#0e372d"/>
          <rect x="77.58620689655173" y="137.93103448275863" width="8.620689655172415" height="8.620689655172415" fill="#0e372d"/>
          <rect x="129.31034482758622" y="137.93103448275863" width="8.620689655172415" height="8.620689655172415" fill="#0e372d"/>
          <rect x="137.93103448275863" y="137.93103448275863" width="8.620689655172415" height="8.620689655172415" fill="#0e372d"/>
          <rect x="146.55172413793105" y="137.93103448275863" width="8.620689655172415" height="8.620689655172415" fill="#0e372d"/>
          <rect x="155.17241379310346" y="137.93103448275863" width="8.620689655172415" height="8.620689655172415" fill="#0e372d"/>
          <rect x="215.51724137931038" y="137.93103448275863" width="8.620689655172415" height="8.620689655172415" fill="#0e372d"/>
          <rect x="232.7586206896552" y="137.93103448275863" width="8.620689655172415" height="8.620689655172415" fill="#0e372d"/>
          <rect x="241.37931034482762" y="137.93103448275863" width="8.620689655172415" height="8.620689655172415" fill="#0e372d"/>
          <rect x="250.00000000000003" y="137.93103448275863" width="8.620689655172415" height="8.620689655172415" fill="#0e372d"/>
          <rect x="275.86206896551727" y="137.93103448275863" width="8.620689655172415" height="8.620689655172415" fill="#0e372d"/>
          <rect x="8.620689655172415" y="146.55172413793105" width="8.620689655172415" height="8.620689655172415" fill="#0e372d"/>
          <rect x="25.862068965517246" y="146.55172413793105" width="8.620689655172415" height="8.620689655172415" fill="#0e372d"/>
          <rect x="60.344827586206904" y="146.55172413793105" width="8.620689655172415" height="8.620689655172415" fill="#0e372d"/>
          <rect x="68.96551724137932" y="146.55172413793105" width="8.620689655172415" height="8.620689655172415" fill="#0e372d"/>
          <rect x="77.58620689655173" y="146.55172413793105" width="8.620689655172415" height="8.620689655172415" fill="#0e372d"/>
          <rect x="112.0689655172414" y="146.55172413793105" width="8.620689655172415" height="8.620689655172415" fill="#0e372d"/>
          <rect x="120.68965517241381" y="146.55172413793105" width="8.620689655172415" height="8.620689655172415" fill="#0e372d"/>
          <rect x="163.79310344827587" y="146.55172413793105" width="8.620689655172415" height="8.620689655172415" fill="#0e372d"/>
          <rect x="181.0344827586207" y="146.55172413793105" width="8.620689655172415" height="8.620689655172415" fill="#0e372d"/>
          <rect x="198.27586206896552" y="146.55172413793105" width="8.620689655172415" height="8.620689655172415" fill="#0e372d"/>
          <rect x="224.1379310344828" y="146.55172413793105" width="8.620689655172415" height="8.620689655172415" fill="#0e372d"/>
          <rect x="232.7586206896552" y="146.55172413793105" width="8.620689655172415" height="8.620689655172415" fill="#0e372d"/>
          <rect x="250.00000000000003" y="146.55172413793105" width="8.620689655172415" height="8.620689655172415" fill="#0e372d"/>
          <rect x="258.62068965517244" y="146.55172413793105" width="8.620689655172415" height="8.620689655172415" fill="#0e372d"/>
          <rect x="267.2413793103448" y="146.55172413793105" width="8.620689655172415" height="8.620689655172415" fill="#0e372d"/>
          <rect x="275.86206896551727" y="146.55172413793105" width="8.620689655172415" height="8.620689655172415" fill="#0e372d"/>
          <rect x="17.24137931034483" y="155.17241379310346" width="8.620689655172415" height="8.620689655172415" fill="#0e372d"/>
          <rect x="34.48275862068966" y="155.17241379310346" width="8.620689655172415" height="8.620689655172415" fill="#0e372d"/>
          <rect x="51.72413793103449" y="155.17241379310346" width="8.620689655172415" height="8.620689655172415" fill="#0e372d"/>
          <rect x="60.344827586206904" y="155.17241379310346" width="8.620689655172415" height="8.620689655172415" fill="#0e372d"/>
          <rect x="68.96551724137932" y="155.17241379310346" width="8.620689655172415" height="8.620689655172415" fill="#0e372d"/>
          <rect x="86.20689655172414" y="155.17241379310346" width="8.620689655172415" height="8.620689655172415" fill="#0e372d"/>
          <rect x="103.44827586206898" y="155.17241379310346" width="8.620689655172415" height="8.620689655172415" fill="#0e372d"/>
          <rect x="129.31034482758622" y="155.17241379310346" width="8.620689655172415" height="8.620689655172415" fill="#0e372d"/>
          <rect x="172.41379310344828" y="155.17241379310346" width="8.620689655172415" height="8.620689655172415" fill="#0e372d"/>
          <rect x="232.7586206896552" y="155.17241379310346" width="8.620689655172415" height="8.620689655172415" fill="#0e372d"/>
          <rect x="241.37931034482762" y="155.17241379310346" width="8.620689655172415" height="8.620689655172415" fill="#0e372d"/>
          <rect x="258.62068965517244" y="155.17241379310346" width="8.620689655172415" height="8.620689655172415" fill="#0e372d"/>
          <rect x="8.620689655172415" y="163.79310344827587" width="8.620689655172415" height="8.620689655172415" fill="#0e372d"/>
          <rect x="25.862068965517246" y="163.79310344827587" width="8.620689655172415" height="8.620689655172415" fill="#0e372d"/>
          <rect x="34.48275862068966" y="163.79310344827587" width="8.620689655172415" height="8.620689655172415" fill="#0e372d"/>
          <rect x="43.10344827586207" y="163.79310344827587" width="8.620689655172415" height="8.620689655172415" fill="#0e372d"/>
          <rect x="68.96551724137932" y="163.79310344827587" width="8.620689655172415" height="8.620689655172415" fill="#0e372d"/>
          <rect x="86.20689655172414" y="163.79310344827587" width="8.620689655172415" height="8.620689655172415" fill="#0e372d"/>
          <rect x="103.44827586206898" y="163.79310344827587" width="8.620689655172415" height="8.620689655172415" fill="#0e372d"/>
          <rect x="112.0689655172414" y="163.79310344827587" width="8.620689655172415" height="8.620689655172415" fill="#0e372d"/>
          <rect x="120.68965517241381" y="163.79310344827587" width="8.620689655172415" height="8.620689655172415" fill="#0e372d"/>
          <rect x="129.31034482758622" y="163.79310344827587" width="8.620689655172415" height="8.620689655172415" fill="#0e372d"/>
          <rect x="137.93103448275863" y="163.79310344827587" width="8.620689655172415" height="8.620689655172415" fill="#0e372d"/>
          <rect x="172.41379310344828" y="163.79310344827587" width="8.620689655172415" height="8.620689655172415" fill="#0e372d"/>
          <rect x="181.0344827586207" y="163.79310344827587" width="8.620689655172415" height="8.620689655172415" fill="#0e372d"/>
          <rect x="189.6551724137931" y="163.79310344827587" width="8.620689655172415" height="8.620689655172415" fill="#0e372d"/>
          <rect x="206.89655172413796" y="163.79310344827587" width="8.620689655172415" height="8.620689655172415" fill="#0e372d"/>
          <rect x="215.51724137931038" y="163.79310344827587" width="8.620689655172415" height="8.620689655172415" fill="#0e372d"/>
          <rect x="224.1379310344828" y="163.79310344827587" width="8.620689655172415" height="8.620689655172415" fill="#0e372d"/>
          <rect x="232.7586206896552" y="163.79310344827587" width="8.620689655172415" height="8.620689655172415" fill="#0e372d"/>
          <rect x="241.37931034482762" y="163.79310344827587" width="8.620689655172415" height="8.620689655172415" fill="#0e372d"/>
          <rect x="250.00000000000003" y="163.79310344827587" width="8.620689655172415" height="8.620689655172415" fill="#0e372d"/>
          <rect x="258.62068965517244" y="163.79310344827587" width="8.620689655172415" height="8.620689655172415" fill="#0e372d"/>
          <rect x="0.0" y="172.41379310344828" width="8.620689655172415" height="8.620689655172415" fill="#0e372d"/>
          <rect x="8.620689655172415" y="172.41379310344828" width="8.620689655172415" height="8.620689655172415" fill="#0e372d"/>
          <rect x="25.862068965517246" y="172.41379310344828" width="8.620689655172415" height="8.620689655172415" fill="#0e372d"/>
          <rect x="34.48275862068966" y="172.41379310344828" width="8.620689655172415" height="8.620689655172415" fill="#0e372d"/>
          <rect x="43.10344827586207" y="172.41379310344828" width="8.620689655172415" height="8.620689655172415" fill="#0e372d"/>
          <rect x="51.72413793103449" y="172.41379310344828" width="8.620689655172415" height="8.620689655172415" fill="#0e372d"/>
          <rect x="60.344827586206904" y="172.41379310344828" width="8.620689655172415" height="8.620689655172415" fill="#0e372d"/>
          <rect x="86.20689655172414" y="172.41379310344828" width="8.620689655172415" height="8.620689655172415" fill="#0e372d"/>
          <rect x="94.82758620689656" y="172.41379310344828" width="8.620689655172415" height="8.620689655172415" fill="#0e372d"/>
          <rect x="103.44827586206898" y="172.41379310344828" width="8.620689655172415" height="8.620689655172415" fill="#0e372d"/>
          <rect x="129.31034482758622" y="172.41379310344828" width="8.620689655172415" height="8.620689655172415" fill="#0e372d"/>
          <rect x="146.55172413793105" y="172.41379310344828" width="8.620689655172415" height="8.620689655172415" fill="#0e372d"/>
          <rect x="155.17241379310346" y="172.41379310344828" width="8.620689655172415" height="8.620689655172415" fill="#0e372d"/>
          <rect x="163.79310344827587" y="172.41379310344828" width="8.620689655172415" height="8.620689655172415" fill="#0e372d"/>
          <rect x="172.41379310344828" y="172.41379310344828" width="8.620689655172415" height="8.620689655172415" fill="#0e372d"/>
          <rect x="206.89655172413796" y="172.41379310344828" width="8.620689655172415" height="8.620689655172415" fill="#0e372d"/>
          <rect x="241.37931034482762" y="172.41379310344828" width="8.620689655172415" height="8.620689655172415" fill="#0e372d"/>
          <rect x="250.00000000000003" y="172.41379310344828" width="8.620689655172415" height="8.620689655172415" fill="#0e372d"/>
          <rect x="267.2413793103448" y="172.41379310344828" width="8.620689655172415" height="8.620689655172415" fill="#0e372d"/>
          <rect x="0.0" y="181.0344827586207" width="8.620689655172415" height="8.620689655172415" fill="#0e372d"/>
          <rect x="8.620689655172415" y="181.0344827586207" width="8.620689655172415" height="8.620689655172415" fill="#0e372d"/>
          <rect x="25.862068965517246" y="181.0344827586207" width="8.620689655172415" height="8.620689655172415" fill="#0e372d"/>
          <rect x="34.48275862068966" y="181.0344827586207" width="8.620689655172415" height="8.620689655172415" fill="#0e372d"/>
          <rect x="43.10344827586207" y="181.0344827586207" width="8.620689655172415" height="8.620689655172415" fill="#0e372d"/>
          <rect x="86.20689655172414" y="181.0344827586207" width="8.620689655172415" height="8.620689655172415" fill="#0e372d"/>
          <rect x="112.0689655172414" y="181.0344827586207" width="8.620689655172415" height="8.620689655172415" fill="#0e372d"/>
          <rect x="120.68965517241381" y="181.0344827586207" width="8.620689655172415" height="8.620689655172415" fill="#0e372d"/>
          <rect x="129.31034482758622" y="181.0344827586207" width="8.620689655172415" height="8.620689655172415" fill="#0e372d"/>
          <rect x="146.55172413793105" y="181.0344827586207" width="8.620689655172415" height="8.620689655172415" fill="#0e372d"/>
          <rect x="163.79310344827587" y="181.0344827586207" width="8.620689655172415" height="8.620689655172415" fill="#0e372d"/>
          <rect x="189.6551724137931" y="181.0344827586207" width="8.620689655172415" height="8.620689655172415" fill="#0e372d"/>
          <rect x="198.27586206896552" y="181.0344827586207" width="8.620689655172415" height="8.620689655172415" fill="#0e372d"/>
          <rect x="224.1379310344828" y="181.0344827586207" width="8.620689655172415" height="8.620689655172415" fill="#0e372d"/>
          <rect x="232.7586206896552" y="181.0344827586207" width="8.620689655172415" height="8.620689655172415" fill="#0e372d"/>
          <rect x="250.00000000000003" y="181.0344827586207" width="8.620689655172415" height="8.620689655172415" fill="#0e372d"/>
          <rect x="258.62068965517244" y="181.0344827586207" width="8.620689655172415" height="8.620689655172415" fill="#0e372d"/>
          <rect x="275.86206896551727" y="181.0344827586207" width="8.620689655172415" height="8.620689655172415" fill="#0e372d"/>
          <rect x="0.0" y="189.6551724137931" width="8.620689655172415" height="8.620689655172415" fill="#0e372d"/>
          <rect x="25.862068965517246" y="189.6551724137931" width="8.620689655172415" height="8.620689655172415" fill="#0e372d"/>
          <rect x="43.10344827586207" y="189.6551724137931" width="8.620689655172415" height="8.620689655172415" fill="#0e372d"/>
          <rect x="51.72413793103449" y="189.6551724137931" width="8.620689655172415" height="8.620689655172415" fill="#0e372d"/>
          <rect x="60.344827586206904" y="189.6551724137931" width="8.620689655172415" height="8.620689655172415" fill="#0e372d"/>
          <rect x="77.58620689655173" y="189.6551724137931" width="8.620689655172415" height="8.620689655172415" fill="#0e372d"/>
          <rect x="86.20689655172414" y="189.6551724137931" width="8.620689655172415" height="8.620689655172415" fill="#0e372d"/>
          <rect x="112.0689655172414" y="189.6551724137931" width="8.620689655172415" height="8.620689655172415" fill="#0e372d"/>
          <rect x="129.31034482758622" y="189.6551724137931" width="8.620689655172415" height="8.620689655172415" fill="#0e372d"/>
          <rect x="137.93103448275863" y="189.6551724137931" width="8.620689655172415" height="8.620689655172415" fill="#0e372d"/>
          <rect x="155.17241379310346" y="189.6551724137931" width="8.620689655172415" height="8.620689655172415" fill="#0e372d"/>
          <rect x="189.6551724137931" y="189.6551724137931" width="8.620689655172415" height="8.620689655172415" fill="#0e372d"/>
          <rect x="232.7586206896552" y="189.6551724137931" width="8.620689655172415" height="8.620689655172415" fill="#0e372d"/>
          <rect x="258.62068965517244" y="189.6551724137931" width="8.620689655172415" height="8.620689655172415" fill="#0e372d"/>
          <rect x="267.2413793103448" y="189.6551724137931" width="8.620689655172415" height="8.620689655172415" fill="#0e372d"/>
          <rect x="0.0" y="198.27586206896552" width="8.620689655172415" height="8.620689655172415" fill="#0e372d"/>
          <rect x="25.862068965517246" y="198.27586206896552" width="8.620689655172415" height="8.620689655172415" fill="#0e372d"/>
          <rect x="34.48275862068966" y="198.27586206896552" width="8.620689655172415" height="8.620689655172415" fill="#0e372d"/>
          <rect x="60.344827586206904" y="198.27586206896552" width="8.620689655172415" height="8.620689655172415" fill="#0e372d"/>
          <rect x="68.96551724137932" y="198.27586206896552" width="8.620689655172415" height="8.620689655172415" fill="#0e372d"/>
          <rect x="137.93103448275863" y="198.27586206896552" width="8.620689655172415" height="8.620689655172415" fill="#0e372d"/>
          <rect x="155.17241379310346" y="198.27586206896552" width="8.620689655172415" height="8.620689655172415" fill="#0e372d"/>
          <rect x="181.0344827586207" y="198.27586206896552" width="8.620689655172415" height="8.620689655172415" fill="#0e372d"/>
          <rect x="206.89655172413796" y="198.27586206896552" width="8.620689655172415" height="8.620689655172415" fill="#0e372d"/>
          <rect x="215.51724137931038" y="198.27586206896552" width="8.620689655172415" height="8.620689655172415" fill="#0e372d"/>
          <rect x="224.1379310344828" y="198.27586206896552" width="8.620689655172415" height="8.620689655172415" fill="#0e372d"/>
          <rect x="232.7586206896552" y="198.27586206896552" width="8.620689655172415" height="8.620689655172415" fill="#0e372d"/>
          <rect x="241.37931034482762" y="198.27586206896552" width="8.620689655172415" height="8.620689655172415" fill="#0e372d"/>
          <rect x="258.62068965517244" y="198.27586206896552" width="8.620689655172415" height="8.620689655172415" fill="#0e372d"/>
          <rect x="275.86206896551727" y="198.27586206896552" width="8.620689655172415" height="8.620689655172415" fill="#0e372d"/>
          <rect x="0.0" y="206.89655172413796" width="8.620689655172415" height="8.620689655172415" fill="#0e372d"/>
          <rect x="17.24137931034483" y="206.89655172413796" width="8.620689655172415" height="8.620689655172415" fill="#0e372d"/>
          <rect x="51.72413793103449" y="206.89655172413796" width="8.620689655172415" height="8.620689655172415" fill="#0e372d"/>
          <rect x="60.344827586206904" y="206.89655172413796" width="8.620689655172415" height="8.620689655172415" fill="#0e372d"/>
          <rect x="68.96551724137932" y="206.89655172413796" width="8.620689655172415" height="8.620689655172415" fill="#0e372d"/>
          <rect x="77.58620689655173" y="206.89655172413796" width="8.620689655172415" height="8.620689655172415" fill="#0e372d"/>
          <rect x="86.20689655172414" y="206.89655172413796" width="8.620689655172415" height="8.620689655172415" fill="#0e372d"/>
          <rect x="112.0689655172414" y="206.89655172413796" width="8.620689655172415" height="8.620689655172415" fill="#0e372d"/>
          <rect x="120.68965517241381" y="206.89655172413796" width="8.620689655172415" height="8.620689655172415" fill="#0e372d"/>
          <rect x="129.31034482758622" y="206.89655172413796" width="8.620689655172415" height="8.620689655172415" fill="#0e372d"/>
          <rect x="137.93103448275863" y="206.89655172413796" width="8.620689655172415" height="8.620689655172415" fill="#0e372d"/>
          <rect x="146.55172413793105" y="206.89655172413796" width="8.620689655172415" height="8.620689655172415" fill="#0e372d"/>
          <rect x="163.79310344827587" y="206.89655172413796" width="8.620689655172415" height="8.620689655172415" fill="#0e372d"/>
          <rect x="189.6551724137931" y="206.89655172413796" width="8.620689655172415" height="8.620689655172415" fill="#0e372d"/>
          <rect x="206.89655172413796" y="206.89655172413796" width="8.620689655172415" height="8.620689655172415" fill="#0e372d"/>
          <rect x="215.51724137931038" y="206.89655172413796" width="8.620689655172415" height="8.620689655172415" fill="#0e372d"/>
          <rect x="224.1379310344828" y="206.89655172413796" width="8.620689655172415" height="8.620689655172415" fill="#0e372d"/>
          <rect x="232.7586206896552" y="206.89655172413796" width="8.620689655172415" height="8.620689655172415" fill="#0e372d"/>
          <rect x="241.37931034482762" y="206.89655172413796" width="8.620689655172415" height="8.620689655172415" fill="#0e372d"/>
          <rect x="275.86206896551727" y="206.89655172413796" width="8.620689655172415" height="8.620689655172415" fill="#0e372d"/>
          <rect x="68.96551724137932" y="215.51724137931038" width="8.620689655172415" height="8.620689655172415" fill="#0e372d"/>
          <rect x="103.44827586206898" y="215.51724137931038" width="8.620689655172415" height="8.620689655172415" fill="#0e372d"/>
          <rect x="112.0689655172414" y="215.51724137931038" width="8.620689655172415" height="8.620689655172415" fill="#0e372d"/>
          <rect x="155.17241379310346" y="215.51724137931038" width="8.620689655172415" height="8.620689655172415" fill="#0e372d"/>
          <rect x="163.79310344827587" y="215.51724137931038" width="8.620689655172415" height="8.620689655172415" fill="#0e372d"/>
          <rect x="172.41379310344828" y="215.51724137931038" width="8.620689655172415" height="8.620689655172415" fill="#0e372d"/>
          <rect x="181.0344827586207" y="215.51724137931038" width="8.620689655172415" height="8.620689655172415" fill="#0e372d"/>
          <rect x="206.89655172413796" y="215.51724137931038" width="8.620689655172415" height="8.620689655172415" fill="#0e372d"/>
          <rect x="241.37931034482762" y="215.51724137931038" width="8.620689655172415" height="8.620689655172415" fill="#0e372d"/>
          <rect x="258.62068965517244" y="215.51724137931038" width="8.620689655172415" height="8.620689655172415" fill="#0e372d"/>
          <rect x="275.86206896551727" y="215.51724137931038" width="8.620689655172415" height="8.620689655172415" fill="#0e372d"/>
          <rect x="0.0" y="224.1379310344828" width="8.620689655172415" height="8.620689655172415" fill="#0e372d"/>
          <rect x="8.620689655172415" y="224.1379310344828" width="8.620689655172415" height="8.620689655172415" fill="#0e372d"/>
          <rect x="17.24137931034483" y="224.1379310344828" width="8.620689655172415" height="8.620689655172415" fill="#0e372d"/>
          <rect x="25.862068965517246" y="224.1379310344828" width="8.620689655172415" height="8.620689655172415" fill="#0e372d"/>
          <rect x="34.48275862068966" y="224.1379310344828" width="8.620689655172415" height="8.620689655172415" fill="#0e372d"/>
          <rect x="43.10344827586207" y="224.1379310344828" width="8.620689655172415" height="8.620689655172415" fill="#0e372d"/>
          <rect x="51.72413793103449" y="224.1379310344828" width="8.620689655172415" height="8.620689655172415" fill="#0e372d"/>
          <rect x="77.58620689655173" y="224.1379310344828" width="8.620689655172415" height="8.620689655172415" fill="#0e372d"/>
          <rect x="86.20689655172414" y="224.1379310344828" width="8.620689655172415" height="8.620689655172415" fill="#0e372d"/>
          <rect x="94.82758620689656" y="224.1379310344828" width="8.620689655172415" height="8.620689655172415" fill="#0e372d"/>
          <rect x="112.0689655172414" y="224.1379310344828" width="8.620689655172415" height="8.620689655172415" fill="#0e372d"/>
          <rect x="129.31034482758622" y="224.1379310344828" width="8.620689655172415" height="8.620689655172415" fill="#0e372d"/>
          <rect x="137.93103448275863" y="224.1379310344828" width="8.620689655172415" height="8.620689655172415" fill="#0e372d"/>
          <rect x="146.55172413793105" y="224.1379310344828" width="8.620689655172415" height="8.620689655172415" fill="#0e372d"/>
          <rect x="155.17241379310346" y="224.1379310344828" width="8.620689655172415" height="8.620689655172415" fill="#0e372d"/>
          <rect x="172.41379310344828" y="224.1379310344828" width="8.620689655172415" height="8.620689655172415" fill="#0e372d"/>
          <rect x="198.27586206896552" y="224.1379310344828" width="8.620689655172415" height="8.620689655172415" fill="#0e372d"/>
          <rect x="206.89655172413796" y="224.1379310344828" width="8.620689655172415" height="8.620689655172415" fill="#0e372d"/>
          <rect x="224.1379310344828" y="224.1379310344828" width="8.620689655172415" height="8.620689655172415" fill="#0e372d"/>
          <rect x="241.37931034482762" y="224.1379310344828" width="8.620689655172415" height="8.620689655172415" fill="#0e372d"/>
          <rect x="258.62068965517244" y="224.1379310344828" width="8.620689655172415" height="8.620689655172415" fill="#0e372d"/>
          <rect x="267.2413793103448" y="224.1379310344828" width="8.620689655172415" height="8.620689655172415" fill="#0e372d"/>
          <rect x="0.0" y="232.7586206896552" width="8.620689655172415" height="8.620689655172415" fill="#0e372d"/>
          <rect x="51.72413793103449" y="232.7586206896552" width="8.620689655172415" height="8.620689655172415" fill="#0e372d"/>
          <rect x="68.96551724137932" y="232.7586206896552" width="8.620689655172415" height="8.620689655172415" fill="#0e372d"/>
          <rect x="112.0689655172414" y="232.7586206896552" width="8.620689655172415" height="8.620689655172415" fill="#0e372d"/>
          <rect x="120.68965517241381" y="232.7586206896552" width="8.620689655172415" height="8.620689655172415" fill="#0e372d"/>
          <rect x="129.31034482758622" y="232.7586206896552" width="8.620689655172415" height="8.620689655172415" fill="#0e372d"/>
          <rect x="155.17241379310346" y="232.7586206896552" width="8.620689655172415" height="8.620689655172415" fill="#0e372d"/>
          <rect x="163.79310344827587" y="232.7586206896552" width="8.620689655172415" height="8.620689655172415" fill="#0e372d"/>
          <rect x="172.41379310344828" y="232.7586206896552" width="8.620689655172415" height="8.620689655172415" fill="#0e372d"/>
          <rect x="181.0344827586207" y="232.7586206896552" width="8.620689655172415" height="8.620689655172415" fill="#0e372d"/>
          <rect x="198.27586206896552" y="232.7586206896552" width="8.620689655172415" height="8.620689655172415" fill="#0e372d"/>
          <rect x="206.89655172413796" y="232.7586206896552" width="8.620689655172415" height="8.620689655172415" fill="#0e372d"/>
          <rect x="241.37931034482762" y="232.7586206896552" width="8.620689655172415" height="8.620689655172415" fill="#0e372d"/>
          <rect x="250.00000000000003" y="232.7586206896552" width="8.620689655172415" height="8.620689655172415" fill="#0e372d"/>
          <rect x="258.62068965517244" y="232.7586206896552" width="8.620689655172415" height="8.620689655172415" fill="#0e372d"/>
          <rect x="267.2413793103448" y="232.7586206896552" width="8.620689655172415" height="8.620689655172415" fill="#0e372d"/>
          <rect x="0.0" y="241.37931034482762" width="8.620689655172415" height="8.620689655172415" fill="#0e372d"/>
          <rect x="17.24137931034483" y="241.37931034482762" width="8.620689655172415" height="8.620689655172415" fill="#0e372d"/>
          <rect x="25.862068965517246" y="241.37931034482762" width="8.620689655172415" height="8.620689655172415" fill="#0e372d"/>
          <rect x="34.48275862068966" y="241.37931034482762" width="8.620689655172415" height="8.620689655172415" fill="#0e372d"/>
          <rect x="51.72413793103449" y="241.37931034482762" width="8.620689655172415" height="8.620689655172415" fill="#0e372d"/>
          <rect x="68.96551724137932" y="241.37931034482762" width="8.620689655172415" height="8.620689655172415" fill="#0e372d"/>
          <rect x="86.20689655172414" y="241.37931034482762" width="8.620689655172415" height="8.620689655172415" fill="#0e372d"/>
          <rect x="103.44827586206898" y="241.37931034482762" width="8.620689655172415" height="8.620689655172415" fill="#0e372d"/>
          <rect x="112.0689655172414" y="241.37931034482762" width="8.620689655172415" height="8.620689655172415" fill="#0e372d"/>
          <rect x="120.68965517241381" y="241.37931034482762" width="8.620689655172415" height="8.620689655172415" fill="#0e372d"/>
          <rect x="137.93103448275863" y="241.37931034482762" width="8.620689655172415" height="8.620689655172415" fill="#0e372d"/>
          <rect x="146.55172413793105" y="241.37931034482762" width="8.620689655172415" height="8.620689655172415" fill="#0e372d"/>
          <rect x="155.17241379310346" y="241.37931034482762" width="8.620689655172415" height="8.620689655172415" fill="#0e372d"/>
          <rect x="163.79310344827587" y="241.37931034482762" width="8.620689655172415" height="8.620689655172415" fill="#0e372d"/>
          <rect x="172.41379310344828" y="241.37931034482762" width="8.620689655172415" height="8.620689655172415" fill="#0e372d"/>
          <rect x="189.6551724137931" y="241.37931034482762" width="8.620689655172415" height="8.620689655172415" fill="#0e372d"/>
          <rect x="206.89655172413796" y="241.37931034482762" width="8.620689655172415" height="8.620689655172415" fill="#0e372d"/>
          <rect x="215.51724137931038" y="241.37931034482762" width="8.620689655172415" height="8.620689655172415" fill="#0e372d"/>
          <rect x="224.1379310344828" y="241.37931034482762" width="8.620689655172415" height="8.620689655172415" fill="#0e372d"/>
          <rect x="232.7586206896552" y="241.37931034482762" width="8.620689655172415" height="8.620689655172415" fill="#0e372d"/>
          <rect x="241.37931034482762" y="241.37931034482762" width="8.620689655172415" height="8.620689655172415" fill="#0e372d"/>
          <rect x="250.00000000000003" y="241.37931034482762" width="8.620689655172415" height="8.620689655172415" fill="#0e372d"/>
          <rect x="267.2413793103448" y="241.37931034482762" width="8.620689655172415" height="8.620689655172415" fill="#0e372d"/>
          <rect x="275.86206896551727" y="241.37931034482762" width="8.620689655172415" height="8.620689655172415" fill="#0e372d"/>
          <rect x="0.0" y="250.00000000000003" width="8.620689655172415" height="8.620689655172415" fill="#0e372d"/>
          <rect x="17.24137931034483" y="250.00000000000003" width="8.620689655172415" height="8.620689655172415" fill="#0e372d"/>
          <rect x="25.862068965517246" y="250.00000000000003" width="8.620689655172415" height="8.620689655172415" fill="#0e372d"/>
          <rect x="34.48275862068966" y="250.00000000000003" width="8.620689655172415" height="8.620689655172415" fill="#0e372d"/>
          <rect x="51.72413793103449" y="250.00000000000003" width="8.620689655172415" height="8.620689655172415" fill="#0e372d"/>
          <rect x="68.96551724137932" y="250.00000000000003" width="8.620689655172415" height="8.620689655172415" fill="#0e372d"/>
          <rect x="163.79310344827587" y="250.00000000000003" width="8.620689655172415" height="8.620689655172415" fill="#0e372d"/>
          <rect x="181.0344827586207" y="250.00000000000003" width="8.620689655172415" height="8.620689655172415" fill="#0e372d"/>
          <rect x="206.89655172413796" y="250.00000000000003" width="8.620689655172415" height="8.620689655172415" fill="#0e372d"/>
          <rect x="215.51724137931038" y="250.00000000000003" width="8.620689655172415" height="8.620689655172415" fill="#0e372d"/>
          <rect x="241.37931034482762" y="250.00000000000003" width="8.620689655172415" height="8.620689655172415" fill="#0e372d"/>
          <rect x="250.00000000000003" y="250.00000000000003" width="8.620689655172415" height="8.620689655172415" fill="#0e372d"/>
          <rect x="267.2413793103448" y="250.00000000000003" width="8.620689655172415" height="8.620689655172415" fill="#0e372d"/>
          <rect x="275.86206896551727" y="250.00000000000003" width="8.620689655172415" height="8.620689655172415" fill="#0e372d"/>
          <rect x="0.0" y="258.62068965517244" width="8.620689655172415" height="8.620689655172415" fill="#0e372d"/>
          <rect x="17.24137931034483" y="258.62068965517244" width="8.620689655172415" height="8.620689655172415" fill="#0e372d"/>
          <rect x="25.862068965517246" y="258.62068965517244" width="8.620689655172415" height="8.620689655172415" fill="#0e372d"/>
          <rect x="34.48275862068966" y="258.62068965517244" width="8.620689655172415" height="8.620689655172415" fill="#0e372d"/>
          <rect x="51.72413793103449" y="258.62068965517244" width="8.620689655172415" height="8.620689655172415" fill="#0e372d"/>
          <rect x="68.96551724137932" y="258.62068965517244" width="8.620689655172415" height="8.620689655172415" fill="#0e372d"/>
          <rect x="77.58620689655173" y="258.62068965517244" width="8.620689655172415" height="8.620689655172415" fill="#0e372d"/>
          <rect x="86.20689655172414" y="258.62068965517244" width="8.620689655172415" height="8.620689655172415" fill="#0e372d"/>
          <rect x="94.82758620689656" y="258.62068965517244" width="8.620689655172415" height="8.620689655172415" fill="#0e372d"/>
          <rect x="103.44827586206898" y="258.62068965517244" width="8.620689655172415" height="8.620689655172415" fill="#0e372d"/>
          <rect x="120.68965517241381" y="258.62068965517244" width="8.620689655172415" height="8.620689655172415" fill="#0e372d"/>
          <rect x="129.31034482758622" y="258.62068965517244" width="8.620689655172415" height="8.620689655172415" fill="#0e372d"/>
          <rect x="146.55172413793105" y="258.62068965517244" width="8.620689655172415" height="8.620689655172415" fill="#0e372d"/>
          <rect x="155.17241379310346" y="258.62068965517244" width="8.620689655172415" height="8.620689655172415" fill="#0e372d"/>
          <rect x="172.41379310344828" y="258.62068965517244" width="8.620689655172415" height="8.620689655172415" fill="#0e372d"/>
          <rect x="224.1379310344828" y="258.62068965517244" width="8.620689655172415" height="8.620689655172415" fill="#0e372d"/>
          <rect x="232.7586206896552" y="258.62068965517244" width="8.620689655172415" height="8.620689655172415" fill="#0e372d"/>
          <rect x="250.00000000000003" y="258.62068965517244" width="8.620689655172415" height="8.620689655172415" fill="#0e372d"/>
          <rect x="258.62068965517244" y="258.62068965517244" width="8.620689655172415" height="8.620689655172415" fill="#0e372d"/>
          <rect x="0.0" y="267.2413793103448" width="8.620689655172415" height="8.620689655172415" fill="#0e372d"/>
          <rect x="51.72413793103449" y="267.2413793103448" width="8.620689655172415" height="8.620689655172415" fill="#0e372d"/>
          <rect x="94.82758620689656" y="267.2413793103448" width="8.620689655172415" height="8.620689655172415" fill="#0e372d"/>
          <rect x="120.68965517241381" y="267.2413793103448" width="8.620689655172415" height="8.620689655172415" fill="#0e372d"/>
          <rect x="129.31034482758622" y="267.2413793103448" width="8.620689655172415" height="8.620689655172415" fill="#0e372d"/>
          <rect x="137.93103448275863" y="267.2413793103448" width="8.620689655172415" height="8.620689655172415" fill="#0e372d"/>
          <rect x="163.79310344827587" y="267.2413793103448" width="8.620689655172415" height="8.620689655172415" fill="#0e372d"/>
          <rect x="181.0344827586207" y="267.2413793103448" width="8.620689655172415" height="8.620689655172415" fill="#0e372d"/>
          <rect x="189.6551724137931" y="267.2413793103448" width="8.620689655172415" height="8.620689655172415" fill="#0e372d"/>
          <rect x="215.51724137931038" y="267.2413793103448" width="8.620689655172415" height="8.620689655172415" fill="#0e372d"/>
          <rect x="224.1379310344828" y="267.2413793103448" width="8.620689655172415" height="8.620689655172415" fill="#0e372d"/>
          <rect x="241.37931034482762" y="267.2413793103448" width="8.620689655172415" height="8.620689655172415" fill="#0e372d"/>
          <rect x="258.62068965517244" y="267.2413793103448" width="8.620689655172415" height="8.620689655172415" fill="#0e372d"/>
          <rect x="0.0" y="275.86206896551727" width="8.620689655172415" height="8.620689655172415" fill="#0e372d"/>
          <rect x="8.620689655172415" y="275.86206896551727" width="8.620689655172415" height="8.620689655172415" fill="#0e372d"/>
          <rect x="17.24137931034483" y="275.86206896551727" width="8.620689655172415" height="8.620689655172415" fill="#0e372d"/>
          <rect x="25.862068965517246" y="275.86206896551727" width="8.620689655172415" height="8.620689655172415" fill="#0e372d"/>
          <rect x="34.48275862068966" y="275.86206896551727" width="8.620689655172415" height="8.620689655172415" fill="#0e372d"/>
          <rect x="43.10344827586207" y="275.86206896551727" width="8.620689655172415" height="8.620689655172415" fill="#0e372d"/>
          <rect x="51.72413793103449" y="275.86206896551727" width="8.620689655172415" height="8.620689655172415" fill="#0e372d"/>
          <rect x="68.96551724137932" y="275.86206896551727" width="8.620689655172415" height="8.620689655172415" fill="#0e372d"/>
          <rect x="94.82758620689656" y="275.86206896551727" width="8.620689655172415" height="8.620689655172415" fill="#0e372d"/>
          <rect x="103.44827586206898" y="275.86206896551727" width="8.620689655172415" height="8.620689655172415" fill="#0e372d"/>
          <rect x="112.0689655172414" y="275.86206896551727" width="8.620689655172415" height="8.620689655172415" fill="#0e372d"/>
          <rect x="129.31034482758622" y="275.86206896551727" width="8.620689655172415" height="8.620689655172415" fill="#0e372d"/>
          <rect x="137.93103448275863" y="275.86206896551727" width="8.620689655172415" height="8.620689655172415" fill="#0e372d"/>
          <rect x="146.55172413793105" y="275.86206896551727" width="8.620689655172415" height="8.620689655172415" fill="#0e372d"/>
          <rect x="155.17241379310346" y="275.86206896551727" width="8.620689655172415" height="8.620689655172415" fill="#0e372d"/>
          <rect x="189.6551724137931" y="275.86206896551727" width="8.620689655172415" height="8.620689655172415" fill="#0e372d"/>
          <rect x="198.27586206896552" y="275.86206896551727" width="8.620689655172415" height="8.620689655172415" fill="#0e372d"/>
          <rect x="206.89655172413796" y="275.86206896551727" width="8.620689655172415" height="8.620689655172415" fill="#0e372d"/>
          <rect x="215.51724137931038" y="275.86206896551727" width="8.620689655172415" height="8.620689655172415" fill="#0e372d"/>
          <rect x="232.7586206896552" y="275.86206896551727" width="8.620689655172415" height="8.620689655172415" fill="#0e372d"/>
          <rect x="250.00000000000003" y="275.86206896551727" width="8.620689655172415" height="8.620689655172415" fill="#0e372d"/>
          <rect x="267.2413793103448" y="275.86206896551727" width="8.620689655172415" height="8.620689655172415" fill="#0e372d"/>
        </g>
      </svg>
    </g>
    <path d="M1793.45 894.54v877.54H206.55V894.54h405.09v224.15L972 1318.13h65.27L1412.38 1108V894.54Z" style="fill: rgb(254, 161, 191);"/>
    <path class="cls1-2" d="M206.55 894.54h405.09v224.15ZM1793.45 894.54q-190.54 106.73-381.07 213.46V894.54ZM1004.88 1330.33l-798.33 441.76h1586.9ZM1412.38 894.54V592H611.64v302.54H206.55q399.17-333.31 798.33-666.63 394.28 333.33 788.57 666.63Z"/>
    <path d="M1174.56 1243.05c-8.7-23.39-34.11-52.62-70.11-59.36-32.12-6-66.44 7-92.44 33.72-26-26.67-60.32-39.73-92.44-33.72-36 6.74-61.41 36-70.11 59.36-22.81 61.31 41.26 157.49 162.44 235.35h.22c121.18-77.86 185.25-174.04 162.44-235.35Z" style="fill: rgb(58, 79, 122);"/>
  </g>
</svg>
