<svg fill="none" xmlns="http://www.w3.org/2000/svg" width="300" height="300" viewBox="0 0 2000 2000">
  <g>
    <defs>
      <style>
        .cls2-2{fill:#e98ead}.cls2-3{fill:#fea1bf}
      </style>
    </defs>
    <g id="\u0421\u043B\u043E\u0439_2" data-name="\u0421\u043B\u043E\u0439 2">
      <g transform="translate(520, 520)scale(3.2)" fill="none">
        <svg width="300" height="300" viewBox="0 0 300 300">
          <style>
            .background-color{ fill: #fff; }.dot-color{ fill: #0e372d; }.corners-square-color-0-0{ fill: #0e372d; }.corners-dot-color-0-0{ fill: #0e372d; }.corners-square-color-1-0{ fill: #0e372d; }.corners-dot-color-1-0{ fill: #0e372d; }.corners-square-color-0-1{ fill: #0e372d; }.corners-dot-color-0-1{ fill: #0e372d; }
          </style>
          <defs/>
          <g transform="translate(7.758620689655146,7.758620689655146)">
            <rect x="0" y="0" width="284.4827586206897" height="284.4827586206897" fill="#ffffff"/>
            <rect x="0.0" y="0.0" width="8.620689655172415" height="8.620689655172415" fill="#0e372d"/>
            <rect x="8.620689655172415" y="0.0" width="8.620689655172415" height="8.620689655172415" fill="#0e372d"/>
            <rect x="17.24137931034483" y="0.0" width="8.620689655172415" height="8.620689655172415" fill="#0e372d"/>
            <rect x="25.862068965517246" y="0.0" width="8.620689655172415" height="8.620689655172415" fill="#0e372d"/>
            <rect x="34.48275862068966" y="0.0" width="8.620689655172415" height="8.620689655172415" fill="#0e372d"/>
            <rect x="43.10344827586207" y="0.0" width="8.620689655172415" height="8.620689655172415" fill="#0e372d"/>
            <rect x="51.72413793103449" y="0.0" width="8.620689655172415" height="8.620689655172415" fill="#0e372d"/>
            <rect x="94.82758620689656" y="0.0" width="8.620689655172415" height="8.620689655172415" fill="#0e372d"/>
            <rect x="120.68965517241381" y="0.0" width="8.620689655172415" height="8.620689655172415" fill="#0e372d"/>
            <rect x="155.17241379310346" y="0.0" width="8.620689655172415" height="8.620689655172415" fill="#0e372d"/>
            <rect x="163.79310344827587" y="0.0" width="8.620689655172415" height="8.620689655172415" fill="#0e372d"/>
            <rect x="181.0344827586207" y="0.0" width="8.620689655172415" height="8.620689655172415" fill="#0e372d"/>
            <rect x="189.6551724137931" y="0.0" width="8.620689655172415" height="8.620689655172415" fill="#0e372d"/>
            <rect x="198.27586206896552" y="0.0" width="8.620689655172415" height="8.620689655172415" fill="#0e372d"/>
            <rect x="224.1379310344828" y="0.0" width="8.620689655172415" height="8.620689655172415" fill="#0e372d"/>
            <rect x="232.7586206896552" y="0.0" width="8.620689655172415" height="8.620689655172415" fill="#0e372d"/>
            <rect x="241.37931034482762" y="0.0" width="8.620689655172415" height="8.620689655172415" fill="#0e372d"/>
            <rect x="250.00000000000003" y="0.0" width="8.620689655172415" height="8.620689655172415" fill="#0e372d"/>
            <rect x="258.62068965517244" y="0.0" width="8.620689655172415" height="8.620689655172415" fill="#0e372d"/>
            <rect x="267.2413793103448" y="0.0" width="8.620689655172415" height="8.620689655172415" fill="#0e372d"/>
            <rect x="275.86206896551727" y="0.0" width="8.620689655172415" height="8.620689655172415" fill="#0e372d"/>
            <rect x="0.0" y="8.620689655172415" width="8.620689655172415" height="8.620689655172415" fill="#0e372d"/>
            <rect x="51.72413793103449" y="8.620689655172415" width="8.620689655172415" height="8.620689655172415" fill="#0e372d"/>
            <rect x="77.58620689655173" y="8.620689655172415" width="8.620689655172415" height="8.620689655172415" fill="#0e372d"/>
            <rect x="103.44827586206898" y="8.620689655172415" width="8.620689655172415" height="8.620689655172415" fill="#0e372d"/>
            <rect x="129.31034482758622" y="8.620689655172415" width="8.620689655172415" height="8.620689655172415" fill="#0e372d"/>
            <rect x="137.93103448275863" y="8.620689655172415" width="8.620689655172415" height="8.620689655172415" fill="#0e372d"/>
            <rect x="155.17241379310346" y="8.620689655172415" width="8.620689655172415" height="8.620689655172415" fill="#0e372d"/>
            <rect x="172.41379310344828" y="8.620689655172415" width="8.620689655172415" height="8.620689655172415" fill="#0e372d"/>
            <rect x="189.6551724137931" y="8.620689655172415" width="8.620689655172415" height="8.620689655172415" fill="#0e372d"/>
            <rect x="224.1379310344828" y="8.620689655172415" width="8.620689655172415" height="8.620689655172415" fill="#0e372d"/>
            <rect x="275.86206896551727" y="8.620689655172415" width="8.620689655172415" height="8.620689655172415" fill="#0e372d"/>
            <rect x="0.0" y="17.24137931034483" width="8.620689655172415" height="8.620689655172415" fill="#0e372d"/>
            <rect x="17.24137931034483" y="17.24137931034483" width="8.620689655172415" height="8.620689655172415" fill="#0e372d"/>
            <rect x="25.862068965517246" y="17.24137931034483" width="8.620689655172415" height="8.620689655172415" fill="#0e372d"/>
            <rect x="34.48275862068966" y="17.24137931034483" width="8.620689655172415" height="8.620689655172415" fill="#0e372d"/>
            <rect x="51.72413793103449" y="17.24137931034483" width="8.620689655172415" height="8.620689655172415" fill="#0e372d"/>
            <rect x="68.96551724137932" y="17.24137931034483" width="8.620689655172415" height="8.620689655172415" fill="#0e372d"/>
            <rect x="94.82758620689656" y="17.24137931034483" width="8.620689655172415" height="8.620689655172415" fill="#0e372d"/>
            <rect x="103.44827586206898" y="17.24137931034483" width="8.620689655172415" height="8.620689655172415" fill="#0e372d"/>
            <rect x="120.68965517241381" y="17.24137931034483" width="8.620689655172415" height="8.620689655172415" fill="#0e372d"/>
            <rect x="129.31034482758622" y="17.24137931034483" width="8.620689655172415" height="8.620689655172415" fill="#0e372d"/>
            <rect x="163.79310344827587" y="17.24137931034483" width="8.620689655172415" height="8.620689655172415" fill="#0e372d"/>
            <rect x="181.0344827586207" y="17.24137931034483" width="8.620689655172415" height="8.620689655172415" fill="#0e372d"/>
            <rect x="198.27586206896552" y="17.24137931034483" width="8.620689655172415" height="8.620689655172415" fill="#0e372d"/>
            <rect x="224.1379310344828" y="17.24137931034483" width="8.620689655172415" height="8.620689655172415" fill="#0e372d"/>
            <rect x="241.37931034482762" y="17.24137931034483" width="8.620689655172415" height="8.620689655172415" fill="#0e372d"/>
            <rect x="250.00000000000003" y="17.24137931034483" width="8.620689655172415" height="8.620689655172415" fill="#0e372d"/>
            <rect x="258.62068965517244" y="17.24137931034483" width="8.620689655172415" height="8.620689655172415" fill="#0e372d"/>
            <rect x="275.86206896551727" y="17.24137931034483" width="8.620689655172415" height="8.620689655172415" fill="#0e372d"/>
            <rect x="0.0" y="25.862068965517246" width="8.620689655172415" height="8.620689655172415" fill="#0e372d"/>
            <rect x="17.24137931034483" y="25.862068965517246" width="8.620689655172415" height="8.620689655172415" fill="#0e372d"/>
            <rect x="25.862068965517246" y="25.862068965517246" width="8.620689655172415" height="8.620689655172415" fill="#0e372d"/>
            <rect x="34.48275862068966" y="25.862068965517246" width="8.620689655172415" height="8.620689655172415" fill="#0e372d"/>
            <rect x="51.72413793103449" y="25.862068965517246" width="8.620689655172415" height="8.620689655172415" fill="#0e372d"/>
            <rect x="68.96551724137932" y="25.862068965517246" width="8.620689655172415" height="8.620689655172415" fill="#0e372d"/>
            <rect x="77.58620689655173" y="25.862068965517246" width="8.620689655172415" height="8.620689655172415" fill="#0e372d"/>
            <rect x="86.20689655172414" y="25.862068965517246" width="8.620689655172415" height="8.620689655172415" fill="#0e372d"/>
            <rect x="103.44827586206898" y="25.862068965517246" width="8.620689655172415" height="8.620689655172415" fill="#0e372d"/>
            <rect x="129.31034482758622" y="25.862068965517246" width="8.620689655172415" height="8.620689655172415" fill="#0e372d"/>
            <rect x="146.55172413793105" y="25.862068965517246" width="8.620689655172415" height="8.620689655172415" fill="#0e372d"/>
            <rect x="155.17241379310346" y="25.862068965517246" width="8.620689655172415" height="8.620689655172415" fill="#0e372d"/>
            <rect x="172.41379310344828" y="25.862068965517246" width="8.620689655172415" height="8.620689655172415" fill="#0e372d"/>
            <rect x="224.1379310344828" y="25.862068965517246" width="8.620689655172415" height="8.620689655172415" fill="#0e372d"/>
            <rect x="241.37931034482762" y="25.862068965517246" width="8.620689655172415" height="8.620689655172415" fill="#0e372d"/>
            <rect x="250.00000000000003" y="25.862068965517246" width="8.620689655172415" height="8.620689655172415" fill="#0e372d"/>
            <rect x="258.62068965517244" y="25.862068965517246" width="8.620689655172415" height="8.620689655172415" fill="#0e372d"/>
            <rect x="275.86206896551727" y="25.862068965517246" width="8.620689655172415" height="8.620689655172415" fill="#0e372d"/>
            <rect x="0.0" y="34.48275862068966" width="8.620689655172415" height="8.620689655172415" fill="#0e372d"/>
            <rect x="17.24137931034483" y="34.48275862068966" width="8.620689655172415" height="8.620689655172415" fill="#0e372d"/>
            <rect x="25.862068965517246" y="34.48275862068966" width="8.620689655172415" height="8.620689655172415" fill="#0e372d"/>
            <rect x="34.48275862068966" y="34.48275862068966" width="8.620689655172415" height="8.620689655172415" fill="#0e372d"/>
            <rect x="51.72413793103449" y="34.48275862068966" width="8.620689655172415" height="8.620689655172415" fill="#0e372d"/>
            <rect x="68.96551724137932" y="34.48275862068966" width="8.620689655172415" height="8.620689655172415" fill="#0e372d"/>
            <rect x="77.58620689655173" y="34.48275862068966" width="8.620689655172415" height="8.620689655172415" fill="#0e372d"/>
            <rect x="86.20689655172414" y="34.48275862068966" width="8.620689655172415" height="8.620689655172415" fill="#0e372d"/>
            <rect x="120.68965517241381" y="34.48275862068966" width="8.620689655172415" height="8.620689655172415" fill="#0e372d"/>
            <rect x="129.31034482758622" y="34.48275862068966" width="8.620689655172415" height="8.620689655172415" fill="#0e372d"/>
            <rect x="137.93103448275863" y="34.48275862068966" width="8.620689655172415" height="8.620689655172415" fill="#0e372d"/>
            <rect x="146.55172413793105" y="34.48275862068966" width="8.620689655172415" height="8.620689655172415" fill="#0e372d"/>
            <rect x="163.79310344827587" y="34.48275862068966" width="8.620689655172415" height="8.620689655172415" fill="#0e372d"/>
            <rect x="181.0344827586207" y="34.48275862068966" width="8.620689655172415" height="8.620689655172415" fill="#0e372d"/>
            <rect x="198.27586206896552" y="34.48275862068966" width="8.620689655172415" height="8.620689655172415" fill="#0e372d"/>
            <rect x="206.89655172413796" y="34.48275862068966" width="8.620689655172415" height="8.620689655172415" fill="#0e372d"/>
            <rect x="224.1379310344828" y="34.48275862068966" width="8.620689655172415" height="8.620689655172415" fill="#0e372d"/>
            <rect x="241.37931034482762" y="34.48275862068966" width="8.620689655172415" height="8.620689655172415" fill="#0e372d"/>
            <rect x="250.00000000000003" y="34.48275862068966" width="8.620689655172415" height="8.620689655172415" fill="#0e372d"/>
            <rect x="258.62068965517244" y="34.48275862068966" width="8.620689655172415" height="8.620689655172415" fill="#0e372d"/>
            <rect x="275.86206896551727" y="34.48275862068966" width="8.620689655172415" height="8.620689655172415" fill="#0e372d"/>
            <rect x="0.0" y="43.10344827586207" width="8.620689655172415" height="8.620689655172415" fill="#0e372d"/>
            <rect x="51.72413793103449" y="43.10344827586207" width="8.620689655172415" height="8.620689655172415" fill="#0e372d"/>
            <rect x="68.96551724137932" y="43.10344827586207" width="8.620689655172415" height="8.620689655172415" fill="#0e372d"/>
            <rect x="94.82758620689656" y="43.10344827586207" width="8.620689655172415" height="8.620689655172415" fill="#0e372d"/>
            <rect x="146.55172413793105" y="43.10344827586207" width="8.620689655172415" height="8.620689655172415" fill="#0e372d"/>
            <rect x="172.41379310344828" y="43.10344827586207" width="8.620689655172415" height="8.620689655172415" fill="#0e372d"/>
            <rect x="181.0344827586207" y="43.10344827586207" width="8.620689655172415" height="8.620689655172415" fill="#0e372d"/>
            <rect x="224.1379310344828" y="43.10344827586207" width="8.620689655172415" height="8.620689655172415" fill="#0e372d"/>
            <rect x="275.86206896551727" y="43.10344827586207" width="8.620689655172415" height="8.620689655172415" fill="#0e372d"/>
            <rect x="0.0" y="51.72413793103449" width="8.620689655172415" height="8.620689655172415" fill="#0e372d"/>
            <rect x="8.620689655172415" y="51.72413793103449" width="8.620689655172415" height="8.620689655172415" fill="#0e372d"/>
            <rect x="17.24137931034483" y="51.72413793103449" width="8.620689655172415" height="8.620689655172415" fill="#0e372d"/>
            <rect x="25.862068965517246" y="51.72413793103449" width="8.620689655172415" height="8.620689655172415" fill="#0e372d"/>
            <rect x="34.48275862068966" y="51.72413793103449" width="8.620689655172415" height="8.620689655172415" fill="#0e372d"/>
            <rect x="43.10344827586207" y="51.72413793103449" width="8.620689655172415" height="8.620689655172415" fill="#0e372d"/>
            <rect x="51.72413793103449" y="51.72413793103449" width="8.620689655172415" height="8.620689655172415" fill="#0e372d"/>
            <rect x="68.96551724137932" y="51.72413793103449" width="8.620689655172415" height="8.620689655172415" fill="#0e372d"/>
            <rect x="86.20689655172414" y="51.72413793103449" width="8.620689655172415" height="8.620689655172415" fill="#0e372d"/>
            <rect x="103.44827586206898" y="51.72413793103449" width="8.620689655172415" height="8.620689655172415" fill="#0e372d"/>
            <rect x="120.68965517241381" y="51.72413793103449" width="8.620689655172415" height="8.620689655172415" fill="#0e372d"/>
            <rect x="137.93103448275863" y="51.72413793103449" width="8.620689655172415" height="8.620689655172415" fill="#0e372d"/>
            <rect x="155.17241379310346" y="51.72413793103449" width="8.620689655172415" height="8.620689655172415" fill="#0e372d"/>
            <rect x="172.41379310344828" y="51.72413793103449" width="8.620689655172415" height="8.620689655172415" fill="#0e372d"/>
            <rect x="189.6551724137931" y="51.72413793103449" width="8.620689655172415" height="8.620689655172415" fill="#0e372d"/>
            <rect x="206.89655172413796" y="51.72413793103449" width="8.620689655172415" height="8.620689655172415" fill="#0e372d"/>
            <rect x="224.1379310344828" y="51.72413793103449" width="8.620689655172415" height="8.620689655172415" fill="#0e372d"/>
            <rect x="232.7586206896552" y="51.72413793103449" width="8.620689655172415" height="8.620689655172415" fill="#0e372d"/>
            <rect x="241.37931034482762" y="51.72413793103449" width="8.620689655172415" height="8.620689655172415" fill="#0e372d"/>
            <rect x="250.00000000000003" y="51.72413793103449" width="8.620689655172415" height="8.620689655172415" fill="#0e372d"/>
            <rect x="258.62068965517244" y="51.72413793103449" width="8.620689655172415" height="8.620689655172415" fill="#0e372d"/>
            <rect x="267.2413793103448" y="51.72413793103449" width="8.620689655172415" height="8.620689655172415" fill="#0e372d"/>
            <rect x="275.86206896551727" y="51.72413793103449" width="8.620689655172415" height="8.620689655172415" fill="#0e372d"/>
            <rect x="68.96551724137932" y="60.344827586206904" width="8.620689655172415" height="8.620689655172415" fill="#0e372d"/>
            <rect x="77.58620689655173" y="60.344827586206904" width="8.620689655172415" height="8.620689655172415" fill="#0e372d"/>
            <rect x="103.44827586206898" y="60.344827586206904" width="8.620689655172415" height="8.620689655172415" fill="#0e372d"/>
            <rect x="120.68965517241381" y="60.344827586206904" width="8.620689655172415" height="8.620689655172415" fill="#0e372d"/>
            <rect x="137.93103448275863" y="60.344827586206904" width="8.620689655172415" height="8.620689655172415" fill="#0e372d"/>
            <rect x="163.79310344827587" y="60.344827586206904" width="8.620689655172415" height="8.620689655172415" fill="#0e372d"/>
            <rect x="181.0344827586207" y="60.344827586206904" width="8.620689655172415" height="8.620689655172415" fill="#0e372d"/>
            <rect x="198.27586206896552" y="60.344827586206904" width="8.620689655172415" height="8.620689655172415" fill="#0e372d"/>
            <rect x="0.0" y="68.96551724137932" width="8.620689655172415" height="8.620689655172415" fill="#0e372d"/>
            <rect x="17.24137931034483" y="68.96551724137932" width="8.620689655172415" height="8.620689655172415" fill="#0e372d"/>
            <rect x="25.862068965517246" y="68.96551724137932" width="8.620689655172415" height="8.620689655172415" fill="#0e372d"/>
            <rect x="34.48275862068966" y="68.96551724137932" width="8.620689655172415" height="8.620689655172415" fill="#0e372d"/>
            <rect x="43.10344827586207" y="68.96551724137932" width="8.620689655172415" height="8.620689655172415" fill="#0e372d"/>
            <rect x="51.72413793103449" y="68.96551724137932" width="8.620689655172415" height="8.620689655172415" fill="#0e372d"/>
            <rect x="77.58620689655173" y="68.96551724137932" width="8.620689655172415" height="8.620689655172415" fill="#0e372d"/>
            <rect x="86.20689655172414" y="68.96551724137932" width="8.620689655172415" height="8.620689655172415" fill="#0e372d"/>
            <rect x="94.82758620689656" y="68.96551724137932" width="8.620689655172415" height="8.620689655172415" fill="#0e372d"/>
            <rect x="103.44827586206898" y="68.96551724137932" width="8.620689655172415" height="8.620689655172415" fill="#0e372d"/>
            <rect x="112.0689655172414" y="68.96551724137932" width="8.620689655172415" height="8.620689655172415" fill="#0e372d"/>
            <rect x="137.93103448275863" y="68.96551724137932" width="8.620689655172415" height="8.620689655172415" fill="#0e372d"/>
            <rect x="146.55172413793105" y="68.96551724137932" width="8.620689655172415" height="8.620689655172415" fill="#0e372d"/>
            <rect x="155.17241379310346" y="68.96551724137932" width="8.620689655172415" height="8.620689655172415" fill="#0e372d"/>
            <rect x="189.6551724137931" y="68.96551724137932" width="8.620689655172415" height="8.620689655172415" fill="#0e372d"/>
            <rect x="206.89655172413796" y="68.96551724137932" width="8.620689655172415" height="8.620689655172415" fill="#0e372d"/>
            <rect x="224.1379310344828" y="68.96551724137932" width="8.620689655172415" height="8.620689655172415" fill="#0e372d"/>
            <rect x="232.7586206896552" y="68.96551724137932" width="8.620689655172415" height="8.620689655172415" fill="#0e372d"/>
            <rect x="241.37931034482762" y="68.96551724137932" width="8.620689655172415" height="8.620689655172415" fill="#0e372d"/>
            <rect x="250.00000000000003" y="68.96551724137932" width="8.620689655172415" height="8.620689655172415" fill="#0e372d"/>
            <rect x="258.62068965517244" y="68.96551724137932" width="8.620689655172415" height="8.620689655172415" fill="#0e372d"/>
            <rect x="8.620689655172415" y="77.58620689655173" width="8.620689655172415" height="8.620689655172415" fill="#0e372d"/>
            <rect x="17.24137931034483" y="77.58620689655173" width="8.620689655172415" height="8.620689655172415" fill="#0e372d"/>
            <rect x="34.48275862068966" y="77.58620689655173" width="8.620689655172415" height="8.620689655172415" fill="#0e372d"/>
            <rect x="60.344827586206904" y="77.58620689655173" width="8.620689655172415" height="8.620689655172415" fill="#0e372d"/>
            <rect x="68.96551724137932" y="77.58620689655173" width="8.620689655172415" height="8.620689655172415" fill="#0e372d"/>
            <rect x="77.58620689655173" y="77.58620689655173" width="8.620689655172415" height="8.620689655172415" fill="#0e372d"/>
            <rect x="86.20689655172414" y="77.58620689655173" width="8.620689655172415" height="8.620689655172415" fill="#0e372d"/>
            <rect x="103.44827586206898" y="77.58620689655173" width="8.620689655172415" height="8.620689655172415" fill="#0e372d"/>
            <rect x="112.0689655172414" y="77.58620689655173" width="8.620689655172415" height="8.620689655172415" fill="#0e372d"/>
            <rect x="146.55172413793105" y="77.58620689655173" width="8.620689655172415" height="8.620689655172415" fill="#0e372d"/>
            <rect x="163.79310344827587" y="77.58620689655173" width="8.620689655172415" height="8.620689655172415" fill="#0e372d"/>
            <rect x="172.41379310344828" y="77.58620689655173" width="8.620689655172415" height="8.620689655172415" fill="#0e372d"/>
            <rect x="189.6551724137931" y="77.58620689655173" width="8.620689655172415" height="8.620689655172415" fill="#0e372d"/>
            <rect x="198.27586206896552" y="77.58620689655173" width="8.620689655172415" height="8.620689655172415" fill="#0e372d"/>
            <rect x="224.1379310344828" y="77.58620689655173" width="8.620689655172415" height="8.620689655172415" fill="#0e372d"/>
            <rect x="232.7586206896552" y="77.58620689655173" width="8.620689655172415" height="8.620689655172415" fill="#0e372d"/>
            <rect x="250.00000000000003" y="77.58620689655173" width="8.620689655172415" height="8.620689655172415" fill="#0e372d"/>
            <rect x="258.62068965517244" y="77.58620689655173" width="8.620689655172415" height="8.620689655172415" fill="#0e372d"/>
            <rect x="267.2413793103448" y="77.58620689655173" width="8.620689655172415" height="8.620689655172415" fill="#0e372d"/>
            <rect x="275.86206896551727" y="77.58620689655173" width="8.620689655172415" height="8.620689655172415" fill="#0e372d"/>
            <rect x="51.72413793103449" y="86.20689655172414" width="8.620689655172415" height="8.620689655172415" fill="#0e372d"/>
            <rect x="68.96551724137932" y="86.20689655172414" width="8.620689655172415" height="8.620689655172415" fill="#0e372d"/>
            <rect x="86.20689655172414" y="86.20689655172414" width="8.620689655172415" height="8.620689655172415" fill="#0e372d"/>
            <rect x="103.44827586206898" y="86.20689655172414" width="8.620689655172415" height="8.620689655172415" fill="#0e372d"/>
            <rect x="112.0689655172414" y="86.20689655172414" width="8.620689655172415" height="8.620689655172415" fill="#0e372d"/>
            <rect x="120.68965517241381" y="86.20689655172414" width="8.620689655172415" height="8.620689655172415" fill="#0e372d"/>
            <rect x="129.31034482758622" y="86.20689655172414" width="8.620689655172415" height="8.620689655172415" fill="#0e372d"/>
            <rect x="137.93103448275863" y="86.20689655172414" width="8.620689655172415" height="8.620689655172415" fill="#0e372d"/>
            <rect x="155.17241379310346" y="86.20689655172414" width="8.620689655172415" height="8.620689655172415" fill="#0e372d"/>
            <rect x="172.41379310344828" y="86.20689655172414" width="8.620689655172415" height="8.620689655172415" fill="#0e372d"/>
            <rect x="181.0344827586207" y="86.20689655172414" width="8.620689655172415" height="8.620689655172415" fill="#0e372d"/>
            <rect x="189.6551724137931" y="86.20689655172414" width="8.620689655172415" height="8.620689655172415" fill="#0e372d"/>
            <rect x="206.89655172413796" y="86.20689655172414" width="8.620689655172415" height="8.620689655172415" fill="#0e372d"/>
            <rect x="241.37931034482762" y="86.20689655172414" width="8.620689655172415" height="8.620689655172415" fill="#0e372d"/>
            <rect x="258.62068965517244" y="86.20689655172414" width="8.620689655172415" height="8.620689655172415" fill="#0e372d"/>
            <rect x="17.24137931034483" y="94.82758620689656" width="8.620689655172415" height="8.620689655172415" fill="#0e372d"/>
            <rect x="25.862068965517246" y="94.82758620689656" width="8.620689655172415" height="8.620689655172415" fill="#0e372d"/>
            <rect x="34.48275862068966" y="94.82758620689656" width="8.620689655172415" height="8.620689655172415" fill="#0e372d"/>
            <rect x="60.344827586206904" y="94.82758620689656" width="8.620689655172415" height="8.620689655172415" fill="#0e372d"/>
            <rect x="103.44827586206898" y="94.82758620689656" width="8.620689655172415" height="8.620689655172415" fill="#0e372d"/>
            <rect x="112.0689655172414" y="94.82758620689656" width="8.620689655172415" height="8.620689655172415" fill="#0e372d"/>
            <rect x="129.31034482758622" y="94.82758620689656" width="8.620689655172415" height="8.620689655172415" fill="#0e372d"/>
            <rect x="163.79310344827587" y="94.82758620689656" width="8.620689655172415" height="8.620689655172415" fill="#0e372d"/>
            <rect x="172.41379310344828" y="94.82758620689656" width="8.620689655172415" height="8.620689655172415" fill="#0e372d"/>
            <rect x="181.0344827586207" y="94.82758620689656" width="8.620689655172415" height="8.620689655172415" fill="#0e372d"/>
            <rect x="189.6551724137931" y="94.82758620689656" width="8.620689655172415" height="8.620689655172415" fill="#0e372d"/>
            <rect x="215.51724137931038" y="94.82758620689656" width="8.620689655172415" height="8.620689655172415" fill="#0e372d"/>
            <rect x="224.1379310344828" y="94.82758620689656" width="8.620689655172415" height="8.620689655172415" fill="#0e372d"/>
            <rect x="241.37931034482762" y="94.82758620689656" width="8.620689655172415" height="8.620689655172415" fill="#0e372d"/>
            <rect x="250.00000000000003" y="94.82758620689656" width="8.620689655172415" height="8.620689655172415" fill="#0e372d"/>
            <rect x="258.62068965517244" y="94.82758620689656" width="8.620689655172415" height="8.620689655172415" fill="#0e372d"/>
            <rect x="0.0" y="103.44827586206898" width="8.620689655172415" height="8.620689655172415" fill="#0e372d"/>
            <rect x="8.620689655172415" y="103.44827586206898" width="8.620689655172415" height="8.620689655172415" fill="#0e372d"/>
            <rect x="17.24137931034483" y="103.44827586206898" width="8.620689655172415" height="8.620689655172415" fill="#0e372d"/>
            <rect x="43.10344827586207" y="103.44827586206898" width="8.620689655172415" height="8.620689655172415" fill="#0e372d"/>
            <rect x="51.72413793103449" y="103.44827586206898" width="8.620689655172415" height="8.620689655172415" fill="#0e372d"/>
            <rect x="60.344827586206904" y="103.44827586206898" width="8.620689655172415" height="8.620689655172415" fill="#0e372d"/>
            <rect x="120.68965517241381" y="103.44827586206898" width="8.620689655172415" height="8.620689655172415" fill="#0e372d"/>
            <rect x="129.31034482758622" y="103.44827586206898" width="8.620689655172415" height="8.620689655172415" fill="#0e372d"/>
            <rect x="146.55172413793105" y="103.44827586206898" width="8.620689655172415" height="8.620689655172415" fill="#0e372d"/>
            <rect x="155.17241379310346" y="103.44827586206898" width="8.620689655172415" height="8.620689655172415" fill="#0e372d"/>
            <rect x="163.79310344827587" y="103.44827586206898" width="8.620689655172415" height="8.620689655172415" fill="#0e372d"/>
            <rect x="172.41379310344828" y="103.44827586206898" width="8.620689655172415" height="8.620689655172415" fill="#0e372d"/>
            <rect x="241.37931034482762" y="103.44827586206898" width="8.620689655172415" height="8.620689655172415" fill="#0e372d"/>
            <rect x="250.00000000000003" y="103.44827586206898" width="8.620689655172415" height="8.620689655172415" fill="#0e372d"/>
            <rect x="275.86206896551727" y="103.44827586206898" width="8.620689655172415" height="8.620689655172415" fill="#0e372d"/>
            <rect x="0.0" y="112.0689655172414" width="8.620689655172415" height="8.620689655172415" fill="#0e372d"/>
            <rect x="8.620689655172415" y="112.0689655172414" width="8.620689655172415" height="8.620689655172415" fill="#0e372d"/>
            <rect x="43.10344827586207" y="112.0689655172414" width="8.620689655172415" height="8.620689655172415" fill="#0e372d"/>
            <rect x="60.344827586206904" y="112.0689655172414" width="8.620689655172415" height="8.620689655172415" fill="#0e372d"/>
            <rect x="68.96551724137932" y="112.0689655172414" width="8.620689655172415" height="8.620689655172415" fill="#0e372d"/>
            <rect x="94.82758620689656" y="112.0689655172414" width="8.620689655172415" height="8.620689655172415" fill="#0e372d"/>
            <rect x="129.31034482758622" y="112.0689655172414" width="8.620689655172415" height="8.620689655172415" fill="#0e372d"/>
            <rect x="163.79310344827587" y="112.0689655172414" width="8.620689655172415" height="8.620689655172415" fill="#0e372d"/>
            <rect x="181.0344827586207" y="112.0689655172414" width="8.620689655172415" height="8.620689655172415" fill="#0e372d"/>
            <rect x="189.6551724137931" y="112.0689655172414" width="8.620689655172415" height="8.620689655172415" fill="#0e372d"/>
            <rect x="198.27586206896552" y="112.0689655172414" width="8.620689655172415" height="8.620689655172415" fill="#0e372d"/>
            <rect x="206.89655172413796" y="112.0689655172414" width="8.620689655172415" height="8.620689655172415" fill="#0e372d"/>
            <rect x="215.51724137931038" y="112.0689655172414" width="8.620689655172415" height="8.620689655172415" fill="#0e372d"/>
            <rect x="224.1379310344828" y="112.0689655172414" width="8.620689655172415" height="8.620689655172415" fill="#0e372d"/>
            <rect x="232.7586206896552" y="112.0689655172414" width="8.620689655172415" height="8.620689655172415" fill="#0e372d"/>
            <rect x="258.62068965517244" y="112.0689655172414" width="8.620689655172415" height="8.620689655172415" fill="#0e372d"/>
            <rect x="267.2413793103448" y="112.0689655172414" width="8.620689655172415" height="8.620689655172415" fill="#0e372d"/>
            <rect x="275.86206896551727" y="112.0689655172414" width="8.620689655172415" height="8.620689655172415" fill="#0e372d"/>
            <rect x="8.620689655172415" y="120.68965517241381" width="8.620689655172415" height="8.620689655172415" fill="#0e372d"/>
            <rect x="17.24137931034483" y="120.68965517241381" width="8.620689655172415" height="8.620689655172415" fill="#0e372d"/>
            <rect x="25.862068965517246" y="120.68965517241381" width="8.620689655172415" height="8.620689655172415" fill="#0e372d"/>
            <rect x="51.72413793103449" y="120.68965517241381" width="8.620689655172415" height="8.620689655172415" fill="#0e372d"/>
            <rect x="68.96551724137932" y="120.68965517241381" width="8.620689655172415" height="8.620689655172415" fill="#0e372d"/>
            <rect x="129.31034482758622" y="120.68965517241381" width="8.620689655172415" height="8.620689655172415" fill="#0e372d"/>
            <rect x="146.55172413793105" y="120.68965517241381" width="8.620689655172415" height="8.620689655172415" fill="#0e372d"/>
            <rect x="181.0344827586207" y="120.68965517241381" width="8.620689655172415" height="8.620689655172415" fill="#0e372d"/>
            <rect x="189.6551724137931" y="120.68965517241381" width="8.620689655172415" height="8.620689655172415" fill="#0e372d"/>
            <rect x="206.89655172413796" y="120.68965517241381" width="8.620689655172415" height="8.620689655172415" fill="#0e372d"/>
            <rect x="215.51724137931038" y="120.68965517241381" width="8.620689655172415" height="8.620689655172415" fill="#0e372d"/>
            <rect x="224.1379310344828" y="120.68965517241381" width="8.620689655172415" height="8.620689655172415" fill="#0e372d"/>
            <rect x="241.37931034482762" y="120.68965517241381" width="8.620689655172415" height="8.620689655172415" fill="#0e372d"/>
            <rect x="258.62068965517244" y="120.68965517241381" width="8.620689655172415" height="8.620689655172415" fill="#0e372d"/>
            <rect x="267.2413793103448" y="120.68965517241381" width="8.620689655172415" height="8.620689655172415" fill="#0e372d"/>
            <rect x="8.620689655172415" y="129.31034482758622" width="8.620689655172415" height="8.620689655172415" fill="#0e372d"/>
            <rect x="25.862068965517246" y="129.31034482758622" width="8.620689655172415" height="8.620689655172415" fill="#0e372d"/>
            <rect x="43.10344827586207" y="129.31034482758622" width="8.620689655172415" height="8.620689655172415" fill="#0e372d"/>
            <rect x="86.20689655172414" y="129.31034482758622" width="8.620689655172415" height="8.620689655172415" fill="#0e372d"/>
            <rect x="94.82758620689656" y="129.31034482758622" width="8.620689655172415" height="8.620689655172415" fill="#0e372d"/>
            <rect x="103.44827586206898" y="129.31034482758622" width="8.620689655172415" height="8.620689655172415" fill="#0e372d"/>
            <rect x="129.31034482758622" y="129.31034482758622" width="8.620689655172415" height="8.620689655172415" fill="#0e372d"/>
            <rect x="155.17241379310346" y="129.31034482758622" width="8.620689655172415" height="8.620689655172415" fill="#0e372d"/>
            <rect x="181.0344827586207" y="129.31034482758622" width="8.620689655172415" height="8.620689655172415" fill="#0e372d"/>
            <rect x="215.51724137931038" y="129.31034482758622" width="8.620689655172415" height="8.620689655172415" fill="#0e372d"/>
            <rect x="224.1379310344828" y="129.31034482758622" width="8.620689655172415" height="8.620689655172415" fill="#0e372d"/>
            <rect x="232.7586206896552" y="129.31034482758622" width="8.620689655172415" height="8.620689655172415" fill="#0e372d"/>
            <rect x="258.62068965517244" y="129.31034482758622" width="8.620689655172415" height="8.620689655172415" fill="#0e372d"/>
            <rect x="0.0" y="137.93103448275863" width="8.620689655172415" height="8.620689655172415" fill="#0e372d"/>
            <rect x="8.620689655172415" y="137.93103448275863" width="8.620689655172415" height="8.620689655172415" fill="#0e372d"/>
            <rect x="34.48275862068966" y="137.93103448275863" width="8.620689655172415" height="8.620689655172415" fill="#0e372d"/>
            <rect x="51.72413793103449" y="137.93103448275863" width="8.620689655172415" height="8.620689655172415" fill="#0e372d"/>
            <rect x="60.344827586206904" y="137.93103448275863" width="8.620689655172415" height="8.620689655172415" fill="#0e372d"/>
            <rect x="68.96551724137932" y="137.93103448275863" width="8.620689655172415" height="8.620689655172415" fill="#0e372d"/>
            <rect x="77.58620689655173" y="137.93103448275863" width="8.620689655172415" height="8.620689655172415" fill="#0e372d"/>
            <rect x="129.31034482758622" y="137.93103448275863" width="8.620689655172415" height="8.620689655172415" fill="#0e372d"/>
            <rect x="137.93103448275863" y="137.93103448275863" width="8.620689655172415" height="8.620689655172415" fill="#0e372d"/>
            <rect x="146.55172413793105" y="137.93103448275863" width="8.620689655172415" height="8.620689655172415" fill="#0e372d"/>
            <rect x="155.17241379310346" y="137.93103448275863" width="8.620689655172415" height="8.620689655172415" fill="#0e372d"/>
            <rect x="215.51724137931038" y="137.93103448275863" width="8.620689655172415" height="8.620689655172415" fill="#0e372d"/>
            <rect x="232.7586206896552" y="137.93103448275863" width="8.620689655172415" height="8.620689655172415" fill="#0e372d"/>
            <rect x="241.37931034482762" y="137.93103448275863" width="8.620689655172415" height="8.620689655172415" fill="#0e372d"/>
            <rect x="250.00000000000003" y="137.93103448275863" width="8.620689655172415" height="8.620689655172415" fill="#0e372d"/>
            <rect x="275.86206896551727" y="137.93103448275863" width="8.620689655172415" height="8.620689655172415" fill="#0e372d"/>
            <rect x="8.620689655172415" y="146.55172413793105" width="8.620689655172415" height="8.620689655172415" fill="#0e372d"/>
            <rect x="25.862068965517246" y="146.55172413793105" width="8.620689655172415" height="8.620689655172415" fill="#0e372d"/>
            <rect x="60.344827586206904" y="146.55172413793105" width="8.620689655172415" height="8.620689655172415" fill="#0e372d"/>
            <rect x="68.96551724137932" y="146.55172413793105" width="8.620689655172415" height="8.620689655172415" fill="#0e372d"/>
            <rect x="77.58620689655173" y="146.55172413793105" width="8.620689655172415" height="8.620689655172415" fill="#0e372d"/>
            <rect x="112.0689655172414" y="146.55172413793105" width="8.620689655172415" height="8.620689655172415" fill="#0e372d"/>
            <rect x="120.68965517241381" y="146.55172413793105" width="8.620689655172415" height="8.620689655172415" fill="#0e372d"/>
            <rect x="163.79310344827587" y="146.55172413793105" width="8.620689655172415" height="8.620689655172415" fill="#0e372d"/>
            <rect x="181.0344827586207" y="146.55172413793105" width="8.620689655172415" height="8.620689655172415" fill="#0e372d"/>
            <rect x="198.27586206896552" y="146.55172413793105" width="8.620689655172415" height="8.620689655172415" fill="#0e372d"/>
            <rect x="224.1379310344828" y="146.55172413793105" width="8.620689655172415" height="8.620689655172415" fill="#0e372d"/>
            <rect x="232.7586206896552" y="146.55172413793105" width="8.620689655172415" height="8.620689655172415" fill="#0e372d"/>
            <rect x="250.00000000000003" y="146.55172413793105" width="8.620689655172415" height="8.620689655172415" fill="#0e372d"/>
            <rect x="258.62068965517244" y="146.55172413793105" width="8.620689655172415" height="8.620689655172415" fill="#0e372d"/>
            <rect x="267.2413793103448" y="146.55172413793105" width="8.620689655172415" height="8.620689655172415" fill="#0e372d"/>
            <rect x="275.86206896551727" y="146.55172413793105" width="8.620689655172415" height="8.620689655172415" fill="#0e372d"/>
            <rect x="17.24137931034483" y="155.17241379310346" width="8.620689655172415" height="8.620689655172415" fill="#0e372d"/>
            <rect x="34.48275862068966" y="155.17241379310346" width="8.620689655172415" height="8.620689655172415" fill="#0e372d"/>
            <rect x="51.72413793103449" y="155.17241379310346" width="8.620689655172415" height="8.620689655172415" fill="#0e372d"/>
            <rect x="60.344827586206904" y="155.17241379310346" width="8.620689655172415" height="8.620689655172415" fill="#0e372d"/>
            <rect x="68.96551724137932" y="155.17241379310346" width="8.620689655172415" height="8.620689655172415" fill="#0e372d"/>
            <rect x="86.20689655172414" y="155.17241379310346" width="8.620689655172415" height="8.620689655172415" fill="#0e372d"/>
            <rect x="103.44827586206898" y="155.17241379310346" width="8.620689655172415" height="8.620689655172415" fill="#0e372d"/>
            <rect x="129.31034482758622" y="155.17241379310346" width="8.620689655172415" height="8.620689655172415" fill="#0e372d"/>
            <rect x="172.41379310344828" y="155.17241379310346" width="8.620689655172415" height="8.620689655172415" fill="#0e372d"/>
            <rect x="232.7586206896552" y="155.17241379310346" width="8.620689655172415" height="8.620689655172415" fill="#0e372d"/>
            <rect x="241.37931034482762" y="155.17241379310346" width="8.620689655172415" height="8.620689655172415" fill="#0e372d"/>
            <rect x="258.62068965517244" y="155.17241379310346" width="8.620689655172415" height="8.620689655172415" fill="#0e372d"/>
            <rect x="8.620689655172415" y="163.79310344827587" width="8.620689655172415" height="8.620689655172415" fill="#0e372d"/>
            <rect x="25.862068965517246" y="163.79310344827587" width="8.620689655172415" height="8.620689655172415" fill="#0e372d"/>
            <rect x="34.48275862068966" y="163.79310344827587" width="8.620689655172415" height="8.620689655172415" fill="#0e372d"/>
            <rect x="43.10344827586207" y="163.79310344827587" width="8.620689655172415" height="8.620689655172415" fill="#0e372d"/>
            <rect x="68.96551724137932" y="163.79310344827587" width="8.620689655172415" height="8.620689655172415" fill="#0e372d"/>
            <rect x="86.20689655172414" y="163.79310344827587" width="8.620689655172415" height="8.620689655172415" fill="#0e372d"/>
            <rect x="103.44827586206898" y="163.79310344827587" width="8.620689655172415" height="8.620689655172415" fill="#0e372d"/>
            <rect x="112.0689655172414" y="163.79310344827587" width="8.620689655172415" height="8.620689655172415" fill="#0e372d"/>
            <rect x="120.68965517241381" y="163.79310344827587" width="8.620689655172415" height="8.620689655172415" fill="#0e372d"/>
            <rect x="129.31034482758622" y="163.79310344827587" width="8.620689655172415" height="8.620689655172415" fill="#0e372d"/>
            <rect x="137.93103448275863" y="163.79310344827587" width="8.620689655172415" height="8.620689655172415" fill="#0e372d"/>
            <rect x="172.41379310344828" y="163.79310344827587" width="8.620689655172415" height="8.620689655172415" fill="#0e372d"/>
            <rect x="181.0344827586207" y="163.79310344827587" width="8.620689655172415" height="8.620689655172415" fill="#0e372d"/>
            <rect x="189.6551724137931" y="163.79310344827587" width="8.620689655172415" height="8.620689655172415" fill="#0e372d"/>
            <rect x="206.89655172413796" y="163.79310344827587" width="8.620689655172415" height="8.620689655172415" fill="#0e372d"/>
            <rect x="215.51724137931038" y="163.79310344827587" width="8.620689655172415" height="8.620689655172415" fill="#0e372d"/>
            <rect x="224.1379310344828" y="163.79310344827587" width="8.620689655172415" height="8.620689655172415" fill="#0e372d"/>
            <rect x="232.7586206896552" y="163.79310344827587" width="8.620689655172415" height="8.620689655172415" fill="#0e372d"/>
            <rect x="241.37931034482762" y="163.79310344827587" width="8.620689655172415" height="8.620689655172415" fill="#0e372d"/>
            <rect x="250.00000000000003" y="163.79310344827587" width="8.620689655172415" height="8.620689655172415" fill="#0e372d"/>
            <rect x="258.62068965517244" y="163.79310344827587" width="8.620689655172415" height="8.620689655172415" fill="#0e372d"/>
            <rect x="0.0" y="172.41379310344828" width="8.620689655172415" height="8.620689655172415" fill="#0e372d"/>
            <rect x="8.620689655172415" y="172.41379310344828" width="8.620689655172415" height="8.620689655172415" fill="#0e372d"/>
            <rect x="25.862068965517246" y="172.41379310344828" width="8.620689655172415" height="8.620689655172415" fill="#0e372d"/>
            <rect x="34.48275862068966" y="172.41379310344828" width="8.620689655172415" height="8.620689655172415" fill="#0e372d"/>
            <rect x="43.10344827586207" y="172.41379310344828" width="8.620689655172415" height="8.620689655172415" fill="#0e372d"/>
            <rect x="51.72413793103449" y="172.41379310344828" width="8.620689655172415" height="8.620689655172415" fill="#0e372d"/>
            <rect x="60.344827586206904" y="172.41379310344828" width="8.620689655172415" height="8.620689655172415" fill="#0e372d"/>
            <rect x="86.20689655172414" y="172.41379310344828" width="8.620689655172415" height="8.620689655172415" fill="#0e372d"/>
            <rect x="94.82758620689656" y="172.41379310344828" width="8.620689655172415" height="8.620689655172415" fill="#0e372d"/>
            <rect x="103.44827586206898" y="172.41379310344828" width="8.620689655172415" height="8.620689655172415" fill="#0e372d"/>
            <rect x="129.31034482758622" y="172.41379310344828" width="8.620689655172415" height="8.620689655172415" fill="#0e372d"/>
            <rect x="146.55172413793105" y="172.41379310344828" width="8.620689655172415" height="8.620689655172415" fill="#0e372d"/>
            <rect x="155.17241379310346" y="172.41379310344828" width="8.620689655172415" height="8.620689655172415" fill="#0e372d"/>
            <rect x="163.79310344827587" y="172.41379310344828" width="8.620689655172415" height="8.620689655172415" fill="#0e372d"/>
            <rect x="172.41379310344828" y="172.41379310344828" width="8.620689655172415" height="8.620689655172415" fill="#0e372d"/>
            <rect x="206.89655172413796" y="172.41379310344828" width="8.620689655172415" height="8.620689655172415" fill="#0e372d"/>
            <rect x="241.37931034482762" y="172.41379310344828" width="8.620689655172415" height="8.620689655172415" fill="#0e372d"/>
            <rect x="250.00000000000003" y="172.41379310344828" width="8.620689655172415" height="8.620689655172415" fill="#0e372d"/>
            <rect x="267.2413793103448" y="172.41379310344828" width="8.620689655172415" height="8.620689655172415" fill="#0e372d"/>
            <rect x="0.0" y="181.0344827586207" width="8.620689655172415" height="8.620689655172415" fill="#0e372d"/>
            <rect x="8.620689655172415" y="181.0344827586207" width="8.620689655172415" height="8.620689655172415" fill="#0e372d"/>
            <rect x="25.862068965517246" y="181.0344827586207" width="8.620689655172415" height="8.620689655172415" fill="#0e372d"/>
            <rect x="34.48275862068966" y="181.0344827586207" width="8.620689655172415" height="8.620689655172415" fill="#0e372d"/>
            <rect x="43.10344827586207" y="181.0344827586207" width="8.620689655172415" height="8.620689655172415" fill="#0e372d"/>
            <rect x="86.20689655172414" y="181.0344827586207" width="8.620689655172415" height="8.620689655172415" fill="#0e372d"/>
            <rect x="112.0689655172414" y="181.0344827586207" width="8.620689655172415" height="8.620689655172415" fill="#0e372d"/>
            <rect x="120.68965517241381" y="181.0344827586207" width="8.620689655172415" height="8.620689655172415" fill="#0e372d"/>
            <rect x="129.31034482758622" y="181.0344827586207" width="8.620689655172415" height="8.620689655172415" fill="#0e372d"/>
            <rect x="146.55172413793105" y="181.0344827586207" width="8.620689655172415" height="8.620689655172415" fill="#0e372d"/>
            <rect x="163.79310344827587" y="181.0344827586207" width="8.620689655172415" height="8.620689655172415" fill="#0e372d"/>
            <rect x="189.6551724137931" y="181.0344827586207" width="8.620689655172415" height="8.620689655172415" fill="#0e372d"/>
            <rect x="198.27586206896552" y="181.0344827586207" width="8.620689655172415" height="8.620689655172415" fill="#0e372d"/>
            <rect x="224.1379310344828" y="181.0344827586207" width="8.620689655172415" height="8.620689655172415" fill="#0e372d"/>
            <rect x="232.7586206896552" y="181.0344827586207" width="8.620689655172415" height="8.620689655172415" fill="#0e372d"/>
            <rect x="250.00000000000003" y="181.0344827586207" width="8.620689655172415" height="8.620689655172415" fill="#0e372d"/>
            <rect x="258.62068965517244" y="181.0344827586207" width="8.620689655172415" height="8.620689655172415" fill="#0e372d"/>
            <rect x="275.86206896551727" y="181.0344827586207" width="8.620689655172415" height="8.620689655172415" fill="#0e372d"/>
            <rect x="0.0" y="189.6551724137931" width="8.620689655172415" height="8.620689655172415" fill="#0e372d"/>
            <rect x="25.862068965517246" y="189.6551724137931" width="8.620689655172415" height="8.620689655172415" fill="#0e372d"/>
            <rect x="43.10344827586207" y="189.6551724137931" width="8.620689655172415" height="8.620689655172415" fill="#0e372d"/>
            <rect x="51.72413793103449" y="189.6551724137931" width="8.620689655172415" height="8.620689655172415" fill="#0e372d"/>
            <rect x="60.344827586206904" y="189.6551724137931" width="8.620689655172415" height="8.620689655172415" fill="#0e372d"/>
            <rect x="77.58620689655173" y="189.6551724137931" width="8.620689655172415" height="8.620689655172415" fill="#0e372d"/>
            <rect x="86.20689655172414" y="189.6551724137931" width="8.620689655172415" height="8.620689655172415" fill="#0e372d"/>
            <rect x="112.0689655172414" y="189.6551724137931" width="8.620689655172415" height="8.620689655172415" fill="#0e372d"/>
            <rect x="129.31034482758622" y="189.6551724137931" width="8.620689655172415" height="8.620689655172415" fill="#0e372d"/>
            <rect x="137.93103448275863" y="189.6551724137931" width="8.620689655172415" height="8.620689655172415" fill="#0e372d"/>
            <rect x="155.17241379310346" y="189.6551724137931" width="8.620689655172415" height="8.620689655172415" fill="#0e372d"/>
            <rect x="189.6551724137931" y="189.6551724137931" width="8.620689655172415" height="8.620689655172415" fill="#0e372d"/>
            <rect x="232.7586206896552" y="189.6551724137931" width="8.620689655172415" height="8.620689655172415" fill="#0e372d"/>
            <rect x="258.62068965517244" y="189.6551724137931" width="8.620689655172415" height="8.620689655172415" fill="#0e372d"/>
            <rect x="267.2413793103448" y="189.6551724137931" width="8.620689655172415" height="8.620689655172415" fill="#0e372d"/>
            <rect x="0.0" y="198.27586206896552" width="8.620689655172415" height="8.620689655172415" fill="#0e372d"/>
            <rect x="25.862068965517246" y="198.27586206896552" width="8.620689655172415" height="8.620689655172415" fill="#0e372d"/>
            <rect x="34.48275862068966" y="198.27586206896552" width="8.620689655172415" height="8.620689655172415" fill="#0e372d"/>
            <rect x="60.344827586206904" y="198.27586206896552" width="8.620689655172415" height="8.620689655172415" fill="#0e372d"/>
            <rect x="68.96551724137932" y="198.27586206896552" width="8.620689655172415" height="8.620689655172415" fill="#0e372d"/>
            <rect x="137.93103448275863" y="198.27586206896552" width="8.620689655172415" height="8.620689655172415" fill="#0e372d"/>
            <rect x="155.17241379310346" y="198.27586206896552" width="8.620689655172415" height="8.620689655172415" fill="#0e372d"/>
            <rect x="181.0344827586207" y="198.27586206896552" width="8.620689655172415" height="8.620689655172415" fill="#0e372d"/>
            <rect x="206.89655172413796" y="198.27586206896552" width="8.620689655172415" height="8.620689655172415" fill="#0e372d"/>
            <rect x="215.51724137931038" y="198.27586206896552" width="8.620689655172415" height="8.620689655172415" fill="#0e372d"/>
            <rect x="224.1379310344828" y="198.27586206896552" width="8.620689655172415" height="8.620689655172415" fill="#0e372d"/>
            <rect x="232.7586206896552" y="198.27586206896552" width="8.620689655172415" height="8.620689655172415" fill="#0e372d"/>
            <rect x="241.37931034482762" y="198.27586206896552" width="8.620689655172415" height="8.620689655172415" fill="#0e372d"/>
            <rect x="258.62068965517244" y="198.27586206896552" width="8.620689655172415" height="8.620689655172415" fill="#0e372d"/>
            <rect x="275.86206896551727" y="198.27586206896552" width="8.620689655172415" height="8.620689655172415" fill="#0e372d"/>
            <rect x="0.0" y="206.89655172413796" width="8.620689655172415" height="8.620689655172415" fill="#0e372d"/>
            <rect x="17.24137931034483" y="206.89655172413796" width="8.620689655172415" height="8.620689655172415" fill="#0e372d"/>
            <rect x="51.72413793103449" y="206.89655172413796" width="8.620689655172415" height="8.620689655172415" fill="#0e372d"/>
            <rect x="60.344827586206904" y="206.89655172413796" width="8.620689655172415" height="8.620689655172415" fill="#0e372d"/>
            <rect x="68.96551724137932" y="206.89655172413796" width="8.620689655172415" height="8.620689655172415" fill="#0e372d"/>
            <rect x="77.58620689655173" y="206.89655172413796" width="8.620689655172415" height="8.620689655172415" fill="#0e372d"/>
            <rect x="86.20689655172414" y="206.89655172413796" width="8.620689655172415" height="8.620689655172415" fill="#0e372d"/>
            <rect x="112.0689655172414" y="206.89655172413796" width="8.620689655172415" height="8.620689655172415" fill="#0e372d"/>
            <rect x="120.68965517241381" y="206.89655172413796" width="8.620689655172415" height="8.620689655172415" fill="#0e372d"/>
            <rect x="129.31034482758622" y="206.89655172413796" width="8.620689655172415" height="8.620689655172415" fill="#0e372d"/>
            <rect x="137.93103448275863" y="206.89655172413796" width="8.620689655172415" height="8.620689655172415" fill="#0e372d"/>
            <rect x="146.55172413793105" y="206.89655172413796" width="8.620689655172415" height="8.620689655172415" fill="#0e372d"/>
            <rect x="163.79310344827587" y="206.89655172413796" width="8.620689655172415" height="8.620689655172415" fill="#0e372d"/>
            <rect x="189.6551724137931" y="206.89655172413796" width="8.620689655172415" height="8.620689655172415" fill="#0e372d"/>
            <rect x="206.89655172413796" y="206.89655172413796" width="8.620689655172415" height="8.620689655172415" fill="#0e372d"/>
            <rect x="215.51724137931038" y="206.89655172413796" width="8.620689655172415" height="8.620689655172415" fill="#0e372d"/>
            <rect x="224.1379310344828" y="206.89655172413796" width="8.620689655172415" height="8.620689655172415" fill="#0e372d"/>
            <rect x="232.7586206896552" y="206.89655172413796" width="8.620689655172415" height="8.620689655172415" fill="#0e372d"/>
            <rect x="241.37931034482762" y="206.89655172413796" width="8.620689655172415" height="8.620689655172415" fill="#0e372d"/>
            <rect x="275.86206896551727" y="206.89655172413796" width="8.620689655172415" height="8.620689655172415" fill="#0e372d"/>
            <rect x="68.96551724137932" y="215.51724137931038" width="8.620689655172415" height="8.620689655172415" fill="#0e372d"/>
            <rect x="103.44827586206898" y="215.51724137931038" width="8.620689655172415" height="8.620689655172415" fill="#0e372d"/>
            <rect x="112.0689655172414" y="215.51724137931038" width="8.620689655172415" height="8.620689655172415" fill="#0e372d"/>
            <rect x="155.17241379310346" y="215.51724137931038" width="8.620689655172415" height="8.620689655172415" fill="#0e372d"/>
            <rect x="163.79310344827587" y="215.51724137931038" width="8.620689655172415" height="8.620689655172415" fill="#0e372d"/>
            <rect x="172.41379310344828" y="215.51724137931038" width="8.620689655172415" height="8.620689655172415" fill="#0e372d"/>
            <rect x="181.0344827586207" y="215.51724137931038" width="8.620689655172415" height="8.620689655172415" fill="#0e372d"/>
            <rect x="206.89655172413796" y="215.51724137931038" width="8.620689655172415" height="8.620689655172415" fill="#0e372d"/>
            <rect x="241.37931034482762" y="215.51724137931038" width="8.620689655172415" height="8.620689655172415" fill="#0e372d"/>
            <rect x="258.62068965517244" y="215.51724137931038" width="8.620689655172415" height="8.620689655172415" fill="#0e372d"/>
            <rect x="275.86206896551727" y="215.51724137931038" width="8.620689655172415" height="8.620689655172415" fill="#0e372d"/>
            <rect x="0.0" y="224.1379310344828" width="8.620689655172415" height="8.620689655172415" fill="#0e372d"/>
            <rect x="8.620689655172415" y="224.1379310344828" width="8.620689655172415" height="8.620689655172415" fill="#0e372d"/>
            <rect x="17.24137931034483" y="224.1379310344828" width="8.620689655172415" height="8.620689655172415" fill="#0e372d"/>
            <rect x="25.862068965517246" y="224.1379310344828" width="8.620689655172415" height="8.620689655172415" fill="#0e372d"/>
            <rect x="34.48275862068966" y="224.1379310344828" width="8.620689655172415" height="8.620689655172415" fill="#0e372d"/>
            <rect x="43.10344827586207" y="224.1379310344828" width="8.620689655172415" height="8.620689655172415" fill="#0e372d"/>
            <rect x="51.72413793103449" y="224.1379310344828" width="8.620689655172415" height="8.620689655172415" fill="#0e372d"/>
            <rect x="77.58620689655173" y="224.1379310344828" width="8.620689655172415" height="8.620689655172415" fill="#0e372d"/>
            <rect x="86.20689655172414" y="224.1379310344828" width="8.620689655172415" height="8.620689655172415" fill="#0e372d"/>
            <rect x="94.82758620689656" y="224.1379310344828" width="8.620689655172415" height="8.620689655172415" fill="#0e372d"/>
            <rect x="112.0689655172414" y="224.1379310344828" width="8.620689655172415" height="8.620689655172415" fill="#0e372d"/>
            <rect x="129.31034482758622" y="224.1379310344828" width="8.620689655172415" height="8.620689655172415" fill="#0e372d"/>
            <rect x="137.93103448275863" y="224.1379310344828" width="8.620689655172415" height="8.620689655172415" fill="#0e372d"/>
            <rect x="146.55172413793105" y="224.1379310344828" width="8.620689655172415" height="8.620689655172415" fill="#0e372d"/>
            <rect x="155.17241379310346" y="224.1379310344828" width="8.620689655172415" height="8.620689655172415" fill="#0e372d"/>
            <rect x="172.41379310344828" y="224.1379310344828" width="8.620689655172415" height="8.620689655172415" fill="#0e372d"/>
            <rect x="198.27586206896552" y="224.1379310344828" width="8.620689655172415" height="8.620689655172415" fill="#0e372d"/>
            <rect x="206.89655172413796" y="224.1379310344828" width="8.620689655172415" height="8.620689655172415" fill="#0e372d"/>
            <rect x="224.1379310344828" y="224.1379310344828" width="8.620689655172415" height="8.620689655172415" fill="#0e372d"/>
            <rect x="241.37931034482762" y="224.1379310344828" width="8.620689655172415" height="8.620689655172415" fill="#0e372d"/>
            <rect x="258.62068965517244" y="224.1379310344828" width="8.620689655172415" height="8.620689655172415" fill="#0e372d"/>
            <rect x="267.2413793103448" y="224.1379310344828" width="8.620689655172415" height="8.620689655172415" fill="#0e372d"/>
            <rect x="0.0" y="232.7586206896552" width="8.620689655172415" height="8.620689655172415" fill="#0e372d"/>
            <rect x="51.72413793103449" y="232.7586206896552" width="8.620689655172415" height="8.620689655172415" fill="#0e372d"/>
            <rect x="68.96551724137932" y="232.7586206896552" width="8.620689655172415" height="8.620689655172415" fill="#0e372d"/>
            <rect x="112.0689655172414" y="232.7586206896552" width="8.620689655172415" height="8.620689655172415" fill="#0e372d"/>
            <rect x="120.68965517241381" y="232.7586206896552" width="8.620689655172415" height="8.620689655172415" fill="#0e372d"/>
            <rect x="129.31034482758622" y="232.7586206896552" width="8.620689655172415" height="8.620689655172415" fill="#0e372d"/>
            <rect x="155.17241379310346" y="232.7586206896552" width="8.620689655172415" height="8.620689655172415" fill="#0e372d"/>
            <rect x="163.79310344827587" y="232.7586206896552" width="8.620689655172415" height="8.620689655172415" fill="#0e372d"/>
            <rect x="172.41379310344828" y="232.7586206896552" width="8.620689655172415" height="8.620689655172415" fill="#0e372d"/>
            <rect x="181.0344827586207" y="232.7586206896552" width="8.620689655172415" height="8.620689655172415" fill="#0e372d"/>
            <rect x="198.27586206896552" y="232.7586206896552" width="8.620689655172415" height="8.620689655172415" fill="#0e372d"/>
            <rect x="206.89655172413796" y="232.7586206896552" width="8.620689655172415" height="8.620689655172415" fill="#0e372d"/>
            <rect x="241.37931034482762" y="232.7586206896552" width="8.620689655172415" height="8.620689655172415" fill="#0e372d"/>
            <rect x="250.00000000000003" y="232.7586206896552" width="8.620689655172415" height="8.620689655172415" fill="#0e372d"/>
            <rect x="258.62068965517244" y="232.7586206896552" width="8.620689655172415" height="8.620689655172415" fill="#0e372d"/>
            <rect x="267.2413793103448" y="232.7586206896552" width="8.620689655172415" height="8.620689655172415" fill="#0e372d"/>
            <rect x="0.0" y="241.37931034482762" width="8.620689655172415" height="8.620689655172415" fill="#0e372d"/>
            <rect x="17.24137931034483" y="241.37931034482762" width="8.620689655172415" height="8.620689655172415" fill="#0e372d"/>
            <rect x="25.862068965517246" y="241.37931034482762" width="8.620689655172415" height="8.620689655172415" fill="#0e372d"/>
            <rect x="34.48275862068966" y="241.37931034482762" width="8.620689655172415" height="8.620689655172415" fill="#0e372d"/>
            <rect x="51.72413793103449" y="241.37931034482762" width="8.620689655172415" height="8.620689655172415" fill="#0e372d"/>
            <rect x="68.96551724137932" y="241.37931034482762" width="8.620689655172415" height="8.620689655172415" fill="#0e372d"/>
            <rect x="86.20689655172414" y="241.37931034482762" width="8.620689655172415" height="8.620689655172415" fill="#0e372d"/>
            <rect x="103.44827586206898" y="241.37931034482762" width="8.620689655172415" height="8.620689655172415" fill="#0e372d"/>
            <rect x="112.0689655172414" y="241.37931034482762" width="8.620689655172415" height="8.620689655172415" fill="#0e372d"/>
            <rect x="120.68965517241381" y="241.37931034482762" width="8.620689655172415" height="8.620689655172415" fill="#0e372d"/>
            <rect x="137.93103448275863" y="241.37931034482762" width="8.620689655172415" height="8.620689655172415" fill="#0e372d"/>
            <rect x="146.55172413793105" y="241.37931034482762" width="8.620689655172415" height="8.620689655172415" fill="#0e372d"/>
            <rect x="155.17241379310346" y="241.37931034482762" width="8.620689655172415" height="8.620689655172415" fill="#0e372d"/>
            <rect x="163.79310344827587" y="241.37931034482762" width="8.620689655172415" height="8.620689655172415" fill="#0e372d"/>
            <rect x="172.41379310344828" y="241.37931034482762" width="8.620689655172415" height="8.620689655172415" fill="#0e372d"/>
            <rect x="189.6551724137931" y="241.37931034482762" width="8.620689655172415" height="8.620689655172415" fill="#0e372d"/>
            <rect x="206.89655172413796" y="241.37931034482762" width="8.620689655172415" height="8.620689655172415" fill="#0e372d"/>
            <rect x="215.51724137931038" y="241.37931034482762" width="8.620689655172415" height="8.620689655172415" fill="#0e372d"/>
            <rect x="224.1379310344828" y="241.37931034482762" width="8.620689655172415" height="8.620689655172415" fill="#0e372d"/>
            <rect x="232.7586206896552" y="241.37931034482762" width="8.620689655172415" height="8.620689655172415" fill="#0e372d"/>
            <rect x="241.37931034482762" y="241.37931034482762" width="8.620689655172415" height="8.620689655172415" fill="#0e372d"/>
            <rect x="250.00000000000003" y="241.37931034482762" width="8.620689655172415" height="8.620689655172415" fill="#0e372d"/>
            <rect x="267.2413793103448" y="241.37931034482762" width="8.620689655172415" height="8.620689655172415" fill="#0e372d"/>
            <rect x="275.86206896551727" y="241.37931034482762" width="8.620689655172415" height="8.620689655172415" fill="#0e372d"/>
            <rect x="0.0" y="250.00000000000003" width="8.620689655172415" height="8.620689655172415" fill="#0e372d"/>
            <rect x="17.24137931034483" y="250.00000000000003" width="8.620689655172415" height="8.620689655172415" fill="#0e372d"/>
            <rect x="25.862068965517246" y="250.00000000000003" width="8.620689655172415" height="8.620689655172415" fill="#0e372d"/>
            <rect x="34.48275862068966" y="250.00000000000003" width="8.620689655172415" height="8.620689655172415" fill="#0e372d"/>
            <rect x="51.72413793103449" y="250.00000000000003" width="8.620689655172415" height="8.620689655172415" fill="#0e372d"/>
            <rect x="68.96551724137932" y="250.00000000000003" width="8.620689655172415" height="8.620689655172415" fill="#0e372d"/>
            <rect x="163.79310344827587" y="250.00000000000003" width="8.620689655172415" height="8.620689655172415" fill="#0e372d"/>
            <rect x="181.0344827586207" y="250.00000000000003" width="8.620689655172415" height="8.620689655172415" fill="#0e372d"/>
            <rect x="206.89655172413796" y="250.00000000000003" width="8.620689655172415" height="8.620689655172415" fill="#0e372d"/>
            <rect x="215.51724137931038" y="250.00000000000003" width="8.620689655172415" height="8.620689655172415" fill="#0e372d"/>
            <rect x="241.37931034482762" y="250.00000000000003" width="8.620689655172415" height="8.620689655172415" fill="#0e372d"/>
            <rect x="250.00000000000003" y="250.00000000000003" width="8.620689655172415" height="8.620689655172415" fill="#0e372d"/>
            <rect x="267.2413793103448" y="250.00000000000003" width="8.620689655172415" height="8.620689655172415" fill="#0e372d"/>
            <rect x="275.86206896551727" y="250.00000000000003" width="8.620689655172415" height="8.620689655172415" fill="#0e372d"/>
            <rect x="0.0" y="258.62068965517244" width="8.620689655172415" height="8.620689655172415" fill="#0e372d"/>
            <rect x="17.24137931034483" y="258.62068965517244" width="8.620689655172415" height="8.620689655172415" fill="#0e372d"/>
            <rect x="25.862068965517246" y="258.62068965517244" width="8.620689655172415" height="8.620689655172415" fill="#0e372d"/>
            <rect x="34.48275862068966" y="258.62068965517244" width="8.620689655172415" height="8.620689655172415" fill="#0e372d"/>
            <rect x="51.72413793103449" y="258.62068965517244" width="8.620689655172415" height="8.620689655172415" fill="#0e372d"/>
            <rect x="68.96551724137932" y="258.62068965517244" width="8.620689655172415" height="8.620689655172415" fill="#0e372d"/>
            <rect x="77.58620689655173" y="258.62068965517244" width="8.620689655172415" height="8.620689655172415" fill="#0e372d"/>
            <rect x="86.20689655172414" y="258.62068965517244" width="8.620689655172415" height="8.620689655172415" fill="#0e372d"/>
            <rect x="94.82758620689656" y="258.62068965517244" width="8.620689655172415" height="8.620689655172415" fill="#0e372d"/>
            <rect x="103.44827586206898" y="258.62068965517244" width="8.620689655172415" height="8.620689655172415" fill="#0e372d"/>
            <rect x="120.68965517241381" y="258.62068965517244" width="8.620689655172415" height="8.620689655172415" fill="#0e372d"/>
            <rect x="129.31034482758622" y="258.62068965517244" width="8.620689655172415" height="8.620689655172415" fill="#0e372d"/>
            <rect x="146.55172413793105" y="258.62068965517244" width="8.620689655172415" height="8.620689655172415" fill="#0e372d"/>
            <rect x="155.17241379310346" y="258.62068965517244" width="8.620689655172415" height="8.620689655172415" fill="#0e372d"/>
            <rect x="172.41379310344828" y="258.62068965517244" width="8.620689655172415" height="8.620689655172415" fill="#0e372d"/>
            <rect x="224.1379310344828" y="258.62068965517244" width="8.620689655172415" height="8.620689655172415" fill="#0e372d"/>
            <rect x="232.7586206896552" y="258.62068965517244" width="8.620689655172415" height="8.620689655172415" fill="#0e372d"/>
            <rect x="250.00000000000003" y="258.62068965517244" width="8.620689655172415" height="8.620689655172415" fill="#0e372d"/>
            <rect x="258.62068965517244" y="258.62068965517244" width="8.620689655172415" height="8.620689655172415" fill="#0e372d"/>
            <rect x="0.0" y="267.2413793103448" width="8.620689655172415" height="8.620689655172415" fill="#0e372d"/>
            <rect x="51.72413793103449" y="267.2413793103448" width="8.620689655172415" height="8.620689655172415" fill="#0e372d"/>
            <rect x="94.82758620689656" y="267.2413793103448" width="8.620689655172415" height="8.620689655172415" fill="#0e372d"/>
            <rect x="120.68965517241381" y="267.2413793103448" width="8.620689655172415" height="8.620689655172415" fill="#0e372d"/>
            <rect x="129.31034482758622" y="267.2413793103448" width="8.620689655172415" height="8.620689655172415" fill="#0e372d"/>
            <rect x="137.93103448275863" y="267.2413793103448" width="8.620689655172415" height="8.620689655172415" fill="#0e372d"/>
            <rect x="163.79310344827587" y="267.2413793103448" width="8.620689655172415" height="8.620689655172415" fill="#0e372d"/>
            <rect x="181.0344827586207" y="267.2413793103448" width="8.620689655172415" height="8.620689655172415" fill="#0e372d"/>
            <rect x="189.6551724137931" y="267.2413793103448" width="8.620689655172415" height="8.620689655172415" fill="#0e372d"/>
            <rect x="215.51724137931038" y="267.2413793103448" width="8.620689655172415" height="8.620689655172415" fill="#0e372d"/>
            <rect x="224.1379310344828" y="267.2413793103448" width="8.620689655172415" height="8.620689655172415" fill="#0e372d"/>
            <rect x="241.37931034482762" y="267.2413793103448" width="8.620689655172415" height="8.620689655172415" fill="#0e372d"/>
            <rect x="258.62068965517244" y="267.2413793103448" width="8.620689655172415" height="8.620689655172415" fill="#0e372d"/>
            <rect x="0.0" y="275.86206896551727" width="8.620689655172415" height="8.620689655172415" fill="#0e372d"/>
            <rect x="8.620689655172415" y="275.86206896551727" width="8.620689655172415" height="8.620689655172415" fill="#0e372d"/>
            <rect x="17.24137931034483" y="275.86206896551727" width="8.620689655172415" height="8.620689655172415" fill="#0e372d"/>
            <rect x="25.862068965517246" y="275.86206896551727" width="8.620689655172415" height="8.620689655172415" fill="#0e372d"/>
            <rect x="34.48275862068966" y="275.86206896551727" width="8.620689655172415" height="8.620689655172415" fill="#0e372d"/>
            <rect x="43.10344827586207" y="275.86206896551727" width="8.620689655172415" height="8.620689655172415" fill="#0e372d"/>
            <rect x="51.72413793103449" y="275.86206896551727" width="8.620689655172415" height="8.620689655172415" fill="#0e372d"/>
            <rect x="68.96551724137932" y="275.86206896551727" width="8.620689655172415" height="8.620689655172415" fill="#0e372d"/>
            <rect x="94.82758620689656" y="275.86206896551727" width="8.620689655172415" height="8.620689655172415" fill="#0e372d"/>
            <rect x="103.44827586206898" y="275.86206896551727" width="8.620689655172415" height="8.620689655172415" fill="#0e372d"/>
            <rect x="112.0689655172414" y="275.86206896551727" width="8.620689655172415" height="8.620689655172415" fill="#0e372d"/>
            <rect x="129.31034482758622" y="275.86206896551727" width="8.620689655172415" height="8.620689655172415" fill="#0e372d"/>
            <rect x="137.93103448275863" y="275.86206896551727" width="8.620689655172415" height="8.620689655172415" fill="#0e372d"/>
            <rect x="146.55172413793105" y="275.86206896551727" width="8.620689655172415" height="8.620689655172415" fill="#0e372d"/>
            <rect x="155.17241379310346" y="275.86206896551727" width="8.620689655172415" height="8.620689655172415" fill="#0e372d"/>
            <rect x="189.6551724137931" y="275.86206896551727" width="8.620689655172415" height="8.620689655172415" fill="#0e372d"/>
            <rect x="198.27586206896552" y="275.86206896551727" width="8.620689655172415" height="8.620689655172415" fill="#0e372d"/>
            <rect x="206.89655172413796" y="275.86206896551727" width="8.620689655172415" height="8.620689655172415" fill="#0e372d"/>
            <rect x="215.51724137931038" y="275.86206896551727" width="8.620689655172415" height="8.620689655172415" fill="#0e372d"/>
            <rect x="232.7586206896552" y="275.86206896551727" width="8.620689655172415" height="8.620689655172415" fill="#0e372d"/>
            <rect x="250.00000000000003" y="275.86206896551727" width="8.620689655172415" height="8.620689655172415" fill="#0e372d"/>
            <rect x="267.2413793103448" y="275.86206896551727" width="8.620689655172415" height="8.620689655172415" fill="#0e372d"/>
          </g>
        </svg>
      </g>
      <path d="M1497 1594.35H509.68A100.79 100.79 0 0 1 409 1493.67V506.33a100.79 100.79 0 0 1 100.68-100.68H1497a100.79 100.79 0 0 1 100.7 100.68v987.34a100.79 100.79 0 0 1-100.7 100.68ZM509.68 425.65A80.77 80.77 0 0 0 429 506.33v987.34a80.77 80.77 0 0 0 80.67 80.68H1497a80.77 80.77 0 0 0 80.67-80.68V506.33a80.77 80.77 0 0 0-80.67-80.68Z" style="fill: rgb(58, 79, 122);"/>
      <path class="cls2-2" d="M1382 229.74c13.6-23.75 46.31-50.8 86.45-51.65 35.82-.75 70.59 19.52 93.93 53 32.89-24.2 72.34-32.18 106-19.92 37.73 13.73 60 49.88 65.2 76.74 13.69 70.38-72.82 162.93-217.8 225.43h-.24C1398.46 407.43 1346.39 292 1382 229.74Z"/>
      <path class="cls2-3" d="M1166.12 531.55c1.3-16.68 12.28-40.18 34.23-51.16 19.59-9.79 44.1-7.7 65.76 4.69 11.83-22 31.54-36.7 53.34-38.75 24.43-2.29 46.19 11.86 56.1 25.32 26 35.3 2.43 109.06-61.29 181.54h-.14c-92.4-27.79-151.4-77.94-148-121.64ZM1158.84 267.22c5-11.16 18.42-24.63 36.26-26.74 15.92-1.89 32.29 5.63 44.13 19.54 13.6-12.2 30.83-17.46 46.35-13.46 17.39 4.49 28.87 19.62 32.36 31.36 9.14 30.75-25.38 75.71-87.25 109.83h-.1c-56.74-42.1-84.93-91.28-71.75-120.53Z"/>
      <path class="cls2-2" d="M618 1398.43c-13.6-23.74-46.31-50.8-86.45-51.64-35.82-.76-70.59 19.51-93.93 53-32.89-24.19-72.34-32.17-106-19.92-37.73 13.74-60 49.89-65.2 76.74-13.69 70.39 72.82 162.93 217.8 225.44h.24c117.08-105.92 169.15-221.4 133.54-283.62Z"/>
      <path class="cls2-3" d="M833.88 1700.24c-1.3-16.67-12.28-40.18-34.23-51.15-19.59-9.8-44.1-7.71-65.76 4.69-11.83-22-31.54-36.71-53.34-38.75-24.43-2.29-46.19 11.85-56.1 25.32-26 35.29-2.43 109.06 61.29 181.54h.14c92.4-27.8 151.4-77.95 148-121.65ZM841.16 1435.91c-5-11.16-18.42-24.62-36.26-26.74-15.92-1.88-32.29 5.64-44.13 19.55-13.6-12.2-30.83-17.46-46.35-13.46-17.39 4.48-28.87 19.62-32.36 31.35-9.14 30.76 25.38 75.72 87.25 109.83h.1c56.74-42.1 84.93-91.27 71.75-120.53Z"/>
    </g>
  </g>
</svg>
