<svg fill="none" xmlns="http://www.w3.org/2000/svg" width="300" height="300" viewBox="0 0 2000 2000">
  <g transform="translate(-200,-180)scale(1.2)">
    <defs>
      <style>
        .cls4-1{fill:#3a4f7a}.cls4-2{fill:#e98ead}
      </style>
    </defs>
    <g id="\u0421\u043B\u043E\u0439_4" data-name="\u0421\u043B\u043E\u0439 4">
      <g transform="translate(340, 740)scale(2.5)" fill="none">
        <svg width="300" height="300" viewBox="0 0 300 300">
          <style>
            .background-color{ fill: #fff; }.dot-color{ fill: #0e372d; }.corners-square-color-0-0{ fill: #0e372d; }.corners-dot-color-0-0{ fill: #0e372d; }.corners-square-color-1-0{ fill: #0e372d; }.corners-dot-color-1-0{ fill: #0e372d; }.corners-square-color-0-1{ fill: #0e372d; }.corners-dot-color-0-1{ fill: #0e372d; }
          </style>
          <defs/>
          <g transform="translate(7.758620689655146,7.758620689655146)">
            <rect x="0" y="0" width="284.4827586206897" height="284.4827586206897" fill="#ffffff"/>
            <rect x="0.0" y="0.0" width="8.620689655172415" height="8.620689655172415" fill="#0e372d"/>
            <rect x="8.620689655172415" y="0.0" width="8.620689655172415" height="8.620689655172415" fill="#0e372d"/>
            <rect x="17.24137931034483" y="0.0" width="8.620689655172415" height="8.620689655172415" fill="#0e372d"/>
            <rect x="25.862068965517246" y="0.0" width="8.620689655172415" height="8.620689655172415" fill="#0e372d"/>
            <rect x="34.48275862068966" y="0.0" width="8.620689655172415" height="8.620689655172415" fill="#0e372d"/>
            <rect x="43.10344827586207" y="0.0" width="8.620689655172415" height="8.620689655172415" fill="#0e372d"/>
            <rect x="51.72413793103449" y="0.0" width="8.620689655172415" height="8.620689655172415" fill="#0e372d"/>
            <rect x="94.82758620689656" y="0.0" width="8.620689655172415" height="8.620689655172415" fill="#0e372d"/>
            <rect x="120.68965517241381" y="0.0" width="8.620689655172415" height="8.620689655172415" fill="#0e372d"/>
            <rect x="155.17241379310346" y="0.0" width="8.620689655172415" height="8.620689655172415" fill="#0e372d"/>
            <rect x="163.79310344827587" y="0.0" width="8.620689655172415" height="8.620689655172415" fill="#0e372d"/>
            <rect x="181.0344827586207" y="0.0" width="8.620689655172415" height="8.620689655172415" fill="#0e372d"/>
            <rect x="189.6551724137931" y="0.0" width="8.620689655172415" height="8.620689655172415" fill="#0e372d"/>
            <rect x="198.27586206896552" y="0.0" width="8.620689655172415" height="8.620689655172415" fill="#0e372d"/>
            <rect x="224.1379310344828" y="0.0" width="8.620689655172415" height="8.620689655172415" fill="#0e372d"/>
            <rect x="232.7586206896552" y="0.0" width="8.620689655172415" height="8.620689655172415" fill="#0e372d"/>
            <rect x="241.37931034482762" y="0.0" width="8.620689655172415" height="8.620689655172415" fill="#0e372d"/>
            <rect x="250.00000000000003" y="0.0" width="8.620689655172415" height="8.620689655172415" fill="#0e372d"/>
            <rect x="258.62068965517244" y="0.0" width="8.620689655172415" height="8.620689655172415" fill="#0e372d"/>
            <rect x="267.2413793103448" y="0.0" width="8.620689655172415" height="8.620689655172415" fill="#0e372d"/>
            <rect x="275.86206896551727" y="0.0" width="8.620689655172415" height="8.620689655172415" fill="#0e372d"/>
            <rect x="0.0" y="8.620689655172415" width="8.620689655172415" height="8.620689655172415" fill="#0e372d"/>
            <rect x="51.72413793103449" y="8.620689655172415" width="8.620689655172415" height="8.620689655172415" fill="#0e372d"/>
            <rect x="77.58620689655173" y="8.620689655172415" width="8.620689655172415" height="8.620689655172415" fill="#0e372d"/>
            <rect x="103.44827586206898" y="8.620689655172415" width="8.620689655172415" height="8.620689655172415" fill="#0e372d"/>
            <rect x="129.31034482758622" y="8.620689655172415" width="8.620689655172415" height="8.620689655172415" fill="#0e372d"/>
            <rect x="137.93103448275863" y="8.620689655172415" width="8.620689655172415" height="8.620689655172415" fill="#0e372d"/>
            <rect x="155.17241379310346" y="8.620689655172415" width="8.620689655172415" height="8.620689655172415" fill="#0e372d"/>
            <rect x="172.41379310344828" y="8.620689655172415" width="8.620689655172415" height="8.620689655172415" fill="#0e372d"/>
            <rect x="189.6551724137931" y="8.620689655172415" width="8.620689655172415" height="8.620689655172415" fill="#0e372d"/>
            <rect x="224.1379310344828" y="8.620689655172415" width="8.620689655172415" height="8.620689655172415" fill="#0e372d"/>
            <rect x="275.86206896551727" y="8.620689655172415" width="8.620689655172415" height="8.620689655172415" fill="#0e372d"/>
            <rect x="0.0" y="17.24137931034483" width="8.620689655172415" height="8.620689655172415" fill="#0e372d"/>
            <rect x="17.24137931034483" y="17.24137931034483" width="8.620689655172415" height="8.620689655172415" fill="#0e372d"/>
            <rect x="25.862068965517246" y="17.24137931034483" width="8.620689655172415" height="8.620689655172415" fill="#0e372d"/>
            <rect x="34.48275862068966" y="17.24137931034483" width="8.620689655172415" height="8.620689655172415" fill="#0e372d"/>
            <rect x="51.72413793103449" y="17.24137931034483" width="8.620689655172415" height="8.620689655172415" fill="#0e372d"/>
            <rect x="68.96551724137932" y="17.24137931034483" width="8.620689655172415" height="8.620689655172415" fill="#0e372d"/>
            <rect x="94.82758620689656" y="17.24137931034483" width="8.620689655172415" height="8.620689655172415" fill="#0e372d"/>
            <rect x="103.44827586206898" y="17.24137931034483" width="8.620689655172415" height="8.620689655172415" fill="#0e372d"/>
            <rect x="120.68965517241381" y="17.24137931034483" width="8.620689655172415" height="8.620689655172415" fill="#0e372d"/>
            <rect x="129.31034482758622" y="17.24137931034483" width="8.620689655172415" height="8.620689655172415" fill="#0e372d"/>
            <rect x="163.79310344827587" y="17.24137931034483" width="8.620689655172415" height="8.620689655172415" fill="#0e372d"/>
            <rect x="181.0344827586207" y="17.24137931034483" width="8.620689655172415" height="8.620689655172415" fill="#0e372d"/>
            <rect x="198.27586206896552" y="17.24137931034483" width="8.620689655172415" height="8.620689655172415" fill="#0e372d"/>
            <rect x="224.1379310344828" y="17.24137931034483" width="8.620689655172415" height="8.620689655172415" fill="#0e372d"/>
            <rect x="241.37931034482762" y="17.24137931034483" width="8.620689655172415" height="8.620689655172415" fill="#0e372d"/>
            <rect x="250.00000000000003" y="17.24137931034483" width="8.620689655172415" height="8.620689655172415" fill="#0e372d"/>
            <rect x="258.62068965517244" y="17.24137931034483" width="8.620689655172415" height="8.620689655172415" fill="#0e372d"/>
            <rect x="275.86206896551727" y="17.24137931034483" width="8.620689655172415" height="8.620689655172415" fill="#0e372d"/>
            <rect x="0.0" y="25.862068965517246" width="8.620689655172415" height="8.620689655172415" fill="#0e372d"/>
            <rect x="17.24137931034483" y="25.862068965517246" width="8.620689655172415" height="8.620689655172415" fill="#0e372d"/>
            <rect x="25.862068965517246" y="25.862068965517246" width="8.620689655172415" height="8.620689655172415" fill="#0e372d"/>
            <rect x="34.48275862068966" y="25.862068965517246" width="8.620689655172415" height="8.620689655172415" fill="#0e372d"/>
            <rect x="51.72413793103449" y="25.862068965517246" width="8.620689655172415" height="8.620689655172415" fill="#0e372d"/>
            <rect x="68.96551724137932" y="25.862068965517246" width="8.620689655172415" height="8.620689655172415" fill="#0e372d"/>
            <rect x="77.58620689655173" y="25.862068965517246" width="8.620689655172415" height="8.620689655172415" fill="#0e372d"/>
            <rect x="86.20689655172414" y="25.862068965517246" width="8.620689655172415" height="8.620689655172415" fill="#0e372d"/>
            <rect x="103.44827586206898" y="25.862068965517246" width="8.620689655172415" height="8.620689655172415" fill="#0e372d"/>
            <rect x="129.31034482758622" y="25.862068965517246" width="8.620689655172415" height="8.620689655172415" fill="#0e372d"/>
            <rect x="146.55172413793105" y="25.862068965517246" width="8.620689655172415" height="8.620689655172415" fill="#0e372d"/>
            <rect x="155.17241379310346" y="25.862068965517246" width="8.620689655172415" height="8.620689655172415" fill="#0e372d"/>
            <rect x="172.41379310344828" y="25.862068965517246" width="8.620689655172415" height="8.620689655172415" fill="#0e372d"/>
            <rect x="224.1379310344828" y="25.862068965517246" width="8.620689655172415" height="8.620689655172415" fill="#0e372d"/>
            <rect x="241.37931034482762" y="25.862068965517246" width="8.620689655172415" height="8.620689655172415" fill="#0e372d"/>
            <rect x="250.00000000000003" y="25.862068965517246" width="8.620689655172415" height="8.620689655172415" fill="#0e372d"/>
            <rect x="258.62068965517244" y="25.862068965517246" width="8.620689655172415" height="8.620689655172415" fill="#0e372d"/>
            <rect x="275.86206896551727" y="25.862068965517246" width="8.620689655172415" height="8.620689655172415" fill="#0e372d"/>
            <rect x="0.0" y="34.48275862068966" width="8.620689655172415" height="8.620689655172415" fill="#0e372d"/>
            <rect x="17.24137931034483" y="34.48275862068966" width="8.620689655172415" height="8.620689655172415" fill="#0e372d"/>
            <rect x="25.862068965517246" y="34.48275862068966" width="8.620689655172415" height="8.620689655172415" fill="#0e372d"/>
            <rect x="34.48275862068966" y="34.48275862068966" width="8.620689655172415" height="8.620689655172415" fill="#0e372d"/>
            <rect x="51.72413793103449" y="34.48275862068966" width="8.620689655172415" height="8.620689655172415" fill="#0e372d"/>
            <rect x="68.96551724137932" y="34.48275862068966" width="8.620689655172415" height="8.620689655172415" fill="#0e372d"/>
            <rect x="77.58620689655173" y="34.48275862068966" width="8.620689655172415" height="8.620689655172415" fill="#0e372d"/>
            <rect x="86.20689655172414" y="34.48275862068966" width="8.620689655172415" height="8.620689655172415" fill="#0e372d"/>
            <rect x="120.68965517241381" y="34.48275862068966" width="8.620689655172415" height="8.620689655172415" fill="#0e372d"/>
            <rect x="129.31034482758622" y="34.48275862068966" width="8.620689655172415" height="8.620689655172415" fill="#0e372d"/>
            <rect x="137.93103448275863" y="34.48275862068966" width="8.620689655172415" height="8.620689655172415" fill="#0e372d"/>
            <rect x="146.55172413793105" y="34.48275862068966" width="8.620689655172415" height="8.620689655172415" fill="#0e372d"/>
            <rect x="163.79310344827587" y="34.48275862068966" width="8.620689655172415" height="8.620689655172415" fill="#0e372d"/>
            <rect x="181.0344827586207" y="34.48275862068966" width="8.620689655172415" height="8.620689655172415" fill="#0e372d"/>
            <rect x="198.27586206896552" y="34.48275862068966" width="8.620689655172415" height="8.620689655172415" fill="#0e372d"/>
            <rect x="206.89655172413796" y="34.48275862068966" width="8.620689655172415" height="8.620689655172415" fill="#0e372d"/>
            <rect x="224.1379310344828" y="34.48275862068966" width="8.620689655172415" height="8.620689655172415" fill="#0e372d"/>
            <rect x="241.37931034482762" y="34.48275862068966" width="8.620689655172415" height="8.620689655172415" fill="#0e372d"/>
            <rect x="250.00000000000003" y="34.48275862068966" width="8.620689655172415" height="8.620689655172415" fill="#0e372d"/>
            <rect x="258.62068965517244" y="34.48275862068966" width="8.620689655172415" height="8.620689655172415" fill="#0e372d"/>
            <rect x="275.86206896551727" y="34.48275862068966" width="8.620689655172415" height="8.620689655172415" fill="#0e372d"/>
            <rect x="0.0" y="43.10344827586207" width="8.620689655172415" height="8.620689655172415" fill="#0e372d"/>
            <rect x="51.72413793103449" y="43.10344827586207" width="8.620689655172415" height="8.620689655172415" fill="#0e372d"/>
            <rect x="68.96551724137932" y="43.10344827586207" width="8.620689655172415" height="8.620689655172415" fill="#0e372d"/>
            <rect x="94.82758620689656" y="43.10344827586207" width="8.620689655172415" height="8.620689655172415" fill="#0e372d"/>
            <rect x="146.55172413793105" y="43.10344827586207" width="8.620689655172415" height="8.620689655172415" fill="#0e372d"/>
            <rect x="172.41379310344828" y="43.10344827586207" width="8.620689655172415" height="8.620689655172415" fill="#0e372d"/>
            <rect x="181.0344827586207" y="43.10344827586207" width="8.620689655172415" height="8.620689655172415" fill="#0e372d"/>
            <rect x="224.1379310344828" y="43.10344827586207" width="8.620689655172415" height="8.620689655172415" fill="#0e372d"/>
            <rect x="275.86206896551727" y="43.10344827586207" width="8.620689655172415" height="8.620689655172415" fill="#0e372d"/>
            <rect x="0.0" y="51.72413793103449" width="8.620689655172415" height="8.620689655172415" fill="#0e372d"/>
            <rect x="8.620689655172415" y="51.72413793103449" width="8.620689655172415" height="8.620689655172415" fill="#0e372d"/>
            <rect x="17.24137931034483" y="51.72413793103449" width="8.620689655172415" height="8.620689655172415" fill="#0e372d"/>
            <rect x="25.862068965517246" y="51.72413793103449" width="8.620689655172415" height="8.620689655172415" fill="#0e372d"/>
            <rect x="34.48275862068966" y="51.72413793103449" width="8.620689655172415" height="8.620689655172415" fill="#0e372d"/>
            <rect x="43.10344827586207" y="51.72413793103449" width="8.620689655172415" height="8.620689655172415" fill="#0e372d"/>
            <rect x="51.72413793103449" y="51.72413793103449" width="8.620689655172415" height="8.620689655172415" fill="#0e372d"/>
            <rect x="68.96551724137932" y="51.72413793103449" width="8.620689655172415" height="8.620689655172415" fill="#0e372d"/>
            <rect x="86.20689655172414" y="51.72413793103449" width="8.620689655172415" height="8.620689655172415" fill="#0e372d"/>
            <rect x="103.44827586206898" y="51.72413793103449" width="8.620689655172415" height="8.620689655172415" fill="#0e372d"/>
            <rect x="120.68965517241381" y="51.72413793103449" width="8.620689655172415" height="8.620689655172415" fill="#0e372d"/>
            <rect x="137.93103448275863" y="51.72413793103449" width="8.620689655172415" height="8.620689655172415" fill="#0e372d"/>
            <rect x="155.17241379310346" y="51.72413793103449" width="8.620689655172415" height="8.620689655172415" fill="#0e372d"/>
            <rect x="172.41379310344828" y="51.72413793103449" width="8.620689655172415" height="8.620689655172415" fill="#0e372d"/>
            <rect x="189.6551724137931" y="51.72413793103449" width="8.620689655172415" height="8.620689655172415" fill="#0e372d"/>
            <rect x="206.89655172413796" y="51.72413793103449" width="8.620689655172415" height="8.620689655172415" fill="#0e372d"/>
            <rect x="224.1379310344828" y="51.72413793103449" width="8.620689655172415" height="8.620689655172415" fill="#0e372d"/>
            <rect x="232.7586206896552" y="51.72413793103449" width="8.620689655172415" height="8.620689655172415" fill="#0e372d"/>
            <rect x="241.37931034482762" y="51.72413793103449" width="8.620689655172415" height="8.620689655172415" fill="#0e372d"/>
            <rect x="250.00000000000003" y="51.72413793103449" width="8.620689655172415" height="8.620689655172415" fill="#0e372d"/>
            <rect x="258.62068965517244" y="51.72413793103449" width="8.620689655172415" height="8.620689655172415" fill="#0e372d"/>
            <rect x="267.2413793103448" y="51.72413793103449" width="8.620689655172415" height="8.620689655172415" fill="#0e372d"/>
            <rect x="275.86206896551727" y="51.72413793103449" width="8.620689655172415" height="8.620689655172415" fill="#0e372d"/>
            <rect x="68.96551724137932" y="60.344827586206904" width="8.620689655172415" height="8.620689655172415" fill="#0e372d"/>
            <rect x="77.58620689655173" y="60.344827586206904" width="8.620689655172415" height="8.620689655172415" fill="#0e372d"/>
            <rect x="103.44827586206898" y="60.344827586206904" width="8.620689655172415" height="8.620689655172415" fill="#0e372d"/>
            <rect x="120.68965517241381" y="60.344827586206904" width="8.620689655172415" height="8.620689655172415" fill="#0e372d"/>
            <rect x="137.93103448275863" y="60.344827586206904" width="8.620689655172415" height="8.620689655172415" fill="#0e372d"/>
            <rect x="163.79310344827587" y="60.344827586206904" width="8.620689655172415" height="8.620689655172415" fill="#0e372d"/>
            <rect x="181.0344827586207" y="60.344827586206904" width="8.620689655172415" height="8.620689655172415" fill="#0e372d"/>
            <rect x="198.27586206896552" y="60.344827586206904" width="8.620689655172415" height="8.620689655172415" fill="#0e372d"/>
            <rect x="0.0" y="68.96551724137932" width="8.620689655172415" height="8.620689655172415" fill="#0e372d"/>
            <rect x="17.24137931034483" y="68.96551724137932" width="8.620689655172415" height="8.620689655172415" fill="#0e372d"/>
            <rect x="25.862068965517246" y="68.96551724137932" width="8.620689655172415" height="8.620689655172415" fill="#0e372d"/>
            <rect x="34.48275862068966" y="68.96551724137932" width="8.620689655172415" height="8.620689655172415" fill="#0e372d"/>
            <rect x="43.10344827586207" y="68.96551724137932" width="8.620689655172415" height="8.620689655172415" fill="#0e372d"/>
            <rect x="51.72413793103449" y="68.96551724137932" width="8.620689655172415" height="8.620689655172415" fill="#0e372d"/>
            <rect x="77.58620689655173" y="68.96551724137932" width="8.620689655172415" height="8.620689655172415" fill="#0e372d"/>
            <rect x="86.20689655172414" y="68.96551724137932" width="8.620689655172415" height="8.620689655172415" fill="#0e372d"/>
            <rect x="94.82758620689656" y="68.96551724137932" width="8.620689655172415" height="8.620689655172415" fill="#0e372d"/>
            <rect x="103.44827586206898" y="68.96551724137932" width="8.620689655172415" height="8.620689655172415" fill="#0e372d"/>
            <rect x="112.0689655172414" y="68.96551724137932" width="8.620689655172415" height="8.620689655172415" fill="#0e372d"/>
            <rect x="137.93103448275863" y="68.96551724137932" width="8.620689655172415" height="8.620689655172415" fill="#0e372d"/>
            <rect x="146.55172413793105" y="68.96551724137932" width="8.620689655172415" height="8.620689655172415" fill="#0e372d"/>
            <rect x="155.17241379310346" y="68.96551724137932" width="8.620689655172415" height="8.620689655172415" fill="#0e372d"/>
            <rect x="189.6551724137931" y="68.96551724137932" width="8.620689655172415" height="8.620689655172415" fill="#0e372d"/>
            <rect x="206.89655172413796" y="68.96551724137932" width="8.620689655172415" height="8.620689655172415" fill="#0e372d"/>
            <rect x="224.1379310344828" y="68.96551724137932" width="8.620689655172415" height="8.620689655172415" fill="#0e372d"/>
            <rect x="232.7586206896552" y="68.96551724137932" width="8.620689655172415" height="8.620689655172415" fill="#0e372d"/>
            <rect x="241.37931034482762" y="68.96551724137932" width="8.620689655172415" height="8.620689655172415" fill="#0e372d"/>
            <rect x="250.00000000000003" y="68.96551724137932" width="8.620689655172415" height="8.620689655172415" fill="#0e372d"/>
            <rect x="258.62068965517244" y="68.96551724137932" width="8.620689655172415" height="8.620689655172415" fill="#0e372d"/>
            <rect x="8.620689655172415" y="77.58620689655173" width="8.620689655172415" height="8.620689655172415" fill="#0e372d"/>
            <rect x="17.24137931034483" y="77.58620689655173" width="8.620689655172415" height="8.620689655172415" fill="#0e372d"/>
            <rect x="34.48275862068966" y="77.58620689655173" width="8.620689655172415" height="8.620689655172415" fill="#0e372d"/>
            <rect x="60.344827586206904" y="77.58620689655173" width="8.620689655172415" height="8.620689655172415" fill="#0e372d"/>
            <rect x="68.96551724137932" y="77.58620689655173" width="8.620689655172415" height="8.620689655172415" fill="#0e372d"/>
            <rect x="77.58620689655173" y="77.58620689655173" width="8.620689655172415" height="8.620689655172415" fill="#0e372d"/>
            <rect x="86.20689655172414" y="77.58620689655173" width="8.620689655172415" height="8.620689655172415" fill="#0e372d"/>
            <rect x="103.44827586206898" y="77.58620689655173" width="8.620689655172415" height="8.620689655172415" fill="#0e372d"/>
            <rect x="112.0689655172414" y="77.58620689655173" width="8.620689655172415" height="8.620689655172415" fill="#0e372d"/>
            <rect x="146.55172413793105" y="77.58620689655173" width="8.620689655172415" height="8.620689655172415" fill="#0e372d"/>
            <rect x="163.79310344827587" y="77.58620689655173" width="8.620689655172415" height="8.620689655172415" fill="#0e372d"/>
            <rect x="172.41379310344828" y="77.58620689655173" width="8.620689655172415" height="8.620689655172415" fill="#0e372d"/>
            <rect x="189.6551724137931" y="77.58620689655173" width="8.620689655172415" height="8.620689655172415" fill="#0e372d"/>
            <rect x="198.27586206896552" y="77.58620689655173" width="8.620689655172415" height="8.620689655172415" fill="#0e372d"/>
            <rect x="224.1379310344828" y="77.58620689655173" width="8.620689655172415" height="8.620689655172415" fill="#0e372d"/>
            <rect x="232.7586206896552" y="77.58620689655173" width="8.620689655172415" height="8.620689655172415" fill="#0e372d"/>
            <rect x="250.00000000000003" y="77.58620689655173" width="8.620689655172415" height="8.620689655172415" fill="#0e372d"/>
            <rect x="258.62068965517244" y="77.58620689655173" width="8.620689655172415" height="8.620689655172415" fill="#0e372d"/>
            <rect x="267.2413793103448" y="77.58620689655173" width="8.620689655172415" height="8.620689655172415" fill="#0e372d"/>
            <rect x="275.86206896551727" y="77.58620689655173" width="8.620689655172415" height="8.620689655172415" fill="#0e372d"/>
            <rect x="51.72413793103449" y="86.20689655172414" width="8.620689655172415" height="8.620689655172415" fill="#0e372d"/>
            <rect x="68.96551724137932" y="86.20689655172414" width="8.620689655172415" height="8.620689655172415" fill="#0e372d"/>
            <rect x="86.20689655172414" y="86.20689655172414" width="8.620689655172415" height="8.620689655172415" fill="#0e372d"/>
            <rect x="103.44827586206898" y="86.20689655172414" width="8.620689655172415" height="8.620689655172415" fill="#0e372d"/>
            <rect x="112.0689655172414" y="86.20689655172414" width="8.620689655172415" height="8.620689655172415" fill="#0e372d"/>
            <rect x="120.68965517241381" y="86.20689655172414" width="8.620689655172415" height="8.620689655172415" fill="#0e372d"/>
            <rect x="129.31034482758622" y="86.20689655172414" width="8.620689655172415" height="8.620689655172415" fill="#0e372d"/>
            <rect x="137.93103448275863" y="86.20689655172414" width="8.620689655172415" height="8.620689655172415" fill="#0e372d"/>
            <rect x="155.17241379310346" y="86.20689655172414" width="8.620689655172415" height="8.620689655172415" fill="#0e372d"/>
            <rect x="172.41379310344828" y="86.20689655172414" width="8.620689655172415" height="8.620689655172415" fill="#0e372d"/>
            <rect x="181.0344827586207" y="86.20689655172414" width="8.620689655172415" height="8.620689655172415" fill="#0e372d"/>
            <rect x="189.6551724137931" y="86.20689655172414" width="8.620689655172415" height="8.620689655172415" fill="#0e372d"/>
            <rect x="206.89655172413796" y="86.20689655172414" width="8.620689655172415" height="8.620689655172415" fill="#0e372d"/>
            <rect x="241.37931034482762" y="86.20689655172414" width="8.620689655172415" height="8.620689655172415" fill="#0e372d"/>
            <rect x="258.62068965517244" y="86.20689655172414" width="8.620689655172415" height="8.620689655172415" fill="#0e372d"/>
            <rect x="17.24137931034483" y="94.82758620689656" width="8.620689655172415" height="8.620689655172415" fill="#0e372d"/>
            <rect x="25.862068965517246" y="94.82758620689656" width="8.620689655172415" height="8.620689655172415" fill="#0e372d"/>
            <rect x="34.48275862068966" y="94.82758620689656" width="8.620689655172415" height="8.620689655172415" fill="#0e372d"/>
            <rect x="60.344827586206904" y="94.82758620689656" width="8.620689655172415" height="8.620689655172415" fill="#0e372d"/>
            <rect x="103.44827586206898" y="94.82758620689656" width="8.620689655172415" height="8.620689655172415" fill="#0e372d"/>
            <rect x="112.0689655172414" y="94.82758620689656" width="8.620689655172415" height="8.620689655172415" fill="#0e372d"/>
            <rect x="129.31034482758622" y="94.82758620689656" width="8.620689655172415" height="8.620689655172415" fill="#0e372d"/>
            <rect x="163.79310344827587" y="94.82758620689656" width="8.620689655172415" height="8.620689655172415" fill="#0e372d"/>
            <rect x="172.41379310344828" y="94.82758620689656" width="8.620689655172415" height="8.620689655172415" fill="#0e372d"/>
            <rect x="181.0344827586207" y="94.82758620689656" width="8.620689655172415" height="8.620689655172415" fill="#0e372d"/>
            <rect x="189.6551724137931" y="94.82758620689656" width="8.620689655172415" height="8.620689655172415" fill="#0e372d"/>
            <rect x="215.51724137931038" y="94.82758620689656" width="8.620689655172415" height="8.620689655172415" fill="#0e372d"/>
            <rect x="224.1379310344828" y="94.82758620689656" width="8.620689655172415" height="8.620689655172415" fill="#0e372d"/>
            <rect x="241.37931034482762" y="94.82758620689656" width="8.620689655172415" height="8.620689655172415" fill="#0e372d"/>
            <rect x="250.00000000000003" y="94.82758620689656" width="8.620689655172415" height="8.620689655172415" fill="#0e372d"/>
            <rect x="258.62068965517244" y="94.82758620689656" width="8.620689655172415" height="8.620689655172415" fill="#0e372d"/>
            <rect x="0.0" y="103.44827586206898" width="8.620689655172415" height="8.620689655172415" fill="#0e372d"/>
            <rect x="8.620689655172415" y="103.44827586206898" width="8.620689655172415" height="8.620689655172415" fill="#0e372d"/>
            <rect x="17.24137931034483" y="103.44827586206898" width="8.620689655172415" height="8.620689655172415" fill="#0e372d"/>
            <rect x="43.10344827586207" y="103.44827586206898" width="8.620689655172415" height="8.620689655172415" fill="#0e372d"/>
            <rect x="51.72413793103449" y="103.44827586206898" width="8.620689655172415" height="8.620689655172415" fill="#0e372d"/>
            <rect x="60.344827586206904" y="103.44827586206898" width="8.620689655172415" height="8.620689655172415" fill="#0e372d"/>
            <rect x="120.68965517241381" y="103.44827586206898" width="8.620689655172415" height="8.620689655172415" fill="#0e372d"/>
            <rect x="129.31034482758622" y="103.44827586206898" width="8.620689655172415" height="8.620689655172415" fill="#0e372d"/>
            <rect x="146.55172413793105" y="103.44827586206898" width="8.620689655172415" height="8.620689655172415" fill="#0e372d"/>
            <rect x="155.17241379310346" y="103.44827586206898" width="8.620689655172415" height="8.620689655172415" fill="#0e372d"/>
            <rect x="163.79310344827587" y="103.44827586206898" width="8.620689655172415" height="8.620689655172415" fill="#0e372d"/>
            <rect x="172.41379310344828" y="103.44827586206898" width="8.620689655172415" height="8.620689655172415" fill="#0e372d"/>
            <rect x="241.37931034482762" y="103.44827586206898" width="8.620689655172415" height="8.620689655172415" fill="#0e372d"/>
            <rect x="250.00000000000003" y="103.44827586206898" width="8.620689655172415" height="8.620689655172415" fill="#0e372d"/>
            <rect x="275.86206896551727" y="103.44827586206898" width="8.620689655172415" height="8.620689655172415" fill="#0e372d"/>
            <rect x="0.0" y="112.0689655172414" width="8.620689655172415" height="8.620689655172415" fill="#0e372d"/>
            <rect x="8.620689655172415" y="112.0689655172414" width="8.620689655172415" height="8.620689655172415" fill="#0e372d"/>
            <rect x="43.10344827586207" y="112.0689655172414" width="8.620689655172415" height="8.620689655172415" fill="#0e372d"/>
            <rect x="60.344827586206904" y="112.0689655172414" width="8.620689655172415" height="8.620689655172415" fill="#0e372d"/>
            <rect x="68.96551724137932" y="112.0689655172414" width="8.620689655172415" height="8.620689655172415" fill="#0e372d"/>
            <rect x="94.82758620689656" y="112.0689655172414" width="8.620689655172415" height="8.620689655172415" fill="#0e372d"/>
            <rect x="129.31034482758622" y="112.0689655172414" width="8.620689655172415" height="8.620689655172415" fill="#0e372d"/>
            <rect x="163.79310344827587" y="112.0689655172414" width="8.620689655172415" height="8.620689655172415" fill="#0e372d"/>
            <rect x="181.0344827586207" y="112.0689655172414" width="8.620689655172415" height="8.620689655172415" fill="#0e372d"/>
            <rect x="189.6551724137931" y="112.0689655172414" width="8.620689655172415" height="8.620689655172415" fill="#0e372d"/>
            <rect x="198.27586206896552" y="112.0689655172414" width="8.620689655172415" height="8.620689655172415" fill="#0e372d"/>
            <rect x="206.89655172413796" y="112.0689655172414" width="8.620689655172415" height="8.620689655172415" fill="#0e372d"/>
            <rect x="215.51724137931038" y="112.0689655172414" width="8.620689655172415" height="8.620689655172415" fill="#0e372d"/>
            <rect x="224.1379310344828" y="112.0689655172414" width="8.620689655172415" height="8.620689655172415" fill="#0e372d"/>
            <rect x="232.7586206896552" y="112.0689655172414" width="8.620689655172415" height="8.620689655172415" fill="#0e372d"/>
            <rect x="258.62068965517244" y="112.0689655172414" width="8.620689655172415" height="8.620689655172415" fill="#0e372d"/>
            <rect x="267.2413793103448" y="112.0689655172414" width="8.620689655172415" height="8.620689655172415" fill="#0e372d"/>
            <rect x="275.86206896551727" y="112.0689655172414" width="8.620689655172415" height="8.620689655172415" fill="#0e372d"/>
            <rect x="8.620689655172415" y="120.68965517241381" width="8.620689655172415" height="8.620689655172415" fill="#0e372d"/>
            <rect x="17.24137931034483" y="120.68965517241381" width="8.620689655172415" height="8.620689655172415" fill="#0e372d"/>
            <rect x="25.862068965517246" y="120.68965517241381" width="8.620689655172415" height="8.620689655172415" fill="#0e372d"/>
            <rect x="51.72413793103449" y="120.68965517241381" width="8.620689655172415" height="8.620689655172415" fill="#0e372d"/>
            <rect x="68.96551724137932" y="120.68965517241381" width="8.620689655172415" height="8.620689655172415" fill="#0e372d"/>
            <rect x="129.31034482758622" y="120.68965517241381" width="8.620689655172415" height="8.620689655172415" fill="#0e372d"/>
            <rect x="146.55172413793105" y="120.68965517241381" width="8.620689655172415" height="8.620689655172415" fill="#0e372d"/>
            <rect x="181.0344827586207" y="120.68965517241381" width="8.620689655172415" height="8.620689655172415" fill="#0e372d"/>
            <rect x="189.6551724137931" y="120.68965517241381" width="8.620689655172415" height="8.620689655172415" fill="#0e372d"/>
            <rect x="206.89655172413796" y="120.68965517241381" width="8.620689655172415" height="8.620689655172415" fill="#0e372d"/>
            <rect x="215.51724137931038" y="120.68965517241381" width="8.620689655172415" height="8.620689655172415" fill="#0e372d"/>
            <rect x="224.1379310344828" y="120.68965517241381" width="8.620689655172415" height="8.620689655172415" fill="#0e372d"/>
            <rect x="241.37931034482762" y="120.68965517241381" width="8.620689655172415" height="8.620689655172415" fill="#0e372d"/>
            <rect x="258.62068965517244" y="120.68965517241381" width="8.620689655172415" height="8.620689655172415" fill="#0e372d"/>
            <rect x="267.2413793103448" y="120.68965517241381" width="8.620689655172415" height="8.620689655172415" fill="#0e372d"/>
            <rect x="8.620689655172415" y="129.31034482758622" width="8.620689655172415" height="8.620689655172415" fill="#0e372d"/>
            <rect x="25.862068965517246" y="129.31034482758622" width="8.620689655172415" height="8.620689655172415" fill="#0e372d"/>
            <rect x="43.10344827586207" y="129.31034482758622" width="8.620689655172415" height="8.620689655172415" fill="#0e372d"/>
            <rect x="86.20689655172414" y="129.31034482758622" width="8.620689655172415" height="8.620689655172415" fill="#0e372d"/>
            <rect x="94.82758620689656" y="129.31034482758622" width="8.620689655172415" height="8.620689655172415" fill="#0e372d"/>
            <rect x="103.44827586206898" y="129.31034482758622" width="8.620689655172415" height="8.620689655172415" fill="#0e372d"/>
            <rect x="129.31034482758622" y="129.31034482758622" width="8.620689655172415" height="8.620689655172415" fill="#0e372d"/>
            <rect x="155.17241379310346" y="129.31034482758622" width="8.620689655172415" height="8.620689655172415" fill="#0e372d"/>
            <rect x="181.0344827586207" y="129.31034482758622" width="8.620689655172415" height="8.620689655172415" fill="#0e372d"/>
            <rect x="215.51724137931038" y="129.31034482758622" width="8.620689655172415" height="8.620689655172415" fill="#0e372d"/>
            <rect x="224.1379310344828" y="129.31034482758622" width="8.620689655172415" height="8.620689655172415" fill="#0e372d"/>
            <rect x="232.7586206896552" y="129.31034482758622" width="8.620689655172415" height="8.620689655172415" fill="#0e372d"/>
            <rect x="258.62068965517244" y="129.31034482758622" width="8.620689655172415" height="8.620689655172415" fill="#0e372d"/>
            <rect x="0.0" y="137.93103448275863" width="8.620689655172415" height="8.620689655172415" fill="#0e372d"/>
            <rect x="8.620689655172415" y="137.93103448275863" width="8.620689655172415" height="8.620689655172415" fill="#0e372d"/>
            <rect x="34.48275862068966" y="137.93103448275863" width="8.620689655172415" height="8.620689655172415" fill="#0e372d"/>
            <rect x="51.72413793103449" y="137.93103448275863" width="8.620689655172415" height="8.620689655172415" fill="#0e372d"/>
            <rect x="60.344827586206904" y="137.93103448275863" width="8.620689655172415" height="8.620689655172415" fill="#0e372d"/>
            <rect x="68.96551724137932" y="137.93103448275863" width="8.620689655172415" height="8.620689655172415" fill="#0e372d"/>
            <rect x="77.58620689655173" y="137.93103448275863" width="8.620689655172415" height="8.620689655172415" fill="#0e372d"/>
            <rect x="129.31034482758622" y="137.93103448275863" width="8.620689655172415" height="8.620689655172415" fill="#0e372d"/>
            <rect x="137.93103448275863" y="137.93103448275863" width="8.620689655172415" height="8.620689655172415" fill="#0e372d"/>
            <rect x="146.55172413793105" y="137.93103448275863" width="8.620689655172415" height="8.620689655172415" fill="#0e372d"/>
            <rect x="155.17241379310346" y="137.93103448275863" width="8.620689655172415" height="8.620689655172415" fill="#0e372d"/>
            <rect x="215.51724137931038" y="137.93103448275863" width="8.620689655172415" height="8.620689655172415" fill="#0e372d"/>
            <rect x="232.7586206896552" y="137.93103448275863" width="8.620689655172415" height="8.620689655172415" fill="#0e372d"/>
            <rect x="241.37931034482762" y="137.93103448275863" width="8.620689655172415" height="8.620689655172415" fill="#0e372d"/>
            <rect x="250.00000000000003" y="137.93103448275863" width="8.620689655172415" height="8.620689655172415" fill="#0e372d"/>
            <rect x="275.86206896551727" y="137.93103448275863" width="8.620689655172415" height="8.620689655172415" fill="#0e372d"/>
            <rect x="8.620689655172415" y="146.55172413793105" width="8.620689655172415" height="8.620689655172415" fill="#0e372d"/>
            <rect x="25.862068965517246" y="146.55172413793105" width="8.620689655172415" height="8.620689655172415" fill="#0e372d"/>
            <rect x="60.344827586206904" y="146.55172413793105" width="8.620689655172415" height="8.620689655172415" fill="#0e372d"/>
            <rect x="68.96551724137932" y="146.55172413793105" width="8.620689655172415" height="8.620689655172415" fill="#0e372d"/>
            <rect x="77.58620689655173" y="146.55172413793105" width="8.620689655172415" height="8.620689655172415" fill="#0e372d"/>
            <rect x="112.0689655172414" y="146.55172413793105" width="8.620689655172415" height="8.620689655172415" fill="#0e372d"/>
            <rect x="120.68965517241381" y="146.55172413793105" width="8.620689655172415" height="8.620689655172415" fill="#0e372d"/>
            <rect x="163.79310344827587" y="146.55172413793105" width="8.620689655172415" height="8.620689655172415" fill="#0e372d"/>
            <rect x="181.0344827586207" y="146.55172413793105" width="8.620689655172415" height="8.620689655172415" fill="#0e372d"/>
            <rect x="198.27586206896552" y="146.55172413793105" width="8.620689655172415" height="8.620689655172415" fill="#0e372d"/>
            <rect x="224.1379310344828" y="146.55172413793105" width="8.620689655172415" height="8.620689655172415" fill="#0e372d"/>
            <rect x="232.7586206896552" y="146.55172413793105" width="8.620689655172415" height="8.620689655172415" fill="#0e372d"/>
            <rect x="250.00000000000003" y="146.55172413793105" width="8.620689655172415" height="8.620689655172415" fill="#0e372d"/>
            <rect x="258.62068965517244" y="146.55172413793105" width="8.620689655172415" height="8.620689655172415" fill="#0e372d"/>
            <rect x="267.2413793103448" y="146.55172413793105" width="8.620689655172415" height="8.620689655172415" fill="#0e372d"/>
            <rect x="275.86206896551727" y="146.55172413793105" width="8.620689655172415" height="8.620689655172415" fill="#0e372d"/>
            <rect x="17.24137931034483" y="155.17241379310346" width="8.620689655172415" height="8.620689655172415" fill="#0e372d"/>
            <rect x="34.48275862068966" y="155.17241379310346" width="8.620689655172415" height="8.620689655172415" fill="#0e372d"/>
            <rect x="51.72413793103449" y="155.17241379310346" width="8.620689655172415" height="8.620689655172415" fill="#0e372d"/>
            <rect x="60.344827586206904" y="155.17241379310346" width="8.620689655172415" height="8.620689655172415" fill="#0e372d"/>
            <rect x="68.96551724137932" y="155.17241379310346" width="8.620689655172415" height="8.620689655172415" fill="#0e372d"/>
            <rect x="86.20689655172414" y="155.17241379310346" width="8.620689655172415" height="8.620689655172415" fill="#0e372d"/>
            <rect x="103.44827586206898" y="155.17241379310346" width="8.620689655172415" height="8.620689655172415" fill="#0e372d"/>
            <rect x="129.31034482758622" y="155.17241379310346" width="8.620689655172415" height="8.620689655172415" fill="#0e372d"/>
            <rect x="172.41379310344828" y="155.17241379310346" width="8.620689655172415" height="8.620689655172415" fill="#0e372d"/>
            <rect x="232.7586206896552" y="155.17241379310346" width="8.620689655172415" height="8.620689655172415" fill="#0e372d"/>
            <rect x="241.37931034482762" y="155.17241379310346" width="8.620689655172415" height="8.620689655172415" fill="#0e372d"/>
            <rect x="258.62068965517244" y="155.17241379310346" width="8.620689655172415" height="8.620689655172415" fill="#0e372d"/>
            <rect x="8.620689655172415" y="163.79310344827587" width="8.620689655172415" height="8.620689655172415" fill="#0e372d"/>
            <rect x="25.862068965517246" y="163.79310344827587" width="8.620689655172415" height="8.620689655172415" fill="#0e372d"/>
            <rect x="34.48275862068966" y="163.79310344827587" width="8.620689655172415" height="8.620689655172415" fill="#0e372d"/>
            <rect x="43.10344827586207" y="163.79310344827587" width="8.620689655172415" height="8.620689655172415" fill="#0e372d"/>
            <rect x="68.96551724137932" y="163.79310344827587" width="8.620689655172415" height="8.620689655172415" fill="#0e372d"/>
            <rect x="86.20689655172414" y="163.79310344827587" width="8.620689655172415" height="8.620689655172415" fill="#0e372d"/>
            <rect x="103.44827586206898" y="163.79310344827587" width="8.620689655172415" height="8.620689655172415" fill="#0e372d"/>
            <rect x="112.0689655172414" y="163.79310344827587" width="8.620689655172415" height="8.620689655172415" fill="#0e372d"/>
            <rect x="120.68965517241381" y="163.79310344827587" width="8.620689655172415" height="8.620689655172415" fill="#0e372d"/>
            <rect x="129.31034482758622" y="163.79310344827587" width="8.620689655172415" height="8.620689655172415" fill="#0e372d"/>
            <rect x="137.93103448275863" y="163.79310344827587" width="8.620689655172415" height="8.620689655172415" fill="#0e372d"/>
            <rect x="172.41379310344828" y="163.79310344827587" width="8.620689655172415" height="8.620689655172415" fill="#0e372d"/>
            <rect x="181.0344827586207" y="163.79310344827587" width="8.620689655172415" height="8.620689655172415" fill="#0e372d"/>
            <rect x="189.6551724137931" y="163.79310344827587" width="8.620689655172415" height="8.620689655172415" fill="#0e372d"/>
            <rect x="206.89655172413796" y="163.79310344827587" width="8.620689655172415" height="8.620689655172415" fill="#0e372d"/>
            <rect x="215.51724137931038" y="163.79310344827587" width="8.620689655172415" height="8.620689655172415" fill="#0e372d"/>
            <rect x="224.1379310344828" y="163.79310344827587" width="8.620689655172415" height="8.620689655172415" fill="#0e372d"/>
            <rect x="232.7586206896552" y="163.79310344827587" width="8.620689655172415" height="8.620689655172415" fill="#0e372d"/>
            <rect x="241.37931034482762" y="163.79310344827587" width="8.620689655172415" height="8.620689655172415" fill="#0e372d"/>
            <rect x="250.00000000000003" y="163.79310344827587" width="8.620689655172415" height="8.620689655172415" fill="#0e372d"/>
            <rect x="258.62068965517244" y="163.79310344827587" width="8.620689655172415" height="8.620689655172415" fill="#0e372d"/>
            <rect x="0.0" y="172.41379310344828" width="8.620689655172415" height="8.620689655172415" fill="#0e372d"/>
            <rect x="8.620689655172415" y="172.41379310344828" width="8.620689655172415" height="8.620689655172415" fill="#0e372d"/>
            <rect x="25.862068965517246" y="172.41379310344828" width="8.620689655172415" height="8.620689655172415" fill="#0e372d"/>
            <rect x="34.48275862068966" y="172.41379310344828" width="8.620689655172415" height="8.620689655172415" fill="#0e372d"/>
            <rect x="43.10344827586207" y="172.41379310344828" width="8.620689655172415" height="8.620689655172415" fill="#0e372d"/>
            <rect x="51.72413793103449" y="172.41379310344828" width="8.620689655172415" height="8.620689655172415" fill="#0e372d"/>
            <rect x="60.344827586206904" y="172.41379310344828" width="8.620689655172415" height="8.620689655172415" fill="#0e372d"/>
            <rect x="86.20689655172414" y="172.41379310344828" width="8.620689655172415" height="8.620689655172415" fill="#0e372d"/>
            <rect x="94.82758620689656" y="172.41379310344828" width="8.620689655172415" height="8.620689655172415" fill="#0e372d"/>
            <rect x="103.44827586206898" y="172.41379310344828" width="8.620689655172415" height="8.620689655172415" fill="#0e372d"/>
            <rect x="129.31034482758622" y="172.41379310344828" width="8.620689655172415" height="8.620689655172415" fill="#0e372d"/>
            <rect x="146.55172413793105" y="172.41379310344828" width="8.620689655172415" height="8.620689655172415" fill="#0e372d"/>
            <rect x="155.17241379310346" y="172.41379310344828" width="8.620689655172415" height="8.620689655172415" fill="#0e372d"/>
            <rect x="163.79310344827587" y="172.41379310344828" width="8.620689655172415" height="8.620689655172415" fill="#0e372d"/>
            <rect x="172.41379310344828" y="172.41379310344828" width="8.620689655172415" height="8.620689655172415" fill="#0e372d"/>
            <rect x="206.89655172413796" y="172.41379310344828" width="8.620689655172415" height="8.620689655172415" fill="#0e372d"/>
            <rect x="241.37931034482762" y="172.41379310344828" width="8.620689655172415" height="8.620689655172415" fill="#0e372d"/>
            <rect x="250.00000000000003" y="172.41379310344828" width="8.620689655172415" height="8.620689655172415" fill="#0e372d"/>
            <rect x="267.2413793103448" y="172.41379310344828" width="8.620689655172415" height="8.620689655172415" fill="#0e372d"/>
            <rect x="0.0" y="181.0344827586207" width="8.620689655172415" height="8.620689655172415" fill="#0e372d"/>
            <rect x="8.620689655172415" y="181.0344827586207" width="8.620689655172415" height="8.620689655172415" fill="#0e372d"/>
            <rect x="25.862068965517246" y="181.0344827586207" width="8.620689655172415" height="8.620689655172415" fill="#0e372d"/>
            <rect x="34.48275862068966" y="181.0344827586207" width="8.620689655172415" height="8.620689655172415" fill="#0e372d"/>
            <rect x="43.10344827586207" y="181.0344827586207" width="8.620689655172415" height="8.620689655172415" fill="#0e372d"/>
            <rect x="86.20689655172414" y="181.0344827586207" width="8.620689655172415" height="8.620689655172415" fill="#0e372d"/>
            <rect x="112.0689655172414" y="181.0344827586207" width="8.620689655172415" height="8.620689655172415" fill="#0e372d"/>
            <rect x="120.68965517241381" y="181.0344827586207" width="8.620689655172415" height="8.620689655172415" fill="#0e372d"/>
            <rect x="129.31034482758622" y="181.0344827586207" width="8.620689655172415" height="8.620689655172415" fill="#0e372d"/>
            <rect x="146.55172413793105" y="181.0344827586207" width="8.620689655172415" height="8.620689655172415" fill="#0e372d"/>
            <rect x="163.79310344827587" y="181.0344827586207" width="8.620689655172415" height="8.620689655172415" fill="#0e372d"/>
            <rect x="189.6551724137931" y="181.0344827586207" width="8.620689655172415" height="8.620689655172415" fill="#0e372d"/>
            <rect x="198.27586206896552" y="181.0344827586207" width="8.620689655172415" height="8.620689655172415" fill="#0e372d"/>
            <rect x="224.1379310344828" y="181.0344827586207" width="8.620689655172415" height="8.620689655172415" fill="#0e372d"/>
            <rect x="232.7586206896552" y="181.0344827586207" width="8.620689655172415" height="8.620689655172415" fill="#0e372d"/>
            <rect x="250.00000000000003" y="181.0344827586207" width="8.620689655172415" height="8.620689655172415" fill="#0e372d"/>
            <rect x="258.62068965517244" y="181.0344827586207" width="8.620689655172415" height="8.620689655172415" fill="#0e372d"/>
            <rect x="275.86206896551727" y="181.0344827586207" width="8.620689655172415" height="8.620689655172415" fill="#0e372d"/>
            <rect x="0.0" y="189.6551724137931" width="8.620689655172415" height="8.620689655172415" fill="#0e372d"/>
            <rect x="25.862068965517246" y="189.6551724137931" width="8.620689655172415" height="8.620689655172415" fill="#0e372d"/>
            <rect x="43.10344827586207" y="189.6551724137931" width="8.620689655172415" height="8.620689655172415" fill="#0e372d"/>
            <rect x="51.72413793103449" y="189.6551724137931" width="8.620689655172415" height="8.620689655172415" fill="#0e372d"/>
            <rect x="60.344827586206904" y="189.6551724137931" width="8.620689655172415" height="8.620689655172415" fill="#0e372d"/>
            <rect x="77.58620689655173" y="189.6551724137931" width="8.620689655172415" height="8.620689655172415" fill="#0e372d"/>
            <rect x="86.20689655172414" y="189.6551724137931" width="8.620689655172415" height="8.620689655172415" fill="#0e372d"/>
            <rect x="112.0689655172414" y="189.6551724137931" width="8.620689655172415" height="8.620689655172415" fill="#0e372d"/>
            <rect x="129.31034482758622" y="189.6551724137931" width="8.620689655172415" height="8.620689655172415" fill="#0e372d"/>
            <rect x="137.93103448275863" y="189.6551724137931" width="8.620689655172415" height="8.620689655172415" fill="#0e372d"/>
            <rect x="155.17241379310346" y="189.6551724137931" width="8.620689655172415" height="8.620689655172415" fill="#0e372d"/>
            <rect x="189.6551724137931" y="189.6551724137931" width="8.620689655172415" height="8.620689655172415" fill="#0e372d"/>
            <rect x="232.7586206896552" y="189.6551724137931" width="8.620689655172415" height="8.620689655172415" fill="#0e372d"/>
            <rect x="258.62068965517244" y="189.6551724137931" width="8.620689655172415" height="8.620689655172415" fill="#0e372d"/>
            <rect x="267.2413793103448" y="189.6551724137931" width="8.620689655172415" height="8.620689655172415" fill="#0e372d"/>
            <rect x="0.0" y="198.27586206896552" width="8.620689655172415" height="8.620689655172415" fill="#0e372d"/>
            <rect x="25.862068965517246" y="198.27586206896552" width="8.620689655172415" height="8.620689655172415" fill="#0e372d"/>
            <rect x="34.48275862068966" y="198.27586206896552" width="8.620689655172415" height="8.620689655172415" fill="#0e372d"/>
            <rect x="60.344827586206904" y="198.27586206896552" width="8.620689655172415" height="8.620689655172415" fill="#0e372d"/>
            <rect x="68.96551724137932" y="198.27586206896552" width="8.620689655172415" height="8.620689655172415" fill="#0e372d"/>
            <rect x="137.93103448275863" y="198.27586206896552" width="8.620689655172415" height="8.620689655172415" fill="#0e372d"/>
            <rect x="155.17241379310346" y="198.27586206896552" width="8.620689655172415" height="8.620689655172415" fill="#0e372d"/>
            <rect x="181.0344827586207" y="198.27586206896552" width="8.620689655172415" height="8.620689655172415" fill="#0e372d"/>
            <rect x="206.89655172413796" y="198.27586206896552" width="8.620689655172415" height="8.620689655172415" fill="#0e372d"/>
            <rect x="215.51724137931038" y="198.27586206896552" width="8.620689655172415" height="8.620689655172415" fill="#0e372d"/>
            <rect x="224.1379310344828" y="198.27586206896552" width="8.620689655172415" height="8.620689655172415" fill="#0e372d"/>
            <rect x="232.7586206896552" y="198.27586206896552" width="8.620689655172415" height="8.620689655172415" fill="#0e372d"/>
            <rect x="241.37931034482762" y="198.27586206896552" width="8.620689655172415" height="8.620689655172415" fill="#0e372d"/>
            <rect x="258.62068965517244" y="198.27586206896552" width="8.620689655172415" height="8.620689655172415" fill="#0e372d"/>
            <rect x="275.86206896551727" y="198.27586206896552" width="8.620689655172415" height="8.620689655172415" fill="#0e372d"/>
            <rect x="0.0" y="206.89655172413796" width="8.620689655172415" height="8.620689655172415" fill="#0e372d"/>
            <rect x="17.24137931034483" y="206.89655172413796" width="8.620689655172415" height="8.620689655172415" fill="#0e372d"/>
            <rect x="51.72413793103449" y="206.89655172413796" width="8.620689655172415" height="8.620689655172415" fill="#0e372d"/>
            <rect x="60.344827586206904" y="206.89655172413796" width="8.620689655172415" height="8.620689655172415" fill="#0e372d"/>
            <rect x="68.96551724137932" y="206.89655172413796" width="8.620689655172415" height="8.620689655172415" fill="#0e372d"/>
            <rect x="77.58620689655173" y="206.89655172413796" width="8.620689655172415" height="8.620689655172415" fill="#0e372d"/>
            <rect x="86.20689655172414" y="206.89655172413796" width="8.620689655172415" height="8.620689655172415" fill="#0e372d"/>
            <rect x="112.0689655172414" y="206.89655172413796" width="8.620689655172415" height="8.620689655172415" fill="#0e372d"/>
            <rect x="120.68965517241381" y="206.89655172413796" width="8.620689655172415" height="8.620689655172415" fill="#0e372d"/>
            <rect x="129.31034482758622" y="206.89655172413796" width="8.620689655172415" height="8.620689655172415" fill="#0e372d"/>
            <rect x="137.93103448275863" y="206.89655172413796" width="8.620689655172415" height="8.620689655172415" fill="#0e372d"/>
            <rect x="146.55172413793105" y="206.89655172413796" width="8.620689655172415" height="8.620689655172415" fill="#0e372d"/>
            <rect x="163.79310344827587" y="206.89655172413796" width="8.620689655172415" height="8.620689655172415" fill="#0e372d"/>
            <rect x="189.6551724137931" y="206.89655172413796" width="8.620689655172415" height="8.620689655172415" fill="#0e372d"/>
            <rect x="206.89655172413796" y="206.89655172413796" width="8.620689655172415" height="8.620689655172415" fill="#0e372d"/>
            <rect x="215.51724137931038" y="206.89655172413796" width="8.620689655172415" height="8.620689655172415" fill="#0e372d"/>
            <rect x="224.1379310344828" y="206.89655172413796" width="8.620689655172415" height="8.620689655172415" fill="#0e372d"/>
            <rect x="232.7586206896552" y="206.89655172413796" width="8.620689655172415" height="8.620689655172415" fill="#0e372d"/>
            <rect x="241.37931034482762" y="206.89655172413796" width="8.620689655172415" height="8.620689655172415" fill="#0e372d"/>
            <rect x="275.86206896551727" y="206.89655172413796" width="8.620689655172415" height="8.620689655172415" fill="#0e372d"/>
            <rect x="68.96551724137932" y="215.51724137931038" width="8.620689655172415" height="8.620689655172415" fill="#0e372d"/>
            <rect x="103.44827586206898" y="215.51724137931038" width="8.620689655172415" height="8.620689655172415" fill="#0e372d"/>
            <rect x="112.0689655172414" y="215.51724137931038" width="8.620689655172415" height="8.620689655172415" fill="#0e372d"/>
            <rect x="155.17241379310346" y="215.51724137931038" width="8.620689655172415" height="8.620689655172415" fill="#0e372d"/>
            <rect x="163.79310344827587" y="215.51724137931038" width="8.620689655172415" height="8.620689655172415" fill="#0e372d"/>
            <rect x="172.41379310344828" y="215.51724137931038" width="8.620689655172415" height="8.620689655172415" fill="#0e372d"/>
            <rect x="181.0344827586207" y="215.51724137931038" width="8.620689655172415" height="8.620689655172415" fill="#0e372d"/>
            <rect x="206.89655172413796" y="215.51724137931038" width="8.620689655172415" height="8.620689655172415" fill="#0e372d"/>
            <rect x="241.37931034482762" y="215.51724137931038" width="8.620689655172415" height="8.620689655172415" fill="#0e372d"/>
            <rect x="258.62068965517244" y="215.51724137931038" width="8.620689655172415" height="8.620689655172415" fill="#0e372d"/>
            <rect x="275.86206896551727" y="215.51724137931038" width="8.620689655172415" height="8.620689655172415" fill="#0e372d"/>
            <rect x="0.0" y="224.1379310344828" width="8.620689655172415" height="8.620689655172415" fill="#0e372d"/>
            <rect x="8.620689655172415" y="224.1379310344828" width="8.620689655172415" height="8.620689655172415" fill="#0e372d"/>
            <rect x="17.24137931034483" y="224.1379310344828" width="8.620689655172415" height="8.620689655172415" fill="#0e372d"/>
            <rect x="25.862068965517246" y="224.1379310344828" width="8.620689655172415" height="8.620689655172415" fill="#0e372d"/>
            <rect x="34.48275862068966" y="224.1379310344828" width="8.620689655172415" height="8.620689655172415" fill="#0e372d"/>
            <rect x="43.10344827586207" y="224.1379310344828" width="8.620689655172415" height="8.620689655172415" fill="#0e372d"/>
            <rect x="51.72413793103449" y="224.1379310344828" width="8.620689655172415" height="8.620689655172415" fill="#0e372d"/>
            <rect x="77.58620689655173" y="224.1379310344828" width="8.620689655172415" height="8.620689655172415" fill="#0e372d"/>
            <rect x="86.20689655172414" y="224.1379310344828" width="8.620689655172415" height="8.620689655172415" fill="#0e372d"/>
            <rect x="94.82758620689656" y="224.1379310344828" width="8.620689655172415" height="8.620689655172415" fill="#0e372d"/>
            <rect x="112.0689655172414" y="224.1379310344828" width="8.620689655172415" height="8.620689655172415" fill="#0e372d"/>
            <rect x="129.31034482758622" y="224.1379310344828" width="8.620689655172415" height="8.620689655172415" fill="#0e372d"/>
            <rect x="137.93103448275863" y="224.1379310344828" width="8.620689655172415" height="8.620689655172415" fill="#0e372d"/>
            <rect x="146.55172413793105" y="224.1379310344828" width="8.620689655172415" height="8.620689655172415" fill="#0e372d"/>
            <rect x="155.17241379310346" y="224.1379310344828" width="8.620689655172415" height="8.620689655172415" fill="#0e372d"/>
            <rect x="172.41379310344828" y="224.1379310344828" width="8.620689655172415" height="8.620689655172415" fill="#0e372d"/>
            <rect x="198.27586206896552" y="224.1379310344828" width="8.620689655172415" height="8.620689655172415" fill="#0e372d"/>
            <rect x="206.89655172413796" y="224.1379310344828" width="8.620689655172415" height="8.620689655172415" fill="#0e372d"/>
            <rect x="224.1379310344828" y="224.1379310344828" width="8.620689655172415" height="8.620689655172415" fill="#0e372d"/>
            <rect x="241.37931034482762" y="224.1379310344828" width="8.620689655172415" height="8.620689655172415" fill="#0e372d"/>
            <rect x="258.62068965517244" y="224.1379310344828" width="8.620689655172415" height="8.620689655172415" fill="#0e372d"/>
            <rect x="267.2413793103448" y="224.1379310344828" width="8.620689655172415" height="8.620689655172415" fill="#0e372d"/>
            <rect x="0.0" y="232.7586206896552" width="8.620689655172415" height="8.620689655172415" fill="#0e372d"/>
            <rect x="51.72413793103449" y="232.7586206896552" width="8.620689655172415" height="8.620689655172415" fill="#0e372d"/>
            <rect x="68.96551724137932" y="232.7586206896552" width="8.620689655172415" height="8.620689655172415" fill="#0e372d"/>
            <rect x="112.0689655172414" y="232.7586206896552" width="8.620689655172415" height="8.620689655172415" fill="#0e372d"/>
            <rect x="120.68965517241381" y="232.7586206896552" width="8.620689655172415" height="8.620689655172415" fill="#0e372d"/>
            <rect x="129.31034482758622" y="232.7586206896552" width="8.620689655172415" height="8.620689655172415" fill="#0e372d"/>
            <rect x="155.17241379310346" y="232.7586206896552" width="8.620689655172415" height="8.620689655172415" fill="#0e372d"/>
            <rect x="163.79310344827587" y="232.7586206896552" width="8.620689655172415" height="8.620689655172415" fill="#0e372d"/>
            <rect x="172.41379310344828" y="232.7586206896552" width="8.620689655172415" height="8.620689655172415" fill="#0e372d"/>
            <rect x="181.0344827586207" y="232.7586206896552" width="8.620689655172415" height="8.620689655172415" fill="#0e372d"/>
            <rect x="198.27586206896552" y="232.7586206896552" width="8.620689655172415" height="8.620689655172415" fill="#0e372d"/>
            <rect x="206.89655172413796" y="232.7586206896552" width="8.620689655172415" height="8.620689655172415" fill="#0e372d"/>
            <rect x="241.37931034482762" y="232.7586206896552" width="8.620689655172415" height="8.620689655172415" fill="#0e372d"/>
            <rect x="250.00000000000003" y="232.7586206896552" width="8.620689655172415" height="8.620689655172415" fill="#0e372d"/>
            <rect x="258.62068965517244" y="232.7586206896552" width="8.620689655172415" height="8.620689655172415" fill="#0e372d"/>
            <rect x="267.2413793103448" y="232.7586206896552" width="8.620689655172415" height="8.620689655172415" fill="#0e372d"/>
            <rect x="0.0" y="241.37931034482762" width="8.620689655172415" height="8.620689655172415" fill="#0e372d"/>
            <rect x="17.24137931034483" y="241.37931034482762" width="8.620689655172415" height="8.620689655172415" fill="#0e372d"/>
            <rect x="25.862068965517246" y="241.37931034482762" width="8.620689655172415" height="8.620689655172415" fill="#0e372d"/>
            <rect x="34.48275862068966" y="241.37931034482762" width="8.620689655172415" height="8.620689655172415" fill="#0e372d"/>
            <rect x="51.72413793103449" y="241.37931034482762" width="8.620689655172415" height="8.620689655172415" fill="#0e372d"/>
            <rect x="68.96551724137932" y="241.37931034482762" width="8.620689655172415" height="8.620689655172415" fill="#0e372d"/>
            <rect x="86.20689655172414" y="241.37931034482762" width="8.620689655172415" height="8.620689655172415" fill="#0e372d"/>
            <rect x="103.44827586206898" y="241.37931034482762" width="8.620689655172415" height="8.620689655172415" fill="#0e372d"/>
            <rect x="112.0689655172414" y="241.37931034482762" width="8.620689655172415" height="8.620689655172415" fill="#0e372d"/>
            <rect x="120.68965517241381" y="241.37931034482762" width="8.620689655172415" height="8.620689655172415" fill="#0e372d"/>
            <rect x="137.93103448275863" y="241.37931034482762" width="8.620689655172415" height="8.620689655172415" fill="#0e372d"/>
            <rect x="146.55172413793105" y="241.37931034482762" width="8.620689655172415" height="8.620689655172415" fill="#0e372d"/>
            <rect x="155.17241379310346" y="241.37931034482762" width="8.620689655172415" height="8.620689655172415" fill="#0e372d"/>
            <rect x="163.79310344827587" y="241.37931034482762" width="8.620689655172415" height="8.620689655172415" fill="#0e372d"/>
            <rect x="172.41379310344828" y="241.37931034482762" width="8.620689655172415" height="8.620689655172415" fill="#0e372d"/>
            <rect x="189.6551724137931" y="241.37931034482762" width="8.620689655172415" height="8.620689655172415" fill="#0e372d"/>
            <rect x="206.89655172413796" y="241.37931034482762" width="8.620689655172415" height="8.620689655172415" fill="#0e372d"/>
            <rect x="215.51724137931038" y="241.37931034482762" width="8.620689655172415" height="8.620689655172415" fill="#0e372d"/>
            <rect x="224.1379310344828" y="241.37931034482762" width="8.620689655172415" height="8.620689655172415" fill="#0e372d"/>
            <rect x="232.7586206896552" y="241.37931034482762" width="8.620689655172415" height="8.620689655172415" fill="#0e372d"/>
            <rect x="241.37931034482762" y="241.37931034482762" width="8.620689655172415" height="8.620689655172415" fill="#0e372d"/>
            <rect x="250.00000000000003" y="241.37931034482762" width="8.620689655172415" height="8.620689655172415" fill="#0e372d"/>
            <rect x="267.2413793103448" y="241.37931034482762" width="8.620689655172415" height="8.620689655172415" fill="#0e372d"/>
            <rect x="275.86206896551727" y="241.37931034482762" width="8.620689655172415" height="8.620689655172415" fill="#0e372d"/>
            <rect x="0.0" y="250.00000000000003" width="8.620689655172415" height="8.620689655172415" fill="#0e372d"/>
            <rect x="17.24137931034483" y="250.00000000000003" width="8.620689655172415" height="8.620689655172415" fill="#0e372d"/>
            <rect x="25.862068965517246" y="250.00000000000003" width="8.620689655172415" height="8.620689655172415" fill="#0e372d"/>
            <rect x="34.48275862068966" y="250.00000000000003" width="8.620689655172415" height="8.620689655172415" fill="#0e372d"/>
            <rect x="51.72413793103449" y="250.00000000000003" width="8.620689655172415" height="8.620689655172415" fill="#0e372d"/>
            <rect x="68.96551724137932" y="250.00000000000003" width="8.620689655172415" height="8.620689655172415" fill="#0e372d"/>
            <rect x="163.79310344827587" y="250.00000000000003" width="8.620689655172415" height="8.620689655172415" fill="#0e372d"/>
            <rect x="181.0344827586207" y="250.00000000000003" width="8.620689655172415" height="8.620689655172415" fill="#0e372d"/>
            <rect x="206.89655172413796" y="250.00000000000003" width="8.620689655172415" height="8.620689655172415" fill="#0e372d"/>
            <rect x="215.51724137931038" y="250.00000000000003" width="8.620689655172415" height="8.620689655172415" fill="#0e372d"/>
            <rect x="241.37931034482762" y="250.00000000000003" width="8.620689655172415" height="8.620689655172415" fill="#0e372d"/>
            <rect x="250.00000000000003" y="250.00000000000003" width="8.620689655172415" height="8.620689655172415" fill="#0e372d"/>
            <rect x="267.2413793103448" y="250.00000000000003" width="8.620689655172415" height="8.620689655172415" fill="#0e372d"/>
            <rect x="275.86206896551727" y="250.00000000000003" width="8.620689655172415" height="8.620689655172415" fill="#0e372d"/>
            <rect x="0.0" y="258.62068965517244" width="8.620689655172415" height="8.620689655172415" fill="#0e372d"/>
            <rect x="17.24137931034483" y="258.62068965517244" width="8.620689655172415" height="8.620689655172415" fill="#0e372d"/>
            <rect x="25.862068965517246" y="258.62068965517244" width="8.620689655172415" height="8.620689655172415" fill="#0e372d"/>
            <rect x="34.48275862068966" y="258.62068965517244" width="8.620689655172415" height="8.620689655172415" fill="#0e372d"/>
            <rect x="51.72413793103449" y="258.62068965517244" width="8.620689655172415" height="8.620689655172415" fill="#0e372d"/>
            <rect x="68.96551724137932" y="258.62068965517244" width="8.620689655172415" height="8.620689655172415" fill="#0e372d"/>
            <rect x="77.58620689655173" y="258.62068965517244" width="8.620689655172415" height="8.620689655172415" fill="#0e372d"/>
            <rect x="86.20689655172414" y="258.62068965517244" width="8.620689655172415" height="8.620689655172415" fill="#0e372d"/>
            <rect x="94.82758620689656" y="258.62068965517244" width="8.620689655172415" height="8.620689655172415" fill="#0e372d"/>
            <rect x="103.44827586206898" y="258.62068965517244" width="8.620689655172415" height="8.620689655172415" fill="#0e372d"/>
            <rect x="120.68965517241381" y="258.62068965517244" width="8.620689655172415" height="8.620689655172415" fill="#0e372d"/>
            <rect x="129.31034482758622" y="258.62068965517244" width="8.620689655172415" height="8.620689655172415" fill="#0e372d"/>
            <rect x="146.55172413793105" y="258.62068965517244" width="8.620689655172415" height="8.620689655172415" fill="#0e372d"/>
            <rect x="155.17241379310346" y="258.62068965517244" width="8.620689655172415" height="8.620689655172415" fill="#0e372d"/>
            <rect x="172.41379310344828" y="258.62068965517244" width="8.620689655172415" height="8.620689655172415" fill="#0e372d"/>
            <rect x="224.1379310344828" y="258.62068965517244" width="8.620689655172415" height="8.620689655172415" fill="#0e372d"/>
            <rect x="232.7586206896552" y="258.62068965517244" width="8.620689655172415" height="8.620689655172415" fill="#0e372d"/>
            <rect x="250.00000000000003" y="258.62068965517244" width="8.620689655172415" height="8.620689655172415" fill="#0e372d"/>
            <rect x="258.62068965517244" y="258.62068965517244" width="8.620689655172415" height="8.620689655172415" fill="#0e372d"/>
            <rect x="0.0" y="267.2413793103448" width="8.620689655172415" height="8.620689655172415" fill="#0e372d"/>
            <rect x="51.72413793103449" y="267.2413793103448" width="8.620689655172415" height="8.620689655172415" fill="#0e372d"/>
            <rect x="94.82758620689656" y="267.2413793103448" width="8.620689655172415" height="8.620689655172415" fill="#0e372d"/>
            <rect x="120.68965517241381" y="267.2413793103448" width="8.620689655172415" height="8.620689655172415" fill="#0e372d"/>
            <rect x="129.31034482758622" y="267.2413793103448" width="8.620689655172415" height="8.620689655172415" fill="#0e372d"/>
            <rect x="137.93103448275863" y="267.2413793103448" width="8.620689655172415" height="8.620689655172415" fill="#0e372d"/>
            <rect x="163.79310344827587" y="267.2413793103448" width="8.620689655172415" height="8.620689655172415" fill="#0e372d"/>
            <rect x="181.0344827586207" y="267.2413793103448" width="8.620689655172415" height="8.620689655172415" fill="#0e372d"/>
            <rect x="189.6551724137931" y="267.2413793103448" width="8.620689655172415" height="8.620689655172415" fill="#0e372d"/>
            <rect x="215.51724137931038" y="267.2413793103448" width="8.620689655172415" height="8.620689655172415" fill="#0e372d"/>
            <rect x="224.1379310344828" y="267.2413793103448" width="8.620689655172415" height="8.620689655172415" fill="#0e372d"/>
            <rect x="241.37931034482762" y="267.2413793103448" width="8.620689655172415" height="8.620689655172415" fill="#0e372d"/>
            <rect x="258.62068965517244" y="267.2413793103448" width="8.620689655172415" height="8.620689655172415" fill="#0e372d"/>
            <rect x="0.0" y="275.86206896551727" width="8.620689655172415" height="8.620689655172415" fill="#0e372d"/>
            <rect x="8.620689655172415" y="275.86206896551727" width="8.620689655172415" height="8.620689655172415" fill="#0e372d"/>
            <rect x="17.24137931034483" y="275.86206896551727" width="8.620689655172415" height="8.620689655172415" fill="#0e372d"/>
            <rect x="25.862068965517246" y="275.86206896551727" width="8.620689655172415" height="8.620689655172415" fill="#0e372d"/>
            <rect x="34.48275862068966" y="275.86206896551727" width="8.620689655172415" height="8.620689655172415" fill="#0e372d"/>
            <rect x="43.10344827586207" y="275.86206896551727" width="8.620689655172415" height="8.620689655172415" fill="#0e372d"/>
            <rect x="51.72413793103449" y="275.86206896551727" width="8.620689655172415" height="8.620689655172415" fill="#0e372d"/>
            <rect x="68.96551724137932" y="275.86206896551727" width="8.620689655172415" height="8.620689655172415" fill="#0e372d"/>
            <rect x="94.82758620689656" y="275.86206896551727" width="8.620689655172415" height="8.620689655172415" fill="#0e372d"/>
            <rect x="103.44827586206898" y="275.86206896551727" width="8.620689655172415" height="8.620689655172415" fill="#0e372d"/>
            <rect x="112.0689655172414" y="275.86206896551727" width="8.620689655172415" height="8.620689655172415" fill="#0e372d"/>
            <rect x="129.31034482758622" y="275.86206896551727" width="8.620689655172415" height="8.620689655172415" fill="#0e372d"/>
            <rect x="137.93103448275863" y="275.86206896551727" width="8.620689655172415" height="8.620689655172415" fill="#0e372d"/>
            <rect x="146.55172413793105" y="275.86206896551727" width="8.620689655172415" height="8.620689655172415" fill="#0e372d"/>
            <rect x="155.17241379310346" y="275.86206896551727" width="8.620689655172415" height="8.620689655172415" fill="#0e372d"/>
            <rect x="189.6551724137931" y="275.86206896551727" width="8.620689655172415" height="8.620689655172415" fill="#0e372d"/>
            <rect x="198.27586206896552" y="275.86206896551727" width="8.620689655172415" height="8.620689655172415" fill="#0e372d"/>
            <rect x="206.89655172413796" y="275.86206896551727" width="8.620689655172415" height="8.620689655172415" fill="#0e372d"/>
            <rect x="215.51724137931038" y="275.86206896551727" width="8.620689655172415" height="8.620689655172415" fill="#0e372d"/>
            <rect x="232.7586206896552" y="275.86206896551727" width="8.620689655172415" height="8.620689655172415" fill="#0e372d"/>
            <rect x="250.00000000000003" y="275.86206896551727" width="8.620689655172415" height="8.620689655172415" fill="#0e372d"/>
            <rect x="267.2413793103448" y="275.86206896551727" width="8.620689655172415" height="8.620689655172415" fill="#0e372d"/>
          </g>
        </svg>
      </g>
      <path class="cls4-1" d="M215 620.5v988.35h1570V620.5Zm905.59 899.66H310.76V710.33h809.83Z"/>
      <path class="cls4-2" d="M215 391.15h1570V620.5H215zM1347.39 1160H1304V872.64l-86.92 31.92v-39.15L1340.63 819h6.76ZM1655.68 1046h47.08v35.19h-47.08V1160h-43.34v-78.8h-154.5v-25.4l151.94-235.13h45.9Zm-148.9 0h105.56V879.63l-5.13 9.32ZM1363 1337.25h-70.49v74.19h-22.16v-168h104.08v18.11h-81.92v57.58H1363ZM1495.88 1333.79h-72.8v59.54h84.57v18.11h-106.73v-168h105.57v18.11h-83.41v54.12h72.8ZM1535.22 1411.44v-168h54.92q27.34 0 41.14 11.31t13.78 33.46a34.11 34.11 0 0 1-6.69 20.82 43.31 43.31 0 0 1-18.23 14 39 39 0 0 1 21.52 14.48q7.9 10.68 7.9 25.44 0 22.62-14.65 35.54t-41.42 12.92Zm22.16-96.34h33.46q14.54 0 23.24-7.28t8.72-19.78q0-13.87-8.08-20.17t-24.58-6.31h-32.76Zm0 17.77v60.46H1594q15.46 0 24.4-8t9-22.1q0-30.35-33-30.34Z"/>
      <circle class="cls4-1" cx="426.62" cy="505.83" r="74.48"/>
      <circle class="cls4-1" cx="1572.2" cy="505.83" r="74.48"/>
      <path class="cls4-2" d="M1150.45 1580.59c-39.58-1.48-74.71-8.92-101.59-21.5-27.38-12.82-43.67-29.76-47.12-49-2.72-15.19 1.83-38.09 18.26-52.47 13.61-11.9 33.38-16.26 53.61-12 6.05-19.77 19.41-35 36.4-41.16 20.52-7.45 42.77-.39 54.77 9.33 15.18 12.3 22.15 34.75 20.16 64.91-2 29.61-12.39 64-30.19 99.35l-.6 1.2-2.29 1.33ZM1058.56 1453c-12.55 0-24.1 3.91-32.63 11.38-13.8 12.07-17.62 31.32-15.33 44.1 2.87 16 17.81 31.07 42.08 42.43 25.16 11.78 58.06 18.86 95.29 20.54 16.49-33.41 26.16-65.65 28-93.37 1.76-26.73-4.22-47.09-16.85-57.33-10.09-8.17-28.8-14.12-46-7.86-15.37 5.58-27.29 20.22-31.91 39.16l-1.09 4.48-4.46-1.2a65 65 0 0 0-17.1-2.33Z"/>
    </g>
  </g>
</svg>
