<svg fill="none" xmlns="http://www.w3.org/2000/svg" width="300" height="300" viewBox="0 0 300 300">
  <g clip-path="url(#clip0_2087_157470)" transform="translate(20, 10)">
    <svg>
      <g transform="translate(90, 90)scale(0.3)" fill="none">
        <rect x="0" y="0" width="284.4827586206897" height="284.4827586206897" fill="#ffffff"/>
        <rect x="0.0" y="0.0" width="8.620689655172415" height="8.620689655172415" fill="#0e372d"/>
        <rect x="8.620689655172415" y="0.0" width="8.620689655172415" height="8.620689655172415" fill="#0e372d"/>
        <rect x="17.24137931034483" y="0.0" width="8.620689655172415" height="8.620689655172415" fill="#0e372d"/>
        <rect x="25.862068965517246" y="0.0" width="8.620689655172415" height="8.620689655172415" fill="#0e372d"/>
        <rect x="34.48275862068966" y="0.0" width="8.620689655172415" height="8.620689655172415" fill="#0e372d"/>
        <rect x="43.10344827586207" y="0.0" width="8.620689655172415" height="8.620689655172415" fill="#0e372d"/>
        <rect x="51.72413793103449" y="0.0" width="8.620689655172415" height="8.620689655172415" fill="#0e372d"/>
        <rect x="94.82758620689656" y="0.0" width="8.620689655172415" height="8.620689655172415" fill="#0e372d"/>
        <rect x="120.68965517241381" y="0.0" width="8.620689655172415" height="8.620689655172415" fill="#0e372d"/>
        <rect x="155.17241379310346" y="0.0" width="8.620689655172415" height="8.620689655172415" fill="#0e372d"/>
        <rect x="163.79310344827587" y="0.0" width="8.620689655172415" height="8.620689655172415" fill="#0e372d"/>
        <rect x="181.0344827586207" y="0.0" width="8.620689655172415" height="8.620689655172415" fill="#0e372d"/>
        <rect x="189.6551724137931" y="0.0" width="8.620689655172415" height="8.620689655172415" fill="#0e372d"/>
        <rect x="198.27586206896552" y="0.0" width="8.620689655172415" height="8.620689655172415" fill="#0e372d"/>
        <rect x="224.1379310344828" y="0.0" width="8.620689655172415" height="8.620689655172415" fill="#0e372d"/>
        <rect x="232.7586206896552" y="0.0" width="8.620689655172415" height="8.620689655172415" fill="#0e372d"/>
        <rect x="241.37931034482762" y="0.0" width="8.620689655172415" height="8.620689655172415" fill="#0e372d"/>
        <rect x="250.00000000000003" y="0.0" width="8.620689655172415" height="8.620689655172415" fill="#0e372d"/>
        <rect x="258.62068965517244" y="0.0" width="8.620689655172415" height="8.620689655172415" fill="#0e372d"/>
        <rect x="267.2413793103448" y="0.0" width="8.620689655172415" height="8.620689655172415" fill="#0e372d"/>
        <rect x="275.86206896551727" y="0.0" width="8.620689655172415" height="8.620689655172415" fill="#0e372d"/>
        <rect x="0.0" y="8.620689655172415" width="8.620689655172415" height="8.620689655172415" fill="#0e372d"/>
        <rect x="51.72413793103449" y="8.620689655172415" width="8.620689655172415" height="8.620689655172415" fill="#0e372d"/>
        <rect x="77.58620689655173" y="8.620689655172415" width="8.620689655172415" height="8.620689655172415" fill="#0e372d"/>
        <rect x="103.44827586206898" y="8.620689655172415" width="8.620689655172415" height="8.620689655172415" fill="#0e372d"/>
        <rect x="129.31034482758622" y="8.620689655172415" width="8.620689655172415" height="8.620689655172415" fill="#0e372d"/>
        <rect x="137.93103448275863" y="8.620689655172415" width="8.620689655172415" height="8.620689655172415" fill="#0e372d"/>
        <rect x="155.17241379310346" y="8.620689655172415" width="8.620689655172415" height="8.620689655172415" fill="#0e372d"/>
        <rect x="172.41379310344828" y="8.620689655172415" width="8.620689655172415" height="8.620689655172415" fill="#0e372d"/>
        <rect x="189.6551724137931" y="8.620689655172415" width="8.620689655172415" height="8.620689655172415" fill="#0e372d"/>
        <rect x="224.1379310344828" y="8.620689655172415" width="8.620689655172415" height="8.620689655172415" fill="#0e372d"/>
        <rect x="275.86206896551727" y="8.620689655172415" width="8.620689655172415" height="8.620689655172415" fill="#0e372d"/>
        <rect x="0.0" y="17.24137931034483" width="8.620689655172415" height="8.620689655172415" fill="#0e372d"/>
        <rect x="17.24137931034483" y="17.24137931034483" width="8.620689655172415" height="8.620689655172415" fill="#0e372d"/>
        <rect x="25.862068965517246" y="17.24137931034483" width="8.620689655172415" height="8.620689655172415" fill="#0e372d"/>
        <rect x="34.48275862068966" y="17.24137931034483" width="8.620689655172415" height="8.620689655172415" fill="#0e372d"/>
        <rect x="51.72413793103449" y="17.24137931034483" width="8.620689655172415" height="8.620689655172415" fill="#0e372d"/>
        <rect x="68.96551724137932" y="17.24137931034483" width="8.620689655172415" height="8.620689655172415" fill="#0e372d"/>
        <rect x="94.82758620689656" y="17.24137931034483" width="8.620689655172415" height="8.620689655172415" fill="#0e372d"/>
        <rect x="103.44827586206898" y="17.24137931034483" width="8.620689655172415" height="8.620689655172415" fill="#0e372d"/>
        <rect x="120.68965517241381" y="17.24137931034483" width="8.620689655172415" height="8.620689655172415" fill="#0e372d"/>
        <rect x="129.31034482758622" y="17.24137931034483" width="8.620689655172415" height="8.620689655172415" fill="#0e372d"/>
        <rect x="163.79310344827587" y="17.24137931034483" width="8.620689655172415" height="8.620689655172415" fill="#0e372d"/>
        <rect x="181.0344827586207" y="17.24137931034483" width="8.620689655172415" height="8.620689655172415" fill="#0e372d"/>
        <rect x="198.27586206896552" y="17.24137931034483" width="8.620689655172415" height="8.620689655172415" fill="#0e372d"/>
        <rect x="224.1379310344828" y="17.24137931034483" width="8.620689655172415" height="8.620689655172415" fill="#0e372d"/>
        <rect x="241.37931034482762" y="17.24137931034483" width="8.620689655172415" height="8.620689655172415" fill="#0e372d"/>
        <rect x="250.00000000000003" y="17.24137931034483" width="8.620689655172415" height="8.620689655172415" fill="#0e372d"/>
        <rect x="258.62068965517244" y="17.24137931034483" width="8.620689655172415" height="8.620689655172415" fill="#0e372d"/>
        <rect x="275.86206896551727" y="17.24137931034483" width="8.620689655172415" height="8.620689655172415" fill="#0e372d"/>
        <rect x="0.0" y="25.862068965517246" width="8.620689655172415" height="8.620689655172415" fill="#0e372d"/>
        <rect x="17.24137931034483" y="25.862068965517246" width="8.620689655172415" height="8.620689655172415" fill="#0e372d"/>
        <rect x="25.862068965517246" y="25.862068965517246" width="8.620689655172415" height="8.620689655172415" fill="#0e372d"/>
        <rect x="34.48275862068966" y="25.862068965517246" width="8.620689655172415" height="8.620689655172415" fill="#0e372d"/>
        <rect x="51.72413793103449" y="25.862068965517246" width="8.620689655172415" height="8.620689655172415" fill="#0e372d"/>
        <rect x="68.96551724137932" y="25.862068965517246" width="8.620689655172415" height="8.620689655172415" fill="#0e372d"/>
        <rect x="77.58620689655173" y="25.862068965517246" width="8.620689655172415" height="8.620689655172415" fill="#0e372d"/>
        <rect x="86.20689655172414" y="25.862068965517246" width="8.620689655172415" height="8.620689655172415" fill="#0e372d"/>
        <rect x="103.44827586206898" y="25.862068965517246" width="8.620689655172415" height="8.620689655172415" fill="#0e372d"/>
        <rect x="129.31034482758622" y="25.862068965517246" width="8.620689655172415" height="8.620689655172415" fill="#0e372d"/>
        <rect x="146.55172413793105" y="25.862068965517246" width="8.620689655172415" height="8.620689655172415" fill="#0e372d"/>
        <rect x="155.17241379310346" y="25.862068965517246" width="8.620689655172415" height="8.620689655172415" fill="#0e372d"/>
        <rect x="172.41379310344828" y="25.862068965517246" width="8.620689655172415" height="8.620689655172415" fill="#0e372d"/>
        <rect x="224.1379310344828" y="25.862068965517246" width="8.620689655172415" height="8.620689655172415" fill="#0e372d"/>
        <rect x="241.37931034482762" y="25.862068965517246" width="8.620689655172415" height="8.620689655172415" fill="#0e372d"/>
        <rect x="250.00000000000003" y="25.862068965517246" width="8.620689655172415" height="8.620689655172415" fill="#0e372d"/>
        <rect x="258.62068965517244" y="25.862068965517246" width="8.620689655172415" height="8.620689655172415" fill="#0e372d"/>
        <rect x="275.86206896551727" y="25.862068965517246" width="8.620689655172415" height="8.620689655172415" fill="#0e372d"/>
        <rect x="0.0" y="34.48275862068966" width="8.620689655172415" height="8.620689655172415" fill="#0e372d"/>
        <rect x="17.24137931034483" y="34.48275862068966" width="8.620689655172415" height="8.620689655172415" fill="#0e372d"/>
        <rect x="25.862068965517246" y="34.48275862068966" width="8.620689655172415" height="8.620689655172415" fill="#0e372d"/>
        <rect x="34.48275862068966" y="34.48275862068966" width="8.620689655172415" height="8.620689655172415" fill="#0e372d"/>
        <rect x="51.72413793103449" y="34.48275862068966" width="8.620689655172415" height="8.620689655172415" fill="#0e372d"/>
        <rect x="68.96551724137932" y="34.48275862068966" width="8.620689655172415" height="8.620689655172415" fill="#0e372d"/>
        <rect x="77.58620689655173" y="34.48275862068966" width="8.620689655172415" height="8.620689655172415" fill="#0e372d"/>
        <rect x="86.20689655172414" y="34.48275862068966" width="8.620689655172415" height="8.620689655172415" fill="#0e372d"/>
        <rect x="120.68965517241381" y="34.48275862068966" width="8.620689655172415" height="8.620689655172415" fill="#0e372d"/>
        <rect x="129.31034482758622" y="34.48275862068966" width="8.620689655172415" height="8.620689655172415" fill="#0e372d"/>
        <rect x="137.93103448275863" y="34.48275862068966" width="8.620689655172415" height="8.620689655172415" fill="#0e372d"/>
        <rect x="146.55172413793105" y="34.48275862068966" width="8.620689655172415" height="8.620689655172415" fill="#0e372d"/>
        <rect x="163.79310344827587" y="34.48275862068966" width="8.620689655172415" height="8.620689655172415" fill="#0e372d"/>
        <rect x="181.0344827586207" y="34.48275862068966" width="8.620689655172415" height="8.620689655172415" fill="#0e372d"/>
        <rect x="198.27586206896552" y="34.48275862068966" width="8.620689655172415" height="8.620689655172415" fill="#0e372d"/>
        <rect x="206.89655172413796" y="34.48275862068966" width="8.620689655172415" height="8.620689655172415" fill="#0e372d"/>
        <rect x="224.1379310344828" y="34.48275862068966" width="8.620689655172415" height="8.620689655172415" fill="#0e372d"/>
        <rect x="241.37931034482762" y="34.48275862068966" width="8.620689655172415" height="8.620689655172415" fill="#0e372d"/>
        <rect x="250.00000000000003" y="34.48275862068966" width="8.620689655172415" height="8.620689655172415" fill="#0e372d"/>
        <rect x="258.62068965517244" y="34.48275862068966" width="8.620689655172415" height="8.620689655172415" fill="#0e372d"/>
        <rect x="275.86206896551727" y="34.48275862068966" width="8.620689655172415" height="8.620689655172415" fill="#0e372d"/>
        <rect x="0.0" y="43.10344827586207" width="8.620689655172415" height="8.620689655172415" fill="#0e372d"/>
        <rect x="51.72413793103449" y="43.10344827586207" width="8.620689655172415" height="8.620689655172415" fill="#0e372d"/>
        <rect x="68.96551724137932" y="43.10344827586207" width="8.620689655172415" height="8.620689655172415" fill="#0e372d"/>
        <rect x="94.82758620689656" y="43.10344827586207" width="8.620689655172415" height="8.620689655172415" fill="#0e372d"/>
        <rect x="146.55172413793105" y="43.10344827586207" width="8.620689655172415" height="8.620689655172415" fill="#0e372d"/>
        <rect x="172.41379310344828" y="43.10344827586207" width="8.620689655172415" height="8.620689655172415" fill="#0e372d"/>
        <rect x="181.0344827586207" y="43.10344827586207" width="8.620689655172415" height="8.620689655172415" fill="#0e372d"/>
        <rect x="224.1379310344828" y="43.10344827586207" width="8.620689655172415" height="8.620689655172415" fill="#0e372d"/>
        <rect x="275.86206896551727" y="43.10344827586207" width="8.620689655172415" height="8.620689655172415" fill="#0e372d"/>
        <rect x="0.0" y="51.72413793103449" width="8.620689655172415" height="8.620689655172415" fill="#0e372d"/>
        <rect x="8.620689655172415" y="51.72413793103449" width="8.620689655172415" height="8.620689655172415" fill="#0e372d"/>
        <rect x="17.24137931034483" y="51.72413793103449" width="8.620689655172415" height="8.620689655172415" fill="#0e372d"/>
        <rect x="25.862068965517246" y="51.72413793103449" width="8.620689655172415" height="8.620689655172415" fill="#0e372d"/>
        <rect x="34.48275862068966" y="51.72413793103449" width="8.620689655172415" height="8.620689655172415" fill="#0e372d"/>
        <rect x="43.10344827586207" y="51.72413793103449" width="8.620689655172415" height="8.620689655172415" fill="#0e372d"/>
        <rect x="51.72413793103449" y="51.72413793103449" width="8.620689655172415" height="8.620689655172415" fill="#0e372d"/>
        <rect x="68.96551724137932" y="51.72413793103449" width="8.620689655172415" height="8.620689655172415" fill="#0e372d"/>
        <rect x="86.20689655172414" y="51.72413793103449" width="8.620689655172415" height="8.620689655172415" fill="#0e372d"/>
        <rect x="103.44827586206898" y="51.72413793103449" width="8.620689655172415" height="8.620689655172415" fill="#0e372d"/>
        <rect x="120.68965517241381" y="51.72413793103449" width="8.620689655172415" height="8.620689655172415" fill="#0e372d"/>
        <rect x="137.93103448275863" y="51.72413793103449" width="8.620689655172415" height="8.620689655172415" fill="#0e372d"/>
        <rect x="155.17241379310346" y="51.72413793103449" width="8.620689655172415" height="8.620689655172415" fill="#0e372d"/>
        <rect x="172.41379310344828" y="51.72413793103449" width="8.620689655172415" height="8.620689655172415" fill="#0e372d"/>
        <rect x="189.6551724137931" y="51.72413793103449" width="8.620689655172415" height="8.620689655172415" fill="#0e372d"/>
        <rect x="206.89655172413796" y="51.72413793103449" width="8.620689655172415" height="8.620689655172415" fill="#0e372d"/>
        <rect x="224.1379310344828" y="51.72413793103449" width="8.620689655172415" height="8.620689655172415" fill="#0e372d"/>
        <rect x="232.7586206896552" y="51.72413793103449" width="8.620689655172415" height="8.620689655172415" fill="#0e372d"/>
        <rect x="241.37931034482762" y="51.72413793103449" width="8.620689655172415" height="8.620689655172415" fill="#0e372d"/>
        <rect x="250.00000000000003" y="51.72413793103449" width="8.620689655172415" height="8.620689655172415" fill="#0e372d"/>
        <rect x="258.62068965517244" y="51.72413793103449" width="8.620689655172415" height="8.620689655172415" fill="#0e372d"/>
        <rect x="267.2413793103448" y="51.72413793103449" width="8.620689655172415" height="8.620689655172415" fill="#0e372d"/>
        <rect x="275.86206896551727" y="51.72413793103449" width="8.620689655172415" height="8.620689655172415" fill="#0e372d"/>
        <rect x="68.96551724137932" y="60.344827586206904" width="8.620689655172415" height="8.620689655172415" fill="#0e372d"/>
        <rect x="77.58620689655173" y="60.344827586206904" width="8.620689655172415" height="8.620689655172415" fill="#0e372d"/>
        <rect x="103.44827586206898" y="60.344827586206904" width="8.620689655172415" height="8.620689655172415" fill="#0e372d"/>
        <rect x="120.68965517241381" y="60.344827586206904" width="8.620689655172415" height="8.620689655172415" fill="#0e372d"/>
        <rect x="137.93103448275863" y="60.344827586206904" width="8.620689655172415" height="8.620689655172415" fill="#0e372d"/>
        <rect x="163.79310344827587" y="60.344827586206904" width="8.620689655172415" height="8.620689655172415" fill="#0e372d"/>
        <rect x="181.0344827586207" y="60.344827586206904" width="8.620689655172415" height="8.620689655172415" fill="#0e372d"/>
        <rect x="198.27586206896552" y="60.344827586206904" width="8.620689655172415" height="8.620689655172415" fill="#0e372d"/>
        <rect x="0.0" y="68.96551724137932" width="8.620689655172415" height="8.620689655172415" fill="#0e372d"/>
        <rect x="17.24137931034483" y="68.96551724137932" width="8.620689655172415" height="8.620689655172415" fill="#0e372d"/>
        <rect x="25.862068965517246" y="68.96551724137932" width="8.620689655172415" height="8.620689655172415" fill="#0e372d"/>
        <rect x="34.48275862068966" y="68.96551724137932" width="8.620689655172415" height="8.620689655172415" fill="#0e372d"/>
        <rect x="43.10344827586207" y="68.96551724137932" width="8.620689655172415" height="8.620689655172415" fill="#0e372d"/>
        <rect x="51.72413793103449" y="68.96551724137932" width="8.620689655172415" height="8.620689655172415" fill="#0e372d"/>
        <rect x="77.58620689655173" y="68.96551724137932" width="8.620689655172415" height="8.620689655172415" fill="#0e372d"/>
        <rect x="86.20689655172414" y="68.96551724137932" width="8.620689655172415" height="8.620689655172415" fill="#0e372d"/>
        <rect x="94.82758620689656" y="68.96551724137932" width="8.620689655172415" height="8.620689655172415" fill="#0e372d"/>
        <rect x="103.44827586206898" y="68.96551724137932" width="8.620689655172415" height="8.620689655172415" fill="#0e372d"/>
        <rect x="112.0689655172414" y="68.96551724137932" width="8.620689655172415" height="8.620689655172415" fill="#0e372d"/>
        <rect x="137.93103448275863" y="68.96551724137932" width="8.620689655172415" height="8.620689655172415" fill="#0e372d"/>
        <rect x="146.55172413793105" y="68.96551724137932" width="8.620689655172415" height="8.620689655172415" fill="#0e372d"/>
        <rect x="155.17241379310346" y="68.96551724137932" width="8.620689655172415" height="8.620689655172415" fill="#0e372d"/>
        <rect x="189.6551724137931" y="68.96551724137932" width="8.620689655172415" height="8.620689655172415" fill="#0e372d"/>
        <rect x="206.89655172413796" y="68.96551724137932" width="8.620689655172415" height="8.620689655172415" fill="#0e372d"/>
        <rect x="224.1379310344828" y="68.96551724137932" width="8.620689655172415" height="8.620689655172415" fill="#0e372d"/>
        <rect x="232.7586206896552" y="68.96551724137932" width="8.620689655172415" height="8.620689655172415" fill="#0e372d"/>
        <rect x="241.37931034482762" y="68.96551724137932" width="8.620689655172415" height="8.620689655172415" fill="#0e372d"/>
        <rect x="250.00000000000003" y="68.96551724137932" width="8.620689655172415" height="8.620689655172415" fill="#0e372d"/>
        <rect x="258.62068965517244" y="68.96551724137932" width="8.620689655172415" height="8.620689655172415" fill="#0e372d"/>
        <rect x="8.620689655172415" y="77.58620689655173" width="8.620689655172415" height="8.620689655172415" fill="#0e372d"/>
        <rect x="17.24137931034483" y="77.58620689655173" width="8.620689655172415" height="8.620689655172415" fill="#0e372d"/>
        <rect x="34.48275862068966" y="77.58620689655173" width="8.620689655172415" height="8.620689655172415" fill="#0e372d"/>
        <rect x="60.344827586206904" y="77.58620689655173" width="8.620689655172415" height="8.620689655172415" fill="#0e372d"/>
        <rect x="68.96551724137932" y="77.58620689655173" width="8.620689655172415" height="8.620689655172415" fill="#0e372d"/>
        <rect x="77.58620689655173" y="77.58620689655173" width="8.620689655172415" height="8.620689655172415" fill="#0e372d"/>
        <rect x="86.20689655172414" y="77.58620689655173" width="8.620689655172415" height="8.620689655172415" fill="#0e372d"/>
        <rect x="103.44827586206898" y="77.58620689655173" width="8.620689655172415" height="8.620689655172415" fill="#0e372d"/>
        <rect x="112.0689655172414" y="77.58620689655173" width="8.620689655172415" height="8.620689655172415" fill="#0e372d"/>
        <rect x="146.55172413793105" y="77.58620689655173" width="8.620689655172415" height="8.620689655172415" fill="#0e372d"/>
        <rect x="163.79310344827587" y="77.58620689655173" width="8.620689655172415" height="8.620689655172415" fill="#0e372d"/>
        <rect x="172.41379310344828" y="77.58620689655173" width="8.620689655172415" height="8.620689655172415" fill="#0e372d"/>
        <rect x="189.6551724137931" y="77.58620689655173" width="8.620689655172415" height="8.620689655172415" fill="#0e372d"/>
        <rect x="198.27586206896552" y="77.58620689655173" width="8.620689655172415" height="8.620689655172415" fill="#0e372d"/>
        <rect x="224.1379310344828" y="77.58620689655173" width="8.620689655172415" height="8.620689655172415" fill="#0e372d"/>
        <rect x="232.7586206896552" y="77.58620689655173" width="8.620689655172415" height="8.620689655172415" fill="#0e372d"/>
        <rect x="250.00000000000003" y="77.58620689655173" width="8.620689655172415" height="8.620689655172415" fill="#0e372d"/>
        <rect x="258.62068965517244" y="77.58620689655173" width="8.620689655172415" height="8.620689655172415" fill="#0e372d"/>
        <rect x="267.2413793103448" y="77.58620689655173" width="8.620689655172415" height="8.620689655172415" fill="#0e372d"/>
        <rect x="275.86206896551727" y="77.58620689655173" width="8.620689655172415" height="8.620689655172415" fill="#0e372d"/>
        <rect x="51.72413793103449" y="86.20689655172414" width="8.620689655172415" height="8.620689655172415" fill="#0e372d"/>
        <rect x="68.96551724137932" y="86.20689655172414" width="8.620689655172415" height="8.620689655172415" fill="#0e372d"/>
        <rect x="86.20689655172414" y="86.20689655172414" width="8.620689655172415" height="8.620689655172415" fill="#0e372d"/>
        <rect x="103.44827586206898" y="86.20689655172414" width="8.620689655172415" height="8.620689655172415" fill="#0e372d"/>
        <rect x="112.0689655172414" y="86.20689655172414" width="8.620689655172415" height="8.620689655172415" fill="#0e372d"/>
        <rect x="120.68965517241381" y="86.20689655172414" width="8.620689655172415" height="8.620689655172415" fill="#0e372d"/>
        <rect x="129.31034482758622" y="86.20689655172414" width="8.620689655172415" height="8.620689655172415" fill="#0e372d"/>
        <rect x="137.93103448275863" y="86.20689655172414" width="8.620689655172415" height="8.620689655172415" fill="#0e372d"/>
        <rect x="155.17241379310346" y="86.20689655172414" width="8.620689655172415" height="8.620689655172415" fill="#0e372d"/>
        <rect x="172.41379310344828" y="86.20689655172414" width="8.620689655172415" height="8.620689655172415" fill="#0e372d"/>
        <rect x="181.0344827586207" y="86.20689655172414" width="8.620689655172415" height="8.620689655172415" fill="#0e372d"/>
        <rect x="189.6551724137931" y="86.20689655172414" width="8.620689655172415" height="8.620689655172415" fill="#0e372d"/>
        <rect x="206.89655172413796" y="86.20689655172414" width="8.620689655172415" height="8.620689655172415" fill="#0e372d"/>
        <rect x="241.37931034482762" y="86.20689655172414" width="8.620689655172415" height="8.620689655172415" fill="#0e372d"/>
        <rect x="258.62068965517244" y="86.20689655172414" width="8.620689655172415" height="8.620689655172415" fill="#0e372d"/>
        <rect x="17.24137931034483" y="94.82758620689656" width="8.620689655172415" height="8.620689655172415" fill="#0e372d"/>
        <rect x="25.862068965517246" y="94.82758620689656" width="8.620689655172415" height="8.620689655172415" fill="#0e372d"/>
        <rect x="34.48275862068966" y="94.82758620689656" width="8.620689655172415" height="8.620689655172415" fill="#0e372d"/>
        <rect x="60.344827586206904" y="94.82758620689656" width="8.620689655172415" height="8.620689655172415" fill="#0e372d"/>
        <rect x="103.44827586206898" y="94.82758620689656" width="8.620689655172415" height="8.620689655172415" fill="#0e372d"/>
        <rect x="112.0689655172414" y="94.82758620689656" width="8.620689655172415" height="8.620689655172415" fill="#0e372d"/>
        <rect x="129.31034482758622" y="94.82758620689656" width="8.620689655172415" height="8.620689655172415" fill="#0e372d"/>
        <rect x="163.79310344827587" y="94.82758620689656" width="8.620689655172415" height="8.620689655172415" fill="#0e372d"/>
        <rect x="172.41379310344828" y="94.82758620689656" width="8.620689655172415" height="8.620689655172415" fill="#0e372d"/>
        <rect x="181.0344827586207" y="94.82758620689656" width="8.620689655172415" height="8.620689655172415" fill="#0e372d"/>
        <rect x="189.6551724137931" y="94.82758620689656" width="8.620689655172415" height="8.620689655172415" fill="#0e372d"/>
        <rect x="215.51724137931038" y="94.82758620689656" width="8.620689655172415" height="8.620689655172415" fill="#0e372d"/>
        <rect x="224.1379310344828" y="94.82758620689656" width="8.620689655172415" height="8.620689655172415" fill="#0e372d"/>
        <rect x="241.37931034482762" y="94.82758620689656" width="8.620689655172415" height="8.620689655172415" fill="#0e372d"/>
        <rect x="250.00000000000003" y="94.82758620689656" width="8.620689655172415" height="8.620689655172415" fill="#0e372d"/>
        <rect x="258.62068965517244" y="94.82758620689656" width="8.620689655172415" height="8.620689655172415" fill="#0e372d"/>
        <rect x="0.0" y="103.44827586206898" width="8.620689655172415" height="8.620689655172415" fill="#0e372d"/>
        <rect x="8.620689655172415" y="103.44827586206898" width="8.620689655172415" height="8.620689655172415" fill="#0e372d"/>
        <rect x="17.24137931034483" y="103.44827586206898" width="8.620689655172415" height="8.620689655172415" fill="#0e372d"/>
        <rect x="43.10344827586207" y="103.44827586206898" width="8.620689655172415" height="8.620689655172415" fill="#0e372d"/>
        <rect x="51.72413793103449" y="103.44827586206898" width="8.620689655172415" height="8.620689655172415" fill="#0e372d"/>
        <rect x="60.344827586206904" y="103.44827586206898" width="8.620689655172415" height="8.620689655172415" fill="#0e372d"/>
        <rect x="120.68965517241381" y="103.44827586206898" width="8.620689655172415" height="8.620689655172415" fill="#0e372d"/>
        <rect x="129.31034482758622" y="103.44827586206898" width="8.620689655172415" height="8.620689655172415" fill="#0e372d"/>
        <rect x="146.55172413793105" y="103.44827586206898" width="8.620689655172415" height="8.620689655172415" fill="#0e372d"/>
        <rect x="155.17241379310346" y="103.44827586206898" width="8.620689655172415" height="8.620689655172415" fill="#0e372d"/>
        <rect x="163.79310344827587" y="103.44827586206898" width="8.620689655172415" height="8.620689655172415" fill="#0e372d"/>
        <rect x="172.41379310344828" y="103.44827586206898" width="8.620689655172415" height="8.620689655172415" fill="#0e372d"/>
        <rect x="241.37931034482762" y="103.44827586206898" width="8.620689655172415" height="8.620689655172415" fill="#0e372d"/>
        <rect x="250.00000000000003" y="103.44827586206898" width="8.620689655172415" height="8.620689655172415" fill="#0e372d"/>
        <rect x="275.86206896551727" y="103.44827586206898" width="8.620689655172415" height="8.620689655172415" fill="#0e372d"/>
        <rect x="0.0" y="112.0689655172414" width="8.620689655172415" height="8.620689655172415" fill="#0e372d"/>
        <rect x="8.620689655172415" y="112.0689655172414" width="8.620689655172415" height="8.620689655172415" fill="#0e372d"/>
        <rect x="43.10344827586207" y="112.0689655172414" width="8.620689655172415" height="8.620689655172415" fill="#0e372d"/>
        <rect x="60.344827586206904" y="112.0689655172414" width="8.620689655172415" height="8.620689655172415" fill="#0e372d"/>
        <rect x="68.96551724137932" y="112.0689655172414" width="8.620689655172415" height="8.620689655172415" fill="#0e372d"/>
        <rect x="94.82758620689656" y="112.0689655172414" width="8.620689655172415" height="8.620689655172415" fill="#0e372d"/>
        <rect x="129.31034482758622" y="112.0689655172414" width="8.620689655172415" height="8.620689655172415" fill="#0e372d"/>
        <rect x="163.79310344827587" y="112.0689655172414" width="8.620689655172415" height="8.620689655172415" fill="#0e372d"/>
        <rect x="181.0344827586207" y="112.0689655172414" width="8.620689655172415" height="8.620689655172415" fill="#0e372d"/>
        <rect x="189.6551724137931" y="112.0689655172414" width="8.620689655172415" height="8.620689655172415" fill="#0e372d"/>
        <rect x="198.27586206896552" y="112.0689655172414" width="8.620689655172415" height="8.620689655172415" fill="#0e372d"/>
        <rect x="206.89655172413796" y="112.0689655172414" width="8.620689655172415" height="8.620689655172415" fill="#0e372d"/>
        <rect x="215.51724137931038" y="112.0689655172414" width="8.620689655172415" height="8.620689655172415" fill="#0e372d"/>
        <rect x="224.1379310344828" y="112.0689655172414" width="8.620689655172415" height="8.620689655172415" fill="#0e372d"/>
        <rect x="232.7586206896552" y="112.0689655172414" width="8.620689655172415" height="8.620689655172415" fill="#0e372d"/>
        <rect x="258.62068965517244" y="112.0689655172414" width="8.620689655172415" height="8.620689655172415" fill="#0e372d"/>
        <rect x="267.2413793103448" y="112.0689655172414" width="8.620689655172415" height="8.620689655172415" fill="#0e372d"/>
        <rect x="275.86206896551727" y="112.0689655172414" width="8.620689655172415" height="8.620689655172415" fill="#0e372d"/>
        <rect x="8.620689655172415" y="120.68965517241381" width="8.620689655172415" height="8.620689655172415" fill="#0e372d"/>
        <rect x="17.24137931034483" y="120.68965517241381" width="8.620689655172415" height="8.620689655172415" fill="#0e372d"/>
        <rect x="25.862068965517246" y="120.68965517241381" width="8.620689655172415" height="8.620689655172415" fill="#0e372d"/>
        <rect x="51.72413793103449" y="120.68965517241381" width="8.620689655172415" height="8.620689655172415" fill="#0e372d"/>
        <rect x="68.96551724137932" y="120.68965517241381" width="8.620689655172415" height="8.620689655172415" fill="#0e372d"/>
        <rect x="129.31034482758622" y="120.68965517241381" width="8.620689655172415" height="8.620689655172415" fill="#0e372d"/>
        <rect x="146.55172413793105" y="120.68965517241381" width="8.620689655172415" height="8.620689655172415" fill="#0e372d"/>
        <rect x="181.0344827586207" y="120.68965517241381" width="8.620689655172415" height="8.620689655172415" fill="#0e372d"/>
        <rect x="189.6551724137931" y="120.68965517241381" width="8.620689655172415" height="8.620689655172415" fill="#0e372d"/>
        <rect x="206.89655172413796" y="120.68965517241381" width="8.620689655172415" height="8.620689655172415" fill="#0e372d"/>
        <rect x="215.51724137931038" y="120.68965517241381" width="8.620689655172415" height="8.620689655172415" fill="#0e372d"/>
        <rect x="224.1379310344828" y="120.68965517241381" width="8.620689655172415" height="8.620689655172415" fill="#0e372d"/>
        <rect x="241.37931034482762" y="120.68965517241381" width="8.620689655172415" height="8.620689655172415" fill="#0e372d"/>
        <rect x="258.62068965517244" y="120.68965517241381" width="8.620689655172415" height="8.620689655172415" fill="#0e372d"/>
        <rect x="267.2413793103448" y="120.68965517241381" width="8.620689655172415" height="8.620689655172415" fill="#0e372d"/>
        <rect x="8.620689655172415" y="129.31034482758622" width="8.620689655172415" height="8.620689655172415" fill="#0e372d"/>
        <rect x="25.862068965517246" y="129.31034482758622" width="8.620689655172415" height="8.620689655172415" fill="#0e372d"/>
        <rect x="43.10344827586207" y="129.31034482758622" width="8.620689655172415" height="8.620689655172415" fill="#0e372d"/>
        <rect x="86.20689655172414" y="129.31034482758622" width="8.620689655172415" height="8.620689655172415" fill="#0e372d"/>
        <rect x="94.82758620689656" y="129.31034482758622" width="8.620689655172415" height="8.620689655172415" fill="#0e372d"/>
        <rect x="103.44827586206898" y="129.31034482758622" width="8.620689655172415" height="8.620689655172415" fill="#0e372d"/>
        <rect x="129.31034482758622" y="129.31034482758622" width="8.620689655172415" height="8.620689655172415" fill="#0e372d"/>
        <rect x="155.17241379310346" y="129.31034482758622" width="8.620689655172415" height="8.620689655172415" fill="#0e372d"/>
        <rect x="181.0344827586207" y="129.31034482758622" width="8.620689655172415" height="8.620689655172415" fill="#0e372d"/>
        <rect x="215.51724137931038" y="129.31034482758622" width="8.620689655172415" height="8.620689655172415" fill="#0e372d"/>
        <rect x="224.1379310344828" y="129.31034482758622" width="8.620689655172415" height="8.620689655172415" fill="#0e372d"/>
        <rect x="232.7586206896552" y="129.31034482758622" width="8.620689655172415" height="8.620689655172415" fill="#0e372d"/>
        <rect x="258.62068965517244" y="129.31034482758622" width="8.620689655172415" height="8.620689655172415" fill="#0e372d"/>
        <rect x="0.0" y="137.93103448275863" width="8.620689655172415" height="8.620689655172415" fill="#0e372d"/>
        <rect x="8.620689655172415" y="137.93103448275863" width="8.620689655172415" height="8.620689655172415" fill="#0e372d"/>
        <rect x="34.48275862068966" y="137.93103448275863" width="8.620689655172415" height="8.620689655172415" fill="#0e372d"/>
        <rect x="51.72413793103449" y="137.93103448275863" width="8.620689655172415" height="8.620689655172415" fill="#0e372d"/>
        <rect x="60.344827586206904" y="137.93103448275863" width="8.620689655172415" height="8.620689655172415" fill="#0e372d"/>
        <rect x="68.96551724137932" y="137.93103448275863" width="8.620689655172415" height="8.620689655172415" fill="#0e372d"/>
        <rect x="77.58620689655173" y="137.93103448275863" width="8.620689655172415" height="8.620689655172415" fill="#0e372d"/>
        <rect x="129.31034482758622" y="137.93103448275863" width="8.620689655172415" height="8.620689655172415" fill="#0e372d"/>
        <rect x="137.93103448275863" y="137.93103448275863" width="8.620689655172415" height="8.620689655172415" fill="#0e372d"/>
        <rect x="146.55172413793105" y="137.93103448275863" width="8.620689655172415" height="8.620689655172415" fill="#0e372d"/>
        <rect x="155.17241379310346" y="137.93103448275863" width="8.620689655172415" height="8.620689655172415" fill="#0e372d"/>
        <rect x="215.51724137931038" y="137.93103448275863" width="8.620689655172415" height="8.620689655172415" fill="#0e372d"/>
        <rect x="232.7586206896552" y="137.93103448275863" width="8.620689655172415" height="8.620689655172415" fill="#0e372d"/>
        <rect x="241.37931034482762" y="137.93103448275863" width="8.620689655172415" height="8.620689655172415" fill="#0e372d"/>
        <rect x="250.00000000000003" y="137.93103448275863" width="8.620689655172415" height="8.620689655172415" fill="#0e372d"/>
        <rect x="275.86206896551727" y="137.93103448275863" width="8.620689655172415" height="8.620689655172415" fill="#0e372d"/>
        <rect x="8.620689655172415" y="146.55172413793105" width="8.620689655172415" height="8.620689655172415" fill="#0e372d"/>
        <rect x="25.862068965517246" y="146.55172413793105" width="8.620689655172415" height="8.620689655172415" fill="#0e372d"/>
        <rect x="60.344827586206904" y="146.55172413793105" width="8.620689655172415" height="8.620689655172415" fill="#0e372d"/>
        <rect x="68.96551724137932" y="146.55172413793105" width="8.620689655172415" height="8.620689655172415" fill="#0e372d"/>
        <rect x="77.58620689655173" y="146.55172413793105" width="8.620689655172415" height="8.620689655172415" fill="#0e372d"/>
        <rect x="112.0689655172414" y="146.55172413793105" width="8.620689655172415" height="8.620689655172415" fill="#0e372d"/>
        <rect x="120.68965517241381" y="146.55172413793105" width="8.620689655172415" height="8.620689655172415" fill="#0e372d"/>
        <rect x="163.79310344827587" y="146.55172413793105" width="8.620689655172415" height="8.620689655172415" fill="#0e372d"/>
        <rect x="181.0344827586207" y="146.55172413793105" width="8.620689655172415" height="8.620689655172415" fill="#0e372d"/>
        <rect x="198.27586206896552" y="146.55172413793105" width="8.620689655172415" height="8.620689655172415" fill="#0e372d"/>
        <rect x="224.1379310344828" y="146.55172413793105" width="8.620689655172415" height="8.620689655172415" fill="#0e372d"/>
        <rect x="232.7586206896552" y="146.55172413793105" width="8.620689655172415" height="8.620689655172415" fill="#0e372d"/>
        <rect x="250.00000000000003" y="146.55172413793105" width="8.620689655172415" height="8.620689655172415" fill="#0e372d"/>
        <rect x="258.62068965517244" y="146.55172413793105" width="8.620689655172415" height="8.620689655172415" fill="#0e372d"/>
        <rect x="267.2413793103448" y="146.55172413793105" width="8.620689655172415" height="8.620689655172415" fill="#0e372d"/>
        <rect x="275.86206896551727" y="146.55172413793105" width="8.620689655172415" height="8.620689655172415" fill="#0e372d"/>
        <rect x="17.24137931034483" y="155.17241379310346" width="8.620689655172415" height="8.620689655172415" fill="#0e372d"/>
        <rect x="34.48275862068966" y="155.17241379310346" width="8.620689655172415" height="8.620689655172415" fill="#0e372d"/>
        <rect x="51.72413793103449" y="155.17241379310346" width="8.620689655172415" height="8.620689655172415" fill="#0e372d"/>
        <rect x="60.344827586206904" y="155.17241379310346" width="8.620689655172415" height="8.620689655172415" fill="#0e372d"/>
        <rect x="68.96551724137932" y="155.17241379310346" width="8.620689655172415" height="8.620689655172415" fill="#0e372d"/>
        <rect x="86.20689655172414" y="155.17241379310346" width="8.620689655172415" height="8.620689655172415" fill="#0e372d"/>
        <rect x="103.44827586206898" y="155.17241379310346" width="8.620689655172415" height="8.620689655172415" fill="#0e372d"/>
        <rect x="129.31034482758622" y="155.17241379310346" width="8.620689655172415" height="8.620689655172415" fill="#0e372d"/>
        <rect x="172.41379310344828" y="155.17241379310346" width="8.620689655172415" height="8.620689655172415" fill="#0e372d"/>
        <rect x="232.7586206896552" y="155.17241379310346" width="8.620689655172415" height="8.620689655172415" fill="#0e372d"/>
        <rect x="241.37931034482762" y="155.17241379310346" width="8.620689655172415" height="8.620689655172415" fill="#0e372d"/>
        <rect x="258.62068965517244" y="155.17241379310346" width="8.620689655172415" height="8.620689655172415" fill="#0e372d"/>
        <rect x="8.620689655172415" y="163.79310344827587" width="8.620689655172415" height="8.620689655172415" fill="#0e372d"/>
        <rect x="25.862068965517246" y="163.79310344827587" width="8.620689655172415" height="8.620689655172415" fill="#0e372d"/>
        <rect x="34.48275862068966" y="163.79310344827587" width="8.620689655172415" height="8.620689655172415" fill="#0e372d"/>
        <rect x="43.10344827586207" y="163.79310344827587" width="8.620689655172415" height="8.620689655172415" fill="#0e372d"/>
        <rect x="68.96551724137932" y="163.79310344827587" width="8.620689655172415" height="8.620689655172415" fill="#0e372d"/>
        <rect x="86.20689655172414" y="163.79310344827587" width="8.620689655172415" height="8.620689655172415" fill="#0e372d"/>
        <rect x="103.44827586206898" y="163.79310344827587" width="8.620689655172415" height="8.620689655172415" fill="#0e372d"/>
        <rect x="112.0689655172414" y="163.79310344827587" width="8.620689655172415" height="8.620689655172415" fill="#0e372d"/>
        <rect x="120.68965517241381" y="163.79310344827587" width="8.620689655172415" height="8.620689655172415" fill="#0e372d"/>
        <rect x="129.31034482758622" y="163.79310344827587" width="8.620689655172415" height="8.620689655172415" fill="#0e372d"/>
        <rect x="137.93103448275863" y="163.79310344827587" width="8.620689655172415" height="8.620689655172415" fill="#0e372d"/>
        <rect x="172.41379310344828" y="163.79310344827587" width="8.620689655172415" height="8.620689655172415" fill="#0e372d"/>
        <rect x="181.0344827586207" y="163.79310344827587" width="8.620689655172415" height="8.620689655172415" fill="#0e372d"/>
        <rect x="189.6551724137931" y="163.79310344827587" width="8.620689655172415" height="8.620689655172415" fill="#0e372d"/>
        <rect x="206.89655172413796" y="163.79310344827587" width="8.620689655172415" height="8.620689655172415" fill="#0e372d"/>
        <rect x="215.51724137931038" y="163.79310344827587" width="8.620689655172415" height="8.620689655172415" fill="#0e372d"/>
        <rect x="224.1379310344828" y="163.79310344827587" width="8.620689655172415" height="8.620689655172415" fill="#0e372d"/>
        <rect x="232.7586206896552" y="163.79310344827587" width="8.620689655172415" height="8.620689655172415" fill="#0e372d"/>
        <rect x="241.37931034482762" y="163.79310344827587" width="8.620689655172415" height="8.620689655172415" fill="#0e372d"/>
        <rect x="250.00000000000003" y="163.79310344827587" width="8.620689655172415" height="8.620689655172415" fill="#0e372d"/>
        <rect x="258.62068965517244" y="163.79310344827587" width="8.620689655172415" height="8.620689655172415" fill="#0e372d"/>
        <rect x="0.0" y="172.41379310344828" width="8.620689655172415" height="8.620689655172415" fill="#0e372d"/>
        <rect x="8.620689655172415" y="172.41379310344828" width="8.620689655172415" height="8.620689655172415" fill="#0e372d"/>
        <rect x="25.862068965517246" y="172.41379310344828" width="8.620689655172415" height="8.620689655172415" fill="#0e372d"/>
        <rect x="34.48275862068966" y="172.41379310344828" width="8.620689655172415" height="8.620689655172415" fill="#0e372d"/>
        <rect x="43.10344827586207" y="172.41379310344828" width="8.620689655172415" height="8.620689655172415" fill="#0e372d"/>
        <rect x="51.72413793103449" y="172.41379310344828" width="8.620689655172415" height="8.620689655172415" fill="#0e372d"/>
        <rect x="60.344827586206904" y="172.41379310344828" width="8.620689655172415" height="8.620689655172415" fill="#0e372d"/>
        <rect x="86.20689655172414" y="172.41379310344828" width="8.620689655172415" height="8.620689655172415" fill="#0e372d"/>
        <rect x="94.82758620689656" y="172.41379310344828" width="8.620689655172415" height="8.620689655172415" fill="#0e372d"/>
        <rect x="103.44827586206898" y="172.41379310344828" width="8.620689655172415" height="8.620689655172415" fill="#0e372d"/>
        <rect x="129.31034482758622" y="172.41379310344828" width="8.620689655172415" height="8.620689655172415" fill="#0e372d"/>
        <rect x="146.55172413793105" y="172.41379310344828" width="8.620689655172415" height="8.620689655172415" fill="#0e372d"/>
        <rect x="155.17241379310346" y="172.41379310344828" width="8.620689655172415" height="8.620689655172415" fill="#0e372d"/>
        <rect x="163.79310344827587" y="172.41379310344828" width="8.620689655172415" height="8.620689655172415" fill="#0e372d"/>
        <rect x="172.41379310344828" y="172.41379310344828" width="8.620689655172415" height="8.620689655172415" fill="#0e372d"/>
        <rect x="206.89655172413796" y="172.41379310344828" width="8.620689655172415" height="8.620689655172415" fill="#0e372d"/>
        <rect x="241.37931034482762" y="172.41379310344828" width="8.620689655172415" height="8.620689655172415" fill="#0e372d"/>
        <rect x="250.00000000000003" y="172.41379310344828" width="8.620689655172415" height="8.620689655172415" fill="#0e372d"/>
        <rect x="267.2413793103448" y="172.41379310344828" width="8.620689655172415" height="8.620689655172415" fill="#0e372d"/>
        <rect x="0.0" y="181.0344827586207" width="8.620689655172415" height="8.620689655172415" fill="#0e372d"/>
        <rect x="8.620689655172415" y="181.0344827586207" width="8.620689655172415" height="8.620689655172415" fill="#0e372d"/>
        <rect x="25.862068965517246" y="181.0344827586207" width="8.620689655172415" height="8.620689655172415" fill="#0e372d"/>
        <rect x="34.48275862068966" y="181.0344827586207" width="8.620689655172415" height="8.620689655172415" fill="#0e372d"/>
        <rect x="43.10344827586207" y="181.0344827586207" width="8.620689655172415" height="8.620689655172415" fill="#0e372d"/>
        <rect x="86.20689655172414" y="181.0344827586207" width="8.620689655172415" height="8.620689655172415" fill="#0e372d"/>
        <rect x="112.0689655172414" y="181.0344827586207" width="8.620689655172415" height="8.620689655172415" fill="#0e372d"/>
        <rect x="120.68965517241381" y="181.0344827586207" width="8.620689655172415" height="8.620689655172415" fill="#0e372d"/>
        <rect x="129.31034482758622" y="181.0344827586207" width="8.620689655172415" height="8.620689655172415" fill="#0e372d"/>
        <rect x="146.55172413793105" y="181.0344827586207" width="8.620689655172415" height="8.620689655172415" fill="#0e372d"/>
        <rect x="163.79310344827587" y="181.0344827586207" width="8.620689655172415" height="8.620689655172415" fill="#0e372d"/>
        <rect x="189.6551724137931" y="181.0344827586207" width="8.620689655172415" height="8.620689655172415" fill="#0e372d"/>
        <rect x="198.27586206896552" y="181.0344827586207" width="8.620689655172415" height="8.620689655172415" fill="#0e372d"/>
        <rect x="224.1379310344828" y="181.0344827586207" width="8.620689655172415" height="8.620689655172415" fill="#0e372d"/>
        <rect x="232.7586206896552" y="181.0344827586207" width="8.620689655172415" height="8.620689655172415" fill="#0e372d"/>
        <rect x="250.00000000000003" y="181.0344827586207" width="8.620689655172415" height="8.620689655172415" fill="#0e372d"/>
        <rect x="258.62068965517244" y="181.0344827586207" width="8.620689655172415" height="8.620689655172415" fill="#0e372d"/>
        <rect x="275.86206896551727" y="181.0344827586207" width="8.620689655172415" height="8.620689655172415" fill="#0e372d"/>
        <rect x="0.0" y="189.6551724137931" width="8.620689655172415" height="8.620689655172415" fill="#0e372d"/>
        <rect x="25.862068965517246" y="189.6551724137931" width="8.620689655172415" height="8.620689655172415" fill="#0e372d"/>
        <rect x="43.10344827586207" y="189.6551724137931" width="8.620689655172415" height="8.620689655172415" fill="#0e372d"/>
        <rect x="51.72413793103449" y="189.6551724137931" width="8.620689655172415" height="8.620689655172415" fill="#0e372d"/>
        <rect x="60.344827586206904" y="189.6551724137931" width="8.620689655172415" height="8.620689655172415" fill="#0e372d"/>
        <rect x="77.58620689655173" y="189.6551724137931" width="8.620689655172415" height="8.620689655172415" fill="#0e372d"/>
        <rect x="86.20689655172414" y="189.6551724137931" width="8.620689655172415" height="8.620689655172415" fill="#0e372d"/>
        <rect x="112.0689655172414" y="189.6551724137931" width="8.620689655172415" height="8.620689655172415" fill="#0e372d"/>
        <rect x="129.31034482758622" y="189.6551724137931" width="8.620689655172415" height="8.620689655172415" fill="#0e372d"/>
        <rect x="137.93103448275863" y="189.6551724137931" width="8.620689655172415" height="8.620689655172415" fill="#0e372d"/>
        <rect x="155.17241379310346" y="189.6551724137931" width="8.620689655172415" height="8.620689655172415" fill="#0e372d"/>
        <rect x="189.6551724137931" y="189.6551724137931" width="8.620689655172415" height="8.620689655172415" fill="#0e372d"/>
        <rect x="232.7586206896552" y="189.6551724137931" width="8.620689655172415" height="8.620689655172415" fill="#0e372d"/>
        <rect x="258.62068965517244" y="189.6551724137931" width="8.620689655172415" height="8.620689655172415" fill="#0e372d"/>
        <rect x="267.2413793103448" y="189.6551724137931" width="8.620689655172415" height="8.620689655172415" fill="#0e372d"/>
        <rect x="0.0" y="198.27586206896552" width="8.620689655172415" height="8.620689655172415" fill="#0e372d"/>
        <rect x="25.862068965517246" y="198.27586206896552" width="8.620689655172415" height="8.620689655172415" fill="#0e372d"/>
        <rect x="34.48275862068966" y="198.27586206896552" width="8.620689655172415" height="8.620689655172415" fill="#0e372d"/>
        <rect x="60.344827586206904" y="198.27586206896552" width="8.620689655172415" height="8.620689655172415" fill="#0e372d"/>
        <rect x="68.96551724137932" y="198.27586206896552" width="8.620689655172415" height="8.620689655172415" fill="#0e372d"/>
        <rect x="137.93103448275863" y="198.27586206896552" width="8.620689655172415" height="8.620689655172415" fill="#0e372d"/>
        <rect x="155.17241379310346" y="198.27586206896552" width="8.620689655172415" height="8.620689655172415" fill="#0e372d"/>
        <rect x="181.0344827586207" y="198.27586206896552" width="8.620689655172415" height="8.620689655172415" fill="#0e372d"/>
        <rect x="206.89655172413796" y="198.27586206896552" width="8.620689655172415" height="8.620689655172415" fill="#0e372d"/>
        <rect x="215.51724137931038" y="198.27586206896552" width="8.620689655172415" height="8.620689655172415" fill="#0e372d"/>
        <rect x="224.1379310344828" y="198.27586206896552" width="8.620689655172415" height="8.620689655172415" fill="#0e372d"/>
        <rect x="232.7586206896552" y="198.27586206896552" width="8.620689655172415" height="8.620689655172415" fill="#0e372d"/>
        <rect x="241.37931034482762" y="198.27586206896552" width="8.620689655172415" height="8.620689655172415" fill="#0e372d"/>
        <rect x="258.62068965517244" y="198.27586206896552" width="8.620689655172415" height="8.620689655172415" fill="#0e372d"/>
        <rect x="275.86206896551727" y="198.27586206896552" width="8.620689655172415" height="8.620689655172415" fill="#0e372d"/>
        <rect x="0.0" y="206.89655172413796" width="8.620689655172415" height="8.620689655172415" fill="#0e372d"/>
        <rect x="17.24137931034483" y="206.89655172413796" width="8.620689655172415" height="8.620689655172415" fill="#0e372d"/>
        <rect x="51.72413793103449" y="206.89655172413796" width="8.620689655172415" height="8.620689655172415" fill="#0e372d"/>
        <rect x="60.344827586206904" y="206.89655172413796" width="8.620689655172415" height="8.620689655172415" fill="#0e372d"/>
        <rect x="68.96551724137932" y="206.89655172413796" width="8.620689655172415" height="8.620689655172415" fill="#0e372d"/>
        <rect x="77.58620689655173" y="206.89655172413796" width="8.620689655172415" height="8.620689655172415" fill="#0e372d"/>
        <rect x="86.20689655172414" y="206.89655172413796" width="8.620689655172415" height="8.620689655172415" fill="#0e372d"/>
        <rect x="112.0689655172414" y="206.89655172413796" width="8.620689655172415" height="8.620689655172415" fill="#0e372d"/>
        <rect x="120.68965517241381" y="206.89655172413796" width="8.620689655172415" height="8.620689655172415" fill="#0e372d"/>
        <rect x="129.31034482758622" y="206.89655172413796" width="8.620689655172415" height="8.620689655172415" fill="#0e372d"/>
        <rect x="137.93103448275863" y="206.89655172413796" width="8.620689655172415" height="8.620689655172415" fill="#0e372d"/>
        <rect x="146.55172413793105" y="206.89655172413796" width="8.620689655172415" height="8.620689655172415" fill="#0e372d"/>
        <rect x="163.79310344827587" y="206.89655172413796" width="8.620689655172415" height="8.620689655172415" fill="#0e372d"/>
        <rect x="189.6551724137931" y="206.89655172413796" width="8.620689655172415" height="8.620689655172415" fill="#0e372d"/>
        <rect x="206.89655172413796" y="206.89655172413796" width="8.620689655172415" height="8.620689655172415" fill="#0e372d"/>
        <rect x="215.51724137931038" y="206.89655172413796" width="8.620689655172415" height="8.620689655172415" fill="#0e372d"/>
        <rect x="224.1379310344828" y="206.89655172413796" width="8.620689655172415" height="8.620689655172415" fill="#0e372d"/>
        <rect x="232.7586206896552" y="206.89655172413796" width="8.620689655172415" height="8.620689655172415" fill="#0e372d"/>
        <rect x="241.37931034482762" y="206.89655172413796" width="8.620689655172415" height="8.620689655172415" fill="#0e372d"/>
        <rect x="275.86206896551727" y="206.89655172413796" width="8.620689655172415" height="8.620689655172415" fill="#0e372d"/>
        <rect x="68.96551724137932" y="215.51724137931038" width="8.620689655172415" height="8.620689655172415" fill="#0e372d"/>
        <rect x="103.44827586206898" y="215.51724137931038" width="8.620689655172415" height="8.620689655172415" fill="#0e372d"/>
        <rect x="112.0689655172414" y="215.51724137931038" width="8.620689655172415" height="8.620689655172415" fill="#0e372d"/>
        <rect x="155.17241379310346" y="215.51724137931038" width="8.620689655172415" height="8.620689655172415" fill="#0e372d"/>
        <rect x="163.79310344827587" y="215.51724137931038" width="8.620689655172415" height="8.620689655172415" fill="#0e372d"/>
        <rect x="172.41379310344828" y="215.51724137931038" width="8.620689655172415" height="8.620689655172415" fill="#0e372d"/>
        <rect x="181.0344827586207" y="215.51724137931038" width="8.620689655172415" height="8.620689655172415" fill="#0e372d"/>
        <rect x="206.89655172413796" y="215.51724137931038" width="8.620689655172415" height="8.620689655172415" fill="#0e372d"/>
        <rect x="241.37931034482762" y="215.51724137931038" width="8.620689655172415" height="8.620689655172415" fill="#0e372d"/>
        <rect x="258.62068965517244" y="215.51724137931038" width="8.620689655172415" height="8.620689655172415" fill="#0e372d"/>
        <rect x="275.86206896551727" y="215.51724137931038" width="8.620689655172415" height="8.620689655172415" fill="#0e372d"/>
        <rect x="0.0" y="224.1379310344828" width="8.620689655172415" height="8.620689655172415" fill="#0e372d"/>
        <rect x="8.620689655172415" y="224.1379310344828" width="8.620689655172415" height="8.620689655172415" fill="#0e372d"/>
        <rect x="17.24137931034483" y="224.1379310344828" width="8.620689655172415" height="8.620689655172415" fill="#0e372d"/>
        <rect x="25.862068965517246" y="224.1379310344828" width="8.620689655172415" height="8.620689655172415" fill="#0e372d"/>
        <rect x="34.48275862068966" y="224.1379310344828" width="8.620689655172415" height="8.620689655172415" fill="#0e372d"/>
        <rect x="43.10344827586207" y="224.1379310344828" width="8.620689655172415" height="8.620689655172415" fill="#0e372d"/>
        <rect x="51.72413793103449" y="224.1379310344828" width="8.620689655172415" height="8.620689655172415" fill="#0e372d"/>
        <rect x="77.58620689655173" y="224.1379310344828" width="8.620689655172415" height="8.620689655172415" fill="#0e372d"/>
        <rect x="86.20689655172414" y="224.1379310344828" width="8.620689655172415" height="8.620689655172415" fill="#0e372d"/>
        <rect x="94.82758620689656" y="224.1379310344828" width="8.620689655172415" height="8.620689655172415" fill="#0e372d"/>
        <rect x="112.0689655172414" y="224.1379310344828" width="8.620689655172415" height="8.620689655172415" fill="#0e372d"/>
        <rect x="129.31034482758622" y="224.1379310344828" width="8.620689655172415" height="8.620689655172415" fill="#0e372d"/>
        <rect x="137.93103448275863" y="224.1379310344828" width="8.620689655172415" height="8.620689655172415" fill="#0e372d"/>
        <rect x="146.55172413793105" y="224.1379310344828" width="8.620689655172415" height="8.620689655172415" fill="#0e372d"/>
        <rect x="155.17241379310346" y="224.1379310344828" width="8.620689655172415" height="8.620689655172415" fill="#0e372d"/>
        <rect x="172.41379310344828" y="224.1379310344828" width="8.620689655172415" height="8.620689655172415" fill="#0e372d"/>
        <rect x="198.27586206896552" y="224.1379310344828" width="8.620689655172415" height="8.620689655172415" fill="#0e372d"/>
        <rect x="206.89655172413796" y="224.1379310344828" width="8.620689655172415" height="8.620689655172415" fill="#0e372d"/>
        <rect x="224.1379310344828" y="224.1379310344828" width="8.620689655172415" height="8.620689655172415" fill="#0e372d"/>
        <rect x="241.37931034482762" y="224.1379310344828" width="8.620689655172415" height="8.620689655172415" fill="#0e372d"/>
        <rect x="258.62068965517244" y="224.1379310344828" width="8.620689655172415" height="8.620689655172415" fill="#0e372d"/>
        <rect x="267.2413793103448" y="224.1379310344828" width="8.620689655172415" height="8.620689655172415" fill="#0e372d"/>
        <rect x="0.0" y="232.7586206896552" width="8.620689655172415" height="8.620689655172415" fill="#0e372d"/>
        <rect x="51.72413793103449" y="232.7586206896552" width="8.620689655172415" height="8.620689655172415" fill="#0e372d"/>
        <rect x="68.96551724137932" y="232.7586206896552" width="8.620689655172415" height="8.620689655172415" fill="#0e372d"/>
        <rect x="112.0689655172414" y="232.7586206896552" width="8.620689655172415" height="8.620689655172415" fill="#0e372d"/>
        <rect x="120.68965517241381" y="232.7586206896552" width="8.620689655172415" height="8.620689655172415" fill="#0e372d"/>
        <rect x="129.31034482758622" y="232.7586206896552" width="8.620689655172415" height="8.620689655172415" fill="#0e372d"/>
        <rect x="155.17241379310346" y="232.7586206896552" width="8.620689655172415" height="8.620689655172415" fill="#0e372d"/>
        <rect x="163.79310344827587" y="232.7586206896552" width="8.620689655172415" height="8.620689655172415" fill="#0e372d"/>
        <rect x="172.41379310344828" y="232.7586206896552" width="8.620689655172415" height="8.620689655172415" fill="#0e372d"/>
        <rect x="181.0344827586207" y="232.7586206896552" width="8.620689655172415" height="8.620689655172415" fill="#0e372d"/>
        <rect x="198.27586206896552" y="232.7586206896552" width="8.620689655172415" height="8.620689655172415" fill="#0e372d"/>
        <rect x="206.89655172413796" y="232.7586206896552" width="8.620689655172415" height="8.620689655172415" fill="#0e372d"/>
        <rect x="241.37931034482762" y="232.7586206896552" width="8.620689655172415" height="8.620689655172415" fill="#0e372d"/>
        <rect x="250.00000000000003" y="232.7586206896552" width="8.620689655172415" height="8.620689655172415" fill="#0e372d"/>
        <rect x="258.62068965517244" y="232.7586206896552" width="8.620689655172415" height="8.620689655172415" fill="#0e372d"/>
        <rect x="267.2413793103448" y="232.7586206896552" width="8.620689655172415" height="8.620689655172415" fill="#0e372d"/>
        <rect x="0.0" y="241.37931034482762" width="8.620689655172415" height="8.620689655172415" fill="#0e372d"/>
        <rect x="17.24137931034483" y="241.37931034482762" width="8.620689655172415" height="8.620689655172415" fill="#0e372d"/>
        <rect x="25.862068965517246" y="241.37931034482762" width="8.620689655172415" height="8.620689655172415" fill="#0e372d"/>
        <rect x="34.48275862068966" y="241.37931034482762" width="8.620689655172415" height="8.620689655172415" fill="#0e372d"/>
        <rect x="51.72413793103449" y="241.37931034482762" width="8.620689655172415" height="8.620689655172415" fill="#0e372d"/>
        <rect x="68.96551724137932" y="241.37931034482762" width="8.620689655172415" height="8.620689655172415" fill="#0e372d"/>
        <rect x="86.20689655172414" y="241.37931034482762" width="8.620689655172415" height="8.620689655172415" fill="#0e372d"/>
        <rect x="103.44827586206898" y="241.37931034482762" width="8.620689655172415" height="8.620689655172415" fill="#0e372d"/>
        <rect x="112.0689655172414" y="241.37931034482762" width="8.620689655172415" height="8.620689655172415" fill="#0e372d"/>
        <rect x="120.68965517241381" y="241.37931034482762" width="8.620689655172415" height="8.620689655172415" fill="#0e372d"/>
        <rect x="137.93103448275863" y="241.37931034482762" width="8.620689655172415" height="8.620689655172415" fill="#0e372d"/>
        <rect x="146.55172413793105" y="241.37931034482762" width="8.620689655172415" height="8.620689655172415" fill="#0e372d"/>
        <rect x="155.17241379310346" y="241.37931034482762" width="8.620689655172415" height="8.620689655172415" fill="#0e372d"/>
        <rect x="163.79310344827587" y="241.37931034482762" width="8.620689655172415" height="8.620689655172415" fill="#0e372d"/>
        <rect x="172.41379310344828" y="241.37931034482762" width="8.620689655172415" height="8.620689655172415" fill="#0e372d"/>
        <rect x="189.6551724137931" y="241.37931034482762" width="8.620689655172415" height="8.620689655172415" fill="#0e372d"/>
        <rect x="206.89655172413796" y="241.37931034482762" width="8.620689655172415" height="8.620689655172415" fill="#0e372d"/>
        <rect x="215.51724137931038" y="241.37931034482762" width="8.620689655172415" height="8.620689655172415" fill="#0e372d"/>
        <rect x="224.1379310344828" y="241.37931034482762" width="8.620689655172415" height="8.620689655172415" fill="#0e372d"/>
        <rect x="232.7586206896552" y="241.37931034482762" width="8.620689655172415" height="8.620689655172415" fill="#0e372d"/>
        <rect x="241.37931034482762" y="241.37931034482762" width="8.620689655172415" height="8.620689655172415" fill="#0e372d"/>
        <rect x="250.00000000000003" y="241.37931034482762" width="8.620689655172415" height="8.620689655172415" fill="#0e372d"/>
        <rect x="267.2413793103448" y="241.37931034482762" width="8.620689655172415" height="8.620689655172415" fill="#0e372d"/>
        <rect x="275.86206896551727" y="241.37931034482762" width="8.620689655172415" height="8.620689655172415" fill="#0e372d"/>
        <rect x="0.0" y="250.00000000000003" width="8.620689655172415" height="8.620689655172415" fill="#0e372d"/>
        <rect x="17.24137931034483" y="250.00000000000003" width="8.620689655172415" height="8.620689655172415" fill="#0e372d"/>
        <rect x="25.862068965517246" y="250.00000000000003" width="8.620689655172415" height="8.620689655172415" fill="#0e372d"/>
        <rect x="34.48275862068966" y="250.00000000000003" width="8.620689655172415" height="8.620689655172415" fill="#0e372d"/>
        <rect x="51.72413793103449" y="250.00000000000003" width="8.620689655172415" height="8.620689655172415" fill="#0e372d"/>
        <rect x="68.96551724137932" y="250.00000000000003" width="8.620689655172415" height="8.620689655172415" fill="#0e372d"/>
        <rect x="163.79310344827587" y="250.00000000000003" width="8.620689655172415" height="8.620689655172415" fill="#0e372d"/>
        <rect x="181.0344827586207" y="250.00000000000003" width="8.620689655172415" height="8.620689655172415" fill="#0e372d"/>
        <rect x="206.89655172413796" y="250.00000000000003" width="8.620689655172415" height="8.620689655172415" fill="#0e372d"/>
        <rect x="215.51724137931038" y="250.00000000000003" width="8.620689655172415" height="8.620689655172415" fill="#0e372d"/>
        <rect x="241.37931034482762" y="250.00000000000003" width="8.620689655172415" height="8.620689655172415" fill="#0e372d"/>
        <rect x="250.00000000000003" y="250.00000000000003" width="8.620689655172415" height="8.620689655172415" fill="#0e372d"/>
        <rect x="267.2413793103448" y="250.00000000000003" width="8.620689655172415" height="8.620689655172415" fill="#0e372d"/>
        <rect x="275.86206896551727" y="250.00000000000003" width="8.620689655172415" height="8.620689655172415" fill="#0e372d"/>
        <rect x="0.0" y="258.62068965517244" width="8.620689655172415" height="8.620689655172415" fill="#0e372d"/>
        <rect x="17.24137931034483" y="258.62068965517244" width="8.620689655172415" height="8.620689655172415" fill="#0e372d"/>
        <rect x="25.862068965517246" y="258.62068965517244" width="8.620689655172415" height="8.620689655172415" fill="#0e372d"/>
        <rect x="34.48275862068966" y="258.62068965517244" width="8.620689655172415" height="8.620689655172415" fill="#0e372d"/>
        <rect x="51.72413793103449" y="258.62068965517244" width="8.620689655172415" height="8.620689655172415" fill="#0e372d"/>
        <rect x="68.96551724137932" y="258.62068965517244" width="8.620689655172415" height="8.620689655172415" fill="#0e372d"/>
        <rect x="77.58620689655173" y="258.62068965517244" width="8.620689655172415" height="8.620689655172415" fill="#0e372d"/>
        <rect x="86.20689655172414" y="258.62068965517244" width="8.620689655172415" height="8.620689655172415" fill="#0e372d"/>
        <rect x="94.82758620689656" y="258.62068965517244" width="8.620689655172415" height="8.620689655172415" fill="#0e372d"/>
        <rect x="103.44827586206898" y="258.62068965517244" width="8.620689655172415" height="8.620689655172415" fill="#0e372d"/>
        <rect x="120.68965517241381" y="258.62068965517244" width="8.620689655172415" height="8.620689655172415" fill="#0e372d"/>
        <rect x="129.31034482758622" y="258.62068965517244" width="8.620689655172415" height="8.620689655172415" fill="#0e372d"/>
        <rect x="146.55172413793105" y="258.62068965517244" width="8.620689655172415" height="8.620689655172415" fill="#0e372d"/>
        <rect x="155.17241379310346" y="258.62068965517244" width="8.620689655172415" height="8.620689655172415" fill="#0e372d"/>
        <rect x="172.41379310344828" y="258.62068965517244" width="8.620689655172415" height="8.620689655172415" fill="#0e372d"/>
        <rect x="224.1379310344828" y="258.62068965517244" width="8.620689655172415" height="8.620689655172415" fill="#0e372d"/>
        <rect x="232.7586206896552" y="258.62068965517244" width="8.620689655172415" height="8.620689655172415" fill="#0e372d"/>
        <rect x="250.00000000000003" y="258.62068965517244" width="8.620689655172415" height="8.620689655172415" fill="#0e372d"/>
        <rect x="258.62068965517244" y="258.62068965517244" width="8.620689655172415" height="8.620689655172415" fill="#0e372d"/>
        <rect x="0.0" y="267.2413793103448" width="8.620689655172415" height="8.620689655172415" fill="#0e372d"/>
        <rect x="51.72413793103449" y="267.2413793103448" width="8.620689655172415" height="8.620689655172415" fill="#0e372d"/>
        <rect x="94.82758620689656" y="267.2413793103448" width="8.620689655172415" height="8.620689655172415" fill="#0e372d"/>
        <rect x="120.68965517241381" y="267.2413793103448" width="8.620689655172415" height="8.620689655172415" fill="#0e372d"/>
        <rect x="129.31034482758622" y="267.2413793103448" width="8.620689655172415" height="8.620689655172415" fill="#0e372d"/>
        <rect x="137.93103448275863" y="267.2413793103448" width="8.620689655172415" height="8.620689655172415" fill="#0e372d"/>
        <rect x="163.79310344827587" y="267.2413793103448" width="8.620689655172415" height="8.620689655172415" fill="#0e372d"/>
        <rect x="181.0344827586207" y="267.2413793103448" width="8.620689655172415" height="8.620689655172415" fill="#0e372d"/>
        <rect x="189.6551724137931" y="267.2413793103448" width="8.620689655172415" height="8.620689655172415" fill="#0e372d"/>
        <rect x="215.51724137931038" y="267.2413793103448" width="8.620689655172415" height="8.620689655172415" fill="#0e372d"/>
        <rect x="224.1379310344828" y="267.2413793103448" width="8.620689655172415" height="8.620689655172415" fill="#0e372d"/>
        <rect x="241.37931034482762" y="267.2413793103448" width="8.620689655172415" height="8.620689655172415" fill="#0e372d"/>
        <rect x="258.62068965517244" y="267.2413793103448" width="8.620689655172415" height="8.620689655172415" fill="#0e372d"/>
        <rect x="0.0" y="275.86206896551727" width="8.620689655172415" height="8.620689655172415" fill="#0e372d"/>
        <rect x="8.620689655172415" y="275.86206896551727" width="8.620689655172415" height="8.620689655172415" fill="#0e372d"/>
        <rect x="17.24137931034483" y="275.86206896551727" width="8.620689655172415" height="8.620689655172415" fill="#0e372d"/>
        <rect x="25.862068965517246" y="275.86206896551727" width="8.620689655172415" height="8.620689655172415" fill="#0e372d"/>
        <rect x="34.48275862068966" y="275.86206896551727" width="8.620689655172415" height="8.620689655172415" fill="#0e372d"/>
        <rect x="43.10344827586207" y="275.86206896551727" width="8.620689655172415" height="8.620689655172415" fill="#0e372d"/>
        <rect x="51.72413793103449" y="275.86206896551727" width="8.620689655172415" height="8.620689655172415" fill="#0e372d"/>
        <rect x="68.96551724137932" y="275.86206896551727" width="8.620689655172415" height="8.620689655172415" fill="#0e372d"/>
        <rect x="94.82758620689656" y="275.86206896551727" width="8.620689655172415" height="8.620689655172415" fill="#0e372d"/>
        <rect x="103.44827586206898" y="275.86206896551727" width="8.620689655172415" height="8.620689655172415" fill="#0e372d"/>
        <rect x="112.0689655172414" y="275.86206896551727" width="8.620689655172415" height="8.620689655172415" fill="#0e372d"/>
        <rect x="129.31034482758622" y="275.86206896551727" width="8.620689655172415" height="8.620689655172415" fill="#0e372d"/>
        <rect x="137.93103448275863" y="275.86206896551727" width="8.620689655172415" height="8.620689655172415" fill="#0e372d"/>
        <rect x="146.55172413793105" y="275.86206896551727" width="8.620689655172415" height="8.620689655172415" fill="#0e372d"/>
        <rect x="155.17241379310346" y="275.86206896551727" width="8.620689655172415" height="8.620689655172415" fill="#0e372d"/>
        <rect x="189.6551724137931" y="275.86206896551727" width="8.620689655172415" height="8.620689655172415" fill="#0e372d"/>
        <rect x="198.27586206896552" y="275.86206896551727" width="8.620689655172415" height="8.620689655172415" fill="#0e372d"/>
        <rect x="206.89655172413796" y="275.86206896551727" width="8.620689655172415" height="8.620689655172415" fill="#0e372d"/>
        <rect x="215.51724137931038" y="275.86206896551727" width="8.620689655172415" height="8.620689655172415" fill="#0e372d"/>
        <rect x="232.7586206896552" y="275.86206896551727" width="8.620689655172415" height="8.620689655172415" fill="#0e372d"/>
        <rect x="250.00000000000003" y="275.86206896551727" width="8.620689655172415" height="8.620689655172415" fill="#0e372d"/>
        <rect x="267.2413793103448" y="275.86206896551727" width="8.620689655172415" height="8.620689655172415" fill="#0e372d"/>
      </g>
    </svg>
    <path d="M21.1542 244.231C5.18051 216.272 25.403 198.235 37.2975 183.195C39.0817 177.812 36.4244 162.993 52.928 159.193C70.2519 155.205 79.3339 173.427 80.4779 174.886C84.0999 179.503 91.6429 188.357 99.8194 184.665C100.262 186.317 96.9691 195.784 87.0697 191.633C87.5647 193.742 88.5546 195.325 89.5445 196.379C92.0194 199.016 92.966 199.319 96.9691 200.598C101.919 202.181 110.123 200.65 123.744 195.784C123.744 195.784 136.567 191.106 141.586 201.653C144.315 207.389 144.076 212.736 143.29 216.42C142.776 218.828 142.081 219.85 140.526 221.166C138.972 222.483 136.347 223.021 134.092 223.81C106.728 233.39 113.499 242.471 97.4275 249.93C80.0318 258.005 31.6916 262.674 21.1542 244.231Z" fill="black"/>
    <path d="M39.6131 137.195C36.3713 130.711 62.5765 109.021 74.9265 100.724C80.5226 92.6189 79.5579 72.936 114.013 46.8811C148.83 20.5518 217.917 89.5314 232.389 118.67C229.181 126.199 225.323 135.917 221.183 146.457C219.409 150.973 228.916 148.19 224.285 166.14C217.917 183.507 208.075 184.665 200.549 184.665C168.71 218.821 174.29 247.791 190.5 264C198.563 272.063 103.371 277.171 86.8758 268.052C73.2616 260.527 68.0861 188.713 46.2806 173.662L54.6647 159.193C50.0334 154.562 42.855 143.678 39.6131 137.195Z" stroke="black" stroke-width="5.78907"/>
    <path d="M130.336 6.62194C110.273 11.868 108.118 36.5081 114.292 48.0431C116.258 49.6233 105.029 62.5158 120.081 62.5158C116.029 59.6379 118.344 50.087 128.765 53.8322C133.685 56.2985 168.486 61.0573 182.603 70.6205C200.549 82.7775 192.041 90.3877 197.655 97.2502C207.297 109.038 215.17 114.116 230.341 122.204C253.23 112.302 254.919 98.9181 229.884 58.821C198.591 8.69954 155.415 0.0643836 130.336 6.62194Z" fill="black" stroke="black" stroke-width="3.47344"/>
    <path d="M143.816 195.664C147.29 197.582 150.184 203.508 150.763 211.874" stroke="black" stroke-width="5.78907" stroke-linecap="round"/>
    <path d="M153.079 192.191C157.545 196.205 159.033 200.218 160.026 207.242" stroke="black" stroke-width="5.78907" stroke-linecap="round"/>
    <defs>
      <clipPath id="clip0_2087_157470">
        <rect width="276" height="276" fill="white"/>
      </clipPath>
    </defs>
  </g>
</svg>
