<svg fill="none" xmlns="http://www.w3.org/2000/svg" width="300" height="300" viewBox="0 0 300 300">
  <g transform="translate(10, 10)">
    <svg>
      <g transform="translate(80, 100)scale(0.43)">
        <rect x="0" y="0" width="284.4827586206897" height="284.4827586206897" fill="#ffffff"/>
        <rect x="0.0" y="0.0" width="8.620689655172415" height="8.620689655172415" fill="#0e372d"/>
        <rect x="8.620689655172415" y="0.0" width="8.620689655172415" height="8.620689655172415" fill="#0e372d"/>
        <rect x="17.24137931034483" y="0.0" width="8.620689655172415" height="8.620689655172415" fill="#0e372d"/>
        <rect x="25.862068965517246" y="0.0" width="8.620689655172415" height="8.620689655172415" fill="#0e372d"/>
        <rect x="34.48275862068966" y="0.0" width="8.620689655172415" height="8.620689655172415" fill="#0e372d"/>
        <rect x="43.10344827586207" y="0.0" width="8.620689655172415" height="8.620689655172415" fill="#0e372d"/>
        <rect x="51.72413793103449" y="0.0" width="8.620689655172415" height="8.620689655172415" fill="#0e372d"/>
        <rect x="94.82758620689656" y="0.0" width="8.620689655172415" height="8.620689655172415" fill="#0e372d"/>
        <rect x="120.68965517241381" y="0.0" width="8.620689655172415" height="8.620689655172415" fill="#0e372d"/>
        <rect x="155.17241379310346" y="0.0" width="8.620689655172415" height="8.620689655172415" fill="#0e372d"/>
        <rect x="163.79310344827587" y="0.0" width="8.620689655172415" height="8.620689655172415" fill="#0e372d"/>
        <rect x="181.0344827586207" y="0.0" width="8.620689655172415" height="8.620689655172415" fill="#0e372d"/>
        <rect x="189.6551724137931" y="0.0" width="8.620689655172415" height="8.620689655172415" fill="#0e372d"/>
        <rect x="198.27586206896552" y="0.0" width="8.620689655172415" height="8.620689655172415" fill="#0e372d"/>
        <rect x="224.1379310344828" y="0.0" width="8.620689655172415" height="8.620689655172415" fill="#0e372d"/>
        <rect x="232.7586206896552" y="0.0" width="8.620689655172415" height="8.620689655172415" fill="#0e372d"/>
        <rect x="241.37931034482762" y="0.0" width="8.620689655172415" height="8.620689655172415" fill="#0e372d"/>
        <rect x="250.00000000000003" y="0.0" width="8.620689655172415" height="8.620689655172415" fill="#0e372d"/>
        <rect x="258.62068965517244" y="0.0" width="8.620689655172415" height="8.620689655172415" fill="#0e372d"/>
        <rect x="267.2413793103448" y="0.0" width="8.620689655172415" height="8.620689655172415" fill="#0e372d"/>
        <rect x="275.86206896551727" y="0.0" width="8.620689655172415" height="8.620689655172415" fill="#0e372d"/>
        <rect x="0.0" y="8.620689655172415" width="8.620689655172415" height="8.620689655172415" fill="#0e372d"/>
        <rect x="51.72413793103449" y="8.620689655172415" width="8.620689655172415" height="8.620689655172415" fill="#0e372d"/>
        <rect x="77.58620689655173" y="8.620689655172415" width="8.620689655172415" height="8.620689655172415" fill="#0e372d"/>
        <rect x="103.44827586206898" y="8.620689655172415" width="8.620689655172415" height="8.620689655172415" fill="#0e372d"/>
        <rect x="129.31034482758622" y="8.620689655172415" width="8.620689655172415" height="8.620689655172415" fill="#0e372d"/>
        <rect x="137.93103448275863" y="8.620689655172415" width="8.620689655172415" height="8.620689655172415" fill="#0e372d"/>
        <rect x="155.17241379310346" y="8.620689655172415" width="8.620689655172415" height="8.620689655172415" fill="#0e372d"/>
        <rect x="172.41379310344828" y="8.620689655172415" width="8.620689655172415" height="8.620689655172415" fill="#0e372d"/>
        <rect x="189.6551724137931" y="8.620689655172415" width="8.620689655172415" height="8.620689655172415" fill="#0e372d"/>
        <rect x="224.1379310344828" y="8.620689655172415" width="8.620689655172415" height="8.620689655172415" fill="#0e372d"/>
        <rect x="275.86206896551727" y="8.620689655172415" width="8.620689655172415" height="8.620689655172415" fill="#0e372d"/>
        <rect x="0.0" y="17.24137931034483" width="8.620689655172415" height="8.620689655172415" fill="#0e372d"/>
        <rect x="17.24137931034483" y="17.24137931034483" width="8.620689655172415" height="8.620689655172415" fill="#0e372d"/>
        <rect x="25.862068965517246" y="17.24137931034483" width="8.620689655172415" height="8.620689655172415" fill="#0e372d"/>
        <rect x="34.48275862068966" y="17.24137931034483" width="8.620689655172415" height="8.620689655172415" fill="#0e372d"/>
        <rect x="51.72413793103449" y="17.24137931034483" width="8.620689655172415" height="8.620689655172415" fill="#0e372d"/>
        <rect x="68.96551724137932" y="17.24137931034483" width="8.620689655172415" height="8.620689655172415" fill="#0e372d"/>
        <rect x="94.82758620689656" y="17.24137931034483" width="8.620689655172415" height="8.620689655172415" fill="#0e372d"/>
        <rect x="103.44827586206898" y="17.24137931034483" width="8.620689655172415" height="8.620689655172415" fill="#0e372d"/>
        <rect x="120.68965517241381" y="17.24137931034483" width="8.620689655172415" height="8.620689655172415" fill="#0e372d"/>
        <rect x="129.31034482758622" y="17.24137931034483" width="8.620689655172415" height="8.620689655172415" fill="#0e372d"/>
        <rect x="163.79310344827587" y="17.24137931034483" width="8.620689655172415" height="8.620689655172415" fill="#0e372d"/>
        <rect x="181.0344827586207" y="17.24137931034483" width="8.620689655172415" height="8.620689655172415" fill="#0e372d"/>
        <rect x="198.27586206896552" y="17.24137931034483" width="8.620689655172415" height="8.620689655172415" fill="#0e372d"/>
        <rect x="224.1379310344828" y="17.24137931034483" width="8.620689655172415" height="8.620689655172415" fill="#0e372d"/>
        <rect x="241.37931034482762" y="17.24137931034483" width="8.620689655172415" height="8.620689655172415" fill="#0e372d"/>
        <rect x="250.00000000000003" y="17.24137931034483" width="8.620689655172415" height="8.620689655172415" fill="#0e372d"/>
        <rect x="258.62068965517244" y="17.24137931034483" width="8.620689655172415" height="8.620689655172415" fill="#0e372d"/>
        <rect x="275.86206896551727" y="17.24137931034483" width="8.620689655172415" height="8.620689655172415" fill="#0e372d"/>
        <rect x="0.0" y="25.862068965517246" width="8.620689655172415" height="8.620689655172415" fill="#0e372d"/>
        <rect x="17.24137931034483" y="25.862068965517246" width="8.620689655172415" height="8.620689655172415" fill="#0e372d"/>
        <rect x="25.862068965517246" y="25.862068965517246" width="8.620689655172415" height="8.620689655172415" fill="#0e372d"/>
        <rect x="34.48275862068966" y="25.862068965517246" width="8.620689655172415" height="8.620689655172415" fill="#0e372d"/>
        <rect x="51.72413793103449" y="25.862068965517246" width="8.620689655172415" height="8.620689655172415" fill="#0e372d"/>
        <rect x="68.96551724137932" y="25.862068965517246" width="8.620689655172415" height="8.620689655172415" fill="#0e372d"/>
        <rect x="77.58620689655173" y="25.862068965517246" width="8.620689655172415" height="8.620689655172415" fill="#0e372d"/>
        <rect x="86.20689655172414" y="25.862068965517246" width="8.620689655172415" height="8.620689655172415" fill="#0e372d"/>
        <rect x="103.44827586206898" y="25.862068965517246" width="8.620689655172415" height="8.620689655172415" fill="#0e372d"/>
        <rect x="129.31034482758622" y="25.862068965517246" width="8.620689655172415" height="8.620689655172415" fill="#0e372d"/>
        <rect x="146.55172413793105" y="25.862068965517246" width="8.620689655172415" height="8.620689655172415" fill="#0e372d"/>
        <rect x="155.17241379310346" y="25.862068965517246" width="8.620689655172415" height="8.620689655172415" fill="#0e372d"/>
        <rect x="172.41379310344828" y="25.862068965517246" width="8.620689655172415" height="8.620689655172415" fill="#0e372d"/>
        <rect x="224.1379310344828" y="25.862068965517246" width="8.620689655172415" height="8.620689655172415" fill="#0e372d"/>
        <rect x="241.37931034482762" y="25.862068965517246" width="8.620689655172415" height="8.620689655172415" fill="#0e372d"/>
        <rect x="250.00000000000003" y="25.862068965517246" width="8.620689655172415" height="8.620689655172415" fill="#0e372d"/>
        <rect x="258.62068965517244" y="25.862068965517246" width="8.620689655172415" height="8.620689655172415" fill="#0e372d"/>
        <rect x="275.86206896551727" y="25.862068965517246" width="8.620689655172415" height="8.620689655172415" fill="#0e372d"/>
        <rect x="0.0" y="34.48275862068966" width="8.620689655172415" height="8.620689655172415" fill="#0e372d"/>
        <rect x="17.24137931034483" y="34.48275862068966" width="8.620689655172415" height="8.620689655172415" fill="#0e372d"/>
        <rect x="25.862068965517246" y="34.48275862068966" width="8.620689655172415" height="8.620689655172415" fill="#0e372d"/>
        <rect x="34.48275862068966" y="34.48275862068966" width="8.620689655172415" height="8.620689655172415" fill="#0e372d"/>
        <rect x="51.72413793103449" y="34.48275862068966" width="8.620689655172415" height="8.620689655172415" fill="#0e372d"/>
        <rect x="68.96551724137932" y="34.48275862068966" width="8.620689655172415" height="8.620689655172415" fill="#0e372d"/>
        <rect x="77.58620689655173" y="34.48275862068966" width="8.620689655172415" height="8.620689655172415" fill="#0e372d"/>
        <rect x="86.20689655172414" y="34.48275862068966" width="8.620689655172415" height="8.620689655172415" fill="#0e372d"/>
        <rect x="120.68965517241381" y="34.48275862068966" width="8.620689655172415" height="8.620689655172415" fill="#0e372d"/>
        <rect x="129.31034482758622" y="34.48275862068966" width="8.620689655172415" height="8.620689655172415" fill="#0e372d"/>
        <rect x="137.93103448275863" y="34.48275862068966" width="8.620689655172415" height="8.620689655172415" fill="#0e372d"/>
        <rect x="146.55172413793105" y="34.48275862068966" width="8.620689655172415" height="8.620689655172415" fill="#0e372d"/>
        <rect x="163.79310344827587" y="34.48275862068966" width="8.620689655172415" height="8.620689655172415" fill="#0e372d"/>
        <rect x="181.0344827586207" y="34.48275862068966" width="8.620689655172415" height="8.620689655172415" fill="#0e372d"/>
        <rect x="198.27586206896552" y="34.48275862068966" width="8.620689655172415" height="8.620689655172415" fill="#0e372d"/>
        <rect x="206.89655172413796" y="34.48275862068966" width="8.620689655172415" height="8.620689655172415" fill="#0e372d"/>
        <rect x="224.1379310344828" y="34.48275862068966" width="8.620689655172415" height="8.620689655172415" fill="#0e372d"/>
        <rect x="241.37931034482762" y="34.48275862068966" width="8.620689655172415" height="8.620689655172415" fill="#0e372d"/>
        <rect x="250.00000000000003" y="34.48275862068966" width="8.620689655172415" height="8.620689655172415" fill="#0e372d"/>
        <rect x="258.62068965517244" y="34.48275862068966" width="8.620689655172415" height="8.620689655172415" fill="#0e372d"/>
        <rect x="275.86206896551727" y="34.48275862068966" width="8.620689655172415" height="8.620689655172415" fill="#0e372d"/>
        <rect x="0.0" y="43.10344827586207" width="8.620689655172415" height="8.620689655172415" fill="#0e372d"/>
        <rect x="51.72413793103449" y="43.10344827586207" width="8.620689655172415" height="8.620689655172415" fill="#0e372d"/>
        <rect x="68.96551724137932" y="43.10344827586207" width="8.620689655172415" height="8.620689655172415" fill="#0e372d"/>
        <rect x="94.82758620689656" y="43.10344827586207" width="8.620689655172415" height="8.620689655172415" fill="#0e372d"/>
        <rect x="146.55172413793105" y="43.10344827586207" width="8.620689655172415" height="8.620689655172415" fill="#0e372d"/>
        <rect x="172.41379310344828" y="43.10344827586207" width="8.620689655172415" height="8.620689655172415" fill="#0e372d"/>
        <rect x="181.0344827586207" y="43.10344827586207" width="8.620689655172415" height="8.620689655172415" fill="#0e372d"/>
        <rect x="224.1379310344828" y="43.10344827586207" width="8.620689655172415" height="8.620689655172415" fill="#0e372d"/>
        <rect x="275.86206896551727" y="43.10344827586207" width="8.620689655172415" height="8.620689655172415" fill="#0e372d"/>
        <rect x="0.0" y="51.72413793103449" width="8.620689655172415" height="8.620689655172415" fill="#0e372d"/>
        <rect x="8.620689655172415" y="51.72413793103449" width="8.620689655172415" height="8.620689655172415" fill="#0e372d"/>
        <rect x="17.24137931034483" y="51.72413793103449" width="8.620689655172415" height="8.620689655172415" fill="#0e372d"/>
        <rect x="25.862068965517246" y="51.72413793103449" width="8.620689655172415" height="8.620689655172415" fill="#0e372d"/>
        <rect x="34.48275862068966" y="51.72413793103449" width="8.620689655172415" height="8.620689655172415" fill="#0e372d"/>
        <rect x="43.10344827586207" y="51.72413793103449" width="8.620689655172415" height="8.620689655172415" fill="#0e372d"/>
        <rect x="51.72413793103449" y="51.72413793103449" width="8.620689655172415" height="8.620689655172415" fill="#0e372d"/>
        <rect x="68.96551724137932" y="51.72413793103449" width="8.620689655172415" height="8.620689655172415" fill="#0e372d"/>
        <rect x="86.20689655172414" y="51.72413793103449" width="8.620689655172415" height="8.620689655172415" fill="#0e372d"/>
        <rect x="103.44827586206898" y="51.72413793103449" width="8.620689655172415" height="8.620689655172415" fill="#0e372d"/>
        <rect x="120.68965517241381" y="51.72413793103449" width="8.620689655172415" height="8.620689655172415" fill="#0e372d"/>
        <rect x="137.93103448275863" y="51.72413793103449" width="8.620689655172415" height="8.620689655172415" fill="#0e372d"/>
        <rect x="155.17241379310346" y="51.72413793103449" width="8.620689655172415" height="8.620689655172415" fill="#0e372d"/>
        <rect x="172.41379310344828" y="51.72413793103449" width="8.620689655172415" height="8.620689655172415" fill="#0e372d"/>
        <rect x="189.6551724137931" y="51.72413793103449" width="8.620689655172415" height="8.620689655172415" fill="#0e372d"/>
        <rect x="206.89655172413796" y="51.72413793103449" width="8.620689655172415" height="8.620689655172415" fill="#0e372d"/>
        <rect x="224.1379310344828" y="51.72413793103449" width="8.620689655172415" height="8.620689655172415" fill="#0e372d"/>
        <rect x="232.7586206896552" y="51.72413793103449" width="8.620689655172415" height="8.620689655172415" fill="#0e372d"/>
        <rect x="241.37931034482762" y="51.72413793103449" width="8.620689655172415" height="8.620689655172415" fill="#0e372d"/>
        <rect x="250.00000000000003" y="51.72413793103449" width="8.620689655172415" height="8.620689655172415" fill="#0e372d"/>
        <rect x="258.62068965517244" y="51.72413793103449" width="8.620689655172415" height="8.620689655172415" fill="#0e372d"/>
        <rect x="267.2413793103448" y="51.72413793103449" width="8.620689655172415" height="8.620689655172415" fill="#0e372d"/>
        <rect x="275.86206896551727" y="51.72413793103449" width="8.620689655172415" height="8.620689655172415" fill="#0e372d"/>
        <rect x="68.96551724137932" y="60.344827586206904" width="8.620689655172415" height="8.620689655172415" fill="#0e372d"/>
        <rect x="77.58620689655173" y="60.344827586206904" width="8.620689655172415" height="8.620689655172415" fill="#0e372d"/>
        <rect x="103.44827586206898" y="60.344827586206904" width="8.620689655172415" height="8.620689655172415" fill="#0e372d"/>
        <rect x="120.68965517241381" y="60.344827586206904" width="8.620689655172415" height="8.620689655172415" fill="#0e372d"/>
        <rect x="137.93103448275863" y="60.344827586206904" width="8.620689655172415" height="8.620689655172415" fill="#0e372d"/>
        <rect x="163.79310344827587" y="60.344827586206904" width="8.620689655172415" height="8.620689655172415" fill="#0e372d"/>
        <rect x="181.0344827586207" y="60.344827586206904" width="8.620689655172415" height="8.620689655172415" fill="#0e372d"/>
        <rect x="198.27586206896552" y="60.344827586206904" width="8.620689655172415" height="8.620689655172415" fill="#0e372d"/>
        <rect x="0.0" y="68.96551724137932" width="8.620689655172415" height="8.620689655172415" fill="#0e372d"/>
        <rect x="17.24137931034483" y="68.96551724137932" width="8.620689655172415" height="8.620689655172415" fill="#0e372d"/>
        <rect x="25.862068965517246" y="68.96551724137932" width="8.620689655172415" height="8.620689655172415" fill="#0e372d"/>
        <rect x="34.48275862068966" y="68.96551724137932" width="8.620689655172415" height="8.620689655172415" fill="#0e372d"/>
        <rect x="43.10344827586207" y="68.96551724137932" width="8.620689655172415" height="8.620689655172415" fill="#0e372d"/>
        <rect x="51.72413793103449" y="68.96551724137932" width="8.620689655172415" height="8.620689655172415" fill="#0e372d"/>
        <rect x="77.58620689655173" y="68.96551724137932" width="8.620689655172415" height="8.620689655172415" fill="#0e372d"/>
        <rect x="86.20689655172414" y="68.96551724137932" width="8.620689655172415" height="8.620689655172415" fill="#0e372d"/>
        <rect x="94.82758620689656" y="68.96551724137932" width="8.620689655172415" height="8.620689655172415" fill="#0e372d"/>
        <rect x="103.44827586206898" y="68.96551724137932" width="8.620689655172415" height="8.620689655172415" fill="#0e372d"/>
        <rect x="112.0689655172414" y="68.96551724137932" width="8.620689655172415" height="8.620689655172415" fill="#0e372d"/>
        <rect x="137.93103448275863" y="68.96551724137932" width="8.620689655172415" height="8.620689655172415" fill="#0e372d"/>
        <rect x="146.55172413793105" y="68.96551724137932" width="8.620689655172415" height="8.620689655172415" fill="#0e372d"/>
        <rect x="155.17241379310346" y="68.96551724137932" width="8.620689655172415" height="8.620689655172415" fill="#0e372d"/>
        <rect x="189.6551724137931" y="68.96551724137932" width="8.620689655172415" height="8.620689655172415" fill="#0e372d"/>
        <rect x="206.89655172413796" y="68.96551724137932" width="8.620689655172415" height="8.620689655172415" fill="#0e372d"/>
        <rect x="224.1379310344828" y="68.96551724137932" width="8.620689655172415" height="8.620689655172415" fill="#0e372d"/>
        <rect x="232.7586206896552" y="68.96551724137932" width="8.620689655172415" height="8.620689655172415" fill="#0e372d"/>
        <rect x="241.37931034482762" y="68.96551724137932" width="8.620689655172415" height="8.620689655172415" fill="#0e372d"/>
        <rect x="250.00000000000003" y="68.96551724137932" width="8.620689655172415" height="8.620689655172415" fill="#0e372d"/>
        <rect x="258.62068965517244" y="68.96551724137932" width="8.620689655172415" height="8.620689655172415" fill="#0e372d"/>
        <rect x="8.620689655172415" y="77.58620689655173" width="8.620689655172415" height="8.620689655172415" fill="#0e372d"/>
        <rect x="17.24137931034483" y="77.58620689655173" width="8.620689655172415" height="8.620689655172415" fill="#0e372d"/>
        <rect x="34.48275862068966" y="77.58620689655173" width="8.620689655172415" height="8.620689655172415" fill="#0e372d"/>
        <rect x="60.344827586206904" y="77.58620689655173" width="8.620689655172415" height="8.620689655172415" fill="#0e372d"/>
        <rect x="68.96551724137932" y="77.58620689655173" width="8.620689655172415" height="8.620689655172415" fill="#0e372d"/>
        <rect x="77.58620689655173" y="77.58620689655173" width="8.620689655172415" height="8.620689655172415" fill="#0e372d"/>
        <rect x="86.20689655172414" y="77.58620689655173" width="8.620689655172415" height="8.620689655172415" fill="#0e372d"/>
        <rect x="103.44827586206898" y="77.58620689655173" width="8.620689655172415" height="8.620689655172415" fill="#0e372d"/>
        <rect x="112.0689655172414" y="77.58620689655173" width="8.620689655172415" height="8.620689655172415" fill="#0e372d"/>
        <rect x="146.55172413793105" y="77.58620689655173" width="8.620689655172415" height="8.620689655172415" fill="#0e372d"/>
        <rect x="163.79310344827587" y="77.58620689655173" width="8.620689655172415" height="8.620689655172415" fill="#0e372d"/>
        <rect x="172.41379310344828" y="77.58620689655173" width="8.620689655172415" height="8.620689655172415" fill="#0e372d"/>
        <rect x="189.6551724137931" y="77.58620689655173" width="8.620689655172415" height="8.620689655172415" fill="#0e372d"/>
        <rect x="198.27586206896552" y="77.58620689655173" width="8.620689655172415" height="8.620689655172415" fill="#0e372d"/>
        <rect x="224.1379310344828" y="77.58620689655173" width="8.620689655172415" height="8.620689655172415" fill="#0e372d"/>
        <rect x="232.7586206896552" y="77.58620689655173" width="8.620689655172415" height="8.620689655172415" fill="#0e372d"/>
        <rect x="250.00000000000003" y="77.58620689655173" width="8.620689655172415" height="8.620689655172415" fill="#0e372d"/>
        <rect x="258.62068965517244" y="77.58620689655173" width="8.620689655172415" height="8.620689655172415" fill="#0e372d"/>
        <rect x="267.2413793103448" y="77.58620689655173" width="8.620689655172415" height="8.620689655172415" fill="#0e372d"/>
        <rect x="275.86206896551727" y="77.58620689655173" width="8.620689655172415" height="8.620689655172415" fill="#0e372d"/>
        <rect x="51.72413793103449" y="86.20689655172414" width="8.620689655172415" height="8.620689655172415" fill="#0e372d"/>
        <rect x="68.96551724137932" y="86.20689655172414" width="8.620689655172415" height="8.620689655172415" fill="#0e372d"/>
        <rect x="86.20689655172414" y="86.20689655172414" width="8.620689655172415" height="8.620689655172415" fill="#0e372d"/>
        <rect x="103.44827586206898" y="86.20689655172414" width="8.620689655172415" height="8.620689655172415" fill="#0e372d"/>
        <rect x="112.0689655172414" y="86.20689655172414" width="8.620689655172415" height="8.620689655172415" fill="#0e372d"/>
        <rect x="120.68965517241381" y="86.20689655172414" width="8.620689655172415" height="8.620689655172415" fill="#0e372d"/>
        <rect x="129.31034482758622" y="86.20689655172414" width="8.620689655172415" height="8.620689655172415" fill="#0e372d"/>
        <rect x="137.93103448275863" y="86.20689655172414" width="8.620689655172415" height="8.620689655172415" fill="#0e372d"/>
        <rect x="155.17241379310346" y="86.20689655172414" width="8.620689655172415" height="8.620689655172415" fill="#0e372d"/>
        <rect x="172.41379310344828" y="86.20689655172414" width="8.620689655172415" height="8.620689655172415" fill="#0e372d"/>
        <rect x="181.0344827586207" y="86.20689655172414" width="8.620689655172415" height="8.620689655172415" fill="#0e372d"/>
        <rect x="189.6551724137931" y="86.20689655172414" width="8.620689655172415" height="8.620689655172415" fill="#0e372d"/>
        <rect x="206.89655172413796" y="86.20689655172414" width="8.620689655172415" height="8.620689655172415" fill="#0e372d"/>
        <rect x="241.37931034482762" y="86.20689655172414" width="8.620689655172415" height="8.620689655172415" fill="#0e372d"/>
        <rect x="258.62068965517244" y="86.20689655172414" width="8.620689655172415" height="8.620689655172415" fill="#0e372d"/>
        <rect x="17.24137931034483" y="94.82758620689656" width="8.620689655172415" height="8.620689655172415" fill="#0e372d"/>
        <rect x="25.862068965517246" y="94.82758620689656" width="8.620689655172415" height="8.620689655172415" fill="#0e372d"/>
        <rect x="34.48275862068966" y="94.82758620689656" width="8.620689655172415" height="8.620689655172415" fill="#0e372d"/>
        <rect x="60.344827586206904" y="94.82758620689656" width="8.620689655172415" height="8.620689655172415" fill="#0e372d"/>
        <rect x="103.44827586206898" y="94.82758620689656" width="8.620689655172415" height="8.620689655172415" fill="#0e372d"/>
        <rect x="112.0689655172414" y="94.82758620689656" width="8.620689655172415" height="8.620689655172415" fill="#0e372d"/>
        <rect x="129.31034482758622" y="94.82758620689656" width="8.620689655172415" height="8.620689655172415" fill="#0e372d"/>
        <rect x="163.79310344827587" y="94.82758620689656" width="8.620689655172415" height="8.620689655172415" fill="#0e372d"/>
        <rect x="172.41379310344828" y="94.82758620689656" width="8.620689655172415" height="8.620689655172415" fill="#0e372d"/>
        <rect x="181.0344827586207" y="94.82758620689656" width="8.620689655172415" height="8.620689655172415" fill="#0e372d"/>
        <rect x="189.6551724137931" y="94.82758620689656" width="8.620689655172415" height="8.620689655172415" fill="#0e372d"/>
        <rect x="215.51724137931038" y="94.82758620689656" width="8.620689655172415" height="8.620689655172415" fill="#0e372d"/>
        <rect x="224.1379310344828" y="94.82758620689656" width="8.620689655172415" height="8.620689655172415" fill="#0e372d"/>
        <rect x="241.37931034482762" y="94.82758620689656" width="8.620689655172415" height="8.620689655172415" fill="#0e372d"/>
        <rect x="250.00000000000003" y="94.82758620689656" width="8.620689655172415" height="8.620689655172415" fill="#0e372d"/>
        <rect x="258.62068965517244" y="94.82758620689656" width="8.620689655172415" height="8.620689655172415" fill="#0e372d"/>
        <rect x="0.0" y="103.44827586206898" width="8.620689655172415" height="8.620689655172415" fill="#0e372d"/>
        <rect x="8.620689655172415" y="103.44827586206898" width="8.620689655172415" height="8.620689655172415" fill="#0e372d"/>
        <rect x="17.24137931034483" y="103.44827586206898" width="8.620689655172415" height="8.620689655172415" fill="#0e372d"/>
        <rect x="43.10344827586207" y="103.44827586206898" width="8.620689655172415" height="8.620689655172415" fill="#0e372d"/>
        <rect x="51.72413793103449" y="103.44827586206898" width="8.620689655172415" height="8.620689655172415" fill="#0e372d"/>
        <rect x="60.344827586206904" y="103.44827586206898" width="8.620689655172415" height="8.620689655172415" fill="#0e372d"/>
        <rect x="120.68965517241381" y="103.44827586206898" width="8.620689655172415" height="8.620689655172415" fill="#0e372d"/>
        <rect x="129.31034482758622" y="103.44827586206898" width="8.620689655172415" height="8.620689655172415" fill="#0e372d"/>
        <rect x="146.55172413793105" y="103.44827586206898" width="8.620689655172415" height="8.620689655172415" fill="#0e372d"/>
        <rect x="155.17241379310346" y="103.44827586206898" width="8.620689655172415" height="8.620689655172415" fill="#0e372d"/>
        <rect x="163.79310344827587" y="103.44827586206898" width="8.620689655172415" height="8.620689655172415" fill="#0e372d"/>
        <rect x="172.41379310344828" y="103.44827586206898" width="8.620689655172415" height="8.620689655172415" fill="#0e372d"/>
        <rect x="241.37931034482762" y="103.44827586206898" width="8.620689655172415" height="8.620689655172415" fill="#0e372d"/>
        <rect x="250.00000000000003" y="103.44827586206898" width="8.620689655172415" height="8.620689655172415" fill="#0e372d"/>
        <rect x="275.86206896551727" y="103.44827586206898" width="8.620689655172415" height="8.620689655172415" fill="#0e372d"/>
        <rect x="0.0" y="112.0689655172414" width="8.620689655172415" height="8.620689655172415" fill="#0e372d"/>
        <rect x="8.620689655172415" y="112.0689655172414" width="8.620689655172415" height="8.620689655172415" fill="#0e372d"/>
        <rect x="43.10344827586207" y="112.0689655172414" width="8.620689655172415" height="8.620689655172415" fill="#0e372d"/>
        <rect x="60.344827586206904" y="112.0689655172414" width="8.620689655172415" height="8.620689655172415" fill="#0e372d"/>
        <rect x="68.96551724137932" y="112.0689655172414" width="8.620689655172415" height="8.620689655172415" fill="#0e372d"/>
        <rect x="94.82758620689656" y="112.0689655172414" width="8.620689655172415" height="8.620689655172415" fill="#0e372d"/>
        <rect x="129.31034482758622" y="112.0689655172414" width="8.620689655172415" height="8.620689655172415" fill="#0e372d"/>
        <rect x="163.79310344827587" y="112.0689655172414" width="8.620689655172415" height="8.620689655172415" fill="#0e372d"/>
        <rect x="181.0344827586207" y="112.0689655172414" width="8.620689655172415" height="8.620689655172415" fill="#0e372d"/>
        <rect x="189.6551724137931" y="112.0689655172414" width="8.620689655172415" height="8.620689655172415" fill="#0e372d"/>
        <rect x="198.27586206896552" y="112.0689655172414" width="8.620689655172415" height="8.620689655172415" fill="#0e372d"/>
        <rect x="206.89655172413796" y="112.0689655172414" width="8.620689655172415" height="8.620689655172415" fill="#0e372d"/>
        <rect x="215.51724137931038" y="112.0689655172414" width="8.620689655172415" height="8.620689655172415" fill="#0e372d"/>
        <rect x="224.1379310344828" y="112.0689655172414" width="8.620689655172415" height="8.620689655172415" fill="#0e372d"/>
        <rect x="232.7586206896552" y="112.0689655172414" width="8.620689655172415" height="8.620689655172415" fill="#0e372d"/>
        <rect x="258.62068965517244" y="112.0689655172414" width="8.620689655172415" height="8.620689655172415" fill="#0e372d"/>
        <rect x="267.2413793103448" y="112.0689655172414" width="8.620689655172415" height="8.620689655172415" fill="#0e372d"/>
        <rect x="275.86206896551727" y="112.0689655172414" width="8.620689655172415" height="8.620689655172415" fill="#0e372d"/>
        <rect x="8.620689655172415" y="120.68965517241381" width="8.620689655172415" height="8.620689655172415" fill="#0e372d"/>
        <rect x="17.24137931034483" y="120.68965517241381" width="8.620689655172415" height="8.620689655172415" fill="#0e372d"/>
        <rect x="25.862068965517246" y="120.68965517241381" width="8.620689655172415" height="8.620689655172415" fill="#0e372d"/>
        <rect x="51.72413793103449" y="120.68965517241381" width="8.620689655172415" height="8.620689655172415" fill="#0e372d"/>
        <rect x="68.96551724137932" y="120.68965517241381" width="8.620689655172415" height="8.620689655172415" fill="#0e372d"/>
        <rect x="129.31034482758622" y="120.68965517241381" width="8.620689655172415" height="8.620689655172415" fill="#0e372d"/>
        <rect x="146.55172413793105" y="120.68965517241381" width="8.620689655172415" height="8.620689655172415" fill="#0e372d"/>
        <rect x="181.0344827586207" y="120.68965517241381" width="8.620689655172415" height="8.620689655172415" fill="#0e372d"/>
        <rect x="189.6551724137931" y="120.68965517241381" width="8.620689655172415" height="8.620689655172415" fill="#0e372d"/>
        <rect x="206.89655172413796" y="120.68965517241381" width="8.620689655172415" height="8.620689655172415" fill="#0e372d"/>
        <rect x="215.51724137931038" y="120.68965517241381" width="8.620689655172415" height="8.620689655172415" fill="#0e372d"/>
        <rect x="224.1379310344828" y="120.68965517241381" width="8.620689655172415" height="8.620689655172415" fill="#0e372d"/>
        <rect x="241.37931034482762" y="120.68965517241381" width="8.620689655172415" height="8.620689655172415" fill="#0e372d"/>
        <rect x="258.62068965517244" y="120.68965517241381" width="8.620689655172415" height="8.620689655172415" fill="#0e372d"/>
        <rect x="267.2413793103448" y="120.68965517241381" width="8.620689655172415" height="8.620689655172415" fill="#0e372d"/>
        <rect x="8.620689655172415" y="129.31034482758622" width="8.620689655172415" height="8.620689655172415" fill="#0e372d"/>
        <rect x="25.862068965517246" y="129.31034482758622" width="8.620689655172415" height="8.620689655172415" fill="#0e372d"/>
        <rect x="43.10344827586207" y="129.31034482758622" width="8.620689655172415" height="8.620689655172415" fill="#0e372d"/>
        <rect x="86.20689655172414" y="129.31034482758622" width="8.620689655172415" height="8.620689655172415" fill="#0e372d"/>
        <rect x="94.82758620689656" y="129.31034482758622" width="8.620689655172415" height="8.620689655172415" fill="#0e372d"/>
        <rect x="103.44827586206898" y="129.31034482758622" width="8.620689655172415" height="8.620689655172415" fill="#0e372d"/>
        <rect x="129.31034482758622" y="129.31034482758622" width="8.620689655172415" height="8.620689655172415" fill="#0e372d"/>
        <rect x="155.17241379310346" y="129.31034482758622" width="8.620689655172415" height="8.620689655172415" fill="#0e372d"/>
        <rect x="181.0344827586207" y="129.31034482758622" width="8.620689655172415" height="8.620689655172415" fill="#0e372d"/>
        <rect x="215.51724137931038" y="129.31034482758622" width="8.620689655172415" height="8.620689655172415" fill="#0e372d"/>
        <rect x="224.1379310344828" y="129.31034482758622" width="8.620689655172415" height="8.620689655172415" fill="#0e372d"/>
        <rect x="232.7586206896552" y="129.31034482758622" width="8.620689655172415" height="8.620689655172415" fill="#0e372d"/>
        <rect x="258.62068965517244" y="129.31034482758622" width="8.620689655172415" height="8.620689655172415" fill="#0e372d"/>
        <rect x="0.0" y="137.93103448275863" width="8.620689655172415" height="8.620689655172415" fill="#0e372d"/>
        <rect x="8.620689655172415" y="137.93103448275863" width="8.620689655172415" height="8.620689655172415" fill="#0e372d"/>
        <rect x="34.48275862068966" y="137.93103448275863" width="8.620689655172415" height="8.620689655172415" fill="#0e372d"/>
        <rect x="51.72413793103449" y="137.93103448275863" width="8.620689655172415" height="8.620689655172415" fill="#0e372d"/>
        <rect x="60.344827586206904" y="137.93103448275863" width="8.620689655172415" height="8.620689655172415" fill="#0e372d"/>
        <rect x="68.96551724137932" y="137.93103448275863" width="8.620689655172415" height="8.620689655172415" fill="#0e372d"/>
        <rect x="77.58620689655173" y="137.93103448275863" width="8.620689655172415" height="8.620689655172415" fill="#0e372d"/>
        <rect x="129.31034482758622" y="137.93103448275863" width="8.620689655172415" height="8.620689655172415" fill="#0e372d"/>
        <rect x="137.93103448275863" y="137.93103448275863" width="8.620689655172415" height="8.620689655172415" fill="#0e372d"/>
        <rect x="146.55172413793105" y="137.93103448275863" width="8.620689655172415" height="8.620689655172415" fill="#0e372d"/>
        <rect x="155.17241379310346" y="137.93103448275863" width="8.620689655172415" height="8.620689655172415" fill="#0e372d"/>
        <rect x="215.51724137931038" y="137.93103448275863" width="8.620689655172415" height="8.620689655172415" fill="#0e372d"/>
        <rect x="232.7586206896552" y="137.93103448275863" width="8.620689655172415" height="8.620689655172415" fill="#0e372d"/>
        <rect x="241.37931034482762" y="137.93103448275863" width="8.620689655172415" height="8.620689655172415" fill="#0e372d"/>
        <rect x="250.00000000000003" y="137.93103448275863" width="8.620689655172415" height="8.620689655172415" fill="#0e372d"/>
        <rect x="275.86206896551727" y="137.93103448275863" width="8.620689655172415" height="8.620689655172415" fill="#0e372d"/>
        <rect x="8.620689655172415" y="146.55172413793105" width="8.620689655172415" height="8.620689655172415" fill="#0e372d"/>
        <rect x="25.862068965517246" y="146.55172413793105" width="8.620689655172415" height="8.620689655172415" fill="#0e372d"/>
        <rect x="60.344827586206904" y="146.55172413793105" width="8.620689655172415" height="8.620689655172415" fill="#0e372d"/>
        <rect x="68.96551724137932" y="146.55172413793105" width="8.620689655172415" height="8.620689655172415" fill="#0e372d"/>
        <rect x="77.58620689655173" y="146.55172413793105" width="8.620689655172415" height="8.620689655172415" fill="#0e372d"/>
        <rect x="112.0689655172414" y="146.55172413793105" width="8.620689655172415" height="8.620689655172415" fill="#0e372d"/>
        <rect x="120.68965517241381" y="146.55172413793105" width="8.620689655172415" height="8.620689655172415" fill="#0e372d"/>
        <rect x="163.79310344827587" y="146.55172413793105" width="8.620689655172415" height="8.620689655172415" fill="#0e372d"/>
        <rect x="181.0344827586207" y="146.55172413793105" width="8.620689655172415" height="8.620689655172415" fill="#0e372d"/>
        <rect x="198.27586206896552" y="146.55172413793105" width="8.620689655172415" height="8.620689655172415" fill="#0e372d"/>
        <rect x="224.1379310344828" y="146.55172413793105" width="8.620689655172415" height="8.620689655172415" fill="#0e372d"/>
        <rect x="232.7586206896552" y="146.55172413793105" width="8.620689655172415" height="8.620689655172415" fill="#0e372d"/>
        <rect x="250.00000000000003" y="146.55172413793105" width="8.620689655172415" height="8.620689655172415" fill="#0e372d"/>
        <rect x="258.62068965517244" y="146.55172413793105" width="8.620689655172415" height="8.620689655172415" fill="#0e372d"/>
        <rect x="267.2413793103448" y="146.55172413793105" width="8.620689655172415" height="8.620689655172415" fill="#0e372d"/>
        <rect x="275.86206896551727" y="146.55172413793105" width="8.620689655172415" height="8.620689655172415" fill="#0e372d"/>
        <rect x="17.24137931034483" y="155.17241379310346" width="8.620689655172415" height="8.620689655172415" fill="#0e372d"/>
        <rect x="34.48275862068966" y="155.17241379310346" width="8.620689655172415" height="8.620689655172415" fill="#0e372d"/>
        <rect x="51.72413793103449" y="155.17241379310346" width="8.620689655172415" height="8.620689655172415" fill="#0e372d"/>
        <rect x="60.344827586206904" y="155.17241379310346" width="8.620689655172415" height="8.620689655172415" fill="#0e372d"/>
        <rect x="68.96551724137932" y="155.17241379310346" width="8.620689655172415" height="8.620689655172415" fill="#0e372d"/>
        <rect x="86.20689655172414" y="155.17241379310346" width="8.620689655172415" height="8.620689655172415" fill="#0e372d"/>
        <rect x="103.44827586206898" y="155.17241379310346" width="8.620689655172415" height="8.620689655172415" fill="#0e372d"/>
        <rect x="129.31034482758622" y="155.17241379310346" width="8.620689655172415" height="8.620689655172415" fill="#0e372d"/>
        <rect x="172.41379310344828" y="155.17241379310346" width="8.620689655172415" height="8.620689655172415" fill="#0e372d"/>
        <rect x="232.7586206896552" y="155.17241379310346" width="8.620689655172415" height="8.620689655172415" fill="#0e372d"/>
        <rect x="241.37931034482762" y="155.17241379310346" width="8.620689655172415" height="8.620689655172415" fill="#0e372d"/>
        <rect x="258.62068965517244" y="155.17241379310346" width="8.620689655172415" height="8.620689655172415" fill="#0e372d"/>
        <rect x="8.620689655172415" y="163.79310344827587" width="8.620689655172415" height="8.620689655172415" fill="#0e372d"/>
        <rect x="25.862068965517246" y="163.79310344827587" width="8.620689655172415" height="8.620689655172415" fill="#0e372d"/>
        <rect x="34.48275862068966" y="163.79310344827587" width="8.620689655172415" height="8.620689655172415" fill="#0e372d"/>
        <rect x="43.10344827586207" y="163.79310344827587" width="8.620689655172415" height="8.620689655172415" fill="#0e372d"/>
        <rect x="68.96551724137932" y="163.79310344827587" width="8.620689655172415" height="8.620689655172415" fill="#0e372d"/>
        <rect x="86.20689655172414" y="163.79310344827587" width="8.620689655172415" height="8.620689655172415" fill="#0e372d"/>
        <rect x="103.44827586206898" y="163.79310344827587" width="8.620689655172415" height="8.620689655172415" fill="#0e372d"/>
        <rect x="112.0689655172414" y="163.79310344827587" width="8.620689655172415" height="8.620689655172415" fill="#0e372d"/>
        <rect x="120.68965517241381" y="163.79310344827587" width="8.620689655172415" height="8.620689655172415" fill="#0e372d"/>
        <rect x="129.31034482758622" y="163.79310344827587" width="8.620689655172415" height="8.620689655172415" fill="#0e372d"/>
        <rect x="137.93103448275863" y="163.79310344827587" width="8.620689655172415" height="8.620689655172415" fill="#0e372d"/>
        <rect x="172.41379310344828" y="163.79310344827587" width="8.620689655172415" height="8.620689655172415" fill="#0e372d"/>
        <rect x="181.0344827586207" y="163.79310344827587" width="8.620689655172415" height="8.620689655172415" fill="#0e372d"/>
        <rect x="189.6551724137931" y="163.79310344827587" width="8.620689655172415" height="8.620689655172415" fill="#0e372d"/>
        <rect x="206.89655172413796" y="163.79310344827587" width="8.620689655172415" height="8.620689655172415" fill="#0e372d"/>
        <rect x="215.51724137931038" y="163.79310344827587" width="8.620689655172415" height="8.620689655172415" fill="#0e372d"/>
        <rect x="224.1379310344828" y="163.79310344827587" width="8.620689655172415" height="8.620689655172415" fill="#0e372d"/>
        <rect x="232.7586206896552" y="163.79310344827587" width="8.620689655172415" height="8.620689655172415" fill="#0e372d"/>
        <rect x="241.37931034482762" y="163.79310344827587" width="8.620689655172415" height="8.620689655172415" fill="#0e372d"/>
        <rect x="250.00000000000003" y="163.79310344827587" width="8.620689655172415" height="8.620689655172415" fill="#0e372d"/>
        <rect x="258.62068965517244" y="163.79310344827587" width="8.620689655172415" height="8.620689655172415" fill="#0e372d"/>
        <rect x="0.0" y="172.41379310344828" width="8.620689655172415" height="8.620689655172415" fill="#0e372d"/>
        <rect x="8.620689655172415" y="172.41379310344828" width="8.620689655172415" height="8.620689655172415" fill="#0e372d"/>
        <rect x="25.862068965517246" y="172.41379310344828" width="8.620689655172415" height="8.620689655172415" fill="#0e372d"/>
        <rect x="34.48275862068966" y="172.41379310344828" width="8.620689655172415" height="8.620689655172415" fill="#0e372d"/>
        <rect x="43.10344827586207" y="172.41379310344828" width="8.620689655172415" height="8.620689655172415" fill="#0e372d"/>
        <rect x="51.72413793103449" y="172.41379310344828" width="8.620689655172415" height="8.620689655172415" fill="#0e372d"/>
        <rect x="60.344827586206904" y="172.41379310344828" width="8.620689655172415" height="8.620689655172415" fill="#0e372d"/>
        <rect x="86.20689655172414" y="172.41379310344828" width="8.620689655172415" height="8.620689655172415" fill="#0e372d"/>
        <rect x="94.82758620689656" y="172.41379310344828" width="8.620689655172415" height="8.620689655172415" fill="#0e372d"/>
        <rect x="103.44827586206898" y="172.41379310344828" width="8.620689655172415" height="8.620689655172415" fill="#0e372d"/>
        <rect x="129.31034482758622" y="172.41379310344828" width="8.620689655172415" height="8.620689655172415" fill="#0e372d"/>
        <rect x="146.55172413793105" y="172.41379310344828" width="8.620689655172415" height="8.620689655172415" fill="#0e372d"/>
        <rect x="155.17241379310346" y="172.41379310344828" width="8.620689655172415" height="8.620689655172415" fill="#0e372d"/>
        <rect x="163.79310344827587" y="172.41379310344828" width="8.620689655172415" height="8.620689655172415" fill="#0e372d"/>
        <rect x="172.41379310344828" y="172.41379310344828" width="8.620689655172415" height="8.620689655172415" fill="#0e372d"/>
        <rect x="206.89655172413796" y="172.41379310344828" width="8.620689655172415" height="8.620689655172415" fill="#0e372d"/>
        <rect x="241.37931034482762" y="172.41379310344828" width="8.620689655172415" height="8.620689655172415" fill="#0e372d"/>
        <rect x="250.00000000000003" y="172.41379310344828" width="8.620689655172415" height="8.620689655172415" fill="#0e372d"/>
        <rect x="267.2413793103448" y="172.41379310344828" width="8.620689655172415" height="8.620689655172415" fill="#0e372d"/>
        <rect x="0.0" y="181.0344827586207" width="8.620689655172415" height="8.620689655172415" fill="#0e372d"/>
        <rect x="8.620689655172415" y="181.0344827586207" width="8.620689655172415" height="8.620689655172415" fill="#0e372d"/>
        <rect x="25.862068965517246" y="181.0344827586207" width="8.620689655172415" height="8.620689655172415" fill="#0e372d"/>
        <rect x="34.48275862068966" y="181.0344827586207" width="8.620689655172415" height="8.620689655172415" fill="#0e372d"/>
        <rect x="43.10344827586207" y="181.0344827586207" width="8.620689655172415" height="8.620689655172415" fill="#0e372d"/>
        <rect x="86.20689655172414" y="181.0344827586207" width="8.620689655172415" height="8.620689655172415" fill="#0e372d"/>
        <rect x="112.0689655172414" y="181.0344827586207" width="8.620689655172415" height="8.620689655172415" fill="#0e372d"/>
        <rect x="120.68965517241381" y="181.0344827586207" width="8.620689655172415" height="8.620689655172415" fill="#0e372d"/>
        <rect x="129.31034482758622" y="181.0344827586207" width="8.620689655172415" height="8.620689655172415" fill="#0e372d"/>
        <rect x="146.55172413793105" y="181.0344827586207" width="8.620689655172415" height="8.620689655172415" fill="#0e372d"/>
        <rect x="163.79310344827587" y="181.0344827586207" width="8.620689655172415" height="8.620689655172415" fill="#0e372d"/>
        <rect x="189.6551724137931" y="181.0344827586207" width="8.620689655172415" height="8.620689655172415" fill="#0e372d"/>
        <rect x="198.27586206896552" y="181.0344827586207" width="8.620689655172415" height="8.620689655172415" fill="#0e372d"/>
        <rect x="224.1379310344828" y="181.0344827586207" width="8.620689655172415" height="8.620689655172415" fill="#0e372d"/>
        <rect x="232.7586206896552" y="181.0344827586207" width="8.620689655172415" height="8.620689655172415" fill="#0e372d"/>
        <rect x="250.00000000000003" y="181.0344827586207" width="8.620689655172415" height="8.620689655172415" fill="#0e372d"/>
        <rect x="258.62068965517244" y="181.0344827586207" width="8.620689655172415" height="8.620689655172415" fill="#0e372d"/>
        <rect x="275.86206896551727" y="181.0344827586207" width="8.620689655172415" height="8.620689655172415" fill="#0e372d"/>
        <rect x="0.0" y="189.6551724137931" width="8.620689655172415" height="8.620689655172415" fill="#0e372d"/>
        <rect x="25.862068965517246" y="189.6551724137931" width="8.620689655172415" height="8.620689655172415" fill="#0e372d"/>
        <rect x="43.10344827586207" y="189.6551724137931" width="8.620689655172415" height="8.620689655172415" fill="#0e372d"/>
        <rect x="51.72413793103449" y="189.6551724137931" width="8.620689655172415" height="8.620689655172415" fill="#0e372d"/>
        <rect x="60.344827586206904" y="189.6551724137931" width="8.620689655172415" height="8.620689655172415" fill="#0e372d"/>
        <rect x="77.58620689655173" y="189.6551724137931" width="8.620689655172415" height="8.620689655172415" fill="#0e372d"/>
        <rect x="86.20689655172414" y="189.6551724137931" width="8.620689655172415" height="8.620689655172415" fill="#0e372d"/>
        <rect x="112.0689655172414" y="189.6551724137931" width="8.620689655172415" height="8.620689655172415" fill="#0e372d"/>
        <rect x="129.31034482758622" y="189.6551724137931" width="8.620689655172415" height="8.620689655172415" fill="#0e372d"/>
        <rect x="137.93103448275863" y="189.6551724137931" width="8.620689655172415" height="8.620689655172415" fill="#0e372d"/>
        <rect x="155.17241379310346" y="189.6551724137931" width="8.620689655172415" height="8.620689655172415" fill="#0e372d"/>
        <rect x="189.6551724137931" y="189.6551724137931" width="8.620689655172415" height="8.620689655172415" fill="#0e372d"/>
        <rect x="232.7586206896552" y="189.6551724137931" width="8.620689655172415" height="8.620689655172415" fill="#0e372d"/>
        <rect x="258.62068965517244" y="189.6551724137931" width="8.620689655172415" height="8.620689655172415" fill="#0e372d"/>
        <rect x="267.2413793103448" y="189.6551724137931" width="8.620689655172415" height="8.620689655172415" fill="#0e372d"/>
        <rect x="0.0" y="198.27586206896552" width="8.620689655172415" height="8.620689655172415" fill="#0e372d"/>
        <rect x="25.862068965517246" y="198.27586206896552" width="8.620689655172415" height="8.620689655172415" fill="#0e372d"/>
        <rect x="34.48275862068966" y="198.27586206896552" width="8.620689655172415" height="8.620689655172415" fill="#0e372d"/>
        <rect x="60.344827586206904" y="198.27586206896552" width="8.620689655172415" height="8.620689655172415" fill="#0e372d"/>
        <rect x="68.96551724137932" y="198.27586206896552" width="8.620689655172415" height="8.620689655172415" fill="#0e372d"/>
        <rect x="137.93103448275863" y="198.27586206896552" width="8.620689655172415" height="8.620689655172415" fill="#0e372d"/>
        <rect x="155.17241379310346" y="198.27586206896552" width="8.620689655172415" height="8.620689655172415" fill="#0e372d"/>
        <rect x="181.0344827586207" y="198.27586206896552" width="8.620689655172415" height="8.620689655172415" fill="#0e372d"/>
        <rect x="206.89655172413796" y="198.27586206896552" width="8.620689655172415" height="8.620689655172415" fill="#0e372d"/>
        <rect x="215.51724137931038" y="198.27586206896552" width="8.620689655172415" height="8.620689655172415" fill="#0e372d"/>
        <rect x="224.1379310344828" y="198.27586206896552" width="8.620689655172415" height="8.620689655172415" fill="#0e372d"/>
        <rect x="232.7586206896552" y="198.27586206896552" width="8.620689655172415" height="8.620689655172415" fill="#0e372d"/>
        <rect x="241.37931034482762" y="198.27586206896552" width="8.620689655172415" height="8.620689655172415" fill="#0e372d"/>
        <rect x="258.62068965517244" y="198.27586206896552" width="8.620689655172415" height="8.620689655172415" fill="#0e372d"/>
        <rect x="275.86206896551727" y="198.27586206896552" width="8.620689655172415" height="8.620689655172415" fill="#0e372d"/>
        <rect x="0.0" y="206.89655172413796" width="8.620689655172415" height="8.620689655172415" fill="#0e372d"/>
        <rect x="17.24137931034483" y="206.89655172413796" width="8.620689655172415" height="8.620689655172415" fill="#0e372d"/>
        <rect x="51.72413793103449" y="206.89655172413796" width="8.620689655172415" height="8.620689655172415" fill="#0e372d"/>
        <rect x="60.344827586206904" y="206.89655172413796" width="8.620689655172415" height="8.620689655172415" fill="#0e372d"/>
        <rect x="68.96551724137932" y="206.89655172413796" width="8.620689655172415" height="8.620689655172415" fill="#0e372d"/>
        <rect x="77.58620689655173" y="206.89655172413796" width="8.620689655172415" height="8.620689655172415" fill="#0e372d"/>
        <rect x="86.20689655172414" y="206.89655172413796" width="8.620689655172415" height="8.620689655172415" fill="#0e372d"/>
        <rect x="112.0689655172414" y="206.89655172413796" width="8.620689655172415" height="8.620689655172415" fill="#0e372d"/>
        <rect x="120.68965517241381" y="206.89655172413796" width="8.620689655172415" height="8.620689655172415" fill="#0e372d"/>
        <rect x="129.31034482758622" y="206.89655172413796" width="8.620689655172415" height="8.620689655172415" fill="#0e372d"/>
        <rect x="137.93103448275863" y="206.89655172413796" width="8.620689655172415" height="8.620689655172415" fill="#0e372d"/>
        <rect x="146.55172413793105" y="206.89655172413796" width="8.620689655172415" height="8.620689655172415" fill="#0e372d"/>
        <rect x="163.79310344827587" y="206.89655172413796" width="8.620689655172415" height="8.620689655172415" fill="#0e372d"/>
        <rect x="189.6551724137931" y="206.89655172413796" width="8.620689655172415" height="8.620689655172415" fill="#0e372d"/>
        <rect x="206.89655172413796" y="206.89655172413796" width="8.620689655172415" height="8.620689655172415" fill="#0e372d"/>
        <rect x="215.51724137931038" y="206.89655172413796" width="8.620689655172415" height="8.620689655172415" fill="#0e372d"/>
        <rect x="224.1379310344828" y="206.89655172413796" width="8.620689655172415" height="8.620689655172415" fill="#0e372d"/>
        <rect x="232.7586206896552" y="206.89655172413796" width="8.620689655172415" height="8.620689655172415" fill="#0e372d"/>
        <rect x="241.37931034482762" y="206.89655172413796" width="8.620689655172415" height="8.620689655172415" fill="#0e372d"/>
        <rect x="275.86206896551727" y="206.89655172413796" width="8.620689655172415" height="8.620689655172415" fill="#0e372d"/>
        <rect x="68.96551724137932" y="215.51724137931038" width="8.620689655172415" height="8.620689655172415" fill="#0e372d"/>
        <rect x="103.44827586206898" y="215.51724137931038" width="8.620689655172415" height="8.620689655172415" fill="#0e372d"/>
        <rect x="112.0689655172414" y="215.51724137931038" width="8.620689655172415" height="8.620689655172415" fill="#0e372d"/>
        <rect x="155.17241379310346" y="215.51724137931038" width="8.620689655172415" height="8.620689655172415" fill="#0e372d"/>
        <rect x="163.79310344827587" y="215.51724137931038" width="8.620689655172415" height="8.620689655172415" fill="#0e372d"/>
        <rect x="172.41379310344828" y="215.51724137931038" width="8.620689655172415" height="8.620689655172415" fill="#0e372d"/>
        <rect x="181.0344827586207" y="215.51724137931038" width="8.620689655172415" height="8.620689655172415" fill="#0e372d"/>
        <rect x="206.89655172413796" y="215.51724137931038" width="8.620689655172415" height="8.620689655172415" fill="#0e372d"/>
        <rect x="241.37931034482762" y="215.51724137931038" width="8.620689655172415" height="8.620689655172415" fill="#0e372d"/>
        <rect x="258.62068965517244" y="215.51724137931038" width="8.620689655172415" height="8.620689655172415" fill="#0e372d"/>
        <rect x="275.86206896551727" y="215.51724137931038" width="8.620689655172415" height="8.620689655172415" fill="#0e372d"/>
        <rect x="0.0" y="224.1379310344828" width="8.620689655172415" height="8.620689655172415" fill="#0e372d"/>
        <rect x="8.620689655172415" y="224.1379310344828" width="8.620689655172415" height="8.620689655172415" fill="#0e372d"/>
        <rect x="17.24137931034483" y="224.1379310344828" width="8.620689655172415" height="8.620689655172415" fill="#0e372d"/>
        <rect x="25.862068965517246" y="224.1379310344828" width="8.620689655172415" height="8.620689655172415" fill="#0e372d"/>
        <rect x="34.48275862068966" y="224.1379310344828" width="8.620689655172415" height="8.620689655172415" fill="#0e372d"/>
        <rect x="43.10344827586207" y="224.1379310344828" width="8.620689655172415" height="8.620689655172415" fill="#0e372d"/>
        <rect x="51.72413793103449" y="224.1379310344828" width="8.620689655172415" height="8.620689655172415" fill="#0e372d"/>
        <rect x="77.58620689655173" y="224.1379310344828" width="8.620689655172415" height="8.620689655172415" fill="#0e372d"/>
        <rect x="86.20689655172414" y="224.1379310344828" width="8.620689655172415" height="8.620689655172415" fill="#0e372d"/>
        <rect x="94.82758620689656" y="224.1379310344828" width="8.620689655172415" height="8.620689655172415" fill="#0e372d"/>
        <rect x="112.0689655172414" y="224.1379310344828" width="8.620689655172415" height="8.620689655172415" fill="#0e372d"/>
        <rect x="129.31034482758622" y="224.1379310344828" width="8.620689655172415" height="8.620689655172415" fill="#0e372d"/>
        <rect x="137.93103448275863" y="224.1379310344828" width="8.620689655172415" height="8.620689655172415" fill="#0e372d"/>
        <rect x="146.55172413793105" y="224.1379310344828" width="8.620689655172415" height="8.620689655172415" fill="#0e372d"/>
        <rect x="155.17241379310346" y="224.1379310344828" width="8.620689655172415" height="8.620689655172415" fill="#0e372d"/>
        <rect x="172.41379310344828" y="224.1379310344828" width="8.620689655172415" height="8.620689655172415" fill="#0e372d"/>
        <rect x="198.27586206896552" y="224.1379310344828" width="8.620689655172415" height="8.620689655172415" fill="#0e372d"/>
        <rect x="206.89655172413796" y="224.1379310344828" width="8.620689655172415" height="8.620689655172415" fill="#0e372d"/>
        <rect x="224.1379310344828" y="224.1379310344828" width="8.620689655172415" height="8.620689655172415" fill="#0e372d"/>
        <rect x="241.37931034482762" y="224.1379310344828" width="8.620689655172415" height="8.620689655172415" fill="#0e372d"/>
        <rect x="258.62068965517244" y="224.1379310344828" width="8.620689655172415" height="8.620689655172415" fill="#0e372d"/>
        <rect x="267.2413793103448" y="224.1379310344828" width="8.620689655172415" height="8.620689655172415" fill="#0e372d"/>
        <rect x="0.0" y="232.7586206896552" width="8.620689655172415" height="8.620689655172415" fill="#0e372d"/>
        <rect x="51.72413793103449" y="232.7586206896552" width="8.620689655172415" height="8.620689655172415" fill="#0e372d"/>
        <rect x="68.96551724137932" y="232.7586206896552" width="8.620689655172415" height="8.620689655172415" fill="#0e372d"/>
        <rect x="112.0689655172414" y="232.7586206896552" width="8.620689655172415" height="8.620689655172415" fill="#0e372d"/>
        <rect x="120.68965517241381" y="232.7586206896552" width="8.620689655172415" height="8.620689655172415" fill="#0e372d"/>
        <rect x="129.31034482758622" y="232.7586206896552" width="8.620689655172415" height="8.620689655172415" fill="#0e372d"/>
        <rect x="155.17241379310346" y="232.7586206896552" width="8.620689655172415" height="8.620689655172415" fill="#0e372d"/>
        <rect x="163.79310344827587" y="232.7586206896552" width="8.620689655172415" height="8.620689655172415" fill="#0e372d"/>
        <rect x="172.41379310344828" y="232.7586206896552" width="8.620689655172415" height="8.620689655172415" fill="#0e372d"/>
        <rect x="181.0344827586207" y="232.7586206896552" width="8.620689655172415" height="8.620689655172415" fill="#0e372d"/>
        <rect x="198.27586206896552" y="232.7586206896552" width="8.620689655172415" height="8.620689655172415" fill="#0e372d"/>
        <rect x="206.89655172413796" y="232.7586206896552" width="8.620689655172415" height="8.620689655172415" fill="#0e372d"/>
        <rect x="241.37931034482762" y="232.7586206896552" width="8.620689655172415" height="8.620689655172415" fill="#0e372d"/>
        <rect x="250.00000000000003" y="232.7586206896552" width="8.620689655172415" height="8.620689655172415" fill="#0e372d"/>
        <rect x="258.62068965517244" y="232.7586206896552" width="8.620689655172415" height="8.620689655172415" fill="#0e372d"/>
        <rect x="267.2413793103448" y="232.7586206896552" width="8.620689655172415" height="8.620689655172415" fill="#0e372d"/>
        <rect x="0.0" y="241.37931034482762" width="8.620689655172415" height="8.620689655172415" fill="#0e372d"/>
        <rect x="17.24137931034483" y="241.37931034482762" width="8.620689655172415" height="8.620689655172415" fill="#0e372d"/>
        <rect x="25.862068965517246" y="241.37931034482762" width="8.620689655172415" height="8.620689655172415" fill="#0e372d"/>
        <rect x="34.48275862068966" y="241.37931034482762" width="8.620689655172415" height="8.620689655172415" fill="#0e372d"/>
        <rect x="51.72413793103449" y="241.37931034482762" width="8.620689655172415" height="8.620689655172415" fill="#0e372d"/>
        <rect x="68.96551724137932" y="241.37931034482762" width="8.620689655172415" height="8.620689655172415" fill="#0e372d"/>
        <rect x="86.20689655172414" y="241.37931034482762" width="8.620689655172415" height="8.620689655172415" fill="#0e372d"/>
        <rect x="103.44827586206898" y="241.37931034482762" width="8.620689655172415" height="8.620689655172415" fill="#0e372d"/>
        <rect x="112.0689655172414" y="241.37931034482762" width="8.620689655172415" height="8.620689655172415" fill="#0e372d"/>
        <rect x="120.68965517241381" y="241.37931034482762" width="8.620689655172415" height="8.620689655172415" fill="#0e372d"/>
        <rect x="137.93103448275863" y="241.37931034482762" width="8.620689655172415" height="8.620689655172415" fill="#0e372d"/>
        <rect x="146.55172413793105" y="241.37931034482762" width="8.620689655172415" height="8.620689655172415" fill="#0e372d"/>
        <rect x="155.17241379310346" y="241.37931034482762" width="8.620689655172415" height="8.620689655172415" fill="#0e372d"/>
        <rect x="163.79310344827587" y="241.37931034482762" width="8.620689655172415" height="8.620689655172415" fill="#0e372d"/>
        <rect x="172.41379310344828" y="241.37931034482762" width="8.620689655172415" height="8.620689655172415" fill="#0e372d"/>
        <rect x="189.6551724137931" y="241.37931034482762" width="8.620689655172415" height="8.620689655172415" fill="#0e372d"/>
        <rect x="206.89655172413796" y="241.37931034482762" width="8.620689655172415" height="8.620689655172415" fill="#0e372d"/>
        <rect x="215.51724137931038" y="241.37931034482762" width="8.620689655172415" height="8.620689655172415" fill="#0e372d"/>
        <rect x="224.1379310344828" y="241.37931034482762" width="8.620689655172415" height="8.620689655172415" fill="#0e372d"/>
        <rect x="232.7586206896552" y="241.37931034482762" width="8.620689655172415" height="8.620689655172415" fill="#0e372d"/>
        <rect x="241.37931034482762" y="241.37931034482762" width="8.620689655172415" height="8.620689655172415" fill="#0e372d"/>
        <rect x="250.00000000000003" y="241.37931034482762" width="8.620689655172415" height="8.620689655172415" fill="#0e372d"/>
        <rect x="267.2413793103448" y="241.37931034482762" width="8.620689655172415" height="8.620689655172415" fill="#0e372d"/>
        <rect x="275.86206896551727" y="241.37931034482762" width="8.620689655172415" height="8.620689655172415" fill="#0e372d"/>
        <rect x="0.0" y="250.00000000000003" width="8.620689655172415" height="8.620689655172415" fill="#0e372d"/>
        <rect x="17.24137931034483" y="250.00000000000003" width="8.620689655172415" height="8.620689655172415" fill="#0e372d"/>
        <rect x="25.862068965517246" y="250.00000000000003" width="8.620689655172415" height="8.620689655172415" fill="#0e372d"/>
        <rect x="34.48275862068966" y="250.00000000000003" width="8.620689655172415" height="8.620689655172415" fill="#0e372d"/>
        <rect x="51.72413793103449" y="250.00000000000003" width="8.620689655172415" height="8.620689655172415" fill="#0e372d"/>
        <rect x="68.96551724137932" y="250.00000000000003" width="8.620689655172415" height="8.620689655172415" fill="#0e372d"/>
        <rect x="163.79310344827587" y="250.00000000000003" width="8.620689655172415" height="8.620689655172415" fill="#0e372d"/>
        <rect x="181.0344827586207" y="250.00000000000003" width="8.620689655172415" height="8.620689655172415" fill="#0e372d"/>
        <rect x="206.89655172413796" y="250.00000000000003" width="8.620689655172415" height="8.620689655172415" fill="#0e372d"/>
        <rect x="215.51724137931038" y="250.00000000000003" width="8.620689655172415" height="8.620689655172415" fill="#0e372d"/>
        <rect x="241.37931034482762" y="250.00000000000003" width="8.620689655172415" height="8.620689655172415" fill="#0e372d"/>
        <rect x="250.00000000000003" y="250.00000000000003" width="8.620689655172415" height="8.620689655172415" fill="#0e372d"/>
        <rect x="267.2413793103448" y="250.00000000000003" width="8.620689655172415" height="8.620689655172415" fill="#0e372d"/>
        <rect x="275.86206896551727" y="250.00000000000003" width="8.620689655172415" height="8.620689655172415" fill="#0e372d"/>
        <rect x="0.0" y="258.62068965517244" width="8.620689655172415" height="8.620689655172415" fill="#0e372d"/>
        <rect x="17.24137931034483" y="258.62068965517244" width="8.620689655172415" height="8.620689655172415" fill="#0e372d"/>
        <rect x="25.862068965517246" y="258.62068965517244" width="8.620689655172415" height="8.620689655172415" fill="#0e372d"/>
        <rect x="34.48275862068966" y="258.62068965517244" width="8.620689655172415" height="8.620689655172415" fill="#0e372d"/>
        <rect x="51.72413793103449" y="258.62068965517244" width="8.620689655172415" height="8.620689655172415" fill="#0e372d"/>
        <rect x="68.96551724137932" y="258.62068965517244" width="8.620689655172415" height="8.620689655172415" fill="#0e372d"/>
        <rect x="77.58620689655173" y="258.62068965517244" width="8.620689655172415" height="8.620689655172415" fill="#0e372d"/>
        <rect x="86.20689655172414" y="258.62068965517244" width="8.620689655172415" height="8.620689655172415" fill="#0e372d"/>
        <rect x="94.82758620689656" y="258.62068965517244" width="8.620689655172415" height="8.620689655172415" fill="#0e372d"/>
        <rect x="103.44827586206898" y="258.62068965517244" width="8.620689655172415" height="8.620689655172415" fill="#0e372d"/>
        <rect x="120.68965517241381" y="258.62068965517244" width="8.620689655172415" height="8.620689655172415" fill="#0e372d"/>
        <rect x="129.31034482758622" y="258.62068965517244" width="8.620689655172415" height="8.620689655172415" fill="#0e372d"/>
        <rect x="146.55172413793105" y="258.62068965517244" width="8.620689655172415" height="8.620689655172415" fill="#0e372d"/>
        <rect x="155.17241379310346" y="258.62068965517244" width="8.620689655172415" height="8.620689655172415" fill="#0e372d"/>
        <rect x="172.41379310344828" y="258.62068965517244" width="8.620689655172415" height="8.620689655172415" fill="#0e372d"/>
        <rect x="224.1379310344828" y="258.62068965517244" width="8.620689655172415" height="8.620689655172415" fill="#0e372d"/>
        <rect x="232.7586206896552" y="258.62068965517244" width="8.620689655172415" height="8.620689655172415" fill="#0e372d"/>
        <rect x="250.00000000000003" y="258.62068965517244" width="8.620689655172415" height="8.620689655172415" fill="#0e372d"/>
        <rect x="258.62068965517244" y="258.62068965517244" width="8.620689655172415" height="8.620689655172415" fill="#0e372d"/>
        <rect x="0.0" y="267.2413793103448" width="8.620689655172415" height="8.620689655172415" fill="#0e372d"/>
        <rect x="51.72413793103449" y="267.2413793103448" width="8.620689655172415" height="8.620689655172415" fill="#0e372d"/>
        <rect x="94.82758620689656" y="267.2413793103448" width="8.620689655172415" height="8.620689655172415" fill="#0e372d"/>
        <rect x="120.68965517241381" y="267.2413793103448" width="8.620689655172415" height="8.620689655172415" fill="#0e372d"/>
        <rect x="129.31034482758622" y="267.2413793103448" width="8.620689655172415" height="8.620689655172415" fill="#0e372d"/>
        <rect x="137.93103448275863" y="267.2413793103448" width="8.620689655172415" height="8.620689655172415" fill="#0e372d"/>
        <rect x="163.79310344827587" y="267.2413793103448" width="8.620689655172415" height="8.620689655172415" fill="#0e372d"/>
        <rect x="181.0344827586207" y="267.2413793103448" width="8.620689655172415" height="8.620689655172415" fill="#0e372d"/>
        <rect x="189.6551724137931" y="267.2413793103448" width="8.620689655172415" height="8.620689655172415" fill="#0e372d"/>
        <rect x="215.51724137931038" y="267.2413793103448" width="8.620689655172415" height="8.620689655172415" fill="#0e372d"/>
        <rect x="224.1379310344828" y="267.2413793103448" width="8.620689655172415" height="8.620689655172415" fill="#0e372d"/>
        <rect x="241.37931034482762" y="267.2413793103448" width="8.620689655172415" height="8.620689655172415" fill="#0e372d"/>
        <rect x="258.62068965517244" y="267.2413793103448" width="8.620689655172415" height="8.620689655172415" fill="#0e372d"/>
        <rect x="0.0" y="275.86206896551727" width="8.620689655172415" height="8.620689655172415" fill="#0e372d"/>
        <rect x="8.620689655172415" y="275.86206896551727" width="8.620689655172415" height="8.620689655172415" fill="#0e372d"/>
        <rect x="17.24137931034483" y="275.86206896551727" width="8.620689655172415" height="8.620689655172415" fill="#0e372d"/>
        <rect x="25.862068965517246" y="275.86206896551727" width="8.620689655172415" height="8.620689655172415" fill="#0e372d"/>
        <rect x="34.48275862068966" y="275.86206896551727" width="8.620689655172415" height="8.620689655172415" fill="#0e372d"/>
        <rect x="43.10344827586207" y="275.86206896551727" width="8.620689655172415" height="8.620689655172415" fill="#0e372d"/>
        <rect x="51.72413793103449" y="275.86206896551727" width="8.620689655172415" height="8.620689655172415" fill="#0e372d"/>
        <rect x="68.96551724137932" y="275.86206896551727" width="8.620689655172415" height="8.620689655172415" fill="#0e372d"/>
        <rect x="94.82758620689656" y="275.86206896551727" width="8.620689655172415" height="8.620689655172415" fill="#0e372d"/>
        <rect x="103.44827586206898" y="275.86206896551727" width="8.620689655172415" height="8.620689655172415" fill="#0e372d"/>
        <rect x="112.0689655172414" y="275.86206896551727" width="8.620689655172415" height="8.620689655172415" fill="#0e372d"/>
        <rect x="129.31034482758622" y="275.86206896551727" width="8.620689655172415" height="8.620689655172415" fill="#0e372d"/>
        <rect x="137.93103448275863" y="275.86206896551727" width="8.620689655172415" height="8.620689655172415" fill="#0e372d"/>
        <rect x="146.55172413793105" y="275.86206896551727" width="8.620689655172415" height="8.620689655172415" fill="#0e372d"/>
        <rect x="155.17241379310346" y="275.86206896551727" width="8.620689655172415" height="8.620689655172415" fill="#0e372d"/>
        <rect x="189.6551724137931" y="275.86206896551727" width="8.620689655172415" height="8.620689655172415" fill="#0e372d"/>
        <rect x="198.27586206896552" y="275.86206896551727" width="8.620689655172415" height="8.620689655172415" fill="#0e372d"/>
        <rect x="206.89655172413796" y="275.86206896551727" width="8.620689655172415" height="8.620689655172415" fill="#0e372d"/>
        <rect x="215.51724137931038" y="275.86206896551727" width="8.620689655172415" height="8.620689655172415" fill="#0e372d"/>
        <rect x="232.7586206896552" y="275.86206896551727" width="8.620689655172415" height="8.620689655172415" fill="#0e372d"/>
        <rect x="250.00000000000003" y="275.86206896551727" width="8.620689655172415" height="8.620689655172415" fill="#0e372d"/>
        <rect x="267.2413793103448" y="275.86206896551727" width="8.620689655172415" height="8.620689655172415" fill="#0e372d"/>
      </g>
    </svg>
    <circle cx="138.51" cy="150.685" r="105.389" stroke="#16B054" stroke-width="16.795"/>
    <path d="M203.59 56.6332C189.01 46.7357 179.811 50.9425 177.382 47.6643C173.408 47.3827 173.805 48.9282 176.182 51.4395C179.154 54.5786 184.994 60.45 196.945 66.4885C208.897 72.527 203.957 80.2278 220.723 74.6965C225.971 72.9649 228.688 71.4473 229.644 70.0692C214.507 65.0307 210.342 61.2164 203.59 56.6332Z" fill="#16B054"/>
    <path d="M219.546 70.075C204.965 60.1775 195.767 64.3843 193.337 61.1062C189.364 60.8245 189.76 62.37 192.137 64.8813C195.11 68.0204 200.95 73.8919 212.901 79.9303C224.852 85.9688 219.912 93.6696 236.678 88.1383C241.926 86.4067 244.643 84.8891 245.599 83.5111C230.462 78.4726 226.297 74.6582 219.546 70.075Z" fill="#16B054"/>
    <path d="M231.01 86.0192C218.399 73.7109 208.603 76.2338 206.788 72.5793C202.926 71.603 203.045 73.1941 204.943 76.0846C207.317 79.6976 212.033 86.5049 222.735 94.5517C233.437 102.599 227.22 109.31 244.697 106.815C250.169 106.034 253.11 105.018 254.293 103.829C240.279 96.2063 236.85 91.7187 231.01 86.0192Z" fill="#16B054"/>
    <path d="M244.316 104.806C235.913 89.3158 225.81 88.8261 225.158 84.7981C221.758 82.7224 221.4 84.2771 222.358 87.6001C223.556 91.7538 226.045 99.652 233.886 110.506C241.727 121.36 233.801 125.931 251.234 128.721C256.691 129.594 259.802 129.494 261.284 128.71C250.154 117.28 248.207 111.979 244.316 104.806Z" fill="#16B054"/>
    <path d="M251.436 128.887C244.523 112.677 234.511 111.241 234.24 107.17C231.05 104.784 230.547 106.299 231.189 109.697C231.992 113.944 233.729 122.041 240.517 133.583C247.305 145.125 238.986 148.932 256.08 153.345C261.431 154.727 264.537 154.919 266.086 154.277C256.078 141.854 254.637 136.393 251.436 128.887Z" fill="#16B054"/>
    <path d="M253.573 153.005C247.765 136.367 244.174 134.114 244.177 130.033C241.154 127.439 240.551 128.916 240.964 132.349C241.479 136.642 236.366 144.985 242.363 156.957C248.359 168.929 239.802 172.168 256.561 177.721C261.808 179.459 264.893 179.86 266.482 179.323C257.332 166.255 256.262 160.71 253.573 153.005Z" fill="#16B054"/>
    <path d="M253.728 177.577C254.337 159.966 251.805 156.565 253.285 152.762C251.407 149.25 250.31 150.408 249.451 153.758C248.377 157.946 240.591 163.872 241.847 177.203C243.103 190.534 233.954 190.456 247.566 201.699C251.828 205.218 254.559 206.709 256.235 206.784C252.436 191.29 253.445 185.733 253.728 177.577Z" fill="#16B054"/>
    <path d="M245.039 199.321C249.31 182.224 247.543 178.37 249.784 174.96C248.68 171.133 247.365 172.037 245.827 175.134C243.903 179.005 235.052 183.177 233.499 196.477C231.945 209.776 223.014 207.791 233.981 221.626C237.414 225.957 239.775 227.985 241.398 228.408C240.915 212.462 243.062 207.238 245.039 199.321Z" fill="#16B054"/>
    <path d="M232.824 222.052C242.308 207.199 241.857 202.983 245.066 200.462C245.235 196.483 243.702 196.922 241.258 199.37C238.204 202.429 228.486 203.571 222.786 215.687C217.086 227.804 209.25 223.082 215.25 239.686C217.129 244.884 218.722 247.557 220.127 248.473C224.737 233.201 228.433 228.93 232.824 222.052Z" fill="#16B054"/>
    <path d="M212.33 241.859C224.242 228.872 224.529 224.642 228.125 222.715C228.982 218.825 227.395 218.992 224.565 220.979C221.027 223.463 211.258 222.905 203.546 233.851C195.833 244.797 188.933 238.79 191.967 256.182C192.917 261.627 194.024 264.535 195.248 265.681C202.434 251.438 206.814 247.872 212.33 241.859Z" fill="#16B054"/>
    <path d="M190.994 52.4343C176.413 42.5368 167.215 46.7436 164.785 43.4655C160.812 43.1838 161.208 44.7293 163.586 47.2406C166.558 50.3797 172.398 56.2512 184.349 62.2897C196.3 68.3281 191.36 76.029 208.126 70.4976C213.375 68.766 216.091 67.2484 217.047 65.8704C201.911 60.8319 197.746 57.0176 190.994 52.4343Z" fill="#16B054"/>
    <path d="M206.949 65.8761C192.369 55.9786 183.17 60.1854 180.74 56.9073C176.767 56.6256 177.163 58.1711 179.541 60.6824C182.513 63.8215 188.353 69.6929 200.304 75.7314C212.255 81.7699 207.315 89.4707 224.081 83.9394C229.33 82.2078 232.046 80.6902 233.002 79.3121C217.866 74.2736 213.701 70.4593 206.949 65.8761Z" fill="#16B054"/>
    <path d="M215.894 80.9805C203.283 68.6722 193.487 71.1951 191.672 67.5406C187.81 66.5643 185.601 72.6095 187.5 75.4999C189.873 79.113 189.881 82.9869 202.5 88.9999C214.588 94.7598 211.418 104.5 232 104.5C237.527 104.5 237.994 99.9788 239.178 98.7904C225.164 91.1676 221.735 86.68 215.894 80.9805Z" fill="#16B054"/>
    <path d="M61.6675 80.9805C74.2793 68.6723 84.0745 71.1952 85.8897 67.5407C89.7515 66.5644 91.9608 72.6096 90.0621 75.5C87.6886 79.113 87.6812 82.9869 75.062 89C62.9741 94.7599 66.1436 104.5 45.562 104.5C40.0352 104.5 39.5679 99.9789 38.3844 98.7905C52.3984 91.1676 55.8274 86.6801 61.6675 80.9805Z" fill="#16B054"/>
    <path d="M231.719 100.607C223.316 85.1168 213.213 84.6271 212.561 80.5991C209.161 78.5234 208.803 80.0782 209.761 83.4011C210.959 87.5548 213.448 95.453 221.289 106.307C229.13 117.161 221.204 121.732 238.637 124.522C244.095 125.395 247.205 125.295 248.687 124.511C237.558 113.081 235.611 107.78 231.719 100.607Z" fill="#16B054"/>
    <path d="M238.84 124.688C231.927 108.478 221.914 107.042 221.643 102.971C218.453 100.585 217.951 102.1 218.593 105.498C219.395 109.746 221.133 117.843 227.921 129.385C234.709 140.927 226.389 144.733 243.483 149.147C248.835 150.528 251.94 150.72 253.49 150.078C243.482 137.655 242.041 132.194 238.84 124.688Z" fill="#16B054"/>
    <path d="M240.976 148.806C235.169 132.168 231.577 129.915 231.58 125.834C228.558 123.24 227.955 124.717 228.367 128.15C228.882 132.443 223.769 140.786 229.766 152.758C235.762 164.73 227.206 167.969 243.964 173.522C249.211 175.26 252.297 175.661 253.886 175.124C244.736 162.056 243.665 156.511 240.976 148.806Z" fill="#16B054"/>
    <path d="M241.131 173.379C241.741 155.767 239.208 152.366 240.688 148.564C238.81 145.051 237.713 146.21 236.854 149.56C235.781 153.747 227.995 159.674 229.251 173.005C230.506 186.336 221.358 186.257 234.97 197.5C239.231 201.02 241.963 202.51 243.638 202.585C239.839 187.091 240.849 181.534 241.131 173.379Z" fill="#16B054"/>
    <path d="M232.443 195.122C236.714 178.025 234.947 174.171 237.187 170.761C236.083 166.934 234.769 167.838 233.23 170.935C231.307 174.806 222.455 178.978 220.902 192.278C219.349 205.577 210.418 203.592 221.385 217.427C224.818 221.758 227.178 223.786 228.801 224.209C228.319 208.263 230.465 203.039 232.443 195.122Z" fill="#16B054"/>
    <path d="M220.228 217.854C229.711 203.001 229.261 198.785 232.469 196.264C232.639 192.284 231.105 192.723 228.662 195.171C225.607 198.23 215.889 199.372 210.189 211.489C204.49 223.605 196.653 218.884 202.654 235.487C204.532 240.685 206.126 243.358 207.53 244.275C212.141 229.002 215.836 224.732 220.228 217.854Z" fill="#16B054"/>
    <path d="M191.414 244.83C203.327 231.844 203.613 227.613 207.21 225.686C208.066 221.796 206.48 221.963 203.649 223.951C200.111 226.435 190.342 225.876 182.63 236.822C174.918 247.768 168.017 241.761 171.052 259.153C172.002 264.598 173.108 267.506 174.332 268.652C181.519 254.409 185.898 250.843 191.414 244.83Z" fill="#16B054"/>
    <path d="M171.776 252.313C185.89 241.761 186.956 237.658 190.848 236.431C192.411 232.767 190.821 232.637 187.671 234.065C183.734 235.85 174.238 233.489 164.629 242.815C155.021 252.141 149.354 244.958 149.11 262.611C149.034 268.137 149.581 271.2 150.572 272.554C160.275 259.891 165.24 257.199 171.776 252.313Z" fill="#16B054"/>
    <path d="M107.467 253.992C93.353 243.44 92.287 239.337 88.3953 238.11C86.8322 234.446 88.4224 234.316 91.5722 235.744C95.5094 237.529 105.006 235.168 114.614 244.494C124.223 253.82 129.889 246.637 130.133 264.29C130.21 269.816 129.662 272.88 128.671 274.233C118.968 261.57 114.003 258.878 107.467 253.992Z" fill="#16B054"/>
    <path d="M135.923 254.079C118.301 254.151 114.979 251.517 111.133 252.88C107.679 250.896 108.871 249.835 112.246 249.078C116.464 248.133 122.625 240.531 135.911 242.192C149.198 243.854 154.885 238.439 165.04 249.078C168.856 253.076 165.016 255.797 165.04 257.474C149.669 253.205 144.084 254.045 135.923 254.079Z" fill="#16B054"/>
    <path d="M85.6069 52.4343C100.187 42.5368 109.386 46.7436 111.816 43.4655C115.789 43.1838 115.393 44.7293 113.015 47.2406C110.043 50.3797 104.203 56.2512 92.2519 62.2897C80.3008 68.3281 85.2406 76.029 68.4747 70.4976C63.2262 68.766 60.5096 67.2484 59.5536 65.8704C74.6901 60.8319 78.8551 57.0176 85.6069 52.4343Z" fill="#16B054"/>
    <path d="M69.6515 65.8761C84.232 55.9786 93.4305 60.1854 95.8603 56.9073C99.8337 56.6256 99.4374 58.1711 97.0598 60.6824C94.0877 63.8215 88.2477 69.6929 76.2966 75.7314C64.3455 81.7699 69.2853 89.4707 52.5194 83.9394C47.2708 82.2078 44.5542 80.6902 43.5983 79.3121C58.7348 74.2736 62.8998 70.4593 69.6515 65.8761Z" fill="#16B054"/>
    <path d="M44.8812 100.607C53.2844 85.1168 63.3874 84.6272 64.0395 80.5991C67.4392 78.5235 67.7974 80.0782 66.8393 83.4012C65.6416 87.5549 63.1522 95.453 55.3114 106.307C47.4706 117.162 55.3962 121.732 37.9633 124.522C32.5059 125.395 29.3958 125.295 27.9135 124.511C39.043 113.081 40.99 107.78 44.8812 100.607Z" fill="#16B054"/>
    <path d="M37.761 124.688C44.6738 108.478 54.6863 107.042 54.9575 102.971C58.1475 100.585 58.65 102.1 58.0078 105.498C57.2052 109.746 55.4677 117.843 48.6799 129.385C41.8921 140.927 50.2116 144.733 33.1173 149.147C27.766 150.528 24.6602 150.72 23.1108 150.078C33.1189 137.655 34.5599 132.194 37.761 124.688Z" fill="#16B054"/>
    <path d="M35.6248 148.806C41.432 132.168 45.0236 129.915 45.0205 125.834C48.0429 123.24 48.646 124.717 48.2338 128.15C47.7186 132.443 52.8312 140.786 46.8348 152.758C40.8384 164.73 49.395 167.969 32.6362 173.522C27.3898 175.26 24.304 175.661 22.715 175.124C31.8651 162.056 32.9356 156.511 35.6248 148.806Z" fill="#16B054"/>
    <path d="M35.4698 173.379C34.8602 155.767 37.3925 152.366 35.9125 148.564C37.7907 145.051 38.8876 146.21 39.7464 149.56C40.8198 153.747 48.6059 159.674 47.3502 173.005C46.0944 186.336 55.2431 186.257 41.6309 197.5C37.3696 201.02 34.6381 202.51 32.9626 202.585C36.7615 187.091 35.752 181.534 35.4698 173.379Z" fill="#16B054"/>
    <path d="M44.158 195.122C39.8872 178.025 41.6543 174.171 39.4135 170.761C40.5174 166.934 41.8319 167.838 43.3708 170.935C45.2943 174.806 54.1456 178.978 55.6989 192.278C57.2522 205.577 66.1831 203.592 55.2162 217.427C51.783 221.758 49.4227 223.786 47.7997 224.209C48.2822 208.263 46.1356 203.039 44.158 195.122Z" fill="#16B054"/>
    <path d="M56.3729 217.854C46.8895 203.001 47.3401 198.785 44.1316 196.264C43.9619 192.284 45.4956 192.723 47.939 195.171C50.9932 198.23 60.7114 199.372 66.4112 211.489C72.111 223.605 79.9478 218.884 73.9469 235.487C72.0683 240.685 70.4749 243.358 69.0705 244.275C64.4599 229.002 60.7643 224.732 56.3729 217.854Z" fill="#16B054"/>
    <path d="M85.1865 244.83C73.2739 231.844 72.9875 227.613 69.3909 225.686C68.5344 221.796 70.1211 221.963 72.9514 223.951C76.4894 226.435 86.2585 225.876 93.9707 236.822C101.683 247.768 108.584 241.761 105.549 259.153C104.599 264.598 103.493 267.506 102.268 268.652C95.0822 254.409 90.7028 250.843 85.1865 244.83Z" fill="#16B054"/>
    <path d="M73.0106 56.6332C87.591 46.7357 96.7896 50.9425 99.2194 47.6643C103.193 47.3827 102.796 48.9282 100.419 51.4395C97.4467 54.5786 91.6067 60.45 79.6556 66.4885C67.7045 72.527 72.6443 80.2278 55.8784 74.6965C50.6298 72.9649 47.9133 71.4473 46.9573 70.0692C62.0938 65.0307 66.2588 61.2164 73.0106 56.6332Z" fill="#16B054"/>
    <path d="M57.0552 70.075C71.6357 60.1775 80.8342 64.3843 83.264 61.1062C87.2374 60.8245 86.8411 62.37 84.4635 64.8813C81.4914 68.0204 75.6514 73.8919 63.7003 79.9303C51.7492 85.9688 56.689 93.6696 39.9231 88.1383C34.6745 86.4067 31.9579 84.8891 31.0019 83.5111C46.1385 78.4726 50.3035 74.6582 57.0552 70.075Z" fill="#16B054"/>
    <path d="M45.5907 86.0192C58.2025 73.7109 67.9977 76.2338 69.8129 72.5793C73.6747 71.603 73.5565 73.1941 71.6578 76.0846C69.2843 79.6976 64.5684 86.5049 53.866 94.5517C43.1636 102.599 49.3811 109.31 31.9036 106.815C26.4323 106.034 23.4911 105.018 22.3076 103.829C36.3216 96.2063 39.7506 91.7187 45.5907 86.0192Z" fill="#16B054"/>
    <path d="M32.2849 104.806C40.6881 89.3158 50.7911 88.8261 51.4432 84.7981C54.8429 82.7224 55.201 84.2771 54.2429 87.6001C53.0453 91.7538 50.5558 99.652 42.7151 110.506C34.8743 121.36 42.7999 125.931 25.367 128.721C19.9096 129.594 16.7995 129.494 15.3172 128.71C26.4467 117.28 28.3937 111.979 32.2849 104.806Z" fill="#16B054"/>
    <path d="M25.1647 128.887C32.0775 112.677 42.09 111.241 42.3613 107.17C45.5513 104.784 46.0537 106.299 45.4116 109.697C44.609 113.944 42.8715 122.041 36.0837 133.583C29.2958 145.125 37.6153 148.932 20.521 153.345C15.1697 154.727 12.0639 154.919 10.5146 154.277C20.5226 141.854 21.9636 136.393 25.1647 128.887Z" fill="#16B054"/>
    <path d="M23.0284 153.005C28.8357 136.367 32.4273 134.114 32.4242 130.033C35.4465 127.439 36.0497 128.916 35.6375 132.349C35.1223 136.642 40.2349 144.985 34.2385 156.957C28.2421 168.929 36.7987 172.168 20.0399 177.721C14.7935 179.459 11.7077 179.86 10.1187 179.323C19.2687 166.255 20.3393 160.71 23.0284 153.005Z" fill="#16B054"/>
    <path d="M22.8736 177.577C22.264 159.966 24.7963 156.565 23.3163 152.762C25.1945 149.25 26.2914 150.408 27.1502 153.758C28.2236 157.946 36.0097 163.872 34.754 177.203C33.4982 190.534 42.6469 190.456 29.0347 201.699C24.7734 205.218 22.0419 206.709 20.3664 206.784C24.1653 191.29 23.1559 185.733 22.8736 177.577Z" fill="#16B054"/>
    <path d="M31.5617 199.321C27.2909 182.224 29.058 178.37 26.8172 174.96C27.9211 171.133 29.2356 172.037 30.7744 175.134C32.698 179.005 41.5493 183.177 43.1026 196.477C44.6559 209.776 53.5868 207.791 42.6199 221.626C39.1867 225.957 36.8264 227.985 35.2034 228.408C35.6859 212.462 33.5393 207.238 31.5617 199.321Z" fill="#16B054"/>
    <path d="M43.7765 222.052C34.2932 207.199 34.7438 202.983 31.5353 200.462C31.3656 196.483 32.8993 196.922 35.3427 199.37C38.3969 202.429 48.1151 203.571 53.8149 215.687C59.5147 227.804 67.3515 223.082 61.3506 239.686C59.472 244.884 57.8786 247.557 56.4742 248.473C51.8636 233.201 48.168 228.93 43.7765 222.052Z" fill="#16B054"/>
    <path d="M64.2712 241.859C52.3587 228.872 52.0723 224.642 48.4756 222.715C47.6192 218.825 49.2059 218.992 52.0362 220.979C55.5741 223.463 65.3433 222.905 73.0555 233.851C80.7677 244.797 87.6683 238.79 84.6338 256.182C83.6839 261.627 82.5774 264.535 81.353 265.681C74.167 251.438 69.7876 247.872 64.2712 241.859Z" fill="#16B054"/>
    <path d="M101.814 21.4398C104 20.725 140.71 23.1888 141.559 24.5182C142.409 25.8476 142.921 79.1205 142.921 79.1205C142.921 79.1205 103.666 72.7646 103.067 71.6655C102.781 71.1399 102.016 64.3516 101.27 52.112C100.498 39.4583 100.674 21.8128 101.814 21.4398Z" fill="#FF5130"/>
    <path d="M175.393 19.6878C174.161 19.385 154.851 22.658 141.48 24.6198C142.043 45.9036 142.358 57.8365 142.921 79.1203C142.921 79.1203 175.341 70.4416 175.979 69.8484C176.618 69.2552 177.32 52.909 177.144 45.8251C176.967 38.7411 176.625 19.9907 175.393 19.6878Z" fill="#FF7B62"/>
    <path d="M113.796 21.8879L124.779 22.7992L125.725 76.2593L114.721 74.4708L113.796 21.8879Z" fill="url(#paint0_linear_2087_157320)"/>
    <path d="M154.735 22.6231L164.494 21.2109L165.787 73.044L156.057 75.6242L154.735 22.6231Z" fill="#FFCC5E"/>
    <path d="M135.7 18.0926L175.72 19.7049L141.756 25.8635L101.813 21.4033L135.7 18.0926Z" fill="#FF9085"/>
    <path d="M151.143 18.5873L160.769 19.1355L125.143 24.1102L113.928 22.8055L151.143 18.5873Z" fill="#FFC444"/>
    <path d="M125.508 19.0975L117.284 19.8864L154.921 23.534L164.509 21.7939L125.508 19.0975Z" fill="#FFC444"/>
    <path d="M132.138 21.4185C138.37 24.0251 142.066 23.9868 143.814 18.979C151.963 14.1159 149.868 9.77061 148.446 7.46497C144.205 4.06377 143.688 3.89079 137.057 10.0123C127.61 9.51217 128.7 19.9804 132.138 21.4185ZM147.047 11.0395C148.375 12.971 144.012 12.7577 140.383 15.544C136.753 18.3303 134.775 22.131 134.127 20.0323C134.208 17.4045 136.753 18.3303 140.383 15.544C144.012 12.7577 145.719 9.10801 147.047 11.0395Z" fill="#DF952A"/>
    <path d="M150.751 18.6921C149.138 22.5336 141.633 26.0494 137.763 18.7069C128.189 20.2042 127.032 12.6721 128.645 8.83057C131.377 3.95258 137.44 3.6203 141.94 10.4244C153.038 8.37001 151.94 15.8603 150.751 18.6921ZM134.997 10.8002C134.008 13.1544 136.183 12.7138 139.979 14.5312C143.774 16.3487 145.189 19.0491 146.177 16.695C147.166 14.3408 144.143 15.6295 140.347 13.812C136.552 11.9946 135.986 8.44606 134.997 10.8002Z" fill="url(#paint1_linear_2087_157320)"/>
    <path d="M130.524 20.0003C130.592 17.505 137.925 5.32627 140.502 3.21074C143.842 3.30204 149.339 7.01245 149.301 8.42401C149.094 15.9854 142.541 21.3717 139.077 23.774C137.277 25.0221 130.484 21.4747 130.524 20.0003Z" fill="url(#paint2_linear_2087_157320)"/>
    <path d="M67.0341 44.5297C68.3525 44.0986 90.4927 45.5846 91.005 46.3863C91.5173 47.1881 91.8264 79.3179 91.8264 79.3179C91.8264 79.3179 68.1508 75.4846 67.7897 74.8217C67.617 74.5046 67.1558 70.4105 66.7058 63.0286C66.2405 55.397 66.3462 44.7547 67.0341 44.5297Z" fill="#FF5130"/>
    <path d="M111.411 43.4733C110.668 43.2906 99.0214 45.2646 90.9573 46.4478C91.2968 59.2844 91.487 66.4814 91.8264 79.318C91.8264 79.318 111.38 74.0837 111.765 73.7259C112.149 73.3682 112.573 63.5095 112.467 59.2371C112.36 54.9646 112.154 43.6559 111.411 43.4733Z" fill="#FF7B62"/>
    <path d="M74.2608 44.8001L80.8844 45.3497L81.4553 77.5924L74.8185 76.5137L74.2608 44.8001Z" fill="url(#paint3_linear_2087_157320)"/>
    <path d="M98.9513 45.2435L104.837 44.3917L105.617 75.6531L99.7487 77.2094L98.9513 45.2435Z" fill="#FFCC5E"/>
    <path d="M87.4715 42.511L111.608 43.4834L91.1237 47.1978L67.0336 44.5077L87.4715 42.511Z" fill="#FF9085"/>
    <path d="M96.7853 42.8093L102.591 43.1399L81.1043 46.1402L74.3404 45.3534L96.7853 42.8093Z" fill="#FFC444"/>
    <path d="M81.3242 43.1171L76.3641 43.5929L99.0636 45.7928L104.846 44.7433L81.3242 43.1171Z" fill="#FFC444"/>
    <path d="M85.3232 44.5171C89.0814 46.0892 91.311 46.0661 92.3652 43.0458C97.2796 40.1128 96.0165 37.4921 95.1584 36.1015C92.6006 34.0502 92.2892 33.9458 88.2899 37.6378C82.592 37.3362 83.2498 43.6498 85.3232 44.5171ZM94.3147 38.2574C95.1158 39.4223 92.4842 39.2936 90.2954 40.9741C88.1066 42.6545 86.9136 44.9468 86.5224 43.6811C86.5713 42.0962 88.1066 42.6545 90.2954 40.9741C92.4842 39.2936 93.5137 37.0924 94.3147 38.2574Z" fill="#DF952A"/>
    <path d="M96.5487 42.8727C95.5757 45.1896 91.0497 47.31 88.7152 42.8816C82.9414 43.7846 82.2432 39.2419 83.2163 36.925C84.8639 33.983 88.5209 33.7826 91.2347 37.8863C97.9282 36.6473 97.266 41.1648 96.5487 42.8727ZM87.0473 38.113C86.451 39.5328 87.7628 39.2671 90.0518 40.3632C92.3407 41.4593 93.1939 43.088 93.7902 41.6682C94.3865 40.2483 92.5632 41.0256 90.2742 39.9294C87.9852 38.8333 87.6436 36.6931 87.0473 38.113Z" fill="url(#paint4_linear_2087_157320)"/>
    <path d="M84.3497 43.6616C84.3908 42.1566 88.8132 34.8114 90.3674 33.5355C92.382 33.5906 95.6974 35.8284 95.6741 36.6797C95.5495 41.2401 91.597 44.4887 89.5078 45.9375C88.4224 46.6903 84.3253 44.5508 84.3497 43.6616Z" fill="url(#paint5_linear_2087_157320)"/>
    <path d="M206.699 44.3199C205.38 43.8888 183.24 45.3748 182.728 46.1766C182.216 46.9783 181.907 79.1081 181.907 79.1081C181.907 79.1081 205.582 75.2748 205.943 74.6119C206.116 74.2949 206.577 70.2008 207.027 62.8189C207.492 55.1872 207.387 44.5449 206.699 44.3199Z" fill="#FF5130"/>
    <path d="M162.322 43.2632C163.065 43.0806 174.712 45.0546 182.776 46.2378C182.436 59.0744 182.246 66.2714 181.907 79.108C181.907 79.108 162.353 73.8737 161.969 73.5159C161.584 73.1581 161.16 63.2995 161.266 59.027C161.373 54.7546 161.579 43.4459 162.322 43.2632Z" fill="#FF7B62"/>
    <path d="M199.472 44.5901L192.849 45.1397L192.278 77.3824L198.915 76.3037L199.472 44.5901Z" fill="url(#paint6_linear_2087_157320)"/>
    <path d="M174.782 45.0333L168.896 44.1816L168.116 75.443L173.984 76.9992L174.782 45.0333Z" fill="#FFCC5E"/>
    <path d="M186.261 42.301L162.125 43.2734L182.609 46.9878L206.699 44.2977L186.261 42.301Z" fill="#FF9085"/>
    <path d="M176.948 42.5995L171.142 42.9302L192.629 45.9305L199.393 45.1436L176.948 42.5995Z" fill="#FFC444"/>
    <path d="M192.409 42.907L197.369 43.3828L174.67 45.5828L168.887 44.5332L192.409 42.907Z" fill="#FFC444"/>
    <path d="M188.41 44.307C184.652 45.8791 182.422 45.856 181.368 42.8357C176.453 39.9027 177.717 37.282 178.575 35.8914C181.132 33.8401 181.444 33.7358 185.443 37.4278C191.141 37.1261 190.483 43.4397 188.41 44.307ZM179.418 38.0473C178.617 39.2122 181.249 39.0835 183.438 40.764C185.626 42.4444 186.819 44.7367 187.211 43.471C187.162 41.8861 185.626 42.4444 183.438 40.764C181.249 39.0835 180.219 36.8823 179.418 38.0473Z" fill="#DF952A"/>
    <path d="M177.184 42.6627C178.157 44.9796 182.683 47.1001 185.018 42.6717C190.792 43.5747 191.49 39.0319 190.517 36.7151C188.869 33.7731 185.212 33.5727 182.498 37.6763C175.805 36.4373 176.467 40.9548 177.184 42.6627ZM186.686 37.903C187.282 39.3228 185.97 39.0571 183.681 40.1532C181.392 41.2494 180.539 42.8781 179.943 41.4582C179.346 40.0384 181.17 40.8156 183.459 39.7195C185.748 38.6233 186.089 36.4832 186.686 37.903Z" fill="url(#paint7_linear_2087_157320)"/>
    <path d="M189.383 43.4517C189.342 41.9468 184.92 34.6016 183.366 33.3257C181.351 33.3807 178.036 35.6185 178.059 36.4699C178.184 41.0303 182.136 44.2789 184.225 45.7277C185.311 46.4805 189.408 44.341 189.383 43.4517Z" fill="url(#paint8_linear_2087_157320)"/>
    <circle cx="238.44" cy="130.531" r="3.77888" fill="#FF5130"/>
    <circle cx="231.722" cy="90.2232" r="3.77888" fill="#FF5130"/>
    <circle r="3.77888" transform="matrix(-1 0 0 1 27.6625 128.012)" fill="#FF5130"/>
    <circle r="3.77888" transform="matrix(-1 0 0 1 53.6948 85.1848)" fill="#FF5130"/>
    <circle cx="252.716" cy="175.878" r="3.77888" fill="#FF5130"/>
    <circle r="3.77888" transform="matrix(-1 0 0 1 27.7789 163.779)" fill="#FF5130"/>
    <circle r="2.09938" transform="matrix(-1 0 0 1 41.9383 142.288)" fill="#FFC444"/>
    <circle r="2.09938" transform="matrix(-1 0 0 1 34.0994 184.099)" fill="#FFC444"/>
    <circle r="2.09938" transform="matrix(-1 0 0 1 60.0994 218.099)" fill="#FFC444"/>
    <circle r="2.09938" transform="matrix(-1 0 0 1 38.5793 103.659)" fill="#FFC444"/>
    <circle r="2.09938" transform="matrix(-1 0 0 1 224.164 103.659)" fill="#FFC444"/>
    <circle r="2.09938" transform="matrix(-1 0 0 1 252.716 149.006)" fill="#FFC444"/>
    <circle r="2.09938" transform="matrix(-1 0 0 1 235.081 175.878)" fill="#FFC444"/>
    <circle r="2.09938" transform="matrix(-1 0 0 1 219.966 233.821)" fill="#FFC444"/>
    <circle r="2.09938" transform="matrix(-1 0 0 1 186.099 248.099)" fill="#FFC444"/>
    <circle r="2.09938" transform="matrix(-1 0 0 1 150.099 255.099)" fill="#FFC444"/>
    <circle r="2.09938" transform="matrix(-1 0 0 1 103.099 255.099)" fill="#FFC444"/>
    <circle cx="223.645" cy="206.468" r="3.77888" fill="#FF5130"/>
    <circle r="3.77888" transform="matrix(-1 0 0 1 56.7789 201.779)" fill="#FF5130"/>
    <circle cx="202.331" cy="243.058" r="3.77888" fill="#FF5130"/>
    <path d="M67 241.779C67 243.866 68.6918 245.558 70.7789 245.558C72.8659 245.558 74.5577 243.866 74.5577 241.779C74.5577 239.692 72.8659 238 70.7789 238C68.6918 238 67 239.692 67 241.779Z" fill="#FF5130"/>
    <path d="M117 261.779C117 263.866 118.692 265.558 120.779 265.558C122.866 265.558 124.558 263.866 124.558 261.779C124.558 259.692 122.866 258 120.779 258C118.692 258 117 259.692 117 261.779Z" fill="#FF5130"/>
    <path d="M159 247.779C159 249.866 160.692 251.558 162.779 251.558C164.866 251.558 166.558 249.866 166.558 247.779C166.558 245.692 164.866 244 162.779 244C160.692 244 159 245.692 159 247.779Z" fill="#FF5130"/>
    <defs>
      <linearGradient id="paint0_linear_2087_157320" x1="115.021" y1="97.6378" x2="134.143" y2="11.1967" gradientUnits="userSpaceOnUse">
        <stop offset="0.289759" stop-color="#FFC444"/>
        <stop offset="1" stop-color="#F36F56"/>
      </linearGradient>
      <linearGradient id="paint1_linear_2087_157320" x1="127.832" y1="-9.99521" x2="148.028" y2="69.3258" gradientUnits="userSpaceOnUse">
        <stop offset="0.546875" stop-color="#FFB444"/>
        <stop offset="1" stop-color="#FF9085"/>
      </linearGradient>
      <linearGradient id="paint2_linear_2087_157320" x1="140.213" y1="3.20286" x2="139.643" y2="24.0813" gradientUnits="userSpaceOnUse">
        <stop offset="0.151042" stop-color="#FEAE00"/>
        <stop offset="1" stop-color="#F36F56"/>
      </linearGradient>
      <linearGradient id="paint3_linear_2087_157320" x1="74.9995" y1="90.4861" x2="86.5324" y2="38.3521" gradientUnits="userSpaceOnUse">
        <stop offset="0.289759" stop-color="#FFC444"/>
        <stop offset="1" stop-color="#F36F56"/>
      </linearGradient>
      <linearGradient id="paint4_linear_2087_157320" x1="82.7262" y1="25.5709" x2="94.9066" y2="73.4107" gradientUnits="userSpaceOnUse">
        <stop offset="0.546875" stop-color="#FFB444"/>
        <stop offset="1" stop-color="#FF9085"/>
      </linearGradient>
      <linearGradient id="paint5_linear_2087_157320" x1="90.1934" y1="33.5308" x2="89.8492" y2="46.1229" gradientUnits="userSpaceOnUse">
        <stop offset="0.151042" stop-color="#FEAE00"/>
        <stop offset="1" stop-color="#F36F56"/>
      </linearGradient>
      <linearGradient id="paint6_linear_2087_157320" x1="198.734" y1="90.2761" x2="187.201" y2="38.1421" gradientUnits="userSpaceOnUse">
        <stop offset="0.289759" stop-color="#FFC444"/>
        <stop offset="1" stop-color="#F36F56"/>
      </linearGradient>
      <linearGradient id="paint7_linear_2087_157320" x1="191.007" y1="25.3609" x2="178.826" y2="73.2007" gradientUnits="userSpaceOnUse">
        <stop offset="0.546875" stop-color="#FFB444"/>
        <stop offset="1" stop-color="#FF9085"/>
      </linearGradient>
      <linearGradient id="paint8_linear_2087_157320" x1="183.54" y1="33.3209" x2="183.884" y2="45.913" gradientUnits="userSpaceOnUse">
        <stop offset="0.151042" stop-color="#FEAE00"/>
        <stop offset="1" stop-color="#F36F56"/>
      </linearGradient>
    </defs>
  </g>
</svg>
