<svg fill="none" xmlns="http://www.w3.org/2000/svg" width="300" height="300" viewBox="0 0 300 300">
  <g transform="translate(10,5)">
    <path d="M179.159 63.7858C169.994 64.7339 160.197 63.7858 155.061 62.6006C166.518 69.3165 198.359 74.3731 215.109 83.5383C243.947 99.318 247.503 140.031 247.503 106.846C247.503 90.6493 248.12 79.3992 235.256 68.9214C219.541 56.1208 190.616 62.6006 179.159 63.7858Z" fill="#4C3ABD"/>
    <path d="M96.9935 63.7858C106.159 64.7339 115.956 63.7858 121.092 62.6006C109.635 69.3165 77.794 74.3731 61.0438 83.5383C32.2051 99.318 28.6497 140.031 28.6497 106.846C28.6497 90.6493 28.0324 79.3992 40.8962 68.9214C56.6119 56.1208 85.537 62.6006 96.9935 63.7858Z" fill="#4C3ABD"/>
    <path d="M106.47 69.7884H140.444L138.074 40.1595H125.037L121.087 61.0972L106.47 69.7884Z" fill="#897CDB"/>
    <path d="M169.283 69.7884H135.309L137.679 40.1595H150.716L154.666 61.0972L169.283 69.7884Z" fill="#897CDB"/>
    <rect x="125.827" y="16.8515" width="24.4931" height="44.2457" rx="12.2466" fill="#FFDFD9"/>
    <path d="M136.099 44.5051L123.457 40.9496L127.013 5C128.198 10.5307 129.778 18.4317 129.778 18.4317C129.778 18.4317 133.333 15.2713 138.469 15.2713C143.605 15.2713 145.975 17.5099 147.555 18.4317L149.926 5L153.086 40.9496L140.839 44.5051L138.469 47.6655L136.099 44.5051Z" fill="#4C3ABD"/>
    <path d="M142.025 35.8139L149.135 34.2337L147.555 36.604L142.025 35.8139Z" fill="white"/>
    <path d="M135.309 35.8139L128.198 34.2337L129.778 36.604L135.309 35.8139Z" fill="white"/>
    <path d="M236.613 122.117L239.993 120.271L238.48 123.403L238.751 124.756L231.873 129.961L231.106 129.394L229.619 129.492L229.333 128.963C231.055 128.92 229.74 128.165 230.652 127.424C231.221 126.961 231.645 126.257 231.802 125.4C232.146 123.514 230.096 122.425 229.234 122.668C229.048 122.72 230.396 122.001 229.419 120.297C228.717 119.382 227.554 119.354 227.113 119.355C227.337 118.975 228.375 118.152 227.904 116.888C227.434 115.625 226.078 115.42 225.356 115.331C225.771 115.093 226.702 114.307 226.448 113.195C226.12 111.759 225.196 111.397 223.765 111.211C225.317 110.07 227.601 108.821 230.758 111.478C235.024 115.069 234.165 120.463 234.84 121.687C235.38 122.666 236.247 122.382 236.613 122.117Z" fill="#4C3ABD"/>
    <path d="M239.907 127.873L243.091 125.287L239.95 125.58L238.417 124.446L230.615 128.921L231.212 129.962L230.487 131.007L230.705 131.386C231.013 131.147 231.151 130.626 232.625 131.07C233.372 131.295 234.091 130.657 234.923 130.88C236.754 131.369 236.851 133.712 236.267 134.398C236.141 134.545 237.358 133.618 238.462 135.24C238.981 136.273 238.509 137.351 238.32 137.754C238.754 137.711 239.933 137.111 240.86 138.082C241.787 139.052 241.392 140.381 241.163 141.081C241.553 140.802 242.651 140.285 243.536 140.992C244.679 141.905 244.608 142.906 244.163 144.295C245.845 143.361 247.832 141.818 246.909 137.777C245.57 131.917 240.339 130.822 239.535 129.681C238.891 128.769 239.515 128.096 239.907 127.873Z" fill="#4C3ABD"/>
    <path d="M235.156 211.554L238.848 210.458L236.711 213.203L236.692 214.583L228.874 218.227L228.243 217.511L226.768 217.296L226.6 216.718C228.293 217.038 227.165 216.023 228.212 215.49C228.866 215.157 229.429 214.558 229.762 213.752C230.494 211.981 228.719 210.486 227.825 210.542C227.633 210.554 229.101 210.135 228.503 208.263C228.01 207.221 226.878 206.95 226.447 206.858C226.745 206.534 227.934 205.947 227.739 204.613C227.544 203.278 226.261 202.793 225.574 202.555C226.03 202.409 227.105 201.837 227.09 200.696C227.071 199.223 226.244 198.675 224.884 198.193C226.641 197.402 229.136 196.661 231.664 199.922C235.081 204.329 233.109 209.422 233.512 210.76C233.834 211.831 234.742 211.735 235.156 211.554Z" fill="#4C3ABD"/>
    <path d="M237.167 217.872L240.823 216.013L237.69 215.639L236.43 214.209L227.862 216.946L228.227 218.089L227.3 218.959L227.432 219.375C227.784 219.206 228.029 218.726 229.376 219.469C230.06 219.846 230.896 219.374 231.663 219.766C233.35 220.629 232.953 222.94 232.238 223.488C232.084 223.605 233.468 222.954 234.207 224.772C234.498 225.891 233.81 226.845 233.54 227.2C233.974 227.249 235.252 226.91 235.955 228.054C236.658 229.197 235.992 230.414 235.622 231.05C236.062 230.859 237.244 230.584 237.961 231.461C238.886 232.594 238.606 233.557 237.88 234.823C239.72 234.262 241.987 233.171 241.933 229.026C241.855 223.015 236.971 220.846 236.423 219.562C235.986 218.535 236.737 218.008 237.167 217.872Z" fill="#4C3ABD"/>
    <path d="M236.655 159.655L239.548 158.859L237.005 157.923L236.423 157.018L229.751 157.829L229.629 158.561L228.742 159.312L228.869 159.763C229.857 158.854 229.529 159.99 230.441 159.911C231.011 159.862 231.63 160.026 232.182 160.422C233.396 161.292 232.837 163.012 232.223 163.343C232.091 163.414 233.235 163.087 233.61 164.571C233.714 165.464 233.077 166.109 232.829 166.347C233.16 166.439 234.188 166.338 234.608 167.301C235.029 168.263 234.38 169.113 234.024 169.554C234.386 169.462 235.333 169.398 235.793 170.159C236.387 171.141 236.065 171.844 235.365 172.723C236.852 172.522 238.808 171.984 239.137 168.786C239.582 164.464 236.179 161.908 235.895 160.857C235.667 160.016 236.307 159.705 236.655 159.655Z" fill="#897CDB"/>
    <path d="M235.383 154.647L238.567 154.37L236.649 155.908L236.404 157.373L229.61 159.092L229.38 158.186L228.408 157.993L228.325 157.663C228.627 157.629 228.987 157.846 229.572 156.8C229.869 156.269 230.616 156.237 230.962 155.661C231.723 154.396 230.508 153.031 229.809 152.963C229.659 152.949 230.843 152.809 230.583 151.302C230.314 150.443 229.466 150.095 229.142 149.971C229.408 149.76 230.393 149.458 230.387 148.412C230.381 147.366 229.439 146.835 228.933 146.567C229.302 146.512 230.198 146.207 230.31 145.332C230.456 144.202 229.874 143.679 228.872 143.142C230.32 142.754 232.269 142.542 233.941 145.306C236.365 149.314 234.028 152.76 234.195 153.835C234.328 154.695 235.042 154.734 235.383 154.647Z" fill="#897CDB"/>
    <path d="M227.045 249.993L225.007 247.79L225.347 250.479L224.811 251.411L228.6 256.962L229.307 256.734L230.381 257.176L230.724 256.856C229.462 256.397 230.621 256.165 230.132 255.392C229.826 254.909 229.687 254.283 229.784 253.611C229.998 252.133 231.783 251.837 232.359 252.23C232.483 252.315 231.666 251.45 232.811 250.434C233.556 249.931 234.422 250.2 234.747 250.31C234.677 249.974 234.114 249.108 234.775 248.292C235.436 247.475 236.489 247.66 237.044 247.774C236.796 247.494 236.304 246.684 236.768 245.925C237.366 244.945 238.139 244.907 239.241 245.125C238.378 243.897 237.001 242.408 234.01 243.587C229.968 245.181 229.264 249.378 228.462 250.115C227.82 250.704 227.25 250.279 227.045 249.993Z" fill="#4C3ABD"/>
    <path d="M223.184 253.427L221.474 250.727L223.722 251.722L225.135 251.265L229.787 256.507L229.088 257.127L229.364 258.079L229.109 258.305C228.941 258.052 228.968 257.633 227.77 257.595C227.162 257.576 226.789 256.927 226.119 256.885C224.645 256.792 223.992 258.498 224.254 259.15C224.31 259.29 223.641 258.303 222.423 259.227C221.784 259.861 221.865 260.774 221.904 261.119C221.594 260.98 220.873 260.244 219.947 260.731C219.021 261.217 218.983 262.298 218.979 262.871C218.76 262.568 218.077 261.913 217.248 262.216C216.177 262.607 215.982 263.364 215.965 264.501C214.955 263.394 213.87 261.761 215.555 259.005C217.997 255.008 222.133 255.497 223.01 254.855C223.712 254.341 223.419 253.689 223.184 253.427Z" fill="#4C3ABD"/>
    <path d="M242.832 183.066L245.086 183.686L243.104 184.415L242.651 185.12L237.452 184.488L237.357 183.917L236.666 183.333L236.764 182.981C237.535 183.689 237.279 182.804 237.99 182.866C238.434 182.904 238.916 182.776 239.346 182.467C240.292 181.789 239.857 180.449 239.378 180.191C239.275 180.136 240.167 180.391 240.459 179.234C240.54 178.539 240.043 178.036 239.851 177.85C240.108 177.779 240.909 177.858 241.237 177.107C241.565 176.357 241.059 175.695 240.782 175.352C241.064 175.423 241.801 175.473 242.16 174.88C242.623 174.115 242.372 173.567 241.826 172.882C242.985 173.039 244.51 173.458 244.766 175.95C245.113 179.318 242.461 181.31 242.239 182.129C242.062 182.784 242.56 183.026 242.832 183.066Z" fill="#4C3ABD"/>
    <path d="M241.84 186.968L244.322 187.183L242.827 185.985L242.636 184.843L237.342 183.504L237.163 184.21L236.406 184.361L236.341 184.617C236.576 184.644 236.856 184.475 237.312 185.29C237.544 185.704 238.126 185.729 238.396 186.177C238.988 187.163 238.042 188.227 237.497 188.28C237.38 188.291 238.303 188.4 238.1 189.574C237.891 190.244 237.23 190.515 236.977 190.611C237.185 190.776 237.952 191.011 237.948 191.826C237.943 192.641 237.209 193.055 236.814 193.263C237.102 193.306 237.8 193.544 237.888 194.226C238.001 195.107 237.548 195.514 236.767 195.933C237.895 196.235 239.414 196.4 240.717 194.246C242.606 191.123 240.785 188.438 240.915 187.6C241.019 186.93 241.575 186.899 241.84 186.968Z" fill="#4C3ABD"/>
    <path d="M200.985 253.726L200.488 251.441L202.053 252.859L202.888 252.933L204.741 257.831L204.28 258.18L204.082 259.064L203.725 259.14C203.995 258.129 203.33 258.766 203.054 258.108C202.882 257.697 202.545 257.329 202.072 257.091C201.033 256.567 200.047 257.575 200.041 258.119C200.04 258.236 199.852 257.328 198.692 257.605C198.038 257.857 197.823 258.53 197.748 258.787C197.565 258.591 197.263 257.845 196.447 257.903C195.63 257.961 195.278 258.715 195.103 259.121C195.035 258.838 194.737 258.161 194.046 258.119C193.153 258.064 192.784 258.54 192.43 259.341C192.031 258.242 191.695 256.697 193.784 255.314C196.607 253.444 199.601 254.869 200.43 254.685C201.093 254.538 201.076 253.984 200.985 253.726Z" fill="#897CDB"/>
    <path d="M204.902 252.794L203.941 250.496L203.573 252.376L202.65 253.074L203.92 258.386L204.629 258.216L205.113 258.817L205.371 258.756C205.285 258.535 205.005 258.365 205.516 257.583C205.776 257.186 205.527 256.659 205.799 256.212C206.398 255.229 207.779 255.574 208.079 256.032C208.143 256.13 207.811 255.263 208.946 254.897C209.636 254.772 210.183 255.232 210.385 255.411C210.435 255.151 210.288 254.361 211.012 253.987C211.736 253.613 212.442 254.072 212.811 254.325C212.715 254.05 212.602 253.321 213.165 252.927C213.893 252.418 214.464 252.631 215.197 253.128C214.941 251.988 214.383 250.566 211.87 250.412C208.228 250.187 206.694 253.047 205.891 253.32C205.25 253.539 204.964 253.06 204.902 252.794Z" fill="#897CDB"/>
    <path d="M39.2468 122.117L35.8672 120.271L37.3799 123.403L37.1088 124.756L43.9874 129.961L44.7539 129.394L46.2416 129.492L46.5275 128.963C44.805 128.92 46.1206 128.165 45.2087 127.424C44.6394 126.961 44.2149 126.257 44.0584 125.399C43.7144 123.514 45.7646 122.425 46.6264 122.668C46.8118 122.72 45.4643 122.001 46.4417 120.297C47.1428 119.382 48.3065 119.354 48.7471 119.355C48.5237 118.975 47.4851 118.152 47.9558 116.888C48.4265 115.625 49.7826 115.42 50.5045 115.331C50.0889 115.093 49.1585 114.307 49.4125 113.195C49.7403 111.759 50.6645 111.397 52.0948 111.211C50.5434 110.069 48.2589 108.821 45.1026 111.478C40.8363 115.069 41.6953 120.463 41.0204 121.687C40.4805 122.665 39.6131 122.382 39.2468 122.117Z" fill="#4C3ABD"/>
    <path d="M35.9534 127.873L32.7692 125.287L35.9107 125.58L37.4435 124.446L45.2456 128.921L44.6486 129.962L45.3728 131.007L45.1557 131.386C44.8468 131.147 44.7088 130.626 43.2355 131.07C42.488 131.295 41.7697 130.657 40.9372 130.88C39.1064 131.369 39.0092 133.712 39.5936 134.398C39.7194 134.545 38.5026 133.618 37.3982 135.24C36.8796 136.273 37.3516 137.351 37.5406 137.754C37.1062 137.711 35.9277 137.111 35.0003 138.081C34.0729 139.052 34.4687 140.381 34.6972 141.081C34.307 140.802 33.2088 140.285 32.3239 140.992C31.1814 141.905 31.2526 142.906 31.6969 144.295C30.0156 143.361 28.0283 141.818 28.9515 137.777C30.2901 131.917 35.5208 130.822 36.3255 129.681C36.9693 128.769 36.3457 128.096 35.9534 127.873Z" fill="#4C3ABD"/>
    <path d="M40.7049 211.554L37.0129 210.458L39.1495 213.203L39.1686 214.583L46.9868 218.227L47.6171 217.511L49.0923 217.296L49.2607 216.718C47.5676 217.038 48.6953 216.023 47.6481 215.49C46.9943 215.157 46.4315 214.558 46.0984 213.752C45.3661 211.981 47.142 210.486 48.0355 210.542C48.2278 210.554 46.7594 210.135 47.3572 208.263C47.8504 207.221 48.9823 206.95 49.4133 206.858C49.1152 206.534 47.9268 205.947 48.1217 204.613C48.3166 203.278 49.5995 202.793 50.2866 202.555C49.8302 202.409 48.7557 201.837 48.7704 200.696C48.7894 199.223 49.6169 198.675 50.9764 198.193C49.2198 197.402 46.724 196.661 44.1961 199.922C40.779 204.329 42.7514 209.422 42.3485 210.76C42.0262 211.831 41.1185 211.735 40.7049 211.554Z" fill="#4C3ABD"/>
    <path d="M38.6935 217.872L35.0373 216.013L38.1702 215.639L39.4307 214.209L47.9986 216.946L47.6335 218.089L48.561 218.959L48.4282 219.375C48.0761 219.206 47.8318 218.726 46.4845 219.469C45.8009 219.846 44.9647 219.374 44.1975 219.766C42.5104 220.629 42.9072 222.94 43.6226 223.488C43.7766 223.605 42.3922 222.954 41.653 224.772C41.3629 225.891 42.0507 226.845 42.3201 227.2C41.8864 227.249 40.6082 226.91 39.9052 228.054C39.2022 229.197 39.8684 230.414 40.2386 231.05C39.7986 230.859 38.6163 230.584 37.8996 231.461C36.9743 232.594 37.2541 233.557 37.9802 234.823C36.1403 234.262 33.8733 233.171 33.9273 229.026C34.0056 223.015 38.8897 220.846 39.437 219.562C39.8748 218.535 39.1238 218.008 38.6935 217.872Z" fill="#4C3ABD"/>
    <path d="M39.2054 159.655L36.312 158.859L38.8558 157.923L39.437 157.018L46.1091 157.829L46.2314 158.561L47.1182 159.312L46.9916 159.763C46.0034 158.854 46.3314 159.99 45.4192 159.911C44.8496 159.862 44.2306 160.026 43.6784 160.422C42.4643 161.292 43.0232 163.012 43.6374 163.343C43.7696 163.414 42.6255 163.087 42.2501 164.571C42.1468 165.464 42.7838 166.109 43.0312 166.347C42.7004 166.439 41.6726 166.338 41.2519 167.301C40.8312 168.263 41.48 169.113 41.8361 169.554C41.4742 169.462 40.5277 169.398 40.0675 170.159C39.4733 171.141 39.795 171.844 40.4955 172.723C39.0082 172.522 37.052 171.984 36.7231 168.786C36.2784 164.464 39.6809 161.908 39.9656 160.857C40.1934 160.016 39.5537 159.705 39.2054 159.655Z" fill="#897CDB"/>
    <path d="M40.4778 154.647L37.2936 154.37L39.2118 155.908L39.4564 157.373L46.2508 159.092L46.4801 158.186L47.4519 157.993L47.5353 157.663C47.233 157.629 46.8736 157.846 46.2886 156.8C45.9918 156.269 45.2441 156.237 44.8983 155.661C44.1379 154.396 45.3521 153.031 46.051 152.963C46.2014 152.949 45.0174 152.809 45.2773 151.302C45.5463 150.443 46.3944 150.095 46.7186 149.971C46.4522 149.76 45.4671 149.458 45.4731 148.412C45.4791 147.366 46.4209 146.835 46.9277 146.567C46.558 146.512 45.6627 146.207 45.5501 145.332C45.4046 144.202 45.9866 143.679 46.9881 143.142C45.5404 142.754 43.5913 142.542 41.9195 145.306C39.4956 149.314 41.8326 152.76 41.6657 153.835C41.5322 154.695 40.8181 154.734 40.4778 154.647Z" fill="#897CDB"/>
    <path d="M48.8156 249.993L50.8537 247.79L50.5136 250.479L51.0497 251.411L47.2603 256.962L46.5534 256.734L45.4791 257.176L45.1365 256.856C46.3982 256.397 45.2391 256.165 45.7287 255.392C46.0344 254.909 46.1733 254.283 46.076 253.611C45.8622 252.133 44.0777 251.837 43.5014 252.23C43.3774 252.315 44.1943 251.45 43.0496 250.434C42.3045 249.931 41.4382 250.2 41.113 250.31C41.1838 249.974 41.7466 249.108 41.0854 248.292C40.4242 247.475 39.3717 247.66 38.8163 247.774C39.0641 247.494 39.5565 246.684 39.0929 245.925C38.4944 244.945 37.722 244.907 36.6193 245.125C37.482 243.897 38.8595 242.408 41.8502 243.587C45.8927 245.181 46.5965 249.378 47.3987 250.115C48.0404 250.704 48.6107 250.279 48.8156 249.993Z" fill="#4C3ABD"/>
    <path d="M52.6764 253.427L54.3869 250.727L52.139 251.722L50.7255 251.265L46.073 256.507L46.7722 257.127L46.4967 258.079L46.751 258.305C46.9199 258.052 46.8926 257.633 48.091 257.595C48.699 257.576 49.0713 256.927 49.7415 256.885C51.2152 256.792 51.8683 258.498 51.6068 259.15C51.5505 259.29 52.219 258.303 53.4374 259.227C54.0768 259.861 53.9956 260.774 53.956 261.119C54.2663 260.98 54.9879 260.244 55.9137 260.731C56.8394 261.217 56.877 262.298 56.8818 262.871C57.1008 262.568 57.7836 261.913 58.6127 262.216C59.6832 262.607 59.879 263.364 59.8956 264.501C60.9057 263.394 61.9906 261.761 60.3058 259.005C57.863 255.008 53.7277 255.497 52.8504 254.855C52.1485 254.341 52.442 253.689 52.6764 253.427Z" fill="#4C3ABD"/>
    <path d="M33.0285 183.066L30.7738 183.686L32.7561 184.415L33.2089 185.12L38.4081 184.488L38.5034 183.917L39.1944 183.333L39.0958 182.981C38.3257 183.689 38.5813 182.804 37.8705 182.866C37.4267 182.904 36.9443 182.776 36.514 182.467C35.5679 181.789 36.0034 180.449 36.482 180.191C36.5851 180.136 35.6935 180.391 35.401 179.234C35.3205 178.539 35.8169 178.036 36.0097 177.85C35.7519 177.779 34.951 177.858 34.6232 177.107C34.2954 176.357 34.8009 175.695 35.0784 175.352C34.7964 175.423 34.0589 175.473 33.7002 174.88C33.2372 174.115 33.4879 173.567 34.0338 172.882C32.8748 173.039 31.3505 173.458 31.0941 175.95C30.7477 179.318 33.399 181.31 33.6208 182.129C33.7983 182.784 33.2999 183.026 33.0285 183.066Z" fill="#4C3ABD"/>
    <path d="M34.0199 186.968L31.5387 187.183L33.0334 185.985L33.224 184.843L38.5185 183.504L38.6972 184.21L39.4544 184.361L39.5194 184.617C39.2839 184.644 39.0038 184.475 38.548 185.29C38.3167 185.704 37.734 185.729 37.4646 186.177C36.872 187.163 37.8182 188.227 38.3628 188.28C38.48 188.291 37.5574 188.4 37.76 189.574C37.9695 190.244 38.6304 190.515 38.883 190.611C38.6754 190.776 37.9078 191.011 37.9125 191.826C37.9172 192.641 38.6511 193.055 39.046 193.263C38.7579 193.306 38.0602 193.544 37.9725 194.226C37.8591 195.107 38.3126 195.514 39.0931 195.933C37.9649 196.235 36.4461 196.4 35.1434 194.246C33.2546 191.123 35.0757 188.438 34.9456 187.6C34.8416 186.93 34.2852 186.899 34.0199 186.968Z" fill="#4C3ABD"/>
    <path d="M74.8754 253.726L75.3721 251.441L73.8068 252.859L72.972 252.933L71.1189 257.831L71.5805 258.181L71.7779 259.064L72.1353 259.14C71.8652 258.129 72.5305 258.766 72.8059 258.108C72.9779 257.697 73.3153 257.329 73.788 257.091C74.8276 256.567 75.8129 257.575 75.8192 258.119C75.8206 258.236 76.0084 257.328 77.1684 257.605C77.822 257.857 78.0373 258.53 78.1122 258.787C78.2951 258.591 78.5969 257.845 79.4135 257.903C80.2302 257.961 80.5818 258.716 80.7574 259.121C80.8251 258.838 81.1231 258.161 81.8146 258.119C82.7073 258.064 83.0764 258.54 83.4298 259.341C83.829 258.242 84.1651 256.697 82.0765 255.314C79.2533 253.444 76.2587 254.869 75.4303 254.685C74.7675 254.538 74.7842 253.984 74.8754 253.726Z" fill="#897CDB"/>
    <path d="M70.9586 252.794L71.9191 250.496L72.2871 252.376L73.2101 253.074L71.9401 258.386L71.2315 258.217L70.7468 258.817L70.489 258.756C70.5751 258.535 70.8548 258.365 70.3439 257.583C70.0847 257.186 70.3331 256.659 70.0608 256.212C69.462 255.229 68.0808 255.574 67.7814 256.032C67.717 256.131 68.0489 255.263 66.9146 254.897C66.2241 254.772 65.6772 255.232 65.4747 255.411C65.4251 255.151 65.5727 254.361 64.8486 253.988C64.1245 253.614 63.4178 254.072 63.0496 254.325C63.1453 254.05 63.2584 253.321 62.6948 252.927C61.9671 252.418 61.3963 252.631 60.6629 253.128C60.919 251.988 61.4775 250.566 63.9898 250.412C67.6326 250.188 69.1667 253.047 69.9689 253.32C70.6106 253.539 70.896 253.06 70.9586 252.794Z" fill="#897CDB"/>
    <path d="M142.526 263.627L142.298 259.783L140.446 262.727L139.155 263.215L138.393 271.807L139.28 272.156L139.986 273.469L140.587 273.431C139.709 271.948 141.047 272.662 141.191 271.496C141.282 270.768 141.653 270.035 142.297 269.447C143.713 268.155 145.723 269.315 145.975 270.174C146.029 270.359 145.923 268.836 147.886 268.76C149.034 268.868 149.675 269.84 149.908 270.214C150.111 269.823 150.258 268.506 151.579 268.235C152.9 267.963 153.793 269.004 154.251 269.569C154.233 269.09 154.405 267.885 155.483 267.51C156.874 267.026 157.671 267.617 158.588 268.731C158.732 266.81 158.578 264.211 154.652 262.945C149.344 261.235 145.228 264.825 143.832 264.902C142.716 264.964 142.496 264.078 142.526 263.627Z" fill="#4C3ABD"/>
    <path d="M135.9 263.889L136.402 259.818L137.821 262.636L139.595 263.334L139.942 272.322L138.743 272.368L138.241 273.536L137.805 273.553C137.843 273.165 138.212 272.771 137.054 271.758C136.466 271.244 136.626 270.297 135.995 269.709C134.609 268.417 132.572 269.577 132.301 270.437C132.242 270.622 132.383 269.098 130.422 269.023C129.271 269.131 128.608 270.103 128.367 270.477C128.172 270.086 128.056 268.769 126.741 268.498C125.427 268.226 124.51 269.267 124.038 269.832C124.068 269.353 123.923 268.148 122.854 267.773C121.474 267.289 120.663 267.881 119.721 268.995C119.621 267.074 119.875 264.571 123.79 263.209C129.467 261.234 133.171 265.087 134.565 265.164C135.679 265.226 135.919 264.34 135.9 263.889Z" fill="#4C3ABD"/>
    <path d="M171.484 255.535L172.058 253.376L170.502 254.661L169.703 254.695L167.72 259.288L168.145 259.641L168.295 260.493L168.633 260.581C168.419 259.604 169.026 260.241 169.318 259.625C169.5 259.241 169.838 258.905 170.299 258.698C171.314 258.244 172.21 259.249 172.192 259.768C172.188 259.879 172.407 259.021 173.502 259.337C174.115 259.605 174.291 260.257 174.351 260.505C174.534 260.327 174.854 259.628 175.631 259.719C176.408 259.81 176.71 260.546 176.86 260.94C176.937 260.673 177.251 260.041 177.913 260.03C178.767 260.017 179.098 260.487 179.4 261.267C179.829 260.236 180.218 258.777 178.285 257.365C175.674 255.458 172.754 256.686 171.971 256.475C171.345 256.305 171.386 255.778 171.484 255.535Z" fill="#4C3ABD"/>
    <path d="M167.788 254.474L168.805 252.323L169.073 254.133L169.924 254.84L168.479 259.853L167.811 259.66L167.322 260.212L167.079 260.142C167.17 259.935 167.445 259.786 166.991 259.017C166.761 258.627 167.022 258.134 166.781 257.696C166.253 256.732 164.92 257.001 164.614 257.425C164.549 257.516 164.903 256.703 163.837 256.304C163.184 256.155 162.642 256.569 162.441 256.731C162.405 256.481 162.58 255.734 161.905 255.346C161.231 254.957 160.537 255.364 160.174 255.589C160.277 255.33 160.417 254.64 159.897 254.24C159.225 253.722 158.671 253.9 157.949 254.342C158.244 253.266 158.839 251.934 161.243 251.896C164.728 251.842 166.067 254.637 166.82 254.933C167.423 255.17 167.716 254.726 167.788 254.474Z" fill="#4C3ABD"/>
    <path d="M105 257.115L104.426 254.957L105.982 256.241L106.782 256.275L108.764 260.868L108.339 261.221L108.19 262.073L107.852 262.161C108.065 261.185 107.458 261.822 107.167 261.206C106.985 260.821 106.647 260.485 106.185 260.278C105.17 259.824 104.274 260.829 104.292 261.348C104.296 261.46 104.077 260.601 102.982 260.917C102.37 261.185 102.194 261.837 102.134 262.086C101.95 261.907 101.63 261.209 100.853 261.299C100.076 261.39 99.774 262.126 99.6242 262.52C99.5473 262.253 99.2333 261.621 98.5717 261.61C97.7175 261.597 97.3861 262.067 97.084 262.848C96.655 261.816 96.2667 260.357 98.199 258.946C100.811 257.038 103.731 258.266 104.513 258.055C105.139 257.886 105.099 257.358 105 257.115Z" fill="#4C3ABD"/>
    <path d="M108.697 256.054L107.68 253.904L107.411 255.714L106.561 256.421L108.005 261.433L108.674 261.24L109.163 261.793L109.406 261.723C109.314 261.516 109.04 261.366 109.493 260.597C109.723 260.207 109.463 259.715 109.703 259.276C110.231 258.313 111.564 258.581 111.87 259.005C111.936 259.096 111.581 258.283 112.647 257.885C113.301 257.735 113.843 258.15 114.044 258.312C114.08 258.061 113.904 257.314 114.579 256.926C115.253 256.537 115.948 256.944 116.31 257.169C116.207 256.911 116.067 256.221 116.588 255.82C117.26 255.302 117.814 255.481 118.535 255.923C118.241 254.847 117.646 253.514 115.242 253.477C111.756 253.422 110.418 256.217 109.664 256.513C109.062 256.75 108.768 256.306 108.697 256.054Z" fill="#4C3ABD"/>
  </g>
  <svg>
    <g transform="translate(75, 102)scale(0.6)">
      <rect x="0" y="0" width="247.5" height="247.5" fill="#ffffff"/>
      <rect x="0.0" y="0.0" width="5.5" height="5.5" fill="#0e372d"/>
      <rect x="5.5" y="0.0" width="5.5" height="5.5" fill="#0e372d"/>
      <rect x="11.0" y="0.0" width="5.5" height="5.5" fill="#0e372d"/>
      <rect x="16.5" y="0.0" width="5.5" height="5.5" fill="#0e372d"/>
      <rect x="22.0" y="0.0" width="5.5" height="5.5" fill="#0e372d"/>
      <rect x="27.5" y="0.0" width="5.5" height="5.5" fill="#0e372d"/>
      <rect x="33.0" y="0.0" width="5.5" height="5.5" fill="#0e372d"/>
      <rect x="49.5" y="0.0" width="5.5" height="5.5" fill="#0e372d"/>
      <rect x="55.0" y="0.0" width="5.5" height="5.5" fill="#0e372d"/>
      <rect x="66.0" y="0.0" width="5.5" height="5.5" fill="#0e372d"/>
      <rect x="82.5" y="0.0" width="5.5" height="5.5" fill="#0e372d"/>
      <rect x="115.5" y="0.0" width="5.5" height="5.5" fill="#0e372d"/>
      <rect x="137.5" y="0.0" width="5.5" height="5.5" fill="#0e372d"/>
      <rect x="148.5" y="0.0" width="5.5" height="5.5" fill="#0e372d"/>
      <rect x="159.5" y="0.0" width="5.5" height="5.5" fill="#0e372d"/>
      <rect x="165.0" y="0.0" width="5.5" height="5.5" fill="#0e372d"/>
      <rect x="170.5" y="0.0" width="5.5" height="5.5" fill="#0e372d"/>
      <rect x="198.0" y="0.0" width="5.5" height="5.5" fill="#0e372d"/>
      <rect x="209.0" y="0.0" width="5.5" height="5.5" fill="#0e372d"/>
      <rect x="214.5" y="0.0" width="5.5" height="5.5" fill="#0e372d"/>
      <rect x="220.0" y="0.0" width="5.5" height="5.5" fill="#0e372d"/>
      <rect x="225.5" y="0.0" width="5.5" height="5.5" fill="#0e372d"/>
      <rect x="231.0" y="0.0" width="5.5" height="5.5" fill="#0e372d"/>
      <rect x="236.5" y="0.0" width="5.5" height="5.5" fill="#0e372d"/>
      <rect x="242.0" y="0.0" width="5.5" height="5.5" fill="#0e372d"/>
      <rect x="0.0" y="5.5" width="5.5" height="5.5" fill="#0e372d"/>
      <rect x="33.0" y="5.5" width="5.5" height="5.5" fill="#0e372d"/>
      <rect x="44.0" y="5.5" width="5.5" height="5.5" fill="#0e372d"/>
      <rect x="49.5" y="5.5" width="5.5" height="5.5" fill="#0e372d"/>
      <rect x="55.0" y="5.5" width="5.5" height="5.5" fill="#0e372d"/>
      <rect x="60.5" y="5.5" width="5.5" height="5.5" fill="#0e372d"/>
      <rect x="66.0" y="5.5" width="5.5" height="5.5" fill="#0e372d"/>
      <rect x="77.0" y="5.5" width="5.5" height="5.5" fill="#0e372d"/>
      <rect x="82.5" y="5.5" width="5.5" height="5.5" fill="#0e372d"/>
      <rect x="93.5" y="5.5" width="5.5" height="5.5" fill="#0e372d"/>
      <rect x="99.0" y="5.5" width="5.5" height="5.5" fill="#0e372d"/>
      <rect x="104.5" y="5.5" width="5.5" height="5.5" fill="#0e372d"/>
      <rect x="110.0" y="5.5" width="5.5" height="5.5" fill="#0e372d"/>
      <rect x="115.5" y="5.5" width="5.5" height="5.5" fill="#0e372d"/>
      <rect x="121.0" y="5.5" width="5.5" height="5.5" fill="#0e372d"/>
      <rect x="126.5" y="5.5" width="5.5" height="5.5" fill="#0e372d"/>
      <rect x="132.0" y="5.5" width="5.5" height="5.5" fill="#0e372d"/>
      <rect x="137.5" y="5.5" width="5.5" height="5.5" fill="#0e372d"/>
      <rect x="143.0" y="5.5" width="5.5" height="5.5" fill="#0e372d"/>
      <rect x="148.5" y="5.5" width="5.5" height="5.5" fill="#0e372d"/>
      <rect x="176.0" y="5.5" width="5.5" height="5.5" fill="#0e372d"/>
      <rect x="192.5" y="5.5" width="5.5" height="5.5" fill="#0e372d"/>
      <rect x="209.0" y="5.5" width="5.5" height="5.5" fill="#0e372d"/>
      <rect x="242.0" y="5.5" width="5.5" height="5.5" fill="#0e372d"/>
      <rect x="0.0" y="11.0" width="5.5" height="5.5" fill="#0e372d"/>
      <rect x="11.0" y="11.0" width="5.5" height="5.5" fill="#0e372d"/>
      <rect x="16.5" y="11.0" width="5.5" height="5.5" fill="#0e372d"/>
      <rect x="22.0" y="11.0" width="5.5" height="5.5" fill="#0e372d"/>
      <rect x="33.0" y="11.0" width="5.5" height="5.5" fill="#0e372d"/>
      <rect x="49.5" y="11.0" width="5.5" height="5.5" fill="#0e372d"/>
      <rect x="60.5" y="11.0" width="5.5" height="5.5" fill="#0e372d"/>
      <rect x="66.0" y="11.0" width="5.5" height="5.5" fill="#0e372d"/>
      <rect x="71.5" y="11.0" width="5.5" height="5.5" fill="#0e372d"/>
      <rect x="77.0" y="11.0" width="5.5" height="5.5" fill="#0e372d"/>
      <rect x="82.5" y="11.0" width="5.5" height="5.5" fill="#0e372d"/>
      <rect x="99.0" y="11.0" width="5.5" height="5.5" fill="#0e372d"/>
      <rect x="104.5" y="11.0" width="5.5" height="5.5" fill="#0e372d"/>
      <rect x="126.5" y="11.0" width="5.5" height="5.5" fill="#0e372d"/>
      <rect x="137.5" y="11.0" width="5.5" height="5.5" fill="#0e372d"/>
      <rect x="148.5" y="11.0" width="5.5" height="5.5" fill="#0e372d"/>
      <rect x="154.0" y="11.0" width="5.5" height="5.5" fill="#0e372d"/>
      <rect x="165.0" y="11.0" width="5.5" height="5.5" fill="#0e372d"/>
      <rect x="170.5" y="11.0" width="5.5" height="5.5" fill="#0e372d"/>
      <rect x="176.0" y="11.0" width="5.5" height="5.5" fill="#0e372d"/>
      <rect x="181.5" y="11.0" width="5.5" height="5.5" fill="#0e372d"/>
      <rect x="192.5" y="11.0" width="5.5" height="5.5" fill="#0e372d"/>
      <rect x="209.0" y="11.0" width="5.5" height="5.5" fill="#0e372d"/>
      <rect x="220.0" y="11.0" width="5.5" height="5.5" fill="#0e372d"/>
      <rect x="225.5" y="11.0" width="5.5" height="5.5" fill="#0e372d"/>
      <rect x="231.0" y="11.0" width="5.5" height="5.5" fill="#0e372d"/>
      <rect x="242.0" y="11.0" width="5.5" height="5.5" fill="#0e372d"/>
      <rect x="0.0" y="16.5" width="5.5" height="5.5" fill="#0e372d"/>
      <rect x="11.0" y="16.5" width="5.5" height="5.5" fill="#0e372d"/>
      <rect x="16.5" y="16.5" width="5.5" height="5.5" fill="#0e372d"/>
      <rect x="22.0" y="16.5" width="5.5" height="5.5" fill="#0e372d"/>
      <rect x="33.0" y="16.5" width="5.5" height="5.5" fill="#0e372d"/>
      <rect x="44.0" y="16.5" width="5.5" height="5.5" fill="#0e372d"/>
      <rect x="60.5" y="16.5" width="5.5" height="5.5" fill="#0e372d"/>
      <rect x="82.5" y="16.5" width="5.5" height="5.5" fill="#0e372d"/>
      <rect x="88.0" y="16.5" width="5.5" height="5.5" fill="#0e372d"/>
      <rect x="93.5" y="16.5" width="5.5" height="5.5" fill="#0e372d"/>
      <rect x="99.0" y="16.5" width="5.5" height="5.5" fill="#0e372d"/>
      <rect x="104.5" y="16.5" width="5.5" height="5.5" fill="#0e372d"/>
      <rect x="110.0" y="16.5" width="5.5" height="5.5" fill="#0e372d"/>
      <rect x="115.5" y="16.5" width="5.5" height="5.5" fill="#0e372d"/>
      <rect x="121.0" y="16.5" width="5.5" height="5.5" fill="#0e372d"/>
      <rect x="126.5" y="16.5" width="5.5" height="5.5" fill="#0e372d"/>
      <rect x="137.5" y="16.5" width="5.5" height="5.5" fill="#0e372d"/>
      <rect x="170.5" y="16.5" width="5.5" height="5.5" fill="#0e372d"/>
      <rect x="192.5" y="16.5" width="5.5" height="5.5" fill="#0e372d"/>
      <rect x="198.0" y="16.5" width="5.5" height="5.5" fill="#0e372d"/>
      <rect x="209.0" y="16.5" width="5.5" height="5.5" fill="#0e372d"/>
      <rect x="220.0" y="16.5" width="5.5" height="5.5" fill="#0e372d"/>
      <rect x="225.5" y="16.5" width="5.5" height="5.5" fill="#0e372d"/>
      <rect x="231.0" y="16.5" width="5.5" height="5.5" fill="#0e372d"/>
      <rect x="242.0" y="16.5" width="5.5" height="5.5" fill="#0e372d"/>
      <rect x="0.0" y="22.0" width="5.5" height="5.5" fill="#0e372d"/>
      <rect x="11.0" y="22.0" width="5.5" height="5.5" fill="#0e372d"/>
      <rect x="16.5" y="22.0" width="5.5" height="5.5" fill="#0e372d"/>
      <rect x="22.0" y="22.0" width="5.5" height="5.5" fill="#0e372d"/>
      <rect x="33.0" y="22.0" width="5.5" height="5.5" fill="#0e372d"/>
      <rect x="55.0" y="22.0" width="5.5" height="5.5" fill="#0e372d"/>
      <rect x="77.0" y="22.0" width="5.5" height="5.5" fill="#0e372d"/>
      <rect x="93.5" y="22.0" width="5.5" height="5.5" fill="#0e372d"/>
      <rect x="104.5" y="22.0" width="5.5" height="5.5" fill="#0e372d"/>
      <rect x="110.0" y="22.0" width="5.5" height="5.5" fill="#0e372d"/>
      <rect x="115.5" y="22.0" width="5.5" height="5.5" fill="#0e372d"/>
      <rect x="121.0" y="22.0" width="5.5" height="5.5" fill="#0e372d"/>
      <rect x="126.5" y="22.0" width="5.5" height="5.5" fill="#0e372d"/>
      <rect x="132.0" y="22.0" width="5.5" height="5.5" fill="#0e372d"/>
      <rect x="137.5" y="22.0" width="5.5" height="5.5" fill="#0e372d"/>
      <rect x="148.5" y="22.0" width="5.5" height="5.5" fill="#0e372d"/>
      <rect x="154.0" y="22.0" width="5.5" height="5.5" fill="#0e372d"/>
      <rect x="165.0" y="22.0" width="5.5" height="5.5" fill="#0e372d"/>
      <rect x="170.5" y="22.0" width="5.5" height="5.5" fill="#0e372d"/>
      <rect x="187.0" y="22.0" width="5.5" height="5.5" fill="#0e372d"/>
      <rect x="192.5" y="22.0" width="5.5" height="5.5" fill="#0e372d"/>
      <rect x="198.0" y="22.0" width="5.5" height="5.5" fill="#0e372d"/>
      <rect x="209.0" y="22.0" width="5.5" height="5.5" fill="#0e372d"/>
      <rect x="220.0" y="22.0" width="5.5" height="5.5" fill="#0e372d"/>
      <rect x="225.5" y="22.0" width="5.5" height="5.5" fill="#0e372d"/>
      <rect x="231.0" y="22.0" width="5.5" height="5.5" fill="#0e372d"/>
      <rect x="242.0" y="22.0" width="5.5" height="5.5" fill="#0e372d"/>
      <rect x="0.0" y="27.5" width="5.5" height="5.5" fill="#0e372d"/>
      <rect x="33.0" y="27.5" width="5.5" height="5.5" fill="#0e372d"/>
      <rect x="44.0" y="27.5" width="5.5" height="5.5" fill="#0e372d"/>
      <rect x="55.0" y="27.5" width="5.5" height="5.5" fill="#0e372d"/>
      <rect x="71.5" y="27.5" width="5.5" height="5.5" fill="#0e372d"/>
      <rect x="77.0" y="27.5" width="5.5" height="5.5" fill="#0e372d"/>
      <rect x="82.5" y="27.5" width="5.5" height="5.5" fill="#0e372d"/>
      <rect x="88.0" y="27.5" width="5.5" height="5.5" fill="#0e372d"/>
      <rect x="99.0" y="27.5" width="5.5" height="5.5" fill="#0e372d"/>
      <rect x="110.0" y="27.5" width="5.5" height="5.5" fill="#0e372d"/>
      <rect x="132.0" y="27.5" width="5.5" height="5.5" fill="#0e372d"/>
      <rect x="143.0" y="27.5" width="5.5" height="5.5" fill="#0e372d"/>
      <rect x="148.5" y="27.5" width="5.5" height="5.5" fill="#0e372d"/>
      <rect x="170.5" y="27.5" width="5.5" height="5.5" fill="#0e372d"/>
      <rect x="181.5" y="27.5" width="5.5" height="5.5" fill="#0e372d"/>
      <rect x="209.0" y="27.5" width="5.5" height="5.5" fill="#0e372d"/>
      <rect x="242.0" y="27.5" width="5.5" height="5.5" fill="#0e372d"/>
      <rect x="0.0" y="33.0" width="5.5" height="5.5" fill="#0e372d"/>
      <rect x="5.5" y="33.0" width="5.5" height="5.5" fill="#0e372d"/>
      <rect x="11.0" y="33.0" width="5.5" height="5.5" fill="#0e372d"/>
      <rect x="16.5" y="33.0" width="5.5" height="5.5" fill="#0e372d"/>
      <rect x="22.0" y="33.0" width="5.5" height="5.5" fill="#0e372d"/>
      <rect x="27.5" y="33.0" width="5.5" height="5.5" fill="#0e372d"/>
      <rect x="33.0" y="33.0" width="5.5" height="5.5" fill="#0e372d"/>
      <rect x="44.0" y="33.0" width="5.5" height="5.5" fill="#0e372d"/>
      <rect x="55.0" y="33.0" width="5.5" height="5.5" fill="#0e372d"/>
      <rect x="66.0" y="33.0" width="5.5" height="5.5" fill="#0e372d"/>
      <rect x="77.0" y="33.0" width="5.5" height="5.5" fill="#0e372d"/>
      <rect x="88.0" y="33.0" width="5.5" height="5.5" fill="#0e372d"/>
      <rect x="99.0" y="33.0" width="5.5" height="5.5" fill="#0e372d"/>
      <rect x="110.0" y="33.0" width="5.5" height="5.5" fill="#0e372d"/>
      <rect x="121.0" y="33.0" width="5.5" height="5.5" fill="#0e372d"/>
      <rect x="132.0" y="33.0" width="5.5" height="5.5" fill="#0e372d"/>
      <rect x="143.0" y="33.0" width="5.5" height="5.5" fill="#0e372d"/>
      <rect x="154.0" y="33.0" width="5.5" height="5.5" fill="#0e372d"/>
      <rect x="165.0" y="33.0" width="5.5" height="5.5" fill="#0e372d"/>
      <rect x="176.0" y="33.0" width="5.5" height="5.5" fill="#0e372d"/>
      <rect x="187.0" y="33.0" width="5.5" height="5.5" fill="#0e372d"/>
      <rect x="198.0" y="33.0" width="5.5" height="5.5" fill="#0e372d"/>
      <rect x="209.0" y="33.0" width="5.5" height="5.5" fill="#0e372d"/>
      <rect x="214.5" y="33.0" width="5.5" height="5.5" fill="#0e372d"/>
      <rect x="220.0" y="33.0" width="5.5" height="5.5" fill="#0e372d"/>
      <rect x="225.5" y="33.0" width="5.5" height="5.5" fill="#0e372d"/>
      <rect x="231.0" y="33.0" width="5.5" height="5.5" fill="#0e372d"/>
      <rect x="236.5" y="33.0" width="5.5" height="5.5" fill="#0e372d"/>
      <rect x="242.0" y="33.0" width="5.5" height="5.5" fill="#0e372d"/>
      <rect x="49.5" y="38.5" width="5.5" height="5.5" fill="#0e372d"/>
      <rect x="55.0" y="38.5" width="5.5" height="5.5" fill="#0e372d"/>
      <rect x="66.0" y="38.5" width="5.5" height="5.5" fill="#0e372d"/>
      <rect x="77.0" y="38.5" width="5.5" height="5.5" fill="#0e372d"/>
      <rect x="88.0" y="38.5" width="5.5" height="5.5" fill="#0e372d"/>
      <rect x="99.0" y="38.5" width="5.5" height="5.5" fill="#0e372d"/>
      <rect x="104.5" y="38.5" width="5.5" height="5.5" fill="#0e372d"/>
      <rect x="110.0" y="38.5" width="5.5" height="5.5" fill="#0e372d"/>
      <rect x="132.0" y="38.5" width="5.5" height="5.5" fill="#0e372d"/>
      <rect x="137.5" y="38.5" width="5.5" height="5.5" fill="#0e372d"/>
      <rect x="148.5" y="38.5" width="5.5" height="5.5" fill="#0e372d"/>
      <rect x="154.0" y="38.5" width="5.5" height="5.5" fill="#0e372d"/>
      <rect x="159.5" y="38.5" width="5.5" height="5.5" fill="#0e372d"/>
      <rect x="176.0" y="38.5" width="5.5" height="5.5" fill="#0e372d"/>
      <rect x="198.0" y="38.5" width="5.5" height="5.5" fill="#0e372d"/>
      <rect x="0.0" y="44.0" width="5.5" height="5.5" fill="#0e372d"/>
      <rect x="5.5" y="44.0" width="5.5" height="5.5" fill="#0e372d"/>
      <rect x="11.0" y="44.0" width="5.5" height="5.5" fill="#0e372d"/>
      <rect x="16.5" y="44.0" width="5.5" height="5.5" fill="#0e372d"/>
      <rect x="22.0" y="44.0" width="5.5" height="5.5" fill="#0e372d"/>
      <rect x="33.0" y="44.0" width="5.5" height="5.5" fill="#0e372d"/>
      <rect x="38.5" y="44.0" width="5.5" height="5.5" fill="#0e372d"/>
      <rect x="44.0" y="44.0" width="5.5" height="5.5" fill="#0e372d"/>
      <rect x="49.5" y="44.0" width="5.5" height="5.5" fill="#0e372d"/>
      <rect x="60.5" y="44.0" width="5.5" height="5.5" fill="#0e372d"/>
      <rect x="66.0" y="44.0" width="5.5" height="5.5" fill="#0e372d"/>
      <rect x="71.5" y="44.0" width="5.5" height="5.5" fill="#0e372d"/>
      <rect x="77.0" y="44.0" width="5.5" height="5.5" fill="#0e372d"/>
      <rect x="82.5" y="44.0" width="5.5" height="5.5" fill="#0e372d"/>
      <rect x="93.5" y="44.0" width="5.5" height="5.5" fill="#0e372d"/>
      <rect x="99.0" y="44.0" width="5.5" height="5.5" fill="#0e372d"/>
      <rect x="110.0" y="44.0" width="5.5" height="5.5" fill="#0e372d"/>
      <rect x="115.5" y="44.0" width="5.5" height="5.5" fill="#0e372d"/>
      <rect x="121.0" y="44.0" width="5.5" height="5.5" fill="#0e372d"/>
      <rect x="126.5" y="44.0" width="5.5" height="5.5" fill="#0e372d"/>
      <rect x="132.0" y="44.0" width="5.5" height="5.5" fill="#0e372d"/>
      <rect x="148.5" y="44.0" width="5.5" height="5.5" fill="#0e372d"/>
      <rect x="170.5" y="44.0" width="5.5" height="5.5" fill="#0e372d"/>
      <rect x="192.5" y="44.0" width="5.5" height="5.5" fill="#0e372d"/>
      <rect x="203.5" y="44.0" width="5.5" height="5.5" fill="#0e372d"/>
      <rect x="214.5" y="44.0" width="5.5" height="5.5" fill="#0e372d"/>
      <rect x="225.5" y="44.0" width="5.5" height="5.5" fill="#0e372d"/>
      <rect x="236.5" y="44.0" width="5.5" height="5.5" fill="#0e372d"/>
      <rect x="11.0" y="49.5" width="5.5" height="5.5" fill="#0e372d"/>
      <rect x="16.5" y="49.5" width="5.5" height="5.5" fill="#0e372d"/>
      <rect x="27.5" y="49.5" width="5.5" height="5.5" fill="#0e372d"/>
      <rect x="44.0" y="49.5" width="5.5" height="5.5" fill="#0e372d"/>
      <rect x="49.5" y="49.5" width="5.5" height="5.5" fill="#0e372d"/>
      <rect x="55.0" y="49.5" width="5.5" height="5.5" fill="#0e372d"/>
      <rect x="66.0" y="49.5" width="5.5" height="5.5" fill="#0e372d"/>
      <rect x="82.5" y="49.5" width="5.5" height="5.5" fill="#0e372d"/>
      <rect x="93.5" y="49.5" width="5.5" height="5.5" fill="#0e372d"/>
      <rect x="110.0" y="49.5" width="5.5" height="5.5" fill="#0e372d"/>
      <rect x="126.5" y="49.5" width="5.5" height="5.5" fill="#0e372d"/>
      <rect x="132.0" y="49.5" width="5.5" height="5.5" fill="#0e372d"/>
      <rect x="137.5" y="49.5" width="5.5" height="5.5" fill="#0e372d"/>
      <rect x="159.5" y="49.5" width="5.5" height="5.5" fill="#0e372d"/>
      <rect x="165.0" y="49.5" width="5.5" height="5.5" fill="#0e372d"/>
      <rect x="170.5" y="49.5" width="5.5" height="5.5" fill="#0e372d"/>
      <rect x="187.0" y="49.5" width="5.5" height="5.5" fill="#0e372d"/>
      <rect x="192.5" y="49.5" width="5.5" height="5.5" fill="#0e372d"/>
      <rect x="198.0" y="49.5" width="5.5" height="5.5" fill="#0e372d"/>
      <rect x="231.0" y="49.5" width="5.5" height="5.5" fill="#0e372d"/>
      <rect x="242.0" y="49.5" width="5.5" height="5.5" fill="#0e372d"/>
      <rect x="16.5" y="55.0" width="5.5" height="5.5" fill="#0e372d"/>
      <rect x="22.0" y="55.0" width="5.5" height="5.5" fill="#0e372d"/>
      <rect x="27.5" y="55.0" width="5.5" height="5.5" fill="#0e372d"/>
      <rect x="33.0" y="55.0" width="5.5" height="5.5" fill="#0e372d"/>
      <rect x="44.0" y="55.0" width="5.5" height="5.5" fill="#0e372d"/>
      <rect x="49.5" y="55.0" width="5.5" height="5.5" fill="#0e372d"/>
      <rect x="60.5" y="55.0" width="5.5" height="5.5" fill="#0e372d"/>
      <rect x="66.0" y="55.0" width="5.5" height="5.5" fill="#0e372d"/>
      <rect x="82.5" y="55.0" width="5.5" height="5.5" fill="#0e372d"/>
      <rect x="88.0" y="55.0" width="5.5" height="5.5" fill="#0e372d"/>
      <rect x="99.0" y="55.0" width="5.5" height="5.5" fill="#0e372d"/>
      <rect x="104.5" y="55.0" width="5.5" height="5.5" fill="#0e372d"/>
      <rect x="110.0" y="55.0" width="5.5" height="5.5" fill="#0e372d"/>
      <rect x="115.5" y="55.0" width="5.5" height="5.5" fill="#0e372d"/>
      <rect x="126.5" y="55.0" width="5.5" height="5.5" fill="#0e372d"/>
      <rect x="132.0" y="55.0" width="5.5" height="5.5" fill="#0e372d"/>
      <rect x="143.0" y="55.0" width="5.5" height="5.5" fill="#0e372d"/>
      <rect x="176.0" y="55.0" width="5.5" height="5.5" fill="#0e372d"/>
      <rect x="181.5" y="55.0" width="5.5" height="5.5" fill="#0e372d"/>
      <rect x="187.0" y="55.0" width="5.5" height="5.5" fill="#0e372d"/>
      <rect x="192.5" y="55.0" width="5.5" height="5.5" fill="#0e372d"/>
      <rect x="209.0" y="55.0" width="5.5" height="5.5" fill="#0e372d"/>
      <rect x="220.0" y="55.0" width="5.5" height="5.5" fill="#0e372d"/>
      <rect x="231.0" y="55.0" width="5.5" height="5.5" fill="#0e372d"/>
      <rect x="0.0" y="60.5" width="5.5" height="5.5" fill="#0e372d"/>
      <rect x="16.5" y="60.5" width="5.5" height="5.5" fill="#0e372d"/>
      <rect x="27.5" y="60.5" width="5.5" height="5.5" fill="#0e372d"/>
      <rect x="38.5" y="60.5" width="5.5" height="5.5" fill="#0e372d"/>
      <rect x="49.5" y="60.5" width="5.5" height="5.5" fill="#0e372d"/>
      <rect x="82.5" y="60.5" width="5.5" height="5.5" fill="#0e372d"/>
      <rect x="88.0" y="60.5" width="5.5" height="5.5" fill="#0e372d"/>
      <rect x="93.5" y="60.5" width="5.5" height="5.5" fill="#0e372d"/>
      <rect x="104.5" y="60.5" width="5.5" height="5.5" fill="#0e372d"/>
      <rect x="132.0" y="60.5" width="5.5" height="5.5" fill="#0e372d"/>
      <rect x="137.5" y="60.5" width="5.5" height="5.5" fill="#0e372d"/>
      <rect x="143.0" y="60.5" width="5.5" height="5.5" fill="#0e372d"/>
      <rect x="154.0" y="60.5" width="5.5" height="5.5" fill="#0e372d"/>
      <rect x="165.0" y="60.5" width="5.5" height="5.5" fill="#0e372d"/>
      <rect x="176.0" y="60.5" width="5.5" height="5.5" fill="#0e372d"/>
      <rect x="181.5" y="60.5" width="5.5" height="5.5" fill="#0e372d"/>
      <rect x="187.0" y="60.5" width="5.5" height="5.5" fill="#0e372d"/>
      <rect x="192.5" y="60.5" width="5.5" height="5.5" fill="#0e372d"/>
      <rect x="203.5" y="60.5" width="5.5" height="5.5" fill="#0e372d"/>
      <rect x="214.5" y="60.5" width="5.5" height="5.5" fill="#0e372d"/>
      <rect x="220.0" y="60.5" width="5.5" height="5.5" fill="#0e372d"/>
      <rect x="225.5" y="60.5" width="5.5" height="5.5" fill="#0e372d"/>
      <rect x="231.0" y="60.5" width="5.5" height="5.5" fill="#0e372d"/>
      <rect x="5.5" y="66.0" width="5.5" height="5.5" fill="#0e372d"/>
      <rect x="11.0" y="66.0" width="5.5" height="5.5" fill="#0e372d"/>
      <rect x="16.5" y="66.0" width="5.5" height="5.5" fill="#0e372d"/>
      <rect x="22.0" y="66.0" width="5.5" height="5.5" fill="#0e372d"/>
      <rect x="27.5" y="66.0" width="5.5" height="5.5" fill="#0e372d"/>
      <rect x="33.0" y="66.0" width="5.5" height="5.5" fill="#0e372d"/>
      <rect x="38.5" y="66.0" width="5.5" height="5.5" fill="#0e372d"/>
      <rect x="55.0" y="66.0" width="5.5" height="5.5" fill="#0e372d"/>
      <rect x="60.5" y="66.0" width="5.5" height="5.5" fill="#0e372d"/>
      <rect x="66.0" y="66.0" width="5.5" height="5.5" fill="#0e372d"/>
      <rect x="71.5" y="66.0" width="5.5" height="5.5" fill="#0e372d"/>
      <rect x="82.5" y="66.0" width="5.5" height="5.5" fill="#0e372d"/>
      <rect x="88.0" y="66.0" width="5.5" height="5.5" fill="#0e372d"/>
      <rect x="93.5" y="66.0" width="5.5" height="5.5" fill="#0e372d"/>
      <rect x="99.0" y="66.0" width="5.5" height="5.5" fill="#0e372d"/>
      <rect x="104.5" y="66.0" width="5.5" height="5.5" fill="#0e372d"/>
      <rect x="110.0" y="66.0" width="5.5" height="5.5" fill="#0e372d"/>
      <rect x="115.5" y="66.0" width="5.5" height="5.5" fill="#0e372d"/>
      <rect x="121.0" y="66.0" width="5.5" height="5.5" fill="#0e372d"/>
      <rect x="132.0" y="66.0" width="5.5" height="5.5" fill="#0e372d"/>
      <rect x="143.0" y="66.0" width="5.5" height="5.5" fill="#0e372d"/>
      <rect x="165.0" y="66.0" width="5.5" height="5.5" fill="#0e372d"/>
      <rect x="170.5" y="66.0" width="5.5" height="5.5" fill="#0e372d"/>
      <rect x="192.5" y="66.0" width="5.5" height="5.5" fill="#0e372d"/>
      <rect x="209.0" y="66.0" width="5.5" height="5.5" fill="#0e372d"/>
      <rect x="236.5" y="66.0" width="5.5" height="5.5" fill="#0e372d"/>
      <rect x="11.0" y="71.5" width="5.5" height="5.5" fill="#0e372d"/>
      <rect x="27.5" y="71.5" width="5.5" height="5.5" fill="#0e372d"/>
      <rect x="44.0" y="71.5" width="5.5" height="5.5" fill="#0e372d"/>
      <rect x="55.0" y="71.5" width="5.5" height="5.5" fill="#0e372d"/>
      <rect x="60.5" y="71.5" width="5.5" height="5.5" fill="#0e372d"/>
      <rect x="66.0" y="71.5" width="5.5" height="5.5" fill="#0e372d"/>
      <rect x="71.5" y="71.5" width="5.5" height="5.5" fill="#0e372d"/>
      <rect x="77.0" y="71.5" width="5.5" height="5.5" fill="#0e372d"/>
      <rect x="104.5" y="71.5" width="5.5" height="5.5" fill="#0e372d"/>
      <rect x="110.0" y="71.5" width="5.5" height="5.5" fill="#0e372d"/>
      <rect x="115.5" y="71.5" width="5.5" height="5.5" fill="#0e372d"/>
      <rect x="121.0" y="71.5" width="5.5" height="5.5" fill="#0e372d"/>
      <rect x="137.5" y="71.5" width="5.5" height="5.5" fill="#0e372d"/>
      <rect x="159.5" y="71.5" width="5.5" height="5.5" fill="#0e372d"/>
      <rect x="165.0" y="71.5" width="5.5" height="5.5" fill="#0e372d"/>
      <rect x="192.5" y="71.5" width="5.5" height="5.5" fill="#0e372d"/>
      <rect x="198.0" y="71.5" width="5.5" height="5.5" fill="#0e372d"/>
      <rect x="203.5" y="71.5" width="5.5" height="5.5" fill="#0e372d"/>
      <rect x="214.5" y="71.5" width="5.5" height="5.5" fill="#0e372d"/>
      <rect x="231.0" y="71.5" width="5.5" height="5.5" fill="#0e372d"/>
      <rect x="242.0" y="71.5" width="5.5" height="5.5" fill="#0e372d"/>
      <rect x="5.5" y="77.0" width="5.5" height="5.5" fill="#0e372d"/>
      <rect x="22.0" y="77.0" width="5.5" height="5.5" fill="#0e372d"/>
      <rect x="33.0" y="77.0" width="5.5" height="5.5" fill="#0e372d"/>
      <rect x="55.0" y="77.0" width="5.5" height="5.5" fill="#0e372d"/>
      <rect x="60.5" y="77.0" width="5.5" height="5.5" fill="#0e372d"/>
      <rect x="110.0" y="77.0" width="5.5" height="5.5" fill="#0e372d"/>
      <rect x="126.5" y="77.0" width="5.5" height="5.5" fill="#0e372d"/>
      <rect x="132.0" y="77.0" width="5.5" height="5.5" fill="#0e372d"/>
      <rect x="137.5" y="77.0" width="5.5" height="5.5" fill="#0e372d"/>
      <rect x="143.0" y="77.0" width="5.5" height="5.5" fill="#0e372d"/>
      <rect x="148.5" y="77.0" width="5.5" height="5.5" fill="#0e372d"/>
      <rect x="176.0" y="77.0" width="5.5" height="5.5" fill="#0e372d"/>
      <rect x="181.5" y="77.0" width="5.5" height="5.5" fill="#0e372d"/>
      <rect x="187.0" y="77.0" width="5.5" height="5.5" fill="#0e372d"/>
      <rect x="209.0" y="77.0" width="5.5" height="5.5" fill="#0e372d"/>
      <rect x="214.5" y="77.0" width="5.5" height="5.5" fill="#0e372d"/>
      <rect x="231.0" y="77.0" width="5.5" height="5.5" fill="#0e372d"/>
      <rect x="0.0" y="82.5" width="5.5" height="5.5" fill="#0e372d"/>
      <rect x="11.0" y="82.5" width="5.5" height="5.5" fill="#0e372d"/>
      <rect x="27.5" y="82.5" width="5.5" height="5.5" fill="#0e372d"/>
      <rect x="38.5" y="82.5" width="5.5" height="5.5" fill="#0e372d"/>
      <rect x="55.0" y="82.5" width="5.5" height="5.5" fill="#0e372d"/>
      <rect x="71.5" y="82.5" width="5.5" height="5.5" fill="#0e372d"/>
      <rect x="82.5" y="82.5" width="5.5" height="5.5" fill="#0e372d"/>
      <rect x="88.0" y="82.5" width="5.5" height="5.5" fill="#0e372d"/>
      <rect x="93.5" y="82.5" width="5.5" height="5.5" fill="#0e372d"/>
      <rect x="99.0" y="82.5" width="5.5" height="5.5" fill="#0e372d"/>
      <rect x="104.5" y="82.5" width="5.5" height="5.5" fill="#0e372d"/>
      <rect x="126.5" y="82.5" width="5.5" height="5.5" fill="#0e372d"/>
      <rect x="143.0" y="82.5" width="5.5" height="5.5" fill="#0e372d"/>
      <rect x="148.5" y="82.5" width="5.5" height="5.5" fill="#0e372d"/>
      <rect x="154.0" y="82.5" width="5.5" height="5.5" fill="#0e372d"/>
      <rect x="159.5" y="82.5" width="5.5" height="5.5" fill="#0e372d"/>
      <rect x="165.0" y="82.5" width="5.5" height="5.5" fill="#0e372d"/>
      <rect x="170.5" y="82.5" width="5.5" height="5.5" fill="#0e372d"/>
      <rect x="176.0" y="82.5" width="5.5" height="5.5" fill="#0e372d"/>
      <rect x="181.5" y="82.5" width="5.5" height="5.5" fill="#0e372d"/>
      <rect x="192.5" y="82.5" width="5.5" height="5.5" fill="#0e372d"/>
      <rect x="214.5" y="82.5" width="5.5" height="5.5" fill="#0e372d"/>
      <rect x="225.5" y="82.5" width="5.5" height="5.5" fill="#0e372d"/>
      <rect x="231.0" y="82.5" width="5.5" height="5.5" fill="#0e372d"/>
      <rect x="16.5" y="88.0" width="5.5" height="5.5" fill="#0e372d"/>
      <rect x="33.0" y="88.0" width="5.5" height="5.5" fill="#0e372d"/>
      <rect x="38.5" y="88.0" width="5.5" height="5.5" fill="#0e372d"/>
      <rect x="49.5" y="88.0" width="5.5" height="5.5" fill="#0e372d"/>
      <rect x="55.0" y="88.0" width="5.5" height="5.5" fill="#0e372d"/>
      <rect x="88.0" y="88.0" width="5.5" height="5.5" fill="#0e372d"/>
      <rect x="93.5" y="88.0" width="5.5" height="5.5" fill="#0e372d"/>
      <rect x="99.0" y="88.0" width="5.5" height="5.5" fill="#0e372d"/>
      <rect x="115.5" y="88.0" width="5.5" height="5.5" fill="#0e372d"/>
      <rect x="121.0" y="88.0" width="5.5" height="5.5" fill="#0e372d"/>
      <rect x="132.0" y="88.0" width="5.5" height="5.5" fill="#0e372d"/>
      <rect x="159.5" y="88.0" width="5.5" height="5.5" fill="#0e372d"/>
      <rect x="170.5" y="88.0" width="5.5" height="5.5" fill="#0e372d"/>
      <rect x="181.5" y="88.0" width="5.5" height="5.5" fill="#0e372d"/>
      <rect x="187.0" y="88.0" width="5.5" height="5.5" fill="#0e372d"/>
      <rect x="214.5" y="88.0" width="5.5" height="5.5" fill="#0e372d"/>
      <rect x="220.0" y="88.0" width="5.5" height="5.5" fill="#0e372d"/>
      <rect x="236.5" y="88.0" width="5.5" height="5.5" fill="#0e372d"/>
      <rect x="11.0" y="93.5" width="5.5" height="5.5" fill="#0e372d"/>
      <rect x="38.5" y="93.5" width="5.5" height="5.5" fill="#0e372d"/>
      <rect x="44.0" y="93.5" width="5.5" height="5.5" fill="#0e372d"/>
      <rect x="49.5" y="93.5" width="5.5" height="5.5" fill="#0e372d"/>
      <rect x="71.5" y="93.5" width="5.5" height="5.5" fill="#0e372d"/>
      <rect x="82.5" y="93.5" width="5.5" height="5.5" fill="#0e372d"/>
      <rect x="137.5" y="93.5" width="5.5" height="5.5" fill="#0e372d"/>
      <rect x="154.0" y="93.5" width="5.5" height="5.5" fill="#0e372d"/>
      <rect x="165.0" y="93.5" width="5.5" height="5.5" fill="#0e372d"/>
      <rect x="176.0" y="93.5" width="5.5" height="5.5" fill="#0e372d"/>
      <rect x="181.5" y="93.5" width="5.5" height="5.5" fill="#0e372d"/>
      <rect x="187.0" y="93.5" width="5.5" height="5.5" fill="#0e372d"/>
      <rect x="192.5" y="93.5" width="5.5" height="5.5" fill="#0e372d"/>
      <rect x="198.0" y="93.5" width="5.5" height="5.5" fill="#0e372d"/>
      <rect x="203.5" y="93.5" width="5.5" height="5.5" fill="#0e372d"/>
      <rect x="209.0" y="93.5" width="5.5" height="5.5" fill="#0e372d"/>
      <rect x="231.0" y="93.5" width="5.5" height="5.5" fill="#0e372d"/>
      <rect x="236.5" y="93.5" width="5.5" height="5.5" fill="#0e372d"/>
      <rect x="242.0" y="93.5" width="5.5" height="5.5" fill="#0e372d"/>
      <rect x="0.0" y="99.0" width="5.5" height="5.5" fill="#0e372d"/>
      <rect x="5.5" y="99.0" width="5.5" height="5.5" fill="#0e372d"/>
      <rect x="16.5" y="99.0" width="5.5" height="5.5" fill="#0e372d"/>
      <rect x="22.0" y="99.0" width="5.5" height="5.5" fill="#0e372d"/>
      <rect x="27.5" y="99.0" width="5.5" height="5.5" fill="#0e372d"/>
      <rect x="33.0" y="99.0" width="5.5" height="5.5" fill="#0e372d"/>
      <rect x="49.5" y="99.0" width="5.5" height="5.5" fill="#0e372d"/>
      <rect x="66.0" y="99.0" width="5.5" height="5.5" fill="#0e372d"/>
      <rect x="93.5" y="99.0" width="5.5" height="5.5" fill="#0e372d"/>
      <rect x="99.0" y="99.0" width="5.5" height="5.5" fill="#0e372d"/>
      <rect x="110.0" y="99.0" width="5.5" height="5.5" fill="#0e372d"/>
      <rect x="132.0" y="99.0" width="5.5" height="5.5" fill="#0e372d"/>
      <rect x="143.0" y="99.0" width="5.5" height="5.5" fill="#0e372d"/>
      <rect x="148.5" y="99.0" width="5.5" height="5.5" fill="#0e372d"/>
      <rect x="154.0" y="99.0" width="5.5" height="5.5" fill="#0e372d"/>
      <rect x="181.5" y="99.0" width="5.5" height="5.5" fill="#0e372d"/>
      <rect x="192.5" y="99.0" width="5.5" height="5.5" fill="#0e372d"/>
      <rect x="198.0" y="99.0" width="5.5" height="5.5" fill="#0e372d"/>
      <rect x="209.0" y="99.0" width="5.5" height="5.5" fill="#0e372d"/>
      <rect x="214.5" y="99.0" width="5.5" height="5.5" fill="#0e372d"/>
      <rect x="236.5" y="99.0" width="5.5" height="5.5" fill="#0e372d"/>
      <rect x="11.0" y="104.5" width="5.5" height="5.5" fill="#0e372d"/>
      <rect x="16.5" y="104.5" width="5.5" height="5.5" fill="#0e372d"/>
      <rect x="22.0" y="104.5" width="5.5" height="5.5" fill="#0e372d"/>
      <rect x="38.5" y="104.5" width="5.5" height="5.5" fill="#0e372d"/>
      <rect x="44.0" y="104.5" width="5.5" height="5.5" fill="#0e372d"/>
      <rect x="60.5" y="104.5" width="5.5" height="5.5" fill="#0e372d"/>
      <rect x="66.0" y="104.5" width="5.5" height="5.5" fill="#0e372d"/>
      <rect x="71.5" y="104.5" width="5.5" height="5.5" fill="#0e372d"/>
      <rect x="77.0" y="104.5" width="5.5" height="5.5" fill="#0e372d"/>
      <rect x="93.5" y="104.5" width="5.5" height="5.5" fill="#0e372d"/>
      <rect x="99.0" y="104.5" width="5.5" height="5.5" fill="#0e372d"/>
      <rect x="104.5" y="104.5" width="5.5" height="5.5" fill="#0e372d"/>
      <rect x="115.5" y="104.5" width="5.5" height="5.5" fill="#0e372d"/>
      <rect x="137.5" y="104.5" width="5.5" height="5.5" fill="#0e372d"/>
      <rect x="148.5" y="104.5" width="5.5" height="5.5" fill="#0e372d"/>
      <rect x="154.0" y="104.5" width="5.5" height="5.5" fill="#0e372d"/>
      <rect x="159.5" y="104.5" width="5.5" height="5.5" fill="#0e372d"/>
      <rect x="165.0" y="104.5" width="5.5" height="5.5" fill="#0e372d"/>
      <rect x="176.0" y="104.5" width="5.5" height="5.5" fill="#0e372d"/>
      <rect x="209.0" y="104.5" width="5.5" height="5.5" fill="#0e372d"/>
      <rect x="214.5" y="104.5" width="5.5" height="5.5" fill="#0e372d"/>
      <rect x="220.0" y="104.5" width="5.5" height="5.5" fill="#0e372d"/>
      <rect x="225.5" y="104.5" width="5.5" height="5.5" fill="#0e372d"/>
      <rect x="231.0" y="104.5" width="5.5" height="5.5" fill="#0e372d"/>
      <rect x="236.5" y="104.5" width="5.5" height="5.5" fill="#0e372d"/>
      <rect x="242.0" y="104.5" width="5.5" height="5.5" fill="#0e372d"/>
      <rect x="5.5" y="110.0" width="5.5" height="5.5" fill="#0e372d"/>
      <rect x="16.5" y="110.0" width="5.5" height="5.5" fill="#0e372d"/>
      <rect x="22.0" y="110.0" width="5.5" height="5.5" fill="#0e372d"/>
      <rect x="27.5" y="110.0" width="5.5" height="5.5" fill="#0e372d"/>
      <rect x="33.0" y="110.0" width="5.5" height="5.5" fill="#0e372d"/>
      <rect x="38.5" y="110.0" width="5.5" height="5.5" fill="#0e372d"/>
      <rect x="44.0" y="110.0" width="5.5" height="5.5" fill="#0e372d"/>
      <rect x="60.5" y="110.0" width="5.5" height="5.5" fill="#0e372d"/>
      <rect x="71.5" y="110.0" width="5.5" height="5.5" fill="#0e372d"/>
      <rect x="82.5" y="110.0" width="5.5" height="5.5" fill="#0e372d"/>
      <rect x="88.0" y="110.0" width="5.5" height="5.5" fill="#0e372d"/>
      <rect x="93.5" y="110.0" width="5.5" height="5.5" fill="#0e372d"/>
      <rect x="99.0" y="110.0" width="5.5" height="5.5" fill="#0e372d"/>
      <rect x="110.0" y="110.0" width="5.5" height="5.5" fill="#0e372d"/>
      <rect x="115.5" y="110.0" width="5.5" height="5.5" fill="#0e372d"/>
      <rect x="121.0" y="110.0" width="5.5" height="5.5" fill="#0e372d"/>
      <rect x="126.5" y="110.0" width="5.5" height="5.5" fill="#0e372d"/>
      <rect x="132.0" y="110.0" width="5.5" height="5.5" fill="#0e372d"/>
      <rect x="170.5" y="110.0" width="5.5" height="5.5" fill="#0e372d"/>
      <rect x="181.5" y="110.0" width="5.5" height="5.5" fill="#0e372d"/>
      <rect x="198.0" y="110.0" width="5.5" height="5.5" fill="#0e372d"/>
      <rect x="203.5" y="110.0" width="5.5" height="5.5" fill="#0e372d"/>
      <rect x="209.0" y="110.0" width="5.5" height="5.5" fill="#0e372d"/>
      <rect x="214.5" y="110.0" width="5.5" height="5.5" fill="#0e372d"/>
      <rect x="220.0" y="110.0" width="5.5" height="5.5" fill="#0e372d"/>
      <rect x="236.5" y="110.0" width="5.5" height="5.5" fill="#0e372d"/>
      <rect x="242.0" y="110.0" width="5.5" height="5.5" fill="#0e372d"/>
      <rect x="11.0" y="115.5" width="5.5" height="5.5" fill="#0e372d"/>
      <rect x="16.5" y="115.5" width="5.5" height="5.5" fill="#0e372d"/>
      <rect x="22.0" y="115.5" width="5.5" height="5.5" fill="#0e372d"/>
      <rect x="44.0" y="115.5" width="5.5" height="5.5" fill="#0e372d"/>
      <rect x="49.5" y="115.5" width="5.5" height="5.5" fill="#0e372d"/>
      <rect x="55.0" y="115.5" width="5.5" height="5.5" fill="#0e372d"/>
      <rect x="66.0" y="115.5" width="5.5" height="5.5" fill="#0e372d"/>
      <rect x="77.0" y="115.5" width="5.5" height="5.5" fill="#0e372d"/>
      <rect x="104.5" y="115.5" width="5.5" height="5.5" fill="#0e372d"/>
      <rect x="110.0" y="115.5" width="5.5" height="5.5" fill="#0e372d"/>
      <rect x="132.0" y="115.5" width="5.5" height="5.5" fill="#0e372d"/>
      <rect x="148.5" y="115.5" width="5.5" height="5.5" fill="#0e372d"/>
      <rect x="159.5" y="115.5" width="5.5" height="5.5" fill="#0e372d"/>
      <rect x="165.0" y="115.5" width="5.5" height="5.5" fill="#0e372d"/>
      <rect x="192.5" y="115.5" width="5.5" height="5.5" fill="#0e372d"/>
      <rect x="198.0" y="115.5" width="5.5" height="5.5" fill="#0e372d"/>
      <rect x="220.0" y="115.5" width="5.5" height="5.5" fill="#0e372d"/>
      <rect x="236.5" y="115.5" width="5.5" height="5.5" fill="#0e372d"/>
      <rect x="242.0" y="115.5" width="5.5" height="5.5" fill="#0e372d"/>
      <rect x="11.0" y="121.0" width="5.5" height="5.5" fill="#0e372d"/>
      <rect x="16.5" y="121.0" width="5.5" height="5.5" fill="#0e372d"/>
      <rect x="22.0" y="121.0" width="5.5" height="5.5" fill="#0e372d"/>
      <rect x="33.0" y="121.0" width="5.5" height="5.5" fill="#0e372d"/>
      <rect x="44.0" y="121.0" width="5.5" height="5.5" fill="#0e372d"/>
      <rect x="60.5" y="121.0" width="5.5" height="5.5" fill="#0e372d"/>
      <rect x="66.0" y="121.0" width="5.5" height="5.5" fill="#0e372d"/>
      <rect x="71.5" y="121.0" width="5.5" height="5.5" fill="#0e372d"/>
      <rect x="77.0" y="121.0" width="5.5" height="5.5" fill="#0e372d"/>
      <rect x="82.5" y="121.0" width="5.5" height="5.5" fill="#0e372d"/>
      <rect x="88.0" y="121.0" width="5.5" height="5.5" fill="#0e372d"/>
      <rect x="93.5" y="121.0" width="5.5" height="5.5" fill="#0e372d"/>
      <rect x="104.5" y="121.0" width="5.5" height="5.5" fill="#0e372d"/>
      <rect x="110.0" y="121.0" width="5.5" height="5.5" fill="#0e372d"/>
      <rect x="121.0" y="121.0" width="5.5" height="5.5" fill="#0e372d"/>
      <rect x="132.0" y="121.0" width="5.5" height="5.5" fill="#0e372d"/>
      <rect x="143.0" y="121.0" width="5.5" height="5.5" fill="#0e372d"/>
      <rect x="148.5" y="121.0" width="5.5" height="5.5" fill="#0e372d"/>
      <rect x="159.5" y="121.0" width="5.5" height="5.5" fill="#0e372d"/>
      <rect x="170.5" y="121.0" width="5.5" height="5.5" fill="#0e372d"/>
      <rect x="181.5" y="121.0" width="5.5" height="5.5" fill="#0e372d"/>
      <rect x="187.0" y="121.0" width="5.5" height="5.5" fill="#0e372d"/>
      <rect x="192.5" y="121.0" width="5.5" height="5.5" fill="#0e372d"/>
      <rect x="198.0" y="121.0" width="5.5" height="5.5" fill="#0e372d"/>
      <rect x="209.0" y="121.0" width="5.5" height="5.5" fill="#0e372d"/>
      <rect x="220.0" y="121.0" width="5.5" height="5.5" fill="#0e372d"/>
      <rect x="225.5" y="121.0" width="5.5" height="5.5" fill="#0e372d"/>
      <rect x="231.0" y="121.0" width="5.5" height="5.5" fill="#0e372d"/>
      <rect x="236.5" y="121.0" width="5.5" height="5.5" fill="#0e372d"/>
      <rect x="5.5" y="126.5" width="5.5" height="5.5" fill="#0e372d"/>
      <rect x="11.0" y="126.5" width="5.5" height="5.5" fill="#0e372d"/>
      <rect x="16.5" y="126.5" width="5.5" height="5.5" fill="#0e372d"/>
      <rect x="22.0" y="126.5" width="5.5" height="5.5" fill="#0e372d"/>
      <rect x="44.0" y="126.5" width="5.5" height="5.5" fill="#0e372d"/>
      <rect x="49.5" y="126.5" width="5.5" height="5.5" fill="#0e372d"/>
      <rect x="55.0" y="126.5" width="5.5" height="5.5" fill="#0e372d"/>
      <rect x="77.0" y="126.5" width="5.5" height="5.5" fill="#0e372d"/>
      <rect x="82.5" y="126.5" width="5.5" height="5.5" fill="#0e372d"/>
      <rect x="93.5" y="126.5" width="5.5" height="5.5" fill="#0e372d"/>
      <rect x="104.5" y="126.5" width="5.5" height="5.5" fill="#0e372d"/>
      <rect x="110.0" y="126.5" width="5.5" height="5.5" fill="#0e372d"/>
      <rect x="132.0" y="126.5" width="5.5" height="5.5" fill="#0e372d"/>
      <rect x="137.5" y="126.5" width="5.5" height="5.5" fill="#0e372d"/>
      <rect x="148.5" y="126.5" width="5.5" height="5.5" fill="#0e372d"/>
      <rect x="154.0" y="126.5" width="5.5" height="5.5" fill="#0e372d"/>
      <rect x="165.0" y="126.5" width="5.5" height="5.5" fill="#0e372d"/>
      <rect x="170.5" y="126.5" width="5.5" height="5.5" fill="#0e372d"/>
      <rect x="176.0" y="126.5" width="5.5" height="5.5" fill="#0e372d"/>
      <rect x="181.5" y="126.5" width="5.5" height="5.5" fill="#0e372d"/>
      <rect x="198.0" y="126.5" width="5.5" height="5.5" fill="#0e372d"/>
      <rect x="220.0" y="126.5" width="5.5" height="5.5" fill="#0e372d"/>
      <rect x="225.5" y="126.5" width="5.5" height="5.5" fill="#0e372d"/>
      <rect x="231.0" y="126.5" width="5.5" height="5.5" fill="#0e372d"/>
      <rect x="236.5" y="126.5" width="5.5" height="5.5" fill="#0e372d"/>
      <rect x="0.0" y="132.0" width="5.5" height="5.5" fill="#0e372d"/>
      <rect x="11.0" y="132.0" width="5.5" height="5.5" fill="#0e372d"/>
      <rect x="22.0" y="132.0" width="5.5" height="5.5" fill="#0e372d"/>
      <rect x="27.5" y="132.0" width="5.5" height="5.5" fill="#0e372d"/>
      <rect x="33.0" y="132.0" width="5.5" height="5.5" fill="#0e372d"/>
      <rect x="38.5" y="132.0" width="5.5" height="5.5" fill="#0e372d"/>
      <rect x="44.0" y="132.0" width="5.5" height="5.5" fill="#0e372d"/>
      <rect x="60.5" y="132.0" width="5.5" height="5.5" fill="#0e372d"/>
      <rect x="66.0" y="132.0" width="5.5" height="5.5" fill="#0e372d"/>
      <rect x="71.5" y="132.0" width="5.5" height="5.5" fill="#0e372d"/>
      <rect x="77.0" y="132.0" width="5.5" height="5.5" fill="#0e372d"/>
      <rect x="82.5" y="132.0" width="5.5" height="5.5" fill="#0e372d"/>
      <rect x="88.0" y="132.0" width="5.5" height="5.5" fill="#0e372d"/>
      <rect x="93.5" y="132.0" width="5.5" height="5.5" fill="#0e372d"/>
      <rect x="99.0" y="132.0" width="5.5" height="5.5" fill="#0e372d"/>
      <rect x="110.0" y="132.0" width="5.5" height="5.5" fill="#0e372d"/>
      <rect x="115.5" y="132.0" width="5.5" height="5.5" fill="#0e372d"/>
      <rect x="121.0" y="132.0" width="5.5" height="5.5" fill="#0e372d"/>
      <rect x="126.5" y="132.0" width="5.5" height="5.5" fill="#0e372d"/>
      <rect x="132.0" y="132.0" width="5.5" height="5.5" fill="#0e372d"/>
      <rect x="137.5" y="132.0" width="5.5" height="5.5" fill="#0e372d"/>
      <rect x="165.0" y="132.0" width="5.5" height="5.5" fill="#0e372d"/>
      <rect x="170.5" y="132.0" width="5.5" height="5.5" fill="#0e372d"/>
      <rect x="181.5" y="132.0" width="5.5" height="5.5" fill="#0e372d"/>
      <rect x="192.5" y="132.0" width="5.5" height="5.5" fill="#0e372d"/>
      <rect x="198.0" y="132.0" width="5.5" height="5.5" fill="#0e372d"/>
      <rect x="203.5" y="132.0" width="5.5" height="5.5" fill="#0e372d"/>
      <rect x="209.0" y="132.0" width="5.5" height="5.5" fill="#0e372d"/>
      <rect x="214.5" y="132.0" width="5.5" height="5.5" fill="#0e372d"/>
      <rect x="220.0" y="132.0" width="5.5" height="5.5" fill="#0e372d"/>
      <rect x="225.5" y="132.0" width="5.5" height="5.5" fill="#0e372d"/>
      <rect x="242.0" y="132.0" width="5.5" height="5.5" fill="#0e372d"/>
      <rect x="0.0" y="137.5" width="5.5" height="5.5" fill="#0e372d"/>
      <rect x="11.0" y="137.5" width="5.5" height="5.5" fill="#0e372d"/>
      <rect x="16.5" y="137.5" width="5.5" height="5.5" fill="#0e372d"/>
      <rect x="22.0" y="137.5" width="5.5" height="5.5" fill="#0e372d"/>
      <rect x="44.0" y="137.5" width="5.5" height="5.5" fill="#0e372d"/>
      <rect x="55.0" y="137.5" width="5.5" height="5.5" fill="#0e372d"/>
      <rect x="66.0" y="137.5" width="5.5" height="5.5" fill="#0e372d"/>
      <rect x="93.5" y="137.5" width="5.5" height="5.5" fill="#0e372d"/>
      <rect x="104.5" y="137.5" width="5.5" height="5.5" fill="#0e372d"/>
      <rect x="115.5" y="137.5" width="5.5" height="5.5" fill="#0e372d"/>
      <rect x="121.0" y="137.5" width="5.5" height="5.5" fill="#0e372d"/>
      <rect x="126.5" y="137.5" width="5.5" height="5.5" fill="#0e372d"/>
      <rect x="159.5" y="137.5" width="5.5" height="5.5" fill="#0e372d"/>
      <rect x="165.0" y="137.5" width="5.5" height="5.5" fill="#0e372d"/>
      <rect x="181.5" y="137.5" width="5.5" height="5.5" fill="#0e372d"/>
      <rect x="187.0" y="137.5" width="5.5" height="5.5" fill="#0e372d"/>
      <rect x="198.0" y="137.5" width="5.5" height="5.5" fill="#0e372d"/>
      <rect x="203.5" y="137.5" width="5.5" height="5.5" fill="#0e372d"/>
      <rect x="214.5" y="137.5" width="5.5" height="5.5" fill="#0e372d"/>
      <rect x="225.5" y="137.5" width="5.5" height="5.5" fill="#0e372d"/>
      <rect x="231.0" y="137.5" width="5.5" height="5.5" fill="#0e372d"/>
      <rect x="242.0" y="137.5" width="5.5" height="5.5" fill="#0e372d"/>
      <rect x="5.5" y="143.0" width="5.5" height="5.5" fill="#0e372d"/>
      <rect x="33.0" y="143.0" width="5.5" height="5.5" fill="#0e372d"/>
      <rect x="38.5" y="143.0" width="5.5" height="5.5" fill="#0e372d"/>
      <rect x="44.0" y="143.0" width="5.5" height="5.5" fill="#0e372d"/>
      <rect x="55.0" y="143.0" width="5.5" height="5.5" fill="#0e372d"/>
      <rect x="60.5" y="143.0" width="5.5" height="5.5" fill="#0e372d"/>
      <rect x="66.0" y="143.0" width="5.5" height="5.5" fill="#0e372d"/>
      <rect x="71.5" y="143.0" width="5.5" height="5.5" fill="#0e372d"/>
      <rect x="77.0" y="143.0" width="5.5" height="5.5" fill="#0e372d"/>
      <rect x="82.5" y="143.0" width="5.5" height="5.5" fill="#0e372d"/>
      <rect x="88.0" y="143.0" width="5.5" height="5.5" fill="#0e372d"/>
      <rect x="93.5" y="143.0" width="5.5" height="5.5" fill="#0e372d"/>
      <rect x="110.0" y="143.0" width="5.5" height="5.5" fill="#0e372d"/>
      <rect x="143.0" y="143.0" width="5.5" height="5.5" fill="#0e372d"/>
      <rect x="148.5" y="143.0" width="5.5" height="5.5" fill="#0e372d"/>
      <rect x="159.5" y="143.0" width="5.5" height="5.5" fill="#0e372d"/>
      <rect x="170.5" y="143.0" width="5.5" height="5.5" fill="#0e372d"/>
      <rect x="192.5" y="143.0" width="5.5" height="5.5" fill="#0e372d"/>
      <rect x="203.5" y="143.0" width="5.5" height="5.5" fill="#0e372d"/>
      <rect x="214.5" y="143.0" width="5.5" height="5.5" fill="#0e372d"/>
      <rect x="220.0" y="143.0" width="5.5" height="5.5" fill="#0e372d"/>
      <rect x="225.5" y="143.0" width="5.5" height="5.5" fill="#0e372d"/>
      <rect x="231.0" y="143.0" width="5.5" height="5.5" fill="#0e372d"/>
      <rect x="236.5" y="143.0" width="5.5" height="5.5" fill="#0e372d"/>
      <rect x="5.5" y="148.5" width="5.5" height="5.5" fill="#0e372d"/>
      <rect x="38.5" y="148.5" width="5.5" height="5.5" fill="#0e372d"/>
      <rect x="44.0" y="148.5" width="5.5" height="5.5" fill="#0e372d"/>
      <rect x="49.5" y="148.5" width="5.5" height="5.5" fill="#0e372d"/>
      <rect x="55.0" y="148.5" width="5.5" height="5.5" fill="#0e372d"/>
      <rect x="66.0" y="148.5" width="5.5" height="5.5" fill="#0e372d"/>
      <rect x="71.5" y="148.5" width="5.5" height="5.5" fill="#0e372d"/>
      <rect x="77.0" y="148.5" width="5.5" height="5.5" fill="#0e372d"/>
      <rect x="99.0" y="148.5" width="5.5" height="5.5" fill="#0e372d"/>
      <rect x="104.5" y="148.5" width="5.5" height="5.5" fill="#0e372d"/>
      <rect x="110.0" y="148.5" width="5.5" height="5.5" fill="#0e372d"/>
      <rect x="121.0" y="148.5" width="5.5" height="5.5" fill="#0e372d"/>
      <rect x="126.5" y="148.5" width="5.5" height="5.5" fill="#0e372d"/>
      <rect x="132.0" y="148.5" width="5.5" height="5.5" fill="#0e372d"/>
      <rect x="154.0" y="148.5" width="5.5" height="5.5" fill="#0e372d"/>
      <rect x="165.0" y="148.5" width="5.5" height="5.5" fill="#0e372d"/>
      <rect x="170.5" y="148.5" width="5.5" height="5.5" fill="#0e372d"/>
      <rect x="176.0" y="148.5" width="5.5" height="5.5" fill="#0e372d"/>
      <rect x="192.5" y="148.5" width="5.5" height="5.5" fill="#0e372d"/>
      <rect x="203.5" y="148.5" width="5.5" height="5.5" fill="#0e372d"/>
      <rect x="209.0" y="148.5" width="5.5" height="5.5" fill="#0e372d"/>
      <rect x="214.5" y="148.5" width="5.5" height="5.5" fill="#0e372d"/>
      <rect x="225.5" y="148.5" width="5.5" height="5.5" fill="#0e372d"/>
      <rect x="231.0" y="148.5" width="5.5" height="5.5" fill="#0e372d"/>
      <rect x="5.5" y="154.0" width="5.5" height="5.5" fill="#0e372d"/>
      <rect x="22.0" y="154.0" width="5.5" height="5.5" fill="#0e372d"/>
      <rect x="33.0" y="154.0" width="5.5" height="5.5" fill="#0e372d"/>
      <rect x="38.5" y="154.0" width="5.5" height="5.5" fill="#0e372d"/>
      <rect x="49.5" y="154.0" width="5.5" height="5.5" fill="#0e372d"/>
      <rect x="60.5" y="154.0" width="5.5" height="5.5" fill="#0e372d"/>
      <rect x="88.0" y="154.0" width="5.5" height="5.5" fill="#0e372d"/>
      <rect x="93.5" y="154.0" width="5.5" height="5.5" fill="#0e372d"/>
      <rect x="99.0" y="154.0" width="5.5" height="5.5" fill="#0e372d"/>
      <rect x="132.0" y="154.0" width="5.5" height="5.5" fill="#0e372d"/>
      <rect x="170.5" y="154.0" width="5.5" height="5.5" fill="#0e372d"/>
      <rect x="198.0" y="154.0" width="5.5" height="5.5" fill="#0e372d"/>
      <rect x="225.5" y="154.0" width="5.5" height="5.5" fill="#0e372d"/>
      <rect x="242.0" y="154.0" width="5.5" height="5.5" fill="#0e372d"/>
      <rect x="0.0" y="159.5" width="5.5" height="5.5" fill="#0e372d"/>
      <rect x="5.5" y="159.5" width="5.5" height="5.5" fill="#0e372d"/>
      <rect x="11.0" y="159.5" width="5.5" height="5.5" fill="#0e372d"/>
      <rect x="22.0" y="159.5" width="5.5" height="5.5" fill="#0e372d"/>
      <rect x="44.0" y="159.5" width="5.5" height="5.5" fill="#0e372d"/>
      <rect x="60.5" y="159.5" width="5.5" height="5.5" fill="#0e372d"/>
      <rect x="66.0" y="159.5" width="5.5" height="5.5" fill="#0e372d"/>
      <rect x="77.0" y="159.5" width="5.5" height="5.5" fill="#0e372d"/>
      <rect x="104.5" y="159.5" width="5.5" height="5.5" fill="#0e372d"/>
      <rect x="110.0" y="159.5" width="5.5" height="5.5" fill="#0e372d"/>
      <rect x="115.5" y="159.5" width="5.5" height="5.5" fill="#0e372d"/>
      <rect x="121.0" y="159.5" width="5.5" height="5.5" fill="#0e372d"/>
      <rect x="132.0" y="159.5" width="5.5" height="5.5" fill="#0e372d"/>
      <rect x="137.5" y="159.5" width="5.5" height="5.5" fill="#0e372d"/>
      <rect x="154.0" y="159.5" width="5.5" height="5.5" fill="#0e372d"/>
      <rect x="159.5" y="159.5" width="5.5" height="5.5" fill="#0e372d"/>
      <rect x="165.0" y="159.5" width="5.5" height="5.5" fill="#0e372d"/>
      <rect x="170.5" y="159.5" width="5.5" height="5.5" fill="#0e372d"/>
      <rect x="176.0" y="159.5" width="5.5" height="5.5" fill="#0e372d"/>
      <rect x="181.5" y="159.5" width="5.5" height="5.5" fill="#0e372d"/>
      <rect x="198.0" y="159.5" width="5.5" height="5.5" fill="#0e372d"/>
      <rect x="209.0" y="159.5" width="5.5" height="5.5" fill="#0e372d"/>
      <rect x="214.5" y="159.5" width="5.5" height="5.5" fill="#0e372d"/>
      <rect x="220.0" y="159.5" width="5.5" height="5.5" fill="#0e372d"/>
      <rect x="225.5" y="159.5" width="5.5" height="5.5" fill="#0e372d"/>
      <rect x="231.0" y="159.5" width="5.5" height="5.5" fill="#0e372d"/>
      <rect x="242.0" y="159.5" width="5.5" height="5.5" fill="#0e372d"/>
      <rect x="0.0" y="165.0" width="5.5" height="5.5" fill="#0e372d"/>
      <rect x="5.5" y="165.0" width="5.5" height="5.5" fill="#0e372d"/>
      <rect x="33.0" y="165.0" width="5.5" height="5.5" fill="#0e372d"/>
      <rect x="38.5" y="165.0" width="5.5" height="5.5" fill="#0e372d"/>
      <rect x="44.0" y="165.0" width="5.5" height="5.5" fill="#0e372d"/>
      <rect x="60.5" y="165.0" width="5.5" height="5.5" fill="#0e372d"/>
      <rect x="66.0" y="165.0" width="5.5" height="5.5" fill="#0e372d"/>
      <rect x="82.5" y="165.0" width="5.5" height="5.5" fill="#0e372d"/>
      <rect x="93.5" y="165.0" width="5.5" height="5.5" fill="#0e372d"/>
      <rect x="99.0" y="165.0" width="5.5" height="5.5" fill="#0e372d"/>
      <rect x="115.5" y="165.0" width="5.5" height="5.5" fill="#0e372d"/>
      <rect x="137.5" y="165.0" width="5.5" height="5.5" fill="#0e372d"/>
      <rect x="154.0" y="165.0" width="5.5" height="5.5" fill="#0e372d"/>
      <rect x="170.5" y="165.0" width="5.5" height="5.5" fill="#0e372d"/>
      <rect x="176.0" y="165.0" width="5.5" height="5.5" fill="#0e372d"/>
      <rect x="181.5" y="165.0" width="5.5" height="5.5" fill="#0e372d"/>
      <rect x="187.0" y="165.0" width="5.5" height="5.5" fill="#0e372d"/>
      <rect x="198.0" y="165.0" width="5.5" height="5.5" fill="#0e372d"/>
      <rect x="209.0" y="165.0" width="5.5" height="5.5" fill="#0e372d"/>
      <rect x="220.0" y="165.0" width="5.5" height="5.5" fill="#0e372d"/>
      <rect x="231.0" y="165.0" width="5.5" height="5.5" fill="#0e372d"/>
      <rect x="236.5" y="165.0" width="5.5" height="5.5" fill="#0e372d"/>
      <rect x="22.0" y="170.5" width="5.5" height="5.5" fill="#0e372d"/>
      <rect x="27.5" y="170.5" width="5.5" height="5.5" fill="#0e372d"/>
      <rect x="66.0" y="170.5" width="5.5" height="5.5" fill="#0e372d"/>
      <rect x="71.5" y="170.5" width="5.5" height="5.5" fill="#0e372d"/>
      <rect x="82.5" y="170.5" width="5.5" height="5.5" fill="#0e372d"/>
      <rect x="88.0" y="170.5" width="5.5" height="5.5" fill="#0e372d"/>
      <rect x="93.5" y="170.5" width="5.5" height="5.5" fill="#0e372d"/>
      <rect x="99.0" y="170.5" width="5.5" height="5.5" fill="#0e372d"/>
      <rect x="115.5" y="170.5" width="5.5" height="5.5" fill="#0e372d"/>
      <rect x="132.0" y="170.5" width="5.5" height="5.5" fill="#0e372d"/>
      <rect x="148.5" y="170.5" width="5.5" height="5.5" fill="#0e372d"/>
      <rect x="154.0" y="170.5" width="5.5" height="5.5" fill="#0e372d"/>
      <rect x="159.5" y="170.5" width="5.5" height="5.5" fill="#0e372d"/>
      <rect x="165.0" y="170.5" width="5.5" height="5.5" fill="#0e372d"/>
      <rect x="170.5" y="170.5" width="5.5" height="5.5" fill="#0e372d"/>
      <rect x="176.0" y="170.5" width="5.5" height="5.5" fill="#0e372d"/>
      <rect x="181.5" y="170.5" width="5.5" height="5.5" fill="#0e372d"/>
      <rect x="187.0" y="170.5" width="5.5" height="5.5" fill="#0e372d"/>
      <rect x="192.5" y="170.5" width="5.5" height="5.5" fill="#0e372d"/>
      <rect x="220.0" y="170.5" width="5.5" height="5.5" fill="#0e372d"/>
      <rect x="231.0" y="170.5" width="5.5" height="5.5" fill="#0e372d"/>
      <rect x="16.5" y="176.0" width="5.5" height="5.5" fill="#0e372d"/>
      <rect x="22.0" y="176.0" width="5.5" height="5.5" fill="#0e372d"/>
      <rect x="27.5" y="176.0" width="5.5" height="5.5" fill="#0e372d"/>
      <rect x="33.0" y="176.0" width="5.5" height="5.5" fill="#0e372d"/>
      <rect x="44.0" y="176.0" width="5.5" height="5.5" fill="#0e372d"/>
      <rect x="49.5" y="176.0" width="5.5" height="5.5" fill="#0e372d"/>
      <rect x="66.0" y="176.0" width="5.5" height="5.5" fill="#0e372d"/>
      <rect x="88.0" y="176.0" width="5.5" height="5.5" fill="#0e372d"/>
      <rect x="99.0" y="176.0" width="5.5" height="5.5" fill="#0e372d"/>
      <rect x="126.5" y="176.0" width="5.5" height="5.5" fill="#0e372d"/>
      <rect x="165.0" y="176.0" width="5.5" height="5.5" fill="#0e372d"/>
      <rect x="170.5" y="176.0" width="5.5" height="5.5" fill="#0e372d"/>
      <rect x="198.0" y="176.0" width="5.5" height="5.5" fill="#0e372d"/>
      <rect x="203.5" y="176.0" width="5.5" height="5.5" fill="#0e372d"/>
      <rect x="220.0" y="176.0" width="5.5" height="5.5" fill="#0e372d"/>
      <rect x="0.0" y="181.5" width="5.5" height="5.5" fill="#0e372d"/>
      <rect x="5.5" y="181.5" width="5.5" height="5.5" fill="#0e372d"/>
      <rect x="38.5" y="181.5" width="5.5" height="5.5" fill="#0e372d"/>
      <rect x="44.0" y="181.5" width="5.5" height="5.5" fill="#0e372d"/>
      <rect x="55.0" y="181.5" width="5.5" height="5.5" fill="#0e372d"/>
      <rect x="60.5" y="181.5" width="5.5" height="5.5" fill="#0e372d"/>
      <rect x="71.5" y="181.5" width="5.5" height="5.5" fill="#0e372d"/>
      <rect x="110.0" y="181.5" width="5.5" height="5.5" fill="#0e372d"/>
      <rect x="126.5" y="181.5" width="5.5" height="5.5" fill="#0e372d"/>
      <rect x="132.0" y="181.5" width="5.5" height="5.5" fill="#0e372d"/>
      <rect x="137.5" y="181.5" width="5.5" height="5.5" fill="#0e372d"/>
      <rect x="159.5" y="181.5" width="5.5" height="5.5" fill="#0e372d"/>
      <rect x="165.0" y="181.5" width="5.5" height="5.5" fill="#0e372d"/>
      <rect x="198.0" y="181.5" width="5.5" height="5.5" fill="#0e372d"/>
      <rect x="225.5" y="181.5" width="5.5" height="5.5" fill="#0e372d"/>
      <rect x="231.0" y="181.5" width="5.5" height="5.5" fill="#0e372d"/>
      <rect x="22.0" y="187.0" width="5.5" height="5.5" fill="#0e372d"/>
      <rect x="33.0" y="187.0" width="5.5" height="5.5" fill="#0e372d"/>
      <rect x="38.5" y="187.0" width="5.5" height="5.5" fill="#0e372d"/>
      <rect x="44.0" y="187.0" width="5.5" height="5.5" fill="#0e372d"/>
      <rect x="93.5" y="187.0" width="5.5" height="5.5" fill="#0e372d"/>
      <rect x="99.0" y="187.0" width="5.5" height="5.5" fill="#0e372d"/>
      <rect x="115.5" y="187.0" width="5.5" height="5.5" fill="#0e372d"/>
      <rect x="121.0" y="187.0" width="5.5" height="5.5" fill="#0e372d"/>
      <rect x="137.5" y="187.0" width="5.5" height="5.5" fill="#0e372d"/>
      <rect x="154.0" y="187.0" width="5.5" height="5.5" fill="#0e372d"/>
      <rect x="187.0" y="187.0" width="5.5" height="5.5" fill="#0e372d"/>
      <rect x="198.0" y="187.0" width="5.5" height="5.5" fill="#0e372d"/>
      <rect x="203.5" y="187.0" width="5.5" height="5.5" fill="#0e372d"/>
      <rect x="231.0" y="187.0" width="5.5" height="5.5" fill="#0e372d"/>
      <rect x="236.5" y="187.0" width="5.5" height="5.5" fill="#0e372d"/>
      <rect x="5.5" y="192.5" width="5.5" height="5.5" fill="#0e372d"/>
      <rect x="11.0" y="192.5" width="5.5" height="5.5" fill="#0e372d"/>
      <rect x="16.5" y="192.5" width="5.5" height="5.5" fill="#0e372d"/>
      <rect x="22.0" y="192.5" width="5.5" height="5.5" fill="#0e372d"/>
      <rect x="44.0" y="192.5" width="5.5" height="5.5" fill="#0e372d"/>
      <rect x="55.0" y="192.5" width="5.5" height="5.5" fill="#0e372d"/>
      <rect x="60.5" y="192.5" width="5.5" height="5.5" fill="#0e372d"/>
      <rect x="82.5" y="192.5" width="5.5" height="5.5" fill="#0e372d"/>
      <rect x="104.5" y="192.5" width="5.5" height="5.5" fill="#0e372d"/>
      <rect x="110.0" y="192.5" width="5.5" height="5.5" fill="#0e372d"/>
      <rect x="115.5" y="192.5" width="5.5" height="5.5" fill="#0e372d"/>
      <rect x="132.0" y="192.5" width="5.5" height="5.5" fill="#0e372d"/>
      <rect x="148.5" y="192.5" width="5.5" height="5.5" fill="#0e372d"/>
      <rect x="154.0" y="192.5" width="5.5" height="5.5" fill="#0e372d"/>
      <rect x="165.0" y="192.5" width="5.5" height="5.5" fill="#0e372d"/>
      <rect x="176.0" y="192.5" width="5.5" height="5.5" fill="#0e372d"/>
      <rect x="181.5" y="192.5" width="5.5" height="5.5" fill="#0e372d"/>
      <rect x="192.5" y="192.5" width="5.5" height="5.5" fill="#0e372d"/>
      <rect x="198.0" y="192.5" width="5.5" height="5.5" fill="#0e372d"/>
      <rect x="203.5" y="192.5" width="5.5" height="5.5" fill="#0e372d"/>
      <rect x="209.0" y="192.5" width="5.5" height="5.5" fill="#0e372d"/>
      <rect x="225.5" y="192.5" width="5.5" height="5.5" fill="#0e372d"/>
      <rect x="231.0" y="192.5" width="5.5" height="5.5" fill="#0e372d"/>
      <rect x="236.5" y="192.5" width="5.5" height="5.5" fill="#0e372d"/>
      <rect x="0.0" y="198.0" width="5.5" height="5.5" fill="#0e372d"/>
      <rect x="16.5" y="198.0" width="5.5" height="5.5" fill="#0e372d"/>
      <rect x="22.0" y="198.0" width="5.5" height="5.5" fill="#0e372d"/>
      <rect x="33.0" y="198.0" width="5.5" height="5.5" fill="#0e372d"/>
      <rect x="38.5" y="198.0" width="5.5" height="5.5" fill="#0e372d"/>
      <rect x="44.0" y="198.0" width="5.5" height="5.5" fill="#0e372d"/>
      <rect x="71.5" y="198.0" width="5.5" height="5.5" fill="#0e372d"/>
      <rect x="82.5" y="198.0" width="5.5" height="5.5" fill="#0e372d"/>
      <rect x="88.0" y="198.0" width="5.5" height="5.5" fill="#0e372d"/>
      <rect x="99.0" y="198.0" width="5.5" height="5.5" fill="#0e372d"/>
      <rect x="110.0" y="198.0" width="5.5" height="5.5" fill="#0e372d"/>
      <rect x="115.5" y="198.0" width="5.5" height="5.5" fill="#0e372d"/>
      <rect x="121.0" y="198.0" width="5.5" height="5.5" fill="#0e372d"/>
      <rect x="126.5" y="198.0" width="5.5" height="5.5" fill="#0e372d"/>
      <rect x="132.0" y="198.0" width="5.5" height="5.5" fill="#0e372d"/>
      <rect x="137.5" y="198.0" width="5.5" height="5.5" fill="#0e372d"/>
      <rect x="143.0" y="198.0" width="5.5" height="5.5" fill="#0e372d"/>
      <rect x="148.5" y="198.0" width="5.5" height="5.5" fill="#0e372d"/>
      <rect x="159.5" y="198.0" width="5.5" height="5.5" fill="#0e372d"/>
      <rect x="165.0" y="198.0" width="5.5" height="5.5" fill="#0e372d"/>
      <rect x="170.5" y="198.0" width="5.5" height="5.5" fill="#0e372d"/>
      <rect x="181.5" y="198.0" width="5.5" height="5.5" fill="#0e372d"/>
      <rect x="198.0" y="198.0" width="5.5" height="5.5" fill="#0e372d"/>
      <rect x="203.5" y="198.0" width="5.5" height="5.5" fill="#0e372d"/>
      <rect x="209.0" y="198.0" width="5.5" height="5.5" fill="#0e372d"/>
      <rect x="214.5" y="198.0" width="5.5" height="5.5" fill="#0e372d"/>
      <rect x="220.0" y="198.0" width="5.5" height="5.5" fill="#0e372d"/>
      <rect x="225.5" y="198.0" width="5.5" height="5.5" fill="#0e372d"/>
      <rect x="44.0" y="203.5" width="5.5" height="5.5" fill="#0e372d"/>
      <rect x="49.5" y="203.5" width="5.5" height="5.5" fill="#0e372d"/>
      <rect x="55.0" y="203.5" width="5.5" height="5.5" fill="#0e372d"/>
      <rect x="60.5" y="203.5" width="5.5" height="5.5" fill="#0e372d"/>
      <rect x="66.0" y="203.5" width="5.5" height="5.5" fill="#0e372d"/>
      <rect x="71.5" y="203.5" width="5.5" height="5.5" fill="#0e372d"/>
      <rect x="77.0" y="203.5" width="5.5" height="5.5" fill="#0e372d"/>
      <rect x="110.0" y="203.5" width="5.5" height="5.5" fill="#0e372d"/>
      <rect x="132.0" y="203.5" width="5.5" height="5.5" fill="#0e372d"/>
      <rect x="137.5" y="203.5" width="5.5" height="5.5" fill="#0e372d"/>
      <rect x="159.5" y="203.5" width="5.5" height="5.5" fill="#0e372d"/>
      <rect x="165.0" y="203.5" width="5.5" height="5.5" fill="#0e372d"/>
      <rect x="176.0" y="203.5" width="5.5" height="5.5" fill="#0e372d"/>
      <rect x="198.0" y="203.5" width="5.5" height="5.5" fill="#0e372d"/>
      <rect x="220.0" y="203.5" width="5.5" height="5.5" fill="#0e372d"/>
      <rect x="231.0" y="203.5" width="5.5" height="5.5" fill="#0e372d"/>
      <rect x="242.0" y="203.5" width="5.5" height="5.5" fill="#0e372d"/>
      <rect x="0.0" y="209.0" width="5.5" height="5.5" fill="#0e372d"/>
      <rect x="5.5" y="209.0" width="5.5" height="5.5" fill="#0e372d"/>
      <rect x="11.0" y="209.0" width="5.5" height="5.5" fill="#0e372d"/>
      <rect x="16.5" y="209.0" width="5.5" height="5.5" fill="#0e372d"/>
      <rect x="22.0" y="209.0" width="5.5" height="5.5" fill="#0e372d"/>
      <rect x="27.5" y="209.0" width="5.5" height="5.5" fill="#0e372d"/>
      <rect x="33.0" y="209.0" width="5.5" height="5.5" fill="#0e372d"/>
      <rect x="44.0" y="209.0" width="5.5" height="5.5" fill="#0e372d"/>
      <rect x="49.5" y="209.0" width="5.5" height="5.5" fill="#0e372d"/>
      <rect x="66.0" y="209.0" width="5.5" height="5.5" fill="#0e372d"/>
      <rect x="71.5" y="209.0" width="5.5" height="5.5" fill="#0e372d"/>
      <rect x="77.0" y="209.0" width="5.5" height="5.5" fill="#0e372d"/>
      <rect x="88.0" y="209.0" width="5.5" height="5.5" fill="#0e372d"/>
      <rect x="99.0" y="209.0" width="5.5" height="5.5" fill="#0e372d"/>
      <rect x="104.5" y="209.0" width="5.5" height="5.5" fill="#0e372d"/>
      <rect x="110.0" y="209.0" width="5.5" height="5.5" fill="#0e372d"/>
      <rect x="121.0" y="209.0" width="5.5" height="5.5" fill="#0e372d"/>
      <rect x="132.0" y="209.0" width="5.5" height="5.5" fill="#0e372d"/>
      <rect x="137.5" y="209.0" width="5.5" height="5.5" fill="#0e372d"/>
      <rect x="170.5" y="209.0" width="5.5" height="5.5" fill="#0e372d"/>
      <rect x="176.0" y="209.0" width="5.5" height="5.5" fill="#0e372d"/>
      <rect x="181.5" y="209.0" width="5.5" height="5.5" fill="#0e372d"/>
      <rect x="187.0" y="209.0" width="5.5" height="5.5" fill="#0e372d"/>
      <rect x="198.0" y="209.0" width="5.5" height="5.5" fill="#0e372d"/>
      <rect x="209.0" y="209.0" width="5.5" height="5.5" fill="#0e372d"/>
      <rect x="220.0" y="209.0" width="5.5" height="5.5" fill="#0e372d"/>
      <rect x="231.0" y="209.0" width="5.5" height="5.5" fill="#0e372d"/>
      <rect x="0.0" y="214.5" width="5.5" height="5.5" fill="#0e372d"/>
      <rect x="33.0" y="214.5" width="5.5" height="5.5" fill="#0e372d"/>
      <rect x="55.0" y="214.5" width="5.5" height="5.5" fill="#0e372d"/>
      <rect x="77.0" y="214.5" width="5.5" height="5.5" fill="#0e372d"/>
      <rect x="82.5" y="214.5" width="5.5" height="5.5" fill="#0e372d"/>
      <rect x="99.0" y="214.5" width="5.5" height="5.5" fill="#0e372d"/>
      <rect x="110.0" y="214.5" width="5.5" height="5.5" fill="#0e372d"/>
      <rect x="132.0" y="214.5" width="5.5" height="5.5" fill="#0e372d"/>
      <rect x="148.5" y="214.5" width="5.5" height="5.5" fill="#0e372d"/>
      <rect x="154.0" y="214.5" width="5.5" height="5.5" fill="#0e372d"/>
      <rect x="159.5" y="214.5" width="5.5" height="5.5" fill="#0e372d"/>
      <rect x="176.0" y="214.5" width="5.5" height="5.5" fill="#0e372d"/>
      <rect x="181.5" y="214.5" width="5.5" height="5.5" fill="#0e372d"/>
      <rect x="192.5" y="214.5" width="5.5" height="5.5" fill="#0e372d"/>
      <rect x="198.0" y="214.5" width="5.5" height="5.5" fill="#0e372d"/>
      <rect x="220.0" y="214.5" width="5.5" height="5.5" fill="#0e372d"/>
      <rect x="225.5" y="214.5" width="5.5" height="5.5" fill="#0e372d"/>
      <rect x="0.0" y="220.0" width="5.5" height="5.5" fill="#0e372d"/>
      <rect x="11.0" y="220.0" width="5.5" height="5.5" fill="#0e372d"/>
      <rect x="16.5" y="220.0" width="5.5" height="5.5" fill="#0e372d"/>
      <rect x="22.0" y="220.0" width="5.5" height="5.5" fill="#0e372d"/>
      <rect x="33.0" y="220.0" width="5.5" height="5.5" fill="#0e372d"/>
      <rect x="44.0" y="220.0" width="5.5" height="5.5" fill="#0e372d"/>
      <rect x="49.5" y="220.0" width="5.5" height="5.5" fill="#0e372d"/>
      <rect x="55.0" y="220.0" width="5.5" height="5.5" fill="#0e372d"/>
      <rect x="60.5" y="220.0" width="5.5" height="5.5" fill="#0e372d"/>
      <rect x="66.0" y="220.0" width="5.5" height="5.5" fill="#0e372d"/>
      <rect x="71.5" y="220.0" width="5.5" height="5.5" fill="#0e372d"/>
      <rect x="77.0" y="220.0" width="5.5" height="5.5" fill="#0e372d"/>
      <rect x="82.5" y="220.0" width="5.5" height="5.5" fill="#0e372d"/>
      <rect x="88.0" y="220.0" width="5.5" height="5.5" fill="#0e372d"/>
      <rect x="93.5" y="220.0" width="5.5" height="5.5" fill="#0e372d"/>
      <rect x="99.0" y="220.0" width="5.5" height="5.5" fill="#0e372d"/>
      <rect x="110.0" y="220.0" width="5.5" height="5.5" fill="#0e372d"/>
      <rect x="115.5" y="220.0" width="5.5" height="5.5" fill="#0e372d"/>
      <rect x="121.0" y="220.0" width="5.5" height="5.5" fill="#0e372d"/>
      <rect x="126.5" y="220.0" width="5.5" height="5.5" fill="#0e372d"/>
      <rect x="132.0" y="220.0" width="5.5" height="5.5" fill="#0e372d"/>
      <rect x="137.5" y="220.0" width="5.5" height="5.5" fill="#0e372d"/>
      <rect x="159.5" y="220.0" width="5.5" height="5.5" fill="#0e372d"/>
      <rect x="181.5" y="220.0" width="5.5" height="5.5" fill="#0e372d"/>
      <rect x="187.0" y="220.0" width="5.5" height="5.5" fill="#0e372d"/>
      <rect x="198.0" y="220.0" width="5.5" height="5.5" fill="#0e372d"/>
      <rect x="203.5" y="220.0" width="5.5" height="5.5" fill="#0e372d"/>
      <rect x="209.0" y="220.0" width="5.5" height="5.5" fill="#0e372d"/>
      <rect x="214.5" y="220.0" width="5.5" height="5.5" fill="#0e372d"/>
      <rect x="220.0" y="220.0" width="5.5" height="5.5" fill="#0e372d"/>
      <rect x="225.5" y="220.0" width="5.5" height="5.5" fill="#0e372d"/>
      <rect x="236.5" y="220.0" width="5.5" height="5.5" fill="#0e372d"/>
      <rect x="0.0" y="225.5" width="5.5" height="5.5" fill="#0e372d"/>
      <rect x="11.0" y="225.5" width="5.5" height="5.5" fill="#0e372d"/>
      <rect x="16.5" y="225.5" width="5.5" height="5.5" fill="#0e372d"/>
      <rect x="22.0" y="225.5" width="5.5" height="5.5" fill="#0e372d"/>
      <rect x="33.0" y="225.5" width="5.5" height="5.5" fill="#0e372d"/>
      <rect x="44.0" y="225.5" width="5.5" height="5.5" fill="#0e372d"/>
      <rect x="55.0" y="225.5" width="5.5" height="5.5" fill="#0e372d"/>
      <rect x="66.0" y="225.5" width="5.5" height="5.5" fill="#0e372d"/>
      <rect x="137.5" y="225.5" width="5.5" height="5.5" fill="#0e372d"/>
      <rect x="148.5" y="225.5" width="5.5" height="5.5" fill="#0e372d"/>
      <rect x="165.0" y="225.5" width="5.5" height="5.5" fill="#0e372d"/>
      <rect x="170.5" y="225.5" width="5.5" height="5.5" fill="#0e372d"/>
      <rect x="225.5" y="225.5" width="5.5" height="5.5" fill="#0e372d"/>
      <rect x="231.0" y="225.5" width="5.5" height="5.5" fill="#0e372d"/>
      <rect x="236.5" y="225.5" width="5.5" height="5.5" fill="#0e372d"/>
      <rect x="0.0" y="231.0" width="5.5" height="5.5" fill="#0e372d"/>
      <rect x="11.0" y="231.0" width="5.5" height="5.5" fill="#0e372d"/>
      <rect x="16.5" y="231.0" width="5.5" height="5.5" fill="#0e372d"/>
      <rect x="22.0" y="231.0" width="5.5" height="5.5" fill="#0e372d"/>
      <rect x="33.0" y="231.0" width="5.5" height="5.5" fill="#0e372d"/>
      <rect x="44.0" y="231.0" width="5.5" height="5.5" fill="#0e372d"/>
      <rect x="49.5" y="231.0" width="5.5" height="5.5" fill="#0e372d"/>
      <rect x="60.5" y="231.0" width="5.5" height="5.5" fill="#0e372d"/>
      <rect x="66.0" y="231.0" width="5.5" height="5.5" fill="#0e372d"/>
      <rect x="71.5" y="231.0" width="5.5" height="5.5" fill="#0e372d"/>
      <rect x="82.5" y="231.0" width="5.5" height="5.5" fill="#0e372d"/>
      <rect x="99.0" y="231.0" width="5.5" height="5.5" fill="#0e372d"/>
      <rect x="104.5" y="231.0" width="5.5" height="5.5" fill="#0e372d"/>
      <rect x="121.0" y="231.0" width="5.5" height="5.5" fill="#0e372d"/>
      <rect x="132.0" y="231.0" width="5.5" height="5.5" fill="#0e372d"/>
      <rect x="137.5" y="231.0" width="5.5" height="5.5" fill="#0e372d"/>
      <rect x="148.5" y="231.0" width="5.5" height="5.5" fill="#0e372d"/>
      <rect x="170.5" y="231.0" width="5.5" height="5.5" fill="#0e372d"/>
      <rect x="181.5" y="231.0" width="5.5" height="5.5" fill="#0e372d"/>
      <rect x="187.0" y="231.0" width="5.5" height="5.5" fill="#0e372d"/>
      <rect x="198.0" y="231.0" width="5.5" height="5.5" fill="#0e372d"/>
      <rect x="214.5" y="231.0" width="5.5" height="5.5" fill="#0e372d"/>
      <rect x="220.0" y="231.0" width="5.5" height="5.5" fill="#0e372d"/>
      <rect x="231.0" y="231.0" width="5.5" height="5.5" fill="#0e372d"/>
      <rect x="242.0" y="231.0" width="5.5" height="5.5" fill="#0e372d"/>
      <rect x="0.0" y="236.5" width="5.5" height="5.5" fill="#0e372d"/>
      <rect x="33.0" y="236.5" width="5.5" height="5.5" fill="#0e372d"/>
      <rect x="44.0" y="236.5" width="5.5" height="5.5" fill="#0e372d"/>
      <rect x="55.0" y="236.5" width="5.5" height="5.5" fill="#0e372d"/>
      <rect x="66.0" y="236.5" width="5.5" height="5.5" fill="#0e372d"/>
      <rect x="82.5" y="236.5" width="5.5" height="5.5" fill="#0e372d"/>
      <rect x="88.0" y="236.5" width="5.5" height="5.5" fill="#0e372d"/>
      <rect x="99.0" y="236.5" width="5.5" height="5.5" fill="#0e372d"/>
      <rect x="104.5" y="236.5" width="5.5" height="5.5" fill="#0e372d"/>
      <rect x="115.5" y="236.5" width="5.5" height="5.5" fill="#0e372d"/>
      <rect x="132.0" y="236.5" width="5.5" height="5.5" fill="#0e372d"/>
      <rect x="137.5" y="236.5" width="5.5" height="5.5" fill="#0e372d"/>
      <rect x="148.5" y="236.5" width="5.5" height="5.5" fill="#0e372d"/>
      <rect x="154.0" y="236.5" width="5.5" height="5.5" fill="#0e372d"/>
      <rect x="159.5" y="236.5" width="5.5" height="5.5" fill="#0e372d"/>
      <rect x="176.0" y="236.5" width="5.5" height="5.5" fill="#0e372d"/>
      <rect x="181.5" y="236.5" width="5.5" height="5.5" fill="#0e372d"/>
      <rect x="192.5" y="236.5" width="5.5" height="5.5" fill="#0e372d"/>
      <rect x="209.0" y="236.5" width="5.5" height="5.5" fill="#0e372d"/>
      <rect x="214.5" y="236.5" width="5.5" height="5.5" fill="#0e372d"/>
      <rect x="225.5" y="236.5" width="5.5" height="5.5" fill="#0e372d"/>
      <rect x="231.0" y="236.5" width="5.5" height="5.5" fill="#0e372d"/>
      <rect x="0.0" y="242.0" width="5.5" height="5.5" fill="#0e372d"/>
      <rect x="5.5" y="242.0" width="5.5" height="5.5" fill="#0e372d"/>
      <rect x="11.0" y="242.0" width="5.5" height="5.5" fill="#0e372d"/>
      <rect x="16.5" y="242.0" width="5.5" height="5.5" fill="#0e372d"/>
      <rect x="22.0" y="242.0" width="5.5" height="5.5" fill="#0e372d"/>
      <rect x="27.5" y="242.0" width="5.5" height="5.5" fill="#0e372d"/>
      <rect x="33.0" y="242.0" width="5.5" height="5.5" fill="#0e372d"/>
      <rect x="44.0" y="242.0" width="5.5" height="5.5" fill="#0e372d"/>
      <rect x="71.5" y="242.0" width="5.5" height="5.5" fill="#0e372d"/>
      <rect x="88.0" y="242.0" width="5.5" height="5.5" fill="#0e372d"/>
      <rect x="93.5" y="242.0" width="5.5" height="5.5" fill="#0e372d"/>
      <rect x="99.0" y="242.0" width="5.5" height="5.5" fill="#0e372d"/>
      <rect x="104.5" y="242.0" width="5.5" height="5.5" fill="#0e372d"/>
      <rect x="121.0" y="242.0" width="5.5" height="5.5" fill="#0e372d"/>
      <rect x="126.5" y="242.0" width="5.5" height="5.5" fill="#0e372d"/>
      <rect x="132.0" y="242.0" width="5.5" height="5.5" fill="#0e372d"/>
      <rect x="143.0" y="242.0" width="5.5" height="5.5" fill="#0e372d"/>
      <rect x="159.5" y="242.0" width="5.5" height="5.5" fill="#0e372d"/>
      <rect x="165.0" y="242.0" width="5.5" height="5.5" fill="#0e372d"/>
      <rect x="170.5" y="242.0" width="5.5" height="5.5" fill="#0e372d"/>
      <rect x="198.0" y="242.0" width="5.5" height="5.5" fill="#0e372d"/>
      <rect x="203.5" y="242.0" width="5.5" height="5.5" fill="#0e372d"/>
      <rect x="214.5" y="242.0" width="5.5" height="5.5" fill="#0e372d"/>
      <rect x="236.5" y="242.0" width="5.5" height="5.5" fill="#0e372d"/>
    </g>
  </svg>
</svg>
