<svg id="svgQrWrapper" viewBox="0 0 300 300" xmlns="http://www.w3.org/2000/svg" xmlns:xlink="http://www.w3.org/1999/xlink" width="300" height="300" style="width: 100%; height: 100%; background-color: rgb(255, 255, 255);"><svg xmlns="http://www.w3.org/2000/svg" viewBox="0 0 1500 1500" width="300" height="300" fill="none"><g><defs><style>.cls-6wed1{fill:#cedae0}</style></defs><path d="M1134.28 160.72H312.43c-54.39 0-98.48 44.09-98.48 98.48v1005.36c0 54.39 44.09 98.48 98.48 98.48h821.85c54.39 0 98.48-44.09 98.48-98.48V259.2c0-54.39-44.09-98.48-98.48-98.48Zm18.95 866.21c0 46.31-37.53 83.84-83.83 83.84H377.32c-46.31 0-83.84-37.53-83.84-83.84V334.85c0-46.3 37.53-83.83 83.84-83.83h692.08c46.3 0 83.83 37.53 83.83 83.83v692.08Z" style="fill: rgb(137, 163, 178);"></path><path d="M534.63 1309.97c-.19.12-1.06.54-2.61 1.26s-3.58 1.5-6.09 2.34c-2.51.84-5.38 1.6-8.6 2.29-3.22.69-6.57 1.03-10.05 1.03-5.67 0-10.76-.93-15.27-2.78-4.51-1.86-8.33-4.48-11.45-7.86-3.13-3.38-5.53-7.46-7.2-12.22-1.68-4.76-2.51-10.05-2.51-15.85s.74-11.69 2.22-18.37c1.48-6.68 3.41-13.55 5.8-20.62 2.38-7.07 5.07-14.13 8.07-21.2 3-7.07 6.02-13.79 9.09-20.17 3.06-6.38 5.98-12.22 8.75-17.52 2.77-5.3 5.15-9.72 7.15-13.25-3.61 3.83-7.73 8.25-12.37 13.25-4.64 5-9.59 10.48-14.84 16.44-5.25 5.96-10.71 12.31-16.38 19.04a929.464 929.464 0 0 0-17.16 21.02 887.793 887.793 0 0 0-17.16 22.37 572.186 572.186 0 0 0-16.24 23.04l-4.64-1.44c.97-9.76 2.56-19.45 4.78-29.06s4.74-18.86 7.54-27.76c2.8-8.89 5.77-17.25 8.89-25.06 3.12-7.82 6.1-14.81 8.94-20.97-4.32 5.51-8.62 11.48-12.9 17.92-4.29 6.44-8.62 13.06-13 19.85-4.38 6.8-8.89 13.62-13.53 20.48-4.64 6.86-9.47 13.44-14.5 19.76a196.105 196.105 0 0 1-15.9 17.7c-5.57 5.48-11.5 10.24-17.78 14.28a87.485 87.485 0 0 1-20.1 9.57c-7.12 2.34-14.74 3.5-22.86 3.5-6.25 0-11.92-.87-17.01-2.61-5.09-1.74-9.46-4.12-13.1-7.14-3.64-3.02-6.44-6.57-8.41-10.64-1.96-4.07-2.95-8.47-2.95-13.2s.79-8.79 2.37-12.53 3.69-7.07 6.33-9.97c2.64-2.9 5.72-5.42 9.23-7.55 3.51-2.13 7.2-3.88 11.07-5.25 3.87-1.38 7.78-2.39 11.74-3.05 3.96-.66 7.75-.99 11.36-.99 7.47 0 14.63.82 21.46 2.47 6.83 1.65 13.4 4.57 19.72 8.76l-3.38 3.5c-.06-.06-.9-.61-2.51-1.66-1.61-1.05-3.93-2.2-6.96-3.46-3.03-1.26-6.78-2.39-11.26-3.41-4.48-1.02-9.59-1.53-15.32-1.53s-10.91.69-16.09 2.07c-5.19 1.38-9.76 3.46-13.72 6.24a31.756 31.756 0 0 0-9.52 10.51c-2.38 4.22-3.58 9.18-3.58 14.87 0 4.07.85 7.85 2.56 11.32 1.71 3.47 4.07 6.48 7.1 9.03 3.03 2.54 6.67 4.54 10.92 5.97 4.25 1.44 8.96 2.16 14.11 2.16 7.73 0 15.14-1.53 22.23-4.58s13.92-7.19 20.49-12.4c6.57-5.21 12.9-11.29 18.99-18.24a315.72 315.72 0 0 0 17.59-22.01c5.64-7.73 11.1-15.66 16.38-23.8 5.28-8.14 10.41-16 15.37-23.58 4.96-7.58 9.79-14.67 14.5-21.29 4.7-6.62 9.31-12.32 13.82-17.11l4.35 2.43c-2.84 8.03-5.28 15.08-7.35 21.15-2.06 6.08-3.85 11.42-5.36 16.03-1.51 4.61-2.8 8.59-3.87 11.95-1.06 3.35-1.98 6.35-2.75 8.98-.77 2.64-1.47 5.02-2.08 7.14-.61 2.13-1.22 4.24-1.84 6.33-.61 2.1-1.3 4.31-2.08 6.65-.77 2.34-1.71 5.05-2.8 8.13-1.1 3.09-2.38 6.65-3.87 10.69-1.48 4.04-3.29 8.82-5.41 14.33 5.41-7.6 10.97-15.09 16.67-22.46 5.7-7.37 11.39-14.49 17.06-21.38 5.67-6.89 11.23-13.47 16.67-19.76 5.44-6.29 10.6-12.13 15.46-17.52 4.86-5.39 9.34-10.29 13.43-14.69s7.65-8.16 10.68-11.27c3.03-3.11 5.4-5.54 7.1-7.28 1.71-1.74 2.59-2.63 2.66-2.69l4.06 2.78c-3.8 8.74-7.57 17.5-11.31 26.27s-7.33 17.32-10.78 25.65c-3.45 8.32-6.65 16.35-9.62 24.07-2.96 7.73-5.54 14.96-7.73 21.69-2.19 6.74-3.91 12.88-5.17 18.41-1.26 5.54-1.88 10.29-1.88 14.24 0 4.67.6 8.89 1.79 12.67 1.19 3.77 2.91 6.98 5.17 9.61 2.25 2.63 5.04 4.66 8.36 6.06 3.32 1.41 7.07 2.11 11.26 2.11 3.16 0 6.23-.33 9.23-.99 3-.66 5.65-1.38 7.97-2.16 2.32-.78 4.19-1.5 5.61-2.16 1.42-.66 2.16-.99 2.22-.99l2.51 4.04Z" class="cls-6wed1"></path><path d="M574.04 1247.99c-.97 1.32-2.11 3.1-3.43 5.34-1.32 2.25-2.85 4.67-4.59 7.28-1.74 2.61-3.66 5.25-5.75 7.95a51.642 51.642 0 0 1-6.86 7.28 35.372 35.372 0 0 1-8.07 5.3c-2.9 1.38-5.99 2.07-9.28 2.07-1.8 0-3.51-.26-5.12-.76-1.61-.51-3.03-1.3-4.25-2.38-1.22-1.08-2.19-2.41-2.9-4-.71-1.59-1.06-3.46-1.06-5.61 0-2.93.63-6 1.88-9.21 1.26-3.2 2.72-6.3 4.4-9.3 1.67-2.99 3.35-5.73 5.03-8.22 1.67-2.48 2.9-4.48 3.67-5.97.77-1.5 1.16-2.78 1.16-3.86 0-.78-.27-1.47-.82-2.07-.55-.6-1.22-1.18-2.03-1.75-.81-.57-1.64-1.17-2.51-1.8a8.448 8.448 0 0 1-2.17-2.29c-1.61 2.4-3.25 4.82-4.93 7.28-1.48 2.1-3.09 4.45-4.83 7.05-1.74 2.61-3.42 5.17-5.03 7.68l-3.48-2.52 20.68-30.09 2.8 1.35c-.13.36-.34.93-.63 1.71-.29.78-.43 1.62-.43 2.52 0 .66.11 1.3.34 1.93.23.63.69 1.21 1.4 1.75 2.58 2.16 4.61 3.82 6.09 4.99 1.48 1.17 2.56 2.1 3.24 2.78.68.69 1.09 1.26 1.26 1.71.16.45.24 1.03.24 1.75s-.13 1.59-.39 2.61c-.26 1.02-.69 2.25-1.3 3.68-.61 1.44-1.45 3.13-2.51 5.08-1.06 1.95-2.4 4.21-4.01 6.78-.97 1.56-1.92 3.13-2.85 4.72-.93 1.59-1.77 3.19-2.51 4.81a32.79 32.79 0 0 0-1.79 4.85c-.45 1.62-.68 3.17-.68 4.67 0 1.14.18 2.05.53 2.74.35.69.82 1.21 1.4 1.57s1.21.6 1.88.72c.68.12 1.34.18 1.98.18 2.13 0 4.24-.58 6.33-1.75s4.16-2.68 6.19-4.54c2.03-1.86 3.99-3.97 5.9-6.33 1.9-2.36 3.72-4.77 5.46-7.23 1.74-2.45 3.35-4.81 4.83-7.05 1.48-2.25 2.8-4.21 3.96-5.88l3.58 2.52ZM733.18 1252.03c3.09-.54 6.22-.81 9.38-.81 3.99 0 7.89.54 11.69 1.62s7.2 2.62 10.2 4.63c3 2.01 5.4 4.48 7.2 7.41 1.8 2.93 2.71 6.26 2.71 9.97 0 3.29-.79 6.29-2.37 8.98-1.58 2.69-3.75 5.01-6.52 6.96-2.77 1.95-6.06 3.44-9.86 4.49-3.8 1.05-7.93 1.57-12.37 1.57-5.16 0-10.1-.52-14.84-1.57s-9.25-2.5-13.53-4.36a77.552 77.552 0 0 1-12.27-6.69c-3.9-2.61-7.52-5.49-10.87-8.67-4.7 2.04-9.65 3.64-14.84 4.81-5.19 1.17-10.58 1.75-16.19 1.75-6.9 0-12.79-.67-17.69-2.02-4.9-1.35-8.89-3.17-11.98-5.48-3.09-2.3-5.36-4.99-6.81-8.04-1.45-3.05-2.17-6.32-2.17-9.79 0-4.49 1.11-8.49 3.33-11.99s5.2-6.62 8.94-9.34c3.74-2.72 8.05-5.17 12.95-7.32 4.9-2.16 10.02-4.16 15.37-6.02-.39-2.75-.58-5.48-.58-8.17 0-6.17 1.22-11.77 3.67-16.8 2.45-5.03 5.65-9.31 9.62-12.85a44.49 44.49 0 0 1 13.34-8.22c4.93-1.95 9.87-2.92 14.84-2.92 3.16 0 6.02.42 8.6 1.26 2.58.84 4.77 1.99 6.57 3.46 1.8 1.47 3.2 3.19 4.2 5.17s1.5 4.07 1.5 6.29c0 3.11-.69 5.91-2.08 8.4-1.39 2.49-3.29 4.75-5.7 6.78-2.42 2.04-5.25 3.89-8.51 5.57-3.25 1.68-6.77 3.23-10.54 4.67-3.77 1.44-7.68 2.83-11.74 4.18-4.06 1.35-8.12 2.71-12.18 4.09.77 3.35 1.85 6.92 3.24 10.69 1.38 3.77 3.04 7.59 4.98 11.45 1.93 3.86 4.14 7.71 6.62 11.54 2.48 3.83 5.17 7.49 8.07 10.96 3.67-2.04 7.04-4.34 10.1-6.92 3.06-2.57 5.7-5.31 7.93-8.22 2.22-2.9 3.96-5.91 5.22-9.03 1.26-3.11 1.88-6.26 1.88-9.43 0-2.39-.23-4.31-.68-5.75-.45-1.44-.71-2.36-.77-2.78l4.93-1.26c.26.66.6 1.86 1.01 3.59.42 1.74.63 3.83.63 6.29 0 3.29-.64 6.65-1.93 10.06s-3.11 6.74-5.46 9.97c-2.35 3.23-5.19 6.32-8.51 9.25-3.32 2.93-7.01 5.6-11.07 7.99 2.83 3.11 5.85 5.99 9.04 8.62s6.52 4.91 10 6.83a52.78 52.78 0 0 0 10.78 4.49c3.7 1.08 7.52 1.62 11.45 1.62 3.22 0 6.31-.39 9.28-1.17 2.96-.78 5.57-1.96 7.83-3.55 2.25-1.59 4.06-3.62 5.41-6.11 1.35-2.49 2.03-5.43 2.03-8.85 0-3.05-.68-5.73-2.03-8.04-1.35-2.3-3.16-4.25-5.41-5.84-2.26-1.59-4.82-2.78-7.68-3.59-2.87-.81-5.85-1.21-8.94-1.21-1.35 0-2.66.06-3.91.18-1.26.12-2.43.27-3.53.45l-.97-3.23Zm-69.78-25.33c-4.06 1.62-7.88 3.35-11.45 5.21-3.58 1.86-6.69 3.94-9.33 6.24-2.64 2.31-4.74 4.9-6.28 7.77s-2.32 6.11-2.32 9.7c0 3.05.53 5.88 1.59 8.49 1.06 2.61 2.74 4.88 5.03 6.83 2.29 1.95 5.2 3.46 8.75 4.54 3.54 1.08 7.8 1.62 12.76 1.62 4.38 0 8.76-.45 13.14-1.35 4.38-.9 8.6-2.19 12.66-3.86-3.22-3.29-6.15-6.8-8.8-10.51-2.64-3.71-4.99-7.5-7.06-11.36-2.06-3.86-3.83-7.75-5.32-11.68-1.48-3.92-2.61-7.8-3.38-11.63Zm55.57-37.28c0-1.38-.31-2.75-.92-4.13-.61-1.38-1.55-2.61-2.8-3.68s-2.87-1.95-4.83-2.61c-1.97-.66-4.27-.99-6.91-.99-3.61 0-7.27.64-10.97 1.93-3.71 1.29-7.06 3.32-10.05 6.11s-5.45 6.38-7.35 10.78c-1.9 4.4-2.85 9.69-2.85 15.85 0 .96.03 1.95.1 2.96.06 1.02.19 2.07.39 3.14 5.86-1.92 11.57-3.82 17.11-5.7 5.54-1.89 10.47-3.95 14.79-6.2 4.32-2.25 7.78-4.77 10.39-7.59 2.61-2.81 3.91-6.11 3.91-9.88ZM1087.36 1309.97c-.19.12-1.06.54-2.61 1.26-1.55.72-3.58 1.5-6.09 2.34-2.51.84-5.38 1.6-8.6 2.29-3.22.69-6.57 1.03-10.05 1.03-5.67 0-10.76-.93-15.27-2.78-4.51-1.86-8.33-4.48-11.45-7.86-3.13-3.38-5.53-7.46-7.2-12.22-1.68-4.76-2.51-10.05-2.51-15.85s.74-11.69 2.22-18.37c1.48-6.68 3.41-13.55 5.8-20.62 2.38-7.07 5.07-14.13 8.07-21.2 3-7.07 6.02-13.79 9.09-20.17 3.06-6.38 5.98-12.22 8.75-17.52 2.77-5.3 5.15-9.72 7.15-13.25-3.61 3.83-7.73 8.25-12.37 13.25-4.64 5-9.59 10.48-14.84 16.44-5.25 5.96-10.71 12.31-16.38 19.04a929.464 929.464 0 0 0-17.16 21.02 887.793 887.793 0 0 0-17.16 22.37 572.186 572.186 0 0 0-16.24 23.04l-4.64-1.44c.97-9.76 2.56-19.45 4.78-29.06s4.74-18.86 7.54-27.76c2.8-8.89 5.77-17.25 8.89-25.06 3.12-7.82 6.1-14.81 8.94-20.97-4.32 5.51-8.62 11.48-12.9 17.92-4.29 6.44-8.62 13.06-13 19.85-4.38 6.8-8.89 13.62-13.53 20.48-4.64 6.86-9.47 13.44-14.5 19.76a196.105 196.105 0 0 1-15.9 17.7c-5.57 5.48-11.5 10.24-17.78 14.28a87.485 87.485 0 0 1-20.1 9.57c-7.12 2.34-14.74 3.5-22.86 3.5-6.25 0-11.92-.87-17.01-2.61-5.09-1.74-9.46-4.12-13.1-7.14-3.64-3.02-6.44-6.57-8.41-10.64-1.96-4.07-2.95-8.47-2.95-13.2s.79-8.79 2.37-12.53 3.69-7.07 6.33-9.97c2.64-2.9 5.72-5.42 9.23-7.55 3.51-2.13 7.2-3.88 11.07-5.25 3.87-1.38 7.78-2.39 11.74-3.05 3.96-.66 7.75-.99 11.36-.99 7.47 0 14.63.82 21.46 2.47 6.83 1.65 13.4 4.57 19.72 8.76l-3.38 3.5c-.06-.06-.9-.61-2.51-1.66-1.61-1.05-3.93-2.2-6.96-3.46-3.03-1.26-6.78-2.39-11.26-3.41-4.48-1.02-9.59-1.53-15.32-1.53s-10.91.69-16.09 2.07c-5.19 1.38-9.76 3.46-13.72 6.24a31.756 31.756 0 0 0-9.52 10.51c-2.38 4.22-3.58 9.18-3.58 14.87 0 4.07.85 7.85 2.56 11.32 1.71 3.47 4.07 6.48 7.1 9.03 3.03 2.54 6.67 4.54 10.92 5.97 4.25 1.44 8.96 2.16 14.11 2.16 7.73 0 15.14-1.53 22.23-4.58s13.92-7.19 20.49-12.4c6.57-5.21 12.9-11.29 18.99-18.24a315.72 315.72 0 0 0 17.59-22.01c5.64-7.73 11.1-15.66 16.38-23.8 5.28-8.14 10.41-16 15.37-23.58 4.96-7.58 9.79-14.67 14.5-21.29 4.7-6.62 9.31-12.32 13.82-17.11l4.35 2.43c-2.84 8.03-5.28 15.08-7.35 21.15-2.06 6.08-3.85 11.42-5.36 16.03-1.51 4.61-2.8 8.59-3.87 11.95-1.06 3.35-1.98 6.35-2.75 8.98-.77 2.64-1.47 5.02-2.08 7.14-.61 2.13-1.22 4.24-1.84 6.33-.61 2.1-1.3 4.31-2.08 6.65s-1.71 5.05-2.8 8.13c-1.1 3.09-2.38 6.65-3.87 10.69-1.48 4.04-3.29 8.82-5.41 14.33 5.41-7.6 10.97-15.09 16.67-22.46 5.7-7.37 11.39-14.49 17.06-21.38 5.67-6.89 11.23-13.47 16.67-19.76 5.44-6.29 10.6-12.13 15.46-17.52 4.86-5.39 9.34-10.29 13.43-14.69s7.65-8.16 10.68-11.27c3.03-3.11 5.4-5.54 7.1-7.28 1.71-1.74 2.59-2.63 2.66-2.69l4.06 2.78c-3.8 8.74-7.57 17.5-11.31 26.27s-7.33 17.32-10.78 25.65c-3.45 8.32-6.65 16.35-9.62 24.07-2.96 7.73-5.54 14.96-7.73 21.69-2.19 6.74-3.91 12.88-5.17 18.41-1.26 5.54-1.88 10.29-1.88 14.24 0 4.67.6 8.89 1.79 12.67 1.19 3.77 2.91 6.98 5.17 9.61 2.25 2.63 5.04 4.66 8.36 6.06 3.32 1.41 7.07 2.11 11.26 2.11 3.16 0 6.23-.33 9.23-.99 3-.66 5.65-1.38 7.97-2.16 2.32-.78 4.19-1.5 5.61-2.16 1.42-.66 2.16-.99 2.22-.99l2.51 4.04Z" class="cls-6wed1"></path><path d="M1126.77 1247.99c-.97 1.32-2.11 3.1-3.43 5.34-1.32 2.25-2.85 4.67-4.59 7.28-1.74 2.61-3.66 5.25-5.75 7.95a51.642 51.642 0 0 1-6.86 7.28 35.372 35.372 0 0 1-8.07 5.3c-2.9 1.38-5.99 2.07-9.28 2.07-1.8 0-3.51-.26-5.12-.76-1.61-.51-3.03-1.3-4.25-2.38-1.22-1.08-2.19-2.41-2.9-4-.71-1.59-1.06-3.46-1.06-5.61 0-2.93.63-6 1.88-9.21 1.26-3.2 2.72-6.3 4.4-9.3 1.67-2.99 3.35-5.73 5.03-8.22 1.67-2.48 2.9-4.48 3.67-5.97.77-1.5 1.16-2.78 1.16-3.86 0-.78-.27-1.47-.82-2.07-.55-.6-1.22-1.18-2.03-1.75-.81-.57-1.64-1.17-2.51-1.8s-1.59-1.39-2.17-2.29c-1.61 2.4-3.25 4.82-4.93 7.28-1.48 2.1-3.09 4.45-4.83 7.05-1.74 2.61-3.42 5.17-5.03 7.68l-3.48-2.52 20.68-30.09 2.8 1.35c-.13.36-.34.93-.63 1.71-.29.78-.43 1.62-.43 2.52 0 .66.11 1.3.34 1.93.23.63.69 1.21 1.4 1.75 2.58 2.16 4.61 3.82 6.09 4.99 1.48 1.17 2.56 2.1 3.24 2.78.68.69 1.09 1.26 1.26 1.71.16.45.24 1.03.24 1.75s-.13 1.59-.39 2.61c-.26 1.02-.69 2.25-1.3 3.68-.61 1.44-1.45 3.13-2.51 5.08-1.06 1.95-2.4 4.21-4.01 6.78-.97 1.56-1.92 3.13-2.85 4.72-.93 1.59-1.77 3.19-2.51 4.81a32.79 32.79 0 0 0-1.79 4.85c-.45 1.62-.68 3.17-.68 4.67 0 1.14.18 2.05.53 2.74.35.69.82 1.21 1.4 1.57s1.21.6 1.88.72c.68.12 1.34.18 1.98.18 2.13 0 4.24-.58 6.33-1.75s4.16-2.68 6.19-4.54c2.03-1.86 3.99-3.97 5.9-6.33 1.9-2.36 3.72-4.77 5.46-7.23 1.74-2.45 3.35-4.81 4.83-7.05 1.48-2.25 2.8-4.21 3.96-5.88l3.58 2.52Z" class="cls-6wed1"></path><path d="M1147.82 1210.22c-.52.63-1.01 1.35-1.5 2.16-.48.81-.9 1.75-1.26 2.83-.35 1.08-.53 2.37-.53 3.86 0 1.26.34 2.96 1.01 5.12.68 2.16 1.4 4.63 2.17 7.41.77 2.78 1.5 5.81 2.17 9.07.68 3.26 1.01 6.63 1.01 10.11 0 5.09-.74 9.58-2.22 13.47-1.48 3.89-3.45 7.22-5.9 9.97 5.03-2.52 9.96-6.12 14.79-10.82 4.83-4.7 9.7-10.67 14.59-17.92l3.29 2.69c-2.77 4.25-5.91 8.46-9.42 12.62-3.51 4.16-7.36 7.9-11.55 11.23-4.19 3.32-8.7 6.02-13.53 8.08s-9.96 3.1-15.37 3.1c-4.83 0-8.91-1.06-12.23-3.19-3.32-2.13-5.36-5.31-6.14-9.57l3.48-.63c0 .36.18.94.53 1.75.35.81.92 1.6 1.69 2.38.77.78 1.82 1.47 3.14 2.07 1.32.6 2.95.9 4.88.9 2.58 0 4.86-.55 6.86-1.66 2-1.11 3.74-2.56 5.22-4.36 1.48-1.8 2.74-3.85 3.77-6.15 1.03-2.3 1.85-4.69 2.46-7.14.61-2.45 1.05-4.85 1.3-7.19.26-2.34.39-4.46.39-6.38s-.08-4.04-.24-6.38c-.16-2.34-.34-4.57-.53-6.69-.19-2.13-.37-3.98-.53-5.57-.16-1.59-.24-2.62-.24-3.1v-.18c-.84.84-1.84 2.07-3 3.68s-2.4 3.38-3.72 5.3c-1.32 1.92-2.64 3.86-3.96 5.84-1.32 1.98-2.51 3.77-3.58 5.39s-1.93 2.95-2.61 4c-.68 1.05-1.01 1.6-1.01 1.66l-3.48-2.52c.06-.06.87-1.35 2.42-3.86 1.55-2.52 3.59-5.7 6.14-9.57 2.54-3.86 5.43-8.14 8.65-12.85a298.4 298.4 0 0 1 9.96-13.7l3.87 2.96c-.32.54-.74 1.12-1.26 1.75ZM1133.16 331.76c-18.01 7.49-38.98 7.67-57.98-1.26-35.75-16.81-51.16-59.57-34.35-95.32 14.32-30.46 47.48-46.13 79.09-39.72 4.78-9.16 11.9-16.9 20.4-22.96-47.91-17.86-102.48 3.79-124.62 50.87-23.32 49.6-1.95 108.94 47.66 132.26 32.63 15.35 69.48 11.34 97.51-7.32-10.2-3.81-19.75-9.33-27.72-16.54ZM1182.61 202.75c-9.16 2.9-17.99 7.12-26.13 12.43 20.59 20.77 27.18 53 14.03 80.97-1.3 2.77-2.78 5.41-4.38 7.93 9.06 3.66 18.66 5.69 28.38 6.2.38-.77.76-1.54 1.13-2.32 16.8-35.72 10.39-76.48-13.02-105.21Z" class="cls-6wed1"></path><path d="M1257.11 190.02c-2.99 1.77-6.62 3.71-10.92 6-6.03 3.21-11.68 5.69-16.65 7.61 26.03 16.75 36.31 50.7 22.78 79.46-14.73 31.32-52.19 44.82-83.51 30.09-31.32-14.73-44.82-52.19-30.09-83.51 13.63-28.98 46.73-42.7 76.41-32.92-1.61-5.11-3.21-10.97-4.57-17.49-1.01-4.86-1.87-9.01-2.45-12.55-38.25-5.34-77.23 14.39-94.51 51.14-21.24 45.18-1.77 99.21 43.4 120.45 45.18 21.24 99.21 1.77 120.45-43.4 17.17-36.51 7.74-78.79-20.34-104.88Z" class="cls-6wed1"></path><path d="M1272.2 168.8c1.57-13-22.29-24.95-23.31-25.45-8.48-4.14-26.93-10.42-34.4-2.82-4.43 4.5-2.81 12.77.59 29.11 1.99 9.54 4.5 17.69 6.79 24.09.79 2.2 3.3 3.41 5.52 2.67 6.25-2.08 14.38-5.24 23.33-10 13.78-7.34 20.69-11.03 21.48-17.6Z" class="cls-6wed1"></path><g transform="translate(380, 340)scale(2.3)" fill="none"><svg width="300" height="300"><style>.background-color{ fill: #fff; }.dot-color{ fill: #bbcbd3; }.corners-square-color-0-0{ fill: #88a2b1; }.corners-dot-color-0-0{ fill: #88a2b1; }.corners-square-color-1-0{ fill: #88a2b1; }.corners-dot-color-1-0{ fill: #88a2b1; }.corners-square-color-0-1{ fill: #88a2b1; }.corners-dot-color-0-1{ fill: #88a2b1; }</style><defs></defs><g class="dot-color"><path d="M 5 105v 10h 5a 5 5, 0, 0, 0, 0 -10" transform="rotate(-90,10,110)"></path><rect x="5" y="115" width="10" height="10" transform="rotate(0,10,120)"></rect><rect x="5" y="125" width="10" height="10" transform="rotate(0,10,130)"></rect><rect x="5" y="135" width="10" height="10" transform="rotate(0,10,140)"></rect><rect x="5" y="145" width="10" height="10" transform="rotate(0,10,150)"></rect><path d="M 5 155v 10h 5a 5 5, 0, 0, 0, 0 -10" transform="rotate(90,10,160)"></path><path d="M 5 185v 10h 10a 10 10, 0, 0, 0, -10 -10" transform="rotate(-90,10,190)"></path><path d="M 5 195v 10h 5a 5 5, 0, 0, 0, 0 -10" transform="rotate(90,10,200)"></path><path d="M 15 95v 10h 5a 5 5, 0, 0, 0, 0 -10" transform="rotate(180,20,100)"></path><rect x="15" y="125" width="10" height="10" transform="rotate(0,20,130)"></rect><rect x="15" y="145" width="10" height="10" transform="rotate(0,20,150)"></rect><path d="M 15 175v 10h 10a 10 10, 0, 0, 0, -10 -10" transform="rotate(-90,20,180)"></path><rect x="15" y="185" width="10" height="10" transform="rotate(0,20,190)"></rect><circle cx="20" cy="210" r="5" transform="rotate(0,20,210)"></circle><rect x="25" y="95" width="10" height="10" transform="rotate(0,30,100)"></rect><path d="M 25 105v 10h 10a 10 10, 0, 0, 0, -10 -10" transform="rotate(180,30,110)"></path><path d="M 25 125v 10h 5a 5 5, 0, 0, 0, 0 -10" transform="rotate(0,30,130)"></path><rect x="25" y="145" width="10" height="10" transform="rotate(0,30,150)"></rect><rect x="25" y="155" width="10" height="10" transform="rotate(0,30,160)"></rect><rect x="25" y="165" width="10" height="10" transform="rotate(0,30,170)"></rect><rect x="25" y="175" width="10" height="10" transform="rotate(0,30,180)"></rect><rect x="25" y="185" width="10" height="10" transform="rotate(0,30,190)"></rect><path d="M 35 85v 10h 5a 5 5, 0, 0, 0, 0 -10" transform="rotate(-90,40,90)"></path><rect x="35" y="95" width="10" height="10" transform="rotate(0,40,100)"></rect><path d="M 35 105v 10h 10a 10 10, 0, 0, 0, -10 -10" transform="rotate(90,40,110)"></path><rect x="35" y="145" width="10" height="10" transform="rotate(0,40,150)"></rect><path d="M 35 175v 10h 10a 10 10, 0, 0, 0, -10 -10" transform="rotate(0,40,180)"></path><rect x="35" y="185" width="10" height="10" transform="rotate(0,40,190)"></rect><path d="M 45 95v 10h 5a 5 5, 0, 0, 0, 0 -10" transform="rotate(0,50,100)"></path><path d="M 45 125v 10h 10a 10 10, 0, 0, 0, -10 -10" transform="rotate(-90,50,130)"></path><rect x="45" y="135" width="10" height="10" transform="rotate(0,50,140)"></rect><path d="M 45 145v 10h 10a 10 10, 0, 0, 0, -10 -10" transform="rotate(90,50,150)"></path><path d="M 45 185v 10h 5a 5 5, 0, 0, 0, 0 -10" transform="rotate(0,50,190)"></path><circle cx="50" cy="210" r="5" transform="rotate(0,50,210)"></circle><path d="M 55 85v 10h 5a 5 5, 0, 0, 0, 0 -10" transform="rotate(180,60,90)"></path><rect x="55" y="125" width="10" height="10" transform="rotate(0,60,130)"></rect><path d="M 55 135v 10h 10a 10 10, 0, 0, 0, -10 -10" transform="rotate(90,60,140)"></path><circle cx="60" cy="180" r="5" transform="rotate(0,60,180)"></circle><rect x="65" y="85" width="10" height="10" transform="rotate(0,70,90)"></rect><circle cx="70" cy="110" r="5" transform="rotate(0,70,110)"></circle><path d="M 65 125v 10h 5a 5 5, 0, 0, 0, 0 -10" transform="rotate(0,70,130)"></path><path d="M 65 145v 10h 5a 5 5, 0, 0, 0, 0 -10" transform="rotate(180,70,150)"></path><path d="M 65 165v 10h 5a 5 5, 0, 0, 0, 0 -10" transform="rotate(180,70,170)"></path><circle cx="70" cy="190" r="5" transform="rotate(0,70,190)"></circle><circle cx="70" cy="210" r="5" transform="rotate(0,70,210)"></circle><path d="M 75 85v 10h 5a 5 5, 0, 0, 0, 0 -10" transform="rotate(0,80,90)"></path><circle cx="80" cy="120" r="5" transform="rotate(0,80,120)"></circle><path d="M 75 135v 10h 10a 10 10, 0, 0, 0, -10 -10" transform="rotate(-90,80,140)"></path><path d="M 75 145v 10h 10a 10 10, 0, 0, 0, -10 -10" transform="rotate(90,80,150)"></path><path d="M 75 165v 10h 5a 5 5, 0, 0, 0, 0 -10" transform="rotate(0,80,170)"></path><path d="M 75 195v 10h 5a 5 5, 0, 0, 0, 0 -10" transform="rotate(180,80,200)"></path><path d="M 85 15v 10h 10a 10 10, 0, 0, 0, -10 -10" transform="rotate(-90,90,20)"></path><path d="M 85 25v 10h 10a 10 10, 0, 0, 0, -10 -10" transform="rotate(180,90,30)"></path><circle cx="90" cy="70" r="5" transform="rotate(0,90,70)"></circle><path d="M 85 135v 10h 5a 5 5, 0, 0, 0, 0 -10" transform="rotate(0,90,140)"></path><rect x="85" y="195" width="10" height="10" transform="rotate(0,90,200)"></rect><path d="M 85 205v 10h 10a 10 10, 0, 0, 0, -10 -10" transform="rotate(180,90,210)"></path><path d="M 85 225v 10h 5a 5 5, 0, 0, 0, 0 -10" transform="rotate(-90,90,230)"></path><path d="M 85 235v 10h 10a 10 10, 0, 0, 0, -10 -10" transform="rotate(180,90,240)"></path><circle cx="90" cy="260" r="5" transform="rotate(0,90,260)"></circle><path d="M 95 5v 10h 5a 5 5, 0, 0, 0, 0 -10" transform="rotate(-90,100,10)"></path><rect x="95" y="15" width="10" height="10" transform="rotate(0,100,20)"></rect><path d="M 95 25v 10h 10a 10 10, 0, 0, 0, -10 -10" transform="rotate(90,100,30)"></path><circle cx="100" cy="50" r="5" transform="rotate(0,100,50)"></circle><path d="M 95 75v 10h 10a 10 10, 0, 0, 0, -10 -10" transform="rotate(-90,100,80)"></path><path d="M 95 85v 10h 5a 5 5, 0, 0, 0, 0 -10" transform="rotate(90,100,90)"></path><path d="M 95 105v 10h 5a 5 5, 0, 0, 0, 0 -10" transform="rotate(180,100,110)"></path><path d="M 95 125v 10h 5a 5 5, 0, 0, 0, 0 -10" transform="rotate(180,100,130)"></path><path d="M 95 145v 10h 10a 10 10, 0, 0, 0, -10 -10" transform="rotate(-90,100,150)"></path><rect x="95" y="155" width="10" height="10" transform="rotate(0,100,160)"></rect><rect x="95" y="165" width="10" height="10" transform="rotate(0,100,170)"></rect><rect x="95" y="175" width="10" height="10" transform="rotate(0,100,180)"></rect><rect x="95" y="185" width="10" height="10" transform="rotate(0,100,190)"></rect><rect x="95" y="195" width="10" height="10" transform="rotate(0,100,200)"></rect><rect x="95" y="205" width="10" height="10" transform="rotate(0,100,210)"></rect><path d="M 95 215v 10h 10a 10 10, 0, 0, 0, -10 -10" transform="rotate(180,100,220)"></path><rect x="95" y="235" width="10" height="10" transform="rotate(0,100,240)"></rect><path d="M 95 275v 10h 5a 5 5, 0, 0, 0, 0 -10" transform="rotate(-90,100,280)"></path><path d="M 95 285v 10h 10a 10 10, 0, 0, 0, -10 -10" transform="rotate(180,100,290)"></path><path d="M 105 15v 10h 5a 5 5, 0, 0, 0, 0 -10" transform="rotate(0,110,20)"></path><path d="M 105 65v 10h 5a 5 5, 0, 0, 0, 0 -10" transform="rotate(-90,110,70)"></path><path d="M 105 75v 10h 10a 10 10, 0, 0, 0, -10 -10" transform="rotate(90,110,80)"></path><rect x="105" y="105" width="10" height="10" transform="rotate(0,110,110)"></rect><path d="M 105 125v 10h 5a 5 5, 0, 0, 0, 0 -10" transform="rotate(0,110,130)"></path><rect x="105" y="145" width="10" height="10" transform="rotate(0,110,150)"></rect><path d="M 105 155v 10h 10a 10 10, 0, 0, 0, -10 -10" transform="rotate(90,110,160)"></path><path d="M 105 175v 10h 5a 5 5, 0, 0, 0, 0 -10" transform="rotate(0,110,180)"></path><path d="M 105 195v 10h 5a 5 5, 0, 0, 0, 0 -10" transform="rotate(0,110,200)"></path><path d="M 105 215v 10h 5a 5 5, 0, 0, 0, 0 -10" transform="rotate(0,110,220)"></path><rect x="105" y="235" width="10" height="10" transform="rotate(0,110,240)"></rect><path d="M 105 285v 10h 5a 5 5, 0, 0, 0, 0 -10" transform="rotate(0,110,290)"></path><path d="M 115 5v 10h 5a 5 5, 0, 0, 0, 0 -10" transform="rotate(180,120,10)"></path><path d="M 115 25v 10h 5a 5 5, 0, 0, 0, 0 -10" transform="rotate(-90,120,30)"></path><path d="M 115 35v 10h 10a 10 10, 0, 0, 0, -10 -10" transform="rotate(180,120,40)"></path><circle cx="120" cy="60" r="5" transform="rotate(0,120,60)"></circle><path d="M 115 105v 10h 10a 10 10, 0, 0, 0, -10 -10" transform="rotate(0,120,110)"></path><path d="M 115 115v 10h 10a 10 10, 0, 0, 0, -10 -10" transform="rotate(180,120,120)"></path><rect x="115" y="145" width="10" height="10" transform="rotate(0,120,150)"></rect><circle cx="120" cy="190" r="5" transform="rotate(0,120,190)"></circle><path d="M 115 225v 10h 10a 10 10, 0, 0, 0, -10 -10" transform="rotate(-90,120,230)"></path><rect x="115" y="235" width="10" height="10" transform="rotate(0,120,240)"></rect><rect x="115" y="245" width="10" height="10" transform="rotate(0,120,250)"></rect><path d="M 115 255v 10h 10a 10 10, 0, 0, 0, -10 -10" transform="rotate(180,120,260)"></path><rect x="125" y="5" width="10" height="10" transform="rotate(0,130,10)"></rect><path d="M 125 35v 10h 10a 10 10, 0, 0, 0, -10 -10" transform="rotate(0,130,40)"></path><path d="M 125 45v 10h 5a 5 5, 0, 0, 0, 0 -10" transform="rotate(90,130,50)"></path><path d="M 125 65v 10h 5a 5 5, 0, 0, 0, 0 -10" transform="rotate(-90,130,70)"></path><path d="M 125 75v 10h 10a 10 10, 0, 0, 0, -10 -10" transform="rotate(180,130,80)"></path><circle cx="130" cy="100" r="5" transform="rotate(0,130,100)"></circle><rect x="125" y="115" width="10" height="10" transform="rotate(0,130,120)"></rect><rect x="125" y="145" width="10" height="10" transform="rotate(0,130,150)"></rect><rect x="125" y="155" width="10" height="10" transform="rotate(0,130,160)"></rect><path d="M 125 165v 10h 10a 10 10, 0, 0, 0, -10 -10" transform="rotate(180,130,170)"></path><path d="M 125 195v 10h 5a 5 5, 0, 0, 0, 0 -10" transform="rotate(180,130,200)"></path><path d="M 125 215v 10h 5a 5 5, 0, 0, 0, 0 -10" transform="rotate(-90,130,220)"></path><rect x="125" y="225" width="10" height="10" transform="rotate(0,130,230)"></rect><rect x="125" y="255" width="10" height="10" transform="rotate(0,130,260)"></rect><circle cx="130" cy="280" r="5" transform="rotate(0,130,280)"></circle><rect x="135" y="5" width="10" height="10" transform="rotate(0,140,10)"></rect><circle cx="140" cy="30" r="5" transform="rotate(0,140,30)"></circle><path d="M 135 75v 10h 5a 5 5, 0, 0, 0, 0 -10" transform="rotate(0,140,80)"></path><rect x="135" y="115" width="10" height="10" transform="rotate(0,140,120)"></rect><rect x="135" y="145" width="10" height="10" transform="rotate(0,140,150)"></rect><rect x="135" y="165" width="10" height="10" transform="rotate(0,140,170)"></rect><rect x="135" y="195" width="10" height="10" transform="rotate(0,140,200)"></rect><path d="M 135 205v 10h 5a 5 5, 0, 0, 0, 0 -10" transform="rotate(90,140,210)"></path><rect x="135" y="225" width="10" height="10" transform="rotate(0,140,230)"></rect><rect x="135" y="255" width="10" height="10" transform="rotate(0,140,260)"></rect><path d="M 135 285v 10h 5a 5 5, 0, 0, 0, 0 -10" transform="rotate(180,140,290)"></path><rect x="145" y="5" width="10" height="10" transform="rotate(0,150,10)"></rect><circle cx="150" cy="70" r="5" transform="rotate(0,150,70)"></circle><rect x="145" y="115" width="10" height="10" transform="rotate(0,150,120)"></rect><rect x="145" y="125" width="10" height="10" transform="rotate(0,150,130)"></rect><rect x="145" y="135" width="10" height="10" transform="rotate(0,150,140)"></rect><rect x="145" y="145" width="10" height="10" transform="rotate(0,150,150)"></rect><rect x="145" y="155" width="10" height="10" transform="rotate(0,150,160)"></rect><path d="M 145 165v 10h 10a 10 10, 0, 0, 0, -10 -10" transform="rotate(90,150,170)"></path><path d="M 145 195v 10h 5a 5 5, 0, 0, 0, 0 -10" transform="rotate(0,150,200)"></path><rect x="145" y="225" width="10" height="10" transform="rotate(0,150,230)"></rect><rect x="145" y="255" width="10" height="10" transform="rotate(0,150,260)"></rect><path d="M 145 265v 10h 5a 5 5, 0, 0, 0, 0 -10" transform="rotate(90,150,270)"></path><rect x="145" y="285" width="10" height="10" transform="rotate(0,150,290)"></rect><rect x="155" y="5" width="10" height="10" transform="rotate(0,160,10)"></rect><circle cx="160" cy="40" r="5" transform="rotate(0,160,40)"></circle><path d="M 155 75v 10h 5a 5 5, 0, 0, 0, 0 -10" transform="rotate(-90,160,80)"></path><rect x="155" y="85" width="10" height="10" transform="rotate(0,160,90)"></rect><path d="M 155 95v 10h 10a 10 10, 0, 0, 0, -10 -10" transform="rotate(180,160,100)"></path><rect x="155" y="115" width="10" height="10" transform="rotate(0,160,120)"></rect><rect x="155" y="135" width="10" height="10" transform="rotate(0,160,140)"></rect><rect x="155" y="145" width="10" height="10" transform="rotate(0,160,150)"></rect><path d="M 155 155v 10h 10a 10 10, 0, 0, 0, -10 -10" transform="rotate(90,160,160)"></path><path d="M 155 215v 10h 5a 5 5, 0, 0, 0, 0 -10" transform="rotate(-90,160,220)"></path><rect x="155" y="225" width="10" height="10" transform="rotate(0,160,230)"></rect><path d="M 155 255v 10h 5a 5 5, 0, 0, 0, 0 -10" transform="rotate(0,160,260)"></path><path d="M 155 285v 10h 5a 5 5, 0, 0, 0, 0 -10" transform="rotate(0,160,290)"></path><path d="M 165 5v 10h 10a 10 10, 0, 0, 0, -10 -10" transform="rotate(0,170,10)"></path><path d="M 165 15v 10h 10a 10 10, 0, 0, 0, -10 -10" transform="rotate(180,170,20)"></path><circle cx="170" cy="70" r="5" transform="rotate(0,170,70)"></circle><path d="M 165 85v 10h 10a 10 10, 0, 0, 0, -10 -10" transform="rotate(0,170,90)"></path><rect x="165" y="95" width="10" height="10" transform="rotate(0,170,100)"></rect><rect x="165" y="115" width="10" height="10" transform="rotate(0,170,120)"></rect><rect x="165" y="125" width="10" height="10" transform="rotate(0,170,130)"></rect><path d="M 165 135v 10h 10a 10 10, 0, 0, 0, -10 -10" transform="rotate(90,170,140)"></path><path d="M 165 165v 10h 10a 10 10, 0, 0, 0, -10 -10" transform="rotate(-90,170,170)"></path><rect x="165" y="175" width="10" height="10" transform="rotate(0,170,180)"></rect><rect x="165" y="185" width="10" height="10" transform="rotate(0,170,190)"></rect><rect x="165" y="195" width="10" height="10" transform="rotate(0,170,200)"></rect><path d="M 165 205v 10h 10a 10 10, 0, 0, 0, -10 -10" transform="rotate(180,170,210)"></path><path d="M 165 225v 10h 10a 10 10, 0, 0, 0, -10 -10" transform="rotate(0,170,230)"></path><rect x="165" y="235" width="10" height="10" transform="rotate(0,170,240)"></rect><path d="M 165 245v 10h 5a 5 5, 0, 0, 0, 0 -10" transform="rotate(90,170,250)"></path><rect x="175" y="15" width="10" height="10" transform="rotate(0,180,20)"></rect><path d="M 175 35v 10h 5a 5 5, 0, 0, 0, 0 -10" transform="rotate(180,180,40)"></path><circle cx="180" cy="80" r="5" transform="rotate(0,180,80)"></circle><path d="M 175 95v 10h 5a 5 5, 0, 0, 0, 0 -10" transform="rotate(0,180,100)"></path><rect x="175" y="115" width="10" height="10" transform="rotate(0,180,120)"></rect><rect x="175" y="125" width="10" height="10" transform="rotate(0,180,130)"></rect><rect x="175" y="165" width="10" height="10" transform="rotate(0,180,170)"></rect><rect x="175" y="195" width="10" height="10" transform="rotate(0,180,200)"></rect><rect x="175" y="205" width="10" height="10" transform="rotate(0,180,210)"></rect><path d="M 175 235v 10h 5a 5 5, 0, 0, 0, 0 -10" transform="rotate(0,180,240)"></path><path d="M 175 255v 10h 5a 5 5, 0, 0, 0, 0 -10" transform="rotate(-90,180,260)"></path><path d="M 175 265v 10h 5a 5 5, 0, 0, 0, 0 -10" transform="rotate(90,180,270)"></path><path d="M 175 285v 10h 5a 5 5, 0, 0, 0, 0 -10" transform="rotate(180,180,290)"></path><path d="M 185 5v 10h 5a 5 5, 0, 0, 0, 0 -10" transform="rotate(-90,190,10)"></path><path d="M 185 15v 10h 10a 10 10, 0, 0, 0, -10 -10" transform="rotate(90,190,20)"></path><path d="M 185 35v 10h 5a 5 5, 0, 0, 0, 0 -10" transform="rotate(0,190,40)"></path><path d="M 185 55v 10h 10a 10 10, 0, 0, 0, -10 -10" transform="rotate(-90,190,60)"></path><path d="M 185 65v 10h 5a 5 5, 0, 0, 0, 0 -10" transform="rotate(90,190,70)"></path><path d="M 185 115v 10h 10a 10 10, 0, 0, 0, -10 -10" transform="rotate(0,190,120)"></path><path d="M 185 125v 10h 10a 10 10, 0, 0, 0, -10 -10" transform="rotate(90,190,130)"></path><path d="M 185 145v 10h 5a 5 5, 0, 0, 0, 0 -10" transform="rotate(180,190,150)"></path><rect x="185" y="165" width="10" height="10" transform="rotate(0,190,170)"></rect><path d="M 185 175v 10h 5a 5 5, 0, 0, 0, 0 -10" transform="rotate(90,190,180)"></path><rect x="185" y="195" width="10" height="10" transform="rotate(0,190,200)"></rect><rect x="185" y="205" width="10" height="10" transform="rotate(0,190,210)"></rect><path d="M 185 285v 10h 5a 5 5, 0, 0, 0, 0 -10" transform="rotate(0,190,290)"></path><circle cx="200" cy="30" r="5" transform="rotate(0,200,30)"></circle><path d="M 195 45v 10h 10a 10 10, 0, 0, 0, -10 -10" transform="rotate(-90,200,50)"></path><path d="M 195 55v 10h 10a 10 10, 0, 0, 0, -10 -10" transform="rotate(90,200,60)"></path><path d="M 195 85v 10h 5a 5 5, 0, 0, 0, 0 -10" transform="rotate(180,200,90)"></path><circle cx="200" cy="110" r="5" transform="rotate(0,200,110)"></circle><path d="M 195 135v 10h 10a 10 10, 0, 0, 0, -10 -10" transform="rotate(-90,200,140)"></path><rect x="195" y="145" width="10" height="10" transform="rotate(0,200,150)"></rect><rect x="195" y="155" width="10" height="10" transform="rotate(0,200,160)"></rect><path d="M 195 165v 10h 10a 10 10, 0, 0, 0, -10 -10" transform="rotate(90,200,170)"></path><path d="M 195 185v 10h 10a 10 10, 0, 0, 0, -10 -10" transform="rotate(-90,200,190)"></path><rect x="195" y="195" width="10" height="10" transform="rotate(0,200,200)"></rect><rect x="195" y="205" width="10" height="10" transform="rotate(0,200,210)"></rect><rect x="195" y="215" width="10" height="10" transform="rotate(0,200,220)"></rect><rect x="195" y="225" width="10" height="10" transform="rotate(0,200,230)"></rect><rect x="195" y="235" width="10" height="10" transform="rotate(0,200,240)"></rect><rect x="195" y="245" width="10" height="10" transform="rotate(0,200,250)"></rect><path d="M 195 255v 10h 10a 10 10, 0, 0, 0, -10 -10" transform="rotate(180,200,260)"></path><circle cx="200" cy="280" r="5" transform="rotate(0,200,280)"></circle><path d="M 205 5v 10h 5a 5 5, 0, 0, 0, 0 -10" transform="rotate(-90,210,10)"></path><path d="M 205 15v 10h 5a 5 5, 0, 0, 0, 0 -10" transform="rotate(90,210,20)"></path><path d="M 205 45v 10h 5a 5 5, 0, 0, 0, 0 -10" transform="rotate(0,210,50)"></path><circle cx="210" cy="70" r="5" transform="rotate(0,210,70)"></circle><rect x="205" y="85" width="10" height="10" transform="rotate(0,210,90)"></rect><path d="M 205 125v 10h 10a 10 10, 0, 0, 0, -10 -10" transform="rotate(-90,210,130)"></path><rect x="205" y="135" width="10" height="10" transform="rotate(0,210,140)"></rect><rect x="205" y="145" width="10" height="10" transform="rotate(0,210,150)"></rect><path d="M 205 185v 10h 10a 10 10, 0, 0, 0, -10 -10" transform="rotate(0,210,190)"></path><rect x="205" y="195" width="10" height="10" transform="rotate(0,210,200)"></rect><rect x="205" y="205" width="10" height="10" transform="rotate(0,210,210)"></rect><rect x="205" y="215" width="10" height="10" transform="rotate(0,210,220)"></rect><rect x="205" y="225" width="10" height="10" transform="rotate(0,210,230)"></rect><rect x="205" y="235" width="10" height="10" transform="rotate(0,210,240)"></rect><rect x="205" y="245" width="10" height="10" transform="rotate(0,210,250)"></rect><rect x="205" y="255" width="10" height="10" transform="rotate(0,210,260)"></rect><path d="M 215 85v 10h 5a 5 5, 0, 0, 0, 0 -10" transform="rotate(0,220,90)"></path><circle cx="220" cy="110" r="5" transform="rotate(0,220,110)"></circle><rect x="215" y="125" width="10" height="10" transform="rotate(0,220,130)"></rect><rect x="215" y="135" width="10" height="10" transform="rotate(0,220,140)"></rect><rect x="215" y="145" width="10" height="10" transform="rotate(0,220,150)"></rect><rect x="215" y="155" width="10" height="10" transform="rotate(0,220,160)"></rect><rect x="215" y="165" width="10" height="10" transform="rotate(0,220,170)"></rect><path d="M 215 175v 10h 5a 5 5, 0, 0, 0, 0 -10" transform="rotate(90,220,180)"></path><path d="M 215 195v 10h 10a 10 10, 0, 0, 0, -10 -10" transform="rotate(0,220,200)"></path><rect x="215" y="205" width="10" height="10" transform="rotate(0,220,210)"></rect><rect x="215" y="245" width="10" height="10" transform="rotate(0,220,250)"></rect><rect x="215" y="255" width="10" height="10" transform="rotate(0,220,260)"></rect><path d="M 215 285v 10h 5a 5 5, 0, 0, 0, 0 -10" transform="rotate(180,220,290)"></path><path d="M 225 95v 10h 5a 5 5, 0, 0, 0, 0 -10" transform="rotate(180,230,100)"></path><rect x="225" y="125" width="10" height="10" transform="rotate(0,230,130)"></rect><rect x="225" y="135" width="10" height="10" transform="rotate(0,230,140)"></rect><rect x="225" y="145" width="10" height="10" transform="rotate(0,230,150)"></rect><path d="M 225 155v 10h 10a 10 10, 0, 0, 0, -10 -10" transform="rotate(90,230,160)"></path><rect x="225" y="205" width="10" height="10" transform="rotate(0,230,210)"></rect><circle cx="230" cy="230" r="5" transform="rotate(0,230,230)"></circle><rect x="225" y="245" width="10" height="10" transform="rotate(0,230,250)"></rect><rect x="225" y="255" width="10" height="10" transform="rotate(0,230,260)"></rect><rect x="225" y="265" width="10" height="10" transform="rotate(0,230,270)"></rect><rect x="225" y="275" width="10" height="10" transform="rotate(0,230,280)"></rect><rect x="225" y="285" width="10" height="10" transform="rotate(0,230,290)"></rect><rect x="235" y="95" width="10" height="10" transform="rotate(0,240,100)"></rect><rect x="235" y="105" width="10" height="10" transform="rotate(0,240,110)"></rect><rect x="235" y="115" width="10" height="10" transform="rotate(0,240,120)"></rect><path d="M 235 125v 10h 10a 10 10, 0, 0, 0, -10 -10" transform="rotate(90,240,130)"></path><path d="M 235 175v 10h 5a 5 5, 0, 0, 0, 0 -10" transform="rotate(180,240,180)"></path><path d="M 235 195v 10h 10a 10 10, 0, 0, 0, -10 -10" transform="rotate(-90,240,200)"></path><rect x="235" y="205" width="10" height="10" transform="rotate(0,240,210)"></rect><rect x="235" y="245" width="10" height="10" transform="rotate(0,240,250)"></rect><path d="M 235 255v 10h 10a 10 10, 0, 0, 0, -10 -10" transform="rotate(90,240,260)"></path><rect x="235" y="285" width="10" height="10" transform="rotate(0,240,290)"></rect><rect x="245" y="95" width="10" height="10" transform="rotate(0,250,100)"></rect><path d="M 245 135v 10h 5a 5 5, 0, 0, 0, 0 -10" transform="rotate(180,250,140)"></path><circle cx="250" cy="160" r="5" transform="rotate(0,250,160)"></circle><rect x="245" y="175" width="10" height="10" transform="rotate(0,250,180)"></rect><rect x="245" y="195" width="10" height="10" transform="rotate(0,250,200)"></rect><rect x="245" y="205" width="10" height="10" transform="rotate(0,250,210)"></rect><rect x="245" y="215" width="10" height="10" transform="rotate(0,250,220)"></rect><rect x="245" y="225" width="10" height="10" transform="rotate(0,250,230)"></rect><rect x="245" y="235" width="10" height="10" transform="rotate(0,250,240)"></rect><rect x="245" y="245" width="10" height="10" transform="rotate(0,250,250)"></rect><path d="M 245 275v 10h 10a 10 10, 0, 0, 0, -10 -10" transform="rotate(-90,250,280)"></path><path d="M 245 285v 10h 10a 10 10, 0, 0, 0, -10 -10" transform="rotate(90,250,290)"></path><rect x="255" y="95" width="10" height="10" transform="rotate(0,260,100)"></rect><path d="M 255 135v 10h 5a 5 5, 0, 0, 0, 0 -10" transform="rotate(0,260,140)"></path><rect x="255" y="175" width="10" height="10" transform="rotate(0,260,180)"></rect><path d="M 255 195v 10h 10a 10 10, 0, 0, 0, -10 -10" transform="rotate(0,260,200)"></path><path d="M 255 205v 10h 10a 10 10, 0, 0, 0, -10 -10" transform="rotate(90,260,210)"></path><path d="M 255 235v 10h 10a 10 10, 0, 0, 0, -10 -10" transform="rotate(0,260,240)"></path><rect x="255" y="245" width="10" height="10" transform="rotate(0,260,250)"></rect><rect x="255" y="255" width="10" height="10" transform="rotate(0,260,260)"></rect><rect x="255" y="265" width="10" height="10" transform="rotate(0,260,270)"></rect><rect x="255" y="275" width="10" height="10" transform="rotate(0,260,280)"></rect><path d="M 265 85v 10h 10a 10 10, 0, 0, 0, -10 -10" transform="rotate(-90,270,90)"></path><rect x="265" y="95" width="10" height="10" transform="rotate(0,270,100)"></rect><path d="M 265 145v 10h 10a 10 10, 0, 0, 0, -10 -10" transform="rotate(-90,270,150)"></path><path d="M 265 155v 10h 5a 5 5, 0, 0, 0, 0 -10" transform="rotate(90,270,160)"></path><path d="M 265 175v 10h 5a 5 5, 0, 0, 0, 0 -10" transform="rotate(0,270,180)"></path><path d="M 265 215v 10h 5a 5 5, 0, 0, 0, 0 -10" transform="rotate(180,270,220)"></path><path d="M 265 245v 10h 5a 5 5, 0, 0, 0, 0 -10" transform="rotate(0,270,250)"></path><path d="M 265 265v 10h 10a 10 10, 0, 0, 0, -10 -10" transform="rotate(0,270,270)"></path><rect x="265" y="275" width="10" height="10" transform="rotate(0,270,280)"></rect><path d="M 265 285v 10h 5a 5 5, 0, 0, 0, 0 -10" transform="rotate(90,270,290)"></path><path d="M 275 85v 10h 10a 10 10, 0, 0, 0, -10 -10" transform="rotate(0,280,90)"></path><rect x="275" y="95" width="10" height="10" transform="rotate(0,280,100)"></rect><rect x="275" y="105" width="10" height="10" transform="rotate(0,280,110)"></rect><path d="M 275 115v 10h 5a 5 5, 0, 0, 0, 0 -10" transform="rotate(90,280,120)"></path><rect x="275" y="145" width="10" height="10" transform="rotate(0,280,150)"></rect><path d="M 275 185v 10h 5a 5 5, 0, 0, 0, 0 -10" transform="rotate(-90,280,190)"></path><rect x="275" y="195" width="10" height="10" transform="rotate(0,280,200)"></rect><rect x="275" y="205" width="10" height="10" transform="rotate(0,280,210)"></rect><rect x="275" y="215" width="10" height="10" transform="rotate(0,280,220)"></rect><path d="M 275 225v 10h 5a 5 5, 0, 0, 0, 0 -10" transform="rotate(90,280,230)"></path><path d="M 285 95v 10h 5a 5 5, 0, 0, 0, 0 -10" transform="rotate(0,290,100)"></path><path d="M 285 135v 10h 5a 5 5, 0, 0, 0, 0 -10" transform="rotate(-90,290,140)"></path><rect x="285" y="145" width="10" height="10" transform="rotate(0,290,150)"></rect><path d="M 285 155v 10h 5a 5 5, 0, 0, 0, 0 -10" transform="rotate(90,290,160)"></path><path d="M 285 205v 10h 5a 5 5, 0, 0, 0, 0 -10" transform="rotate(0,290,210)"></path><path d="M 285 235v 10h 5a 5 5, 0, 0, 0, 0 -10" transform="rotate(-90,290,240)"></path><rect x="285" y="245" width="10" height="10" transform="rotate(0,290,250)"></rect><path d="M 285 255v 10h 5a 5 5, 0, 0, 0, 0 -10" transform="rotate(90,290,260)"></path><circle cx="290" cy="290" r="5" transform="rotate(0,290,290)"></circle></g><g class="corners-square-color-0-0"><path clip-rule="evenodd" d="M 5 30v 20a 25 25, 0, 0, 0, 25 25h 20a 25 25, 0, 0, 0, 25 -25v -20a 25 25, 0, 0, 0, -25 -25h -20a 25 25, 0, 0, 0, -25 25M 30 15h 20a 15 15, 0, 0, 1, 15 15v 20a 15 15, 0, 0, 1, -15 15h -20a 15 15, 0, 0, 1, -15 -15v -20a 15 15, 0, 0, 1, 15 -15" transform="rotate(0,40,40)"></path></g><g class="corners-dot-color-0-0"><circle cx="40" cy="40" r="15" transform="rotate(0,40,40)"></circle></g><g class="corners-square-color-1-0"><path clip-rule="evenodd" d="M 225 30v 20a 25 25, 0, 0, 0, 25 25h 20a 25 25, 0, 0, 0, 25 -25v -20a 25 25, 0, 0, 0, -25 -25h -20a 25 25, 0, 0, 0, -25 25M 250 15h 20a 15 15, 0, 0, 1, 15 15v 20a 15 15, 0, 0, 1, -15 15h -20a 15 15, 0, 0, 1, -15 -15v -20a 15 15, 0, 0, 1, 15 -15" transform="rotate(90,260,40)"></path></g><g class="corners-dot-color-1-0"><circle cx="260" cy="40" r="15" transform="rotate(90,260,40)"></circle></g><g class="corners-square-color-0-1"><path clip-rule="evenodd" d="M 5 250v 20a 25 25, 0, 0, 0, 25 25h 20a 25 25, 0, 0, 0, 25 -25v -20a 25 25, 0, 0, 0, -25 -25h -20a 25 25, 0, 0, 0, -25 25M 30 235h 20a 15 15, 0, 0, 1, 15 15v 20a 15 15, 0, 0, 1, -15 15h -20a 15 15, 0, 0, 1, -15 -15v -20a 15 15, 0, 0, 1, 15 -15" transform="rotate(-90,40,260)"></path></g><g class="corners-dot-color-0-1"><circle cx="40" cy="260" r="15" transform="rotate(-90,40,260)"></circle></g></svg></g></g></svg></svg>