<svg xmlns="http://www.w3.org/2000/svg" viewBox="0 0 1500 1500" width="300" height="300" fill="none">
  <svg>
    <g>
      <g transform="translate(440, 385)scale(2.47)">
        <rect x="0" y="0" width="250" height="250" fill="#ffffff"/>
        <rect x="0" y="0" width="10" height="10" fill="#0e372d"/>
        <rect x="10" y="0" width="10" height="10" fill="#0e372d"/>
        <rect x="20" y="0" width="10" height="10" fill="#0e372d"/>
        <rect x="30" y="0" width="10" height="10" fill="#0e372d"/>
        <rect x="40" y="0" width="10" height="10" fill="#0e372d"/>
        <rect x="50" y="0" width="10" height="10" fill="#0e372d"/>
        <rect x="60" y="0" width="10" height="10" fill="#0e372d"/>
        <rect x="100" y="0" width="10" height="10" fill="#0e372d"/>
        <rect x="110" y="0" width="10" height="10" fill="#0e372d"/>
        <rect x="140" y="0" width="10" height="10" fill="#0e372d"/>
        <rect x="150" y="0" width="10" height="10" fill="#0e372d"/>
        <rect x="180" y="0" width="10" height="10" fill="#0e372d"/>
        <rect x="190" y="0" width="10" height="10" fill="#0e372d"/>
        <rect x="200" y="0" width="10" height="10" fill="#0e372d"/>
        <rect x="210" y="0" width="10" height="10" fill="#0e372d"/>
        <rect x="220" y="0" width="10" height="10" fill="#0e372d"/>
        <rect x="230" y="0" width="10" height="10" fill="#0e372d"/>
        <rect x="240" y="0" width="10" height="10" fill="#0e372d"/>
        <rect x="0" y="10" width="10" height="10" fill="#0e372d"/>
        <rect x="60" y="10" width="10" height="10" fill="#0e372d"/>
        <rect x="100" y="10" width="10" height="10" fill="#0e372d"/>
        <rect x="110" y="10" width="10" height="10" fill="#0e372d"/>
        <rect x="120" y="10" width="10" height="10" fill="#0e372d"/>
        <rect x="140" y="10" width="10" height="10" fill="#0e372d"/>
        <rect x="150" y="10" width="10" height="10" fill="#0e372d"/>
        <rect x="180" y="10" width="10" height="10" fill="#0e372d"/>
        <rect x="240" y="10" width="10" height="10" fill="#0e372d"/>
        <rect x="0" y="20" width="10" height="10" fill="#0e372d"/>
        <rect x="20" y="20" width="10" height="10" fill="#0e372d"/>
        <rect x="30" y="20" width="10" height="10" fill="#0e372d"/>
        <rect x="40" y="20" width="10" height="10" fill="#0e372d"/>
        <rect x="60" y="20" width="10" height="10" fill="#0e372d"/>
        <rect x="90" y="20" width="10" height="10" fill="#0e372d"/>
        <rect x="120" y="20" width="10" height="10" fill="#0e372d"/>
        <rect x="140" y="20" width="10" height="10" fill="#0e372d"/>
        <rect x="160" y="20" width="10" height="10" fill="#0e372d"/>
        <rect x="180" y="20" width="10" height="10" fill="#0e372d"/>
        <rect x="200" y="20" width="10" height="10" fill="#0e372d"/>
        <rect x="210" y="20" width="10" height="10" fill="#0e372d"/>
        <rect x="220" y="20" width="10" height="10" fill="#0e372d"/>
        <rect x="240" y="20" width="10" height="10" fill="#0e372d"/>
        <rect x="0" y="30" width="10" height="10" fill="#0e372d"/>
        <rect x="20" y="30" width="10" height="10" fill="#0e372d"/>
        <rect x="30" y="30" width="10" height="10" fill="#0e372d"/>
        <rect x="40" y="30" width="10" height="10" fill="#0e372d"/>
        <rect x="60" y="30" width="10" height="10" fill="#0e372d"/>
        <rect x="90" y="30" width="10" height="10" fill="#0e372d"/>
        <rect x="100" y="30" width="10" height="10" fill="#0e372d"/>
        <rect x="140" y="30" width="10" height="10" fill="#0e372d"/>
        <rect x="180" y="30" width="10" height="10" fill="#0e372d"/>
        <rect x="200" y="30" width="10" height="10" fill="#0e372d"/>
        <rect x="210" y="30" width="10" height="10" fill="#0e372d"/>
        <rect x="220" y="30" width="10" height="10" fill="#0e372d"/>
        <rect x="240" y="30" width="10" height="10" fill="#0e372d"/>
        <rect x="0" y="40" width="10" height="10" fill="#0e372d"/>
        <rect x="20" y="40" width="10" height="10" fill="#0e372d"/>
        <rect x="30" y="40" width="10" height="10" fill="#0e372d"/>
        <rect x="40" y="40" width="10" height="10" fill="#0e372d"/>
        <rect x="60" y="40" width="10" height="10" fill="#0e372d"/>
        <rect x="100" y="40" width="10" height="10" fill="#0e372d"/>
        <rect x="120" y="40" width="10" height="10" fill="#0e372d"/>
        <rect x="130" y="40" width="10" height="10" fill="#0e372d"/>
        <rect x="150" y="40" width="10" height="10" fill="#0e372d"/>
        <rect x="160" y="40" width="10" height="10" fill="#0e372d"/>
        <rect x="180" y="40" width="10" height="10" fill="#0e372d"/>
        <rect x="200" y="40" width="10" height="10" fill="#0e372d"/>
        <rect x="210" y="40" width="10" height="10" fill="#0e372d"/>
        <rect x="220" y="40" width="10" height="10" fill="#0e372d"/>
        <rect x="240" y="40" width="10" height="10" fill="#0e372d"/>
        <rect x="0" y="50" width="10" height="10" fill="#0e372d"/>
        <rect x="60" y="50" width="10" height="10" fill="#0e372d"/>
        <rect x="80" y="50" width="10" height="10" fill="#0e372d"/>
        <rect x="100" y="50" width="10" height="10" fill="#0e372d"/>
        <rect x="120" y="50" width="10" height="10" fill="#0e372d"/>
        <rect x="150" y="50" width="10" height="10" fill="#0e372d"/>
        <rect x="180" y="50" width="10" height="10" fill="#0e372d"/>
        <rect x="240" y="50" width="10" height="10" fill="#0e372d"/>
        <rect x="0" y="60" width="10" height="10" fill="#0e372d"/>
        <rect x="10" y="60" width="10" height="10" fill="#0e372d"/>
        <rect x="20" y="60" width="10" height="10" fill="#0e372d"/>
        <rect x="30" y="60" width="10" height="10" fill="#0e372d"/>
        <rect x="40" y="60" width="10" height="10" fill="#0e372d"/>
        <rect x="50" y="60" width="10" height="10" fill="#0e372d"/>
        <rect x="60" y="60" width="10" height="10" fill="#0e372d"/>
        <rect x="80" y="60" width="10" height="10" fill="#0e372d"/>
        <rect x="100" y="60" width="10" height="10" fill="#0e372d"/>
        <rect x="120" y="60" width="10" height="10" fill="#0e372d"/>
        <rect x="140" y="60" width="10" height="10" fill="#0e372d"/>
        <rect x="160" y="60" width="10" height="10" fill="#0e372d"/>
        <rect x="180" y="60" width="10" height="10" fill="#0e372d"/>
        <rect x="190" y="60" width="10" height="10" fill="#0e372d"/>
        <rect x="200" y="60" width="10" height="10" fill="#0e372d"/>
        <rect x="210" y="60" width="10" height="10" fill="#0e372d"/>
        <rect x="220" y="60" width="10" height="10" fill="#0e372d"/>
        <rect x="230" y="60" width="10" height="10" fill="#0e372d"/>
        <rect x="240" y="60" width="10" height="10" fill="#0e372d"/>
        <rect x="120" y="70" width="10" height="10" fill="#0e372d"/>
        <rect x="140" y="70" width="10" height="10" fill="#0e372d"/>
        <rect x="0" y="80" width="10" height="10" fill="#0e372d"/>
        <rect x="30" y="80" width="10" height="10" fill="#0e372d"/>
        <rect x="50" y="80" width="10" height="10" fill="#0e372d"/>
        <rect x="60" y="80" width="10" height="10" fill="#0e372d"/>
        <rect x="80" y="80" width="10" height="10" fill="#0e372d"/>
        <rect x="100" y="80" width="10" height="10" fill="#0e372d"/>
        <rect x="110" y="80" width="10" height="10" fill="#0e372d"/>
        <rect x="120" y="80" width="10" height="10" fill="#0e372d"/>
        <rect x="130" y="80" width="10" height="10" fill="#0e372d"/>
        <rect x="140" y="80" width="10" height="10" fill="#0e372d"/>
        <rect x="170" y="80" width="10" height="10" fill="#0e372d"/>
        <rect x="190" y="80" width="10" height="10" fill="#0e372d"/>
        <rect x="0" y="90" width="10" height="10" fill="#0e372d"/>
        <rect x="10" y="90" width="10" height="10" fill="#0e372d"/>
        <rect x="20" y="90" width="10" height="10" fill="#0e372d"/>
        <rect x="30" y="90" width="10" height="10" fill="#0e372d"/>
        <rect x="40" y="90" width="10" height="10" fill="#0e372d"/>
        <rect x="50" y="90" width="10" height="10" fill="#0e372d"/>
        <rect x="80" y="90" width="10" height="10" fill="#0e372d"/>
        <rect x="90" y="90" width="10" height="10" fill="#0e372d"/>
        <rect x="120" y="90" width="10" height="10" fill="#0e372d"/>
        <rect x="130" y="90" width="10" height="10" fill="#0e372d"/>
        <rect x="160" y="90" width="10" height="10" fill="#0e372d"/>
        <rect x="180" y="90" width="10" height="10" fill="#0e372d"/>
        <rect x="240" y="90" width="10" height="10" fill="#0e372d"/>
        <rect x="0" y="100" width="10" height="10" fill="#0e372d"/>
        <rect x="40" y="100" width="10" height="10" fill="#0e372d"/>
        <rect x="50" y="100" width="10" height="10" fill="#0e372d"/>
        <rect x="60" y="100" width="10" height="10" fill="#0e372d"/>
        <rect x="100" y="100" width="10" height="10" fill="#0e372d"/>
        <rect x="110" y="100" width="10" height="10" fill="#0e372d"/>
        <rect x="130" y="100" width="10" height="10" fill="#0e372d"/>
        <rect x="160" y="100" width="10" height="10" fill="#0e372d"/>
        <rect x="170" y="100" width="10" height="10" fill="#0e372d"/>
        <rect x="180" y="100" width="10" height="10" fill="#0e372d"/>
        <rect x="230" y="100" width="10" height="10" fill="#0e372d"/>
        <rect x="240" y="100" width="10" height="10" fill="#0e372d"/>
        <rect x="40" y="110" width="10" height="10" fill="#0e372d"/>
        <rect x="80" y="110" width="10" height="10" fill="#0e372d"/>
        <rect x="90" y="110" width="10" height="10" fill="#0e372d"/>
        <rect x="100" y="110" width="10" height="10" fill="#0e372d"/>
        <rect x="110" y="110" width="10" height="10" fill="#0e372d"/>
        <rect x="130" y="110" width="10" height="10" fill="#0e372d"/>
        <rect x="160" y="110" width="10" height="10" fill="#0e372d"/>
        <rect x="170" y="110" width="10" height="10" fill="#0e372d"/>
        <rect x="180" y="110" width="10" height="10" fill="#0e372d"/>
        <rect x="200" y="110" width="10" height="10" fill="#0e372d"/>
        <rect x="10" y="120" width="10" height="10" fill="#0e372d"/>
        <rect x="30" y="120" width="10" height="10" fill="#0e372d"/>
        <rect x="40" y="120" width="10" height="10" fill="#0e372d"/>
        <rect x="60" y="120" width="10" height="10" fill="#0e372d"/>
        <rect x="70" y="120" width="10" height="10" fill="#0e372d"/>
        <rect x="100" y="120" width="10" height="10" fill="#0e372d"/>
        <rect x="120" y="120" width="10" height="10" fill="#0e372d"/>
        <rect x="130" y="120" width="10" height="10" fill="#0e372d"/>
        <rect x="160" y="120" width="10" height="10" fill="#0e372d"/>
        <rect x="170" y="120" width="10" height="10" fill="#0e372d"/>
        <rect x="180" y="120" width="10" height="10" fill="#0e372d"/>
        <rect x="190" y="120" width="10" height="10" fill="#0e372d"/>
        <rect x="210" y="120" width="10" height="10" fill="#0e372d"/>
        <rect x="230" y="120" width="10" height="10" fill="#0e372d"/>
        <rect x="240" y="120" width="10" height="10" fill="#0e372d"/>
        <rect x="20" y="130" width="10" height="10" fill="#0e372d"/>
        <rect x="40" y="130" width="10" height="10" fill="#0e372d"/>
        <rect x="110" y="130" width="10" height="10" fill="#0e372d"/>
        <rect x="140" y="130" width="10" height="10" fill="#0e372d"/>
        <rect x="180" y="130" width="10" height="10" fill="#0e372d"/>
        <rect x="190" y="130" width="10" height="10" fill="#0e372d"/>
        <rect x="210" y="130" width="10" height="10" fill="#0e372d"/>
        <rect x="220" y="130" width="10" height="10" fill="#0e372d"/>
        <rect x="240" y="130" width="10" height="10" fill="#0e372d"/>
        <rect x="0" y="140" width="10" height="10" fill="#0e372d"/>
        <rect x="20" y="140" width="10" height="10" fill="#0e372d"/>
        <rect x="30" y="140" width="10" height="10" fill="#0e372d"/>
        <rect x="50" y="140" width="10" height="10" fill="#0e372d"/>
        <rect x="60" y="140" width="10" height="10" fill="#0e372d"/>
        <rect x="80" y="140" width="10" height="10" fill="#0e372d"/>
        <rect x="110" y="140" width="10" height="10" fill="#0e372d"/>
        <rect x="130" y="140" width="10" height="10" fill="#0e372d"/>
        <rect x="160" y="140" width="10" height="10" fill="#0e372d"/>
        <rect x="180" y="140" width="10" height="10" fill="#0e372d"/>
        <rect x="190" y="140" width="10" height="10" fill="#0e372d"/>
        <rect x="200" y="140" width="10" height="10" fill="#0e372d"/>
        <rect x="220" y="140" width="10" height="10" fill="#0e372d"/>
        <rect x="240" y="140" width="10" height="10" fill="#0e372d"/>
        <rect x="10" y="150" width="10" height="10" fill="#0e372d"/>
        <rect x="20" y="150" width="10" height="10" fill="#0e372d"/>
        <rect x="30" y="150" width="10" height="10" fill="#0e372d"/>
        <rect x="50" y="150" width="10" height="10" fill="#0e372d"/>
        <rect x="70" y="150" width="10" height="10" fill="#0e372d"/>
        <rect x="90" y="150" width="10" height="10" fill="#0e372d"/>
        <rect x="120" y="150" width="10" height="10" fill="#0e372d"/>
        <rect x="130" y="150" width="10" height="10" fill="#0e372d"/>
        <rect x="160" y="150" width="10" height="10" fill="#0e372d"/>
        <rect x="180" y="150" width="10" height="10" fill="#0e372d"/>
        <rect x="200" y="150" width="10" height="10" fill="#0e372d"/>
        <rect x="230" y="150" width="10" height="10" fill="#0e372d"/>
        <rect x="0" y="160" width="10" height="10" fill="#0e372d"/>
        <rect x="10" y="160" width="10" height="10" fill="#0e372d"/>
        <rect x="30" y="160" width="10" height="10" fill="#0e372d"/>
        <rect x="40" y="160" width="10" height="10" fill="#0e372d"/>
        <rect x="50" y="160" width="10" height="10" fill="#0e372d"/>
        <rect x="60" y="160" width="10" height="10" fill="#0e372d"/>
        <rect x="70" y="160" width="10" height="10" fill="#0e372d"/>
        <rect x="80" y="160" width="10" height="10" fill="#0e372d"/>
        <rect x="100" y="160" width="10" height="10" fill="#0e372d"/>
        <rect x="110" y="160" width="10" height="10" fill="#0e372d"/>
        <rect x="120" y="160" width="10" height="10" fill="#0e372d"/>
        <rect x="140" y="160" width="10" height="10" fill="#0e372d"/>
        <rect x="160" y="160" width="10" height="10" fill="#0e372d"/>
        <rect x="170" y="160" width="10" height="10" fill="#0e372d"/>
        <rect x="180" y="160" width="10" height="10" fill="#0e372d"/>
        <rect x="190" y="160" width="10" height="10" fill="#0e372d"/>
        <rect x="200" y="160" width="10" height="10" fill="#0e372d"/>
        <rect x="210" y="160" width="10" height="10" fill="#0e372d"/>
        <rect x="220" y="160" width="10" height="10" fill="#0e372d"/>
        <rect x="80" y="170" width="10" height="10" fill="#0e372d"/>
        <rect x="90" y="170" width="10" height="10" fill="#0e372d"/>
        <rect x="100" y="170" width="10" height="10" fill="#0e372d"/>
        <rect x="110" y="170" width="10" height="10" fill="#0e372d"/>
        <rect x="140" y="170" width="10" height="10" fill="#0e372d"/>
        <rect x="160" y="170" width="10" height="10" fill="#0e372d"/>
        <rect x="200" y="170" width="10" height="10" fill="#0e372d"/>
        <rect x="210" y="170" width="10" height="10" fill="#0e372d"/>
        <rect x="240" y="170" width="10" height="10" fill="#0e372d"/>
        <rect x="0" y="180" width="10" height="10" fill="#0e372d"/>
        <rect x="10" y="180" width="10" height="10" fill="#0e372d"/>
        <rect x="20" y="180" width="10" height="10" fill="#0e372d"/>
        <rect x="30" y="180" width="10" height="10" fill="#0e372d"/>
        <rect x="40" y="180" width="10" height="10" fill="#0e372d"/>
        <rect x="50" y="180" width="10" height="10" fill="#0e372d"/>
        <rect x="60" y="180" width="10" height="10" fill="#0e372d"/>
        <rect x="90" y="180" width="10" height="10" fill="#0e372d"/>
        <rect x="100" y="180" width="10" height="10" fill="#0e372d"/>
        <rect x="120" y="180" width="10" height="10" fill="#0e372d"/>
        <rect x="130" y="180" width="10" height="10" fill="#0e372d"/>
        <rect x="150" y="180" width="10" height="10" fill="#0e372d"/>
        <rect x="160" y="180" width="10" height="10" fill="#0e372d"/>
        <rect x="180" y="180" width="10" height="10" fill="#0e372d"/>
        <rect x="200" y="180" width="10" height="10" fill="#0e372d"/>
        <rect x="210" y="180" width="10" height="10" fill="#0e372d"/>
        <rect x="230" y="180" width="10" height="10" fill="#0e372d"/>
        <rect x="240" y="180" width="10" height="10" fill="#0e372d"/>
        <rect x="0" y="190" width="10" height="10" fill="#0e372d"/>
        <rect x="60" y="190" width="10" height="10" fill="#0e372d"/>
        <rect x="80" y="190" width="10" height="10" fill="#0e372d"/>
        <rect x="90" y="190" width="10" height="10" fill="#0e372d"/>
        <rect x="120" y="190" width="10" height="10" fill="#0e372d"/>
        <rect x="160" y="190" width="10" height="10" fill="#0e372d"/>
        <rect x="200" y="190" width="10" height="10" fill="#0e372d"/>
        <rect x="210" y="190" width="10" height="10" fill="#0e372d"/>
        <rect x="220" y="190" width="10" height="10" fill="#0e372d"/>
        <rect x="230" y="190" width="10" height="10" fill="#0e372d"/>
        <rect x="240" y="190" width="10" height="10" fill="#0e372d"/>
        <rect x="0" y="200" width="10" height="10" fill="#0e372d"/>
        <rect x="20" y="200" width="10" height="10" fill="#0e372d"/>
        <rect x="30" y="200" width="10" height="10" fill="#0e372d"/>
        <rect x="40" y="200" width="10" height="10" fill="#0e372d"/>
        <rect x="60" y="200" width="10" height="10" fill="#0e372d"/>
        <rect x="90" y="200" width="10" height="10" fill="#0e372d"/>
        <rect x="110" y="200" width="10" height="10" fill="#0e372d"/>
        <rect x="130" y="200" width="10" height="10" fill="#0e372d"/>
        <rect x="140" y="200" width="10" height="10" fill="#0e372d"/>
        <rect x="160" y="200" width="10" height="10" fill="#0e372d"/>
        <rect x="170" y="200" width="10" height="10" fill="#0e372d"/>
        <rect x="180" y="200" width="10" height="10" fill="#0e372d"/>
        <rect x="190" y="200" width="10" height="10" fill="#0e372d"/>
        <rect x="200" y="200" width="10" height="10" fill="#0e372d"/>
        <rect x="210" y="200" width="10" height="10" fill="#0e372d"/>
        <rect x="230" y="200" width="10" height="10" fill="#0e372d"/>
        <rect x="0" y="210" width="10" height="10" fill="#0e372d"/>
        <rect x="20" y="210" width="10" height="10" fill="#0e372d"/>
        <rect x="30" y="210" width="10" height="10" fill="#0e372d"/>
        <rect x="40" y="210" width="10" height="10" fill="#0e372d"/>
        <rect x="60" y="210" width="10" height="10" fill="#0e372d"/>
        <rect x="80" y="210" width="10" height="10" fill="#0e372d"/>
        <rect x="90" y="210" width="10" height="10" fill="#0e372d"/>
        <rect x="120" y="210" width="10" height="10" fill="#0e372d"/>
        <rect x="130" y="210" width="10" height="10" fill="#0e372d"/>
        <rect x="160" y="210" width="10" height="10" fill="#0e372d"/>
        <rect x="170" y="210" width="10" height="10" fill="#0e372d"/>
        <rect x="190" y="210" width="10" height="10" fill="#0e372d"/>
        <rect x="200" y="210" width="10" height="10" fill="#0e372d"/>
        <rect x="210" y="210" width="10" height="10" fill="#0e372d"/>
        <rect x="220" y="210" width="10" height="10" fill="#0e372d"/>
        <rect x="0" y="220" width="10" height="10" fill="#0e372d"/>
        <rect x="20" y="220" width="10" height="10" fill="#0e372d"/>
        <rect x="30" y="220" width="10" height="10" fill="#0e372d"/>
        <rect x="40" y="220" width="10" height="10" fill="#0e372d"/>
        <rect x="60" y="220" width="10" height="10" fill="#0e372d"/>
        <rect x="90" y="220" width="10" height="10" fill="#0e372d"/>
        <rect x="100" y="220" width="10" height="10" fill="#0e372d"/>
        <rect x="130" y="220" width="10" height="10" fill="#0e372d"/>
        <rect x="190" y="220" width="10" height="10" fill="#0e372d"/>
        <rect x="200" y="220" width="10" height="10" fill="#0e372d"/>
        <rect x="220" y="220" width="10" height="10" fill="#0e372d"/>
        <rect x="240" y="220" width="10" height="10" fill="#0e372d"/>
        <rect x="0" y="230" width="10" height="10" fill="#0e372d"/>
        <rect x="60" y="230" width="10" height="10" fill="#0e372d"/>
        <rect x="100" y="230" width="10" height="10" fill="#0e372d"/>
        <rect x="120" y="230" width="10" height="10" fill="#0e372d"/>
        <rect x="130" y="230" width="10" height="10" fill="#0e372d"/>
        <rect x="140" y="230" width="10" height="10" fill="#0e372d"/>
        <rect x="160" y="230" width="10" height="10" fill="#0e372d"/>
        <rect x="170" y="230" width="10" height="10" fill="#0e372d"/>
        <rect x="180" y="230" width="10" height="10" fill="#0e372d"/>
        <rect x="210" y="230" width="10" height="10" fill="#0e372d"/>
        <rect x="0" y="240" width="10" height="10" fill="#0e372d"/>
        <rect x="10" y="240" width="10" height="10" fill="#0e372d"/>
        <rect x="20" y="240" width="10" height="10" fill="#0e372d"/>
        <rect x="30" y="240" width="10" height="10" fill="#0e372d"/>
        <rect x="40" y="240" width="10" height="10" fill="#0e372d"/>
        <rect x="50" y="240" width="10" height="10" fill="#0e372d"/>
        <rect x="60" y="240" width="10" height="10" fill="#0e372d"/>
        <rect x="80" y="240" width="10" height="10" fill="#0e372d"/>
        <rect x="120" y="240" width="10" height="10" fill="#0e372d"/>
        <rect x="130" y="240" width="10" height="10" fill="#0e372d"/>
        <rect x="150" y="240" width="10" height="10" fill="#0e372d"/>
        <rect x="160" y="240" width="10" height="10" fill="#0e372d"/>
        <rect x="190" y="240" width="10" height="10" fill="#0e372d"/>
        <rect x="230" y="240" width="10" height="10" fill="#0e372d"/>
        <rect x="240" y="240" width="10" height="10" fill="#0e372d"/>
      </g>
    </g>
  </svg>
  <g>
    <defs>
      <style>
        .cls-4wed1{fill:#ffeea9}.cls-4wed2{fill:#f8e16c}.cls-4wed3{fill:#00c49a}.cls-4wed4{fill:#4eeac4}
      </style>
    </defs>
    <path d="M1271.09 778.14c-6.13-1.63-49.96-13.69-60.09-35.32-1.13-2.42-3.99-8.52-1.54-13.37 3.29-6.52 14.35-7.17 20.21-6.12 15.86 2.84 32.29 25.02 41.42 54.81ZM1257.29 689.69c-5.38-1.67-43.84-13.96-51.79-33.23-.89-2.16-3.13-7.6-.71-11.72 3.26-5.55 13.15-5.67 18.32-4.52 14 3.11 27.53 23.12 34.18 49.48ZM1230.35 605.22c-5.78-2.33-47.05-19.35-53.47-40.69-.72-2.39-2.53-8.41.69-12.56 4.33-5.58 15.35-4.7 20.96-2.95 15.19 4.75 27.73 27.44 31.82 56.2ZM1267.23 654.15c-1.16-4.91-9.11-40.07 7.21-49.68 1.83-1.08 6.43-3.79 12.2-2.26 7.75 2.06 13.32 10.64 14.92 15.3 4.35 12.61-9.69 27.17-34.33 36.64ZM1289.11 746.04c.74-4.98 6.47-40.49 28.21-44.06 2.44-.4 8.57-1.41 14.24 1.94 7.62 4.49 10.18 14.36 10.03 19.25-.41 13.23-21.71 22.19-52.48 22.88ZM1281.15 838.92c3.12-4.48 25.84-36.27 52.04-31.61 2.93.52 10.33 1.83 15.2 7.13 6.55 7.12 4.92 17.49 2.51 22.1-6.52 12.48-34.68 13.14-69.75 2.39Z" class="cls-4wed4"/>
    <path d="M1247.18 899.06c-.37.24-.9.26-1.36.01-.61-.33-.86-1-.56-1.5 19.53-32.4 49.02-100.32 27.09-191.17-9.7-40.2-28.09-79.75-54.66-117.53-.38-.54-.22-1.19.35-1.46s1.34-.05 1.72.48c26.73 38.03 45.24 77.83 55.01 118.3 10.21 42.32 10.47 84.06.76 124.07-5.92 24.39-15.36 47.44-28.05 68.49-.08.13-.18.23-.3.31Z" class="cls-4wed4"/>
    <path d="M915.82 1229.52c-6.46-10.11-52.02-82.96-30.96-127.31 2.36-4.97 8.3-17.48 20.1-21.47 15.87-5.37 33.56 7.62 40.59 16.54 19.06 24.13 6.51 77.22-29.74 132.25ZM1050.32 1134.96c-5.57-7.41-44.93-60.84-31.07-96.43 1.55-3.99 5.46-14.02 14.39-17.85 12-5.14 26.43 3.79 32.38 10.24 16.11 17.45 9.34 59.26-15.7 104.04ZM1141.09 1013.73c-4.6-6.8-37.06-55.79-23.38-86.55 1.53-3.45 5.39-12.12 13.41-15.08 10.78-3.98 23.12 4.57 28.1 10.54 13.47 16.16 5.78 52.74-18.13 91.1ZM1210.77 885.85c-4.29-7.96-34.46-65.26-16.37-97.23 2.03-3.58 7.13-12.6 16.15-14.89 12.14-3.08 24.66 7.71 29.45 14.81 12.95 19.22.77 58.25-29.23 97.31ZM1196.64 978.65c4.55-7.08 37.59-57.44 69.43-54.93 3.57.28 12.55.99 17.8 7.95 7.06 9.36 3.46 24.84-.23 32-9.99 19.38-45.06 24.98-86.99 14.98ZM1111.66 1111.23c6.98-5.49 57.31-44.25 88.49-29.52 3.49 1.65 12.29 5.81 15.2 14.91 3.92 12.25-4.95 26.67-11.09 32.56-16.63 15.96-53.81 8.27-92.6-17.96ZM988.67 1218.77c9.31-2.78 76.06-21.99 102.71 6.8 2.98 3.22 10.5 11.35 10.06 22.16-.59 14.54-15.24 25.9-23.83 29.46-23.25 9.65-58.78-14.3-88.94-58.42Z" class="cls-4wed3"/>
    <path d="M873.5 1263.06c-.74-.03-1.42-.47-1.69-1.18-.36-.94.15-1.99 1.14-2.35 63.56-22.77 182.69-80.6 266.35-211.95 37.02-58.12 62.52-123.07 75.8-193.05.19-.99 1.18-1.66 2.21-1.49 1.03.17 1.72 1.11 1.53 2.1-13.36 70.42-39.03 135.8-76.3 194.31-38.96 61.18-89.51 112.89-150.24 153.69-37.02 24.87-76.74 44.99-118.05 59.79-.25.09-.5.12-.74.12Z" class="cls-4wed3"/>
    <path d="M228.91 778.14c6.13-1.63 49.96-13.69 60.09-35.32 1.13-2.42 3.99-8.52 1.54-13.37-3.29-6.52-14.35-7.17-20.21-6.12-15.86 2.84-32.29 25.02-41.42 54.81ZM242.71 689.69c5.38-1.67 43.84-13.96 51.79-33.23.89-2.16 3.13-7.6.71-11.72-3.26-5.55-13.15-5.67-18.32-4.52-14 3.11-27.53 23.12-34.18 49.48ZM269.65 605.22c5.78-2.33 47.05-19.35 53.47-40.69.72-2.39 2.53-8.41-.69-12.56-4.33-5.58-15.35-4.7-20.96-2.95-15.19 4.75-27.73 27.44-31.82 56.2ZM232.77 654.15c1.16-4.91 9.11-40.07-7.21-49.68-1.83-1.08-6.43-3.79-12.2-2.26-7.75 2.06-13.32 10.64-14.92 15.3-4.35 12.61 9.69 27.17 34.33 36.64ZM210.89 746.04c-.74-4.98-6.47-40.49-28.21-44.06-2.44-.4-8.57-1.41-14.24 1.94-7.62 4.49-10.18 14.36-10.03 19.25.41 13.23 21.71 22.19 52.48 22.88ZM218.85 838.92c-3.12-4.48-25.84-36.27-52.04-31.61-2.93.52-10.33 1.83-15.2 7.13-6.55 7.12-4.92 17.49-2.51 22.1 6.52 12.48 34.68 13.14 69.75 2.39Z" class="cls-4wed4"/>
    <path d="M252.82 899.06c.37.24.9.26 1.36.01.61-.33.86-1 .56-1.5-19.53-32.4-49.02-100.32-27.09-191.17 9.7-40.2 28.09-79.75 54.66-117.53.38-.54.22-1.19-.35-1.46s-1.34-.05-1.72.48c-26.73 38.03-45.24 77.83-55.01 118.3-10.21 42.32-10.47 84.06-.76 124.07 5.92 24.39 15.36 47.44 28.05 68.49.08.13.18.23.3.31Z" class="cls-4wed4"/>
    <path d="M584.18 1229.52c6.46-10.11 52.02-82.96 30.96-127.31-2.36-4.97-8.3-17.48-20.1-21.47-15.87-5.37-33.56 7.62-40.59 16.54-19.06 24.13-6.51 77.22 29.74 132.25ZM449.68 1134.96c5.57-7.41 44.93-60.84 31.07-96.43-1.55-3.99-5.46-14.02-14.39-17.85-12-5.14-26.43 3.79-32.38 10.24-16.11 17.45-9.34 59.26 15.7 104.04ZM358.91 1013.73c4.6-6.8 37.06-55.79 23.38-86.55-1.53-3.45-5.39-12.12-13.41-15.08-10.78-3.98-23.12 4.57-28.1 10.54-13.47 16.16-5.78 52.74 18.13 91.1ZM289.23 885.85c4.29-7.96 34.46-65.26 16.37-97.23-2.03-3.58-7.13-12.6-16.15-14.89-12.14-3.08-24.66 7.71-29.45 14.81-12.95 19.22-.77 58.25 29.23 97.31ZM303.36 978.65c-4.55-7.08-37.59-57.44-69.43-54.93-3.57.28-12.55.99-17.8 7.95-7.06 9.36-3.46 24.84.23 32 9.99 19.38 45.06 24.98 86.99 14.98ZM388.34 1111.23c-6.98-5.49-57.31-44.25-88.49-29.52-3.49 1.65-12.29 5.81-15.2 14.91-3.92 12.25 4.95 26.67 11.09 32.56 16.63 15.96 53.81 8.27 92.6-17.96ZM511.33 1218.77c-9.31-2.78-76.06-21.99-102.71 6.8-2.98 3.22-10.5 11.35-10.06 22.16.59 14.54 15.24 25.9 23.83 29.46 23.25 9.65 58.78-14.3 88.94-58.42Z" class="cls-4wed3"/>
    <path d="M626.5 1263.06c.74-.03 1.42-.47 1.69-1.18.36-.94-.15-1.99-1.14-2.35-63.56-22.77-182.69-80.6-266.35-211.95-37.02-58.12-62.52-123.07-75.8-193.05-.19-.99-1.18-1.66-2.21-1.49-1.03.17-1.72 1.11-1.53 2.1 13.36 70.42 39.03 135.8 76.3 194.31 38.96 61.18 89.51 112.89 150.24 153.69 37.02 24.87 76.74 44.99 118.05 59.79.25.09.5.12.74.12Z" class="cls-4wed3"/>
    <path d="M726.68 1319.5c-15.89 0-31.5-4.43-45.31-13.04-19.49-12.15-33.08-31.16-38.28-53.53-10.72-46.18 18.13-92.47 64.32-103.19 46.18-10.72 92.47 18.13 103.19 64.32 10.72 46.18-18.13 92.47-64.32 103.19a86.713 86.713 0 0 1-19.6 2.26Zm-59.15-72.25c3.68 15.84 13.3 29.31 27.11 37.91 13.8 8.6 30.13 11.32 45.97 7.64 32.7-7.59 53.14-40.37 45.55-73.08-7.59-32.71-40.37-53.14-73.08-45.55-32.7 7.59-53.13 40.38-45.55 73.08Z" class="cls-4wed2"/>
    <path d="M810.22 1214.04c-10.73-46.18-57.02-75.04-103.19-64.32-39.67 9.21-66.55 44.67-66.55 83.76 0 6.42.72 12.92 2.23 19.44 5.2 22.38 18.79 41.38 38.28 53.53 13.82 8.61 29.43 13.05 45.31 13.05h.91c-14.71-.29-29.12-4.53-41.93-12.52-18.71-11.66-31.77-29.9-36.75-51.38a82.496 82.496 0 0 1-2.14-18.67c0-37.52 25.81-71.55 63.88-80.39 44.33-10.3 88.77 17.4 99.06 61.73 3.48 14.98 2.62 29.98-1.77 43.67a85.457 85.457 0 0 0 2.64-47.89Z" class="cls-4wed1"/>
    <path d="M736.2 1312.77c-7.17-10.26-11.36-22.34-12.04-35.15-.96-18.07 5.18-35.43 17.28-48.89 24.98-27.77 67.9-30.04 95.67-5.06 27.77 24.98 30.04 67.9 5.06 95.67-24.98 27.77-67.9 30.04-95.67 5.06a68.311 68.311 0 0 1-10.31-11.64Zm19.94-70.81c-8.57 9.53-12.92 21.82-12.24 34.62.68 12.8 6.3 24.56 15.83 33.13 19.67 17.69 50.06 16.08 67.75-3.59 17.69-19.67 16.08-50.06-3.59-67.75-19.67-17.69-50.06-16.08-67.75 3.59Z" class="cls-4wed2"/>
    <path d="M842.02 1319.1c24.98-27.78 22.71-70.7-5.06-95.68-23.86-21.46-58.89-22.8-84.13-5.16-4.14 2.9-8.02 6.3-11.54 10.22-12.1 13.46-18.24 30.82-17.28 48.89.68 12.81 4.86 24.89 12.04 35.15.14.2.28.39.42.59-6.46-9.63-10.22-20.85-10.85-32.73-.92-17.35 4.97-34.01 16.59-46.93a64.41 64.41 0 0 1 11.09-9.81c24.23-16.94 57.86-15.64 80.75 4.95 26.66 23.98 28.84 65.18 4.87 91.84a64.612 64.612 0 0 1-28.99 18.58c11.99-3.33 23.2-10 32.12-19.91Z" class="cls-4wed1"/>
  </g>
</svg>
