<svg xmlns="http://www.w3.org/2000/svg" viewBox="0 0 1500 1500" width="300" height="300" fill="none">
  <svg>
    <g>
      <g transform="translate(440, 485)scale(2.47)">
        <rect x="0" y="0" width="250" height="250" fill="#ffffff"/>
        <rect x="0" y="0" width="10" height="10" fill="#0e372d"/>
        <rect x="10" y="0" width="10" height="10" fill="#0e372d"/>
        <rect x="20" y="0" width="10" height="10" fill="#0e372d"/>
        <rect x="30" y="0" width="10" height="10" fill="#0e372d"/>
        <rect x="40" y="0" width="10" height="10" fill="#0e372d"/>
        <rect x="50" y="0" width="10" height="10" fill="#0e372d"/>
        <rect x="60" y="0" width="10" height="10" fill="#0e372d"/>
        <rect x="100" y="0" width="10" height="10" fill="#0e372d"/>
        <rect x="110" y="0" width="10" height="10" fill="#0e372d"/>
        <rect x="140" y="0" width="10" height="10" fill="#0e372d"/>
        <rect x="150" y="0" width="10" height="10" fill="#0e372d"/>
        <rect x="180" y="0" width="10" height="10" fill="#0e372d"/>
        <rect x="190" y="0" width="10" height="10" fill="#0e372d"/>
        <rect x="200" y="0" width="10" height="10" fill="#0e372d"/>
        <rect x="210" y="0" width="10" height="10" fill="#0e372d"/>
        <rect x="220" y="0" width="10" height="10" fill="#0e372d"/>
        <rect x="230" y="0" width="10" height="10" fill="#0e372d"/>
        <rect x="240" y="0" width="10" height="10" fill="#0e372d"/>
        <rect x="0" y="10" width="10" height="10" fill="#0e372d"/>
        <rect x="60" y="10" width="10" height="10" fill="#0e372d"/>
        <rect x="100" y="10" width="10" height="10" fill="#0e372d"/>
        <rect x="110" y="10" width="10" height="10" fill="#0e372d"/>
        <rect x="120" y="10" width="10" height="10" fill="#0e372d"/>
        <rect x="140" y="10" width="10" height="10" fill="#0e372d"/>
        <rect x="150" y="10" width="10" height="10" fill="#0e372d"/>
        <rect x="180" y="10" width="10" height="10" fill="#0e372d"/>
        <rect x="240" y="10" width="10" height="10" fill="#0e372d"/>
        <rect x="0" y="20" width="10" height="10" fill="#0e372d"/>
        <rect x="20" y="20" width="10" height="10" fill="#0e372d"/>
        <rect x="30" y="20" width="10" height="10" fill="#0e372d"/>
        <rect x="40" y="20" width="10" height="10" fill="#0e372d"/>
        <rect x="60" y="20" width="10" height="10" fill="#0e372d"/>
        <rect x="90" y="20" width="10" height="10" fill="#0e372d"/>
        <rect x="120" y="20" width="10" height="10" fill="#0e372d"/>
        <rect x="140" y="20" width="10" height="10" fill="#0e372d"/>
        <rect x="160" y="20" width="10" height="10" fill="#0e372d"/>
        <rect x="180" y="20" width="10" height="10" fill="#0e372d"/>
        <rect x="200" y="20" width="10" height="10" fill="#0e372d"/>
        <rect x="210" y="20" width="10" height="10" fill="#0e372d"/>
        <rect x="220" y="20" width="10" height="10" fill="#0e372d"/>
        <rect x="240" y="20" width="10" height="10" fill="#0e372d"/>
        <rect x="0" y="30" width="10" height="10" fill="#0e372d"/>
        <rect x="20" y="30" width="10" height="10" fill="#0e372d"/>
        <rect x="30" y="30" width="10" height="10" fill="#0e372d"/>
        <rect x="40" y="30" width="10" height="10" fill="#0e372d"/>
        <rect x="60" y="30" width="10" height="10" fill="#0e372d"/>
        <rect x="90" y="30" width="10" height="10" fill="#0e372d"/>
        <rect x="100" y="30" width="10" height="10" fill="#0e372d"/>
        <rect x="140" y="30" width="10" height="10" fill="#0e372d"/>
        <rect x="180" y="30" width="10" height="10" fill="#0e372d"/>
        <rect x="200" y="30" width="10" height="10" fill="#0e372d"/>
        <rect x="210" y="30" width="10" height="10" fill="#0e372d"/>
        <rect x="220" y="30" width="10" height="10" fill="#0e372d"/>
        <rect x="240" y="30" width="10" height="10" fill="#0e372d"/>
        <rect x="0" y="40" width="10" height="10" fill="#0e372d"/>
        <rect x="20" y="40" width="10" height="10" fill="#0e372d"/>
        <rect x="30" y="40" width="10" height="10" fill="#0e372d"/>
        <rect x="40" y="40" width="10" height="10" fill="#0e372d"/>
        <rect x="60" y="40" width="10" height="10" fill="#0e372d"/>
        <rect x="100" y="40" width="10" height="10" fill="#0e372d"/>
        <rect x="120" y="40" width="10" height="10" fill="#0e372d"/>
        <rect x="130" y="40" width="10" height="10" fill="#0e372d"/>
        <rect x="150" y="40" width="10" height="10" fill="#0e372d"/>
        <rect x="160" y="40" width="10" height="10" fill="#0e372d"/>
        <rect x="180" y="40" width="10" height="10" fill="#0e372d"/>
        <rect x="200" y="40" width="10" height="10" fill="#0e372d"/>
        <rect x="210" y="40" width="10" height="10" fill="#0e372d"/>
        <rect x="220" y="40" width="10" height="10" fill="#0e372d"/>
        <rect x="240" y="40" width="10" height="10" fill="#0e372d"/>
        <rect x="0" y="50" width="10" height="10" fill="#0e372d"/>
        <rect x="60" y="50" width="10" height="10" fill="#0e372d"/>
        <rect x="80" y="50" width="10" height="10" fill="#0e372d"/>
        <rect x="100" y="50" width="10" height="10" fill="#0e372d"/>
        <rect x="120" y="50" width="10" height="10" fill="#0e372d"/>
        <rect x="150" y="50" width="10" height="10" fill="#0e372d"/>
        <rect x="180" y="50" width="10" height="10" fill="#0e372d"/>
        <rect x="240" y="50" width="10" height="10" fill="#0e372d"/>
        <rect x="0" y="60" width="10" height="10" fill="#0e372d"/>
        <rect x="10" y="60" width="10" height="10" fill="#0e372d"/>
        <rect x="20" y="60" width="10" height="10" fill="#0e372d"/>
        <rect x="30" y="60" width="10" height="10" fill="#0e372d"/>
        <rect x="40" y="60" width="10" height="10" fill="#0e372d"/>
        <rect x="50" y="60" width="10" height="10" fill="#0e372d"/>
        <rect x="60" y="60" width="10" height="10" fill="#0e372d"/>
        <rect x="80" y="60" width="10" height="10" fill="#0e372d"/>
        <rect x="100" y="60" width="10" height="10" fill="#0e372d"/>
        <rect x="120" y="60" width="10" height="10" fill="#0e372d"/>
        <rect x="140" y="60" width="10" height="10" fill="#0e372d"/>
        <rect x="160" y="60" width="10" height="10" fill="#0e372d"/>
        <rect x="180" y="60" width="10" height="10" fill="#0e372d"/>
        <rect x="190" y="60" width="10" height="10" fill="#0e372d"/>
        <rect x="200" y="60" width="10" height="10" fill="#0e372d"/>
        <rect x="210" y="60" width="10" height="10" fill="#0e372d"/>
        <rect x="220" y="60" width="10" height="10" fill="#0e372d"/>
        <rect x="230" y="60" width="10" height="10" fill="#0e372d"/>
        <rect x="240" y="60" width="10" height="10" fill="#0e372d"/>
        <rect x="120" y="70" width="10" height="10" fill="#0e372d"/>
        <rect x="140" y="70" width="10" height="10" fill="#0e372d"/>
        <rect x="0" y="80" width="10" height="10" fill="#0e372d"/>
        <rect x="30" y="80" width="10" height="10" fill="#0e372d"/>
        <rect x="50" y="80" width="10" height="10" fill="#0e372d"/>
        <rect x="60" y="80" width="10" height="10" fill="#0e372d"/>
        <rect x="80" y="80" width="10" height="10" fill="#0e372d"/>
        <rect x="100" y="80" width="10" height="10" fill="#0e372d"/>
        <rect x="110" y="80" width="10" height="10" fill="#0e372d"/>
        <rect x="120" y="80" width="10" height="10" fill="#0e372d"/>
        <rect x="130" y="80" width="10" height="10" fill="#0e372d"/>
        <rect x="140" y="80" width="10" height="10" fill="#0e372d"/>
        <rect x="170" y="80" width="10" height="10" fill="#0e372d"/>
        <rect x="190" y="80" width="10" height="10" fill="#0e372d"/>
        <rect x="0" y="90" width="10" height="10" fill="#0e372d"/>
        <rect x="10" y="90" width="10" height="10" fill="#0e372d"/>
        <rect x="20" y="90" width="10" height="10" fill="#0e372d"/>
        <rect x="30" y="90" width="10" height="10" fill="#0e372d"/>
        <rect x="40" y="90" width="10" height="10" fill="#0e372d"/>
        <rect x="50" y="90" width="10" height="10" fill="#0e372d"/>
        <rect x="80" y="90" width="10" height="10" fill="#0e372d"/>
        <rect x="90" y="90" width="10" height="10" fill="#0e372d"/>
        <rect x="120" y="90" width="10" height="10" fill="#0e372d"/>
        <rect x="130" y="90" width="10" height="10" fill="#0e372d"/>
        <rect x="160" y="90" width="10" height="10" fill="#0e372d"/>
        <rect x="180" y="90" width="10" height="10" fill="#0e372d"/>
        <rect x="240" y="90" width="10" height="10" fill="#0e372d"/>
        <rect x="0" y="100" width="10" height="10" fill="#0e372d"/>
        <rect x="40" y="100" width="10" height="10" fill="#0e372d"/>
        <rect x="50" y="100" width="10" height="10" fill="#0e372d"/>
        <rect x="60" y="100" width="10" height="10" fill="#0e372d"/>
        <rect x="100" y="100" width="10" height="10" fill="#0e372d"/>
        <rect x="110" y="100" width="10" height="10" fill="#0e372d"/>
        <rect x="130" y="100" width="10" height="10" fill="#0e372d"/>
        <rect x="160" y="100" width="10" height="10" fill="#0e372d"/>
        <rect x="170" y="100" width="10" height="10" fill="#0e372d"/>
        <rect x="180" y="100" width="10" height="10" fill="#0e372d"/>
        <rect x="230" y="100" width="10" height="10" fill="#0e372d"/>
        <rect x="240" y="100" width="10" height="10" fill="#0e372d"/>
        <rect x="40" y="110" width="10" height="10" fill="#0e372d"/>
        <rect x="80" y="110" width="10" height="10" fill="#0e372d"/>
        <rect x="90" y="110" width="10" height="10" fill="#0e372d"/>
        <rect x="100" y="110" width="10" height="10" fill="#0e372d"/>
        <rect x="110" y="110" width="10" height="10" fill="#0e372d"/>
        <rect x="130" y="110" width="10" height="10" fill="#0e372d"/>
        <rect x="160" y="110" width="10" height="10" fill="#0e372d"/>
        <rect x="170" y="110" width="10" height="10" fill="#0e372d"/>
        <rect x="180" y="110" width="10" height="10" fill="#0e372d"/>
        <rect x="200" y="110" width="10" height="10" fill="#0e372d"/>
        <rect x="10" y="120" width="10" height="10" fill="#0e372d"/>
        <rect x="30" y="120" width="10" height="10" fill="#0e372d"/>
        <rect x="40" y="120" width="10" height="10" fill="#0e372d"/>
        <rect x="60" y="120" width="10" height="10" fill="#0e372d"/>
        <rect x="70" y="120" width="10" height="10" fill="#0e372d"/>
        <rect x="100" y="120" width="10" height="10" fill="#0e372d"/>
        <rect x="120" y="120" width="10" height="10" fill="#0e372d"/>
        <rect x="130" y="120" width="10" height="10" fill="#0e372d"/>
        <rect x="160" y="120" width="10" height="10" fill="#0e372d"/>
        <rect x="170" y="120" width="10" height="10" fill="#0e372d"/>
        <rect x="180" y="120" width="10" height="10" fill="#0e372d"/>
        <rect x="190" y="120" width="10" height="10" fill="#0e372d"/>
        <rect x="210" y="120" width="10" height="10" fill="#0e372d"/>
        <rect x="230" y="120" width="10" height="10" fill="#0e372d"/>
        <rect x="240" y="120" width="10" height="10" fill="#0e372d"/>
        <rect x="20" y="130" width="10" height="10" fill="#0e372d"/>
        <rect x="40" y="130" width="10" height="10" fill="#0e372d"/>
        <rect x="110" y="130" width="10" height="10" fill="#0e372d"/>
        <rect x="140" y="130" width="10" height="10" fill="#0e372d"/>
        <rect x="180" y="130" width="10" height="10" fill="#0e372d"/>
        <rect x="190" y="130" width="10" height="10" fill="#0e372d"/>
        <rect x="210" y="130" width="10" height="10" fill="#0e372d"/>
        <rect x="220" y="130" width="10" height="10" fill="#0e372d"/>
        <rect x="240" y="130" width="10" height="10" fill="#0e372d"/>
        <rect x="0" y="140" width="10" height="10" fill="#0e372d"/>
        <rect x="20" y="140" width="10" height="10" fill="#0e372d"/>
        <rect x="30" y="140" width="10" height="10" fill="#0e372d"/>
        <rect x="50" y="140" width="10" height="10" fill="#0e372d"/>
        <rect x="60" y="140" width="10" height="10" fill="#0e372d"/>
        <rect x="80" y="140" width="10" height="10" fill="#0e372d"/>
        <rect x="110" y="140" width="10" height="10" fill="#0e372d"/>
        <rect x="130" y="140" width="10" height="10" fill="#0e372d"/>
        <rect x="160" y="140" width="10" height="10" fill="#0e372d"/>
        <rect x="180" y="140" width="10" height="10" fill="#0e372d"/>
        <rect x="190" y="140" width="10" height="10" fill="#0e372d"/>
        <rect x="200" y="140" width="10" height="10" fill="#0e372d"/>
        <rect x="220" y="140" width="10" height="10" fill="#0e372d"/>
        <rect x="240" y="140" width="10" height="10" fill="#0e372d"/>
        <rect x="10" y="150" width="10" height="10" fill="#0e372d"/>
        <rect x="20" y="150" width="10" height="10" fill="#0e372d"/>
        <rect x="30" y="150" width="10" height="10" fill="#0e372d"/>
        <rect x="50" y="150" width="10" height="10" fill="#0e372d"/>
        <rect x="70" y="150" width="10" height="10" fill="#0e372d"/>
        <rect x="90" y="150" width="10" height="10" fill="#0e372d"/>
        <rect x="120" y="150" width="10" height="10" fill="#0e372d"/>
        <rect x="130" y="150" width="10" height="10" fill="#0e372d"/>
        <rect x="160" y="150" width="10" height="10" fill="#0e372d"/>
        <rect x="180" y="150" width="10" height="10" fill="#0e372d"/>
        <rect x="200" y="150" width="10" height="10" fill="#0e372d"/>
        <rect x="230" y="150" width="10" height="10" fill="#0e372d"/>
        <rect x="0" y="160" width="10" height="10" fill="#0e372d"/>
        <rect x="10" y="160" width="10" height="10" fill="#0e372d"/>
        <rect x="30" y="160" width="10" height="10" fill="#0e372d"/>
        <rect x="40" y="160" width="10" height="10" fill="#0e372d"/>
        <rect x="50" y="160" width="10" height="10" fill="#0e372d"/>
        <rect x="60" y="160" width="10" height="10" fill="#0e372d"/>
        <rect x="70" y="160" width="10" height="10" fill="#0e372d"/>
        <rect x="80" y="160" width="10" height="10" fill="#0e372d"/>
        <rect x="100" y="160" width="10" height="10" fill="#0e372d"/>
        <rect x="110" y="160" width="10" height="10" fill="#0e372d"/>
        <rect x="120" y="160" width="10" height="10" fill="#0e372d"/>
        <rect x="140" y="160" width="10" height="10" fill="#0e372d"/>
        <rect x="160" y="160" width="10" height="10" fill="#0e372d"/>
        <rect x="170" y="160" width="10" height="10" fill="#0e372d"/>
        <rect x="180" y="160" width="10" height="10" fill="#0e372d"/>
        <rect x="190" y="160" width="10" height="10" fill="#0e372d"/>
        <rect x="200" y="160" width="10" height="10" fill="#0e372d"/>
        <rect x="210" y="160" width="10" height="10" fill="#0e372d"/>
        <rect x="220" y="160" width="10" height="10" fill="#0e372d"/>
        <rect x="80" y="170" width="10" height="10" fill="#0e372d"/>
        <rect x="90" y="170" width="10" height="10" fill="#0e372d"/>
        <rect x="100" y="170" width="10" height="10" fill="#0e372d"/>
        <rect x="110" y="170" width="10" height="10" fill="#0e372d"/>
        <rect x="140" y="170" width="10" height="10" fill="#0e372d"/>
        <rect x="160" y="170" width="10" height="10" fill="#0e372d"/>
        <rect x="200" y="170" width="10" height="10" fill="#0e372d"/>
        <rect x="210" y="170" width="10" height="10" fill="#0e372d"/>
        <rect x="240" y="170" width="10" height="10" fill="#0e372d"/>
        <rect x="0" y="180" width="10" height="10" fill="#0e372d"/>
        <rect x="10" y="180" width="10" height="10" fill="#0e372d"/>
        <rect x="20" y="180" width="10" height="10" fill="#0e372d"/>
        <rect x="30" y="180" width="10" height="10" fill="#0e372d"/>
        <rect x="40" y="180" width="10" height="10" fill="#0e372d"/>
        <rect x="50" y="180" width="10" height="10" fill="#0e372d"/>
        <rect x="60" y="180" width="10" height="10" fill="#0e372d"/>
        <rect x="90" y="180" width="10" height="10" fill="#0e372d"/>
        <rect x="100" y="180" width="10" height="10" fill="#0e372d"/>
        <rect x="120" y="180" width="10" height="10" fill="#0e372d"/>
        <rect x="130" y="180" width="10" height="10" fill="#0e372d"/>
        <rect x="150" y="180" width="10" height="10" fill="#0e372d"/>
        <rect x="160" y="180" width="10" height="10" fill="#0e372d"/>
        <rect x="180" y="180" width="10" height="10" fill="#0e372d"/>
        <rect x="200" y="180" width="10" height="10" fill="#0e372d"/>
        <rect x="210" y="180" width="10" height="10" fill="#0e372d"/>
        <rect x="230" y="180" width="10" height="10" fill="#0e372d"/>
        <rect x="240" y="180" width="10" height="10" fill="#0e372d"/>
        <rect x="0" y="190" width="10" height="10" fill="#0e372d"/>
        <rect x="60" y="190" width="10" height="10" fill="#0e372d"/>
        <rect x="80" y="190" width="10" height="10" fill="#0e372d"/>
        <rect x="90" y="190" width="10" height="10" fill="#0e372d"/>
        <rect x="120" y="190" width="10" height="10" fill="#0e372d"/>
        <rect x="160" y="190" width="10" height="10" fill="#0e372d"/>
        <rect x="200" y="190" width="10" height="10" fill="#0e372d"/>
        <rect x="210" y="190" width="10" height="10" fill="#0e372d"/>
        <rect x="220" y="190" width="10" height="10" fill="#0e372d"/>
        <rect x="230" y="190" width="10" height="10" fill="#0e372d"/>
        <rect x="240" y="190" width="10" height="10" fill="#0e372d"/>
        <rect x="0" y="200" width="10" height="10" fill="#0e372d"/>
        <rect x="20" y="200" width="10" height="10" fill="#0e372d"/>
        <rect x="30" y="200" width="10" height="10" fill="#0e372d"/>
        <rect x="40" y="200" width="10" height="10" fill="#0e372d"/>
        <rect x="60" y="200" width="10" height="10" fill="#0e372d"/>
        <rect x="90" y="200" width="10" height="10" fill="#0e372d"/>
        <rect x="110" y="200" width="10" height="10" fill="#0e372d"/>
        <rect x="130" y="200" width="10" height="10" fill="#0e372d"/>
        <rect x="140" y="200" width="10" height="10" fill="#0e372d"/>
        <rect x="160" y="200" width="10" height="10" fill="#0e372d"/>
        <rect x="170" y="200" width="10" height="10" fill="#0e372d"/>
        <rect x="180" y="200" width="10" height="10" fill="#0e372d"/>
        <rect x="190" y="200" width="10" height="10" fill="#0e372d"/>
        <rect x="200" y="200" width="10" height="10" fill="#0e372d"/>
        <rect x="210" y="200" width="10" height="10" fill="#0e372d"/>
        <rect x="230" y="200" width="10" height="10" fill="#0e372d"/>
        <rect x="0" y="210" width="10" height="10" fill="#0e372d"/>
        <rect x="20" y="210" width="10" height="10" fill="#0e372d"/>
        <rect x="30" y="210" width="10" height="10" fill="#0e372d"/>
        <rect x="40" y="210" width="10" height="10" fill="#0e372d"/>
        <rect x="60" y="210" width="10" height="10" fill="#0e372d"/>
        <rect x="80" y="210" width="10" height="10" fill="#0e372d"/>
        <rect x="90" y="210" width="10" height="10" fill="#0e372d"/>
        <rect x="120" y="210" width="10" height="10" fill="#0e372d"/>
        <rect x="130" y="210" width="10" height="10" fill="#0e372d"/>
        <rect x="160" y="210" width="10" height="10" fill="#0e372d"/>
        <rect x="170" y="210" width="10" height="10" fill="#0e372d"/>
        <rect x="190" y="210" width="10" height="10" fill="#0e372d"/>
        <rect x="200" y="210" width="10" height="10" fill="#0e372d"/>
        <rect x="210" y="210" width="10" height="10" fill="#0e372d"/>
        <rect x="220" y="210" width="10" height="10" fill="#0e372d"/>
        <rect x="0" y="220" width="10" height="10" fill="#0e372d"/>
        <rect x="20" y="220" width="10" height="10" fill="#0e372d"/>
        <rect x="30" y="220" width="10" height="10" fill="#0e372d"/>
        <rect x="40" y="220" width="10" height="10" fill="#0e372d"/>
        <rect x="60" y="220" width="10" height="10" fill="#0e372d"/>
        <rect x="90" y="220" width="10" height="10" fill="#0e372d"/>
        <rect x="100" y="220" width="10" height="10" fill="#0e372d"/>
        <rect x="130" y="220" width="10" height="10" fill="#0e372d"/>
        <rect x="190" y="220" width="10" height="10" fill="#0e372d"/>
        <rect x="200" y="220" width="10" height="10" fill="#0e372d"/>
        <rect x="220" y="220" width="10" height="10" fill="#0e372d"/>
        <rect x="240" y="220" width="10" height="10" fill="#0e372d"/>
        <rect x="0" y="230" width="10" height="10" fill="#0e372d"/>
        <rect x="60" y="230" width="10" height="10" fill="#0e372d"/>
        <rect x="100" y="230" width="10" height="10" fill="#0e372d"/>
        <rect x="120" y="230" width="10" height="10" fill="#0e372d"/>
        <rect x="130" y="230" width="10" height="10" fill="#0e372d"/>
        <rect x="140" y="230" width="10" height="10" fill="#0e372d"/>
        <rect x="160" y="230" width="10" height="10" fill="#0e372d"/>
        <rect x="170" y="230" width="10" height="10" fill="#0e372d"/>
        <rect x="180" y="230" width="10" height="10" fill="#0e372d"/>
        <rect x="210" y="230" width="10" height="10" fill="#0e372d"/>
        <rect x="0" y="240" width="10" height="10" fill="#0e372d"/>
        <rect x="10" y="240" width="10" height="10" fill="#0e372d"/>
        <rect x="20" y="240" width="10" height="10" fill="#0e372d"/>
        <rect x="30" y="240" width="10" height="10" fill="#0e372d"/>
        <rect x="40" y="240" width="10" height="10" fill="#0e372d"/>
        <rect x="50" y="240" width="10" height="10" fill="#0e372d"/>
        <rect x="60" y="240" width="10" height="10" fill="#0e372d"/>
        <rect x="80" y="240" width="10" height="10" fill="#0e372d"/>
        <rect x="120" y="240" width="10" height="10" fill="#0e372d"/>
        <rect x="130" y="240" width="10" height="10" fill="#0e372d"/>
        <rect x="150" y="240" width="10" height="10" fill="#0e372d"/>
        <rect x="160" y="240" width="10" height="10" fill="#0e372d"/>
        <rect x="190" y="240" width="10" height="10" fill="#0e372d"/>
        <rect x="230" y="240" width="10" height="10" fill="#0e372d"/>
        <rect x="240" y="240" width="10" height="10" fill="#0e372d"/>
      </g>
    </g>
  </svg>
  <g>
    <defs>
      <style>
        .cls-4ann1{fill:#7989db}.cls-4ann2{fill:#9de9ed}.cls-4ann3{fill:#9cacef}
      </style>
    </defs>
    <path d="M1180.89 994.51c-2.3-1.49-9.65-6.37-18.13-13.46-13.4-11.2-29.6-27.94-33-45.6-.39-2.02-.61-4.06-.64-6.1-.03-1.8-.07-5.02.64-8.45.66-3.21 1.98-6.61 4.61-9.23 7.3-7.29 20.61-4.47 26.93-1.2.49.26.98.53 1.46.83 16.05 10.01 23.01 43.13 18.13 83.21ZM1211.45 876.38c-5.43-3.92-44.01-32.38-43.14-59.75.1-3.07.34-10.79 5.36-15.29 6.75-6.06 18.41-2.95 23.86.23 14.76 8.61 20.05 38.77 13.92 74.8ZM1224.49 759.03c-5.55-4.9-44.93-40.35-41.18-69.87.42-3.31 1.48-11.63 7.44-15.91 8.02-5.74 20.48-.97 26.13 3.13 15.3 11.1 18.01 44.38 7.61 82.65ZM1241.88 834.02c1.23-6.69 10.49-54.46 34.7-61.42 2.71-.78 9.54-2.74 15.49 1.12 8 5.2 9.99 18.05 9.41 24.56-1.56 17.62-25.72 31.7-59.6 35.74ZM1218.97 959.23c3.5-6.15 28.97-49.87 56.35-47.29 3.07.29 10.79 1.02 15.67 7.18 6.56 8.28 4.34 21.8 1.58 28.03-7.47 16.86-37.17 21.34-73.6 12.08ZM1160.56 1075.88c6.02-4.73 49.45-38.06 77.7-23.45 3.16 1.64 11.14 5.76 14.05 14.16 3.92 11.3-3.47 24.08-8.73 29.21-14.24 13.88-47.59 5.45-83.02-19.92Z" class="cls-4ann2"/>
    <path d="M1223.22 903.32c-9.94 55.18-30.26 106.69-60.46 153.22-1.37 2.13-2.78 4.25-4.2 6.36a417.083 417.083 0 0 1-28.8 37.85v-4.74a418.67 418.67 0 0 0 33-45.14c24.52-38.74 46.69-87.94 57.51-148.08 8.54-47.42 9.2-96.35 1.98-145.77-1.12-7.72-2.44-15.45-3.95-23.18-.15-.81.37-1.59 1.19-1.75.81-.16 1.6.37 1.75 1.18 1.51 7.72 2.82 15.43 3.95 23.13 7.29 49.8 6.63 99.12-1.97 146.92Z" class="cls-4ann2"/>
    <path d="M1163.37 627.74c5.05 1.26 41.3 9.92 57.07-4.24 1.77-1.59 6.22-5.58 6.36-10.8.19-7.02-7.51-12.37-12.13-14.01-12.52-4.45-33.04 7.46-51.3 29.05ZM1185.44 561.89c3.81 1.25 31.16 9.97 44.21-.18 1.46-1.14 5.14-4 5.59-8.05.6-5.45-4.99-10.03-8.45-11.56-9.36-4.14-25.91 3.99-41.35 19.79ZM1224.27 509.98c3.43.95 28.04 7.49 39.1-1.95 1.24-1.06 4.36-3.72 4.56-7.3.27-4.81-4.89-8.61-8.02-9.82-8.47-3.26-22.73 4.56-35.64 19.07ZM1268.59 465.59c3.87.67 31.65 5.23 42.65-6.13 1.23-1.27 4.33-4.48 4.12-8.37-.28-5.23-6.4-8.81-9.97-9.8-9.68-2.66-24.38 7.27-36.8 24.3ZM1231.73 483.29c2.37-2.73 19.1-22.44 13.94-34.79-.58-1.38-2.03-4.87-5.61-6.05-4.81-1.59-10.8 1.85-13.31 4.25-6.79 6.5-4.6 21.19 4.98 36.58ZM1187.42 534.38c1.39-3.5 11.05-28.58.89-39.07-1.14-1.18-4.01-4.14-8.18-4.11-5.61.03-10.48 5.44-12.15 8.65-4.51 8.7 3.49 22.5 19.43 34.53ZM1158.45 597.33c-12.41-3.48-22.42-8.45-28.69-13.98-4.99-4.4-7.6-9.16-7.15-13.82.33-3.41 2.57-9.46 7.15-12.32.64-.41 1.33-.75 2.06-1.01 4.46-1.58 8.81.36 10.54 1.13 15.44 6.86 16.05 35.94 16.09 40Z" class="cls-4ann3"/>
    <path d="M1154.85 648.95a.795.795 0 0 0 1.54-.24c1.29-28.27 10.03-83.22 54-133.62 19.46-22.3 43.24-40.91 70.71-55.3a.794.794 0 0 0-.73-1.41c-27.64 14.48-51.58 33.21-71.17 55.66-20.48 23.47-35.52 50.33-44.69 79.82-5.59 17.98-8.86 36.41-9.7 54.78 0 .11.01.21.05.31ZM1210.77 405.08c-1.38-3.67-13.34-34.22-37.04-36.23-1.46-.12-15.66-1.16-20.29 6.73-4.38 7.46 2.24 18.8 7.67 24.29 16.26 16.45 47.13 6.1 49.66 5.21Z" class="cls-4ann3"/>
    <path d="M1210.88 405.04c1.38-3.77 12.5-35.52-3.56-52.63-.99-1.05-10.73-11.17-19.25-8.04-8.07 2.97-10.59 16.17-10.19 24.03 1.21 23.53 30.57 35.67 33 36.64Z" class="cls-4ann2"/>
    <path d="M1210.77 405.08c-1.28-3.71-11.61-34.91 4.89-52.84 1.02-1.11 11.01-11.72 19.46-9.01 8 2.56 10.19 15.65 9.59 23.53-1.8 23.6-31.49 37.24-33.95 38.33Z" class="cls-4ann3"/>
    <ellipse cx="1168.02" cy="357.56" class="cls-4ann3" rx="3.02" ry="2.91" transform="rotate(-47.69 1167.88 357.575)"/>
    <ellipse cx="1210.25" cy="340.83" class="cls-4ann3" rx="3.02" ry="2.91" transform="rotate(-47.69 1210.123 340.844)"/>
    <ellipse cx="1184.04" cy="335.07" class="cls-4ann3" rx="3.02" ry="2.91" transform="rotate(-47.69 1183.906 335.085)"/>
    <path d="M1283.47 690.59c1.21-3.92 10.92-36.87-7.4-53.73-1.13-1.04-12.21-11.01-21.1-7.45-8.41 3.37-10.2 16.99-9.24 25.01 2.89 24.04 35.08 35.28 37.74 36.17Z" class="cls-4ann3"/>
    <path d="M1283.59 690.63c3.56-2.24 33.13-21.36 30.82-45.82-.14-1.51-1.7-16.12-10.77-19-8.58-2.72-19.14 6.58-23.84 13.34-14.1 20.24 2.4 49.12 3.79 51.48Z" class="cls-4ann2"/>
    <path d="M1283.47 690.59c1.32-3.89 12.79-36.33 37.95-40.57 1.55-.26 16.63-2.63 21.88 5.03 4.97 7.25-1.61 19.48-7.16 25.61-16.63 18.37-49.94 10.6-52.67 9.93Z" class="cls-4ann3"/>
    <ellipse cx="1278.6" cy="623.85" class="cls-4ann3" rx="3.16" ry="3.04" transform="rotate(-9.89 1278.266 623.706)"/>
    <ellipse cx="1324.27" cy="637.11" class="cls-4ann3" rx="3.16" ry="3.04" transform="rotate(-9.89 1323.928 636.972)"/>
    <ellipse cx="1306.27" cy="615.53" class="cls-4ann3" rx="3.16" ry="3.04" transform="rotate(-9.89 1305.942 615.387)"/>
    <circle cx="1295.8" cy="864.53" r="13.63" class="cls-4ann3"/>
    <circle cx="1363.86" cy="780.87" r="16.55" class="cls-4ann3"/>
    <circle cx="1309.43" cy="553.79" r="16.55" class="cls-4ann3"/>
    <circle cx="1306.27" cy="374.41" r="16.55" class="cls-4ann2"/>
    <circle cx="1228.7" cy="283.09" r="10.54" class="cls-4ann3"/>
    <circle cx="1368.39" cy="473.21" r="10.54" class="cls-4ann3"/>
    <circle cx="1374.4" cy="597.77" r="10.54" class="cls-4ann2"/>
    <circle cx="1345.06" cy="963.96" r="10.54" class="cls-4ann2"/>
    <circle cx="1327.42" cy="1102.45" r="10.54" class="cls-4ann3"/>
    <circle cx="1266.31" cy="1023.49" r="16.55" class="cls-4ann3"/>
    <circle cx="1106.01" cy="315.55" r="16.55" class="cls-4ann2"/>
    <path d="M370.88 929.35c-.03 2.04-.25 4.08-.64 6.1-3.4 17.66-19.6 34.4-33 45.6-8.48 7.09-15.83 11.97-18.13 13.46-4.88-40.08 2.08-73.2 18.13-83.21.48-.3.97-.57 1.46-.83 6.32-3.27 19.62-6.09 26.92 1.2 2.63 2.63 3.96 6.04 4.62 9.25.71 3.43.67 6.63.64 8.43ZM288.55 876.38c5.43-3.92 44.01-32.38 43.14-59.75-.1-3.07-.34-10.79-5.36-15.29-6.75-6.06-18.41-2.95-23.86.23-14.76 8.61-20.05 38.77-13.92 74.8ZM275.51 759.03c5.55-4.9 44.93-40.35 41.18-69.87-.42-3.31-1.48-11.63-7.44-15.91-8.02-5.74-20.48-.97-26.13 3.13-15.3 11.1-18.01 44.38-7.61 82.65ZM258.12 834.02c-1.23-6.69-10.49-54.46-34.7-61.42-2.71-.78-9.54-2.74-15.49 1.12-8 5.2-9.99 18.05-9.41 24.56 1.56 17.62 25.72 31.7 59.6 35.74ZM281.03 959.23c-3.5-6.15-28.97-49.87-56.35-47.29-3.07.29-10.79 1.02-15.67 7.18-6.56 8.28-4.34 21.8-1.58 28.03 7.47 16.86 37.17 21.34 73.6 12.08ZM339.44 1075.88c-6.02-4.73-49.45-38.06-77.7-23.45-3.16 1.64-11.14 5.76-14.05 14.16-3.92 11.3 3.47 24.08 8.73 29.21 14.24 13.88 47.59 5.45 83.02-19.92Z" class="cls-4ann2"/>
    <path d="M370.24 1096.01v4.74a417.083 417.083 0 0 1-28.8-37.85c-1.42-2.11-2.83-4.23-4.2-6.36-30.2-46.53-50.52-98.04-60.46-153.22-8.6-47.8-9.26-97.11-1.98-146.91a492.66 492.66 0 0 1 3.95-23.14c.16-.81.95-1.34 1.76-1.18s1.34.94 1.18 1.75c-1.51 7.73-2.82 15.46-3.94 23.17-7.22 49.42-6.56 98.36 1.98 145.78 10.82 60.14 32.99 109.34 57.51 148.08a418.67 418.67 0 0 0 33 45.14Z" class="cls-4ann2"/>
    <path d="M336.63 627.74c-5.05 1.26-41.3 9.92-57.07-4.24-1.77-1.59-6.22-5.58-6.36-10.8-.19-7.02 7.51-12.37 12.13-14.01 12.52-4.45 33.04 7.46 51.3 29.05ZM314.56 561.89c-3.81 1.25-31.16 9.97-44.21-.18-1.46-1.14-5.14-4-5.59-8.05-.6-5.45 4.99-10.03 8.45-11.56 9.36-4.14 25.91 3.99 41.35 19.79ZM275.73 509.98c-3.43.95-28.04 7.49-39.1-1.95-1.24-1.06-4.36-3.72-4.56-7.3-.27-4.81 4.89-8.61 8.02-9.82 8.47-3.26 22.73 4.56 35.64 19.07ZM231.41 465.59c-3.87.67-31.65 5.23-42.65-6.13-1.23-1.27-4.33-4.48-4.12-8.37.28-5.23 6.4-8.81 9.97-9.8 9.68-2.66 24.38 7.27 36.8 24.3ZM268.27 483.29c-2.37-2.73-19.1-22.44-13.94-34.79.58-1.38 2.03-4.87 5.61-6.05 4.81-1.59 10.8 1.85 13.31 4.25 6.79 6.5 4.6 21.19-4.98 36.58ZM312.58 534.38c-1.39-3.5-11.05-28.58-.89-39.07 1.14-1.18 4.01-4.14 8.18-4.11 5.61.03 10.48 5.44 12.15 8.65 4.51 8.7-3.49 22.5-19.43 34.53ZM370.24 557.21v26.14c-6.26 5.53-16.28 10.5-28.69 13.98.04-4.06.64-33.14 16.09-40 1.73-.77 6.08-2.71 10.53-1.13.74.26 1.43.61 2.07 1.01Z" class="cls-4ann3"/>
    <path d="M345.15 648.95a.795.795 0 0 1-1.54-.24c-1.29-28.27-10.03-83.22-54-133.62-19.46-22.3-43.24-40.91-70.71-55.3a.794.794 0 0 1 .73-1.41c27.64 14.48 51.58 33.21 71.17 55.66 20.48 23.47 35.52 50.33 44.69 79.82 5.59 17.98 8.86 36.41 9.7 54.78 0 .11-.01.21-.05.31ZM289.23 405.08c1.38-3.67 13.34-34.22 37.04-36.23 1.46-.12 15.66-1.16 20.29 6.73 4.38 7.46-2.24 18.8-7.67 24.29-16.26 16.45-47.13 6.1-49.66 5.21Z" class="cls-4ann3"/>
    <path d="M289.12 405.04c-1.38-3.77-12.5-35.52 3.56-52.63.99-1.05 10.73-11.17 19.25-8.04 8.07 2.97 10.59 16.17 10.19 24.03-1.21 23.53-30.57 35.67-33 36.64Z" class="cls-4ann2"/>
    <path d="M289.23 405.08c1.28-3.71 11.61-34.91-4.89-52.84-1.02-1.11-11.01-11.72-19.46-9.01-8 2.56-10.19 15.65-9.59 23.53 1.8 23.6 31.49 37.24 33.95 38.33Z" class="cls-4ann3"/>
    <ellipse cx="331.98" cy="357.56" class="cls-4ann3" rx="2.91" ry="3.02" transform="rotate(-42.31 332.034 357.578)"/>
    <ellipse cx="289.75" cy="340.83" class="cls-4ann3" rx="2.91" ry="3.02" transform="rotate(-42.31 289.797 340.847)"/>
    <ellipse cx="315.96" cy="335.07" class="cls-4ann3" rx="2.91" ry="3.02" transform="rotate(-42.31 316.014 335.096)"/>
    <path d="M216.53 690.59c-1.21-3.92-10.92-36.87 7.4-53.73 1.13-1.04 12.21-11.01 21.1-7.45 8.41 3.37 10.2 16.99 9.24 25.01-2.89 24.04-35.08 35.28-37.74 36.17Z" class="cls-4ann3"/>
    <path d="M216.41 690.63c-3.56-2.24-33.13-21.36-30.82-45.82.14-1.51 1.7-16.12 10.77-19 8.58-2.72 19.14 6.58 23.84 13.34 14.1 20.24-2.4 49.12-3.79 51.48Z" class="cls-4ann2"/>
    <path d="M216.53 690.59c-1.32-3.89-12.79-36.33-37.95-40.57-1.55-.26-16.63-2.63-21.88 5.03-4.97 7.25 1.61 19.48 7.16 25.61 16.63 18.37 49.94 10.6 52.67 9.93Z" class="cls-4ann3"/>
    <ellipse cx="221.4" cy="623.85" class="cls-4ann3" rx="3.04" ry="3.16" transform="rotate(-80.11 221.421 623.862)"/>
    <ellipse cx="175.73" cy="637.11" class="cls-4ann3" rx="3.04" ry="3.16" transform="rotate(-80.11 175.75 637.122)"/>
    <ellipse cx="193.73" cy="615.53" class="cls-4ann3" rx="3.04" ry="3.16" transform="rotate(-80.11 193.74 615.542)"/>
    <circle cx="204.2" cy="864.53" r="13.63" class="cls-4ann3"/>
    <circle cx="136.14" cy="780.87" r="16.55" class="cls-4ann3"/>
    <circle cx="190.57" cy="553.79" r="16.55" class="cls-4ann3"/>
    <circle cx="193.73" cy="374.41" r="16.55" class="cls-4ann2"/>
    <circle cx="271.3" cy="283.09" r="10.54" class="cls-4ann3"/>
    <circle cx="131.61" cy="473.21" r="10.54" class="cls-4ann3"/>
    <circle cx="125.6" cy="597.77" r="10.54" class="cls-4ann2"/>
    <circle cx="154.94" cy="963.96" r="10.54" class="cls-4ann2"/>
    <circle cx="172.58" cy="1102.45" r="10.54" class="cls-4ann3"/>
    <circle cx="233.69" cy="1023.49" r="16.55" class="cls-4ann3"/>
    <circle cx="393.99" cy="315.55" r="16.55" class="cls-4ann2"/>
    <path d="M1065.08 382.25H438.09c-54.82 0-99.26 44.44-99.26 99.26v626.99c0 44.03 28.82 81.46 68.58 94.41 8.71 2.83 17.62-3.81 17.62-12.96v-6.18c0-5.81-3.72-10.89-9.19-12.85-25.62-9.15-44.01-33.68-44.01-62.41v-627c0-36.59 29.67-66.26 66.26-66.26h626.99c36.6 0 66.27 29.67 66.27 66.27v626.98c0 28.74-18.39 53.25-44.01 62.41-5.47 1.95-9.19 7.04-9.19 12.85v6.19c0 9.16 8.91 15.8 17.62 12.96 39.76-12.95 68.58-50.38 68.58-94.41V481.51c0-54.73-44.53-99.26-99.27-99.26Z" class="cls-4ann1"/>
    <path d="M460.58 1211.01c.34-1.99.72-4.03 1.15-6.13.43-2.1.99-4.43 1.7-6.99.71-2.56 1.56-5.52 2.56-8.9.99-3.38 2.26-7.34 3.79-11.88-.91.06-1.85.14-2.81.26-.97.11-1.9.2-2.81.26.06-1.53.74-2.74 2.04-3.62 1.31-.88 3.01-1.52 5.11-1.92.34-1.08.68-2.12 1.02-3.11l1.11-3.24c.4-1.16.84-2.43 1.32-3.79.48-1.36 1.04-2.95 1.66-4.77.62-1.82 1.33-3.89 2.13-6.22.17-.51.4-1.22.68-2.13.28-.91.43-1.76.43-2.56 0-.45-.07-.77-.21-.94-.14-.17-.47-.26-.98-.26-1.25 0-2.5.54-3.75 1.62s-2.37 2.44-3.37 4.09c-.99 1.65-1.78 3.35-2.34 5.11-.57 1.76-.85 3.35-.85 4.77 0 .46.06.95.17 1.49.11.54.26 1.09.43 1.66-2.04 0-3.49-.48-4.34-1.45-.85-.96-1.28-2.19-1.28-3.66 0-1.93.57-3.86 1.7-5.79 1.14-1.93 2.61-3.71 4.43-5.32 1.82-1.62 3.72-2.91 5.71-3.88 1.99-.96 3.8-1.45 5.45-1.45s2.75.44 3.32 1.32c.57.88.85 1.86.85 2.94 0 .63-.07 1.25-.21 1.87-.14.63-.3 1.22-.47 1.79l-6.47 21.3c.74-.06 1.5-.1 2.3-.13.79-.03 1.59-.04 2.39-.04 2.73 0 5.3.07 7.71.21 2.41.14 4.73.33 6.94.55 1.25-4.03 2.4-7.74 3.45-11.12 1.05-3.38 2.02-6.27 2.9-8.69.88-2.41 1.6-4.25 2.17-5.5.23-.45.54-1.04.94-1.75.4-.71.95-1.35 1.66-1.92.71-.57 1.58-.85 2.6-.85-.8 2.04-1.7 4.7-2.73 7.97-1.02 3.27-2.07 6.83-3.15 10.69-1.08 3.86-2.1 7.7-3.07 11.5 1.02.06 2.12.13 3.28.21 1.16.09 2.29.13 3.37.13-1.36 1.42-2.67 2.29-3.92 2.6-1.25.31-2.44.47-3.58.47-.57 2.27-1.09 4.46-1.58 6.56-.48 2.1-.89 4.09-1.24 5.96-.91 4.43-1.55 8.24-1.92 11.42-.37 3.18-.55 5.74-.55 7.67 0 .79.01 1.46.04 2s.1 1.06.21 1.58c-2.44-.23-4.13-.87-5.07-1.92-.94-1.05-1.41-2.77-1.41-5.15 0-1.42.16-3.14.47-5.15.31-2.02.78-4.27 1.41-6.77.45-1.82 1.08-4.12 1.87-6.9.79-2.78 1.7-5.85 2.73-9.2-3.47 0-6.36.03-8.69.09-2.33.06-4.34.11-6.05.17-1.7.06-3.41.17-5.11.34-.68 2.27-1.41 4.62-2.17 7.03-.77 2.42-1.53 4.84-2.3 7.28-.77 2.44-1.52 4.89-2.26 7.33l-2.22 7.33c-.63 1.99-1.59 3.41-2.9 4.26-1.31.85-2.44 1.28-3.41 1.28ZM511.61 1207.6c-1.82 0-3.37-.6-4.64-1.79-1.28-1.19-1.92-3.01-1.92-5.45 0-1.99.46-4.16 1.36-6.52.91-2.36 2.16-4.69 3.75-6.99 1.59-2.3 3.39-4.39 5.41-6.26s4.16-3.38 6.43-4.52c2.27-1.14 4.54-1.7 6.82-1.7s4.19.6 5.75 1.79c1.56 1.19 2.34 2.78 2.34 4.77 0 1.42-.44 2.41-1.32 2.98-.88.57-1.97.82-3.28.77.11-.51.21-1.02.3-1.53s.13-1.02.13-1.53c0-1.25-.28-2.34-.85-3.28s-1.62-1.41-3.15-1.41-3.21.55-4.86 1.66c-1.65 1.11-3.22 2.57-4.73 4.39a39.878 39.878 0 0 0-4.05 5.92c-1.19 2.13-2.13 4.22-2.81 6.26-.68 2.04-1.02 3.89-1.02 5.54 0 2.1.71 3.15 2.13 3.15 1.31 0 2.74-.62 4.3-1.87 1.56-1.25 3.15-2.82 4.77-4.73 1.62-1.9 3.17-3.88 4.64-5.92 1.48-2.04 2.78-3.86 3.92-5.45.17-.34.34-.51.51-.51.28.06.71.17 1.28.34.57.17 1.08.43 1.53.77.45.34.68.77.68 1.28s-.24 1.21-.72 2.09c-.48.88-1.05 1.87-1.7 2.98-.65 1.11-1.22 2.23-1.7 3.37-.48 1.14-.72 2.19-.72 3.15 0 .85.21 1.66.64 2.43.43.77 1.12 1.15 2.09 1.15 1.48 0 3.46-1.09 5.96-3.28 2.5-2.19 5.03-5.58 7.58-10.18l1.11 1.11c-1.25 3.07-2.81 5.78-4.69 8.14-1.87 2.36-3.88 4.19-6.01 5.49s-4.25 1.96-6.35 1.96-3.76-.67-4.81-2c-1.05-1.33-1.58-2.77-1.58-4.3 0-.28.01-.57.04-.85s.07-.6.13-.94c-2.39 3.12-4.57 5.49-6.56 7.11-1.99 1.62-4.03 2.43-6.13 2.43Z" class="cls-4ann1"/>
    <path d="M539.46 1227.45c-.45 0-.91-.2-1.36-.6-.45-.4-.81-.84-1.06-1.32-.26-.48-.41-.81-.47-.98 1.02-3.24 1.96-6.09 2.81-8.56.85-2.47 1.65-4.91 2.39-7.33.74-2.42 1.44-5.14 2.09-8.18.65-3.04 1.33-6.73 2.04-11.08.71-4.34 1.46-9.67 2.26-15.97.06-.57.17-.98.34-1.24s.62-.38 1.36-.38c1.59 0 2.73.43 3.41 1.28.68.85 1.02 1.79 1.02 2.81 0 .74-.14 2.03-.43 3.88-.28 1.85-.71 4.02-1.28 6.52 1.02-1.82 2.24-3.62 3.66-5.41s3.04-3.27 4.86-4.43c1.82-1.16 3.8-1.75 5.96-1.75 2.56 0 4.69.91 6.39 2.73 1.7 1.82 2.56 4.2 2.56 7.16 0 2.21-.5 4.56-1.49 7.03-.99 2.47-2.4 4.8-4.22 6.99a22.227 22.227 0 0 1-6.43 5.32c-2.47 1.36-5.21 2.04-8.22 2.04-1.59 0-2.87-.19-3.83-.55-.97-.37-1.45-.78-1.45-1.24 0-.28.21-.44.64-.47.43-.03.92-.04 1.49-.04 2.39-.06 4.64-.62 6.77-1.7s4-2.51 5.62-4.3 2.88-3.76 3.79-5.92c.91-2.16 1.36-4.26 1.36-6.3 0-1.82-.38-3.35-1.15-4.6-.77-1.25-2-1.87-3.71-1.87-1.42 0-2.85.46-4.3 1.36-1.45.91-2.81 2.09-4.09 3.54s-2.41 2.94-3.41 4.47c-.99 1.53-1.75 2.9-2.26 4.09-1.02 4.09-2.02 8.08-2.98 11.97-.97 3.89-1.9 7.43-2.81 10.61-.91 3.18-1.75 5.82-2.51 7.92-.77 2.1-1.49 3.44-2.17 4-.34.34-.74.51-1.19.51ZM573.37 1227.45c-.45 0-.91-.2-1.36-.6-.45-.4-.81-.84-1.06-1.32-.26-.48-.41-.81-.47-.98 1.02-3.24 1.96-6.09 2.81-8.56.85-2.47 1.65-4.91 2.39-7.33.74-2.42 1.44-5.14 2.09-8.18.65-3.04 1.33-6.73 2.04-11.08.71-4.34 1.46-9.67 2.26-15.97.06-.57.17-.98.34-1.24s.62-.38 1.36-.38c1.59 0 2.73.43 3.41 1.28.68.85 1.02 1.79 1.02 2.81 0 .74-.14 2.03-.43 3.88-.28 1.85-.71 4.02-1.28 6.52 1.02-1.82 2.24-3.62 3.66-5.41s3.04-3.27 4.86-4.43c1.82-1.16 3.8-1.75 5.96-1.75 2.56 0 4.69.91 6.39 2.73 1.7 1.82 2.56 4.2 2.56 7.16 0 2.21-.5 4.56-1.49 7.03-.99 2.47-2.4 4.8-4.22 6.99a22.227 22.227 0 0 1-6.43 5.32c-2.47 1.36-5.21 2.04-8.22 2.04-1.59 0-2.87-.19-3.83-.55-.97-.37-1.45-.78-1.45-1.24 0-.28.21-.44.64-.47.43-.03.92-.04 1.49-.04 2.39-.06 4.64-.62 6.77-1.7s4-2.51 5.62-4.3 2.88-3.76 3.79-5.92c.91-2.16 1.36-4.26 1.36-6.3 0-1.82-.38-3.35-1.15-4.6-.77-1.25-2-1.87-3.71-1.87-1.42 0-2.85.46-4.3 1.36-1.45.91-2.81 2.09-4.09 3.54s-2.41 2.94-3.41 4.47c-.99 1.53-1.75 2.9-2.26 4.09-1.02 4.09-2.02 8.08-2.98 11.97-.97 3.89-1.9 7.43-2.81 10.61-.91 3.18-1.75 5.82-2.51 7.92-.77 2.1-1.49 3.44-2.17 4-.34.34-.74.51-1.19.51ZM616.31 1227.45c-1.42 0-2.7-.4-3.83-1.19-1.14-.8-1.7-2.02-1.7-3.66 0-1.82.48-3.44 1.45-4.86.97-1.42 2.24-2.74 3.83-3.96 1.59-1.22 3.38-2.36 5.37-3.41 1.99-1.05 4-2.06 6.05-3.02.74-1.99 1.5-4.26 2.3-6.82.79-2.56 1.53-5.22 2.22-8.01-1.82 2.78-3.75 5.2-5.79 7.24s-4.23 3.07-6.56 3.07c-1.08 0-2.16-.24-3.24-.72s-1.97-1.24-2.68-2.26c-.71-1.02-1.06-2.36-1.06-4 0-1.53.27-3.35.81-5.45s1.21-4.16 2-6.18c.79-2.02 1.63-3.68 2.51-4.98.88-1.31 1.63-1.96 2.26-1.96.28 0 .74.1 1.36.3.62.2 1.22.47 1.79.81.57.34.88.71.94 1.11-.51.74-1.08 1.78-1.7 3.11-.63 1.34-1.24 2.83-1.83 4.47-.6 1.65-1.09 3.24-1.49 4.77-.4 1.53-.6 2.87-.6 4 0 .97.21 1.76.64 2.39.43.63 1.18.94 2.26.94 1.14 0 2.37-.52 3.71-1.58 1.33-1.05 2.65-2.39 3.96-4 1.31-1.62 2.53-3.34 3.66-5.15.11-.51.24-1.14.38-1.87.14-.74.3-1.48.47-2.22.23-.85.67-1.76 1.32-2.73.65-.96 1.69-1.45 3.11-1.45.34 0 .67.01.98.04.31.03.67.1 1.06.21 0 .91-.27 2.6-.81 5.07s-1.31 5.34-2.3 8.6c-.99 3.27-2.14 6.6-3.45 10.01 2.56-1.02 5.12-2.68 7.71-4.98 2.58-2.3 4.67-5.47 6.26-9.5l1.19 1.02c-.85 2.73-2.14 5.11-3.88 7.16a29.184 29.184 0 0 1-5.84 5.28c-2.16 1.48-4.32 2.7-6.47 3.66-1.48 3.63-3.1 7.03-4.86 10.18-1.76 3.15-3.61 5.69-5.54 7.62-1.93 1.93-3.92 2.9-5.96 2.9Zm-.6-2.9c.91 0 2.36-1.12 4.34-3.36 1.99-2.24 4.09-6.01 6.3-11.29a95.27 95.27 0 0 0-6.18 3.54c-1.96 1.22-3.54 2.54-4.73 3.96-1.19 1.42-1.79 2.98-1.79 4.69 0 .51.16 1.05.47 1.62.31.57.84.85 1.58.85ZM670.4 1211.01c-1.42-.8-2.31-1.63-2.68-2.51-.37-.88-.55-1.61-.55-2.17 0-1.59.57-3.72 1.7-6.39 1.14-2.67 2.67-5.74 4.6-9.2 1.93-3.46 4.09-7.04 6.47-10.73-1.99-.17-3.74-.28-5.24-.34-1.51-.06-3.05-.09-4.64-.09h-2.39c.68-1.76 1.83-3 3.45-3.71s3.54-1.06 5.75-1.06c.97 0 1.96.06 2.98.17 1.02.11 2.07.26 3.15.43 2.9-4.32 5.82-8.45 8.77-12.4 2.95-3.95 5.72-7.48 8.31-10.61 2.58-3.12 4.78-5.54 6.6-7.24 1.99-1.99 3.55-2.98 4.69-2.98.68 0 1.45.27 2.3.81.85.54 1.73 1.26 2.64 2.17-.57.46-1.29 1.65-2.17 3.58-.88 1.93-1.82 4.36-2.81 7.28-.99 2.93-1.97 6.12-2.94 9.58-.97 3.47-1.86 7.02-2.68 10.65-.82 3.64-1.48 7.09-1.96 10.35-.48 3.27-.72 6.12-.72 8.56 0 2.21.24 3.91.72 5.07.48 1.16 1.26 1.75 2.34 1.75 1.42 0 3.08-1.01 4.98-3.02 1.9-2.02 3.99-5.21 6.26-9.58l1.02 1.11c-1.7 4.54-3.91 8.29-6.6 11.25-2.7 2.95-5.52 4.43-8.48 4.43-2.44 0-4.2-1.09-5.28-3.28-1.08-2.19-1.62-5.1-1.62-8.73 0-1.65.11-3.46.34-5.45.23-1.99.57-4.17 1.02-6.56-2.5-.4-4.77-.72-6.82-.98-2.04-.26-3.95-.5-5.71-.72-2.67 4.94-5.27 10.01-7.8 15.21-2.53 5.2-4.87 10.32-7.03 15.38Zm28.03-32.29c.79-3.58 1.73-7.23 2.81-10.95 1.08-3.72 2.23-7.25 3.45-10.61 1.22-3.35 2.4-6.3 3.54-8.86-1.76 1.14-3.75 3.05-5.96 5.75-2.22 2.7-4.56 5.94-7.03 9.71-2.47 3.78-5.01 7.94-7.62 12.48 1.87.34 3.73.74 5.58 1.19 1.85.46 3.59.88 5.24 1.28Z" class="cls-4ann1"/>
    <path d="M743.33 1205.3c-2.1 0-3.68-.53-4.73-1.58-1.05-1.05-1.58-2.4-1.58-4.05 0-1.14.21-2.36.64-3.66.43-1.31.84-2.64 1.24-4 .4-1.36.6-2.67.6-3.92 0-1.48-.31-2.5-.94-3.07-.63-.57-1.39-.85-2.3-.85-1.76 0-3.55.71-5.37 2.13-1.82 1.42-3.56 3.24-5.24 5.45-1.68 2.22-3.25 4.49-4.73 6.82a400.6 400.6 0 0 0-3.92 6.3c-.97 0-1.89-.17-2.77-.51-.88-.34-1.58-.85-2.09-1.53 0-.28.3-1.16.89-2.64.6-1.48 1.29-3.27 2.09-5.37.79-2.1 1.49-4.29 2.09-6.56.6-2.27.89-4.32.89-6.13.34-.45.89-.88 1.66-1.28a5.2 5.2 0 0 1 2.43-.6c1.7 0 2.56.77 2.56 2.3 0 .85-.21 2.2-.64 4.05-.43 1.85-.98 3.85-1.66 6.01 1.48-2.21 3.15-4.39 5.03-6.52 1.87-2.13 3.85-3.89 5.92-5.28 2.07-1.39 4.13-2.09 6.18-2.09 2.33 0 4.02.81 5.07 2.43a9.583 9.583 0 0 1 1.58 5.32c0 1.76-.28 3.38-.85 4.86-.57 1.48-1.15 2.9-1.75 4.26-.6 1.36-.89 2.73-.89 4.09 0 1.14.24 1.92.72 2.34.48.43 1.04.64 1.66.64 1.42 0 2.85-.65 4.3-1.96 1.45-1.31 2.84-2.98 4.17-5.03a58.84 58.84 0 0 0 3.54-6.22l1.11 1.19c-1.19 2.78-2.54 5.27-4.05 7.45-1.51 2.19-3.15 3.93-4.94 5.24-1.79 1.31-3.76 1.96-5.92 1.96Z" class="cls-4ann1"/>
    <path d="M783.2 1205.3c-2.1 0-3.68-.53-4.73-1.58-1.05-1.05-1.58-2.4-1.58-4.05 0-1.14.21-2.36.64-3.66.43-1.31.84-2.64 1.24-4 .4-1.36.6-2.67.6-3.92 0-1.48-.31-2.5-.94-3.07-.63-.57-1.39-.85-2.3-.85-1.76 0-3.55.71-5.37 2.13-1.82 1.42-3.56 3.24-5.24 5.45-1.68 2.22-3.25 4.49-4.73 6.82a400.6 400.6 0 0 0-3.92 6.3c-.97 0-1.89-.17-2.77-.51-.88-.34-1.58-.85-2.09-1.53 0-.28.3-1.16.89-2.64.6-1.48 1.29-3.27 2.09-5.37.79-2.1 1.49-4.29 2.09-6.56.6-2.27.89-4.32.89-6.13.34-.45.89-.88 1.66-1.28a5.2 5.2 0 0 1 2.43-.6c1.7 0 2.56.77 2.56 2.3 0 .85-.21 2.2-.64 4.05-.43 1.85-.98 3.85-1.66 6.01 1.48-2.21 3.15-4.39 5.03-6.52 1.87-2.13 3.85-3.89 5.92-5.28 2.07-1.39 4.13-2.09 6.18-2.09 2.33 0 4.02.81 5.07 2.43a9.583 9.583 0 0 1 1.58 5.32c0 1.76-.28 3.38-.85 4.86-.57 1.48-1.15 2.9-1.75 4.26-.6 1.36-.89 2.73-.89 4.09 0 1.14.24 1.92.72 2.34.48.43 1.04.64 1.66.64 1.42 0 2.85-.65 4.3-1.96 1.45-1.31 2.84-2.98 4.17-5.03a58.84 58.84 0 0 0 3.54-6.22l1.11 1.19c-1.19 2.78-2.54 5.27-4.05 7.45-1.51 2.19-3.15 3.93-4.94 5.24-1.79 1.31-3.76 1.96-5.92 1.96Z" class="cls-4ann1"/>
    <path d="M801.52 1205.9c-2.33 0-4.06-.71-5.2-2.13-1.14-1.42-1.7-3.12-1.7-5.11 0-1.31.24-2.95.72-4.94.48-1.99 1.12-4.07 1.92-6.26.79-2.19 1.72-4.24 2.77-6.18 1.05-1.93 2.19-3.51 3.41-4.73 1.22-1.22 2.43-1.83 3.62-1.83.57 0 1.05.17 1.45.51.4.34.6.85.6 1.53s-.44 1.79-1.32 3.32c-.88 1.53-1.9 3.28-3.07 5.24a46.781 46.781 0 0 0-3.07 6.18c-.88 2.16-1.32 4.2-1.32 6.13s.33 3.31.98 3.96c.65.65 1.66.98 3.02.98 1.93 0 4-.96 6.22-2.9 2.22-1.93 4.54-5.31 6.99-10.14l.94 1.02c-1.76 4.89-4.17 8.66-7.24 11.33-3.07 2.67-6.3 4-9.71 4Zm10.14-38.76c-.97 0-1.83-.24-2.6-.72s-1.15-1.24-1.15-2.26c0-1.25.71-2.33 2.13-3.24 1.42-.91 2.84-1.36 4.26-1.36.91 0 1.66.2 2.26.6.6.4.89 1.14.89 2.21s-.61 2.14-1.83 3.19c-1.22 1.05-2.54 1.58-3.96 1.58Z" class="cls-4ann1"/>
    <path d="M821.53 1206.92c-1.87 0-3.18-.89-3.92-2.68-.74-1.79-1.11-4.1-1.11-6.94 0-.28.03-1.26.09-2.94.06-1.67.2-4.3.43-7.88.06-1.59.21-2.68.47-3.28.26-.6 1.06-.89 2.43-.89 1.08 0 1.75.21 2 .64.26.43.38 1.26.38 2.51 0 1.82-.11 3.89-.34 6.22-.23 2.33-.34 4.54-.34 6.65 0 1.7.13 2.94.38 3.71s.75 1.15 1.49 1.15c1.02 0 2.14-.57 3.37-1.7 1.22-1.14 2.47-2.63 3.75-4.47a64.27 64.27 0 0 0 3.62-5.92c1.14-2.1 2.16-4.15 3.07-6.13.11-3.86.54-6.43 1.28-7.71.74-1.28 1.67-1.92 2.81-1.92 1.19 0 2.03.41 2.51 1.24.48.82.72 1.55.72 2.17 0 .8-.23 1.56-.68 2.3-.46.74-.94 1.76-1.45 3.07-.51 1.31-.77 3.24-.77 5.79 0 .85.09 1.78.26 2.77s.54 1.83 1.11 2.51c.57.68 1.42 1.02 2.56 1.02 1.19 0 2.33-.47 3.41-1.41s2.19-2.57 3.32-4.9l1.02.77c-1.25 2.95-2.66 4.96-4.22 6.01-1.56 1.05-3.02 1.58-4.39 1.58-1.87 0-3.42-.69-4.64-2.09-1.22-1.39-2.09-3.39-2.6-6.01a65.827 65.827 0 0 1-4.73 7.84c-1.79 2.56-3.66 4.69-5.62 6.39-1.96 1.7-3.85 2.56-5.67 2.56Z" class="cls-4ann1"/>
    <path d="M859.96 1207.34c-3.52 0-6.19-.97-8.01-2.9-1.82-1.93-2.73-4.32-2.73-7.16 0-2.5.64-5.17 1.92-8.01 1.28-2.84 2.98-5.51 5.11-8.01 2.13-2.5 4.49-4.52 7.07-6.05 2.58-1.53 5.15-2.3 7.71-2.3 1.36 0 2.63.36 3.79 1.06 1.16.71 1.75 2.14 1.75 4.3s-.63 4.17-1.87 6.05c-1.25 1.87-2.93 3.55-5.03 5.03-2.1 1.48-4.39 2.68-6.86 3.62-2.47.94-4.96 1.55-7.45 1.83-.11.46-.19.89-.21 1.32-.03.43-.04.87-.04 1.32 0 .68.07 1.42.21 2.22.14.8.45 1.56.94 2.3.48.74 1.16 1.34 2.04 1.79.88.45 2.03.68 3.45.68 2.44 0 4.86-.68 7.24-2.04 2.39-1.36 4.61-3.17 6.69-5.41 2.07-2.24 3.82-4.73 5.24-7.45l1.28.94c-1.53 3.41-3.49 6.38-5.88 8.9-2.39 2.53-4.98 4.49-7.8 5.88-2.81 1.39-5.67 2.09-8.56 2.09Zm-4-14.65c1.53-.4 3.24-1.08 5.11-2.04a36.57 36.57 0 0 0 5.45-3.45c1.76-1.33 3.21-2.81 4.34-4.43 1.14-1.62 1.7-3.31 1.7-5.07 0-.62-.11-1.08-.34-1.36-.23-.28-.68-.43-1.36-.43-1.31 0-2.71.5-4.22 1.49-1.51.99-2.95 2.31-4.34 3.96a37.283 37.283 0 0 0-3.79 5.41c-1.14 1.96-1.99 3.93-2.56 5.92Z" class="cls-4ann1"/>
    <path d="M894.2 1205.81c-1.99 0-3.56-.53-4.73-1.58-1.16-1.05-1.75-2.43-1.75-4.13s.4-3.48 1.19-5.32c.79-1.84 1.58-3.68 2.34-5.49.77-1.82 1.15-3.44 1.15-4.86 0-1.65-.48-2.91-1.45-3.79a20.1 20.1 0 0 0-3.15-2.34 109.85 109.85 0 0 1-4.09 9.33c-1.48 2.98-2.67 5.27-3.58 6.86l-.94-1.79c.79-1.48 1.83-3.62 3.11-6.43 1.28-2.81 2.54-5.98 3.79-9.5-.57-.57-.85-1.28-.85-2.13 0-1.65.47-3.04 1.41-4.17.94-1.14 1.69-1.7 2.26-1.7.68 0 1.09.3 1.24.89.14.6.21 1.04.21 1.32s-.14.82-.43 1.62c-.28.8-.46 1.31-.51 1.53.06.74.52 1.43 1.41 2.09.88.65 1.9 1.38 3.07 2.17 1.16.8 2.19 1.79 3.07 2.98.88 1.19 1.32 2.7 1.32 4.52 0 1.65-.36 3.35-1.06 5.11-.71 1.76-1.42 3.41-2.13 4.94-.71 1.53-1.06 2.9-1.06 4.09 0 .91.24 1.52.72 1.83.48.31 1.04.47 1.66.47 1.36 0 2.77-.41 4.22-1.24 1.45-.82 2.87-1.89 4.26-3.19 1.39-1.31 2.63-2.68 3.71-4.13 1.08-1.45 1.87-2.8 2.39-4.05l1.45 1.11c-1.08 2.39-2.59 4.74-4.52 7.07-1.93 2.33-4.08 4.23-6.43 5.71-2.36 1.48-4.79 2.22-7.28 2.22Z" class="cls-4ann1"/>
    <path d="M918.48 1207.94c-2.73 0-4.9-.58-6.52-1.75-1.62-1.16-2.77-2.61-3.45-4.34-.68-1.73-1.02-3.48-1.02-5.24s.23-3.01.68-3.92c.46-.91 1.01-1.58 1.66-2s1.28-.75 1.87-.98c.6-.23 1.04-.48 1.32-.77a55.72 55.72 0 0 0 4.56-5.58c1.45-2.02 2.71-4.19 3.79-6.52v-.94c0-2.16.37-3.69 1.11-4.6.74-.91 1.53-1.36 2.39-1.36.51 0 .89.13 1.15.38.26.26.41.55.47.89 0 .34-.09.8-.26 1.36-.17.57-.26 1.31-.26 2.22 0 1.82.38 3.82 1.15 6.01.77 2.19 1.53 4.49 2.3 6.9.77 2.41 1.15 4.93 1.15 7.54 0 .68-.04 1.36-.13 2.04-.09.68-.19 1.31-.3 1.87 1.87-.4 3.69-1.32 5.45-2.77 1.76-1.45 3.44-3.73 5.03-6.86l.85.85c-1.08 3.12-2.68 5.55-4.81 7.28-2.13 1.73-4.5 2.83-7.11 3.28-.91 2.39-2.36 4.15-4.34 5.28-1.99 1.14-4.23 1.7-6.73 1.7Zm-.09-3.24c.85 0 1.82-.24 2.9-.72 1.08-.48 1.9-1.55 2.47-3.19-2.33-.45-4.43-1.38-6.3-2.77-1.87-1.39-3.27-2.77-4.17-4.13-1.14.06-1.7.97-1.7 2.73 0 1.99.6 3.83 1.79 5.54 1.19 1.7 2.87 2.56 5.03 2.56Zm5.88-5.62c.11-.51.2-1.06.26-1.66.06-.6.09-1.24.09-1.92 0-2.61-.33-5.22-.98-7.84-.65-2.61-1.24-5.11-1.75-7.5-1.19 1.99-2.5 3.98-3.92 5.96-1.42 1.99-2.78 3.64-4.09 4.94.91 1.7 2.24 3.32 4 4.86 1.76 1.53 3.89 2.58 6.39 3.15Z" class="cls-4ann1"/>
    <path d="M943.1 1207.6c-1.82 0-3.37-.6-4.64-1.79-1.28-1.19-1.92-3.01-1.92-5.45 0-1.99.46-4.16 1.36-6.52.91-2.36 2.16-4.69 3.75-6.99 1.59-2.3 3.39-4.39 5.41-6.26s4.16-3.38 6.43-4.52c2.27-1.14 4.54-1.7 6.82-1.7s4.19.6 5.75 1.79c1.56 1.19 2.34 2.78 2.34 4.77 0 1.42-.44 2.41-1.32 2.98-.88.57-1.97.82-3.28.77.11-.51.21-1.02.3-1.53s.13-1.02.13-1.53c0-1.25-.28-2.34-.85-3.28s-1.62-1.41-3.15-1.41-3.21.55-4.86 1.66c-1.65 1.11-3.22 2.57-4.73 4.39a39.878 39.878 0 0 0-4.05 5.92c-1.19 2.13-2.13 4.22-2.81 6.26-.68 2.04-1.02 3.89-1.02 5.54 0 2.1.71 3.15 2.13 3.15 1.31 0 2.74-.62 4.3-1.87 1.56-1.25 3.15-2.82 4.77-4.73 1.62-1.9 3.17-3.88 4.64-5.92 1.48-2.04 2.78-3.86 3.92-5.45.17-.34.34-.51.51-.51.28.06.71.17 1.28.34.57.17 1.08.43 1.53.77.45.34.68.77.68 1.28s-.24 1.21-.72 2.09c-.48.88-1.05 1.87-1.7 2.98-.65 1.11-1.22 2.23-1.7 3.37-.48 1.14-.72 2.19-.72 3.15 0 .85.21 1.66.64 2.43.43.77 1.12 1.15 2.09 1.15 1.48 0 3.46-1.09 5.96-3.28 2.5-2.19 5.03-5.58 7.58-10.18l1.11 1.11c-1.25 3.07-2.81 5.78-4.69 8.14-1.87 2.36-3.88 4.19-6.01 5.49s-4.25 1.96-6.35 1.96-3.76-.67-4.81-2c-1.05-1.33-1.58-2.77-1.58-4.3 0-.28.01-.57.04-.85s.07-.6.13-.94c-2.39 3.12-4.57 5.49-6.56 7.11-1.99 1.62-4.03 2.43-6.13 2.43Z" class="cls-4ann1"/>
    <path d="M991.24 1205.81c-1.99 0-3.56-.53-4.73-1.58-1.16-1.05-1.75-2.43-1.75-4.13s.4-3.48 1.19-5.32c.79-1.84 1.58-3.68 2.34-5.49.77-1.82 1.15-3.44 1.15-4.86 0-1.65-.48-2.91-1.45-3.79a20.1 20.1 0 0 0-3.15-2.34 109.85 109.85 0 0 1-4.09 9.33c-1.48 2.98-2.67 5.27-3.58 6.86l-.94-1.79c.79-1.48 1.83-3.62 3.11-6.43 1.28-2.81 2.54-5.98 3.79-9.5-.57-.57-.85-1.28-.85-2.13 0-1.65.47-3.04 1.41-4.17.94-1.14 1.69-1.7 2.26-1.7.68 0 1.09.3 1.24.89.14.6.21 1.04.21 1.32s-.14.82-.43 1.62c-.28.8-.46 1.31-.51 1.53.06.74.52 1.43 1.41 2.09.88.65 1.9 1.38 3.07 2.17 1.16.8 2.19 1.79 3.07 2.98.88 1.19 1.32 2.7 1.32 4.52 0 1.65-.36 3.35-1.06 5.11-.71 1.76-1.42 3.41-2.13 4.94-.71 1.53-1.06 2.9-1.06 4.09 0 .91.24 1.52.72 1.83.48.31 1.04.47 1.66.47 1.36 0 2.77-.41 4.22-1.24 1.45-.82 2.87-1.89 4.26-3.19 1.39-1.31 2.63-2.68 3.71-4.13 1.08-1.45 1.87-2.8 2.39-4.05l1.45 1.11c-1.08 2.39-2.59 4.74-4.52 7.07-1.93 2.33-4.08 4.23-6.43 5.71-2.36 1.48-4.79 2.22-7.28 2.22Z" class="cls-4ann1"/>
    <path d="M1010.07 1227.45c-1.42 0-2.7-.4-3.83-1.19-1.14-.8-1.7-2.02-1.7-3.66 0-1.82.48-3.44 1.45-4.86.97-1.42 2.24-2.74 3.83-3.96 1.59-1.22 3.38-2.36 5.37-3.41 1.99-1.05 4-2.06 6.05-3.02.74-1.99 1.5-4.26 2.3-6.82.79-2.56 1.53-5.22 2.22-8.01-1.82 2.78-3.75 5.2-5.79 7.24s-4.23 3.07-6.56 3.07c-1.08 0-2.16-.24-3.24-.72s-1.97-1.24-2.68-2.26c-.71-1.02-1.06-2.36-1.06-4 0-1.53.27-3.35.81-5.45s1.21-4.16 2-6.18c.79-2.02 1.63-3.68 2.51-4.98.88-1.31 1.63-1.96 2.26-1.96.28 0 .74.1 1.36.3.62.2 1.22.47 1.79.81.57.34.88.71.94 1.11-.51.74-1.08 1.78-1.7 3.11-.63 1.34-1.24 2.83-1.83 4.47-.6 1.65-1.09 3.24-1.49 4.77-.4 1.53-.6 2.87-.6 4 0 .97.21 1.76.64 2.39.43.63 1.18.94 2.26.94 1.14 0 2.37-.52 3.71-1.58 1.33-1.05 2.65-2.39 3.96-4 1.31-1.62 2.53-3.34 3.66-5.15.11-.51.24-1.14.38-1.87.14-.74.3-1.48.47-2.22.23-.85.67-1.76 1.32-2.73.65-.96 1.69-1.45 3.11-1.45.34 0 .67.01.98.04.31.03.67.1 1.06.21 0 .91-.27 2.6-.81 5.07s-1.31 5.34-2.3 8.6c-.99 3.27-2.14 6.6-3.45 10.01 2.56-1.02 5.12-2.68 7.71-4.98 2.58-2.3 4.67-5.47 6.26-9.5l1.19 1.02c-.85 2.73-2.14 5.11-3.88 7.16a29.184 29.184 0 0 1-5.84 5.28c-2.16 1.48-4.32 2.7-6.47 3.66-1.48 3.63-3.1 7.03-4.86 10.18-1.76 3.15-3.61 5.69-5.54 7.62-1.93 1.93-3.92 2.9-5.96 2.9Zm-.6-2.9c.91 0 2.36-1.12 4.34-3.36 1.99-2.24 4.09-6.01 6.3-11.29a95.27 95.27 0 0 0-6.18 3.54c-1.96 1.22-3.54 2.54-4.73 3.96-1.19 1.42-1.79 2.98-1.79 4.69 0 .51.16 1.05.47 1.62.31.57.84.85 1.58.85Z" class="cls-4ann1"/>
  </g>
</svg>
