<svg id="svgQrWrapper" viewBox="0 0 300 300" xmlns="http://www.w3.org/2000/svg" xmlns:xlink="http://www.w3.org/1999/xlink" width="300" height="300" style="width: 100%; height: 100%; background-color: rgb(255, 255, 255);"><svg fill="none" xmlns="http://www.w3.org/2000/svg" width="300" height="300" viewBox="0 0 2000 2000"><g transform="translate(-180,-180)scale(1.2)"><defs><style>.cls3-1{fill:#e98ead}.cls3-2{fill:#27141a}</style></defs><g id="\u0421\u043B\u043E\u0439_3" data-name="\u0421\u043B\u043E\u0439 3"><path class="cls3-1" d="m1460.37 1613.22 39.9-34.3-93.48-.09-47.54 46.11h149.6l47.54-46.11h-40.66ZM1457.32 1673.76l-44.32-31.68 33.79 31.68h-40l-47.54-46.1h149.6l47.54 46.1ZM1143.17 1687.43c13.16-3.33 23.15-14.77 25.5-26.26 2.42-11.88-3.5-24.42-15.32-33.8 11.5-9.77 17-22.51 14.16-34.3-2.78-11.58-13.27-22.42-26.38-25.38-23.07-5.21-48.2 15.41-78 39.83a309.31 309.31 0 0 0-23.87 21.75v.08c4.49 4 11 9.64 19.07 16 34.01 26.65 61.36 48.04 84.84 42.08Z"></path><rect class="cls3-2" x="1122.95" y="1622.05" width="395.3" height="11.21" rx="5.6"></rect><path class="cls3-1" d="m871.55 1613.22 39.9-34.3-93.48-.09-47.54 46.11H920l47.54-46.11h-40.63ZM868.5 1673.76l-44.33-31.68 33.83 31.68h-40l-47.54-46.1H920l47.54 46.1ZM554.34 1687.43c13.17-3.33 23.16-14.77 25.5-26.26 2.43-11.88-3.49-24.42-15.31-33.8 11.49-9.77 17-22.51 14.16-34.3-2.78-11.58-13.27-22.42-26.38-25.38-23.08-5.21-48.2 15.41-78 39.83a309.31 309.31 0 0 0-23.87 21.75v.08c4.49 4 10.94 9.64 19.06 16 34.02 26.65 61.37 48.04 84.84 42.08Z"></path><rect class="cls3-2" x="534.13" y="1622.05" width="395.3" height="11.21" rx="5.6"></rect><path class="cls3-1" d="M389.78 1454.18q17.14 20 34.3 39.91l.09-93.48-46.11-47.54v149.59l46.11 47.55v-40.66ZM329.24 1451.14l31.68-44.33-31.68 33.79v-40l46.1-47.54v149.59l-46.1 47.55ZM315.56 1137c3.34 13.17 14.78 23.15 26.27 25.5 11.88 2.43 24.42-3.49 33.8-15.31 9.77 11.49 22.51 17 34.3 14.15 11.58-2.78 22.42-13.26 25.38-26.37 5.21-23.08-15.41-48.21-39.83-78a309.31 309.31 0 0 0-21.75-23.87h-.08c-4 4.49-9.64 10.94-16 19.06-26.65 33.99-48.04 61.34-42.09 84.84Z"></path><rect class="cls3-2" x="177.7" y="1308.81" width="395.3" height="11.21" rx="5.6" transform="rotate(90 375.345 1314.415)"></rect><path class="cls3-1" d="m389.78 865.36 34.3 39.9.09-93.47-46.11-47.55v149.6l46.11 47.54v-40.65ZM329.24 862.31 360.92 818l-31.68 33.79v-40l46.1-47.55v149.6l-46.1 47.54ZM315.56 548.16c3.34 13.16 14.78 23.15 26.27 25.5 11.88 2.42 24.42-3.5 33.8-15.32 9.77 11.5 22.51 17 34.3 14.16 11.58-2.78 22.42-13.27 25.38-26.38 5.21-23.07-15.41-48.2-39.83-78a307 307 0 0 0-21.75-23.86h-.08c-4 4.48-9.64 10.94-16 19.06-26.65 34.01-48.04 61.36-42.09 84.84Z"></path><rect class="cls3-2" x="177.7" y="719.99" width="395.3" height="11.21" rx="5.6" transform="rotate(90 375.345 725.595)"></rect><path class="cls3-1" d="m546.5 386.78-39.9 34.3 93.48.09 47.54-46.11H498l-47.54 46.11h40.66ZM549.55 326.24l44.33 31.68-33.79-31.68h40l47.54 46.1H498l-47.54-46.1ZM863.71 312.57c-13.17 3.33-23.16 14.77-25.5 26.26-2.43 11.88 3.49 24.42 15.31 33.8-11.49 9.77-17 22.51-14.16 34.3 2.78 11.58 13.27 22.42 26.38 25.38 23.08 5.21 48.2-15.41 78-39.83a309.31 309.31 0 0 0 23.87-21.75v-.08c-4.49-4-10.94-9.64-19.06-16-34.02-26.65-61.37-48.04-84.84-42.08Z"></path><rect class="cls3-2" x="488.62" y="366.74" width="395.3" height="11.21" rx="5.6" transform="rotate(180 686.27 372.345)"></rect><path class="cls3-1" d="m1135.33 386.78-39.91 34.3 93.48.09 47.54-46.11h-149.6l-47.54 46.11h40.7ZM1138.37 326.24l44.33 31.68-33.79-31.68h40l47.54 46.1h-149.6l-47.54-46.1ZM1452.53 312.57c-13.17 3.33-23.15 14.77-25.5 26.26-2.43 11.88 3.49 24.42 15.31 33.8-11.49 9.77-17 22.51-14.15 34.3 2.78 11.58 13.26 22.42 26.37 25.38 23.08 5.21 48.21-15.41 78-39.83a309.31 309.31 0 0 0 23.87-21.75v-.08c-4.49-4-10.94-9.64-19.06-16-34.01-26.65-61.37-48.04-84.84-42.08Z"></path><rect class="cls3-2" x="1077.45" y="366.74" width="395.3" height="11.21" rx="5.6" transform="rotate(180 1275.095 372.345)"></rect><path class="cls3-1" d="M1610.22 540.32q-17.15-20-34.3-39.91l-.09 93.48 46.11 47.54V491.84l-46.11-47.54V485ZM1670.76 543.37l-31.68 44.32 31.68-33.79v40l-46.1 47.54v-149.6l46.1-47.54ZM1684.44 857.52c-3.34-13.17-14.78-23.15-26.27-25.5-11.88-2.43-24.42 3.49-33.8 15.31-9.77-11.49-22.51-17-34.3-14.15-11.58 2.78-22.42 13.26-25.38 26.38-5.21 23.07 15.41 48.2 39.83 78a308.85 308.85 0 0 0 21.75 23.86h.08c4-4.48 9.64-10.94 16-19.06 26.65-34.01 48.04-61.36 42.09-84.84Z"></path><rect class="cls3-2" x="1427.01" y="674.48" width="395.3" height="11.21" rx="5.6" transform="rotate(-90 1624.655 680.085)"></rect><path class="cls3-1" d="m1610.22 1129.14-34.3-39.9-.09 93.48 46.11 47.54v-149.6l-46.11-47.54v40.66ZM1670.76 1132.19l-31.68 44.32 31.68-33.79v40l-46.1 47.54v-149.6l46.1-47.54ZM1684.44 1446.34c-3.34-13.16-14.78-23.15-26.27-25.5-11.88-2.42-24.42 3.5-33.8 15.32-9.77-11.5-22.51-17-34.3-14.16-11.58 2.78-22.42 13.27-25.38 26.38-5.21 23.07 15.41 48.2 39.83 78a309.31 309.31 0 0 0 21.75 23.87h.08c4-4.48 9.64-10.94 16-19.06 26.65-34.02 48.04-61.37 42.09-84.85Z"></path><rect class="cls3-2" x="1427.01" y="1263.3" width="395.3" height="11.21" rx="5.6" transform="rotate(-90 1624.655 1268.905)"></rect></g><g transform="translate(510, 510)scale(3.3)" fill="none"><svg width="300" height="300"><style>.background-color{ fill: #fff; }.dot-color{ fill: #e98ead; }.corners-square-color-0-0{ fill: #e98ead; }.corners-dot-color-0-0{ fill: #e98ead; }.corners-square-color-1-0{ fill: #e98ead; }.corners-dot-color-1-0{ fill: #e98ead; }.corners-square-color-0-1{ fill: #e98ead; }.corners-dot-color-0-1{ fill: #e98ead; }</style><defs></defs><g class="dot-color"><path d="M 5 105v 10h 10v -5a 5 5, 0, 0, 0, -5 -5" transform="rotate(-90,10,110)"></path><rect x="5" y="115" width="10" height="10" transform="rotate(0,10,120)"></rect><rect x="5" y="125" width="10" height="10" transform="rotate(0,10,130)"></rect><rect x="5" y="135" width="10" height="10" transform="rotate(0,10,140)"></rect><rect x="5" y="145" width="10" height="10" transform="rotate(0,10,150)"></rect><path d="M 5 155v 10h 10v -5a 5 5, 0, 0, 0, -5 -5" transform="rotate(90,10,160)"></path><path d="M 5 185v 10h 10v -5a 5 5, 0, 0, 0, -5 -5" transform="rotate(-90,10,190)"></path><path d="M 5 195v 10h 10v -5a 5 5, 0, 0, 0, -5 -5" transform="rotate(90,10,200)"></path><path d="M 15 95v 10h 10v -5a 5 5, 0, 0, 0, -5 -5" transform="rotate(-90,20,100)"></path><rect x="15" y="125" width="10" height="10" transform="rotate(0,20,130)"></rect><rect x="15" y="145" width="10" height="10" transform="rotate(0,20,150)"></rect><path d="M 15 175v 10h 10v -5a 5 5, 0, 0, 0, -5 -5" transform="rotate(-90,20,180)"></path><rect x="15" y="185" width="10" height="10" transform="rotate(0,20,190)"></rect><path d="M 15 205v 5a 5 5, 0, 0, 0, 5 5h 5v -5a 5 5, 0, 0, 0, -5 -5" transform="rotate(90,20,210)"></path><rect x="25" y="95" width="10" height="10" transform="rotate(0,30,100)"></rect><rect x="25" y="105" width="10" height="10" transform="rotate(0,30,110)"></rect><path d="M 25 125v 10h 10v -5a 5 5, 0, 0, 0, -5 -5" transform="rotate(90,30,130)"></path><rect x="25" y="145" width="10" height="10" transform="rotate(0,30,150)"></rect><rect x="25" y="155" width="10" height="10" transform="rotate(0,30,160)"></rect><rect x="25" y="165" width="10" height="10" transform="rotate(0,30,170)"></rect><rect x="25" y="175" width="10" height="10" transform="rotate(0,30,180)"></rect><rect x="25" y="185" width="10" height="10" transform="rotate(0,30,190)"></rect><path d="M 35 85v 10h 10v -5a 5 5, 0, 0, 0, -5 -5" transform="rotate(-90,40,90)"></path><rect x="35" y="95" width="10" height="10" transform="rotate(0,40,100)"></rect><path d="M 35 105v 10h 10v -5a 5 5, 0, 0, 0, -5 -5" transform="rotate(90,40,110)"></path><rect x="35" y="145" width="10" height="10" transform="rotate(0,40,150)"></rect><rect x="35" y="175" width="10" height="10" transform="rotate(0,40,180)"></rect><rect x="35" y="185" width="10" height="10" transform="rotate(0,40,190)"></rect><path d="M 45 95v 10h 10v -5a 5 5, 0, 0, 0, -5 -5" transform="rotate(90,50,100)"></path><path d="M 45 125v 10h 10v -5a 5 5, 0, 0, 0, -5 -5" transform="rotate(-90,50,130)"></path><rect x="45" y="135" width="10" height="10" transform="rotate(0,50,140)"></rect><path d="M 45 145v 10h 10v -5a 5 5, 0, 0, 0, -5 -5" transform="rotate(90,50,150)"></path><path d="M 45 185v 10h 10v -5a 5 5, 0, 0, 0, -5 -5" transform="rotate(90,50,190)"></path><path d="M 45 205v 5a 5 5, 0, 0, 0, 5 5h 5v -5a 5 5, 0, 0, 0, -5 -5" transform="rotate(90,50,210)"></path><path d="M 55 85v 10h 10v -5a 5 5, 0, 0, 0, -5 -5" transform="rotate(-90,60,90)"></path><rect x="55" y="125" width="10" height="10" transform="rotate(0,60,130)"></rect><path d="M 55 135v 10h 10v -5a 5 5, 0, 0, 0, -5 -5" transform="rotate(90,60,140)"></path><path d="M 55 175v 5a 5 5, 0, 0, 0, 5 5h 5v -5a 5 5, 0, 0, 0, -5 -5" transform="rotate(90,60,180)"></path><rect x="65" y="85" width="10" height="10" transform="rotate(0,70,90)"></rect><path d="M 65 105v 5a 5 5, 0, 0, 0, 5 5h 5v -5a 5 5, 0, 0, 0, -5 -5" transform="rotate(90,70,110)"></path><path d="M 65 125v 10h 10v -5a 5 5, 0, 0, 0, -5 -5" transform="rotate(90,70,130)"></path><path d="M 65 145v 10h 10v -5a 5 5, 0, 0, 0, -5 -5" transform="rotate(-90,70,150)"></path><path d="M 65 165v 10h 10v -5a 5 5, 0, 0, 0, -5 -5" transform="rotate(-90,70,170)"></path><path d="M 65 185v 5a 5 5, 0, 0, 0, 5 5h 5v -5a 5 5, 0, 0, 0, -5 -5" transform="rotate(90,70,190)"></path><path d="M 65 205v 5a 5 5, 0, 0, 0, 5 5h 5v -5a 5 5, 0, 0, 0, -5 -5" transform="rotate(90,70,210)"></path><path d="M 75 85v 10h 10v -5a 5 5, 0, 0, 0, -5 -5" transform="rotate(90,80,90)"></path><path d="M 75 115v 5a 5 5, 0, 0, 0, 5 5h 5v -5a 5 5, 0, 0, 0, -5 -5" transform="rotate(90,80,120)"></path><path d="M 75 135v 10h 10v -5a 5 5, 0, 0, 0, -5 -5" transform="rotate(-90,80,140)"></path><path d="M 75 145v 10h 10v -5a 5 5, 0, 0, 0, -5 -5" transform="rotate(90,80,150)"></path><path d="M 75 165v 10h 10v -5a 5 5, 0, 0, 0, -5 -5" transform="rotate(90,80,170)"></path><path d="M 75 195v 10h 10v -5a 5 5, 0, 0, 0, -5 -5" transform="rotate(-90,80,200)"></path><path d="M 85 15v 10h 10v -5a 5 5, 0, 0, 0, -5 -5" transform="rotate(-90,90,20)"></path><rect x="85" y="25" width="10" height="10" transform="rotate(0,90,30)"></rect><path d="M 85 65v 5a 5 5, 0, 0, 0, 5 5h 5v -5a 5 5, 0, 0, 0, -5 -5" transform="rotate(90,90,70)"></path><path d="M 85 135v 10h 10v -5a 5 5, 0, 0, 0, -5 -5" transform="rotate(90,90,140)"></path><rect x="85" y="195" width="10" height="10" transform="rotate(0,90,200)"></rect><rect x="85" y="205" width="10" height="10" transform="rotate(0,90,210)"></rect><path d="M 85 225v 10h 10v -5a 5 5, 0, 0, 0, -5 -5" transform="rotate(-90,90,230)"></path><rect x="85" y="235" width="10" height="10" transform="rotate(0,90,240)"></rect><path d="M 85 255v 5a 5 5, 0, 0, 0, 5 5h 5v -5a 5 5, 0, 0, 0, -5 -5" transform="rotate(90,90,260)"></path><path d="M 95 5v 10h 10v -5a 5 5, 0, 0, 0, -5 -5" transform="rotate(-90,100,10)"></path><rect x="95" y="15" width="10" height="10" transform="rotate(0,100,20)"></rect><path d="M 95 25v 10h 10v -5a 5 5, 0, 0, 0, -5 -5" transform="rotate(90,100,30)"></path><path d="M 95 45v 5a 5 5, 0, 0, 0, 5 5h 5v -5a 5 5, 0, 0, 0, -5 -5" transform="rotate(90,100,50)"></path><path d="M 95 75v 10h 10v -5a 5 5, 0, 0, 0, -5 -5" transform="rotate(-90,100,80)"></path><path d="M 95 85v 10h 10v -5a 5 5, 0, 0, 0, -5 -5" transform="rotate(90,100,90)"></path><path d="M 95 105v 10h 10v -5a 5 5, 0, 0, 0, -5 -5" transform="rotate(-90,100,110)"></path><path d="M 95 125v 10h 10v -5a 5 5, 0, 0, 0, -5 -5" transform="rotate(-90,100,130)"></path><path d="M 95 145v 10h 10v -5a 5 5, 0, 0, 0, -5 -5" transform="rotate(-90,100,150)"></path><rect x="95" y="155" width="10" height="10" transform="rotate(0,100,160)"></rect><rect x="95" y="165" width="10" height="10" transform="rotate(0,100,170)"></rect><rect x="95" y="175" width="10" height="10" transform="rotate(0,100,180)"></rect><rect x="95" y="185" width="10" height="10" transform="rotate(0,100,190)"></rect><rect x="95" y="195" width="10" height="10" transform="rotate(0,100,200)"></rect><rect x="95" y="205" width="10" height="10" transform="rotate(0,100,210)"></rect><rect x="95" y="215" width="10" height="10" transform="rotate(0,100,220)"></rect><rect x="95" y="235" width="10" height="10" transform="rotate(0,100,240)"></rect><path d="M 95 275v 10h 10v -5a 5 5, 0, 0, 0, -5 -5" transform="rotate(-90,100,280)"></path><rect x="95" y="285" width="10" height="10" transform="rotate(0,100,290)"></rect><path d="M 105 15v 10h 10v -5a 5 5, 0, 0, 0, -5 -5" transform="rotate(90,110,20)"></path><path d="M 105 65v 10h 10v -5a 5 5, 0, 0, 0, -5 -5" transform="rotate(-90,110,70)"></path><path d="M 105 75v 10h 10v -5a 5 5, 0, 0, 0, -5 -5" transform="rotate(90,110,80)"></path><rect x="105" y="105" width="10" height="10" transform="rotate(0,110,110)"></rect><path d="M 105 125v 10h 10v -5a 5 5, 0, 0, 0, -5 -5" transform="rotate(90,110,130)"></path><rect x="105" y="145" width="10" height="10" transform="rotate(0,110,150)"></rect><path d="M 105 155v 10h 10v -5a 5 5, 0, 0, 0, -5 -5" transform="rotate(90,110,160)"></path><path d="M 105 175v 10h 10v -5a 5 5, 0, 0, 0, -5 -5" transform="rotate(90,110,180)"></path><path d="M 105 195v 10h 10v -5a 5 5, 0, 0, 0, -5 -5" transform="rotate(90,110,200)"></path><path d="M 105 215v 10h 10v -5a 5 5, 0, 0, 0, -5 -5" transform="rotate(90,110,220)"></path><rect x="105" y="235" width="10" height="10" transform="rotate(0,110,240)"></rect><path d="M 105 285v 10h 10v -5a 5 5, 0, 0, 0, -5 -5" transform="rotate(90,110,290)"></path><path d="M 115 5v 10h 10v -5a 5 5, 0, 0, 0, -5 -5" transform="rotate(-90,120,10)"></path><path d="M 115 25v 10h 10v -5a 5 5, 0, 0, 0, -5 -5" transform="rotate(-90,120,30)"></path><rect x="115" y="35" width="10" height="10" transform="rotate(0,120,40)"></rect><path d="M 115 55v 5a 5 5, 0, 0, 0, 5 5h 5v -5a 5 5, 0, 0, 0, -5 -5" transform="rotate(90,120,60)"></path><rect x="115" y="105" width="10" height="10" transform="rotate(0,120,110)"></rect><rect x="115" y="115" width="10" height="10" transform="rotate(0,120,120)"></rect><rect x="115" y="145" width="10" height="10" transform="rotate(0,120,150)"></rect><path d="M 115 185v 5a 5 5, 0, 0, 0, 5 5h 5v -5a 5 5, 0, 0, 0, -5 -5" transform="rotate(90,120,190)"></path><path d="M 115 225v 10h 10v -5a 5 5, 0, 0, 0, -5 -5" transform="rotate(-90,120,230)"></path><rect x="115" y="235" width="10" height="10" transform="rotate(0,120,240)"></rect><rect x="115" y="245" width="10" height="10" transform="rotate(0,120,250)"></rect><rect x="115" y="255" width="10" height="10" transform="rotate(0,120,260)"></rect><rect x="125" y="5" width="10" height="10" transform="rotate(0,130,10)"></rect><rect x="125" y="35" width="10" height="10" transform="rotate(0,130,40)"></rect><path d="M 125 45v 10h 10v -5a 5 5, 0, 0, 0, -5 -5" transform="rotate(90,130,50)"></path><path d="M 125 65v 10h 10v -5a 5 5, 0, 0, 0, -5 -5" transform="rotate(-90,130,70)"></path><rect x="125" y="75" width="10" height="10" transform="rotate(0,130,80)"></rect><path d="M 125 95v 5a 5 5, 0, 0, 0, 5 5h 5v -5a 5 5, 0, 0, 0, -5 -5" transform="rotate(90,130,100)"></path><rect x="125" y="115" width="10" height="10" transform="rotate(0,130,120)"></rect><rect x="125" y="145" width="10" height="10" transform="rotate(0,130,150)"></rect><rect x="125" y="155" width="10" height="10" transform="rotate(0,130,160)"></rect><rect x="125" y="165" width="10" height="10" transform="rotate(0,130,170)"></rect><path d="M 125 195v 10h 10v -5a 5 5, 0, 0, 0, -5 -5" transform="rotate(-90,130,200)"></path><path d="M 125 215v 10h 10v -5a 5 5, 0, 0, 0, -5 -5" transform="rotate(-90,130,220)"></path><rect x="125" y="225" width="10" height="10" transform="rotate(0,130,230)"></rect><rect x="125" y="255" width="10" height="10" transform="rotate(0,130,260)"></rect><path d="M 125 275v 5a 5 5, 0, 0, 0, 5 5h 5v -5a 5 5, 0, 0, 0, -5 -5" transform="rotate(90,130,280)"></path><rect x="135" y="5" width="10" height="10" transform="rotate(0,140,10)"></rect><path d="M 135 25v 5a 5 5, 0, 0, 0, 5 5h 5v -5a 5 5, 0, 0, 0, -5 -5" transform="rotate(90,140,30)"></path><path d="M 135 75v 10h 10v -5a 5 5, 0, 0, 0, -5 -5" transform="rotate(90,140,80)"></path><rect x="135" y="115" width="10" height="10" transform="rotate(0,140,120)"></rect><rect x="135" y="145" width="10" height="10" transform="rotate(0,140,150)"></rect><rect x="135" y="165" width="10" height="10" transform="rotate(0,140,170)"></rect><rect x="135" y="195" width="10" height="10" transform="rotate(0,140,200)"></rect><path d="M 135 205v 10h 10v -5a 5 5, 0, 0, 0, -5 -5" transform="rotate(90,140,210)"></path><rect x="135" y="225" width="10" height="10" transform="rotate(0,140,230)"></rect><rect x="135" y="255" width="10" height="10" transform="rotate(0,140,260)"></rect><path d="M 135 285v 10h 10v -5a 5 5, 0, 0, 0, -5 -5" transform="rotate(-90,140,290)"></path><rect x="145" y="5" width="10" height="10" transform="rotate(0,150,10)"></rect><path d="M 145 65v 5a 5 5, 0, 0, 0, 5 5h 5v -5a 5 5, 0, 0, 0, -5 -5" transform="rotate(90,150,70)"></path><rect x="145" y="115" width="10" height="10" transform="rotate(0,150,120)"></rect><rect x="145" y="125" width="10" height="10" transform="rotate(0,150,130)"></rect><rect x="145" y="135" width="10" height="10" transform="rotate(0,150,140)"></rect><rect x="145" y="145" width="10" height="10" transform="rotate(0,150,150)"></rect><rect x="145" y="155" width="10" height="10" transform="rotate(0,150,160)"></rect><path d="M 145 165v 10h 10v -5a 5 5, 0, 0, 0, -5 -5" transform="rotate(90,150,170)"></path><path d="M 145 195v 10h 10v -5a 5 5, 0, 0, 0, -5 -5" transform="rotate(90,150,200)"></path><rect x="145" y="225" width="10" height="10" transform="rotate(0,150,230)"></rect><rect x="145" y="255" width="10" height="10" transform="rotate(0,150,260)"></rect><path d="M 145 265v 10h 10v -5a 5 5, 0, 0, 0, -5 -5" transform="rotate(90,150,270)"></path><rect x="145" y="285" width="10" height="10" transform="rotate(0,150,290)"></rect><rect x="155" y="5" width="10" height="10" transform="rotate(0,160,10)"></rect><path d="M 155 35v 5a 5 5, 0, 0, 0, 5 5h 5v -5a 5 5, 0, 0, 0, -5 -5" transform="rotate(90,160,40)"></path><path d="M 155 75v 10h 10v -5a 5 5, 0, 0, 0, -5 -5" transform="rotate(-90,160,80)"></path><rect x="155" y="85" width="10" height="10" transform="rotate(0,160,90)"></rect><rect x="155" y="95" width="10" height="10" transform="rotate(0,160,100)"></rect><rect x="155" y="115" width="10" height="10" transform="rotate(0,160,120)"></rect><rect x="155" y="135" width="10" height="10" transform="rotate(0,160,140)"></rect><rect x="155" y="145" width="10" height="10" transform="rotate(0,160,150)"></rect><path d="M 155 155v 10h 10v -5a 5 5, 0, 0, 0, -5 -5" transform="rotate(90,160,160)"></path><path d="M 155 215v 10h 10v -5a 5 5, 0, 0, 0, -5 -5" transform="rotate(-90,160,220)"></path><rect x="155" y="225" width="10" height="10" transform="rotate(0,160,230)"></rect><path d="M 155 255v 10h 10v -5a 5 5, 0, 0, 0, -5 -5" transform="rotate(90,160,260)"></path><path d="M 155 285v 10h 10v -5a 5 5, 0, 0, 0, -5 -5" transform="rotate(90,160,290)"></path><rect x="165" y="5" width="10" height="10" transform="rotate(0,170,10)"></rect><rect x="165" y="15" width="10" height="10" transform="rotate(0,170,20)"></rect><path d="M 165 65v 5a 5 5, 0, 0, 0, 5 5h 5v -5a 5 5, 0, 0, 0, -5 -5" transform="rotate(90,170,70)"></path><rect x="165" y="85" width="10" height="10" transform="rotate(0,170,90)"></rect><rect x="165" y="95" width="10" height="10" transform="rotate(0,170,100)"></rect><rect x="165" y="115" width="10" height="10" transform="rotate(0,170,120)"></rect><rect x="165" y="125" width="10" height="10" transform="rotate(0,170,130)"></rect><path d="M 165 135v 10h 10v -5a 5 5, 0, 0, 0, -5 -5" transform="rotate(90,170,140)"></path><path d="M 165 165v 10h 10v -5a 5 5, 0, 0, 0, -5 -5" transform="rotate(-90,170,170)"></path><rect x="165" y="175" width="10" height="10" transform="rotate(0,170,180)"></rect><rect x="165" y="185" width="10" height="10" transform="rotate(0,170,190)"></rect><rect x="165" y="195" width="10" height="10" transform="rotate(0,170,200)"></rect><rect x="165" y="205" width="10" height="10" transform="rotate(0,170,210)"></rect><rect x="165" y="225" width="10" height="10" transform="rotate(0,170,230)"></rect><rect x="165" y="235" width="10" height="10" transform="rotate(0,170,240)"></rect><path d="M 165 245v 10h 10v -5a 5 5, 0, 0, 0, -5 -5" transform="rotate(90,170,250)"></path><rect x="175" y="15" width="10" height="10" transform="rotate(0,180,20)"></rect><path d="M 175 35v 10h 10v -5a 5 5, 0, 0, 0, -5 -5" transform="rotate(-90,180,40)"></path><path d="M 175 75v 5a 5 5, 0, 0, 0, 5 5h 5v -5a 5 5, 0, 0, 0, -5 -5" transform="rotate(90,180,80)"></path><path d="M 175 95v 10h 10v -5a 5 5, 0, 0, 0, -5 -5" transform="rotate(90,180,100)"></path><rect x="175" y="115" width="10" height="10" transform="rotate(0,180,120)"></rect><rect x="175" y="125" width="10" height="10" transform="rotate(0,180,130)"></rect><rect x="175" y="165" width="10" height="10" transform="rotate(0,180,170)"></rect><rect x="175" y="195" width="10" height="10" transform="rotate(0,180,200)"></rect><rect x="175" y="205" width="10" height="10" transform="rotate(0,180,210)"></rect><path d="M 175 235v 10h 10v -5a 5 5, 0, 0, 0, -5 -5" transform="rotate(90,180,240)"></path><path d="M 175 255v 10h 10v -5a 5 5, 0, 0, 0, -5 -5" transform="rotate(-90,180,260)"></path><path d="M 175 265v 10h 10v -5a 5 5, 0, 0, 0, -5 -5" transform="rotate(90,180,270)"></path><path d="M 175 285v 10h 10v -5a 5 5, 0, 0, 0, -5 -5" transform="rotate(-90,180,290)"></path><path d="M 185 5v 10h 10v -5a 5 5, 0, 0, 0, -5 -5" transform="rotate(-90,190,10)"></path><path d="M 185 15v 10h 10v -5a 5 5, 0, 0, 0, -5 -5" transform="rotate(90,190,20)"></path><path d="M 185 35v 10h 10v -5a 5 5, 0, 0, 0, -5 -5" transform="rotate(90,190,40)"></path><path d="M 185 55v 10h 10v -5a 5 5, 0, 0, 0, -5 -5" transform="rotate(-90,190,60)"></path><path d="M 185 65v 10h 10v -5a 5 5, 0, 0, 0, -5 -5" transform="rotate(90,190,70)"></path><rect x="185" y="115" width="10" height="10" transform="rotate(0,190,120)"></rect><path d="M 185 125v 10h 10v -5a 5 5, 0, 0, 0, -5 -5" transform="rotate(90,190,130)"></path><path d="M 185 145v 10h 10v -5a 5 5, 0, 0, 0, -5 -5" transform="rotate(-90,190,150)"></path><rect x="185" y="165" width="10" height="10" transform="rotate(0,190,170)"></rect><path d="M 185 175v 10h 10v -5a 5 5, 0, 0, 0, -5 -5" transform="rotate(90,190,180)"></path><rect x="185" y="195" width="10" height="10" transform="rotate(0,190,200)"></rect><rect x="185" y="205" width="10" height="10" transform="rotate(0,190,210)"></rect><path d="M 185 285v 10h 10v -5a 5 5, 0, 0, 0, -5 -5" transform="rotate(90,190,290)"></path><path d="M 195 25v 5a 5 5, 0, 0, 0, 5 5h 5v -5a 5 5, 0, 0, 0, -5 -5" transform="rotate(90,200,30)"></path><path d="M 195 45v 10h 10v -5a 5 5, 0, 0, 0, -5 -5" transform="rotate(-90,200,50)"></path><path d="M 195 55v 10h 10v -5a 5 5, 0, 0, 0, -5 -5" transform="rotate(90,200,60)"></path><path d="M 195 85v 10h 10v -5a 5 5, 0, 0, 0, -5 -5" transform="rotate(-90,200,90)"></path><path d="M 195 105v 5a 5 5, 0, 0, 0, 5 5h 5v -5a 5 5, 0, 0, 0, -5 -5" transform="rotate(90,200,110)"></path><path d="M 195 135v 10h 10v -5a 5 5, 0, 0, 0, -5 -5" transform="rotate(-90,200,140)"></path><rect x="195" y="145" width="10" height="10" transform="rotate(0,200,150)"></rect><rect x="195" y="155" width="10" height="10" transform="rotate(0,200,160)"></rect><path d="M 195 165v 10h 10v -5a 5 5, 0, 0, 0, -5 -5" transform="rotate(90,200,170)"></path><path d="M 195 185v 10h 10v -5a 5 5, 0, 0, 0, -5 -5" transform="rotate(-90,200,190)"></path><rect x="195" y="195" width="10" height="10" transform="rotate(0,200,200)"></rect><rect x="195" y="205" width="10" height="10" transform="rotate(0,200,210)"></rect><rect x="195" y="215" width="10" height="10" transform="rotate(0,200,220)"></rect><rect x="195" y="225" width="10" height="10" transform="rotate(0,200,230)"></rect><rect x="195" y="235" width="10" height="10" transform="rotate(0,200,240)"></rect><rect x="195" y="245" width="10" height="10" transform="rotate(0,200,250)"></rect><rect x="195" y="255" width="10" height="10" transform="rotate(0,200,260)"></rect><path d="M 195 275v 5a 5 5, 0, 0, 0, 5 5h 5v -5a 5 5, 0, 0, 0, -5 -5" transform="rotate(90,200,280)"></path><path d="M 205 5v 10h 10v -5a 5 5, 0, 0, 0, -5 -5" transform="rotate(-90,210,10)"></path><path d="M 205 15v 10h 10v -5a 5 5, 0, 0, 0, -5 -5" transform="rotate(90,210,20)"></path><path d="M 205 45v 10h 10v -5a 5 5, 0, 0, 0, -5 -5" transform="rotate(90,210,50)"></path><path d="M 205 65v 5a 5 5, 0, 0, 0, 5 5h 5v -5a 5 5, 0, 0, 0, -5 -5" transform="rotate(90,210,70)"></path><rect x="205" y="85" width="10" height="10" transform="rotate(0,210,90)"></rect><path d="M 205 125v 10h 10v -5a 5 5, 0, 0, 0, -5 -5" transform="rotate(-90,210,130)"></path><rect x="205" y="135" width="10" height="10" transform="rotate(0,210,140)"></rect><rect x="205" y="145" width="10" height="10" transform="rotate(0,210,150)"></rect><rect x="205" y="185" width="10" height="10" transform="rotate(0,210,190)"></rect><rect x="205" y="195" width="10" height="10" transform="rotate(0,210,200)"></rect><rect x="205" y="205" width="10" height="10" transform="rotate(0,210,210)"></rect><rect x="205" y="215" width="10" height="10" transform="rotate(0,210,220)"></rect><rect x="205" y="225" width="10" height="10" transform="rotate(0,210,230)"></rect><rect x="205" y="235" width="10" height="10" transform="rotate(0,210,240)"></rect><rect x="205" y="245" width="10" height="10" transform="rotate(0,210,250)"></rect><rect x="205" y="255" width="10" height="10" transform="rotate(0,210,260)"></rect><path d="M 215 85v 10h 10v -5a 5 5, 0, 0, 0, -5 -5" transform="rotate(90,220,90)"></path><path d="M 215 105v 5a 5 5, 0, 0, 0, 5 5h 5v -5a 5 5, 0, 0, 0, -5 -5" transform="rotate(90,220,110)"></path><rect x="215" y="125" width="10" height="10" transform="rotate(0,220,130)"></rect><rect x="215" y="135" width="10" height="10" transform="rotate(0,220,140)"></rect><rect x="215" y="145" width="10" height="10" transform="rotate(0,220,150)"></rect><rect x="215" y="155" width="10" height="10" transform="rotate(0,220,160)"></rect><rect x="215" y="165" width="10" height="10" transform="rotate(0,220,170)"></rect><path d="M 215 175v 10h 10v -5a 5 5, 0, 0, 0, -5 -5" transform="rotate(90,220,180)"></path><rect x="215" y="195" width="10" height="10" transform="rotate(0,220,200)"></rect><rect x="215" y="205" width="10" height="10" transform="rotate(0,220,210)"></rect><rect x="215" y="245" width="10" height="10" transform="rotate(0,220,250)"></rect><rect x="215" y="255" width="10" height="10" transform="rotate(0,220,260)"></rect><path d="M 215 285v 10h 10v -5a 5 5, 0, 0, 0, -5 -5" transform="rotate(-90,220,290)"></path><path d="M 225 95v 10h 10v -5a 5 5, 0, 0, 0, -5 -5" transform="rotate(-90,230,100)"></path><rect x="225" y="125" width="10" height="10" transform="rotate(0,230,130)"></rect><rect x="225" y="135" width="10" height="10" transform="rotate(0,230,140)"></rect><rect x="225" y="145" width="10" height="10" transform="rotate(0,230,150)"></rect><path d="M 225 155v 10h 10v -5a 5 5, 0, 0, 0, -5 -5" transform="rotate(90,230,160)"></path><rect x="225" y="205" width="10" height="10" transform="rotate(0,230,210)"></rect><path d="M 225 225v 5a 5 5, 0, 0, 0, 5 5h 5v -5a 5 5, 0, 0, 0, -5 -5" transform="rotate(90,230,230)"></path><rect x="225" y="245" width="10" height="10" transform="rotate(0,230,250)"></rect><rect x="225" y="255" width="10" height="10" transform="rotate(0,230,260)"></rect><rect x="225" y="265" width="10" height="10" transform="rotate(0,230,270)"></rect><rect x="225" y="275" width="10" height="10" transform="rotate(0,230,280)"></rect><rect x="225" y="285" width="10" height="10" transform="rotate(0,230,290)"></rect><rect x="235" y="95" width="10" height="10" transform="rotate(0,240,100)"></rect><rect x="235" y="105" width="10" height="10" transform="rotate(0,240,110)"></rect><rect x="235" y="115" width="10" height="10" transform="rotate(0,240,120)"></rect><path d="M 235 125v 10h 10v -5a 5 5, 0, 0, 0, -5 -5" transform="rotate(90,240,130)"></path><path d="M 235 175v 10h 10v -5a 5 5, 0, 0, 0, -5 -5" transform="rotate(-90,240,180)"></path><path d="M 235 195v 10h 10v -5a 5 5, 0, 0, 0, -5 -5" transform="rotate(-90,240,200)"></path><rect x="235" y="205" width="10" height="10" transform="rotate(0,240,210)"></rect><rect x="235" y="245" width="10" height="10" transform="rotate(0,240,250)"></rect><path d="M 235 255v 10h 10v -5a 5 5, 0, 0, 0, -5 -5" transform="rotate(90,240,260)"></path><rect x="235" y="285" width="10" height="10" transform="rotate(0,240,290)"></rect><rect x="245" y="95" width="10" height="10" transform="rotate(0,250,100)"></rect><path d="M 245 135v 10h 10v -5a 5 5, 0, 0, 0, -5 -5" transform="rotate(-90,250,140)"></path><path d="M 245 155v 5a 5 5, 0, 0, 0, 5 5h 5v -5a 5 5, 0, 0, 0, -5 -5" transform="rotate(90,250,160)"></path><rect x="245" y="175" width="10" height="10" transform="rotate(0,250,180)"></rect><rect x="245" y="195" width="10" height="10" transform="rotate(0,250,200)"></rect><rect x="245" y="205" width="10" height="10" transform="rotate(0,250,210)"></rect><rect x="245" y="215" width="10" height="10" transform="rotate(0,250,220)"></rect><rect x="245" y="225" width="10" height="10" transform="rotate(0,250,230)"></rect><rect x="245" y="235" width="10" height="10" transform="rotate(0,250,240)"></rect><rect x="245" y="245" width="10" height="10" transform="rotate(0,250,250)"></rect><path d="M 245 275v 10h 10v -5a 5 5, 0, 0, 0, -5 -5" transform="rotate(-90,250,280)"></path><path d="M 245 285v 10h 10v -5a 5 5, 0, 0, 0, -5 -5" transform="rotate(90,250,290)"></path><rect x="255" y="95" width="10" height="10" transform="rotate(0,260,100)"></rect><path d="M 255 135v 10h 10v -5a 5 5, 0, 0, 0, -5 -5" transform="rotate(90,260,140)"></path><rect x="255" y="175" width="10" height="10" transform="rotate(0,260,180)"></rect><rect x="255" y="195" width="10" height="10" transform="rotate(0,260,200)"></rect><path d="M 255 205v 10h 10v -5a 5 5, 0, 0, 0, -5 -5" transform="rotate(90,260,210)"></path><rect x="255" y="235" width="10" height="10" transform="rotate(0,260,240)"></rect><rect x="255" y="245" width="10" height="10" transform="rotate(0,260,250)"></rect><rect x="255" y="255" width="10" height="10" transform="rotate(0,260,260)"></rect><rect x="255" y="265" width="10" height="10" transform="rotate(0,260,270)"></rect><rect x="255" y="275" width="10" height="10" transform="rotate(0,260,280)"></rect><path d="M 265 85v 10h 10v -5a 5 5, 0, 0, 0, -5 -5" transform="rotate(-90,270,90)"></path><rect x="265" y="95" width="10" height="10" transform="rotate(0,270,100)"></rect><path d="M 265 145v 10h 10v -5a 5 5, 0, 0, 0, -5 -5" transform="rotate(-90,270,150)"></path><path d="M 265 155v 10h 10v -5a 5 5, 0, 0, 0, -5 -5" transform="rotate(90,270,160)"></path><path d="M 265 175v 10h 10v -5a 5 5, 0, 0, 0, -5 -5" transform="rotate(90,270,180)"></path><path d="M 265 215v 10h 10v -5a 5 5, 0, 0, 0, -5 -5" transform="rotate(-90,270,220)"></path><path d="M 265 245v 10h 10v -5a 5 5, 0, 0, 0, -5 -5" transform="rotate(90,270,250)"></path><rect x="265" y="265" width="10" height="10" transform="rotate(0,270,270)"></rect><rect x="265" y="275" width="10" height="10" transform="rotate(0,270,280)"></rect><path d="M 265 285v 10h 10v -5a 5 5, 0, 0, 0, -5 -5" transform="rotate(90,270,290)"></path><rect x="275" y="85" width="10" height="10" transform="rotate(0,280,90)"></rect><rect x="275" y="95" width="10" height="10" transform="rotate(0,280,100)"></rect><rect x="275" y="105" width="10" height="10" transform="rotate(0,280,110)"></rect><path d="M 275 115v 10h 10v -5a 5 5, 0, 0, 0, -5 -5" transform="rotate(90,280,120)"></path><rect x="275" y="145" width="10" height="10" transform="rotate(0,280,150)"></rect><path d="M 275 185v 10h 10v -5a 5 5, 0, 0, 0, -5 -5" transform="rotate(-90,280,190)"></path><rect x="275" y="195" width="10" height="10" transform="rotate(0,280,200)"></rect><rect x="275" y="205" width="10" height="10" transform="rotate(0,280,210)"></rect><rect x="275" y="215" width="10" height="10" transform="rotate(0,280,220)"></rect><path d="M 275 225v 10h 10v -5a 5 5, 0, 0, 0, -5 -5" transform="rotate(90,280,230)"></path><path d="M 285 95v 10h 10v -5a 5 5, 0, 0, 0, -5 -5" transform="rotate(90,290,100)"></path><path d="M 285 135v 10h 10v -5a 5 5, 0, 0, 0, -5 -5" transform="rotate(-90,290,140)"></path><rect x="285" y="145" width="10" height="10" transform="rotate(0,290,150)"></rect><path d="M 285 155v 10h 10v -5a 5 5, 0, 0, 0, -5 -5" transform="rotate(90,290,160)"></path><path d="M 285 205v 10h 10v -5a 5 5, 0, 0, 0, -5 -5" transform="rotate(90,290,210)"></path><path d="M 285 235v 10h 10v -5a 5 5, 0, 0, 0, -5 -5" transform="rotate(-90,290,240)"></path><rect x="285" y="245" width="10" height="10" transform="rotate(0,290,250)"></rect><path d="M 285 255v 10h 10v -5a 5 5, 0, 0, 0, -5 -5" transform="rotate(90,290,260)"></path><path d="M 285 285v 5a 5 5, 0, 0, 0, 5 5h 5v -5a 5 5, 0, 0, 0, -5 -5" transform="rotate(90,290,290)"></path></g><g class="corners-square-color-0-0"><path clip-rule="evenodd" d="M 5 30v 20a 25 25, 0, 0, 0, 25 25h 20a 25 25, 0, 0, 0, 25 -25v -20a 25 25, 0, 0, 0, -25 -25h -20a 25 25, 0, 0, 0, -25 25M 30 15h 20a 15 15, 0, 0, 1, 15 15v 20a 15 15, 0, 0, 1, -15 15h -20a 15 15, 0, 0, 1, -15 -15v -20a 15 15, 0, 0, 1, 15 -15" transform="rotate(0,40,40)"></path></g><g class="corners-dot-color-0-0"><circle cx="40" cy="40" r="15" transform="rotate(0,40,40)"></circle></g><g class="corners-square-color-1-0"><path clip-rule="evenodd" d="M 225 30v 20a 25 25, 0, 0, 0, 25 25h 20a 25 25, 0, 0, 0, 25 -25v -20a 25 25, 0, 0, 0, -25 -25h -20a 25 25, 0, 0, 0, -25 25M 250 15h 20a 15 15, 0, 0, 1, 15 15v 20a 15 15, 0, 0, 1, -15 15h -20a 15 15, 0, 0, 1, -15 -15v -20a 15 15, 0, 0, 1, 15 -15" transform="rotate(90,260,40)"></path></g><g class="corners-dot-color-1-0"><circle cx="260" cy="40" r="15" transform="rotate(90,260,40)"></circle></g><g class="corners-square-color-0-1"><path clip-rule="evenodd" d="M 5 250v 20a 25 25, 0, 0, 0, 25 25h 20a 25 25, 0, 0, 0, 25 -25v -20a 25 25, 0, 0, 0, -25 -25h -20a 25 25, 0, 0, 0, -25 25M 30 235h 20a 15 15, 0, 0, 1, 15 15v 20a 15 15, 0, 0, 1, -15 15h -20a 15 15, 0, 0, 1, -15 -15v -20a 15 15, 0, 0, 1, 15 -15" transform="rotate(-90,40,260)"></path></g><g class="corners-dot-color-0-1"><circle cx="40" cy="260" r="15" transform="rotate(-90,40,260)"></circle></g></svg></g></g></svg></svg>